<?xml version="1.0" encoding="utf-8"?>
<!-- Generator: Adobe Illustrator 24.1.1, SVG Export Plug-In . SVG Version: 6.00 Build 0)  -->
<svg version="1.1" id="Capa_1" xmlns="http://www.w3.org/2000/svg" xmlns:xlink="http://www.w3.org/1999/xlink" x="0px" y="0px"
	 viewBox="0 0 290 362" style="enable-background:new 0 0 290 362;" xml:space="preserve">
<style type="text/css">
	.st0{fill:#FFFFFF;}
	.st1{fill:#007CC3;}
	.st2{fill:#D36F62;}
	.st3{fill:#F8C5B0;}
	.st4{fill:#F7A6A9;}
	.st5{fill:#F173AC;}
	.st6{clip-path:url(#SVGID_2_);}
	.st7{fill:#D9D9D9;}
	.st8{fill:#BFBFBF;}
	.st9{fill:#999999;}
	.st10{fill:#1A1A1A;}
	.st11{clip-path:url(#SVGID_4_);}
	.st12{fill:#F5A4C7;}
	.st13{fill:#F4C6DE;}
	.st14{opacity:0.5;fill:#D36F62;}
	.st15{fill:none;stroke:#F4C6DE;stroke-linecap:round;stroke-linejoin:round;stroke-miterlimit:10;}
</style>
<rect x="-15.37" y="-37.85" transform="matrix(-1 4.591293e-11 -4.591293e-11 -1 290 362)" class="st0" width="320.75" height="437.7"/>
<g>
	<g>
		<path class="st1" d="M107.65,159.46l3.15,0.3v0.9c0,2.87-2.2,5.05-5.1,5.05h-1.25c-2.9,0-5.1-2.17-5.1-5.05v-7.9
			c0-2.87,2.2-5.05,5.1-5.05h1.25c2.9,0,5.1,2.17,5.1,5.05v0.9l-3.15,0.3v-1.2c0-1.17-0.83-2.05-2-2.05h-1.15c-1.17,0-2,0.87-2,2.05
			v7.9c0,1.17,0.83,2.05,2,2.05h1.15c1.17,0,2-0.88,2-2.05V159.46z"/>
		<path class="st1" d="M123.47,161.11c0,2.65-1.9,4.6-4.57,4.6h-0.78c-2.67,0-4.57-1.95-4.57-4.6v-4.05c0-2.65,1.9-4.6,4.57-4.6
			h0.78c2.67,0,4.57,1.95,4.57,4.6V161.11z M120.4,156.96c0-0.82-0.67-1.5-1.5-1.5h-0.78c-0.82,0-1.5,0.67-1.5,1.5v4.25
			c0,0.83,0.67,1.5,1.5,1.5h0.78c0.82,0,1.5-0.67,1.5-1.5V156.96z"/>
		<path class="st1" d="M128.8,154.14c0.77-1.02,1.9-1.67,3.22-1.67h0.05c2.77,0,4.32,1.65,4.32,4.57v8.42h-3.07v-8.52
			c0-0.88-0.6-1.47-1.47-1.47h-0.82c-0.88,0-1.47,0.6-1.47,1.47v8.52h-3.07v-12.75h1.42L128.8,154.14z"/>
		<path class="st1" d="M149.15,161.89c0,2.2-1.87,3.82-4.52,3.82h-0.75c-2.67,0-4.62-1.85-4.62-4.35v-0.08l3.07-0.25v0.47
			c0,0.78,0.55,1.33,1.38,1.33h1.15c0.7,0,1.2-0.42,1.2-1c0-2.3-6.65-0.33-6.65-5.55c0-2.2,1.87-3.82,4.52-3.82h0.45
			c2.65,0,4.62,1.8,4.62,4.3v0.08l-3.07,0.3v-0.47c0-0.77-0.58-1.32-1.38-1.32h-0.83c-0.72,0-1.25,0.45-1.25,1.05
			C142.47,158.59,149.15,156.69,149.15,161.89z"/>
		<path class="st1" d="M159.47,164.04c-0.78,1.08-1.88,1.67-3.2,1.67h-0.05c-2.77,0-4.32-1.65-4.32-4.57v-8.42h3.07v8.52
			c0,0.87,0.6,1.47,1.47,1.47h0.82c0.88,0,1.47-0.6,1.47-1.47v-8.52h3.07v12.75h-1.42L159.47,164.04z"/>
		<path class="st1" d="M165.07,165.46v-17.5h3.07v17.5H165.07z"/>
		<path class="st1" d="M176.47,165.46c-2.67,0-4.07-1.42-4.07-4.1v-5.72h-2.25v-2.92h2.25v-3l3.07-0.5v3.5h2.92v2.92h-2.92v5.57
			c0,0.83,0.42,1.25,1.25,1.25h1.67v3H176.47z"/>
		<path class="st1" d="M188.47,164.09c-0.67,1-1.9,1.63-3.4,1.63h-0.05c-2.58,0-4.12-1.47-4.12-3.57v-0.5c0-2.1,1.55-3.52,4.12-3.52
			h2.67v-1.32c0-0.72-0.67-1.32-1.5-1.32h-0.6c-0.82,0-1.5,0.6-1.5,1.32v0.47l-3.07-0.3v-0.08c0-2.5,1.9-4.42,4.57-4.42h0.6
			c2.67,0,4.57,1.92,4.57,4.42v8.57h-1.42L188.47,164.09z M183.97,161.66c0,0.67,0.52,1.2,1.3,1.2h1.15c0.67,0,1.27-0.5,1.27-1.17
			v-1.3h-2.42c-0.78,0-1.3,0.53-1.3,1.2V161.66z"/>
		<path class="st1" d="M81,190.79l3.07,0.3v0.03c0,2.65-1.9,4.6-4.57,4.6h-0.78c-2.67,0-4.57-1.95-4.57-4.6v-4.05
			c0-2.65,1.9-4.6,4.57-4.6h0.78c2.67,0,4.57,1.95,4.57,4.6v2.6h-6.85v1.55c0,0.83,0.67,1.5,1.5,1.5h0.78c0.82,0,1.5-0.67,1.5-1.5
			V190.79z M77.23,187.74H81v-0.78c0-0.82-0.67-1.5-1.5-1.5h-0.78c-0.82,0-1.5,0.67-1.5,1.5V187.74z"/>
		<path class="st1" d="M96.7,191.89c0,2.2-1.87,3.82-4.52,3.82h-0.75c-2.67,0-4.62-1.85-4.62-4.35v-0.08l3.07-0.25v0.47
			c0,0.78,0.55,1.33,1.38,1.33h1.15c0.7,0,1.2-0.42,1.2-1c0-2.3-6.65-0.33-6.65-5.55c0-2.2,1.87-3.82,4.52-3.82h0.45
			c2.65,0,4.62,1.8,4.62,4.3v0.08l-3.07,0.3v-0.47c0-0.77-0.58-1.32-1.38-1.32h-0.83c-0.72,0-1.25,0.45-1.25,1.05
			C90.03,188.59,96.7,186.69,96.7,191.89z"/>
		<path class="st1" d="M101.9,184.14c0.77-1.02,1.9-1.67,3.22-1.67h0.05c2.77,0,4.32,1.65,4.32,4.57v4.1c0,2.92-1.55,4.57-4.32,4.57
			h-0.05c-0.97,0-1.8-0.3-2.47-0.88v5.62h-3.07v-17.75H101L101.9,184.14z M102.65,191.24c0,0.87,0.6,1.47,1.47,1.47h0.82
			c0.88,0,1.47-0.6,1.47-1.47v-4.3c0-0.88-0.6-1.47-1.47-1.47h-0.82c-0.88,0-1.47,0.6-1.47,1.47V191.24z"/>
		<path class="st1" d="M119.1,190.79l3.07,0.3v0.03c0,2.65-1.9,4.6-4.57,4.6h-0.78c-2.67,0-4.57-1.95-4.57-4.6v-4.05
			c0-2.65,1.9-4.6,4.57-4.6h0.78c2.67,0,4.57,1.95,4.57,4.6v2.6h-6.85v1.55c0,0.83,0.67,1.5,1.5,1.5h0.78c0.82,0,1.5-0.67,1.5-1.5
			V190.79z M115.33,187.74h3.77v-0.78c0-0.82-0.67-1.5-1.5-1.5h-0.78c-0.82,0-1.5,0.67-1.5,1.5V187.74z"/>
		<path class="st1" d="M131.77,190.61l3.07,0.3v0.2c0,2.65-1.9,4.6-4.57,4.6h-0.78c-2.67,0-4.57-1.95-4.57-4.6v-4.05
			c0-2.65,1.9-4.6,4.57-4.6h0.78c2.67,0,4.57,1.95,4.57,4.6v0.2l-3.07,0.3v-0.6c0-0.82-0.67-1.5-1.5-1.5h-0.78
			c-0.82,0-1.5,0.67-1.5,1.5v4.25c0,0.83,0.67,1.5,1.5,1.5h0.78c0.82,0,1.5-0.67,1.5-1.5V190.61z"/>
		<path class="st1" d="M137.85,177.96h3.07v2.58h-3.07V177.96z M137.85,195.46v-12.75h3.07v12.75H137.85z"/>
		<path class="st1" d="M151.5,194.09c-0.67,1-1.9,1.63-3.4,1.63h-0.05c-2.58,0-4.12-1.47-4.12-3.57v-0.5c0-2.1,1.55-3.52,4.12-3.52
			h2.67v-1.32c0-0.72-0.67-1.32-1.5-1.32h-0.6c-0.82,0-1.5,0.6-1.5,1.32v0.47l-3.07-0.3v-0.08c0-2.5,1.9-4.42,4.57-4.42h0.6
			c2.67,0,4.57,1.92,4.57,4.42v8.57h-1.42L151.5,194.09z M147,191.66c0,0.67,0.52,1.2,1.3,1.2h1.15c0.67,0,1.27-0.5,1.27-1.17v-1.3
			h-2.42c-0.78,0-1.3,0.53-1.3,1.2V191.66z"/>
		<path class="st1" d="M156.93,195.46v-17.5H160v17.5H156.93z"/>
		<path class="st1" d="M163.25,177.96h3.07v2.58h-3.07V177.96z M163.25,195.46v-12.75h3.07v12.75H163.25z"/>
		<path class="st1" d="M174.05,185.64h-4.97v-2.92h8.85v2.55l-5.2,7.27h5.2v2.92h-9.1v-2.55L174.05,185.64z"/>
		<path class="st1" d="M187.75,194.09c-0.67,1-1.9,1.63-3.4,1.63h-0.05c-2.58,0-4.12-1.47-4.12-3.57v-0.5c0-2.1,1.55-3.52,4.12-3.52
			h2.67v-1.32c0-0.72-0.67-1.32-1.5-1.32h-0.6c-0.82,0-1.5,0.6-1.5,1.32v0.47l-3.07-0.3v-0.08c0-2.5,1.9-4.42,4.57-4.42h0.6
			c2.67,0,4.57,1.92,4.57,4.42v8.57h-1.42L187.75,194.09z M183.25,191.66c0,0.67,0.52,1.2,1.3,1.2h1.15c0.67,0,1.27-0.5,1.27-1.17
			v-1.3h-2.42c-0.78,0-1.3,0.53-1.3,1.2V191.66z"/>
		<path class="st1" d="M200.5,194.04c-0.78,1.08-1.88,1.67-3.2,1.67h-0.05c-2.77,0-4.32-1.65-4.32-4.57v-4.1
			c0-2.92,1.55-4.57,4.32-4.57h0.05c0.92,0,1.75,0.3,2.47,0.9v-5.4h3.07v17.5h-1.42L200.5,194.04z M199.77,186.94
			c0-0.88-0.6-1.47-1.47-1.47h-0.82c-0.88,0-1.47,0.6-1.47,1.47v4.3c0,0.87,0.6,1.47,1.47,1.47h0.82c0.88,0,1.47-0.6,1.47-1.47
			V186.94z"/>
		<path class="st1" d="M213.42,194.09c-0.67,1-1.9,1.63-3.4,1.63h-0.05c-2.58,0-4.12-1.47-4.12-3.57v-0.5c0-2.1,1.55-3.52,4.12-3.52
			h2.67v-1.32c0-0.72-0.67-1.32-1.5-1.32h-0.6c-0.82,0-1.5,0.6-1.5,1.32v0.47l-3.07-0.3v-0.08c0-2.5,1.9-4.42,4.57-4.42h0.6
			c2.67,0,4.57,1.92,4.57,4.42v8.57h-1.42L213.42,194.09z M208.93,191.66c0,0.67,0.52,1.2,1.3,1.2h1.15c0.67,0,1.27-0.5,1.27-1.17
			v-1.3h-2.42c-0.78,0-1.3,0.53-1.3,1.2V191.66z"/>
		<g>
			<path d="M47.9,238.66h-1.46l-5.86-8.88v8.88h-1.46v-11.17h1.46l5.86,8.86v-8.86h1.46V238.66z"/>
		</g>
		<g>
			<path d="M58.15,229.89v8.77H56.7v-1.3c-0.28,0.45-0.66,0.8-1.16,1.05c-0.5,0.25-1.04,0.38-1.64,0.38c-0.68,0-1.3-0.14-1.84-0.42
				s-0.97-0.71-1.29-1.27c-0.31-0.56-0.47-1.25-0.47-2.06v-5.14h1.44v4.94c0,0.86,0.22,1.53,0.66,1.99s1.03,0.7,1.79,0.7
				c0.78,0,1.39-0.24,1.84-0.72c0.45-0.48,0.67-1.18,0.67-2.1v-4.82H58.15z"/>
		</g>
		<g>
			<path d="M68.57,234.82h-7.01c0.05,0.86,0.35,1.54,0.89,2.02c0.54,0.49,1.19,0.73,1.96,0.73c0.63,0,1.15-0.15,1.58-0.44
				c0.42-0.29,0.72-0.68,0.89-1.18h1.57c-0.23,0.84-0.7,1.53-1.41,2.06c-0.7,0.53-1.58,0.79-2.62,0.79c-0.83,0-1.58-0.19-2.23-0.56
				s-1.17-0.9-1.54-1.59c-0.37-0.69-0.56-1.49-0.56-2.39c0-0.91,0.18-1.7,0.54-2.38c0.36-0.68,0.87-1.21,1.53-1.58
				c0.66-0.37,1.41-0.55,2.26-0.55c0.83,0,1.57,0.18,2.21,0.54c0.64,0.36,1.13,0.86,1.48,1.5s0.52,1.35,0.52,2.15
				C68.62,234.22,68.6,234.51,68.57,234.82z M66.75,232.21c-0.25-0.4-0.58-0.7-1-0.91c-0.42-0.21-0.89-0.31-1.4-0.31
				c-0.74,0-1.36,0.23-1.88,0.7c-0.52,0.47-0.81,1.12-0.89,1.95h5.54C67.11,233.08,66.99,232.61,66.75,232.21z"/>
		</g>
		<g>
			<path d="M71.83,238.46c-0.53-0.23-0.96-0.55-1.26-0.96c-0.31-0.41-0.48-0.88-0.51-1.42h1.5c0.04,0.44,0.25,0.79,0.62,1.07
				s0.85,0.42,1.45,0.42c0.55,0,0.99-0.12,1.31-0.37s0.48-0.55,0.48-0.93c0-0.38-0.17-0.67-0.51-0.86
				c-0.34-0.19-0.87-0.37-1.58-0.55c-0.65-0.17-1.18-0.34-1.59-0.52c-0.41-0.18-0.76-0.44-1.06-0.78c-0.29-0.35-0.44-0.8-0.44-1.37
				c0-0.45,0.13-0.86,0.4-1.23c0.27-0.37,0.65-0.67,1.14-0.89s1.05-0.33,1.68-0.33c0.97,0,1.75,0.25,2.35,0.74
				c0.6,0.49,0.92,1.16,0.96,2.02h-1.46c-0.03-0.46-0.22-0.83-0.55-1.1s-0.79-0.42-1.35-0.42c-0.52,0-0.94,0.11-1.25,0.34
				c-0.31,0.22-0.46,0.52-0.46,0.88c0,0.29,0.09,0.53,0.28,0.71s0.42,0.34,0.7,0.45c0.28,0.11,0.67,0.24,1.18,0.38
				c0.63,0.17,1.14,0.34,1.54,0.5s0.73,0.41,1.02,0.74c0.28,0.33,0.43,0.76,0.44,1.3c0,0.48-0.13,0.91-0.4,1.3s-0.64,0.69-1.13,0.9
				c-0.49,0.22-1.04,0.33-1.67,0.33C72.97,238.8,72.37,238.69,71.83,238.46z"/>
		</g>
		<g>
			<path d="M80.67,231.09v5.17c0,0.43,0.09,0.73,0.27,0.9c0.18,0.18,0.5,0.26,0.94,0.26h1.07v1.23h-1.31
				c-0.81,0-1.42-0.19-1.82-0.56c-0.41-0.37-0.61-0.99-0.61-1.84v-5.17h-1.14v-1.2h1.14v-2.21h1.46v2.21h2.29v1.2H80.67z"/>
		</g>
		<g>
			<path d="M87.27,230.15c0.47-0.28,1.05-0.42,1.74-0.42v1.5h-0.38c-1.63,0-2.45,0.89-2.45,2.66v4.77h-1.46v-8.77h1.46v1.42
				C86.43,230.82,86.79,230.43,87.27,230.15z"/>
		</g>
		<g>
			<path d="M92.27,238.25c-0.67-0.37-1.19-0.9-1.57-1.59c-0.38-0.69-0.57-1.49-0.57-2.39c0-0.9,0.19-1.69,0.58-2.38
				c0.39-0.69,0.92-1.22,1.59-1.58c0.67-0.37,1.42-0.55,2.26-0.55s1.58,0.18,2.26,0.55c0.67,0.37,1.2,0.89,1.59,1.58
				s0.58,1.48,0.58,2.38c0,0.91-0.2,1.7-0.6,2.39c-0.4,0.69-0.94,1.22-1.62,1.59s-1.44,0.56-2.27,0.56
				C93.68,238.8,92.94,238.62,92.27,238.25z M95.98,237.16c0.46-0.25,0.83-0.61,1.11-1.1c0.28-0.49,0.42-1.09,0.42-1.79
				c0-0.7-0.14-1.3-0.42-1.79c-0.28-0.49-0.64-0.86-1.09-1.1c-0.45-0.24-0.93-0.36-1.46-0.36c-0.53,0-1.02,0.12-1.46,0.36
				s-0.8,0.61-1.06,1.1c-0.27,0.49-0.4,1.09-0.4,1.79c0,0.71,0.13,1.32,0.39,1.81c0.26,0.49,0.61,0.86,1.05,1.1s0.92,0.36,1.44,0.36
				S95.52,237.4,95.98,237.16z"/>
		</g>
		<g>
			<path d="M102.22,238.46c-0.53-0.23-0.96-0.55-1.26-0.96c-0.31-0.41-0.48-0.88-0.51-1.42h1.5c0.04,0.44,0.25,0.79,0.62,1.07
				s0.85,0.42,1.45,0.42c0.55,0,0.99-0.12,1.31-0.37s0.48-0.55,0.48-0.93c0-0.38-0.17-0.67-0.51-0.86
				c-0.34-0.19-0.87-0.37-1.58-0.55c-0.65-0.17-1.18-0.34-1.59-0.52c-0.41-0.18-0.76-0.44-1.06-0.78c-0.29-0.35-0.44-0.8-0.44-1.37
				c0-0.45,0.13-0.86,0.4-1.23c0.27-0.37,0.65-0.67,1.14-0.89s1.05-0.33,1.68-0.33c0.97,0,1.75,0.25,2.35,0.74
				c0.6,0.49,0.92,1.16,0.96,2.02h-1.46c-0.03-0.46-0.22-0.83-0.55-1.1s-0.79-0.42-1.35-0.42c-0.52,0-0.94,0.11-1.25,0.34
				c-0.31,0.22-0.46,0.52-0.46,0.88c0,0.29,0.09,0.53,0.28,0.71s0.42,0.34,0.7,0.45c0.28,0.11,0.67,0.24,1.18,0.38
				c0.63,0.17,1.14,0.34,1.54,0.5s0.73,0.41,1.02,0.74c0.28,0.33,0.43,0.76,0.44,1.3c0,0.48-0.13,0.91-0.4,1.3s-0.64,0.69-1.13,0.9
				c-0.49,0.22-1.04,0.33-1.67,0.33C103.35,238.8,102.75,238.69,102.22,238.46z"/>
		</g>
		<g>
			<path d="M119.15,230.25c0.57,0.33,1,0.75,1.27,1.25v-1.6h1.47v8.96c0,0.8-0.17,1.51-0.51,2.14c-0.34,0.62-0.83,1.11-1.46,1.46
				c-0.63,0.35-1.37,0.53-2.22,0.53c-1.15,0-2.11-0.27-2.88-0.82c-0.77-0.54-1.22-1.29-1.36-2.22h1.44
				c0.16,0.53,0.49,0.96,0.99,1.29c0.5,0.33,1.1,0.49,1.81,0.49c0.8,0,1.45-0.25,1.96-0.75c0.51-0.5,0.76-1.21,0.76-2.11v-1.84
				c-0.29,0.51-0.71,0.94-1.28,1.28c-0.57,0.34-1.23,0.51-1.98,0.51c-0.78,0-1.49-0.19-2.12-0.58c-0.63-0.38-1.13-0.92-1.5-1.62
				c-0.36-0.69-0.54-1.48-0.54-2.37c0-0.9,0.18-1.68,0.54-2.36c0.36-0.68,0.86-1.2,1.5-1.58c0.63-0.37,1.34-0.56,2.12-0.56
				C117.92,229.75,118.58,229.92,119.15,230.25z M120.02,232.53c-0.27-0.49-0.63-0.87-1.08-1.13s-0.95-0.39-1.5-0.39
				s-1.04,0.13-1.49,0.38c-0.45,0.26-0.81,0.63-1.07,1.12c-0.27,0.49-0.4,1.07-0.4,1.73c0,0.67,0.13,1.26,0.4,1.75
				s0.62,0.88,1.07,1.14c0.45,0.26,0.94,0.39,1.49,0.39s1.04-0.13,1.5-0.39c0.45-0.26,0.81-0.64,1.08-1.14s0.4-1.07,0.4-1.74
				C120.43,233.6,120.29,233.02,120.02,232.53z"/>
		</g>
		<g>
			<path d="M124.41,228.18c-0.19-0.19-0.29-0.43-0.29-0.7s0.1-0.51,0.29-0.7c0.19-0.19,0.43-0.29,0.7-0.29
				c0.27,0,0.49,0.1,0.68,0.29c0.19,0.19,0.28,0.43,0.28,0.7s-0.09,0.51-0.28,0.7c-0.19,0.19-0.41,0.29-0.68,0.29
				C124.84,228.47,124.6,228.37,124.41,228.18z M125.82,229.89v8.77h-1.46v-8.77H125.82z"/>
		</g>
		<g>
			<path d="M135.16,230.7c0.66,0.65,0.99,1.58,0.99,2.79v5.17h-1.44v-4.96c0-0.88-0.22-1.54-0.66-2.01s-1.04-0.7-1.79-0.7
				c-0.77,0-1.38,0.24-1.83,0.72c-0.45,0.48-0.68,1.18-0.68,2.1v4.85h-1.46v-8.77h1.46v1.25c0.29-0.45,0.68-0.79,1.18-1.04
				c0.5-0.25,1.04-0.37,1.64-0.37C133.64,229.73,134.5,230.06,135.16,230.7z"/>
		</g>
		<g>
			<path d="M146.49,234.82h-7.01c0.05,0.86,0.35,1.54,0.89,2.02c0.54,0.49,1.19,0.73,1.96,0.73c0.63,0,1.15-0.15,1.58-0.44
				c0.42-0.29,0.72-0.68,0.89-1.18h1.57c-0.23,0.84-0.7,1.53-1.41,2.06c-0.7,0.53-1.58,0.79-2.62,0.79c-0.83,0-1.58-0.19-2.23-0.56
				s-1.17-0.9-1.54-1.59c-0.37-0.69-0.56-1.49-0.56-2.39c0-0.91,0.18-1.7,0.54-2.38c0.36-0.68,0.87-1.21,1.53-1.58
				c0.66-0.37,1.41-0.55,2.26-0.55c0.83,0,1.57,0.18,2.21,0.54c0.64,0.36,1.13,0.86,1.48,1.5s0.52,1.35,0.52,2.15
				C146.54,234.22,146.52,234.51,146.49,234.82z M144.67,232.21c-0.25-0.4-0.58-0.7-1-0.91c-0.42-0.21-0.89-0.31-1.4-0.31
				c-0.74,0-1.36,0.23-1.88,0.7c-0.52,0.47-0.81,1.12-0.89,1.95h5.54C145.03,233.08,144.91,232.61,144.67,232.21z"/>
		</g>
		<g>
			<path d="M148.46,231.88c0.36-0.68,0.87-1.2,1.51-1.58c0.65-0.37,1.38-0.56,2.22-0.56c1.08,0,1.96,0.26,2.66,0.78
				c0.7,0.52,1.16,1.25,1.38,2.18h-1.57c-0.15-0.53-0.44-0.95-0.87-1.26c-0.43-0.31-0.97-0.46-1.61-0.46c-0.83,0-1.5,0.29-2.02,0.86
				c-0.51,0.57-0.77,1.38-0.77,2.42c0,1.06,0.26,1.87,0.77,2.45c0.51,0.58,1.18,0.86,2.02,0.86c0.64,0,1.17-0.15,1.6-0.45
				s0.72-0.73,0.88-1.28h1.57c-0.23,0.9-0.7,1.61-1.41,2.15c-0.7,0.54-1.58,0.81-2.64,0.81c-0.83,0-1.57-0.19-2.22-0.56
				s-1.15-0.9-1.51-1.58c-0.36-0.68-0.54-1.48-0.54-2.4C147.91,233.35,148.09,232.56,148.46,231.88z"/>
		</g>
		<g>
			<path d="M159.76,238.25c-0.67-0.37-1.19-0.9-1.57-1.59c-0.38-0.69-0.57-1.49-0.57-2.39c0-0.9,0.19-1.69,0.58-2.38
				c0.39-0.69,0.92-1.22,1.59-1.58c0.67-0.37,1.42-0.55,2.26-0.55s1.58,0.18,2.26,0.55c0.67,0.37,1.2,0.89,1.59,1.58
				s0.58,1.48,0.58,2.38c0,0.91-0.2,1.7-0.6,2.39c-0.4,0.69-0.94,1.22-1.62,1.59s-1.44,0.56-2.27,0.56
				C161.17,238.8,160.43,238.62,159.76,238.25z M163.47,237.16c0.46-0.25,0.83-0.61,1.11-1.1c0.28-0.49,0.42-1.09,0.42-1.79
				c0-0.7-0.14-1.3-0.42-1.79c-0.28-0.49-0.64-0.86-1.09-1.1c-0.45-0.24-0.93-0.36-1.46-0.36c-0.53,0-1.02,0.12-1.46,0.36
				s-0.8,0.61-1.06,1.1c-0.27,0.49-0.4,1.09-0.4,1.79c0,0.71,0.13,1.32,0.39,1.81c0.26,0.49,0.61,0.86,1.05,1.1s0.92,0.36,1.44,0.36
				S163.01,237.4,163.47,237.16z"/>
		</g>
		<g>
			<path d="M174.49,232.18v1.23h-6.38v-1.23H174.49z"/>
		</g>
		<g>
			<path d="M178.82,238.25c-0.67-0.37-1.19-0.9-1.57-1.59c-0.38-0.69-0.57-1.49-0.57-2.39c0-0.9,0.19-1.69,0.58-2.38
				c0.39-0.69,0.92-1.22,1.59-1.58c0.67-0.37,1.42-0.55,2.26-0.55s1.58,0.18,2.26,0.55c0.67,0.37,1.2,0.89,1.59,1.58
				s0.58,1.48,0.58,2.38c0,0.91-0.2,1.7-0.6,2.39c-0.4,0.69-0.94,1.22-1.62,1.59s-1.44,0.56-2.27,0.56
				C180.23,238.8,179.48,238.62,178.82,238.25z M182.52,237.16c0.46-0.25,0.83-0.61,1.11-1.1c0.28-0.49,0.42-1.09,0.42-1.79
				c0-0.7-0.14-1.3-0.42-1.79c-0.28-0.49-0.64-0.86-1.09-1.1c-0.45-0.24-0.93-0.36-1.46-0.36c-0.53,0-1.02,0.12-1.46,0.36
				s-0.8,0.61-1.06,1.1c-0.27,0.49-0.4,1.09-0.4,1.79c0,0.71,0.13,1.32,0.39,1.81c0.26,0.49,0.61,0.86,1.05,1.1s0.92,0.36,1.44,0.36
				S182.06,237.4,182.52,237.16z"/>
		</g>
		<g>
			<path d="M190.23,230.25c0.58-0.33,1.23-0.5,1.97-0.5c0.79,0,1.5,0.19,2.13,0.56c0.63,0.37,1.13,0.9,1.49,1.58
				c0.36,0.68,0.54,1.46,0.54,2.36c0,0.89-0.18,1.67-0.54,2.37s-0.86,1.23-1.5,1.62c-0.63,0.38-1.34,0.58-2.12,0.58
				c-0.76,0-1.42-0.17-1.99-0.5c-0.57-0.33-1-0.75-1.29-1.26v1.62h-1.46v-11.84h1.46v4.7C189.22,231,189.66,230.58,190.23,230.25z
				 M194.47,232.52c-0.27-0.49-0.63-0.86-1.08-1.12c-0.45-0.26-0.95-0.38-1.5-0.38c-0.53,0-1.03,0.13-1.48,0.39
				c-0.45,0.26-0.82,0.64-1.09,1.14c-0.27,0.5-0.41,1.07-0.41,1.72c0,0.66,0.14,1.24,0.41,1.74c0.27,0.5,0.63,0.88,1.09,1.14
				c0.45,0.26,0.95,0.39,1.48,0.39c0.54,0,1.04-0.13,1.5-0.39c0.45-0.26,0.81-0.64,1.08-1.14s0.4-1.08,0.4-1.75
				C194.87,233.58,194.74,233.01,194.47,232.52z"/>
		</g>
		<g>
			<path d="M199.58,238.46c-0.53-0.23-0.96-0.55-1.26-0.96c-0.31-0.41-0.48-0.88-0.51-1.42h1.5c0.04,0.44,0.25,0.79,0.62,1.07
				s0.85,0.42,1.45,0.42c0.55,0,0.99-0.12,1.31-0.37s0.48-0.55,0.48-0.93c0-0.38-0.17-0.67-0.51-0.86
				c-0.34-0.19-0.87-0.37-1.58-0.55c-0.65-0.17-1.18-0.34-1.59-0.52c-0.41-0.18-0.76-0.44-1.06-0.78c-0.29-0.35-0.44-0.8-0.44-1.37
				c0-0.45,0.13-0.86,0.4-1.23c0.27-0.37,0.65-0.67,1.14-0.89s1.05-0.33,1.68-0.33c0.97,0,1.75,0.25,2.35,0.74
				c0.6,0.49,0.92,1.16,0.96,2.02h-1.46c-0.03-0.46-0.22-0.83-0.55-1.1s-0.79-0.42-1.35-0.42c-0.52,0-0.94,0.11-1.25,0.34
				c-0.31,0.22-0.46,0.52-0.46,0.88c0,0.29,0.09,0.53,0.28,0.71s0.42,0.34,0.7,0.45c0.28,0.11,0.67,0.24,1.18,0.38
				c0.63,0.17,1.14,0.34,1.54,0.5s0.73,0.41,1.02,0.74c0.28,0.33,0.43,0.76,0.44,1.3c0,0.48-0.13,0.91-0.4,1.3s-0.64,0.69-1.13,0.9
				c-0.49,0.22-1.04,0.33-1.67,0.33C200.71,238.8,200.11,238.69,199.58,238.46z"/>
		</g>
		<g>
			<path d="M208.41,231.09v5.17c0,0.43,0.09,0.73,0.27,0.9c0.18,0.18,0.5,0.26,0.94,0.26h1.07v1.23h-1.31
				c-0.81,0-1.42-0.19-1.82-0.56c-0.41-0.37-0.61-0.99-0.61-1.84v-5.17h-1.14v-1.2h1.14v-2.21h1.46v2.21h2.29v1.2H208.41z"/>
		</g>
		<g>
			<path d="M220.41,234.82h-7.01c0.05,0.86,0.35,1.54,0.89,2.02c0.54,0.49,1.19,0.73,1.96,0.73c0.63,0,1.15-0.15,1.58-0.44
				c0.42-0.29,0.72-0.68,0.89-1.18h1.57c-0.23,0.84-0.7,1.53-1.41,2.06c-0.7,0.53-1.58,0.79-2.62,0.79c-0.83,0-1.58-0.19-2.23-0.56
				s-1.17-0.9-1.54-1.59c-0.37-0.69-0.56-1.49-0.56-2.39c0-0.91,0.18-1.7,0.54-2.38c0.36-0.68,0.87-1.21,1.53-1.58
				c0.66-0.37,1.41-0.55,2.26-0.55c0.83,0,1.57,0.18,2.21,0.54c0.64,0.36,1.13,0.86,1.48,1.5s0.52,1.35,0.52,2.15
				C220.46,234.22,220.44,234.51,220.41,234.82z M218.59,232.21c-0.25-0.4-0.58-0.7-1-0.91c-0.42-0.21-0.89-0.31-1.4-0.31
				c-0.74,0-1.36,0.23-1.88,0.7c-0.52,0.47-0.81,1.12-0.89,1.95h5.54C218.95,233.08,218.83,232.61,218.59,232.21z"/>
		</g>
		<g>
			<path d="M224.15,231.09v5.17c0,0.43,0.09,0.73,0.27,0.9c0.18,0.18,0.5,0.26,0.94,0.26h1.07v1.23h-1.31
				c-0.81,0-1.42-0.19-1.82-0.56c-0.41-0.37-0.61-0.99-0.61-1.84v-5.17h-1.14v-1.2h1.14v-2.21h1.46v2.21h2.29v1.2H224.15z"/>
		</g>
		<g>
			<path d="M230.75,230.15c0.47-0.28,1.05-0.42,1.74-0.42v1.5h-0.38c-1.63,0-2.45,0.89-2.45,2.66v4.77h-1.46v-8.77h1.46v1.42
				C229.91,230.82,230.28,230.43,230.75,230.15z"/>
		</g>
		<g>
			<path d="M234.17,231.88c0.36-0.68,0.86-1.2,1.5-1.58c0.63-0.37,1.34-0.56,2.12-0.56c0.77,0,1.43,0.17,2,0.5
				c0.57,0.33,0.99,0.75,1.26,1.25v-1.6h1.47v8.77h-1.47v-1.63c-0.29,0.51-0.72,0.94-1.29,1.27c-0.57,0.34-1.24,0.5-1.99,0.5
				c-0.78,0-1.48-0.19-2.11-0.58c-0.63-0.38-1.13-0.92-1.49-1.62c-0.36-0.69-0.54-1.48-0.54-2.37
				C233.63,233.35,233.81,232.56,234.17,231.88z M240.65,232.53c-0.27-0.49-0.63-0.87-1.08-1.13s-0.95-0.39-1.5-0.39
				s-1.04,0.13-1.49,0.38c-0.45,0.26-0.81,0.63-1.07,1.12c-0.27,0.49-0.4,1.07-0.4,1.73c0,0.67,0.13,1.26,0.4,1.75
				s0.62,0.88,1.07,1.14c0.45,0.26,0.94,0.39,1.49,0.39s1.04-0.13,1.5-0.39c0.45-0.26,0.81-0.64,1.08-1.14s0.4-1.07,0.4-1.74
				C241.05,233.6,240.92,233.02,240.65,232.53z"/>
		</g>
		<g>
			<path d="M246.28,238.46c-0.53-0.23-0.96-0.55-1.26-0.96c-0.31-0.41-0.48-0.88-0.51-1.42h1.5c0.04,0.44,0.25,0.79,0.62,1.07
				s0.85,0.42,1.45,0.42c0.55,0,0.99-0.12,1.31-0.37s0.48-0.55,0.48-0.93c0-0.38-0.17-0.67-0.51-0.86
				c-0.34-0.19-0.87-0.37-1.58-0.55c-0.65-0.17-1.18-0.34-1.59-0.52c-0.41-0.18-0.76-0.44-1.06-0.78c-0.29-0.35-0.44-0.8-0.44-1.37
				c0-0.45,0.13-0.86,0.4-1.23c0.27-0.37,0.65-0.67,1.14-0.89s1.05-0.33,1.68-0.33c0.97,0,1.75,0.25,2.35,0.74
				c0.6,0.49,0.92,1.16,0.96,2.02h-1.46c-0.03-0.46-0.22-0.83-0.55-1.1s-0.79-0.42-1.35-0.42c-0.52,0-0.94,0.11-1.25,0.34
				c-0.31,0.22-0.46,0.52-0.46,0.88c0,0.29,0.09,0.53,0.28,0.71s0.42,0.34,0.7,0.45c0.28,0.11,0.67,0.24,1.18,0.38
				c0.63,0.17,1.14,0.34,1.54,0.5s0.73,0.41,1.02,0.74c0.28,0.33,0.43,0.76,0.44,1.3c0,0.48-0.13,0.91-0.4,1.3s-0.64,0.69-1.13,0.9
				c-0.49,0.22-1.04,0.33-1.67,0.33C247.42,238.8,246.81,238.69,246.28,238.46z"/>
		</g>
		<g>
			<path d="M52.36,258.82h-7.01c0.05,0.86,0.35,1.54,0.89,2.02c0.54,0.49,1.19,0.73,1.96,0.73c0.63,0,1.15-0.15,1.58-0.44
				c0.42-0.29,0.72-0.68,0.89-1.18h1.57c-0.23,0.84-0.7,1.53-1.41,2.06c-0.7,0.53-1.58,0.79-2.62,0.79c-0.83,0-1.58-0.19-2.23-0.56
				s-1.17-0.9-1.54-1.59c-0.37-0.69-0.56-1.49-0.56-2.39c0-0.91,0.18-1.7,0.54-2.38c0.36-0.68,0.87-1.21,1.53-1.58
				c0.66-0.37,1.41-0.55,2.26-0.55c0.83,0,1.57,0.18,2.21,0.54c0.64,0.36,1.13,0.86,1.48,1.5s0.52,1.35,0.52,2.15
				C52.41,258.22,52.39,258.51,52.36,258.82z M50.54,256.21c-0.25-0.4-0.58-0.7-1-0.91c-0.42-0.21-0.89-0.31-1.4-0.31
				c-0.74,0-1.36,0.23-1.88,0.7c-0.52,0.47-0.81,1.12-0.89,1.95h5.54C50.9,257.08,50.78,256.61,50.54,256.21z"/>
		</g>
		<g>
			<path d="M55.63,262.46c-0.53-0.23-0.96-0.55-1.26-0.96c-0.31-0.41-0.48-0.88-0.51-1.42h1.5c0.04,0.44,0.25,0.79,0.62,1.07
				s0.85,0.42,1.45,0.42c0.55,0,0.99-0.12,1.31-0.37s0.48-0.55,0.48-0.93c0-0.38-0.17-0.67-0.51-0.86
				c-0.34-0.19-0.87-0.37-1.58-0.55c-0.65-0.17-1.18-0.34-1.59-0.52c-0.41-0.18-0.76-0.44-1.06-0.78c-0.29-0.35-0.44-0.8-0.44-1.37
				c0-0.45,0.13-0.86,0.4-1.23c0.27-0.37,0.65-0.67,1.14-0.89s1.05-0.33,1.68-0.33c0.97,0,1.75,0.25,2.35,0.74
				c0.6,0.49,0.92,1.16,0.96,2.02H59.1c-0.03-0.46-0.22-0.83-0.55-1.1s-0.79-0.42-1.35-0.42c-0.52,0-0.94,0.11-1.25,0.34
				c-0.31,0.22-0.46,0.52-0.46,0.88c0,0.29,0.09,0.53,0.28,0.71s0.42,0.34,0.7,0.45c0.28,0.11,0.67,0.24,1.18,0.38
				c0.63,0.17,1.14,0.34,1.54,0.5s0.73,0.41,1.02,0.74c0.28,0.33,0.43,0.76,0.44,1.3c0,0.48-0.13,0.91-0.4,1.3s-0.64,0.69-1.13,0.9
				c-0.49,0.22-1.04,0.33-1.67,0.33C56.76,262.8,56.16,262.69,55.63,262.46z"/>
		</g>
		<g>
			<path d="M62.68,255.88c0.36-0.68,0.87-1.2,1.51-1.58c0.65-0.37,1.38-0.56,2.22-0.56c1.08,0,1.96,0.26,2.66,0.78
				c0.7,0.52,1.16,1.25,1.38,2.18h-1.57c-0.15-0.53-0.44-0.95-0.87-1.26c-0.43-0.31-0.97-0.46-1.61-0.46c-0.83,0-1.5,0.29-2.02,0.86
				c-0.51,0.57-0.77,1.38-0.77,2.42c0,1.06,0.26,1.87,0.77,2.45c0.51,0.58,1.18,0.86,2.02,0.86c0.64,0,1.17-0.15,1.6-0.45
				s0.72-0.73,0.88-1.28h1.57c-0.23,0.9-0.7,1.61-1.41,2.15c-0.7,0.54-1.58,0.81-2.64,0.81c-0.83,0-1.57-0.19-2.22-0.56
				s-1.15-0.9-1.51-1.58c-0.36-0.68-0.54-1.48-0.54-2.4C62.14,257.35,62.32,256.56,62.68,255.88z"/>
		</g>
		<g>
			<path d="M80.17,253.89v8.77h-1.46v-1.3c-0.28,0.45-0.66,0.8-1.16,1.05c-0.5,0.25-1.04,0.38-1.64,0.38c-0.68,0-1.3-0.14-1.84-0.42
				s-0.97-0.71-1.29-1.27c-0.31-0.56-0.47-1.25-0.47-2.06v-5.14h1.44v4.94c0,0.86,0.22,1.53,0.66,1.99s1.03,0.7,1.79,0.7
				c0.78,0,1.39-0.24,1.84-0.72c0.45-0.48,0.67-1.18,0.67-2.1v-4.82H80.17z"/>
		</g>
		<g>
			<path d="M82.63,255.88c0.36-0.68,0.87-1.2,1.51-1.58c0.65-0.37,1.38-0.56,2.22-0.56c1.08,0,1.96,0.26,2.66,0.78
				c0.7,0.52,1.16,1.25,1.38,2.18h-1.57c-0.15-0.53-0.44-0.95-0.87-1.26c-0.43-0.31-0.97-0.46-1.61-0.46c-0.83,0-1.5,0.29-2.02,0.86
				c-0.51,0.57-0.77,1.38-0.77,2.42c0,1.06,0.26,1.87,0.77,2.45c0.51,0.58,1.18,0.86,2.02,0.86c0.64,0,1.17-0.15,1.6-0.45
				s0.72-0.73,0.88-1.28h1.57c-0.23,0.9-0.7,1.61-1.41,2.15c-0.7,0.54-1.58,0.81-2.64,0.81c-0.83,0-1.57-0.19-2.22-0.56
				s-1.15-0.9-1.51-1.58c-0.36-0.68-0.54-1.48-0.54-2.4C82.09,257.35,82.27,256.56,82.63,255.88z"/>
		</g>
		<g>
			<path d="M98.49,254.16c0.53,0.28,0.95,0.71,1.26,1.27c0.3,0.57,0.46,1.25,0.46,2.06v5.17h-1.44v-4.96c0-0.88-0.22-1.54-0.66-2.01
				s-1.04-0.7-1.79-0.7c-0.77,0-1.38,0.24-1.83,0.72c-0.45,0.48-0.68,1.18-0.68,2.1v4.85h-1.46v-11.84h1.46v4.32
				c0.29-0.45,0.68-0.79,1.19-1.04c0.51-0.25,1.07-0.37,1.7-0.37C97.36,253.73,97.96,253.88,98.49,254.16z"/>
		</g>
		<g>
			<path d="M102.59,255.88c0.36-0.68,0.86-1.2,1.5-1.58c0.63-0.37,1.34-0.56,2.12-0.56c0.77,0,1.43,0.17,2,0.5
				c0.57,0.33,0.99,0.75,1.26,1.25v-1.6h1.47v8.77h-1.47v-1.63c-0.29,0.51-0.72,0.94-1.29,1.27c-0.57,0.34-1.24,0.5-1.99,0.5
				c-0.78,0-1.48-0.19-2.11-0.58c-0.63-0.38-1.13-0.92-1.49-1.62c-0.36-0.69-0.54-1.48-0.54-2.37
				C102.04,257.35,102.22,256.56,102.59,255.88z M109.06,256.53c-0.27-0.49-0.63-0.87-1.08-1.13s-0.95-0.39-1.5-0.39
				s-1.04,0.13-1.49,0.38c-0.45,0.26-0.81,0.63-1.07,1.12c-0.27,0.49-0.4,1.07-0.4,1.73c0,0.67,0.13,1.26,0.4,1.75
				s0.62,0.88,1.07,1.14c0.45,0.26,0.94,0.39,1.49,0.39s1.04-0.13,1.5-0.39c0.45-0.26,0.81-0.64,1.08-1.14s0.4-1.07,0.4-1.74
				C109.47,257.6,109.33,257.02,109.06,256.53z"/>
		</g>
		<g>
			<path d="M115.95,254.15c0.47-0.28,1.05-0.42,1.74-0.42v1.5h-0.38c-1.63,0-2.45,0.89-2.45,2.66v4.77h-1.46v-8.77h1.46v1.42
				C115.11,254.82,115.48,254.43,115.95,254.15z"/>
		</g>
		<g>
			<path d="M119.37,255.88c0.36-0.68,0.86-1.2,1.5-1.58c0.63-0.37,1.34-0.56,2.12-0.56c0.77,0,1.43,0.17,2,0.5
				c0.57,0.33,0.99,0.75,1.26,1.25v-1.6h1.47v8.77h-1.47v-1.63c-0.29,0.51-0.72,0.94-1.29,1.27c-0.57,0.34-1.24,0.5-1.99,0.5
				c-0.78,0-1.48-0.19-2.11-0.58c-0.63-0.38-1.13-0.92-1.49-1.62c-0.36-0.69-0.54-1.48-0.54-2.37
				C118.82,257.35,119.01,256.56,119.37,255.88z M125.85,256.53c-0.27-0.49-0.63-0.87-1.08-1.13s-0.95-0.39-1.5-0.39
				s-1.04,0.13-1.49,0.38c-0.45,0.26-0.81,0.63-1.07,1.12c-0.27,0.49-0.4,1.07-0.4,1.73c0,0.67,0.13,1.26,0.4,1.75
				s0.62,0.88,1.07,1.14c0.45,0.26,0.94,0.39,1.49,0.39s1.04-0.13,1.5-0.39c0.45-0.26,0.81-0.64,1.08-1.14s0.4-1.07,0.4-1.74
				C126.25,257.6,126.11,257.02,125.85,256.53z M125.11,251.41l-3.41,1.82v-1.09l3.41-2V251.41z"/>
		</g>
		<g>
			<path d="M137.05,254.7c0.66,0.65,0.99,1.58,0.99,2.79v5.17h-1.44v-4.96c0-0.88-0.22-1.54-0.66-2.01s-1.04-0.7-1.79-0.7
				c-0.77,0-1.38,0.24-1.83,0.72c-0.45,0.48-0.68,1.18-0.68,2.1v4.85h-1.46v-8.77h1.46v1.25c0.29-0.45,0.68-0.79,1.18-1.04
				c0.5-0.25,1.04-0.37,1.64-0.37C135.52,253.73,136.39,254.06,137.05,254.7z"/>
		</g>
		<g>
			<path d="M152.25,253.89l-5.28,12.9h-1.5l1.73-4.22l-3.54-8.67h1.62l2.75,7.1l2.72-7.1H152.25z"/>
		</g>
		<g>
			<path d="M157.98,255.88c0.36-0.68,0.86-1.2,1.5-1.58c0.63-0.37,1.34-0.56,2.12-0.56c0.77,0,1.43,0.17,2,0.5
				c0.57,0.33,0.99,0.75,1.26,1.25v-1.6h1.47v8.77h-1.47v-1.63c-0.29,0.51-0.72,0.94-1.29,1.27c-0.57,0.34-1.24,0.5-1.99,0.5
				c-0.78,0-1.48-0.19-2.11-0.58c-0.63-0.38-1.13-0.92-1.49-1.62c-0.36-0.69-0.54-1.48-0.54-2.37
				C157.43,257.35,157.61,256.56,157.98,255.88z M164.45,256.53c-0.27-0.49-0.63-0.87-1.08-1.13s-0.95-0.39-1.5-0.39
				s-1.04,0.13-1.49,0.38c-0.45,0.26-0.81,0.63-1.07,1.12c-0.27,0.49-0.4,1.07-0.4,1.73c0,0.67,0.13,1.26,0.4,1.75
				s0.62,0.88,1.07,1.14c0.45,0.26,0.94,0.39,1.49,0.39s1.04-0.13,1.5-0.39c0.45-0.26,0.81-0.64,1.08-1.14s0.4-1.07,0.4-1.74
				C164.85,257.6,164.72,257.02,164.45,256.53z"/>
		</g>
		<g>
			<path d="M171.56,254.25c0.58-0.33,1.23-0.5,1.97-0.5c0.79,0,1.5,0.19,2.13,0.56c0.63,0.37,1.13,0.9,1.49,1.58
				c0.36,0.68,0.54,1.46,0.54,2.36c0,0.89-0.18,1.67-0.54,2.37s-0.86,1.23-1.5,1.62c-0.63,0.38-1.34,0.58-2.12,0.58
				c-0.76,0-1.42-0.17-1.99-0.5c-0.57-0.33-1-0.75-1.29-1.26v1.62h-1.46v-11.84h1.46v4.7C170.55,255,170.98,254.58,171.56,254.25z
				 M175.8,256.52c-0.27-0.49-0.63-0.86-1.08-1.12c-0.45-0.26-0.95-0.38-1.5-0.38c-0.53,0-1.03,0.13-1.48,0.39
				c-0.45,0.26-0.82,0.64-1.09,1.14c-0.27,0.5-0.41,1.07-0.41,1.72c0,0.66,0.14,1.24,0.41,1.74c0.27,0.5,0.63,0.88,1.09,1.14
				c0.45,0.26,0.95,0.39,1.48,0.39c0.54,0,1.04-0.13,1.5-0.39c0.45-0.26,0.81-0.64,1.08-1.14s0.4-1.08,0.4-1.75
				C176.2,257.58,176.07,257.01,175.8,256.52z"/>
		</g>
		<g>
			<path d="M180.9,262.46c-0.53-0.23-0.96-0.55-1.26-0.96c-0.31-0.41-0.48-0.88-0.51-1.42h1.5c0.04,0.44,0.25,0.79,0.62,1.07
				s0.85,0.42,1.45,0.42c0.55,0,0.99-0.12,1.31-0.37s0.48-0.55,0.48-0.93c0-0.38-0.17-0.67-0.51-0.86
				c-0.34-0.19-0.87-0.37-1.58-0.55c-0.65-0.17-1.18-0.34-1.59-0.52c-0.41-0.18-0.76-0.44-1.06-0.78c-0.29-0.35-0.44-0.8-0.44-1.37
				c0-0.45,0.13-0.86,0.4-1.23c0.27-0.37,0.65-0.67,1.14-0.89s1.05-0.33,1.68-0.33c0.97,0,1.75,0.25,2.35,0.74
				c0.6,0.49,0.92,1.16,0.96,2.02h-1.46c-0.03-0.46-0.22-0.83-0.55-1.1s-0.79-0.42-1.35-0.42c-0.52,0-0.94,0.11-1.25,0.34
				c-0.31,0.22-0.46,0.52-0.46,0.88c0,0.29,0.09,0.53,0.28,0.71s0.42,0.34,0.7,0.45c0.28,0.11,0.67,0.24,1.18,0.38
				c0.63,0.17,1.14,0.34,1.54,0.5s0.73,0.41,1.02,0.74c0.28,0.33,0.43,0.76,0.44,1.3c0,0.48-0.13,0.91-0.4,1.3s-0.64,0.69-1.13,0.9
				c-0.49,0.22-1.04,0.33-1.67,0.33C182.04,262.8,181.44,262.69,180.9,262.46z"/>
		</g>
		<g>
			<path d="M189.55,262.25c-0.67-0.37-1.19-0.9-1.57-1.59c-0.38-0.69-0.57-1.49-0.57-2.39c0-0.9,0.19-1.69,0.58-2.38
				c0.39-0.69,0.92-1.22,1.59-1.58c0.67-0.37,1.42-0.55,2.26-0.55s1.58,0.18,2.26,0.55c0.67,0.37,1.2,0.89,1.59,1.58
				s0.58,1.48,0.58,2.38c0,0.91-0.2,1.7-0.6,2.39c-0.4,0.69-0.94,1.22-1.62,1.59s-1.44,0.56-2.27,0.56
				C190.96,262.8,190.22,262.62,189.55,262.25z M193.26,261.16c0.46-0.25,0.83-0.61,1.11-1.1c0.28-0.49,0.42-1.09,0.42-1.79
				c0-0.7-0.14-1.3-0.42-1.79c-0.28-0.49-0.64-0.86-1.09-1.1c-0.45-0.24-0.93-0.36-1.46-0.36c-0.53,0-1.02,0.12-1.46,0.36
				s-0.8,0.61-1.06,1.1c-0.27,0.49-0.4,1.09-0.4,1.79c0,0.71,0.13,1.32,0.39,1.81c0.26,0.49,0.61,0.86,1.05,1.1s0.92,0.36,1.44,0.36
				S192.8,261.4,193.26,261.16z"/>
		</g>
		<g>
			<path d="M199.66,250.82v11.84h-1.46v-11.84H199.66z"/>
		</g>
		<g>
			<path d="M205.4,261.32l2.72-7.42h1.55l-3.44,8.77h-1.7l-3.44-8.77h1.57L205.4,261.32z"/>
		</g>
		<g>
			<path d="M219.06,258.82h-7.01c0.05,0.86,0.35,1.54,0.89,2.02c0.54,0.49,1.19,0.73,1.96,0.73c0.63,0,1.15-0.15,1.58-0.44
				c0.42-0.29,0.72-0.68,0.89-1.18h1.57c-0.23,0.84-0.7,1.53-1.41,2.06c-0.7,0.53-1.58,0.79-2.62,0.79c-0.83,0-1.58-0.19-2.23-0.56
				s-1.17-0.9-1.54-1.59c-0.37-0.69-0.56-1.49-0.56-2.39c0-0.91,0.18-1.7,0.54-2.38c0.36-0.68,0.87-1.21,1.53-1.58
				c0.66-0.37,1.41-0.55,2.26-0.55c0.83,0,1.57,0.18,2.21,0.54c0.64,0.36,1.13,0.86,1.48,1.5s0.52,1.35,0.52,2.15
				C219.11,258.22,219.09,258.51,219.06,258.82z M217.24,256.21c-0.25-0.4-0.58-0.7-1-0.91c-0.42-0.21-0.89-0.31-1.4-0.31
				c-0.74,0-1.36,0.23-1.88,0.7c-0.52,0.47-0.81,1.12-0.89,1.95h5.54C217.61,257.08,217.48,256.61,217.24,256.21z"/>
		</g>
		<g>
			<path d="M223.58,254.15c0.47-0.28,1.05-0.42,1.74-0.42v1.5h-0.38c-1.63,0-2.45,0.89-2.45,2.66v4.77h-1.46v-8.77h1.46v1.42
				C222.74,254.82,223.11,254.43,223.58,254.15z"/>
		</g>
		<g>
			<path d="M227,255.88c0.36-0.68,0.86-1.2,1.5-1.58c0.63-0.37,1.34-0.56,2.12-0.56c0.77,0,1.43,0.17,2,0.5
				c0.57,0.33,0.99,0.75,1.26,1.25v-1.6h1.47v8.77h-1.47v-1.63c-0.29,0.51-0.72,0.94-1.29,1.27c-0.57,0.34-1.24,0.5-1.99,0.5
				c-0.78,0-1.48-0.19-2.11-0.58c-0.63-0.38-1.13-0.92-1.49-1.62c-0.36-0.69-0.54-1.48-0.54-2.37
				C226.45,257.35,226.64,256.56,227,255.88z M233.48,256.53c-0.27-0.49-0.63-0.87-1.08-1.13s-0.95-0.39-1.5-0.39
				s-1.04,0.13-1.49,0.38c-0.45,0.26-0.81,0.63-1.07,1.12c-0.27,0.49-0.4,1.07-0.4,1.73c0,0.67,0.13,1.26,0.4,1.75
				s0.62,0.88,1.07,1.14c0.45,0.26,0.94,0.39,1.49,0.39s1.04-0.13,1.5-0.39c0.45-0.26,0.81-0.64,1.08-1.14s0.4-1.07,0.4-1.74
				C233.88,257.6,233.74,257.02,233.48,256.53z M232.74,251.41l-3.41,1.82v-1.09l3.41-2V251.41z"/>
		</g>
		<g>
			<path d="M244.68,254.7c0.66,0.65,0.99,1.58,0.99,2.79v5.17h-1.44v-4.96c0-0.88-0.22-1.54-0.66-2.01s-1.04-0.7-1.79-0.7
				c-0.77,0-1.38,0.24-1.83,0.72c-0.45,0.48-0.68,1.18-0.68,2.1v4.85h-1.46v-8.77h1.46v1.25c0.29-0.45,0.68-0.79,1.18-1.04
				c0.5-0.25,1.04-0.37,1.64-0.37C243.15,253.73,244.02,254.06,244.68,254.7z"/>
		</g>
		<g>
			<path d="M51.79,279.09v5.17c0,0.43,0.09,0.73,0.27,0.9c0.18,0.18,0.5,0.26,0.94,0.26h1.07v1.23h-1.31
				c-0.81,0-1.42-0.19-1.82-0.56c-0.41-0.37-0.61-0.99-0.61-1.84v-5.17H49.2v-1.2h1.14v-2.21h1.46v2.21h2.29v1.2H51.79z"/>
		</g>
		<g>
			<path d="M57.43,286.25c-0.67-0.37-1.19-0.9-1.57-1.59c-0.38-0.69-0.57-1.49-0.57-2.39c0-0.9,0.19-1.69,0.58-2.38
				c0.39-0.69,0.92-1.22,1.59-1.58c0.67-0.37,1.42-0.55,2.26-0.55s1.58,0.18,2.26,0.55c0.67,0.37,1.2,0.89,1.59,1.58
				s0.58,1.48,0.58,2.38c0,0.91-0.2,1.7-0.6,2.39c-0.4,0.69-0.94,1.22-1.62,1.59s-1.44,0.56-2.27,0.56
				C58.84,286.8,58.1,286.62,57.43,286.25z M61.14,285.16c0.46-0.25,0.83-0.61,1.11-1.1c0.28-0.49,0.42-1.09,0.42-1.79
				c0-0.7-0.14-1.3-0.42-1.79c-0.28-0.49-0.64-0.86-1.09-1.1c-0.45-0.24-0.93-0.36-1.46-0.36c-0.53,0-1.02,0.12-1.46,0.36
				s-0.8,0.61-1.06,1.1c-0.27,0.49-0.4,1.09-0.4,1.79c0,0.71,0.13,1.32,0.39,1.81c0.26,0.49,0.61,0.86,1.05,1.1s0.92,0.36,1.44,0.36
				S60.68,285.4,61.14,285.16z"/>
		</g>
		<g>
			<path d="M66.08,279.88c0.36-0.68,0.86-1.2,1.5-1.58c0.63-0.37,1.35-0.56,2.14-0.56c0.68,0,1.32,0.16,1.9,0.47
				c0.59,0.32,1.04,0.73,1.34,1.24v-4.64h1.47v11.84h-1.47v-1.65c-0.29,0.52-0.71,0.95-1.28,1.29s-1.23,0.5-1.98,0.5
				c-0.78,0-1.49-0.19-2.12-0.58c-0.63-0.38-1.13-0.92-1.5-1.62c-0.36-0.69-0.54-1.48-0.54-2.37
				C65.54,281.35,65.72,280.56,66.08,279.88z M72.56,280.53c-0.27-0.49-0.63-0.87-1.08-1.13s-0.95-0.39-1.5-0.39
				s-1.04,0.13-1.49,0.38c-0.45,0.26-0.81,0.63-1.07,1.12c-0.27,0.49-0.4,1.07-0.4,1.73c0,0.67,0.13,1.26,0.4,1.75
				s0.62,0.88,1.07,1.14c0.45,0.26,0.94,0.39,1.49,0.39s1.04-0.13,1.5-0.39c0.45-0.26,0.81-0.64,1.08-1.14s0.4-1.07,0.4-1.74
				C72.96,281.6,72.83,281.02,72.56,280.53z"/>
		</g>
		<g>
			<path d="M76.9,279.88c0.36-0.68,0.86-1.2,1.5-1.58c0.63-0.37,1.34-0.56,2.12-0.56c0.77,0,1.43,0.17,2,0.5
				c0.57,0.33,0.99,0.75,1.26,1.25v-1.6h1.47v8.77h-1.47v-1.63c-0.29,0.51-0.72,0.94-1.29,1.27c-0.57,0.34-1.24,0.5-1.99,0.5
				c-0.78,0-1.48-0.19-2.11-0.58c-0.63-0.38-1.13-0.92-1.49-1.62c-0.36-0.69-0.54-1.48-0.54-2.37
				C76.35,281.35,76.54,280.56,76.9,279.88z M83.38,280.53c-0.27-0.49-0.63-0.87-1.08-1.13s-0.95-0.39-1.5-0.39
				s-1.04,0.13-1.49,0.38c-0.45,0.26-0.81,0.63-1.07,1.12c-0.27,0.49-0.4,1.07-0.4,1.73c0,0.67,0.13,1.26,0.4,1.75
				s0.62,0.88,1.07,1.14c0.45,0.26,0.94,0.39,1.49,0.39s1.04-0.13,1.5-0.39c0.45-0.26,0.81-0.64,1.08-1.14s0.4-1.07,0.4-1.74
				C83.78,281.6,83.64,281.02,83.38,280.53z"/>
		</g>
		<g>
			<path d="M89.01,286.46c-0.53-0.23-0.96-0.55-1.26-0.96c-0.31-0.41-0.48-0.88-0.51-1.42h1.5c0.04,0.44,0.25,0.79,0.62,1.07
				s0.85,0.42,1.45,0.42c0.55,0,0.99-0.12,1.31-0.37s0.48-0.55,0.48-0.93c0-0.38-0.17-0.67-0.51-0.86
				c-0.34-0.19-0.87-0.37-1.58-0.55c-0.65-0.17-1.18-0.34-1.59-0.52c-0.41-0.18-0.76-0.44-1.06-0.78c-0.29-0.35-0.44-0.8-0.44-1.37
				c0-0.45,0.13-0.86,0.4-1.23c0.27-0.37,0.65-0.67,1.14-0.89s1.05-0.33,1.68-0.33c0.97,0,1.75,0.25,2.35,0.74
				c0.6,0.49,0.92,1.16,0.96,2.02h-1.46c-0.03-0.46-0.22-0.83-0.55-1.1s-0.79-0.42-1.35-0.42c-0.52,0-0.94,0.11-1.25,0.34
				c-0.31,0.22-0.46,0.52-0.46,0.88c0,0.29,0.09,0.53,0.28,0.71s0.42,0.34,0.7,0.45c0.28,0.11,0.67,0.24,1.18,0.38
				c0.63,0.17,1.14,0.34,1.54,0.5s0.73,0.41,1.02,0.74c0.28,0.33,0.43,0.76,0.44,1.3c0,0.48-0.13,0.91-0.4,1.3s-0.64,0.69-1.13,0.9
				c-0.49,0.22-1.04,0.33-1.67,0.33C90.15,286.8,89.54,286.69,89.01,286.46z"/>
		</g>
		<g>
			<path d="M102.11,279.09v5.17c0,0.43,0.09,0.73,0.27,0.9c0.18,0.18,0.5,0.26,0.94,0.26h1.07v1.23h-1.31
				c-0.81,0-1.42-0.19-1.82-0.56c-0.41-0.37-0.61-0.99-0.61-1.84v-5.17h-1.14v-1.2h1.14v-2.21h1.46v2.21h2.29v1.2H102.11z"/>
		</g>
		<g>
			<path d="M113.94,277.89v8.77h-1.46v-1.3c-0.28,0.45-0.66,0.8-1.16,1.05c-0.5,0.25-1.04,0.38-1.64,0.38
				c-0.68,0-1.3-0.14-1.84-0.42s-0.97-0.71-1.29-1.27c-0.31-0.56-0.47-1.25-0.47-2.06v-5.14h1.44v4.94c0,0.86,0.22,1.53,0.66,1.99
				s1.03,0.7,1.79,0.7c0.78,0,1.39-0.24,1.84-0.72c0.45-0.48,0.67-1.18,0.67-2.1v-4.82H113.94z"/>
		</g>
		<g>
			<path d="M117.7,286.46c-0.53-0.23-0.96-0.55-1.26-0.96c-0.31-0.41-0.48-0.88-0.51-1.42h1.5c0.04,0.44,0.25,0.79,0.62,1.07
				s0.85,0.42,1.45,0.42c0.55,0,0.99-0.12,1.31-0.37s0.48-0.55,0.48-0.93c0-0.38-0.17-0.67-0.51-0.86
				c-0.34-0.19-0.87-0.37-1.58-0.55c-0.65-0.17-1.18-0.34-1.59-0.52c-0.41-0.18-0.76-0.44-1.06-0.78c-0.29-0.35-0.44-0.8-0.44-1.37
				c0-0.45,0.13-0.86,0.4-1.23c0.27-0.37,0.65-0.67,1.14-0.89s1.05-0.33,1.68-0.33c0.97,0,1.75,0.25,2.35,0.74
				c0.6,0.49,0.92,1.16,0.96,2.02h-1.46c-0.03-0.46-0.22-0.83-0.55-1.1s-0.79-0.42-1.35-0.42c-0.52,0-0.94,0.11-1.25,0.34
				c-0.31,0.22-0.46,0.52-0.46,0.88c0,0.29,0.09,0.53,0.28,0.71s0.42,0.34,0.7,0.45c0.28,0.11,0.67,0.24,1.18,0.38
				c0.63,0.17,1.14,0.34,1.54,0.5s0.73,0.41,1.02,0.74c0.28,0.33,0.43,0.76,0.44,1.3c0,0.48-0.13,0.91-0.4,1.3s-0.64,0.69-1.13,0.9
				c-0.49,0.22-1.04,0.33-1.67,0.33C118.83,286.8,118.23,286.69,117.7,286.46z"/>
		</g>
		<g>
			<path d="M129.03,279.88c0.36-0.68,0.86-1.2,1.5-1.58c0.63-0.37,1.35-0.56,2.14-0.56c0.68,0,1.32,0.16,1.9,0.47
				c0.59,0.32,1.04,0.73,1.34,1.24v-4.64h1.47v11.84h-1.47v-1.65c-0.29,0.52-0.71,0.95-1.28,1.29s-1.23,0.5-1.98,0.5
				c-0.78,0-1.49-0.19-2.12-0.58c-0.63-0.38-1.13-0.92-1.5-1.62c-0.36-0.69-0.54-1.48-0.54-2.37
				C128.48,281.35,128.66,280.56,129.03,279.88z M135.51,280.53c-0.27-0.49-0.63-0.87-1.08-1.13s-0.95-0.39-1.5-0.39
				s-1.04,0.13-1.49,0.38c-0.45,0.26-0.81,0.63-1.07,1.12c-0.27,0.49-0.4,1.07-0.4,1.73c0,0.67,0.13,1.26,0.4,1.75
				s0.62,0.88,1.07,1.14c0.45,0.26,0.94,0.39,1.49,0.39s1.04-0.13,1.5-0.39c0.45-0.26,0.81-0.64,1.08-1.14s0.4-1.07,0.4-1.74
				C135.91,281.6,135.77,281.02,135.51,280.53z"/>
		</g>
		<g>
			<path d="M147.62,277.89v8.77h-1.46v-1.3c-0.28,0.45-0.66,0.8-1.16,1.05c-0.5,0.25-1.04,0.38-1.64,0.38
				c-0.68,0-1.3-0.14-1.84-0.42s-0.97-0.71-1.29-1.27c-0.31-0.56-0.47-1.25-0.47-2.06v-5.14h1.44v4.94c0,0.86,0.22,1.53,0.66,1.99
				s1.03,0.7,1.79,0.7c0.78,0,1.39-0.24,1.84-0.72c0.45-0.48,0.67-1.18,0.67-2.1v-4.82H147.62z"/>
		</g>
		<g>
			<path d="M150.08,279.88c0.36-0.68,0.86-1.2,1.5-1.58c0.63-0.37,1.35-0.56,2.14-0.56c0.68,0,1.32,0.16,1.9,0.47
				c0.59,0.32,1.04,0.73,1.34,1.24v-4.64h1.47v11.84h-1.47v-1.65c-0.29,0.52-0.71,0.95-1.28,1.29s-1.23,0.5-1.98,0.5
				c-0.78,0-1.49-0.19-2.12-0.58c-0.63-0.38-1.13-0.92-1.5-1.62c-0.36-0.69-0.54-1.48-0.54-2.37
				C149.54,281.35,149.72,280.56,150.08,279.88z M156.56,280.53c-0.27-0.49-0.63-0.87-1.08-1.13s-0.95-0.39-1.5-0.39
				s-1.04,0.13-1.49,0.38c-0.45,0.26-0.81,0.63-1.07,1.12c-0.27,0.49-0.4,1.07-0.4,1.73c0,0.67,0.13,1.26,0.4,1.75
				s0.62,0.88,1.07,1.14c0.45,0.26,0.94,0.39,1.49,0.39s1.04-0.13,1.5-0.39c0.45-0.26,0.81-0.64,1.08-1.14s0.4-1.07,0.4-1.74
				C156.96,281.6,156.83,281.02,156.56,280.53z"/>
		</g>
		<g>
			<path d="M160.9,279.88c0.36-0.68,0.86-1.2,1.5-1.58c0.63-0.37,1.34-0.56,2.12-0.56c0.77,0,1.43,0.17,2,0.5
				c0.57,0.33,0.99,0.75,1.26,1.25v-1.6h1.47v8.77h-1.47v-1.63c-0.29,0.51-0.72,0.94-1.29,1.27c-0.57,0.34-1.24,0.5-1.99,0.5
				c-0.78,0-1.48-0.19-2.11-0.58c-0.63-0.38-1.13-0.92-1.49-1.62c-0.36-0.69-0.54-1.48-0.54-2.37
				C160.35,281.35,160.54,280.56,160.9,279.88z M167.38,280.53c-0.27-0.49-0.63-0.87-1.08-1.13s-0.95-0.39-1.5-0.39
				s-1.04,0.13-1.49,0.38c-0.45,0.26-0.81,0.63-1.07,1.12c-0.27,0.49-0.4,1.07-0.4,1.73c0,0.67,0.13,1.26,0.4,1.75
				s0.62,0.88,1.07,1.14c0.45,0.26,0.94,0.39,1.49,0.39s1.04-0.13,1.5-0.39c0.45-0.26,0.81-0.64,1.08-1.14s0.4-1.07,0.4-1.74
				C167.78,281.6,167.64,281.02,167.38,280.53z"/>
		</g>
		<g>
			<path d="M173.01,286.46c-0.53-0.23-0.96-0.55-1.26-0.96c-0.31-0.41-0.48-0.88-0.51-1.42h1.5c0.04,0.44,0.25,0.79,0.62,1.07
				s0.85,0.42,1.45,0.42c0.55,0,0.99-0.12,1.31-0.37s0.48-0.55,0.48-0.93c0-0.38-0.17-0.67-0.51-0.86
				c-0.34-0.19-0.87-0.37-1.58-0.55c-0.65-0.17-1.18-0.34-1.59-0.52c-0.41-0.18-0.76-0.44-1.06-0.78c-0.29-0.35-0.44-0.8-0.44-1.37
				c0-0.45,0.13-0.86,0.4-1.23c0.27-0.37,0.65-0.67,1.14-0.89s1.05-0.33,1.68-0.33c0.97,0,1.75,0.25,2.35,0.74
				c0.6,0.49,0.92,1.16,0.96,2.02h-1.46c-0.03-0.46-0.22-0.83-0.55-1.1s-0.79-0.42-1.35-0.42c-0.52,0-0.94,0.11-1.25,0.34
				c-0.31,0.22-0.46,0.52-0.46,0.88c0,0.29,0.09,0.53,0.28,0.71s0.42,0.34,0.7,0.45c0.28,0.11,0.67,0.24,1.18,0.38
				c0.63,0.17,1.14,0.34,1.54,0.5s0.73,0.41,1.02,0.74c0.28,0.33,0.43,0.76,0.44,1.3c0,0.48-0.13,0.91-0.4,1.3s-0.64,0.69-1.13,0.9
				c-0.49,0.22-1.04,0.33-1.67,0.33C174.15,286.8,173.54,286.69,173.01,286.46z"/>
		</g>
		<g>
			<path d="M181.57,284.65l-1.79,4.3h-0.98l1.17-4.3H181.57z"/>
		</g>
		<g>
			<path d="M187.51,279.88c0.36-0.68,0.87-1.2,1.51-1.58c0.65-0.37,1.38-0.56,2.22-0.56c1.08,0,1.96,0.26,2.66,0.78
				c0.7,0.52,1.16,1.25,1.38,2.18h-1.57c-0.15-0.53-0.44-0.95-0.87-1.26c-0.43-0.31-0.97-0.46-1.61-0.46c-0.83,0-1.5,0.29-2.02,0.86
				c-0.51,0.57-0.77,1.38-0.77,2.42c0,1.06,0.26,1.87,0.77,2.45c0.51,0.58,1.18,0.86,2.02,0.86c0.64,0,1.17-0.15,1.6-0.45
				s0.72-0.73,0.88-1.28h1.57c-0.23,0.9-0.7,1.61-1.41,2.15c-0.7,0.54-1.58,0.81-2.64,0.81c-0.83,0-1.57-0.19-2.22-0.56
				s-1.15-0.9-1.51-1.58c-0.36-0.68-0.54-1.48-0.54-2.4C186.96,281.35,187.14,280.56,187.51,279.88z"/>
		</g>
		<g>
			<path d="M198.81,286.25c-0.67-0.37-1.19-0.9-1.57-1.59c-0.38-0.69-0.57-1.49-0.57-2.39c0-0.9,0.19-1.69,0.58-2.38
				c0.39-0.69,0.92-1.22,1.59-1.58c0.67-0.37,1.42-0.55,2.26-0.55s1.58,0.18,2.26,0.55c0.67,0.37,1.2,0.89,1.59,1.58
				s0.58,1.48,0.58,2.38c0,0.91-0.2,1.7-0.6,2.39c-0.4,0.69-0.94,1.22-1.62,1.59s-1.44,0.56-2.27,0.56
				C200.22,286.8,199.48,286.62,198.81,286.25z M202.51,285.16c0.46-0.25,0.83-0.61,1.11-1.1c0.28-0.49,0.42-1.09,0.42-1.79
				c0-0.7-0.14-1.3-0.42-1.79c-0.28-0.49-0.64-0.86-1.09-1.1c-0.45-0.24-0.93-0.36-1.46-0.36c-0.53,0-1.02,0.12-1.46,0.36
				s-0.8,0.61-1.06,1.1c-0.27,0.49-0.4,1.09-0.4,1.79c0,0.71,0.13,1.32,0.39,1.81c0.26,0.49,0.61,0.86,1.05,1.1s0.92,0.36,1.44,0.36
				S202.06,285.4,202.51,285.16z"/>
		</g>
		<g>
			<path d="M214.32,278.7c0.66,0.65,0.99,1.58,0.99,2.79v5.17h-1.44v-4.96c0-0.88-0.22-1.54-0.66-2.01s-1.04-0.7-1.79-0.7
				c-0.77,0-1.38,0.24-1.83,0.72c-0.45,0.48-0.68,1.18-0.68,2.1v4.85h-1.46v-8.77h1.46v1.25c0.29-0.45,0.68-0.79,1.18-1.04
				c0.5-0.25,1.04-0.37,1.64-0.37C212.8,277.73,213.66,278.06,214.32,278.7z"/>
		</g>
		<g>
			<path d="M229.75,277.89v8.77h-1.46v-1.3c-0.28,0.45-0.66,0.8-1.16,1.05c-0.5,0.25-1.04,0.38-1.64,0.38
				c-0.68,0-1.3-0.14-1.84-0.42s-0.97-0.71-1.29-1.27c-0.31-0.56-0.47-1.25-0.47-2.06v-5.14h1.44v4.94c0,0.86,0.22,1.53,0.66,1.99
				s1.03,0.7,1.79,0.7c0.78,0,1.39-0.24,1.84-0.72c0.45-0.48,0.67-1.18,0.67-2.1v-4.82H229.75z"/>
		</g>
		<g>
			<path d="M239.07,278.7c0.66,0.65,0.99,1.58,0.99,2.79v5.17h-1.44v-4.96c0-0.88-0.22-1.54-0.66-2.01s-1.04-0.7-1.79-0.7
				c-0.77,0-1.38,0.24-1.83,0.72c-0.45,0.48-0.68,1.18-0.68,2.1v4.85h-1.46v-8.77h1.46v1.25c0.29-0.45,0.68-0.79,1.18-1.04
				c0.5-0.25,1.04-0.37,1.64-0.37C237.55,277.73,238.41,278.06,239.07,278.7z"/>
		</g>
		<g>
			<path d="M56.98,303.09v5.17c0,0.43,0.09,0.73,0.27,0.9c0.18,0.18,0.5,0.26,0.94,0.26h1.07v1.23h-1.31
				c-0.81,0-1.42-0.19-1.82-0.56c-0.41-0.37-0.61-0.99-0.61-1.84v-5.17h-1.14v-1.2h1.14v-2.21h1.46v2.21h2.29v1.2H56.98z"/>
		</g>
		<g>
			<path d="M63.58,302.15c0.47-0.28,1.05-0.42,1.74-0.42v1.5h-0.38c-1.63,0-2.45,0.89-2.45,2.66v4.77h-1.46v-8.77h1.46v1.42
				C62.74,302.82,63.1,302.43,63.58,302.15z"/>
		</g>
		<g>
			<path d="M66.99,303.88c0.36-0.68,0.86-1.2,1.5-1.58c0.63-0.37,1.34-0.56,2.12-0.56c0.77,0,1.43,0.17,2,0.5
				c0.57,0.33,0.99,0.75,1.26,1.25v-1.6h1.47v8.77h-1.47v-1.63c-0.29,0.51-0.72,0.94-1.29,1.27c-0.57,0.34-1.24,0.5-1.99,0.5
				c-0.78,0-1.48-0.19-2.11-0.58c-0.63-0.38-1.13-0.92-1.49-1.62c-0.36-0.69-0.54-1.48-0.54-2.37
				C66.45,305.35,66.63,304.56,66.99,303.88z M73.47,304.53c-0.27-0.49-0.63-0.87-1.08-1.13s-0.95-0.39-1.5-0.39
				s-1.04,0.13-1.49,0.38c-0.45,0.26-0.81,0.63-1.07,1.12c-0.27,0.49-0.4,1.07-0.4,1.73c0,0.67,0.13,1.26,0.4,1.75
				s0.62,0.88,1.07,1.14c0.45,0.26,0.94,0.39,1.49,0.39s1.04-0.13,1.5-0.39c0.45-0.26,0.81-0.64,1.08-1.14s0.4-1.07,0.4-1.74
				C73.87,305.6,73.74,305.02,73.47,304.53z"/>
		</g>
		<g>
			<path d="M79.58,303.09v5.17c0,0.43,0.09,0.73,0.27,0.9c0.18,0.18,0.5,0.26,0.94,0.26h1.07v1.23h-1.31
				c-0.81,0-1.42-0.19-1.82-0.56c-0.41-0.37-0.61-0.99-0.61-1.84v-5.17h-1.14v-1.2h1.14v-2.21h1.46v2.21h2.29v1.2H79.58z"/>
		</g>
		<g>
			<path d="M85.23,310.25c-0.67-0.37-1.19-0.9-1.57-1.59c-0.38-0.69-0.57-1.49-0.57-2.39c0-0.9,0.19-1.69,0.58-2.38
				c0.39-0.69,0.92-1.22,1.59-1.58c0.67-0.37,1.42-0.55,2.26-0.55s1.58,0.18,2.26,0.55c0.67,0.37,1.2,0.89,1.59,1.58
				s0.58,1.48,0.58,2.38c0,0.91-0.2,1.7-0.6,2.39c-0.4,0.69-0.94,1.22-1.62,1.59s-1.44,0.56-2.27,0.56
				C86.64,310.8,85.89,310.62,85.23,310.25z M88.93,309.16c0.46-0.25,0.83-0.61,1.11-1.1c0.28-0.49,0.42-1.09,0.42-1.79
				c0-0.7-0.14-1.3-0.42-1.79c-0.28-0.49-0.64-0.86-1.09-1.1c-0.45-0.24-0.93-0.36-1.46-0.36c-0.53,0-1.02,0.12-1.46,0.36
				s-0.8,0.61-1.06,1.1c-0.27,0.49-0.4,1.09-0.4,1.79c0,0.71,0.13,1.32,0.39,1.81c0.26,0.49,0.61,0.86,1.05,1.1s0.92,0.36,1.44,0.36
				S88.47,309.4,88.93,309.16z"/>
		</g>
		<g>
			<path d="M98.14,303.88c0.36-0.68,0.86-1.2,1.5-1.58c0.63-0.37,1.34-0.56,2.12-0.56c0.77,0,1.43,0.17,2,0.5
				c0.57,0.33,0.99,0.75,1.26,1.25v-1.6h1.47v8.77h-1.47v-1.63c-0.29,0.51-0.72,0.94-1.29,1.27c-0.57,0.34-1.24,0.5-1.99,0.5
				c-0.78,0-1.48-0.19-2.11-0.58c-0.63-0.38-1.13-0.92-1.49-1.62c-0.36-0.69-0.54-1.48-0.54-2.37
				C97.6,305.35,97.78,304.56,98.14,303.88z M104.62,304.53c-0.27-0.49-0.63-0.87-1.08-1.13s-0.95-0.39-1.5-0.39
				s-1.04,0.13-1.49,0.38c-0.45,0.26-0.81,0.63-1.07,1.12c-0.27,0.49-0.4,1.07-0.4,1.73c0,0.67,0.13,1.26,0.4,1.75
				s0.62,0.88,1.07,1.14c0.45,0.26,0.94,0.39,1.49,0.39s1.04-0.13,1.5-0.39c0.45-0.26,0.81-0.64,1.08-1.14s0.4-1.07,0.4-1.74
				C105.02,305.6,104.89,305.02,104.62,304.53z"/>
		</g>
		<g>
			<path d="M121.33,302.16c0.53,0.28,0.96,0.71,1.26,1.27c0.31,0.57,0.46,1.25,0.46,2.06v5.17h-1.44v-4.96
				c0-0.88-0.22-1.54-0.65-2.01c-0.43-0.46-1.02-0.7-1.75-0.7c-0.76,0-1.36,0.24-1.81,0.73c-0.45,0.49-0.67,1.19-0.67,2.1v4.83
				h-1.44v-4.96c0-0.88-0.22-1.54-0.65-2.01s-1.02-0.7-1.75-0.7c-0.76,0-1.36,0.24-1.81,0.73c-0.45,0.49-0.67,1.19-0.67,2.1v4.83
				h-1.46v-8.77h1.46v1.26c0.29-0.46,0.67-0.81,1.16-1.06c0.49-0.25,1.02-0.37,1.61-0.37c0.74,0,1.39,0.17,1.95,0.5
				c0.57,0.33,0.99,0.82,1.26,1.46c0.25-0.62,0.65-1.1,1.22-1.44c0.57-0.34,1.19-0.51,1.89-0.51
				C120.19,301.73,120.8,301.88,121.33,302.16z"/>
		</g>
		<g>
			<path d="M125.44,303.88c0.36-0.68,0.86-1.2,1.5-1.58c0.63-0.37,1.34-0.56,2.12-0.56c0.77,0,1.43,0.17,2,0.5
				c0.57,0.33,0.99,0.75,1.26,1.25v-1.6h1.47v8.77h-1.47v-1.63c-0.29,0.51-0.72,0.94-1.29,1.27c-0.57,0.34-1.24,0.5-1.99,0.5
				c-0.78,0-1.48-0.19-2.11-0.58c-0.63-0.38-1.13-0.92-1.49-1.62c-0.36-0.69-0.54-1.48-0.54-2.37
				C124.9,305.35,125.08,304.56,125.44,303.88z M131.92,304.53c-0.27-0.49-0.63-0.87-1.08-1.13s-0.95-0.39-1.5-0.39
				s-1.04,0.13-1.49,0.38c-0.45,0.26-0.81,0.63-1.07,1.12c-0.27,0.49-0.4,1.07-0.4,1.73c0,0.67,0.13,1.26,0.4,1.75
				s0.62,0.88,1.07,1.14c0.45,0.26,0.94,0.39,1.49,0.39s1.04-0.13,1.5-0.39c0.45-0.26,0.81-0.64,1.08-1.14s0.4-1.07,0.4-1.74
				C132.32,305.6,132.19,305.02,131.92,304.53z"/>
		</g>
		<g>
			<path d="M139.03,302.25c0.58-0.33,1.23-0.5,1.97-0.5c0.79,0,1.5,0.19,2.13,0.56c0.63,0.37,1.13,0.9,1.49,1.58
				c0.36,0.68,0.54,1.46,0.54,2.36c0,0.89-0.18,1.67-0.54,2.37s-0.86,1.23-1.5,1.62c-0.63,0.38-1.34,0.58-2.12,0.58
				c-0.76,0-1.42-0.17-1.99-0.5c-0.57-0.33-1-0.75-1.29-1.26v1.62h-1.46v-11.84h1.46v4.7C138.01,303,138.45,302.58,139.03,302.25z
				 M143.27,304.52c-0.27-0.49-0.63-0.86-1.08-1.12c-0.45-0.26-0.95-0.38-1.5-0.38c-0.53,0-1.03,0.13-1.48,0.39
				c-0.45,0.26-0.82,0.64-1.09,1.14c-0.27,0.5-0.41,1.07-0.41,1.72c0,0.66,0.14,1.24,0.41,1.74c0.27,0.5,0.63,0.88,1.09,1.14
				c0.45,0.26,0.95,0.39,1.48,0.39c0.54,0,1.04-0.13,1.5-0.39c0.45-0.26,0.81-0.64,1.08-1.14s0.4-1.08,0.4-1.75
				C143.67,305.58,143.53,305.01,143.27,304.52z"/>
		</g>
		<g>
			<path d="M148.53,298.82v11.84h-1.46v-11.84H148.53z"/>
		</g>
		<g>
			<path d="M158.96,306.82h-7.01c0.05,0.86,0.35,1.54,0.89,2.02c0.54,0.49,1.19,0.73,1.96,0.73c0.63,0,1.15-0.15,1.58-0.44
				c0.42-0.29,0.72-0.68,0.89-1.18h1.57c-0.23,0.84-0.7,1.53-1.41,2.06c-0.7,0.53-1.58,0.79-2.62,0.79c-0.83,0-1.58-0.19-2.23-0.56
				s-1.17-0.9-1.54-1.59c-0.37-0.69-0.56-1.49-0.56-2.39c0-0.91,0.18-1.7,0.54-2.38c0.36-0.68,0.87-1.21,1.53-1.58
				c0.66-0.37,1.41-0.55,2.26-0.55c0.83,0,1.57,0.18,2.21,0.54c0.64,0.36,1.13,0.86,1.48,1.5s0.52,1.35,0.52,2.15
				C159.01,306.22,158.99,306.51,158.96,306.82z M157.14,304.21c-0.25-0.4-0.58-0.7-1-0.91c-0.42-0.21-0.89-0.31-1.4-0.31
				c-0.74,0-1.36,0.23-1.88,0.7c-0.52,0.47-0.81,1.12-0.89,1.95h5.54C157.51,305.08,157.38,304.61,157.14,304.21z"/>
		</g>
		<g>
			<path d="M172.75,301.89l-5.28,12.9h-1.5l1.73-4.22l-3.54-8.67h1.62l2.75,7.1l2.72-7.1H172.75z"/>
		</g>
		<g>
			<path d="M178.48,303.88c0.36-0.68,0.87-1.2,1.51-1.58c0.65-0.37,1.38-0.56,2.22-0.56c1.08,0,1.96,0.26,2.66,0.78
				c0.7,0.52,1.16,1.25,1.38,2.18h-1.57c-0.15-0.53-0.44-0.95-0.87-1.26c-0.43-0.31-0.97-0.46-1.61-0.46c-0.83,0-1.5,0.29-2.02,0.86
				c-0.51,0.57-0.77,1.38-0.77,2.42c0,1.06,0.26,1.87,0.77,2.45c0.51,0.58,1.18,0.86,2.02,0.86c0.64,0,1.17-0.15,1.6-0.45
				s0.72-0.73,0.88-1.28h1.57c-0.23,0.9-0.7,1.61-1.41,2.15c-0.7,0.54-1.58,0.81-2.64,0.81c-0.83,0-1.57-0.19-2.22-0.56
				s-1.15-0.9-1.51-1.58c-0.36-0.68-0.54-1.48-0.54-2.4C177.94,305.35,178.12,304.56,178.48,303.88z"/>
		</g>
		<g>
			<path d="M189.78,310.25c-0.67-0.37-1.19-0.9-1.57-1.59c-0.38-0.69-0.57-1.49-0.57-2.39c0-0.9,0.19-1.69,0.58-2.38
				c0.39-0.69,0.92-1.22,1.59-1.58c0.67-0.37,1.42-0.55,2.26-0.55s1.58,0.18,2.26,0.55c0.67,0.37,1.2,0.89,1.59,1.58
				s0.58,1.48,0.58,2.38c0,0.91-0.2,1.7-0.6,2.39c-0.4,0.69-0.94,1.22-1.62,1.59s-1.44,0.56-2.27,0.56
				C191.19,310.8,190.45,310.62,189.78,310.25z M193.49,309.16c0.46-0.25,0.83-0.61,1.11-1.1c0.28-0.49,0.42-1.09,0.42-1.79
				c0-0.7-0.14-1.3-0.42-1.79c-0.28-0.49-0.64-0.86-1.09-1.1c-0.45-0.24-0.93-0.36-1.46-0.36c-0.53,0-1.02,0.12-1.46,0.36
				s-0.8,0.61-1.06,1.1c-0.27,0.49-0.4,1.09-0.4,1.79c0,0.71,0.13,1.32,0.39,1.81c0.26,0.49,0.61,0.86,1.05,1.1s0.92,0.36,1.44,0.36
				S193.03,309.4,193.49,309.16z"/>
		</g>
		<g>
			<path d="M200.98,302.15c0.47-0.28,1.05-0.42,1.74-0.42v1.5h-0.38c-1.63,0-2.45,0.89-2.45,2.66v4.77h-1.46v-8.77h1.46v1.42
				C200.14,302.82,200.51,302.43,200.98,302.15z"/>
		</g>
		<g>
			<path d="M204.4,303.88c0.36-0.68,0.86-1.2,1.5-1.58c0.63-0.37,1.35-0.56,2.14-0.56c0.68,0,1.32,0.16,1.9,0.47
				c0.59,0.32,1.04,0.73,1.34,1.24v-4.64h1.47v11.84h-1.47v-1.65c-0.29,0.52-0.71,0.95-1.28,1.29s-1.23,0.5-1.98,0.5
				c-0.78,0-1.49-0.19-2.12-0.58c-0.63-0.38-1.13-0.92-1.5-1.62c-0.36-0.69-0.54-1.48-0.54-2.37
				C203.86,305.35,204.04,304.56,204.4,303.88z M210.88,304.53c-0.27-0.49-0.63-0.87-1.08-1.13s-0.95-0.39-1.5-0.39
				s-1.04,0.13-1.49,0.38c-0.45,0.26-0.81,0.63-1.07,1.12c-0.27,0.49-0.4,1.07-0.4,1.73c0,0.67,0.13,1.26,0.4,1.75
				s0.62,0.88,1.07,1.14c0.45,0.26,0.94,0.39,1.49,0.39s1.04-0.13,1.5-0.39c0.45-0.26,0.81-0.64,1.08-1.14s0.4-1.07,0.4-1.74
				C211.28,305.6,211.15,305.02,210.88,304.53z"/>
		</g>
		<g>
			<path d="M215.27,300.18c-0.19-0.19-0.29-0.43-0.29-0.7s0.1-0.51,0.29-0.7c0.19-0.19,0.43-0.29,0.7-0.29
				c0.27,0,0.49,0.1,0.68,0.29c0.19,0.19,0.28,0.43,0.28,0.7s-0.09,0.51-0.28,0.7c-0.19,0.19-0.41,0.29-0.68,0.29
				C215.69,300.47,215.46,300.37,215.27,300.18z M216.67,301.89v8.77h-1.46v-8.77H216.67z"/>
		</g>
		<g>
			<path d="M219.15,303.88c0.36-0.68,0.86-1.2,1.5-1.58c0.63-0.37,1.34-0.56,2.12-0.56c0.77,0,1.43,0.17,2,0.5
				c0.57,0.33,0.99,0.75,1.26,1.25v-1.6h1.47v8.77h-1.47v-1.63c-0.29,0.51-0.72,0.94-1.29,1.27c-0.57,0.34-1.24,0.5-1.99,0.5
				c-0.78,0-1.48-0.19-2.11-0.58c-0.63-0.38-1.13-0.92-1.49-1.62c-0.36-0.69-0.54-1.48-0.54-2.37
				C218.61,305.35,218.79,304.56,219.15,303.88z M225.63,304.53c-0.27-0.49-0.63-0.87-1.08-1.13s-0.95-0.39-1.5-0.39
				s-1.04,0.13-1.49,0.38c-0.45,0.26-0.81,0.63-1.07,1.12c-0.27,0.49-0.4,1.07-0.4,1.73c0,0.67,0.13,1.26,0.4,1.75
				s0.62,0.88,1.07,1.14c0.45,0.26,0.94,0.39,1.49,0.39s1.04-0.13,1.5-0.39c0.45-0.26,0.81-0.64,1.08-1.14s0.4-1.07,0.4-1.74
				C226.03,305.6,225.9,305.02,225.63,304.53z"/>
		</g>
		<g>
			<path d="M231.43,298.82v11.84h-1.46v-11.84H231.43z"/>
		</g>
		<g>
			<path d="M233.66,310.47c-0.19-0.19-0.29-0.43-0.29-0.7c0-0.28,0.1-0.51,0.29-0.7c0.19-0.19,0.43-0.29,0.7-0.29
				c0.27,0,0.49,0.1,0.68,0.29c0.19,0.19,0.28,0.43,0.28,0.7c0,0.28-0.09,0.51-0.28,0.7c-0.19,0.19-0.41,0.29-0.68,0.29
				C234.09,310.76,233.86,310.66,233.66,310.47z"/>
		</g>
	</g>
	<g>
		<path class="st12" d="M135.28,92.13c-0.04-0.35-0.09-0.69-0.1-1.05h0.02c-0.02-0.33-0.02-0.65-0.02-0.98v-3.29
			c0-10.81,8.61-19.61,19.34-19.93c-1.61-9.4-9.79-16.55-19.65-16.55h-1.08h-19.73h-1.08c-11.02,0-19.95,8.93-19.95,19.95v3.29
			c0,0.33,0.01,0.66,0.02,0.98h-0.02c0.02,0.35,0.07,0.7,0.1,1.05c0,0,0,0.01,0,0.01c0.51,5.02,2.88,9.49,6.41,12.7
			c0.13,0.12,0.26,0.23,0.39,0.34c0.33,0.29,0.67,0.57,1.02,0.83c0.24,0.18,0.48,0.36,0.73,0.53c0.26,0.18,0.52,0.35,0.78,0.51
			c0.3,0.19,0.61,0.37,0.92,0.54c0.22,0.12,0.45,0.24,0.68,0.35c0.36,0.18,0.72,0.35,1.1,0.51c0.19,0.08,0.38,0.15,0.58,0.23
			c0.42,0.16,0.84,0.32,1.27,0.45c0.15,0.05,0.31,0.09,0.47,0.13c0.47,0.14,0.95,0.26,1.44,0.36c0.11,0.02,0.23,0.04,0.34,0.06
			c0.54,0.1,1.08,0.18,1.63,0.24c0.06,0.01,0.12,0.01,0.19,0.02c0.6,0.06,1.22,0.09,1.83,0.09c0.01,0,0.02,0,0.03,0h0.02h4.2h3.58
			v6.81c0,0.7,0.67,1.21,1.34,1.01c2.71-0.78,8.57-3.02,8.57-7.82h4.2h0.02c0.01,0,0.02,0,0.03,0c0.19,0,0.37-0.02,0.56-0.03
			c-0.08-0.44-0.15-0.89-0.2-1.34C135.28,92.14,135.28,92.14,135.28,92.13z"/>
		<path class="st13" d="M196.96,86.81c0-11.02-8.93-19.95-19.95-19.95h-1.08H156.2h-1.08c-0.2,0-0.4,0.01-0.6,0.02
			c0.19,1.1,0.29,2.24,0.29,3.4v3.29c0,0.33-0.01,0.66-0.02,0.98h0.02c-0.02,0.35-0.07,0.7-0.1,1.05c0,0,0,0.01,0,0.01
			c-0.51,5.02-2.88,9.49-6.41,12.7c-0.13,0.12-0.26,0.23-0.39,0.34c-0.33,0.29-0.67,0.57-1.02,0.83c-0.24,0.18-0.48,0.36-0.73,0.53
			c-0.26,0.18-0.52,0.35-0.78,0.51c-0.3,0.19-0.61,0.37-0.92,0.54c-0.22,0.12-0.45,0.24-0.68,0.35c-0.36,0.18-0.73,0.35-1.1,0.51
			c-0.19,0.08-0.38,0.15-0.58,0.23c-0.42,0.16-0.84,0.32-1.27,0.45c-0.15,0.05-0.31,0.09-0.47,0.13c-0.48,0.14-0.96,0.26-1.44,0.36
			c-0.11,0.02-0.23,0.04-0.34,0.06c-0.54,0.1-1.08,0.18-1.63,0.24c-0.06,0.01-0.12,0.01-0.19,0.02c-0.42,0.04-0.85,0.05-1.27,0.06
			c0.77,4.47,2.99,8.44,6.21,11.36c0.13,0.12,0.27,0.23,0.4,0.35c0.33,0.29,0.67,0.56,1.02,0.83c0.24,0.18,0.48,0.36,0.73,0.53
			c0.26,0.18,0.52,0.35,0.78,0.51c0.3,0.19,0.61,0.37,0.92,0.54c0.22,0.12,0.45,0.24,0.68,0.35c0.36,0.18,0.73,0.35,1.1,0.51
			c0.19,0.08,0.38,0.15,0.58,0.23c0.42,0.16,0.84,0.32,1.27,0.45c0.15,0.05,0.31,0.09,0.47,0.13c0.48,0.14,0.96,0.26,1.44,0.36
			c0.11,0.02,0.23,0.04,0.34,0.06c0.54,0.1,1.08,0.18,1.63,0.24c0.06,0.01,0.12,0.01,0.19,0.02c0.6,0.06,1.22,0.09,1.83,0.09
			c0.01,0,0.02,0,0.03,0h0.02h4.2c0,4.8,5.86,7.04,8.57,7.82c0.67,0.19,1.34-0.31,1.34-1.01v-6.81h3.58h4.2h0.02
			c0.01,0,0.02,0,0.03,0c0.62,0,1.23-0.03,1.83-0.09c0.06-0.01,0.12-0.01,0.19-0.02c0.55-0.06,1.09-0.14,1.63-0.24
			c0.11-0.02,0.23-0.04,0.34-0.06c0.49-0.1,0.97-0.22,1.44-0.36c0.16-0.04,0.31-0.09,0.47-0.13c0.43-0.13,0.85-0.29,1.27-0.45
			c0.19-0.07,0.39-0.15,0.58-0.23c0.37-0.16,0.74-0.33,1.1-0.51c0.23-0.11,0.46-0.23,0.68-0.35c0.31-0.17,0.62-0.35,0.92-0.54
			c0.27-0.16,0.53-0.34,0.78-0.51c0.25-0.17,0.49-0.35,0.73-0.53c0.35-0.27,0.69-0.55,1.02-0.83c0.13-0.11,0.27-0.23,0.39-0.34
			c3.54-3.22,5.9-7.68,6.41-12.7c0,0,0-0.01,0-0.01c0.04-0.35,0.09-0.69,0.1-1.05h-0.02c0.02-0.33,0.02-0.65,0.02-0.98V86.81z"/>
		<path class="st5" d="M136.94,93.4c0.55-0.06,1.09-0.14,1.63-0.24c0.11-0.02,0.23-0.04,0.34-0.06c0.49-0.1,0.97-0.22,1.44-0.36
			c0.16-0.04,0.31-0.09,0.47-0.13c0.43-0.13,0.85-0.29,1.27-0.45c0.19-0.07,0.39-0.15,0.58-0.23c0.37-0.16,0.74-0.33,1.1-0.51
			c0.23-0.11,0.45-0.23,0.68-0.35c0.31-0.17,0.62-0.35,0.92-0.54c0.27-0.16,0.53-0.34,0.78-0.51c0.25-0.17,0.49-0.34,0.73-0.53
			c0.35-0.27,0.69-0.55,1.02-0.83c0.13-0.11,0.27-0.23,0.39-0.34c3.54-3.22,5.9-7.68,6.41-12.7c0,0,0-0.01,0-0.01
			c0.04-0.35,0.09-0.69,0.1-1.05h-0.02c0.02-0.33,0.02-0.65,0.02-0.98v-3.29c0-1.16-0.1-2.29-0.29-3.4
			c-10.74,0.32-19.34,9.12-19.34,19.93v3.29c0,0.33,0.01,0.66,0.02,0.98h-0.02c0.02,0.35,0.07,0.7,0.1,1.05c0,0,0,0.01,0,0.01
			c0.05,0.45,0.12,0.9,0.2,1.34c0.43-0.01,0.85-0.02,1.27-0.06C136.82,93.41,136.88,93.41,136.94,93.4z"/>
	</g>
</g>
</svg>
