<?xml version="1.0" encoding="utf-8"?>
<!-- Generator: Adobe Illustrator 24.1.1, SVG Export Plug-In . SVG Version: 6.00 Build 0)  -->
<svg version="1.1" id="Capa_1" xmlns="http://www.w3.org/2000/svg" xmlns:xlink="http://www.w3.org/1999/xlink" x="0px" y="0px"
	 viewBox="0 0 265.3 362" style="enable-background:new 0 0 265.3 362;" xml:space="preserve">
<style type="text/css">
	.st0{fill:#FFFFFF;}
	.st1{fill:none;}
	.st2{enable-background:new    ;}
	.st3{fill:#007CC3;}
	.st4{fill:#808080;}
	.st5{fill:#F5A4C7;}
	.st6{fill:#F173AC;}
	.st7{fill:#D9D9D9;}
</style>
<g>
	<rect x="0" y="0" class="st0" width="265.3" height="362"/>
	<g>
		<rect x="33.1" y="147.9" class="st1" width="199" height="163.7"/>
		<g class="st2">
			<path class="st3" d="M93.5,165.4v-17.5h3.1v17.5H93.5z"/>
			<path class="st3" d="M102.5,154.1c0.8-1,1.9-1.7,3.2-1.7h0c2.8,0,4.3,1.6,4.3,4.6v8.4H107v-8.5c0-0.9-0.6-1.5-1.5-1.5h-0.8
				c-0.9,0-1.5,0.6-1.5,1.5v8.5h-3.1v-12.7h1.4L102.5,154.1z"/>
			<path class="st3" d="M120,147.9v2.9h-1.7c-0.8,0-1.2,0.4-1.2,1.3v0.6h2.7v2.9H117v9.8H114v-9.8h-2.2v-2.9h2.2V152
				c0-2.7,1.4-4.1,4.1-4.1H120z"/>
			<path class="st3" d="M131.1,161.1c0,2.6-1.9,4.6-4.6,4.6h-0.8c-2.7,0-4.6-1.9-4.6-4.6v-4c0-2.6,1.9-4.6,4.6-4.6h0.8
				c2.7,0,4.6,2,4.6,4.6V161.1z M128.1,156.9c0-0.8-0.7-1.5-1.5-1.5h-0.8c-0.8,0-1.5,0.7-1.5,1.5v4.2c0,0.8,0.7,1.5,1.5,1.5h0.8
				c0.8,0,1.5-0.7,1.5-1.5V156.9z"/>
			<path class="st3" d="M136.5,154.1c0.8-1,1.9-1.7,3.2-1.7h1.5v3.1h-2.5c-0.9,0-1.5,0.6-1.5,1.5v8.4h-3.1v-12.7h1.4L136.5,154.1z"
				/>
			<path class="st3" d="M145.5,154.1c0.8-1,1.8-1.7,3.1-1.7h0c1.6,0,2.7,0.5,3.4,1.6c0.7-1,1.8-1.6,3.1-1.6h0c2.7,0,4.2,1.6,4.2,4.6
				v8.4h-3.1v-8.5c0-0.9-0.6-1.5-1.5-1.5h-0.6c-0.8,0-1.4,0.6-1.5,1.4v8.6h-3.1v-8.5c0-0.9-0.6-1.5-1.5-1.5h-0.6
				c-0.9,0-1.5,0.6-1.5,1.5v8.5h-3.1v-12.7h1.4L145.5,154.1z"/>
			<path class="st3" d="M169.2,160.8l3.1,0.3v0c0,2.6-1.9,4.6-4.6,4.6h-0.8c-2.7,0-4.6-1.9-4.6-4.6v-4c0-2.6,1.9-4.6,4.6-4.6h0.8
				c2.7,0,4.6,2,4.6,4.6v2.6h-6.8v1.5c0,0.8,0.7,1.5,1.5,1.5h0.8c0.8,0,1.5-0.7,1.5-1.5V160.8z M165.4,157.7h3.8v-0.8
				c0-0.8-0.7-1.5-1.5-1.5h-0.8c-0.8,0-1.5,0.7-1.5,1.5V157.7z"/>
		</g>
		<g class="st2">
			<path class="st3" d="M72,184.1c0.8-1,1.8-1.7,3.1-1.7h0c1.6,0,2.7,0.5,3.4,1.6c0.7-1,1.8-1.6,3.1-1.6h0c2.7,0,4.2,1.6,4.2,4.6
				v8.4h-3.1v-8.5c0-0.9-0.6-1.5-1.5-1.5h-0.6c-0.8,0-1.4,0.6-1.5,1.4v8.6h-3.1v-8.5c0-0.9-0.6-1.5-1.5-1.5h-0.6
				c-0.9,0-1.5,0.6-1.5,1.5v8.5h-3.1v-12.7h1.4L72,184.1z"/>
			<path class="st3" d="M95.7,190.8l3.1,0.3v0c0,2.6-1.9,4.6-4.6,4.6h-0.8c-2.7,0-4.6-1.9-4.6-4.6v-4c0-2.6,1.9-4.6,4.6-4.6h0.8
				c2.7,0,4.6,2,4.6,4.6v2.6h-6.8v1.5c0,0.8,0.7,1.5,1.5,1.5h0.8c0.8,0,1.5-0.7,1.5-1.5V190.8z M91.9,187.7h3.8v-0.8
				c0-0.8-0.7-1.5-1.5-1.5h-0.8c-0.8,0-1.5,0.7-1.5,1.5V187.7z M94.6,180.9H92l2-3.3h4L94.6,180.9z"/>
			<path class="st3" d="M109.1,194c-0.8,1.1-1.9,1.7-3.2,1.7h0c-2.8,0-4.3-1.6-4.3-4.6V187c0-2.9,1.5-4.6,4.3-4.6h0
				c0.9,0,1.8,0.3,2.5,0.9v-5.4h3.1v17.5H110L109.1,194z M108.4,186.9c0-0.9-0.6-1.5-1.5-1.5h-0.8c-0.9,0-1.5,0.6-1.5,1.5v4.3
				c0,0.9,0.6,1.5,1.5,1.5h0.8c0.9,0,1.5-0.6,1.5-1.5V186.9z"/>
			<path class="st3" d="M114.7,177.9h3.1v2.6h-3.1V177.9z M114.7,195.4v-12.7h3.1v12.7H114.7z"/>
			<path class="st3" d="M127.6,190.6l3.1,0.3v0.2c0,2.6-1.9,4.6-4.6,4.6h-0.8c-2.7,0-4.6-1.9-4.6-4.6v-4c0-2.6,1.9-4.6,4.6-4.6h0.8
				c2.7,0,4.6,2,4.6,4.6v0.2l-3.1,0.3v-0.6c0-0.8-0.7-1.5-1.5-1.5h-0.8c-0.8,0-1.5,0.7-1.5,1.5v4.2c0,0.8,0.7,1.5,1.5,1.5h0.8
				c0.8,0,1.5-0.7,1.5-1.5V190.6z"/>
			<path class="st3" d="M143.4,191.1c0,2.6-1.9,4.6-4.6,4.6H138c-2.7,0-4.6-1.9-4.6-4.6v-4c0-2.6,1.9-4.6,4.6-4.6h0.8
				c2.7,0,4.6,2,4.6,4.6V191.1z M140.3,186.9c0-0.8-0.7-1.5-1.5-1.5H138c-0.8,0-1.5,0.7-1.5,1.5v4.2c0,0.8,0.7,1.5,1.5,1.5h0.8
				c0.8,0,1.5-0.7,1.5-1.5V186.9z"/>
			<path class="st3" d="M158.9,177.9v2.9h-1.7c-0.8,0-1.2,0.4-1.2,1.3v0.6h2.7v2.9h-2.7v9.8h-3.1v-9.8h-2.3v-2.9h2.3V182
				c0-2.7,1.4-4.1,4.1-4.1H158.9z"/>
			<path class="st3" d="M160.4,177.9h3.1v2.6h-3.1V177.9z M160.4,195.4v-12.7h3.1v12.7H160.4z"/>
			<path class="st3" d="M169,184.1c0.8-1,1.9-1.7,3.2-1.7h0c2.8,0,4.3,1.6,4.3,4.6v8.4h-3.1v-8.5c0-0.9-0.6-1.5-1.5-1.5h-0.8
				c-0.9,0-1.5,0.6-1.5,1.5v8.5h-3.1v-12.7h1.4L169,184.1z"/>
			<path class="st3" d="M187.1,194.1c-0.7,1-1.9,1.6-3.4,1.6h0c-2.6,0-4.1-1.5-4.1-3.6v-0.5c0-2.1,1.5-3.5,4.1-3.5h2.7v-1.3
				c0-0.7-0.7-1.3-1.5-1.3h-0.6c-0.8,0-1.5,0.6-1.5,1.3v0.5l-3.1-0.3v-0.1c0-2.5,1.9-4.4,4.6-4.4h0.6c2.7,0,4.6,1.9,4.6,4.4v8.6
				h-1.4L187.1,194.1z M182.6,191.6c0,0.7,0.5,1.2,1.3,1.2h1.1c0.7,0,1.3-0.5,1.3-1.2v-1.3h-2.4
				C183.1,190.4,182.6,190.9,182.6,191.6L182.6,191.6z"/>
			<path class="st3" d="M192.5,195.4v-17.5h3.1v17.5H192.5z"/>
		</g>
		<g class="st2">
			<path class="st4" d="M41.6,228.7v3.7h4.1v1.2h-4.1v3.8h4.5v1.2h-6v-11.2h6v1.2H41.6z"/>
			<path class="st4" d="M49.8,226.8v11.8h-1.5v-11.8H49.8z"/>
			<path class="st4" d="M56.6,228.2c-0.2-0.2-0.3-0.4-0.3-0.7s0.1-0.5,0.3-0.7c0.2-0.2,0.4-0.3,0.7-0.3c0.3,0,0.5,0.1,0.7,0.3
				c0.2,0.2,0.3,0.4,0.3,0.7s-0.1,0.5-0.3,0.7c-0.2,0.2-0.4,0.3-0.7,0.3C57,228.5,56.8,228.4,56.6,228.2z M58,229.9v8.8h-1.5v-8.8
				H58z"/>
			<path class="st4" d="M67.4,230.7c0.7,0.6,1,1.6,1,2.8v5.2h-1.4v-5c0-0.9-0.2-1.5-0.7-2c-0.4-0.5-1-0.7-1.8-0.7
				c-0.8,0-1.4,0.2-1.8,0.7c-0.5,0.5-0.7,1.2-0.7,2.1v4.8h-1.5v-8.8H62v1.2c0.3-0.4,0.7-0.8,1.2-1c0.5-0.2,1-0.4,1.6-0.4
				C65.8,229.7,66.7,230,67.4,230.7z"/>
			<path class="st4" d="M74.3,231.1h-1.8v7.6H71v-7.6h-1.1v-1.2H71v-0.6c0-1,0.3-1.7,0.8-2.2c0.5-0.5,1.3-0.7,2.4-0.7v1.2
				c-0.6,0-1.1,0.1-1.4,0.4c-0.3,0.3-0.4,0.7-0.4,1.2v0.6h1.8V231.1z"/>
			<path class="st4" d="M77.6,238.2c-0.7-0.4-1.2-0.9-1.6-1.6c-0.4-0.7-0.6-1.5-0.6-2.4c0-0.9,0.2-1.7,0.6-2.4
				c0.4-0.7,0.9-1.2,1.6-1.6c0.7-0.4,1.4-0.6,2.3-0.6s1.6,0.2,2.3,0.6c0.7,0.4,1.2,0.9,1.6,1.6c0.4,0.7,0.6,1.5,0.6,2.4
				c0,0.9-0.2,1.7-0.6,2.4c-0.4,0.7-0.9,1.2-1.6,1.6c-0.7,0.4-1.4,0.6-2.3,0.6C79,238.8,78.3,238.6,77.6,238.2z M81.3,237.1
				c0.5-0.2,0.8-0.6,1.1-1.1c0.3-0.5,0.4-1.1,0.4-1.8c0-0.7-0.1-1.3-0.4-1.8c-0.3-0.5-0.6-0.9-1.1-1.1c-0.4-0.2-0.9-0.4-1.5-0.4
				c-0.5,0-1,0.1-1.5,0.4c-0.4,0.2-0.8,0.6-1.1,1.1c-0.3,0.5-0.4,1.1-0.4,1.8c0,0.7,0.1,1.3,0.4,1.8s0.6,0.9,1,1.1
				c0.4,0.2,0.9,0.4,1.4,0.4C80.4,237.5,80.8,237.4,81.3,237.1z"/>
			<path class="st4" d="M88.8,230.1c0.5-0.3,1.1-0.4,1.7-0.4v1.5h-0.4c-1.6,0-2.4,0.9-2.4,2.7v4.8h-1.5v-8.8h1.5v1.4
				C88,230.8,88.3,230.4,88.8,230.1z"/>
			<path class="st4" d="M104.6,230.1c0.5,0.3,1,0.7,1.3,1.3c0.3,0.6,0.5,1.3,0.5,2.1v5.2h-1.4v-5c0-0.9-0.2-1.5-0.6-2
				c-0.4-0.5-1-0.7-1.8-0.7c-0.8,0-1.4,0.2-1.8,0.7c-0.4,0.5-0.7,1.2-0.7,2.1v4.8h-1.4v-5c0-0.9-0.2-1.5-0.6-2s-1-0.7-1.8-0.7
				c-0.8,0-1.4,0.2-1.8,0.7c-0.4,0.5-0.7,1.2-0.7,2.1v4.8h-1.5v-8.8h1.5v1.3c0.3-0.5,0.7-0.8,1.2-1.1c0.5-0.2,1-0.4,1.6-0.4
				c0.7,0,1.4,0.2,2,0.5c0.6,0.3,1,0.8,1.3,1.5c0.2-0.6,0.7-1.1,1.2-1.4c0.6-0.3,1.2-0.5,1.9-0.5
				C103.4,229.7,104.1,229.9,104.6,230.1z"/>
			<path class="st4" d="M116.6,234.8h-7c0.1,0.9,0.3,1.5,0.9,2c0.5,0.5,1.2,0.7,2,0.7c0.6,0,1.2-0.1,1.6-0.4
				c0.4-0.3,0.7-0.7,0.9-1.2h1.6c-0.2,0.8-0.7,1.5-1.4,2.1c-0.7,0.5-1.6,0.8-2.6,0.8c-0.8,0-1.6-0.2-2.2-0.6
				c-0.7-0.4-1.2-0.9-1.5-1.6c-0.4-0.7-0.6-1.5-0.6-2.4c0-0.9,0.2-1.7,0.5-2.4s0.9-1.2,1.5-1.6c0.7-0.4,1.4-0.6,2.3-0.6
				c0.8,0,1.6,0.2,2.2,0.5c0.6,0.4,1.1,0.9,1.5,1.5s0.5,1.4,0.5,2.2C116.7,234.2,116.7,234.5,116.6,234.8z M114.8,232.2
				c-0.2-0.4-0.6-0.7-1-0.9s-0.9-0.3-1.4-0.3c-0.7,0-1.4,0.2-1.9,0.7c-0.5,0.5-0.8,1.1-0.9,2h5.5
				C115.2,233.1,115.1,232.6,114.8,232.2z"/>
			<path class="st4" d="M122.9,231.9c0.4-0.7,0.9-1.2,1.5-1.6c0.6-0.4,1.3-0.6,2.1-0.6c0.7,0,1.3,0.2,1.9,0.5c0.6,0.3,1,0.7,1.3,1.2
				v-4.6h1.5v11.8h-1.5V237c-0.3,0.5-0.7,1-1.3,1.3s-1.2,0.5-2,0.5c-0.8,0-1.5-0.2-2.1-0.6c-0.6-0.4-1.1-0.9-1.5-1.6
				s-0.5-1.5-0.5-2.4C122.3,233.3,122.5,232.5,122.9,231.9z M129.4,232.5c-0.3-0.5-0.6-0.9-1.1-1.1c-0.5-0.3-1-0.4-1.5-0.4
				c-0.5,0-1,0.1-1.5,0.4c-0.4,0.3-0.8,0.6-1.1,1.1c-0.3,0.5-0.4,1.1-0.4,1.7c0,0.7,0.1,1.3,0.4,1.8c0.3,0.5,0.6,0.9,1.1,1.1
				c0.4,0.3,0.9,0.4,1.5,0.4c0.5,0,1-0.1,1.5-0.4c0.5-0.3,0.8-0.6,1.1-1.1s0.4-1.1,0.4-1.7C129.8,233.6,129.6,233,129.4,232.5z"/>
			<path class="st4" d="M141.7,234.8h-7c0.1,0.9,0.3,1.5,0.9,2c0.5,0.5,1.2,0.7,2,0.7c0.6,0,1.2-0.1,1.6-0.4
				c0.4-0.3,0.7-0.7,0.9-1.2h1.6c-0.2,0.8-0.7,1.5-1.4,2.1c-0.7,0.5-1.6,0.8-2.6,0.8c-0.8,0-1.6-0.2-2.2-0.6
				c-0.7-0.4-1.2-0.9-1.5-1.6c-0.4-0.7-0.6-1.5-0.6-2.4c0-0.9,0.2-1.7,0.5-2.4c0.4-0.7,0.9-1.2,1.5-1.6c0.7-0.4,1.4-0.6,2.3-0.6
				c0.8,0,1.6,0.2,2.2,0.5c0.6,0.4,1.1,0.9,1.5,1.5s0.5,1.4,0.5,2.2C141.7,234.2,141.7,234.5,141.7,234.8z M139.8,232.2
				c-0.2-0.4-0.6-0.7-1-0.9c-0.4-0.2-0.9-0.3-1.4-0.3c-0.7,0-1.4,0.2-1.9,0.7c-0.5,0.5-0.8,1.1-0.9,2h5.5
				C140.2,233.1,140.1,232.6,139.8,232.2z"/>
			<path class="st4" d="M149.7,231.1v5.2c0,0.4,0.1,0.7,0.3,0.9c0.2,0.2,0.5,0.3,0.9,0.3h1.1v1.2h-1.3c-0.8,0-1.4-0.2-1.8-0.6
				c-0.4-0.4-0.6-1-0.6-1.8v-5.2h-1.1v-1.2h1.1v-2.2h1.5v2.2h2.3v1.2H149.7z"/>
			<path class="st4" d="M161.5,229.9v8.8H160v-1.3c-0.3,0.4-0.7,0.8-1.2,1c-0.5,0.3-1,0.4-1.6,0.4c-0.7,0-1.3-0.1-1.8-0.4
				s-1-0.7-1.3-1.3c-0.3-0.6-0.5-1.3-0.5-2.1v-5.1h1.4v4.9c0,0.9,0.2,1.5,0.7,2s1,0.7,1.8,0.7c0.8,0,1.4-0.2,1.8-0.7
				c0.4-0.5,0.7-1.2,0.7-2.1v-4.8H161.5z"/>
			<path class="st4" d="M176.2,234.8h-7c0.1,0.9,0.3,1.5,0.9,2c0.5,0.5,1.2,0.7,2,0.7c0.6,0,1.2-0.1,1.6-0.4
				c0.4-0.3,0.7-0.7,0.9-1.2h1.6c-0.2,0.8-0.7,1.5-1.4,2.1c-0.7,0.5-1.6,0.8-2.6,0.8c-0.8,0-1.6-0.2-2.2-0.6s-1.2-0.9-1.5-1.6
				c-0.4-0.7-0.6-1.5-0.6-2.4c0-0.9,0.2-1.7,0.5-2.4c0.4-0.7,0.9-1.2,1.5-1.6c0.7-0.4,1.4-0.6,2.3-0.6c0.8,0,1.6,0.2,2.2,0.5
				c0.6,0.4,1.1,0.9,1.5,1.5s0.5,1.4,0.5,2.2C176.2,234.2,176.2,234.5,176.2,234.8z M174.4,232.2c-0.2-0.4-0.6-0.7-1-0.9
				c-0.4-0.2-0.9-0.3-1.4-0.3c-0.7,0-1.4,0.2-1.9,0.7c-0.5,0.5-0.8,1.1-0.9,2h5.5C174.7,233.1,174.6,232.6,174.4,232.2z"/>
			<path class="st4" d="M179.4,238.4c-0.5-0.2-1-0.5-1.3-1c-0.3-0.4-0.5-0.9-0.5-1.4h1.5c0,0.4,0.2,0.8,0.6,1.1s0.9,0.4,1.4,0.4
				c0.6,0,1-0.1,1.3-0.4s0.5-0.6,0.5-0.9c0-0.4-0.2-0.7-0.5-0.9s-0.9-0.4-1.6-0.6c-0.7-0.2-1.2-0.3-1.6-0.5
				c-0.4-0.2-0.8-0.4-1.1-0.8c-0.3-0.3-0.4-0.8-0.4-1.4c0-0.4,0.1-0.9,0.4-1.2c0.3-0.4,0.6-0.7,1.1-0.9c0.5-0.2,1.1-0.3,1.7-0.3
				c1,0,1.8,0.2,2.4,0.7c0.6,0.5,0.9,1.2,1,2h-1.5c0-0.5-0.2-0.8-0.6-1.1c-0.3-0.3-0.8-0.4-1.4-0.4c-0.5,0-0.9,0.1-1.2,0.3
				c-0.3,0.2-0.5,0.5-0.5,0.9c0,0.3,0.1,0.5,0.3,0.7c0.2,0.2,0.4,0.3,0.7,0.4c0.3,0.1,0.7,0.2,1.2,0.4c0.6,0.2,1.1,0.3,1.5,0.5
				c0.4,0.2,0.7,0.4,1,0.7c0.3,0.3,0.4,0.8,0.4,1.3c0,0.5-0.1,0.9-0.4,1.3s-0.6,0.7-1.1,0.9c-0.5,0.2-1,0.3-1.7,0.3
				C180.6,238.8,180,238.7,179.4,238.4z"/>
			<path class="st4" d="M188.3,231.1v5.2c0,0.4,0.1,0.7,0.3,0.9s0.5,0.3,0.9,0.3h1.1v1.2h-1.3c-0.8,0-1.4-0.2-1.8-0.6
				c-0.4-0.4-0.6-1-0.6-1.8v-5.2h-1.1v-1.2h1.1v-2.2h1.5v2.2h2.3v1.2H188.3z"/>
			<path class="st4" d="M200.1,229.9v8.8h-1.5v-1.3c-0.3,0.4-0.7,0.8-1.2,1c-0.5,0.3-1,0.4-1.6,0.4c-0.7,0-1.3-0.1-1.8-0.4
				s-1-0.7-1.3-1.3c-0.3-0.6-0.5-1.3-0.5-2.1v-5.1h1.4v4.9c0,0.9,0.2,1.5,0.7,2c0.4,0.5,1,0.7,1.8,0.7c0.8,0,1.4-0.2,1.8-0.7
				c0.4-0.5,0.7-1.2,0.7-2.1v-4.8H200.1z"/>
			<path class="st4" d="M202.6,231.9c0.4-0.7,0.9-1.2,1.5-1.6c0.6-0.4,1.3-0.6,2.1-0.6c0.7,0,1.3,0.2,1.9,0.5c0.6,0.3,1,0.7,1.3,1.2
				v-4.6h1.5v11.8h-1.5V237c-0.3,0.5-0.7,1-1.3,1.3s-1.2,0.5-2,0.5c-0.8,0-1.5-0.2-2.1-0.6c-0.6-0.4-1.1-0.9-1.5-1.6
				c-0.4-0.7-0.5-1.5-0.5-2.4C202,233.3,202.2,232.5,202.6,231.9z M209,232.5c-0.3-0.5-0.6-0.9-1.1-1.1c-0.5-0.3-1-0.4-1.5-0.4
				c-0.5,0-1,0.1-1.5,0.4s-0.8,0.6-1.1,1.1c-0.3,0.5-0.4,1.1-0.4,1.7c0,0.7,0.1,1.3,0.4,1.8s0.6,0.9,1.1,1.1
				c0.4,0.3,0.9,0.4,1.5,0.4c0.5,0,1-0.1,1.5-0.4c0.5-0.3,0.8-0.6,1.1-1.1s0.4-1.1,0.4-1.7C209.4,233.6,209.3,233,209,232.5z"/>
			<path class="st4" d="M213.4,228.2c-0.2-0.2-0.3-0.4-0.3-0.7s0.1-0.5,0.3-0.7c0.2-0.2,0.4-0.3,0.7-0.3c0.3,0,0.5,0.1,0.7,0.3
				c0.2,0.2,0.3,0.4,0.3,0.7s-0.1,0.5-0.3,0.7c-0.2,0.2-0.4,0.3-0.7,0.3C213.9,228.5,213.6,228.4,213.4,228.2z M214.8,229.9v8.8
				h-1.5v-8.8H214.8z"/>
			<path class="st4" d="M218.9,238.2c-0.7-0.4-1.2-0.9-1.6-1.6c-0.4-0.7-0.6-1.5-0.6-2.4c0-0.9,0.2-1.7,0.6-2.4
				c0.4-0.7,0.9-1.2,1.6-1.6c0.7-0.4,1.4-0.6,2.3-0.6s1.6,0.2,2.3,0.6c0.7,0.4,1.2,0.9,1.6,1.6c0.4,0.7,0.6,1.5,0.6,2.4
				c0,0.9-0.2,1.7-0.6,2.4c-0.4,0.7-0.9,1.2-1.6,1.6s-1.4,0.6-2.3,0.6C220.3,238.8,219.6,238.6,218.9,238.2z M222.6,237.1
				c0.5-0.2,0.8-0.6,1.1-1.1c0.3-0.5,0.4-1.1,0.4-1.8c0-0.7-0.1-1.3-0.4-1.8c-0.3-0.5-0.6-0.9-1.1-1.1c-0.4-0.2-0.9-0.4-1.5-0.4
				c-0.5,0-1,0.1-1.5,0.4c-0.4,0.2-0.8,0.6-1.1,1.1c-0.3,0.5-0.4,1.1-0.4,1.8c0,0.7,0.1,1.3,0.4,1.8c0.3,0.5,0.6,0.9,1,1.1
				s0.9,0.4,1.4,0.4C221.7,237.5,222.2,237.4,222.6,237.1z"/>
		</g>
		<g class="st2">
			<path class="st4" d="M54.7,254.2c0.6,0.3,1,0.7,1.3,1.2v-1.6h1.5v9c0,0.8-0.2,1.5-0.5,2.1s-0.8,1.1-1.5,1.5s-1.4,0.5-2.2,0.5
				c-1.2,0-2.1-0.3-2.9-0.8c-0.8-0.5-1.2-1.3-1.4-2.2h1.4c0.2,0.5,0.5,1,1,1.3c0.5,0.3,1.1,0.5,1.8,0.5c0.8,0,1.5-0.3,2-0.8
				c0.5-0.5,0.8-1.2,0.8-2.1V261c-0.3,0.5-0.7,0.9-1.3,1.3c-0.6,0.3-1.2,0.5-2,0.5c-0.8,0-1.5-0.2-2.1-0.6c-0.6-0.4-1.1-0.9-1.5-1.6
				s-0.5-1.5-0.5-2.4c0-0.9,0.2-1.7,0.5-2.4c0.4-0.7,0.9-1.2,1.5-1.6c0.6-0.4,1.3-0.6,2.1-0.6C53.5,253.7,54.2,253.9,54.7,254.2z
				 M55.6,256.5c-0.3-0.5-0.6-0.9-1.1-1.1c-0.5-0.3-1-0.4-1.5-0.4c-0.5,0-1,0.1-1.5,0.4c-0.4,0.3-0.8,0.6-1.1,1.1
				c-0.3,0.5-0.4,1.1-0.4,1.7c0,0.7,0.1,1.3,0.4,1.8c0.3,0.5,0.6,0.9,1.1,1.1c0.4,0.3,0.9,0.4,1.5,0.4c0.5,0,1-0.1,1.5-0.4
				c0.5-0.3,0.8-0.6,1.1-1.1s0.4-1.1,0.4-1.7C56,257.6,55.9,257,55.6,256.5z"/>
			<path class="st4" d="M60,252.2c-0.2-0.2-0.3-0.4-0.3-0.7s0.1-0.5,0.3-0.7c0.2-0.2,0.4-0.3,0.7-0.3c0.3,0,0.5,0.1,0.7,0.3
				c0.2,0.2,0.3,0.4,0.3,0.7s-0.1,0.5-0.3,0.7c-0.2,0.2-0.4,0.3-0.7,0.3C60.4,252.5,60.2,252.4,60,252.2z M61.4,253.9v8.8h-1.5v-8.8
				H61.4z"/>
			<path class="st4" d="M70.7,254.7c0.7,0.6,1,1.6,1,2.8v5.2h-1.4v-5c0-0.9-0.2-1.5-0.7-2c-0.4-0.5-1-0.7-1.8-0.7
				c-0.8,0-1.4,0.2-1.8,0.7c-0.5,0.5-0.7,1.2-0.7,2.1v4.8h-1.5v-8.8h1.5v1.2c0.3-0.4,0.7-0.8,1.2-1c0.5-0.2,1-0.4,1.6-0.4
				C69.2,253.7,70.1,254,70.7,254.7z"/>
			<path class="st4" d="M82.1,258.8h-7c0.1,0.9,0.3,1.5,0.9,2c0.5,0.5,1.2,0.7,2,0.7c0.6,0,1.2-0.1,1.6-0.4c0.4-0.3,0.7-0.7,0.9-1.2
				h1.6c-0.2,0.8-0.7,1.5-1.4,2.1c-0.7,0.5-1.6,0.8-2.6,0.8c-0.8,0-1.6-0.2-2.2-0.6c-0.7-0.4-1.2-0.9-1.5-1.6
				c-0.4-0.7-0.6-1.5-0.6-2.4c0-0.9,0.2-1.7,0.5-2.4s0.9-1.2,1.5-1.6c0.7-0.4,1.4-0.6,2.3-0.6c0.8,0,1.6,0.2,2.2,0.5
				c0.6,0.4,1.1,0.9,1.5,1.5s0.5,1.4,0.5,2.2C82.1,258.2,82.1,258.5,82.1,258.8z M80.2,256.2c-0.2-0.4-0.6-0.7-1-0.9
				s-0.9-0.3-1.4-0.3c-0.7,0-1.4,0.2-1.9,0.7c-0.5,0.5-0.8,1.1-0.9,2h5.5C80.6,257.1,80.5,256.6,80.2,256.2z"/>
			<path class="st4" d="M84,255.9c0.4-0.7,0.9-1.2,1.5-1.6c0.6-0.4,1.4-0.6,2.2-0.6c1.1,0,2,0.3,2.7,0.8c0.7,0.5,1.2,1.2,1.4,2.2
				h-1.6c-0.1-0.5-0.4-1-0.9-1.3c-0.4-0.3-1-0.5-1.6-0.5c-0.8,0-1.5,0.3-2,0.9c-0.5,0.6-0.8,1.4-0.8,2.4c0,1.1,0.3,1.9,0.8,2.4
				c0.5,0.6,1.2,0.9,2,0.9c0.6,0,1.2-0.1,1.6-0.4c0.4-0.3,0.7-0.7,0.9-1.3h1.6c-0.2,0.9-0.7,1.6-1.4,2.2c-0.7,0.5-1.6,0.8-2.6,0.8
				c-0.8,0-1.6-0.2-2.2-0.6c-0.6-0.4-1.1-0.9-1.5-1.6s-0.5-1.5-0.5-2.4C83.5,257.3,83.7,256.5,84,255.9z"/>
			<path class="st4" d="M95.3,262.2c-0.7-0.4-1.2-0.9-1.6-1.6c-0.4-0.7-0.6-1.5-0.6-2.4c0-0.9,0.2-1.7,0.6-2.4
				c0.4-0.7,0.9-1.2,1.6-1.6c0.7-0.4,1.4-0.6,2.3-0.6s1.6,0.2,2.3,0.6c0.7,0.4,1.2,0.9,1.6,1.6c0.4,0.7,0.6,1.5,0.6,2.4
				c0,0.9-0.2,1.7-0.6,2.4c-0.4,0.7-0.9,1.2-1.6,1.6c-0.7,0.4-1.4,0.6-2.3,0.6C96.7,262.8,96,262.6,95.3,262.2z M99,261.1
				c0.5-0.2,0.8-0.6,1.1-1.1c0.3-0.5,0.4-1.1,0.4-1.8c0-0.7-0.1-1.3-0.4-1.8c-0.3-0.5-0.6-0.9-1.1-1.1c-0.4-0.2-0.9-0.4-1.5-0.4
				c-0.5,0-1,0.1-1.5,0.4c-0.4,0.2-0.8,0.6-1.1,1.1c-0.3,0.5-0.4,1.1-0.4,1.8c0,0.7,0.1,1.3,0.4,1.8s0.6,0.9,1,1.1
				c0.4,0.2,0.9,0.4,1.4,0.4C98.1,261.5,98.6,261.4,99,261.1z"/>
			<path class="st4" d="M105.4,250.8v11.8H104v-11.8H105.4z"/>
			<path class="st4" d="M109.5,262.2c-0.7-0.4-1.2-0.9-1.6-1.6c-0.4-0.7-0.6-1.5-0.6-2.4c0-0.9,0.2-1.7,0.6-2.4
				c0.4-0.7,0.9-1.2,1.6-1.6c0.7-0.4,1.4-0.6,2.3-0.6s1.6,0.2,2.3,0.6c0.7,0.4,1.2,0.9,1.6,1.6c0.4,0.7,0.6,1.5,0.6,2.4
				c0,0.9-0.2,1.7-0.6,2.4c-0.4,0.7-0.9,1.2-1.6,1.6c-0.7,0.4-1.4,0.6-2.3,0.6C110.9,262.8,110.2,262.6,109.5,262.2z M113.2,261.1
				c0.5-0.2,0.8-0.6,1.1-1.1c0.3-0.5,0.4-1.1,0.4-1.8c0-0.7-0.1-1.3-0.4-1.8c-0.3-0.5-0.6-0.9-1.1-1.1c-0.4-0.2-0.9-0.4-1.5-0.4
				c-0.5,0-1,0.1-1.5,0.4c-0.4,0.2-0.8,0.6-1.1,1.1c-0.3,0.5-0.4,1.1-0.4,1.8c0,0.7,0.1,1.3,0.4,1.8s0.6,0.9,1,1.1
				c0.4,0.2,0.9,0.4,1.4,0.4C112.3,261.5,112.8,261.4,113.2,261.1z M113.4,251.3l-3.4,1.8V252l3.4-2V251.3z"/>
			<path class="st4" d="M123.8,254.2c0.6,0.3,1,0.7,1.3,1.2v-1.6h1.5v9c0,0.8-0.2,1.5-0.5,2.1s-0.8,1.1-1.5,1.5s-1.4,0.5-2.2,0.5
				c-1.2,0-2.1-0.3-2.9-0.8c-0.8-0.5-1.2-1.3-1.4-2.2h1.4c0.2,0.5,0.5,1,1,1.3c0.5,0.3,1.1,0.5,1.8,0.5c0.8,0,1.5-0.3,2-0.8
				c0.5-0.5,0.8-1.2,0.8-2.1V261c-0.3,0.5-0.7,0.9-1.3,1.3c-0.6,0.3-1.2,0.5-2,0.5c-0.8,0-1.5-0.2-2.1-0.6c-0.6-0.4-1.1-0.9-1.5-1.6
				s-0.5-1.5-0.5-2.4c0-0.9,0.2-1.7,0.5-2.4c0.4-0.7,0.9-1.2,1.5-1.6c0.6-0.4,1.3-0.6,2.1-0.6C122.5,253.7,123.2,253.9,123.8,254.2z
				 M124.6,256.5c-0.3-0.5-0.6-0.9-1.1-1.1c-0.5-0.3-1-0.4-1.5-0.4c-0.5,0-1,0.1-1.5,0.4c-0.4,0.3-0.8,0.6-1.1,1.1
				c-0.3,0.5-0.4,1.1-0.4,1.7c0,0.7,0.1,1.3,0.4,1.8c0.3,0.5,0.6,0.9,1.1,1.1c0.4,0.3,0.9,0.4,1.5,0.4c0.5,0,1-0.1,1.5-0.4
				c0.5-0.3,0.8-0.6,1.1-1.1s0.4-1.1,0.4-1.7C125,257.6,124.9,257,124.6,256.5z"/>
			<path class="st4" d="M129,252.2c-0.2-0.2-0.3-0.4-0.3-0.7s0.1-0.5,0.3-0.7c0.2-0.2,0.4-0.3,0.7-0.3c0.3,0,0.5,0.1,0.7,0.3
				c0.2,0.2,0.3,0.4,0.3,0.7s-0.1,0.5-0.3,0.7c-0.2,0.2-0.4,0.3-0.7,0.3C129.5,252.5,129.2,252.4,129,252.2z M130.4,253.9v8.8H129
				v-8.8H130.4z"/>
			<path class="st4" d="M132.9,255.9c0.4-0.7,0.9-1.2,1.5-1.6c0.6-0.4,1.4-0.6,2.2-0.6c1.1,0,2,0.3,2.7,0.8c0.7,0.5,1.2,1.2,1.4,2.2
				h-1.6c-0.1-0.5-0.4-1-0.9-1.3c-0.4-0.3-1-0.5-1.6-0.5c-0.8,0-1.5,0.3-2,0.9c-0.5,0.6-0.8,1.4-0.8,2.4c0,1.1,0.3,1.9,0.8,2.4
				c0.5,0.6,1.2,0.9,2,0.9c0.6,0,1.2-0.1,1.6-0.4s0.7-0.7,0.9-1.3h1.6c-0.2,0.9-0.7,1.6-1.4,2.2c-0.7,0.5-1.6,0.8-2.6,0.8
				c-0.8,0-1.6-0.2-2.2-0.6c-0.6-0.4-1.1-0.9-1.5-1.6s-0.5-1.5-0.5-2.4C132.4,257.3,132.6,256.5,132.9,255.9z"/>
			<path class="st4" d="M144.2,262.2c-0.7-0.4-1.2-0.9-1.6-1.6c-0.4-0.7-0.6-1.5-0.6-2.4c0-0.9,0.2-1.7,0.6-2.4
				c0.4-0.7,0.9-1.2,1.6-1.6c0.7-0.4,1.4-0.6,2.3-0.6s1.6,0.2,2.3,0.6c0.7,0.4,1.2,0.9,1.6,1.6s0.6,1.5,0.6,2.4
				c0,0.9-0.2,1.7-0.6,2.4c-0.4,0.7-0.9,1.2-1.6,1.6c-0.7,0.4-1.4,0.6-2.3,0.6C145.6,262.8,144.9,262.6,144.2,262.2z M147.9,261.1
				c0.5-0.2,0.8-0.6,1.1-1.1c0.3-0.5,0.4-1.1,0.4-1.8c0-0.7-0.1-1.3-0.4-1.8c-0.3-0.5-0.6-0.9-1.1-1.1s-0.9-0.4-1.5-0.4
				c-0.5,0-1,0.1-1.5,0.4s-0.8,0.6-1.1,1.1c-0.3,0.5-0.4,1.1-0.4,1.8c0,0.7,0.1,1.3,0.4,1.8c0.3,0.5,0.6,0.9,1,1.1
				c0.4,0.2,0.9,0.4,1.4,0.4S147.5,261.4,147.9,261.1z"/>
			<path class="st4" d="M157.2,252.2c-0.2-0.2-0.3-0.4-0.3-0.7s0.1-0.5,0.3-0.7c0.2-0.2,0.4-0.3,0.7-0.3c0.3,0,0.5,0.1,0.7,0.3
				c0.2,0.2,0.3,0.4,0.3,0.7s-0.1,0.5-0.3,0.7c-0.2,0.2-0.4,0.3-0.7,0.3C157.6,252.5,157.4,252.4,157.2,252.2z M158.6,253.9v8.8
				h-1.5v-8.8H158.6z"/>
			<path class="st4" d="M167.9,254.7c0.7,0.6,1,1.6,1,2.8v5.2h-1.4v-5c0-0.9-0.2-1.5-0.7-2s-1-0.7-1.8-0.7c-0.8,0-1.4,0.2-1.8,0.7
				c-0.5,0.5-0.7,1.2-0.7,2.1v4.8h-1.5v-8.8h1.5v1.2c0.3-0.4,0.7-0.8,1.2-1c0.5-0.2,1-0.4,1.6-0.4
				C166.4,253.7,167.3,254,167.9,254.7z"/>
			<path class="st4" d="M173.1,255.1v5.2c0,0.4,0.1,0.7,0.3,0.9c0.2,0.2,0.5,0.3,0.9,0.3h1.1v1.2h-1.3c-0.8,0-1.4-0.2-1.8-0.6
				c-0.4-0.4-0.6-1-0.6-1.8v-5.2h-1.1v-1.2h1.1v-2.2h1.5v2.2h2.3v1.2H173.1z"/>
			<path class="st4" d="M185.1,258.8h-7c0.1,0.9,0.3,1.5,0.9,2c0.5,0.5,1.2,0.7,2,0.7c0.6,0,1.2-0.1,1.6-0.4
				c0.4-0.3,0.7-0.7,0.9-1.2h1.6c-0.2,0.8-0.7,1.5-1.4,2.1c-0.7,0.5-1.6,0.8-2.6,0.8c-0.8,0-1.6-0.2-2.2-0.6s-1.2-0.9-1.5-1.6
				c-0.4-0.7-0.6-1.5-0.6-2.4c0-0.9,0.2-1.7,0.5-2.4c0.4-0.7,0.9-1.2,1.5-1.6c0.7-0.4,1.4-0.6,2.3-0.6c0.8,0,1.6,0.2,2.2,0.5
				c0.6,0.4,1.1,0.9,1.5,1.5s0.5,1.4,0.5,2.2C185.1,258.2,185.1,258.5,185.1,258.8z M183.3,256.2c-0.2-0.4-0.6-0.7-1-0.9
				c-0.4-0.2-0.9-0.3-1.4-0.3c-0.7,0-1.4,0.2-1.9,0.7c-0.5,0.5-0.8,1.1-0.9,2h5.5C183.6,257.1,183.5,256.6,183.3,256.2z"/>
			<path class="st4" d="M192.7,254.2c0.6,0.3,1,0.7,1.3,1.2v-1.6h1.5v9c0,0.8-0.2,1.5-0.5,2.1c-0.3,0.6-0.8,1.1-1.5,1.5
				s-1.4,0.5-2.2,0.5c-1.2,0-2.1-0.3-2.9-0.8s-1.2-1.3-1.4-2.2h1.4c0.2,0.5,0.5,1,1,1.3c0.5,0.3,1.1,0.5,1.8,0.5
				c0.8,0,1.5-0.3,2-0.8c0.5-0.5,0.8-1.2,0.8-2.1V261c-0.3,0.5-0.7,0.9-1.3,1.3c-0.6,0.3-1.2,0.5-2,0.5c-0.8,0-1.5-0.2-2.1-0.6
				c-0.6-0.4-1.1-0.9-1.5-1.6c-0.4-0.7-0.5-1.5-0.5-2.4c0-0.9,0.2-1.7,0.5-2.4c0.4-0.7,0.9-1.2,1.5-1.6c0.6-0.4,1.3-0.6,2.1-0.6
				C191.4,253.7,192.1,253.9,192.7,254.2z M193.5,256.5c-0.3-0.5-0.6-0.9-1.1-1.1s-1-0.4-1.5-0.4s-1,0.1-1.5,0.4
				c-0.4,0.3-0.8,0.6-1.1,1.1c-0.3,0.5-0.4,1.1-0.4,1.7c0,0.7,0.1,1.3,0.4,1.8c0.3,0.5,0.6,0.9,1.1,1.1c0.4,0.3,0.9,0.4,1.5,0.4
				s1-0.1,1.5-0.4c0.5-0.3,0.8-0.6,1.1-1.1s0.4-1.1,0.4-1.7C193.9,257.6,193.8,257,193.5,256.5z"/>
			<path class="st4" d="M200.4,254.1c0.5-0.3,1.1-0.4,1.7-0.4v1.5h-0.4c-1.6,0-2.4,0.9-2.4,2.7v4.8h-1.5v-8.8h1.5v1.4
				C199.6,254.8,200,254.4,200.4,254.1z"/>
			<path class="st4" d="M203.8,255.9c0.4-0.7,0.9-1.2,1.5-1.6c0.6-0.4,1.3-0.6,2.1-0.6c0.8,0,1.4,0.2,2,0.5c0.6,0.3,1,0.7,1.3,1.2
				v-1.6h1.5v8.8h-1.5V261c-0.3,0.5-0.7,0.9-1.3,1.3s-1.2,0.5-2,0.5c-0.8,0-1.5-0.2-2.1-0.6c-0.6-0.4-1.1-0.9-1.5-1.6
				c-0.4-0.7-0.5-1.5-0.5-2.4C203.3,257.3,203.5,256.5,203.8,255.9z M210.3,256.5c-0.3-0.5-0.6-0.9-1.1-1.1c-0.5-0.3-1-0.4-1.5-0.4
				c-0.5,0-1,0.1-1.5,0.4s-0.8,0.6-1.1,1.1c-0.3,0.5-0.4,1.1-0.4,1.7c0,0.7,0.1,1.3,0.4,1.8s0.6,0.9,1.1,1.1
				c0.4,0.3,0.9,0.4,1.5,0.4c0.5,0,1-0.1,1.5-0.4c0.5-0.3,0.8-0.6,1.1-1.1s0.4-1.1,0.4-1.7C210.7,257.6,210.6,257,210.3,256.5z"/>
			<path class="st4" d="M216.1,250.8v11.8h-1.5v-11.8H216.1z"/>
		</g>
		<g class="st2">
			<path class="st4" d="M37.1,286.4c-0.5-0.2-1-0.5-1.3-1c-0.3-0.4-0.5-0.9-0.5-1.4h1.5c0,0.4,0.2,0.8,0.6,1.1s0.9,0.4,1.4,0.4
				c0.6,0,1-0.1,1.3-0.4c0.3-0.2,0.5-0.6,0.5-0.9c0-0.4-0.2-0.7-0.5-0.9c-0.3-0.2-0.9-0.4-1.6-0.6c-0.7-0.2-1.2-0.3-1.6-0.5
				c-0.4-0.2-0.8-0.4-1.1-0.8c-0.3-0.3-0.4-0.8-0.4-1.4c0-0.4,0.1-0.9,0.4-1.2c0.3-0.4,0.6-0.7,1.1-0.9s1.1-0.3,1.7-0.3
				c1,0,1.8,0.2,2.4,0.7c0.6,0.5,0.9,1.2,1,2h-1.5c0-0.5-0.2-0.8-0.6-1.1c-0.3-0.3-0.8-0.4-1.4-0.4c-0.5,0-0.9,0.1-1.2,0.3
				c-0.3,0.2-0.5,0.5-0.5,0.9c0,0.3,0.1,0.5,0.3,0.7c0.2,0.2,0.4,0.3,0.7,0.4c0.3,0.1,0.7,0.2,1.2,0.4c0.6,0.2,1.1,0.3,1.5,0.5
				c0.4,0.2,0.7,0.4,1,0.7c0.3,0.3,0.4,0.8,0.4,1.3c0,0.5-0.1,0.9-0.4,1.3c-0.3,0.4-0.6,0.7-1.1,0.9c-0.5,0.2-1,0.3-1.7,0.3
				C38.3,286.8,37.7,286.7,37.1,286.4z"/>
			<path class="st4" d="M52.2,282.8h-7c0.1,0.9,0.3,1.5,0.9,2c0.5,0.5,1.2,0.7,2,0.7c0.6,0,1.2-0.1,1.6-0.4c0.4-0.3,0.7-0.7,0.9-1.2
				H52c-0.2,0.8-0.7,1.5-1.4,2.1c-0.7,0.5-1.6,0.8-2.6,0.8c-0.8,0-1.6-0.2-2.2-0.6c-0.7-0.4-1.2-0.9-1.5-1.6
				c-0.4-0.7-0.6-1.5-0.6-2.4c0-0.9,0.2-1.7,0.5-2.4s0.9-1.2,1.5-1.6c0.7-0.4,1.4-0.6,2.3-0.6c0.8,0,1.6,0.2,2.2,0.5
				c0.6,0.4,1.1,0.9,1.5,1.5s0.5,1.4,0.5,2.2C52.2,282.2,52.2,282.5,52.2,282.8z M50.3,280.2c-0.2-0.4-0.6-0.7-1-0.9
				s-0.9-0.3-1.4-0.3c-0.7,0-1.4,0.2-1.9,0.7c-0.5,0.5-0.8,1.1-0.9,2h5.5C50.7,281.1,50.6,280.6,50.3,280.2z"/>
			<path class="st4" d="M56.7,278.1c0.5-0.3,1.1-0.4,1.7-0.4v1.5H58c-1.6,0-2.4,0.9-2.4,2.7v4.8h-1.5v-8.8h1.5v1.4
				C55.8,278.8,56.2,278.4,56.7,278.1z"/>
			<path class="st4" d="M60.1,279.9c0.4-0.7,0.9-1.2,1.5-1.6c0.6-0.4,1.3-0.6,2.1-0.6c0.8,0,1.4,0.2,2,0.5c0.6,0.3,1,0.7,1.3,1.2
				v-1.6h1.5v8.8H67V285c-0.3,0.5-0.7,0.9-1.3,1.3c-0.6,0.3-1.2,0.5-2,0.5c-0.8,0-1.5-0.2-2.1-0.6c-0.6-0.4-1.1-0.9-1.5-1.6
				s-0.5-1.5-0.5-2.4C59.5,281.3,59.7,280.5,60.1,279.9z M66.6,280.5c-0.3-0.5-0.6-0.9-1.1-1.1c-0.5-0.3-1-0.4-1.5-0.4
				c-0.5,0-1,0.1-1.5,0.4c-0.4,0.3-0.8,0.6-1.1,1.1c-0.3,0.5-0.4,1.1-0.4,1.7c0,0.7,0.1,1.3,0.4,1.8c0.3,0.5,0.6,0.9,1.1,1.1
				c0.4,0.3,0.9,0.4,1.5,0.4c0.5,0,1-0.1,1.5-0.4c0.5-0.3,0.8-0.6,1.1-1.1s0.4-1.1,0.4-1.7C67,281.6,66.8,281,66.6,280.5z
				 M65.8,275.4l-3.4,1.8v-1.1l3.4-2V275.4z"/>
			<path class="st4" d="M83.1,282.8h-7c0.1,0.9,0.3,1.5,0.9,2c0.5,0.5,1.2,0.7,2,0.7c0.6,0,1.2-0.1,1.6-0.4c0.4-0.3,0.7-0.7,0.9-1.2
				H83c-0.2,0.8-0.7,1.5-1.4,2.1c-0.7,0.5-1.6,0.8-2.6,0.8c-0.8,0-1.6-0.2-2.2-0.6c-0.7-0.4-1.2-0.9-1.5-1.6
				c-0.4-0.7-0.6-1.5-0.6-2.4c0-0.9,0.2-1.7,0.5-2.4s0.9-1.2,1.5-1.6c0.7-0.4,1.4-0.6,2.3-0.6c0.8,0,1.6,0.2,2.2,0.5
				c0.6,0.4,1.1,0.9,1.5,1.5s0.5,1.4,0.5,2.2C83.2,282.2,83.2,282.5,83.1,282.8z M81.3,280.2c-0.2-0.4-0.6-0.7-1-0.9
				s-0.9-0.3-1.4-0.3c-0.7,0-1.4,0.2-1.9,0.7c-0.5,0.5-0.8,1.1-0.9,2h5.5C81.7,281.1,81.6,280.6,81.3,280.2z"/>
			<path class="st4" d="M92,278.7c0.7,0.6,1,1.6,1,2.8v5.2h-1.4v-5c0-0.9-0.2-1.5-0.7-2c-0.4-0.5-1-0.7-1.8-0.7
				c-0.8,0-1.4,0.2-1.8,0.7c-0.5,0.5-0.7,1.2-0.7,2.1v4.8h-1.5v-8.8h1.5v1.2c0.3-0.4,0.7-0.8,1.2-1c0.5-0.2,1-0.4,1.6-0.4
				C90.4,277.7,91.3,278,92,278.7z"/>
			<path class="st4" d="M98.6,285.3l2.7-7.4h1.6l-3.4,8.8h-1.7l-3.4-8.8h1.6L98.6,285.3z"/>
			<path class="st4" d="M104.4,276.2c-0.2-0.2-0.3-0.4-0.3-0.7s0.1-0.5,0.3-0.7c0.2-0.2,0.4-0.3,0.7-0.3c0.3,0,0.5,0.1,0.7,0.3
				c0.2,0.2,0.3,0.4,0.3,0.7s-0.1,0.5-0.3,0.7c-0.2,0.2-0.4,0.3-0.7,0.3C104.8,276.5,104.6,276.4,104.4,276.2z M105.8,277.9v8.8
				h-1.5v-8.8H105.8z"/>
			<path class="st4" d="M108.3,279.9c0.4-0.7,0.9-1.2,1.5-1.6c0.6-0.4,1.3-0.6,2.1-0.6c0.8,0,1.4,0.2,2,0.5c0.6,0.3,1,0.7,1.3,1.2
				v-1.6h1.5v8.8h-1.5V285c-0.3,0.5-0.7,0.9-1.3,1.3c-0.6,0.3-1.2,0.5-2,0.5c-0.8,0-1.5-0.2-2.1-0.6c-0.6-0.4-1.1-0.9-1.5-1.6
				s-0.5-1.5-0.5-2.4C107.7,281.3,107.9,280.5,108.3,279.9z M114.7,280.5c-0.3-0.5-0.6-0.9-1.1-1.1c-0.5-0.3-1-0.4-1.5-0.4
				c-0.5,0-1,0.1-1.5,0.4c-0.4,0.3-0.8,0.6-1.1,1.1c-0.3,0.5-0.4,1.1-0.4,1.7c0,0.7,0.1,1.3,0.4,1.8c0.3,0.5,0.6,0.9,1.1,1.1
				c0.4,0.3,0.9,0.4,1.5,0.4c0.5,0,1-0.1,1.5-0.4c0.5-0.3,0.8-0.6,1.1-1.1s0.4-1.1,0.4-1.7C115.1,281.6,115,281,114.7,280.5z"/>
			<path class="st4" d="M119.1,279.9c0.4-0.7,0.9-1.2,1.5-1.6c0.6-0.4,1.3-0.6,2.1-0.6c0.7,0,1.3,0.2,1.9,0.5c0.6,0.3,1,0.7,1.3,1.2
				v-4.6h1.5v11.8h-1.5V285c-0.3,0.5-0.7,1-1.3,1.3s-1.2,0.5-2,0.5c-0.8,0-1.5-0.2-2.1-0.6c-0.6-0.4-1.1-0.9-1.5-1.6
				s-0.5-1.5-0.5-2.4C118.5,281.3,118.7,280.5,119.1,279.9z M125.5,280.5c-0.3-0.5-0.6-0.9-1.1-1.1c-0.5-0.3-1-0.4-1.5-0.4
				c-0.5,0-1,0.1-1.5,0.4c-0.4,0.3-0.8,0.6-1.1,1.1c-0.3,0.5-0.4,1.1-0.4,1.7c0,0.7,0.1,1.3,0.4,1.8c0.3,0.5,0.6,0.9,1.1,1.1
				c0.4,0.3,0.9,0.4,1.5,0.4c0.5,0,1-0.1,1.5-0.4c0.5-0.3,0.8-0.6,1.1-1.1s0.4-1.1,0.4-1.7C125.9,281.6,125.8,281,125.5,280.5z"/>
			<path class="st4" d="M131.5,286.2c-0.7-0.4-1.2-0.9-1.6-1.6c-0.4-0.7-0.6-1.5-0.6-2.4c0-0.9,0.2-1.7,0.6-2.4
				c0.4-0.7,0.9-1.2,1.6-1.6c0.7-0.4,1.4-0.6,2.3-0.6c0.8,0,1.6,0.2,2.3,0.6c0.7,0.4,1.2,0.9,1.6,1.6s0.6,1.5,0.6,2.4
				c0,0.9-0.2,1.7-0.6,2.4c-0.4,0.7-0.9,1.2-1.6,1.6c-0.7,0.4-1.4,0.6-2.3,0.6C132.9,286.8,132.1,286.6,131.5,286.2z M135.2,285.1
				c0.5-0.2,0.8-0.6,1.1-1.1c0.3-0.5,0.4-1.1,0.4-1.8c0-0.7-0.1-1.3-0.4-1.8c-0.3-0.5-0.6-0.9-1.1-1.1s-0.9-0.4-1.5-0.4
				c-0.5,0-1,0.1-1.5,0.4c-0.4,0.2-0.8,0.6-1.1,1.1c-0.3,0.5-0.4,1.1-0.4,1.8c0,0.7,0.1,1.3,0.4,1.8s0.6,0.9,1,1.1
				c0.4,0.2,0.9,0.4,1.4,0.4C134.2,285.5,134.7,285.4,135.2,285.1z"/>
			<path class="st4" d="M144.4,279.9c0.4-0.7,0.9-1.2,1.5-1.6c0.6-0.4,1.3-0.6,2.1-0.6c0.8,0,1.4,0.2,2,0.5c0.6,0.3,1,0.7,1.3,1.2
				v-1.6h1.5v8.8h-1.5V285c-0.3,0.5-0.7,0.9-1.3,1.3s-1.2,0.5-2,0.5c-0.8,0-1.5-0.2-2.1-0.6c-0.6-0.4-1.1-0.9-1.5-1.6
				c-0.4-0.7-0.5-1.5-0.5-2.4C143.9,281.3,144,280.5,144.4,279.9z M150.9,280.5c-0.3-0.5-0.6-0.9-1.1-1.1c-0.5-0.3-1-0.4-1.5-0.4
				c-0.5,0-1,0.1-1.5,0.4s-0.8,0.6-1.1,1.1c-0.3,0.5-0.4,1.1-0.4,1.7c0,0.7,0.1,1.3,0.4,1.8s0.6,0.9,1.1,1.1
				c0.4,0.3,0.9,0.4,1.5,0.4c0.5,0,1-0.1,1.5-0.4c0.5-0.3,0.8-0.6,1.1-1.1s0.4-1.1,0.4-1.7C151.3,281.6,151.1,281,150.9,280.5z"/>
			<path class="st4" d="M161.3,279.1v5.2c0,0.4,0.1,0.7,0.3,0.9s0.5,0.3,0.9,0.3h1.1v1.2h-1.3c-0.8,0-1.4-0.2-1.8-0.6
				c-0.4-0.4-0.6-1-0.6-1.8v-5.2h-1.1v-1.2h1.1v-2.2h1.5v2.2h2.3v1.2H161.3z"/>
			<path class="st4" d="M173.1,277.9v8.8h-1.5v-1.3c-0.3,0.4-0.7,0.8-1.2,1c-0.5,0.3-1,0.4-1.6,0.4c-0.7,0-1.3-0.1-1.8-0.4
				s-1-0.7-1.3-1.3c-0.3-0.6-0.5-1.3-0.5-2.1v-5.1h1.4v4.9c0,0.9,0.2,1.5,0.7,2c0.4,0.5,1,0.7,1.8,0.7c0.8,0,1.4-0.2,1.8-0.7
				c0.4-0.5,0.7-1.2,0.7-2.1v-4.8H173.1z"/>
			<path class="st4" d="M179.8,279.9c0.4-0.7,0.9-1.2,1.5-1.6c0.6-0.4,1.4-0.6,2.2-0.6c1.1,0,2,0.3,2.7,0.8s1.2,1.2,1.4,2.2H186
				c-0.1-0.5-0.4-1-0.9-1.3s-1-0.5-1.6-0.5c-0.8,0-1.5,0.3-2,0.9c-0.5,0.6-0.8,1.4-0.8,2.4c0,1.1,0.3,1.9,0.8,2.4s1.2,0.9,2,0.9
				c0.6,0,1.2-0.1,1.6-0.4c0.4-0.3,0.7-0.7,0.9-1.3h1.6c-0.2,0.9-0.7,1.6-1.4,2.2c-0.7,0.5-1.6,0.8-2.6,0.8c-0.8,0-1.6-0.2-2.2-0.6
				s-1.1-0.9-1.5-1.6c-0.4-0.7-0.5-1.5-0.5-2.4C179.3,281.3,179.5,280.5,179.8,279.9z"/>
			<path class="st4" d="M191.1,286.2c-0.7-0.4-1.2-0.9-1.6-1.6c-0.4-0.7-0.6-1.5-0.6-2.4c0-0.9,0.2-1.7,0.6-2.4
				c0.4-0.7,0.9-1.2,1.6-1.6c0.7-0.4,1.4-0.6,2.3-0.6s1.6,0.2,2.3,0.6c0.7,0.4,1.2,0.9,1.6,1.6c0.4,0.7,0.6,1.5,0.6,2.4
				c0,0.9-0.2,1.7-0.6,2.4c-0.4,0.7-0.9,1.2-1.6,1.6s-1.4,0.6-2.3,0.6C192.5,286.8,191.8,286.6,191.1,286.2z M194.8,285.1
				c0.5-0.2,0.8-0.6,1.1-1.1c0.3-0.5,0.4-1.1,0.4-1.8c0-0.7-0.1-1.3-0.4-1.8c-0.3-0.5-0.6-0.9-1.1-1.1c-0.4-0.2-0.9-0.4-1.5-0.4
				c-0.5,0-1,0.1-1.5,0.4c-0.4,0.2-0.8,0.6-1.1,1.1c-0.3,0.5-0.4,1.1-0.4,1.8c0,0.7,0.1,1.3,0.4,1.8c0.3,0.5,0.6,0.9,1,1.1
				s0.9,0.4,1.4,0.4C193.9,285.5,194.4,285.4,194.8,285.1z"/>
			<path class="st4" d="M202.3,278.1c0.5-0.3,1.1-0.4,1.7-0.4v1.5h-0.4c-1.6,0-2.4,0.9-2.4,2.7v4.8h-1.5v-8.8h1.5v1.4
				C201.5,278.8,201.8,278.4,202.3,278.1z"/>
			<path class="st4" d="M208.3,278.1c0.5-0.3,1.1-0.4,1.7-0.4v1.5h-0.4c-1.6,0-2.4,0.9-2.4,2.7v4.8h-1.5v-8.8h1.5v1.4
				C207.5,278.8,207.8,278.4,208.3,278.1z"/>
			<path class="st4" d="M219.7,282.8h-7c0.1,0.9,0.3,1.5,0.9,2c0.5,0.5,1.2,0.7,2,0.7c0.6,0,1.2-0.1,1.6-0.4
				c0.4-0.3,0.7-0.7,0.9-1.2h1.6c-0.2,0.8-0.7,1.5-1.4,2.1c-0.7,0.5-1.6,0.8-2.6,0.8c-0.8,0-1.6-0.2-2.2-0.6s-1.2-0.9-1.5-1.6
				c-0.4-0.7-0.6-1.5-0.6-2.4c0-0.9,0.2-1.7,0.5-2.4c0.4-0.7,0.9-1.2,1.5-1.6c0.7-0.4,1.4-0.6,2.3-0.6c0.8,0,1.6,0.2,2.2,0.5
				c0.6,0.4,1.1,0.9,1.5,1.5s0.5,1.4,0.5,2.2C219.7,282.2,219.7,282.5,219.7,282.8z M217.8,280.2c-0.2-0.4-0.6-0.7-1-0.9
				c-0.4-0.2-0.9-0.3-1.4-0.3c-0.7,0-1.4,0.2-1.9,0.7c-0.5,0.5-0.8,1.1-0.9,2h5.5C218.2,281.1,218.1,280.6,217.8,280.2z"/>
			<path class="st4" d="M223.2,286.2c-0.7-0.4-1.2-0.9-1.6-1.6c-0.4-0.7-0.6-1.5-0.6-2.4c0-0.9,0.2-1.7,0.6-2.4
				c0.4-0.7,0.9-1.2,1.6-1.6c0.7-0.4,1.4-0.6,2.3-0.6s1.6,0.2,2.3,0.6c0.7,0.4,1.2,0.9,1.6,1.6s0.6,1.5,0.6,2.4
				c0,0.9-0.2,1.7-0.6,2.4c-0.4,0.7-0.9,1.2-1.6,1.6c-0.7,0.4-1.4,0.6-2.3,0.6C224.6,286.8,223.9,286.6,223.2,286.2z M226.9,285.1
				c0.5-0.2,0.8-0.6,1.1-1.1c0.3-0.5,0.4-1.1,0.4-1.8c0-0.7-0.1-1.3-0.4-1.8c-0.3-0.5-0.6-0.9-1.1-1.1s-0.9-0.4-1.5-0.4
				c-0.5,0-1,0.1-1.5,0.4s-0.8,0.6-1.1,1.1c-0.3,0.5-0.4,1.1-0.4,1.8c0,0.7,0.1,1.3,0.4,1.8c0.3,0.5,0.6,0.9,1,1.1
				c0.4,0.2,0.9,0.4,1.4,0.4S226.5,285.4,226.9,285.1z"/>
		</g>
		<g class="st2">
			<path class="st4" d="M75,306.8h-7c0.1,0.9,0.3,1.5,0.9,2c0.5,0.5,1.2,0.7,2,0.7c0.6,0,1.2-0.1,1.6-0.4c0.4-0.3,0.7-0.7,0.9-1.2
				h1.6c-0.2,0.8-0.7,1.5-1.4,2.1c-0.7,0.5-1.6,0.8-2.6,0.8c-0.8,0-1.6-0.2-2.2-0.6c-0.7-0.4-1.2-0.9-1.5-1.6
				c-0.4-0.7-0.6-1.5-0.6-2.4c0-0.9,0.2-1.7,0.5-2.4s0.9-1.2,1.5-1.6c0.7-0.4,1.4-0.6,2.3-0.6c0.8,0,1.6,0.2,2.2,0.5
				c0.6,0.4,1.1,0.9,1.5,1.5s0.5,1.4,0.5,2.2C75,306.2,75,306.5,75,306.8z M73.2,304.2c-0.2-0.4-0.6-0.7-1-0.9s-0.9-0.3-1.4-0.3
				c-0.7,0-1.4,0.2-1.9,0.7c-0.5,0.5-0.8,1.1-0.9,2h5.5C73.5,305.1,73.4,304.6,73.2,304.2z"/>
			<path class="st4" d="M83.8,302.7c0.7,0.6,1,1.6,1,2.8v5.2h-1.4v-5c0-0.9-0.2-1.5-0.7-2c-0.4-0.5-1-0.7-1.8-0.7
				c-0.8,0-1.4,0.2-1.8,0.7c-0.5,0.5-0.7,1.2-0.7,2.1v4.8H77v-8.8h1.5v1.2c0.3-0.4,0.7-0.8,1.2-1c0.5-0.2,1-0.4,1.6-0.4
				C82.3,301.7,83.2,302,83.8,302.7z"/>
			<path class="st4" d="M98.3,300.2l-4.4,10.4h-1.5l4.5-10.3h-6.2v-1.2h7.6V300.2z"/>
			<path class="st4" d="M104.5,303.9c0.4-0.7,0.9-1.2,1.5-1.6c0.6-0.4,1.3-0.6,2.1-0.6c0.7,0,1.3,0.2,1.9,0.5c0.6,0.3,1,0.7,1.3,1.2
				v-4.6h1.5v11.8h-1.5V309c-0.3,0.5-0.7,1-1.3,1.3s-1.2,0.5-2,0.5c-0.8,0-1.5-0.2-2.1-0.6c-0.6-0.4-1.1-0.9-1.5-1.6
				s-0.5-1.5-0.5-2.4C103.9,305.3,104.1,304.5,104.5,303.9z M111,304.5c-0.3-0.5-0.6-0.9-1.1-1.1c-0.5-0.3-1-0.4-1.5-0.4
				c-0.5,0-1,0.1-1.5,0.4c-0.4,0.3-0.8,0.6-1.1,1.1c-0.3,0.5-0.4,1.1-0.4,1.7c0,0.7,0.1,1.3,0.4,1.8c0.3,0.5,0.6,0.9,1.1,1.1
				c0.4,0.3,0.9,0.4,1.5,0.4c0.5,0,1-0.1,1.5-0.4c0.5-0.3,0.8-0.6,1.1-1.1s0.4-1.1,0.4-1.7C111.4,305.6,111.2,305,111,304.5z"/>
			<path class="st4" d="M117.6,299.4l-3.4,1.8v-1.1l3.4-2V299.4z M116.7,301.9v8.8h-1.5v-8.8H116.7z"/>
			<path class="st4" d="M119.2,303.9c0.4-0.7,0.9-1.2,1.5-1.6c0.6-0.4,1.3-0.6,2.1-0.6c0.8,0,1.4,0.2,2,0.5c0.6,0.3,1,0.7,1.3,1.2
				v-1.6h1.5v8.8h-1.5V309c-0.3,0.5-0.7,0.9-1.3,1.3c-0.6,0.3-1.2,0.5-2,0.5c-0.8,0-1.5-0.2-2.1-0.6c-0.6-0.4-1.1-0.9-1.5-1.6
				s-0.5-1.5-0.5-2.4C118.7,305.3,118.9,304.5,119.2,303.9z M125.7,304.5c-0.3-0.5-0.6-0.9-1.1-1.1c-0.5-0.3-1-0.4-1.5-0.4
				c-0.5,0-1,0.1-1.5,0.4c-0.4,0.3-0.8,0.6-1.1,1.1c-0.3,0.5-0.4,1.1-0.4,1.7c0,0.7,0.1,1.3,0.4,1.8c0.3,0.5,0.6,0.9,1.1,1.1
				c0.4,0.3,0.9,0.4,1.5,0.4c0.5,0,1-0.1,1.5-0.4c0.5-0.3,0.8-0.6,1.1-1.1s0.4-1.1,0.4-1.7C126.1,305.6,126,305,125.7,304.5z"/>
			<path class="st4" d="M131.3,310.4c-0.5-0.2-1-0.5-1.3-1c-0.3-0.4-0.5-0.9-0.5-1.4h1.5c0,0.4,0.2,0.8,0.6,1.1s0.9,0.4,1.4,0.4
				c0.6,0,1-0.1,1.3-0.4c0.3-0.2,0.5-0.6,0.5-0.9c0-0.4-0.2-0.7-0.5-0.9c-0.3-0.2-0.9-0.4-1.6-0.6c-0.7-0.2-1.2-0.3-1.6-0.5
				c-0.4-0.2-0.8-0.4-1.1-0.8c-0.3-0.3-0.4-0.8-0.4-1.4c0-0.4,0.1-0.9,0.4-1.2c0.3-0.4,0.6-0.7,1.1-0.9s1.1-0.3,1.7-0.3
				c1,0,1.8,0.2,2.4,0.7s0.9,1.2,1,2h-1.5c0-0.5-0.2-0.8-0.6-1.1c-0.3-0.3-0.8-0.4-1.4-0.4c-0.5,0-0.9,0.1-1.2,0.3
				c-0.3,0.2-0.5,0.5-0.5,0.9c0,0.3,0.1,0.5,0.3,0.7c0.2,0.2,0.4,0.3,0.7,0.4c0.3,0.1,0.7,0.2,1.2,0.4c0.6,0.2,1.1,0.3,1.5,0.5
				s0.7,0.4,1,0.7c0.3,0.3,0.4,0.8,0.4,1.3c0,0.5-0.1,0.9-0.4,1.3c-0.3,0.4-0.6,0.7-1.1,0.9c-0.5,0.2-1,0.3-1.7,0.3
				C132.5,310.8,131.9,310.7,131.3,310.4z"/>
			<path class="st4" d="M148.8,302.1c0.5,0.3,1,0.7,1.3,1.3c0.3,0.6,0.5,1.3,0.5,2.1v5.2h-1.4v-5c0-0.9-0.2-1.5-0.7-2
				c-0.4-0.5-1-0.7-1.8-0.7c-0.8,0-1.4,0.2-1.8,0.7c-0.5,0.5-0.7,1.2-0.7,2.1v4.8h-1.5v-11.8h1.5v4.3c0.3-0.4,0.7-0.8,1.2-1
				c0.5-0.2,1.1-0.4,1.7-0.4C147.7,301.7,148.3,301.9,148.8,302.1z"/>
			<path class="st4" d="M152.9,303.9c0.4-0.7,0.9-1.2,1.5-1.6c0.6-0.4,1.3-0.6,2.1-0.6c0.8,0,1.4,0.2,2,0.5c0.6,0.3,1,0.7,1.3,1.2
				v-1.6h1.5v8.8h-1.5V309c-0.3,0.5-0.7,0.9-1.3,1.3c-0.6,0.3-1.2,0.5-2,0.5c-0.8,0-1.5-0.2-2.1-0.6c-0.6-0.4-1.1-0.9-1.5-1.6
				c-0.4-0.7-0.5-1.5-0.5-2.4C152.4,305.3,152.5,304.5,152.9,303.9z M159.4,304.5c-0.3-0.5-0.6-0.9-1.1-1.1s-1-0.4-1.5-0.4
				s-1,0.1-1.5,0.4c-0.4,0.3-0.8,0.6-1.1,1.1c-0.3,0.5-0.4,1.1-0.4,1.7c0,0.7,0.1,1.3,0.4,1.8c0.3,0.5,0.6,0.9,1.1,1.1
				c0.4,0.3,0.9,0.4,1.5,0.4s1-0.1,1.5-0.4c0.5-0.3,0.8-0.6,1.1-1.1s0.4-1.1,0.4-1.7C159.8,305.6,159.7,305,159.4,304.5z
				 M158.6,299.4l-3.4,1.8v-1.1l3.4-2V299.4z"/>
			<path class="st4" d="M166.5,302.2c0.6-0.3,1.2-0.5,2-0.5c0.8,0,1.5,0.2,2.1,0.6c0.6,0.4,1.1,0.9,1.5,1.6c0.4,0.7,0.5,1.5,0.5,2.4
				c0,0.9-0.2,1.7-0.5,2.4s-0.9,1.2-1.5,1.6c-0.6,0.4-1.3,0.6-2.1,0.6c-0.8,0-1.4-0.2-2-0.5c-0.6-0.3-1-0.8-1.3-1.3v1.6h-1.5v-11.8
				h1.5v4.7C165.5,303,165.9,302.6,166.5,302.2z M170.7,304.5c-0.3-0.5-0.6-0.9-1.1-1.1s-1-0.4-1.5-0.4c-0.5,0-1,0.1-1.5,0.4
				c-0.5,0.3-0.8,0.6-1.1,1.1c-0.3,0.5-0.4,1.1-0.4,1.7c0,0.7,0.1,1.2,0.4,1.7c0.3,0.5,0.6,0.9,1.1,1.1c0.5,0.3,0.9,0.4,1.5,0.4
				c0.5,0,1-0.1,1.5-0.4c0.5-0.3,0.8-0.6,1.1-1.1s0.4-1.1,0.4-1.8C171.1,305.6,171,305,170.7,304.5z"/>
			<path class="st4" d="M174.6,300.2c-0.2-0.2-0.3-0.4-0.3-0.7s0.1-0.5,0.3-0.7c0.2-0.2,0.4-0.3,0.7-0.3c0.3,0,0.5,0.1,0.7,0.3
				c0.2,0.2,0.3,0.4,0.3,0.7s-0.1,0.5-0.3,0.7c-0.2,0.2-0.4,0.3-0.7,0.3C175,300.5,174.8,300.4,174.6,300.2z M176,301.9v8.8h-1.5
				v-8.8H176z"/>
			<path class="st4" d="M179.9,298.8v11.8h-1.5v-11.8H179.9z"/>
			<path class="st4" d="M190.4,306.8h-7c0.1,0.9,0.3,1.5,0.9,2c0.5,0.5,1.2,0.7,2,0.7c0.6,0,1.2-0.1,1.6-0.4
				c0.4-0.3,0.7-0.7,0.9-1.2h1.6c-0.2,0.8-0.7,1.5-1.4,2.1c-0.7,0.5-1.6,0.8-2.6,0.8c-0.8,0-1.6-0.2-2.2-0.6
				c-0.7-0.4-1.2-0.9-1.5-1.6c-0.4-0.7-0.6-1.5-0.6-2.4c0-0.9,0.2-1.7,0.5-2.4c0.4-0.7,0.9-1.2,1.5-1.6c0.7-0.4,1.4-0.6,2.3-0.6
				c0.8,0,1.6,0.2,2.2,0.5c0.6,0.4,1.1,0.9,1.5,1.5s0.5,1.4,0.5,2.2C190.4,306.2,190.4,306.5,190.4,306.8z M188.5,304.2
				c-0.2-0.4-0.6-0.7-1-0.9c-0.4-0.2-0.9-0.3-1.4-0.3c-0.7,0-1.4,0.2-1.9,0.7c-0.5,0.5-0.8,1.1-0.9,2h5.5
				C188.9,305.1,188.8,304.6,188.5,304.2z"/>
			<path class="st4" d="M193.6,310.4c-0.5-0.2-1-0.5-1.3-1c-0.3-0.4-0.5-0.9-0.5-1.4h1.5c0,0.4,0.2,0.8,0.6,1.1s0.9,0.4,1.4,0.4
				c0.6,0,1-0.1,1.3-0.4c0.3-0.2,0.5-0.6,0.5-0.9c0-0.4-0.2-0.7-0.5-0.9c-0.3-0.2-0.9-0.4-1.6-0.6c-0.7-0.2-1.2-0.3-1.6-0.5
				c-0.4-0.2-0.8-0.4-1.1-0.8s-0.4-0.8-0.4-1.4c0-0.4,0.1-0.9,0.4-1.2c0.3-0.4,0.6-0.7,1.1-0.9c0.5-0.2,1.1-0.3,1.7-0.3
				c1,0,1.8,0.2,2.4,0.7s0.9,1.2,1,2h-1.5c0-0.5-0.2-0.8-0.6-1.1s-0.8-0.4-1.4-0.4c-0.5,0-0.9,0.1-1.2,0.3c-0.3,0.2-0.5,0.5-0.5,0.9
				c0,0.3,0.1,0.5,0.3,0.7s0.4,0.3,0.7,0.4c0.3,0.1,0.7,0.2,1.2,0.4c0.6,0.2,1.1,0.3,1.5,0.5s0.7,0.4,1,0.7c0.3,0.3,0.4,0.8,0.4,1.3
				c0,0.5-0.1,0.9-0.4,1.3c-0.3,0.4-0.6,0.7-1.1,0.9c-0.5,0.2-1,0.3-1.7,0.3C194.8,310.8,194.2,310.7,193.6,310.4z"/>
		</g>
	</g>
	<g>
		<path class="st5" d="M167,74.8l-14.8-14.9C141.4,49,123.8,49,113,59.9L98.3,74.8"/>
		<path class="st6" d="M164.8,117.9h-64.3c-1.2,0-2.2-1-2.2-2.2V74.8H167v41C167,116.9,166,117.9,164.8,117.9z"/>
		<path class="st7" d="M155.1,113.8h-44.9c-1.2,0-2.2-1-2.2-2.2V52.5c0-1.2,1-2.2,2.2-2.2h44.9c1.2,0,2.2,1,2.2,2.2v59.1
			C157.3,112.8,156.3,113.8,155.1,113.8z"/>
		<path class="st5" d="M132.6,96.3l33.7,21.1c0.4-0.3,0.7-0.8,0.7-1.4V74.8L132.6,96.3z"/>
		<path class="st5" d="M132.6,96.3L99,117.5c-0.4-0.3-0.7-0.8-0.7-1.4V74.8L132.6,96.3z"/>
		<path class="st6" d="M165.1,117.9c0.5,0,0.9-0.2,1.3-0.5l-29.3-26.1c-2.5-2.2-6.5-2.2-9,0l-29.3,26.1c0.3,0.3,0.8,0.5,1.3,0.5
			H165.1z"/>
		<g>
			<g>
				<path class="st3" d="M135.3,67.4c-0.1,0.5,0.1,1,0.7,1c1,0,2-1.6,2-3.7c0-2.7-1.6-4.8-4.6-4.8c-3.4,0-6.1,3-6.1,6.6
					c0,2.9,1.6,4.8,4.6,4.8c1.1,0,2-0.3,2.6-0.6l0.5,1.3c-1,0.6-2.3,0.9-3.3,0.9c-3.8,0-6.1-2.5-6.1-6.1c0-4.5,3.5-8.4,8-8.4
					c3.8,0,6.1,2.6,6.1,6.1c0,2.5-1.3,5.5-3.9,5.5c-1.1,0-1.8-0.6-2.1-1.3c-0.6,0.7-1.3,1.1-2.2,1.1h0c-1.8,0-2.6-1-2.3-2.9l0.3-2.4
					c0.3-1.8,1.4-2.9,3.1-2.9h0c0.8,0,1.5,0.4,1.9,1l0.7-0.9h0.9L135.3,67.4z M133.8,64.4c0.1-0.5-0.3-0.9-0.8-0.9h-0.5
					c-0.6,0-1,0.4-1.1,0.9l-0.4,2.6c-0.1,0.6,0.3,0.9,0.8,0.9h0.5c0.6,0,1-0.4,1.1-0.9L133.8,64.4z"/>
			</g>
		</g>
	</g>
</g>
</svg>
