<?xml version="1.0" encoding="utf-8"?>
<!-- Generator: Adobe Illustrator 24.1.1, SVG Export Plug-In . SVG Version: 6.00 Build 0)  -->
<svg version="1.1" id="Capa_1" xmlns="http://www.w3.org/2000/svg" xmlns:xlink="http://www.w3.org/1999/xlink" x="0px" y="0px"
	 viewBox="0 0 450 280" style="enable-background:new 0 0 450 280;" xml:space="preserve">
<style type="text/css">
	.st0{fill:#FFFFFF;}
	.st1{fill:#007CC3;}
	.st2{fill:#F173AC;}
	.st3{fill:#D9D9D9;}
	.st4{fill:#F5A4C7;}
</style>
<rect y="0" class="st0" width="450" height="280"/>
<g>
	<g>
		<path class="st1" d="M107.2,155.8v-17.5h11.2v3h-8v4.3h6.4v3h-6.4v4.3h8v3H107.2z"/>
		<path class="st1" d="M127.4,150.9l3.1,0.3v0.2c0,2.6-1.9,4.6-4.6,4.6h-0.8c-2.7,0-4.6-1.9-4.6-4.6v-4.1c0-2.6,1.9-4.6,4.6-4.6h0.8
			c2.7,0,4.6,1.9,4.6,4.6v0.2l-3.1,0.3v-0.6c0-0.8-0.7-1.5-1.5-1.5h-0.8c-0.8,0-1.5,0.7-1.5,1.5v4.3c0,0.8,0.7,1.5,1.5,1.5h0.8
			c0.8,0,1.5-0.7,1.5-1.5V150.9z"/>
		<path class="st1" d="M143.2,151.4c0,2.6-1.9,4.6-4.6,4.6h-0.8c-2.7,0-4.6-1.9-4.6-4.6v-4.1c0-2.6,1.9-4.6,4.6-4.6h0.8
			c2.7,0,4.6,1.9,4.6,4.6V151.4z M140.1,147.3c0-0.8-0.7-1.5-1.5-1.5h-0.8c-0.8,0-1.5,0.7-1.5,1.5v4.3c0,0.8,0.7,1.5,1.5,1.5h0.8
			c0.8,0,1.5-0.7,1.5-1.5V147.3z"/>
		<path class="st1" d="M147.3,154.4c-0.7-0.4-1.1-1.2-1.1-2.1c0-0.9,0.3-1.6,0.9-2.1c-0.8-0.8-1.1-1.8-1.1-3v-0.1
			c0-2.5,1.8-4.4,4.5-4.4h0.4c1.3,0,2.4,0.5,3.1,1.4l0.8-1.1h1.4v4.2c0,2.5-1.8,4.4-4.4,4.4h-2.3c-0.4,0-0.7,0.3-0.7,0.7
			s0.3,0.7,0.7,0.7h2.4c2.5,0,4.1,1.7,4.1,3.9s-1.6,3.9-4.1,3.9h-1.2c-2.5,0-4.1-1.7-4.1-3.9C146.5,155.9,146.7,155.1,147.3,154.4z
			 M153.2,147c0-0.9-0.7-1.6-1.6-1.6h-1c-0.9,0-1.6,0.8-1.6,1.6v0.3c0,0.9,0.7,1.6,1.6,1.6h1c0.9,0,1.6-0.7,1.6-1.6V147z
			 M153.1,156.8c0-0.6-0.4-1.1-1.3-1.1h-1.2c-0.9,0-1.3,0.5-1.3,1.1v0.2c0,0.6,0.4,1.1,1.3,1.1h1.2c0.9,0,1.3-0.5,1.3-1.1V156.8z"/>
		<path class="st1" d="M161.1,144.4c0.8-1,1.9-1.7,3.2-1.7h1.5v3.1h-2.5c-0.9,0-1.5,0.6-1.5,1.5v8.4h-3.1V143h1.4L161.1,144.4z"/>
		<path class="st1" d="M175.1,154.4c-0.7,1-1.9,1.6-3.4,1.6h-0.1c-2.6,0-4.1-1.5-4.1-3.6v-0.5c0-2.1,1.6-3.5,4.1-3.5h2.7v-1.3
			c0-0.7-0.7-1.3-1.5-1.3h-0.6c-0.8,0-1.5,0.6-1.5,1.3v0.5l-3.1-0.3v-0.1c0-2.5,1.9-4.4,4.6-4.4h0.6c2.7,0,4.6,1.9,4.6,4.4v8.6H176
			L175.1,154.4z M170.6,152c0,0.7,0.5,1.2,1.3,1.2h1.1c0.7,0,1.3-0.5,1.3-1.2v-1.3h-2.4C171.1,150.7,170.6,151.2,170.6,152
			L170.6,152z"/>
		<path class="st1" d="M187.3,138.3v2.9h-1.7c-0.8,0-1.3,0.4-1.3,1.3v0.6h2.7v2.9h-2.7v9.8h-3.1v-9.8H179V143h2.3v-0.6
			c0-2.7,1.4-4.1,4.1-4.1H187.3z"/>
		<path class="st1" d="M190.6,141.3H188l2-3.3h4L190.6,141.3z M188.8,155.8V143h3.1v12.8H188.8z"/>
		<path class="st1" d="M202.4,154.4c-0.7,1-1.9,1.6-3.4,1.6H199c-2.6,0-4.1-1.5-4.1-3.6v-0.5c0-2.1,1.6-3.5,4.1-3.5h2.7v-1.3
			c0-0.7-0.7-1.3-1.5-1.3h-0.6c-0.8,0-1.5,0.6-1.5,1.3v0.5l-3.1-0.3v-0.1c0-2.5,1.9-4.4,4.6-4.4h0.6c2.7,0,4.6,1.9,4.6,4.4v8.6h-1.4
			L202.4,154.4z M197.9,152c0,0.7,0.5,1.2,1.3,1.2h1.1c0.7,0,1.3-0.5,1.3-1.2v-1.3h-2.4C198.4,150.7,197.9,151.2,197.9,152
			L197.9,152z"/>
		<path class="st1" d="M218.7,155.8c-2.7,0-4.1-1.4-4.1-4.1v-5.7h-2.3V143h2.3v-3l3.1-0.5v3.5h2.9v2.9h-2.9v5.6
			c0,0.8,0.4,1.3,1.3,1.3h1.7v3L218.7,155.8L218.7,155.8z"/>
		<path class="st1" d="M225.7,144.4c0.8-1,1.9-1.7,3.2-1.7h1.5v3.1h-2.5c-0.9,0-1.5,0.6-1.5,1.5v8.4h-3.1V143h1.4L225.7,144.4z"/>
		<path class="st1" d="M239.7,154.4c-0.7,1-1.9,1.6-3.4,1.6h-0.1c-2.6,0-4.1-1.5-4.1-3.6v-0.5c0-2.1,1.6-3.5,4.1-3.5h2.7v-1.3
			c0-0.7-0.7-1.3-1.5-1.3h-0.6c-0.8,0-1.5,0.6-1.5,1.3v0.5l-3.1-0.3v-0.1c0-2.5,1.9-4.4,4.6-4.4h0.6c2.7,0,4.6,1.9,4.6,4.4v8.6h-1.4
			L239.7,154.4z M235.2,152c0,0.7,0.5,1.2,1.3,1.2h1.1c0.7,0,1.3-0.5,1.3-1.2v-1.3h-2.4C235.7,150.7,235.2,151.2,235.2,152
			L235.2,152z"/>
		<path class="st1" d="M247.4,144.4c0.8-1,1.9-1.7,3.2-1.7h0.1c2.8,0,4.3,1.6,4.3,4.6v8.4H252v-8.5c0-0.9-0.6-1.5-1.5-1.5h-0.8
			c-0.9,0-1.5,0.6-1.5,1.5v8.5h-3.1V143h1.4L247.4,144.4z"/>
		<path class="st1" d="M267.8,152.2c0,2.2-1.9,3.8-4.5,3.8h-0.8c-2.7,0-4.6-1.9-4.6-4.4v-0.1l3.1-0.3v0.5c0,0.8,0.5,1.3,1.4,1.3h1.1
			c0.7,0,1.2-0.4,1.2-1c0-2.3-6.6-0.3-6.6-5.6c0-2.2,1.9-3.8,4.5-3.8h0.5c2.6,0,4.6,1.8,4.6,4.3v0.1l-3.1,0.3V147
			c0-0.8-0.6-1.3-1.4-1.3h-0.8c-0.7,0-1.3,0.4-1.3,1.1C261.1,148.9,267.8,147,267.8,152.2z"/>
		<path class="st1" d="M272.7,155.8l-3.8-12.8h3.2l2.5,9.6l0,0.6l0-0.6l2.5-9.6h3.2l-3.8,12.8H272.7z"/>
		<path class="st1" d="M289.6,154.4c-0.7,1-1.9,1.6-3.4,1.6h0c-2.6,0-4.1-1.5-4.1-3.6v-0.5c0-2.1,1.5-3.5,4.1-3.5h2.7v-1.3
			c0-0.7-0.7-1.3-1.5-1.3h-0.6c-0.8,0-1.5,0.6-1.5,1.3v0.5l-3.1-0.3v-0.1c0-2.5,1.9-4.4,4.6-4.4h0.6c2.7,0,4.6,1.9,4.6,4.4v8.6h-1.4
			L289.6,154.4z M285.1,152c0,0.7,0.5,1.2,1.3,1.2h1.1c0.7,0,1.3-0.5,1.3-1.2v-1.3h-2.4C285.7,150.7,285.1,151.2,285.1,152
			L285.1,152L285.1,152z"/>
		<path class="st1" d="M296.1,154.4c-0.7-0.4-1-1.2-1-2.1c0-0.9,0.3-1.6,0.9-2.1c-0.8-0.8-1.1-1.8-1.1-3v-0.1c0-2.5,1.8-4.4,4.5-4.4
			h0.4c1.3,0,2.4,0.5,3.1,1.4l0.8-1.1h1.4v4.2c0,2.5-1.8,4.4-4.5,4.4h-2.3c-0.4,0-0.7,0.3-0.7,0.7s0.3,0.7,0.7,0.7h2.4
			c2.5,0,4.1,1.7,4.1,3.9s-1.6,3.9-4.1,3.9h-1.2c-2.5,0-4.1-1.7-4.1-3.9C295.3,155.9,295.6,155.1,296.1,154.4z M302,147
			c0-0.9-0.7-1.6-1.6-1.6h-1c-0.9,0-1.6,0.8-1.6,1.6v0.3c0,0.9,0.7,1.6,1.6,1.6h1c0.9,0,1.6-0.7,1.6-1.6V147z M301.9,156.8
			c0-0.6-0.5-1.1-1.3-1.1h-1.2c-0.9,0-1.3,0.5-1.3,1.1v0.2c0,0.6,0.5,1.1,1.3,1.1h1.2c0.9,0,1.3-0.5,1.3-1.1V156.8z"/>
		<path class="st1" d="M307.6,138.3h3.1v2.6h-3.1V138.3z M307.6,155.8V143h3.1v12.8H307.6z"/>
		<path class="st1" d="M316.3,144.4c0.8-1,1.9-1.7,3.2-1.7h0c2.8,0,4.3,1.6,4.3,4.6v8.4h-3.1v-8.5c0-0.9-0.6-1.5-1.5-1.5h-0.8
			c-0.9,0-1.5,0.6-1.5,1.5v8.5H314V143h1.4L316.3,144.4z"/>
		<path class="st1" d="M334.3,154.4c-0.7,1-1.9,1.6-3.4,1.6h-0.1c-2.6,0-4.1-1.5-4.1-3.6v-0.5c0-2.1,1.5-3.5,4.1-3.5h2.7v-1.3
			c0-0.7-0.7-1.3-1.5-1.3h-0.6c-0.8,0-1.5,0.6-1.5,1.3v0.5l-3.1-0.3v-0.1c0-2.5,1.9-4.4,4.6-4.4h0.6c2.7,0,4.6,1.9,4.6,4.4v8.6h-1.4
			L334.3,154.4z M329.8,152c0,0.7,0.5,1.2,1.3,1.2h1.1c0.7,0,1.3-0.5,1.3-1.2v-1.3h-2.4C330.3,150.7,329.8,151.2,329.8,152
			L329.8,152L329.8,152z"/>
		<path class="st1" d="M339.8,155.8v-17.5h3.1v17.5H339.8z"/>
	</g>
	<path d="M49.7,187.8L45.5,199h-1.7l-4.2-11.1h1.5l3.5,9.6l3.5-9.6H49.7z"/>
	<path d="M51.3,188.5c-0.2-0.2-0.3-0.4-0.3-0.7s0.1-0.5,0.3-0.7c0.2-0.2,0.4-0.3,0.7-0.3s0.5,0.1,0.7,0.3c0.2,0.2,0.3,0.4,0.3,0.7
		s-0.1,0.5-0.3,0.7s-0.4,0.3-0.7,0.3C51.8,188.8,51.5,188.7,51.3,188.5z M52.8,190.2v8.8h-1.5v-8.8H52.8z"/>
	<path d="M56.5,198.8c-0.5-0.2-1-0.6-1.3-1c-0.3-0.4-0.5-0.9-0.5-1.4h1.5c0,0.4,0.3,0.8,0.6,1.1s0.8,0.4,1.5,0.4
		c0.5,0,1-0.1,1.3-0.4s0.5-0.6,0.5-0.9c0-0.4-0.2-0.7-0.5-0.9s-0.9-0.4-1.6-0.6c-0.7-0.2-1.2-0.3-1.6-0.5c-0.4-0.2-0.8-0.4-1.1-0.8
		c-0.3-0.4-0.4-0.8-0.4-1.4c0-0.4,0.1-0.9,0.4-1.2s0.7-0.7,1.1-0.9s1-0.3,1.7-0.3c1,0,1.8,0.3,2.3,0.7s0.9,1.2,1,2H60
		c0-0.5-0.2-0.8-0.5-1.1s-0.8-0.4-1.3-0.4c-0.5,0-0.9,0.1-1.3,0.3c-0.3,0.2-0.5,0.5-0.5,0.9c0,0.3,0.1,0.5,0.3,0.7s0.4,0.3,0.7,0.4
		c0.3,0.1,0.7,0.2,1.2,0.4c0.6,0.2,1.1,0.3,1.5,0.5s0.7,0.4,1,0.7c0.3,0.3,0.4,0.8,0.4,1.3c0,0.5-0.1,0.9-0.4,1.3s-0.6,0.7-1.1,0.9
		c-0.5,0.2-1,0.3-1.7,0.3C57.7,199.1,57.1,199,56.5,198.8z"/>
	<path d="M71.4,190.2v8.8h-1.5v-1.3c-0.3,0.4-0.7,0.8-1.2,1.1s-1,0.4-1.6,0.4c-0.7,0-1.3-0.1-1.8-0.4s-1-0.7-1.3-1.3
		c-0.3-0.6-0.5-1.3-0.5-2.1v-5.1h1.4v4.9c0,0.9,0.2,1.5,0.7,2s1,0.7,1.8,0.7c0.8,0,1.4-0.2,1.8-0.7s0.7-1.2,0.7-2.1v-4.8H71.4z"/>
	<path d="M73.8,192.2c0.4-0.7,0.9-1.2,1.5-1.6c0.6-0.4,1.3-0.6,2.1-0.6c0.8,0,1.4,0.2,2,0.5s1,0.8,1.3,1.3v-1.6h1.5v8.8h-1.5v-1.6
		c-0.3,0.5-0.7,0.9-1.3,1.3c-0.6,0.3-1.2,0.5-2,0.5c-0.8,0-1.5-0.2-2.1-0.6c-0.6-0.4-1.1-0.9-1.5-1.6c-0.4-0.7-0.5-1.5-0.5-2.4
		C73.3,193.6,73.5,192.9,73.8,192.2z M80.3,192.8c-0.3-0.5-0.6-0.9-1.1-1.1s-0.9-0.4-1.5-0.4s-1,0.1-1.5,0.4
		c-0.4,0.3-0.8,0.6-1.1,1.1c-0.3,0.5-0.4,1.1-0.4,1.7c0,0.7,0.1,1.3,0.4,1.8s0.6,0.9,1.1,1.1s0.9,0.4,1.5,0.4s1-0.1,1.5-0.4
		c0.4-0.3,0.8-0.6,1.1-1.1s0.4-1.1,0.4-1.7C80.7,193.9,80.6,193.3,80.3,192.8z"/>
	<path d="M86.1,187.1V199h-1.5v-11.8H86.1z"/>
	<path d="M88.6,188.5c-0.2-0.2-0.3-0.4-0.3-0.7s0.1-0.5,0.3-0.7s0.4-0.3,0.7-0.3s0.5,0.1,0.7,0.3c0.2,0.2,0.3,0.4,0.3,0.7
		s-0.1,0.5-0.3,0.7s-0.4,0.3-0.7,0.3C89.1,188.8,88.8,188.7,88.6,188.5z M90,190.2v8.8h-1.5v-8.8H90z"/>
	<path d="M93.6,197.8h4.3v1.2h-6v-1.2l4.3-6.4H92v-1.2h5.9v1.2L93.6,197.8z"/>
	<path d="M99.8,192.2c0.4-0.7,0.9-1.2,1.5-1.6c0.6-0.4,1.3-0.6,2.1-0.6c0.8,0,1.4,0.2,2,0.5s1,0.8,1.3,1.3v-1.6h1.5v8.8h-1.5v-1.6
		c-0.3,0.5-0.7,0.9-1.3,1.3c-0.6,0.3-1.2,0.5-2,0.5c-0.8,0-1.5-0.2-2.1-0.6c-0.6-0.4-1.1-0.9-1.5-1.6c-0.4-0.7-0.5-1.5-0.5-2.4
		C99.3,193.6,99.4,192.9,99.8,192.2z M106.3,192.8c-0.3-0.5-0.6-0.9-1.1-1.1s-0.9-0.4-1.5-0.4s-1,0.1-1.5,0.4
		c-0.4,0.3-0.8,0.6-1.1,1.1c-0.3,0.5-0.4,1.1-0.4,1.7c0,0.7,0.1,1.3,0.4,1.8s0.6,0.9,1.1,1.1s0.9,0.4,1.5,0.4s1-0.1,1.5-0.4
		c0.4-0.3,0.8-0.6,1.1-1.1s0.4-1.1,0.4-1.7C106.7,193.9,106.5,193.3,106.3,192.8z"/>
	<path d="M110.6,192.2c0.4-0.7,0.9-1.2,1.5-1.6c0.7-0.4,1.4-0.6,2.2-0.6c1.1,0,2,0.3,2.7,0.8c0.7,0.5,1.2,1.3,1.4,2.2h-1.6
		c-0.2-0.5-0.4-0.9-0.9-1.3s-1-0.5-1.6-0.5c-0.8,0-1.5,0.3-2,0.9c-0.5,0.6-0.8,1.4-0.8,2.4c0,1.1,0.3,1.9,0.8,2.4
		c0.5,0.6,1.2,0.9,2,0.9c0.6,0,1.2-0.1,1.6-0.4s0.7-0.7,0.9-1.3h1.6c-0.2,0.9-0.7,1.6-1.4,2.1c-0.7,0.5-1.6,0.8-2.6,0.8
		c-0.8,0-1.6-0.2-2.2-0.6s-1.2-0.9-1.5-1.6c-0.4-0.7-0.5-1.5-0.5-2.4C110.1,193.6,110.3,192.9,110.6,192.2z"/>
	<path d="M120.4,188.5c-0.2-0.2-0.3-0.4-0.3-0.7s0.1-0.5,0.3-0.7s0.4-0.3,0.7-0.3s0.5,0.1,0.7,0.3c0.2,0.2,0.3,0.4,0.3,0.7
		s-0.1,0.5-0.3,0.7s-0.4,0.3-0.7,0.3C120.8,188.8,120.6,188.7,120.4,188.5z M121.8,190.2v8.8h-1.5v-8.8H121.8z"/>
	<path d="M125.8,198.5c-0.7-0.4-1.2-0.9-1.6-1.6s-0.6-1.5-0.6-2.4s0.2-1.7,0.6-2.4s0.9-1.2,1.6-1.6c0.7-0.4,1.4-0.6,2.3-0.6
		c0.8,0,1.6,0.2,2.3,0.6c0.7,0.4,1.2,0.9,1.6,1.6s0.6,1.5,0.6,2.4c0,0.9-0.2,1.7-0.6,2.4c-0.4,0.7-0.9,1.2-1.6,1.6s-1.4,0.6-2.3,0.6
		C127.3,199.1,126.5,198.9,125.8,198.5z M129.6,197.5c0.5-0.3,0.8-0.6,1.1-1.1s0.4-1.1,0.4-1.8s-0.1-1.3-0.4-1.8
		c-0.3-0.5-0.6-0.9-1.1-1.1s-0.9-0.4-1.5-0.4c-0.5,0-1,0.1-1.5,0.4s-0.8,0.6-1.1,1.1c-0.3,0.5-0.4,1.1-0.4,1.8
		c0,0.7,0.1,1.3,0.4,1.8c0.3,0.5,0.6,0.9,1.1,1.1s0.9,0.4,1.4,0.4S129.1,197.7,129.6,197.5z M129.7,187.6l-3.4,1.8v-1.1l3.4-2V187.6
		z"/>
	<path d="M141.4,191c0.7,0.6,1,1.6,1,2.8v5.2h-1.4v-5c0-0.9-0.2-1.5-0.7-2s-1-0.7-1.8-0.7c-0.8,0-1.4,0.2-1.8,0.7s-0.7,1.2-0.7,2.1
		v4.9h-1.5v-8.8h1.5v1.3c0.3-0.4,0.7-0.8,1.2-1s1-0.4,1.6-0.4C139.8,190,140.7,190.3,141.4,191z"/>
	<path d="M149,192.2c0.4-0.7,0.9-1.2,1.5-1.6c0.6-0.4,1.4-0.6,2.1-0.6c0.7,0,1.3,0.2,1.9,0.5c0.6,0.3,1,0.7,1.3,1.2v-4.6h1.5v11.8
		h-1.5v-1.6c-0.3,0.5-0.7,0.9-1.3,1.3s-1.2,0.5-2,0.5c-0.8,0-1.5-0.2-2.1-0.6c-0.6-0.4-1.1-0.9-1.5-1.6c-0.4-0.7-0.5-1.5-0.5-2.4
		C148.5,193.6,148.6,192.9,149,192.2z M155.5,192.8c-0.3-0.5-0.6-0.9-1.1-1.1s-0.9-0.4-1.5-0.4s-1,0.1-1.5,0.4
		c-0.4,0.3-0.8,0.6-1.1,1.1c-0.3,0.5-0.4,1.1-0.4,1.7c0,0.7,0.1,1.3,0.4,1.8s0.6,0.9,1.1,1.1c0.4,0.3,0.9,0.4,1.5,0.4s1-0.1,1.5-0.4
		c0.4-0.3,0.8-0.6,1.1-1.1s0.4-1.1,0.4-1.7C155.9,193.9,155.8,193.3,155.5,192.8z"/>
	<path d="M167.8,195.1h-7c0.1,0.9,0.4,1.5,0.9,2c0.5,0.5,1.2,0.7,2,0.7c0.6,0,1.1-0.1,1.6-0.4c0.4-0.3,0.7-0.7,0.9-1.2h1.6
		c-0.2,0.8-0.7,1.5-1.4,2.1c-0.7,0.5-1.6,0.8-2.6,0.8c-0.8,0-1.6-0.2-2.2-0.6s-1.2-0.9-1.5-1.6s-0.6-1.5-0.6-2.4
		c0-0.9,0.2-1.7,0.5-2.4c0.4-0.7,0.9-1.2,1.5-1.6s1.4-0.6,2.3-0.6c0.8,0,1.6,0.2,2.2,0.5s1.1,0.9,1.5,1.5s0.5,1.4,0.5,2.1
		C167.8,194.5,167.8,194.8,167.8,195.1z M165.9,192.5c-0.3-0.4-0.6-0.7-1-0.9s-0.9-0.3-1.4-0.3c-0.7,0-1.4,0.2-1.9,0.7
		s-0.8,1.1-0.9,1.9h5.5C166.3,193.4,166.2,192.9,165.9,192.5z"/>
	<path d="M171.2,187.1V199h-1.5v-11.8H171.2z"/>
	<path d="M185.7,190.2v8.8h-1.5v-1.3c-0.3,0.4-0.7,0.8-1.2,1.1s-1,0.4-1.6,0.4c-0.7,0-1.3-0.1-1.8-0.4s-1-0.7-1.3-1.3
		c-0.3-0.6-0.5-1.3-0.5-2.1v-5.1h1.4v4.9c0,0.9,0.2,1.5,0.7,2s1,0.7,1.8,0.7c0.8,0,1.4-0.2,1.8-0.7s0.7-1.2,0.7-2.1v-4.8H185.7z
		 M183.4,187.7l-3.4,1.8v-1.1l3.4-2V187.7z"/>
	<path d="M190,191.4v5.2c0,0.4,0.1,0.7,0.3,0.9c0.2,0.2,0.5,0.3,0.9,0.3h1.1v1.2h-1.3c-0.8,0-1.4-0.2-1.8-0.6
		c-0.4-0.4-0.6-1-0.6-1.8v-5.2h-1.1v-1.2h1.1V188h1.5v2.2h2.3v1.2L190,191.4L190,191.4z"/>
	<path d="M202,195.1h-7c0.1,0.9,0.4,1.5,0.9,2c0.5,0.5,1.2,0.7,2,0.7c0.6,0,1.1-0.1,1.6-0.4c0.4-0.3,0.7-0.7,0.9-1.2h1.6
		c-0.2,0.8-0.7,1.5-1.4,2.1c-0.7,0.5-1.6,0.8-2.6,0.8c-0.8,0-1.6-0.2-2.2-0.6s-1.2-0.9-1.5-1.6s-0.6-1.5-0.6-2.4
		c0-0.9,0.2-1.7,0.5-2.4c0.4-0.7,0.9-1.2,1.5-1.6s1.4-0.6,2.3-0.6c0.8,0,1.6,0.2,2.2,0.5s1.1,0.9,1.5,1.5s0.5,1.4,0.5,2.1
		C202,194.5,202,194.8,202,195.1z M200.1,192.5c-0.3-0.4-0.6-0.7-1-0.9s-0.9-0.3-1.4-0.3c-0.7,0-1.4,0.2-1.9,0.7s-0.8,1.1-0.9,1.9
		h5.5C200.5,193.4,200.4,192.9,200.1,192.5z"/>
	<path d="M206.5,190.4c0.5-0.3,1.1-0.4,1.7-0.4v1.5h-0.4c-1.6,0-2.4,0.9-2.4,2.7v4.8h-1.5v-8.8h1.5v1.4
		C205.6,191.1,206,190.7,206.5,190.4z"/>
	<path d="M211.5,198.5c-0.7-0.4-1.2-0.9-1.6-1.6s-0.6-1.5-0.6-2.4s0.2-1.7,0.6-2.4s0.9-1.2,1.6-1.6c0.7-0.4,1.4-0.6,2.3-0.6
		s1.6,0.2,2.3,0.6c0.7,0.4,1.2,0.9,1.6,1.6s0.6,1.5,0.6,2.4c0,0.9-0.2,1.7-0.6,2.4c-0.4,0.7-0.9,1.2-1.6,1.6s-1.4,0.6-2.3,0.6
		C212.9,199.1,212.2,198.9,211.5,198.5z M215.2,197.5c0.5-0.3,0.8-0.6,1.1-1.1s0.4-1.1,0.4-1.8s-0.1-1.3-0.4-1.8
		c-0.3-0.5-0.6-0.9-1.1-1.1s-0.9-0.4-1.5-0.4c-0.5,0-1,0.1-1.5,0.4s-0.8,0.6-1.1,1.1c-0.3,0.5-0.4,1.1-0.4,1.8
		c0,0.7,0.1,1.3,0.4,1.8c0.3,0.5,0.6,0.9,1.1,1.1s0.9,0.4,1.4,0.4S214.7,197.7,215.2,197.5z"/>
	<path d="M232,190.2l-5.3,12.9h-1.5l1.7-4.2l-3.5-8.7h1.6l2.8,7.1l2.7-7.1L232,190.2L232,190.2z"/>
	<path d="M239.3,198.5c-0.7-0.4-1.2-0.9-1.6-1.6s-0.6-1.5-0.6-2.4s0.2-1.7,0.6-2.4s0.9-1.2,1.6-1.6c0.7-0.4,1.4-0.6,2.3-0.6
		s1.6,0.2,2.3,0.6c0.7,0.4,1.2,0.9,1.6,1.6s0.6,1.5,0.6,2.4c0,0.9-0.2,1.7-0.6,2.4c-0.4,0.7-0.9,1.2-1.6,1.6s-1.4,0.6-2.3,0.6
		C240.7,199.1,239.9,198.9,239.3,198.5z M243,197.5c0.5-0.3,0.8-0.6,1.1-1.1s0.4-1.1,0.4-1.8s-0.1-1.3-0.4-1.8
		c-0.3-0.5-0.6-0.9-1.1-1.1s-0.9-0.4-1.5-0.4c-0.5,0-1,0.1-1.5,0.4s-0.8,0.6-1.1,1.1c-0.3,0.5-0.4,1.1-0.4,1.8
		c0,0.7,0.1,1.3,0.4,1.8c0.3,0.5,0.6,0.9,1.1,1.1s0.9,0.4,1.4,0.4S242.5,197.7,243,197.5z"/>
	<path d="M251.2,197.6l2.7-7.4h1.6L252,199h-1.7l-3.4-8.8h1.6L251.2,197.6z"/>
	<path d="M256.9,192.2c0.4-0.7,0.9-1.2,1.5-1.6c0.6-0.4,1.3-0.6,2.1-0.6c0.8,0,1.4,0.2,2,0.5s1,0.8,1.3,1.3v-1.6h1.5v8.8h-1.5v-1.6
		c-0.3,0.5-0.7,0.9-1.3,1.3c-0.6,0.3-1.2,0.5-2,0.5c-0.8,0-1.5-0.2-2.1-0.6c-0.6-0.4-1.1-0.9-1.5-1.6c-0.4-0.7-0.5-1.5-0.5-2.4
		C256.4,193.6,256.5,192.9,256.9,192.2z M263.4,192.8c-0.3-0.5-0.6-0.9-1.1-1.1s-1-0.4-1.5-0.4s-1,0.1-1.5,0.4
		c-0.5,0.3-0.8,0.6-1.1,1.1c-0.3,0.5-0.4,1.1-0.4,1.7c0,0.7,0.1,1.3,0.4,1.8s0.6,0.9,1.1,1.1s0.9,0.4,1.5,0.4s1-0.1,1.5-0.4
		c0.5-0.3,0.8-0.6,1.1-1.1s0.4-1.1,0.4-1.7C263.8,193.9,263.7,193.3,263.4,192.8z"/>
	<path d="M270.3,190.4c0.5-0.3,1-0.4,1.7-0.4v1.5h-0.4c-1.6,0-2.5,0.9-2.5,2.7v4.8h-1.5v-8.8h1.5v1.4
		C269.4,191.1,269.8,190.7,270.3,190.4z"/>
	<path d="M273.7,188.5c-0.2-0.2-0.3-0.4-0.3-0.7s0.1-0.5,0.3-0.7s0.4-0.3,0.7-0.3c0.3,0,0.5,0.1,0.7,0.3c0.2,0.2,0.3,0.4,0.3,0.7
		s-0.1,0.5-0.3,0.7s-0.4,0.3-0.7,0.3S273.9,188.7,273.7,188.5z M275.1,190.2v8.8h-1.5v-8.8H275.1z"/>
	<path d="M279.2,198.5c-0.7-0.4-1.2-0.9-1.6-1.6s-0.6-1.5-0.6-2.4s0.2-1.7,0.6-2.4c0.4-0.7,0.9-1.2,1.6-1.6c0.7-0.4,1.4-0.6,2.3-0.6
		s1.6,0.2,2.3,0.6c0.7,0.4,1.2,0.9,1.6,1.6s0.6,1.5,0.6,2.4c0,0.9-0.2,1.7-0.6,2.4s-0.9,1.2-1.6,1.6s-1.4,0.6-2.3,0.6
		C280.6,199.1,279.9,198.9,279.2,198.5z M282.9,197.5c0.5-0.3,0.8-0.6,1.1-1.1s0.4-1.1,0.4-1.8s-0.1-1.3-0.4-1.8
		c-0.3-0.5-0.6-0.9-1.1-1.1c-0.5-0.2-0.9-0.4-1.5-0.4s-1,0.1-1.5,0.4s-0.8,0.6-1.1,1.1c-0.3,0.5-0.4,1.1-0.4,1.8
		c0,0.7,0.1,1.3,0.4,1.8c0.3,0.5,0.6,0.9,1,1.1s0.9,0.4,1.4,0.4S282.5,197.7,282.9,197.5z"/>
	<path d="M289.2,198.8c-0.5-0.2-1-0.6-1.3-1c-0.3-0.4-0.5-0.9-0.5-1.4h1.5c0,0.4,0.3,0.8,0.6,1.1s0.9,0.4,1.5,0.4
		c0.5,0,1-0.1,1.3-0.4s0.5-0.6,0.5-0.9c0-0.4-0.2-0.7-0.5-0.9s-0.9-0.4-1.6-0.6c-0.6-0.2-1.2-0.3-1.6-0.5c-0.4-0.2-0.8-0.4-1.1-0.8
		c-0.3-0.4-0.4-0.8-0.4-1.4c0-0.4,0.1-0.9,0.4-1.2s0.6-0.7,1.1-0.9s1-0.3,1.7-0.3c1,0,1.8,0.3,2.4,0.7s0.9,1.2,1,2h-1.5
		c0-0.5-0.2-0.8-0.5-1.1s-0.8-0.4-1.4-0.4c-0.5,0-0.9,0.1-1.3,0.3c-0.3,0.2-0.5,0.5-0.5,0.9c0,0.3,0.1,0.5,0.3,0.7s0.4,0.3,0.7,0.4
		s0.7,0.2,1.2,0.4c0.6,0.2,1.1,0.3,1.5,0.5s0.7,0.4,1,0.7c0.3,0.3,0.4,0.8,0.4,1.3c0,0.5-0.1,0.9-0.4,1.3s-0.6,0.7-1.1,0.9
		c-0.5,0.2-1,0.3-1.7,0.3C290.3,199.1,289.7,199,289.2,198.8z"/>
	<path d="M303.2,190.5c0.6-0.3,1.2-0.5,2-0.5c0.8,0,1.5,0.2,2.1,0.6s1.1,0.9,1.5,1.6c0.4,0.7,0.5,1.5,0.5,2.4c0,0.9-0.2,1.7-0.5,2.4
		s-0.9,1.2-1.5,1.6c-0.6,0.4-1.3,0.6-2.1,0.6c-0.8,0-1.4-0.2-2-0.5c-0.6-0.3-1-0.8-1.3-1.3v5.8h-1.5v-12.9h1.5v1.6
		C302.2,191.3,302.7,190.9,303.2,190.5z M307.5,192.8c-0.3-0.5-0.6-0.9-1.1-1.1c-0.5-0.3-1-0.4-1.5-0.4c-0.5,0-1,0.1-1.5,0.4
		s-0.8,0.6-1.1,1.1s-0.4,1.1-0.4,1.7c0,0.7,0.1,1.2,0.4,1.7s0.6,0.9,1.1,1.1c0.5,0.3,1,0.4,1.5,0.4c0.5,0,1-0.1,1.5-0.4
		c0.5-0.3,0.8-0.6,1.1-1.1s0.4-1.1,0.4-1.8C307.9,193.9,307.8,193.3,307.5,192.8z"/>
	<path d="M311.3,192.2c0.4-0.7,0.9-1.2,1.5-1.6c0.6-0.4,1.3-0.6,2.1-0.6c0.8,0,1.4,0.2,2,0.5s1,0.8,1.3,1.3v-1.6h1.5v8.8h-1.5v-1.6
		c-0.3,0.5-0.7,0.9-1.3,1.3c-0.6,0.3-1.2,0.5-2,0.5c-0.8,0-1.5-0.2-2.1-0.6c-0.6-0.4-1.1-0.9-1.5-1.6c-0.4-0.7-0.5-1.5-0.5-2.4
		C310.8,193.6,311,192.9,311.3,192.2z M317.8,192.8c-0.3-0.5-0.6-0.9-1.1-1.1s-1-0.4-1.5-0.4s-1,0.1-1.5,0.4
		c-0.5,0.3-0.8,0.6-1.1,1.1c-0.3,0.5-0.4,1.1-0.4,1.7c0,0.7,0.1,1.3,0.4,1.8s0.6,0.9,1.1,1.1s0.9,0.4,1.5,0.4s1-0.1,1.5-0.4
		c0.5-0.3,0.8-0.6,1.1-1.1s0.4-1.1,0.4-1.7C318.2,193.9,318.1,193.3,317.8,192.8z"/>
	<path d="M324.7,190.4c0.5-0.3,1-0.4,1.7-0.4v1.5H326c-1.6,0-2.5,0.9-2.5,2.7v4.8h-1.5v-8.8h1.5v1.4
		C323.8,191.1,324.2,190.7,324.7,190.4z"/>
	<path d="M328.1,192.2c0.4-0.7,0.9-1.2,1.5-1.6c0.6-0.4,1.3-0.6,2.1-0.6c0.8,0,1.4,0.2,2,0.5s1,0.8,1.3,1.3v-1.6h1.5v8.8H335v-1.6
		c-0.3,0.5-0.7,0.9-1.3,1.3c-0.6,0.3-1.2,0.5-2,0.5c-0.8,0-1.5-0.2-2.1-0.6c-0.6-0.4-1.1-0.9-1.5-1.6c-0.4-0.7-0.5-1.5-0.5-2.4
		C327.5,193.6,327.7,192.9,328.1,192.2z M334.6,192.8c-0.3-0.5-0.6-0.9-1.1-1.1s-1-0.4-1.5-0.4s-1,0.1-1.5,0.4
		c-0.5,0.3-0.8,0.6-1.1,1.1c-0.3,0.5-0.4,1.1-0.4,1.7c0,0.7,0.1,1.3,0.4,1.8s0.6,0.9,1.1,1.1s0.9,0.4,1.5,0.4s1-0.1,1.5-0.4
		c0.5-0.3,0.8-0.6,1.1-1.1s0.4-1.1,0.4-1.7C335,193.9,334.8,193.3,334.6,192.8z"/>
	<path d="M343.2,192.2c0.4-0.7,0.9-1.2,1.5-1.6c0.6-0.4,1.4-0.6,2.1-0.6c0.7,0,1.3,0.2,1.9,0.5c0.6,0.3,1,0.7,1.3,1.2v-4.6h1.5v11.8
		h-1.5v-1.6c-0.3,0.5-0.7,0.9-1.3,1.3s-1.2,0.5-2,0.5c-0.8,0-1.5-0.2-2.1-0.6c-0.6-0.4-1.1-0.9-1.5-1.6c-0.4-0.7-0.5-1.5-0.5-2.4
		C342.6,193.6,342.8,192.9,343.2,192.2z M349.7,192.8c-0.3-0.5-0.6-0.9-1.1-1.1s-1-0.4-1.5-0.4s-1,0.1-1.5,0.4
		c-0.5,0.3-0.8,0.6-1.1,1.1c-0.3,0.5-0.4,1.1-0.4,1.7c0,0.7,0.1,1.3,0.4,1.8s0.6,0.9,1.1,1.1s0.9,0.4,1.5,0.4s1-0.1,1.5-0.4
		c0.5-0.3,0.8-0.6,1.1-1.1s0.4-1.1,0.4-1.7C350.1,193.9,349.9,193.3,349.7,192.8z"/>
	<path d="M362,195.1h-7c0,0.9,0.4,1.5,0.9,2c0.5,0.5,1.2,0.7,2,0.7c0.6,0,1.1-0.1,1.6-0.4c0.4-0.3,0.7-0.7,0.9-1.2h1.6
		c-0.2,0.8-0.7,1.5-1.4,2.1c-0.7,0.5-1.6,0.8-2.6,0.8c-0.8,0-1.6-0.2-2.2-0.6s-1.2-0.9-1.5-1.6s-0.6-1.5-0.6-2.4
		c0-0.9,0.2-1.7,0.5-2.4c0.4-0.7,0.9-1.2,1.5-1.6s1.4-0.6,2.3-0.6c0.8,0,1.6,0.2,2.2,0.5c0.6,0.4,1.1,0.9,1.5,1.5s0.5,1.4,0.5,2.1
		C362,194.5,362,194.8,362,195.1z M360.1,192.5c-0.3-0.4-0.6-0.7-1-0.9s-0.9-0.3-1.4-0.3c-0.7,0-1.4,0.2-1.9,0.7
		c-0.5,0.5-0.8,1.1-0.9,1.9h5.5C360.5,193.4,360.4,192.9,360.1,192.5z"/>
	<path d="M365.7,191.4v5.2c0,0.4,0.1,0.7,0.3,0.9c0.2,0.2,0.5,0.3,0.9,0.3h1.1v1.2h-1.3c-0.8,0-1.4-0.2-1.8-0.6
		c-0.4-0.4-0.6-1-0.6-1.8v-5.2h-1.1v-1.2h1.1V188h1.5v2.2h2.3v1.2L365.7,191.4L365.7,191.4z"/>
	<path d="M377.7,195.1h-7c0,0.9,0.4,1.5,0.9,2c0.5,0.5,1.2,0.7,2,0.7c0.6,0,1.1-0.1,1.6-0.4c0.4-0.3,0.7-0.7,0.9-1.2h1.6
		c-0.2,0.8-0.7,1.5-1.4,2.1c-0.7,0.5-1.6,0.8-2.6,0.8c-0.8,0-1.6-0.2-2.2-0.6s-1.2-0.9-1.5-1.6s-0.6-1.5-0.6-2.4
		c0-0.9,0.2-1.7,0.5-2.4c0.4-0.7,0.9-1.2,1.5-1.6s1.4-0.6,2.3-0.6c0.8,0,1.6,0.2,2.2,0.5c0.6,0.4,1.1,0.9,1.5,1.5s0.5,1.4,0.5,2.1
		C377.7,194.5,377.7,194.8,377.7,195.1z M375.9,192.5c-0.3-0.4-0.6-0.7-1-0.9s-0.9-0.3-1.4-0.3c-0.7,0-1.4,0.2-1.9,0.7
		c-0.5,0.5-0.8,1.1-0.9,1.9h5.5C376.2,193.4,376.1,192.9,375.9,192.5z"/>
	<path d="M379.7,192.2c0.4-0.7,0.9-1.2,1.5-1.6c0.6-0.4,1.4-0.6,2.2-0.6c1.1,0,2,0.3,2.7,0.8s1.2,1.3,1.4,2.2h-1.6
		c-0.1-0.5-0.4-0.9-0.9-1.3s-1-0.5-1.6-0.5c-0.8,0-1.5,0.3-2,0.9c-0.5,0.6-0.8,1.4-0.8,2.4c0,1.1,0.3,1.9,0.8,2.4
		c0.5,0.6,1.2,0.9,2,0.9c0.6,0,1.2-0.1,1.6-0.4s0.7-0.7,0.9-1.3h1.6c-0.2,0.9-0.7,1.6-1.4,2.1c-0.7,0.5-1.6,0.8-2.6,0.8
		c-0.8,0-1.6-0.2-2.2-0.6s-1.1-0.9-1.5-1.6c-0.4-0.7-0.5-1.5-0.5-2.4C379.1,193.6,379.3,192.9,379.7,192.2z"/>
	<path d="M391.1,191.4v5.2c0,0.4,0.1,0.7,0.3,0.9c0.2,0.2,0.5,0.3,0.9,0.3h1.1v1.2h-1.3c-0.8,0-1.4-0.2-1.8-0.6
		c-0.4-0.4-0.6-1-0.6-1.8v-5.2h-1.1v-1.2h1.1V188h1.5v2.2h2.3v1.2L391.1,191.4L391.1,191.4z"/>
	<path d="M395.2,192.2c0.4-0.7,0.9-1.2,1.5-1.6c0.6-0.4,1.3-0.6,2.1-0.6c0.8,0,1.4,0.2,2,0.5s1,0.8,1.3,1.3v-1.6h1.5v8.8h-1.5v-1.6
		c-0.3,0.5-0.7,0.9-1.3,1.3c-0.6,0.3-1.2,0.5-2,0.5c-0.8,0-1.5-0.2-2.1-0.6c-0.6-0.4-1.1-0.9-1.5-1.6c-0.4-0.7-0.5-1.5-0.5-2.4
		C394.7,193.6,394.8,192.9,395.2,192.2z M401.7,192.8c-0.3-0.5-0.6-0.9-1.1-1.1s-1-0.4-1.5-0.4s-1,0.1-1.5,0.4
		c-0.5,0.3-0.8,0.6-1.1,1.1c-0.3,0.5-0.4,1.1-0.4,1.7c0,0.7,0.1,1.3,0.4,1.8s0.6,0.9,1.1,1.1s0.9,0.4,1.5,0.4s1-0.1,1.5-0.4
		c0.5-0.3,0.8-0.6,1.1-1.1s0.4-1.1,0.4-1.7C402.1,193.9,402,193.3,401.7,192.8z"/>
	<path d="M408.6,190.4c0.5-0.3,1-0.4,1.7-0.4v1.5h-0.4c-1.6,0-2.5,0.9-2.5,2.7v4.8H406v-8.8h1.5v1.4
		C407.7,191.1,408.1,190.7,408.6,190.4z"/>
	<path d="M26,216.2c0.4-0.7,0.9-1.2,1.5-1.6c0.6-0.4,1.3-0.6,2.1-0.6c0.8,0,1.4,0.2,2,0.5s1,0.8,1.3,1.3v-1.6h1.5v8.8h-1.5v-1.6
		c-0.3,0.5-0.7,0.9-1.3,1.3c-0.6,0.3-1.2,0.5-2,0.5c-0.8,0-1.5-0.2-2.1-0.6c-0.6-0.4-1.1-0.9-1.5-1.6c-0.4-0.7-0.5-1.5-0.5-2.4
		C25.4,217.6,25.6,216.9,26,216.2z M32.4,216.8c-0.3-0.5-0.6-0.9-1.1-1.1s-1-0.4-1.5-0.4s-1,0.1-1.5,0.4c-0.5,0.3-0.8,0.6-1.1,1.1
		c-0.3,0.5-0.4,1.1-0.4,1.7c0,0.7,0.1,1.3,0.4,1.8s0.6,0.9,1.1,1.1c0.5,0.3,0.9,0.4,1.5,0.4s1-0.1,1.5-0.4c0.5-0.3,0.8-0.6,1.1-1.1
		s0.4-1.1,0.4-1.7C32.8,217.9,32.7,217.3,32.4,216.8z"/>
	<path d="M38.2,211.1V223h-1.5v-11.8H38.2z"/>
	<path d="M42.5,215.4v5.2c0,0.4,0.1,0.7,0.3,0.9c0.2,0.2,0.5,0.3,0.9,0.3h1.1v1.2h-1.3c-0.8,0-1.4-0.2-1.8-0.6
		c-0.4-0.4-0.6-1-0.6-1.8v-5.2h-1.1v-1.2H41V212h1.5v2.2h2.3v1.2L42.5,215.4L42.5,215.4z"/>
	<path d="M54.5,219.1h-7c0,0.9,0.3,1.5,0.9,2c0.5,0.5,1.2,0.7,2,0.7c0.6,0,1.2-0.1,1.6-0.4c0.4-0.3,0.7-0.7,0.9-1.2h1.6
		c-0.2,0.8-0.7,1.5-1.4,2.1c-0.7,0.5-1.6,0.8-2.6,0.8c-0.8,0-1.6-0.2-2.2-0.6s-1.2-0.9-1.5-1.6c-0.4-0.7-0.6-1.5-0.6-2.4
		c0-0.9,0.2-1.7,0.5-2.4c0.4-0.7,0.9-1.2,1.5-1.6s1.4-0.6,2.3-0.6c0.8,0,1.6,0.2,2.2,0.5s1.1,0.9,1.5,1.5s0.5,1.4,0.5,2.1
		C54.5,218.5,54.5,218.8,54.5,219.1z M52.7,216.5c-0.3-0.4-0.6-0.7-1-0.9s-0.9-0.3-1.4-0.3c-0.7,0-1.4,0.2-1.9,0.7s-0.8,1.1-0.9,1.9
		H53C53,217.4,52.9,216.9,52.7,216.5z"/>
	<path d="M59,214.4c0.5-0.3,1-0.4,1.7-0.4v1.5h-0.4c-1.6,0-2.5,0.9-2.5,2.7v4.8h-1.5v-8.8h1.5v1.4C58.2,215.1,58.5,214.7,59,214.4z"
		/>
	<path d="M62.4,216.2c0.4-0.7,0.9-1.2,1.5-1.6c0.6-0.4,1.3-0.6,2.1-0.6c0.8,0,1.4,0.2,2,0.5s1,0.8,1.3,1.3v-1.6h1.5v8.8h-1.5v-1.6
		c-0.3,0.5-0.7,0.9-1.3,1.3c-0.6,0.3-1.2,0.5-2,0.5c-0.8,0-1.5-0.2-2.1-0.6c-0.6-0.4-1.1-0.9-1.5-1.6c-0.4-0.7-0.5-1.5-0.5-2.4
		C61.9,217.6,62,216.9,62.4,216.2z M68.9,216.8c-0.3-0.5-0.6-0.9-1.1-1.1s-0.9-0.4-1.5-0.4s-1,0.1-1.5,0.4c-0.4,0.3-0.8,0.6-1.1,1.1
		c-0.3,0.5-0.4,1.1-0.4,1.7c0,0.7,0.1,1.3,0.4,1.8c0.3,0.5,0.6,0.9,1.1,1.1s0.9,0.4,1.5,0.4s1-0.1,1.5-0.4c0.4-0.3,0.8-0.6,1.1-1.1
		s0.4-1.1,0.4-1.7C69.3,217.9,69.2,217.3,68.9,216.8z"/>
	<path d="M73.2,216.2c0.4-0.7,0.9-1.2,1.5-1.6c0.7-0.4,1.4-0.6,2.2-0.6c1.1,0,2,0.3,2.7,0.8c0.7,0.5,1.2,1.3,1.4,2.2h-1.6
		c-0.2-0.5-0.4-0.9-0.9-1.3s-1-0.5-1.6-0.5c-0.8,0-1.5,0.3-2,0.9c-0.5,0.6-0.8,1.4-0.8,2.4c0,1.1,0.3,1.9,0.8,2.4
		c0.5,0.6,1.2,0.9,2,0.9c0.6,0,1.2-0.1,1.6-0.4s0.7-0.7,0.9-1.3H81c-0.2,0.9-0.7,1.6-1.4,2.1c-0.7,0.5-1.6,0.8-2.6,0.8
		c-0.8,0-1.6-0.2-2.2-0.6s-1.2-0.9-1.5-1.6c-0.4-0.7-0.5-1.5-0.5-2.4C72.7,217.6,72.9,216.9,73.2,216.2z"/>
	<path d="M83,212.5c-0.2-0.2-0.3-0.4-0.3-0.7s0.1-0.5,0.3-0.7s0.4-0.3,0.7-0.3s0.5,0.1,0.7,0.3c0.2,0.2,0.3,0.4,0.3,0.7
		s-0.1,0.5-0.3,0.7s-0.4,0.3-0.7,0.3C83.4,212.8,83.2,212.7,83,212.5z M84.4,214.2v8.8h-1.5v-8.8H84.4z"/>
	<path d="M88.5,222.5c-0.7-0.4-1.2-0.9-1.6-1.6s-0.6-1.5-0.6-2.4s0.2-1.7,0.6-2.4s0.9-1.2,1.6-1.6c0.7-0.4,1.4-0.6,2.3-0.6
		s1.6,0.2,2.3,0.6c0.7,0.4,1.2,0.9,1.6,1.6s0.6,1.5,0.6,2.4c0,0.9-0.2,1.7-0.6,2.4s-0.9,1.2-1.6,1.6s-1.4,0.6-2.3,0.6
		C89.9,223.1,89.1,222.9,88.5,222.5z M92.2,221.5c0.5-0.3,0.8-0.6,1.1-1.1s0.4-1.1,0.4-1.8s-0.1-1.3-0.4-1.8
		c-0.3-0.5-0.6-0.9-1.1-1.1s-0.9-0.4-1.5-0.4s-1,0.1-1.5,0.4s-0.8,0.6-1.1,1.1c-0.3,0.5-0.4,1.1-0.4,1.8c0,0.7,0.1,1.3,0.4,1.8
		c0.3,0.5,0.6,0.9,1.1,1.1s0.9,0.4,1.4,0.4S91.7,221.7,92.2,221.5z"/>
	<path d="M104,215c0.7,0.6,1,1.6,1,2.8v5.2h-1.4v-5c0-0.9-0.2-1.5-0.7-2s-1-0.7-1.8-0.7c-0.8,0-1.4,0.2-1.8,0.7
		c-0.4,0.5-0.7,1.2-0.7,2.1v4.9h-1.5v-8.8h1.5v1.3c0.3-0.4,0.7-0.8,1.2-1s1-0.4,1.6-0.4C102.4,214,103.3,214.3,104,215z"/>
	<path d="M115.3,219.1h-7c0.1,0.9,0.3,1.5,0.9,2c0.5,0.5,1.2,0.7,2,0.7c0.6,0,1.2-0.1,1.6-0.4c0.4-0.3,0.7-0.7,0.9-1.2h1.6
		c-0.2,0.8-0.7,1.5-1.4,2.1c-0.7,0.5-1.6,0.8-2.6,0.8c-0.8,0-1.6-0.2-2.2-0.6s-1.2-0.9-1.5-1.6s-0.6-1.5-0.6-2.4
		c0-0.9,0.2-1.7,0.5-2.4c0.4-0.7,0.9-1.2,1.5-1.6c0.7-0.4,1.4-0.6,2.3-0.6c0.8,0,1.6,0.2,2.2,0.5s1.1,0.9,1.5,1.5s0.5,1.4,0.5,2.1
		C115.3,218.5,115.3,218.8,115.3,219.1z M113.5,216.5c-0.3-0.4-0.6-0.7-1-0.9s-0.9-0.3-1.4-0.3c-0.7,0-1.4,0.2-1.9,0.7
		s-0.8,1.1-0.9,1.9h5.5C113.8,217.4,113.7,216.9,113.5,216.5z"/>
	<path d="M118.6,222.8c-0.5-0.2-1-0.6-1.3-1c-0.3-0.4-0.5-0.9-0.5-1.4h1.5c0,0.4,0.3,0.8,0.6,1.1s0.8,0.4,1.4,0.4
		c0.6,0,1-0.1,1.3-0.4s0.5-0.6,0.5-0.9c0-0.4-0.2-0.7-0.5-0.9c-0.3-0.2-0.9-0.4-1.6-0.6c-0.7-0.2-1.2-0.3-1.6-0.5
		c-0.4-0.2-0.8-0.4-1.1-0.8c-0.3-0.4-0.4-0.8-0.4-1.4c0-0.4,0.1-0.9,0.4-1.2c0.3-0.4,0.7-0.7,1.1-0.9s1.1-0.3,1.7-0.3
		c1,0,1.8,0.3,2.3,0.7s0.9,1.2,1,2H122c0-0.5-0.2-0.8-0.6-1.1s-0.8-0.4-1.3-0.4c-0.5,0-0.9,0.1-1.3,0.3c-0.3,0.2-0.5,0.5-0.5,0.9
		c0,0.3,0.1,0.5,0.3,0.7s0.4,0.3,0.7,0.4s0.7,0.2,1.2,0.4c0.6,0.2,1.1,0.3,1.5,0.5s0.7,0.4,1,0.7c0.3,0.3,0.4,0.8,0.4,1.3
		c0,0.5-0.1,0.9-0.4,1.3s-0.6,0.7-1.1,0.9c-0.5,0.2-1,0.3-1.7,0.3C119.7,223.1,119.1,223,118.6,222.8z"/>
	<path d="M125.4,222.8c-0.2-0.2-0.3-0.4-0.3-0.7c0-0.3,0.1-0.5,0.3-0.7s0.4-0.3,0.7-0.3s0.5,0.1,0.7,0.3c0.2,0.2,0.3,0.4,0.3,0.7
		c0,0.3-0.1,0.5-0.3,0.7s-0.4,0.3-0.7,0.3C125.8,223.1,125.6,223,125.4,222.8z"/>
	<path d="M134.7,221.8h3.9v1.2h-5.4v-11.1h1.5V221.8z"/>
	<path d="M140.2,216.2c0.4-0.7,0.9-1.2,1.5-1.6c0.6-0.4,1.3-0.6,2.1-0.6c0.8,0,1.4,0.2,2,0.5s1,0.8,1.3,1.3v-1.6h1.5v8.8H147v-1.6
		c-0.3,0.5-0.7,0.9-1.3,1.3c-0.6,0.3-1.2,0.5-2,0.5c-0.8,0-1.5-0.2-2.1-0.6c-0.6-0.4-1.1-0.9-1.5-1.6c-0.4-0.7-0.5-1.5-0.5-2.4
		C139.6,217.6,139.8,216.9,140.2,216.2z M146.6,216.8c-0.3-0.5-0.6-0.9-1.1-1.1s-0.9-0.4-1.5-0.4s-1,0.1-1.5,0.4
		c-0.4,0.3-0.8,0.6-1.1,1.1c-0.3,0.5-0.4,1.1-0.4,1.7c0,0.7,0.1,1.3,0.4,1.8s0.6,0.9,1.1,1.1c0.4,0.3,0.9,0.4,1.5,0.4s1-0.1,1.5-0.4
		c0.4-0.3,0.8-0.6,1.1-1.1s0.4-1.1,0.4-1.7C147.1,217.9,146.9,217.3,146.6,216.8z"/>
	<path d="M163.2,219.1h-7c0.1,0.9,0.4,1.5,0.9,2c0.5,0.5,1.2,0.7,2,0.7c0.6,0,1.1-0.1,1.6-0.4c0.4-0.3,0.7-0.7,0.9-1.2h1.6
		c-0.2,0.8-0.7,1.5-1.4,2.1c-0.7,0.5-1.6,0.8-2.6,0.8c-0.8,0-1.6-0.2-2.2-0.6s-1.2-0.9-1.5-1.6s-0.6-1.5-0.6-2.4
		c0-0.9,0.2-1.7,0.5-2.4c0.4-0.7,0.9-1.2,1.5-1.6s1.4-0.6,2.3-0.6c0.8,0,1.6,0.2,2.2,0.5s1.1,0.9,1.5,1.5s0.5,1.4,0.5,2.1
		C163.3,218.5,163.2,218.8,163.2,219.1z M161.4,216.5c-0.3-0.4-0.6-0.7-1-0.9s-0.9-0.3-1.4-0.3c-0.7,0-1.4,0.2-1.9,0.7
		s-0.8,1.1-0.9,1.9h5.5C161.8,217.4,161.6,216.9,161.4,216.5z"/>
	<path d="M165.2,216.2c0.4-0.7,0.9-1.2,1.5-1.6c0.6-0.4,1.4-0.6,2.2-0.6c1.1,0,2,0.3,2.7,0.8s1.2,1.3,1.4,2.2h-1.6
		c-0.1-0.5-0.4-0.9-0.9-1.3s-1-0.5-1.6-0.5c-0.8,0-1.5,0.3-2,0.9c-0.5,0.6-0.8,1.4-0.8,2.4c0,1.1,0.3,1.9,0.8,2.4
		c0.5,0.6,1.2,0.9,2,0.9c0.6,0,1.2-0.1,1.6-0.4s0.7-0.7,0.9-1.3h1.6c-0.2,0.9-0.7,1.6-1.4,2.1c-0.7,0.5-1.6,0.8-2.6,0.8
		c-0.8,0-1.6-0.2-2.2-0.6s-1.1-0.9-1.5-1.6c-0.4-0.7-0.5-1.5-0.5-2.4C164.6,217.6,164.8,216.9,165.2,216.2z"/>
	<path d="M176.5,222.5c-0.7-0.4-1.2-0.9-1.6-1.6s-0.6-1.5-0.6-2.4s0.2-1.7,0.6-2.4s0.9-1.2,1.6-1.6c0.7-0.4,1.4-0.6,2.3-0.6
		s1.6,0.2,2.3,0.6c0.7,0.4,1.2,0.9,1.6,1.6s0.6,1.5,0.6,2.4c0,0.9-0.2,1.7-0.6,2.4c-0.4,0.7-0.9,1.2-1.6,1.6s-1.4,0.6-2.3,0.6
		C177.9,223.1,177.1,222.9,176.5,222.5z M180.2,221.5c0.5-0.3,0.8-0.6,1.1-1.1s0.4-1.1,0.4-1.8s-0.1-1.3-0.4-1.8
		c-0.3-0.5-0.6-0.9-1.1-1.1s-0.9-0.4-1.5-0.4c-0.5,0-1,0.1-1.5,0.4s-0.8,0.6-1.1,1.1c-0.3,0.5-0.4,1.1-0.4,1.8
		c0,0.7,0.1,1.3,0.4,1.8c0.3,0.5,0.6,0.9,1.1,1.1s0.9,0.4,1.4,0.4S179.7,221.7,180.2,221.5z"/>
	<path d="M190.7,214.5c0.6,0.3,1,0.8,1.3,1.3v-1.6h1.5v9c0,0.8-0.2,1.5-0.5,2.1c-0.3,0.6-0.8,1.1-1.5,1.5s-1.4,0.5-2.2,0.5
		c-1.1,0-2.1-0.3-2.9-0.8c-0.8-0.5-1.2-1.3-1.4-2.2h1.4c0.2,0.5,0.5,1,1,1.3c0.5,0.3,1.1,0.5,1.8,0.5c0.8,0,1.4-0.3,2-0.8
		c0.5-0.5,0.8-1.2,0.8-2.1v-1.8c-0.3,0.5-0.7,0.9-1.3,1.3c-0.6,0.3-1.2,0.5-2,0.5c-0.8,0-1.5-0.2-2.1-0.6c-0.6-0.4-1.1-0.9-1.5-1.6
		c-0.4-0.7-0.5-1.5-0.5-2.4c0-0.9,0.2-1.7,0.5-2.4c0.4-0.7,0.9-1.2,1.5-1.6c0.6-0.4,1.3-0.6,2.1-0.6
		C189.5,214,190.2,214.2,190.7,214.5z M191.6,216.8c-0.3-0.5-0.6-0.9-1.1-1.1s-0.9-0.4-1.5-0.4s-1,0.1-1.5,0.4
		c-0.4,0.3-0.8,0.6-1.1,1.1c-0.3,0.5-0.4,1.1-0.4,1.7c0,0.7,0.1,1.3,0.4,1.8s0.6,0.9,1.1,1.1c0.4,0.3,0.9,0.4,1.5,0.4s1-0.1,1.5-0.4
		c0.4-0.3,0.8-0.6,1.1-1.1s0.4-1.1,0.4-1.7C192,217.9,191.9,217.3,191.6,216.8z"/>
	<path d="M198.5,214.4c0.5-0.3,1.1-0.4,1.7-0.4v1.5h-0.4c-1.6,0-2.4,0.9-2.4,2.7v4.8h-1.5v-8.8h1.5v1.4
		C197.7,215.1,198,214.7,198.5,214.4z"/>
	<path d="M201.9,216.2c0.4-0.7,0.9-1.2,1.5-1.6c0.6-0.4,1.3-0.6,2.1-0.6c0.8,0,1.4,0.2,2,0.5s1,0.8,1.3,1.3v-1.6h1.5v8.8h-1.5v-1.6
		c-0.3,0.5-0.7,0.9-1.3,1.3c-0.6,0.3-1.2,0.5-2,0.5c-0.8,0-1.5-0.2-2.1-0.6c-0.6-0.4-1.1-0.9-1.5-1.6c-0.4-0.7-0.5-1.5-0.5-2.4
		C201.4,217.6,201.6,216.9,201.9,216.2z M208.4,216.8c-0.3-0.5-0.6-0.9-1.1-1.1s-0.9-0.4-1.5-0.4s-1,0.1-1.5,0.4
		c-0.4,0.3-0.8,0.6-1.1,1.1c-0.3,0.5-0.4,1.1-0.4,1.7c0,0.7,0.1,1.3,0.4,1.8s0.6,0.9,1.1,1.1c0.4,0.3,0.9,0.4,1.5,0.4s1-0.1,1.5-0.4
		c0.4-0.3,0.8-0.6,1.1-1.1s0.4-1.1,0.4-1.7C208.8,217.9,208.7,217.3,208.4,216.8z"/>
	<path d="M216.3,215.4h-1.8v7.6H213v-7.6h-1.1v-1.2h1.1v-0.6c0-1,0.3-1.7,0.8-2.1s1.3-0.7,2.4-0.7v1.2c-0.6,0-1.1,0.1-1.4,0.4
		c-0.3,0.3-0.4,0.7-0.4,1.2v0.6h1.8L216.3,215.4L216.3,215.4z"/>
	<path d="M220.3,211.7l-3.4,1.8v-1.1l3.4-2V211.7z M219.4,214.2v8.8H218v-8.8H219.4z"/>
	<path d="M221.9,216.2c0.4-0.7,0.9-1.2,1.5-1.6c0.6-0.4,1.3-0.6,2.1-0.6c0.8,0,1.4,0.2,2,0.5s1,0.8,1.3,1.3v-1.6h1.5v8.8h-1.5v-1.6
		c-0.3,0.5-0.7,0.9-1.3,1.3c-0.6,0.3-1.2,0.5-2,0.5c-0.8,0-1.5-0.2-2.1-0.6c-0.6-0.4-1.1-0.9-1.5-1.6c-0.4-0.7-0.5-1.5-0.5-2.4
		C221.4,217.6,221.6,216.9,221.9,216.2z M228.4,216.8c-0.3-0.5-0.6-0.9-1.1-1.1s-0.9-0.4-1.5-0.4s-1,0.1-1.5,0.4
		c-0.4,0.3-0.8,0.6-1.1,1.1c-0.3,0.5-0.4,1.1-0.4,1.7c0,0.7,0.1,1.3,0.4,1.8s0.6,0.9,1.1,1.1c0.4,0.3,0.9,0.4,1.5,0.4s1-0.1,1.5-0.4
		c0.4-0.3,0.8-0.6,1.1-1.1s0.4-1.1,0.4-1.7C228.8,217.9,228.7,217.3,228.4,216.8z"/>
	<path d="M243.6,212.5c0.9,0.4,1.6,1.1,2.1,1.9c0.5,0.8,0.7,1.8,0.7,3s-0.2,2.1-0.7,3s-1.2,1.5-2.1,1.9s-1.9,0.7-3.2,0.7H237v-11.1
		h3.5C241.7,211.8,242.8,212,243.6,212.5z M243.8,220.6c0.8-0.8,1.1-1.8,1.1-3.2c0-1.4-0.4-2.5-1.1-3.3s-1.9-1.2-3.3-1.2h-2v8.8h2
		C241.9,221.8,243,221.4,243.8,220.6z"/>
	<path d="M249.9,222.5c-0.7-0.4-1.2-0.9-1.6-1.6s-0.6-1.5-0.6-2.4s0.2-1.7,0.6-2.4s0.9-1.2,1.6-1.6c0.7-0.4,1.4-0.6,2.3-0.6
		s1.6,0.2,2.3,0.6c0.7,0.4,1.2,0.9,1.6,1.6c0.4,0.7,0.6,1.5,0.6,2.4c0,0.9-0.2,1.7-0.6,2.4s-0.9,1.2-1.6,1.6s-1.4,0.6-2.3,0.6
		C251.3,223.1,250.6,222.9,249.9,222.5z M253.6,221.5c0.5-0.3,0.8-0.6,1.1-1.1s0.4-1.1,0.4-1.8s-0.1-1.3-0.4-1.8
		c-0.3-0.5-0.6-0.9-1.1-1.1s-0.9-0.4-1.5-0.4c-0.5,0-1,0.1-1.5,0.4s-0.8,0.6-1.1,1.1c-0.3,0.5-0.4,1.1-0.4,1.8
		c0,0.7,0.1,1.3,0.4,1.8c0.3,0.5,0.6,0.9,1.1,1.1s0.9,0.4,1.4,0.4S253.2,221.7,253.6,221.5z"/>
	<path d="M261.3,214.5c0.6-0.3,1.2-0.5,2-0.5c0.8,0,1.5,0.2,2.1,0.6s1.1,0.9,1.5,1.6c0.4,0.7,0.5,1.5,0.5,2.4c0,0.9-0.2,1.7-0.5,2.4
		s-0.9,1.2-1.5,1.6c-0.6,0.4-1.3,0.6-2.1,0.6c-0.8,0-1.4-0.2-2-0.5c-0.6-0.3-1-0.8-1.3-1.3v5.8h-1.5v-12.9h1.5v1.6
		C260.3,215.3,260.7,214.9,261.3,214.5z M265.6,216.8c-0.3-0.5-0.6-0.9-1.1-1.1c-0.5-0.3-1-0.4-1.5-0.4c-0.5,0-1,0.1-1.5,0.4
		s-0.8,0.6-1.1,1.1s-0.4,1.1-0.4,1.7c0,0.7,0.1,1.2,0.4,1.7s0.6,0.9,1.1,1.1c0.5,0.3,1,0.4,1.5,0.4c0.5,0,1-0.1,1.5-0.4
		c0.5-0.3,0.8-0.6,1.1-1.1s0.4-1.1,0.4-1.8C266,217.9,265.8,217.3,265.6,216.8z"/>
	<path d="M272.1,214.5c0.6-0.3,1.2-0.5,2-0.5c0.8,0,1.5,0.2,2.1,0.6s1.1,0.9,1.5,1.6c0.4,0.7,0.5,1.5,0.5,2.4c0,0.9-0.2,1.7-0.5,2.4
		s-0.9,1.2-1.5,1.6c-0.6,0.4-1.3,0.6-2.1,0.6c-0.8,0-1.4-0.2-2-0.5c-0.6-0.3-1-0.8-1.3-1.3v5.8h-1.5v-12.9h1.5v1.6
		C271.1,215.3,271.5,214.9,272.1,214.5z M276.4,216.8c-0.3-0.5-0.6-0.9-1.1-1.1c-0.5-0.3-1-0.4-1.5-0.4c-0.5,0-1,0.1-1.5,0.4
		s-0.8,0.6-1.1,1.1s-0.4,1.1-0.4,1.7c0,0.7,0.1,1.2,0.4,1.7s0.6,0.9,1.1,1.1c0.5,0.3,1,0.4,1.5,0.4c0.5,0,1-0.1,1.5-0.4
		c0.5-0.3,0.8-0.6,1.1-1.1s0.4-1.1,0.4-1.8C276.8,217.9,276.7,217.3,276.4,216.8z"/>
	<path d="M281.6,211.1V223h-1.5v-11.8H281.6z"/>
	<path d="M292.1,219.1h-7c0,0.9,0.4,1.5,0.9,2c0.5,0.5,1.2,0.7,2,0.7c0.6,0,1.1-0.1,1.6-0.4c0.4-0.3,0.7-0.7,0.9-1.2h1.6
		c-0.2,0.8-0.7,1.5-1.4,2.1c-0.7,0.5-1.6,0.8-2.6,0.8c-0.8,0-1.6-0.2-2.2-0.6s-1.2-0.9-1.5-1.6s-0.6-1.5-0.6-2.4
		c0-0.9,0.2-1.7,0.5-2.4c0.4-0.7,0.9-1.2,1.5-1.6s1.4-0.6,2.3-0.6c0.8,0,1.6,0.2,2.2,0.5c0.6,0.4,1.1,0.9,1.5,1.5s0.5,1.4,0.5,2.1
		C292.1,218.5,292.1,218.8,292.1,219.1z M290.3,216.5c-0.3-0.4-0.6-0.7-1-0.9s-0.9-0.3-1.4-0.3c-0.7,0-1.4,0.2-1.9,0.7
		c-0.5,0.5-0.8,1.1-0.9,1.9h5.5C290.6,217.4,290.5,216.9,290.3,216.5z"/>
	<path d="M296.6,214.4c0.5-0.3,1-0.4,1.7-0.4v1.5H298c-1.6,0-2.5,0.9-2.5,2.7v4.8h-1.5v-8.8h1.5v1.4
		C295.8,215.1,296.1,214.7,296.6,214.4z"/>
	<path d="M304.5,214.4c0.5-0.9,1.2-1.6,2-2c0.9-0.5,1.8-0.7,2.8-0.7c1.2,0,2.3,0.3,3.2,0.9c0.9,0.6,1.6,1.4,2,2.5h-1.7
		c-0.3-0.7-0.8-1.2-1.3-1.6c-0.6-0.4-1.3-0.5-2.1-0.5c-0.8,0-1.5,0.2-2.1,0.5s-1.1,0.9-1.5,1.5c-0.4,0.7-0.5,1.4-0.5,2.3
		s0.2,1.7,0.5,2.3s0.8,1.2,1.5,1.5s1.3,0.5,2.1,0.5c0.8,0,1.5-0.2,2.1-0.5s1-0.9,1.3-1.5h1.7c-0.4,1.1-1.1,1.9-2,2.5
		c-0.9,0.6-2,0.9-3.2,0.9c-1,0-2-0.2-2.8-0.7c-0.9-0.5-1.5-1.2-2-2c-0.5-0.9-0.7-1.8-0.7-2.9S304,215.3,304.5,214.4z"/>
	<path d="M318.2,222.5c-0.7-0.4-1.2-0.9-1.6-1.6s-0.6-1.5-0.6-2.4s0.2-1.7,0.6-2.4c0.4-0.7,0.9-1.2,1.6-1.6c0.7-0.4,1.4-0.6,2.3-0.6
		s1.6,0.2,2.3,0.6c0.7,0.4,1.2,0.9,1.6,1.6s0.6,1.5,0.6,2.4c0,0.9-0.2,1.7-0.6,2.4s-0.9,1.2-1.6,1.6s-1.4,0.6-2.3,0.6
		C319.6,223.1,318.9,222.9,318.2,222.5z M321.9,221.5c0.5-0.3,0.8-0.6,1.1-1.1s0.4-1.1,0.4-1.8s-0.1-1.3-0.4-1.8
		c-0.3-0.5-0.6-0.9-1.1-1.1c-0.5-0.2-0.9-0.4-1.5-0.4s-1,0.1-1.5,0.4s-0.8,0.6-1.1,1.1c-0.3,0.5-0.4,1.1-0.4,1.8
		c0,0.7,0.1,1.3,0.4,1.8c0.3,0.5,0.6,0.9,1,1.1s0.9,0.4,1.4,0.4S321.5,221.7,321.9,221.5z"/>
	<path d="M328.3,211.1V223h-1.5v-11.8H328.3z"/>
	<path d="M332.4,222.5c-0.7-0.4-1.2-0.9-1.6-1.6s-0.6-1.5-0.6-2.4s0.2-1.7,0.6-2.4c0.4-0.7,0.9-1.2,1.6-1.6c0.7-0.4,1.4-0.6,2.3-0.6
		s1.6,0.2,2.3,0.6c0.7,0.4,1.2,0.9,1.6,1.6s0.6,1.5,0.6,2.4c0,0.9-0.2,1.7-0.6,2.4s-0.9,1.2-1.6,1.6s-1.4,0.6-2.3,0.6
		C333.8,223.1,333.1,222.9,332.4,222.5z M336.1,221.5c0.5-0.3,0.8-0.6,1.1-1.1s0.4-1.1,0.4-1.8s-0.1-1.3-0.4-1.8
		c-0.3-0.5-0.6-0.9-1.1-1.1c-0.5-0.2-0.9-0.4-1.5-0.4s-1,0.1-1.5,0.4s-0.8,0.6-1.1,1.1c-0.3,0.5-0.4,1.1-0.4,1.8
		c0,0.7,0.1,1.3,0.4,1.8c0.3,0.5,0.6,0.9,1,1.1s0.9,0.4,1.4,0.4S335.7,221.7,336.1,221.5z"/>
	<path d="M343.6,214.4c0.5-0.3,1-0.4,1.7-0.4v1.5H345c-1.6,0-2.5,0.9-2.5,2.7v4.8h-1.5v-8.8h1.5v1.4
		C342.8,215.1,343.1,214.7,343.6,214.4z"/>
	<path d="M352.6,222.8c-0.5-0.2-1-0.6-1.3-1c-0.3-0.4-0.5-0.9-0.5-1.4h1.5c0,0.4,0.3,0.8,0.6,1.1s0.9,0.4,1.5,0.4
		c0.5,0,1-0.1,1.3-0.4s0.5-0.6,0.5-0.9c0-0.4-0.2-0.7-0.5-0.9s-0.9-0.4-1.6-0.6c-0.6-0.2-1.2-0.3-1.6-0.5c-0.4-0.2-0.8-0.4-1.1-0.8
		c-0.3-0.4-0.4-0.8-0.4-1.4c0-0.4,0.1-0.9,0.4-1.2s0.6-0.7,1.1-0.9s1-0.3,1.7-0.3c1,0,1.8,0.3,2.4,0.7s0.9,1.2,1,2h-1.5
		c0-0.5-0.2-0.8-0.5-1.1s-0.8-0.4-1.4-0.4c-0.5,0-0.9,0.1-1.3,0.3c-0.3,0.2-0.5,0.5-0.5,0.9c0,0.3,0.1,0.5,0.3,0.7s0.4,0.3,0.7,0.4
		s0.7,0.2,1.2,0.4c0.6,0.2,1.1,0.3,1.5,0.5s0.7,0.4,1,0.7c0.3,0.3,0.4,0.8,0.4,1.3c0,0.5-0.1,0.9-0.4,1.3s-0.6,0.7-1.1,0.9
		c-0.5,0.2-1,0.3-1.7,0.3C353.7,223.1,353.1,223,352.6,222.8z"/>
	<path d="M367.6,219.1h-7c0,0.9,0.4,1.5,0.9,2c0.5,0.5,1.2,0.7,2,0.7c0.6,0,1.1-0.1,1.6-0.4c0.4-0.3,0.7-0.7,0.9-1.2h1.6
		c-0.2,0.8-0.7,1.5-1.4,2.1c-0.7,0.5-1.6,0.8-2.6,0.8c-0.8,0-1.6-0.2-2.2-0.6s-1.2-0.9-1.5-1.6s-0.6-1.5-0.6-2.4
		c0-0.9,0.2-1.7,0.5-2.4c0.4-0.7,0.9-1.2,1.5-1.6s1.4-0.6,2.3-0.6c0.8,0,1.6,0.2,2.2,0.5c0.6,0.4,1.1,0.9,1.5,1.5s0.5,1.4,0.5,2.1
		C367.6,218.5,367.6,218.8,367.6,219.1z M365.8,216.5c-0.3-0.4-0.6-0.7-1-0.9s-0.9-0.3-1.4-0.3c-0.7,0-1.4,0.2-1.9,0.7
		c-0.5,0.5-0.8,1.1-0.9,1.9h5.5C366.1,217.4,366,216.9,365.8,216.5z"/>
	<path d="M376.4,214.4c0.5-0.3,1-0.4,1.7-0.4v1.5h-0.4c-1.6,0-2.5,0.9-2.5,2.7v4.8h-1.5v-8.8h1.5v1.4
		C375.6,215.1,375.9,214.7,376.4,214.4z"/>
	<path d="M387.8,219.1h-7c0,0.9,0.4,1.5,0.9,2c0.5,0.5,1.2,0.7,2,0.7c0.6,0,1.1-0.1,1.6-0.4c0.4-0.3,0.7-0.7,0.9-1.2h1.6
		c-0.2,0.8-0.7,1.5-1.4,2.1c-0.7,0.5-1.6,0.8-2.6,0.8c-0.8,0-1.6-0.2-2.2-0.6s-1.2-0.9-1.5-1.6s-0.6-1.5-0.6-2.4
		c0-0.9,0.2-1.7,0.5-2.4c0.4-0.7,0.9-1.2,1.5-1.6s1.4-0.6,2.3-0.6c0.8,0,1.6,0.2,2.2,0.5c0.6,0.4,1.1,0.9,1.5,1.5s0.5,1.4,0.5,2.1
		C387.8,218.5,387.8,218.8,387.8,219.1z M385.9,216.5c-0.3-0.4-0.6-0.7-1-0.9s-0.9-0.3-1.4-0.3c-0.7,0-1.4,0.2-1.9,0.7
		c-0.5,0.5-0.8,1.1-0.9,1.9h5.5C386.3,217.4,386.2,216.9,385.9,216.5z"/>
	<path d="M389.7,216.2c0.4-0.7,0.9-1.2,1.5-1.6c0.6-0.4,1.3-0.6,2.1-0.6c0.8,0,1.4,0.2,2,0.5s1,0.8,1.3,1.3v-1.6h1.5v8.8h-1.5v-1.6
		c-0.3,0.5-0.7,0.9-1.3,1.3c-0.6,0.3-1.2,0.5-2,0.5c-0.8,0-1.5-0.2-2.1-0.6c-0.6-0.4-1.1-0.9-1.5-1.6c-0.4-0.7-0.5-1.5-0.5-2.4
		C389.2,217.6,389.4,216.9,389.7,216.2z M396.2,216.8c-0.3-0.5-0.6-0.9-1.1-1.1s-1-0.4-1.5-0.4s-1,0.1-1.5,0.4
		c-0.5,0.3-0.8,0.6-1.1,1.1c-0.3,0.5-0.4,1.1-0.4,1.7c0,0.7,0.1,1.3,0.4,1.8s0.6,0.9,1.1,1.1s0.9,0.4,1.5,0.4s1-0.1,1.5-0.4
		c0.5-0.3,0.8-0.6,1.1-1.1s0.4-1.1,0.4-1.7C396.6,217.9,396.5,217.3,396.2,216.8z"/>
	<path d="M402,211.1V223h-1.5v-11.8H402z"/>
	<path d="M404.5,212.5c-0.2-0.2-0.3-0.4-0.3-0.7s0.1-0.5,0.3-0.7s0.4-0.3,0.7-0.3c0.3,0,0.5,0.1,0.7,0.3c0.2,0.2,0.3,0.4,0.3,0.7
		s-0.1,0.5-0.3,0.7s-0.4,0.3-0.7,0.3C405,212.8,404.7,212.7,404.5,212.5z M405.9,214.2v8.8h-1.5v-8.8H405.9z"/>
	<path d="M409.5,221.8h4.3v1.2h-6v-1.2l4.3-6.4h-4.2v-1.2h5.9v1.2L409.5,221.8z"/>
	<path d="M415.7,216.2c0.4-0.7,0.9-1.2,1.5-1.6c0.6-0.4,1.3-0.6,2.1-0.6c0.8,0,1.4,0.2,2,0.5s1,0.8,1.3,1.3v-1.6h1.5v8.8h-1.5v-1.6
		c-0.3,0.5-0.7,0.9-1.3,1.3c-0.6,0.3-1.2,0.5-2,0.5c-0.8,0-1.5-0.2-2.1-0.6c-0.6-0.4-1.1-0.9-1.5-1.6c-0.4-0.7-0.5-1.5-0.5-2.4
		C415.1,217.6,415.3,216.9,415.7,216.2z M422.2,216.8c-0.3-0.5-0.6-0.9-1.1-1.1s-1-0.4-1.5-0.4s-1,0.1-1.5,0.4
		c-0.5,0.3-0.8,0.6-1.1,1.1c-0.3,0.5-0.4,1.1-0.4,1.7c0,0.7,0.1,1.3,0.4,1.8s0.6,0.9,1.1,1.1s0.9,0.4,1.5,0.4s1-0.1,1.5-0.4
		c0.5-0.3,0.8-0.6,1.1-1.1s0.4-1.1,0.4-1.7C422.6,217.9,422.4,217.3,422.2,216.8z"/>
	<path d="M53.1,246.8c-0.5-0.2-1-0.6-1.3-1c-0.3-0.4-0.5-0.9-0.5-1.4h1.5c0,0.4,0.3,0.8,0.6,1.1s0.8,0.4,1.5,0.4
		c0.5,0,1-0.1,1.3-0.4s0.5-0.6,0.5-0.9c0-0.4-0.2-0.7-0.5-0.9s-0.9-0.4-1.6-0.6c-0.7-0.2-1.2-0.3-1.6-0.5c-0.4-0.2-0.8-0.4-1.1-0.8
		c-0.3-0.4-0.4-0.8-0.4-1.4c0-0.4,0.1-0.9,0.4-1.2s0.7-0.7,1.1-0.9s1-0.3,1.7-0.3c1,0,1.8,0.3,2.3,0.7s0.9,1.2,1,2h-1.5
		c0-0.5-0.2-0.8-0.5-1.1s-0.8-0.4-1.3-0.4c-0.5,0-0.9,0.1-1.3,0.3c-0.3,0.2-0.5,0.5-0.5,0.9c0,0.3,0.1,0.5,0.3,0.7s0.4,0.3,0.7,0.4
		c0.3,0.1,0.7,0.2,1.2,0.4c0.6,0.2,1.1,0.3,1.5,0.5s0.7,0.4,1,0.7c0.3,0.3,0.4,0.8,0.4,1.3c0,0.5-0.1,0.9-0.4,1.3s-0.6,0.7-1.1,0.9
		c-0.5,0.2-1,0.3-1.7,0.3C54.2,247.1,53.6,247,53.1,246.8z"/>
	<path d="M60.2,236.5c-0.2-0.2-0.3-0.4-0.3-0.7s0.1-0.5,0.3-0.7c0.2-0.2,0.4-0.3,0.7-0.3s0.5,0.1,0.7,0.3c0.2,0.2,0.3,0.4,0.3,0.7
		s-0.1,0.5-0.3,0.7s-0.4,0.3-0.7,0.3C60.6,236.8,60.4,236.7,60.2,236.5z M61.6,238.2v8.8h-1.5v-8.8H61.6z"/>
	<path d="M74.5,238.5c0.5,0.3,0.9,0.7,1.3,1.3c0.3,0.6,0.5,1.3,0.5,2.1v5.2h-1.4v-5c0-0.9-0.2-1.5-0.7-2s-1-0.7-1.8-0.7
		c-0.8,0-1.4,0.2-1.8,0.7c-0.4,0.5-0.7,1.2-0.7,2.1v4.9h-1.5v-11.8h1.5v4.3c0.3-0.4,0.7-0.8,1.2-1s1.1-0.4,1.7-0.4
		C73.4,238,74,238.2,74.5,238.5z"/>
	<path d="M78.6,240.2c0.4-0.7,0.9-1.2,1.5-1.6c0.6-0.4,1.3-0.6,2.1-0.6c0.8,0,1.4,0.2,2,0.5s1,0.8,1.3,1.3v-1.6h1.5v8.8h-1.5v-1.6
		c-0.3,0.5-0.7,0.9-1.3,1.3c-0.6,0.3-1.2,0.5-2,0.5c-0.8,0-1.5-0.2-2.1-0.6c-0.6-0.4-1.1-0.9-1.5-1.6c-0.4-0.7-0.5-1.5-0.5-2.4
		C78,241.6,78.2,240.9,78.6,240.2z M85.1,240.8c-0.3-0.5-0.6-0.9-1.1-1.1s-0.9-0.4-1.5-0.4s-1,0.1-1.5,0.4c-0.4,0.3-0.8,0.6-1.1,1.1
		c-0.3,0.5-0.4,1.1-0.4,1.7c0,0.7,0.1,1.3,0.4,1.8s0.6,0.9,1.1,1.1s0.9,0.4,1.5,0.4s1-0.1,1.5-0.4c0.4-0.3,0.8-0.6,1.1-1.1
		s0.4-1.1,0.4-1.7C85.5,241.9,85.3,241.3,85.1,240.8z"/>
	<path d="M96.9,238.2l-5.3,12.9h-1.5l1.7-4.2l-3.5-8.7H90l2.8,7.1l2.7-7.1L96.9,238.2L96.9,238.2z"/>
	<path d="M104.5,239.4v5.2c0,0.4,0.1,0.7,0.3,0.9c0.2,0.2,0.5,0.3,0.9,0.3h1.1v1.2h-1.3c-0.8,0-1.4-0.2-1.8-0.6
		c-0.4-0.4-0.6-1-0.6-1.8v-5.2h-1.1v-1.2h1.1V236h1.5v2.2h2.3v1.2L104.5,239.4L104.5,239.4z"/>
	<path d="M116.3,238.2v8.8h-1.5v-1.3c-0.3,0.4-0.7,0.8-1.2,1.1s-1,0.4-1.6,0.4c-0.7,0-1.3-0.1-1.8-0.4s-1-0.7-1.3-1.3
		c-0.3-0.6-0.5-1.3-0.5-2.1v-5.1h1.4v4.9c0,0.9,0.2,1.5,0.7,2s1,0.7,1.8,0.7c0.8,0,1.4-0.2,1.8-0.7s0.7-1.2,0.7-2.1v-4.8H116.3z"/>
	<path d="M131.1,238.5c0.5,0.3,1,0.7,1.3,1.3c0.3,0.6,0.5,1.3,0.5,2.1v5.2h-1.4v-5c0-0.9-0.2-1.5-0.6-2c-0.4-0.5-1-0.7-1.8-0.7
		c-0.8,0-1.4,0.2-1.8,0.7c-0.4,0.5-0.7,1.2-0.7,2.1v4.8h-1.4v-5c0-0.9-0.2-1.5-0.7-2s-1-0.7-1.8-0.7c-0.8,0-1.4,0.2-1.8,0.7
		c-0.4,0.5-0.7,1.2-0.7,2.1v4.8h-1.5v-8.8h1.5v1.3c0.3-0.5,0.7-0.8,1.2-1.1c0.5-0.3,1-0.4,1.6-0.4c0.7,0,1.4,0.2,1.9,0.5
		c0.6,0.3,1,0.8,1.3,1.5c0.3-0.6,0.7-1.1,1.2-1.4s1.2-0.5,1.9-0.5C130,238,130.6,238.2,131.1,238.5z"/>
	<path d="M136.8,246.5c-0.7-0.4-1.2-0.9-1.6-1.6s-0.6-1.5-0.6-2.4s0.2-1.7,0.6-2.4s0.9-1.2,1.6-1.6c0.7-0.4,1.4-0.6,2.3-0.6
		s1.6,0.2,2.3,0.6c0.7,0.4,1.2,0.9,1.6,1.6s0.6,1.5,0.6,2.4c0,0.9-0.2,1.7-0.6,2.4c-0.4,0.7-0.9,1.2-1.6,1.6s-1.4,0.6-2.3,0.6
		C138.2,247.1,137.5,246.9,136.8,246.5z M140.5,245.5c0.5-0.3,0.8-0.6,1.1-1.1s0.4-1.1,0.4-1.8s-0.1-1.3-0.4-1.8
		c-0.3-0.5-0.6-0.9-1.1-1.1s-0.9-0.4-1.5-0.4c-0.5,0-1,0.1-1.5,0.4s-0.8,0.6-1.1,1.1c-0.3,0.5-0.4,1.1-0.4,1.8
		c0,0.7,0.1,1.3,0.4,1.8c0.3,0.5,0.6,0.9,1.1,1.1s0.9,0.4,1.4,0.4S140.1,245.7,140.5,245.5z"/>
	<path d="M148,238.4c0.5-0.3,1.1-0.4,1.7-0.4v1.5h-0.4c-1.6,0-2.4,0.9-2.4,2.7v4.8h-1.5v-8.8h1.5v1.4
		C147.2,239.1,147.5,238.7,148,238.4z"/>
	<path d="M159.4,243.1h-7c0.1,0.9,0.4,1.5,0.9,2c0.5,0.5,1.2,0.7,2,0.7c0.6,0,1.1-0.1,1.6-0.4c0.4-0.3,0.7-0.7,0.9-1.2h1.6
		c-0.2,0.8-0.7,1.5-1.4,2.1c-0.7,0.5-1.6,0.8-2.6,0.8c-0.8,0-1.6-0.2-2.2-0.6s-1.2-0.9-1.5-1.6s-0.6-1.5-0.6-2.4
		c0-0.9,0.2-1.7,0.5-2.4c0.4-0.7,0.9-1.2,1.5-1.6s1.4-0.6,2.3-0.6c0.8,0,1.6,0.2,2.2,0.5s1.1,0.9,1.5,1.5s0.5,1.4,0.5,2.1
		C159.4,242.5,159.4,242.8,159.4,243.1z M157.6,240.5c-0.3-0.4-0.6-0.7-1-0.9s-0.9-0.3-1.4-0.3c-0.7,0-1.4,0.2-1.9,0.7
		s-0.8,1.1-0.9,1.9h5.5C157.9,241.4,157.8,240.9,157.6,240.5z"/>
	<path d="M162.6,246.8c-0.5-0.2-1-0.6-1.3-1c-0.3-0.4-0.5-0.9-0.5-1.4h1.5c0,0.4,0.3,0.8,0.6,1.1s0.9,0.4,1.4,0.4
		c0.6,0,1-0.1,1.3-0.4s0.5-0.6,0.5-0.9c0-0.4-0.2-0.7-0.5-0.9s-0.9-0.4-1.6-0.6c-0.6-0.2-1.2-0.3-1.6-0.5c-0.4-0.2-0.8-0.4-1.1-0.8
		c-0.3-0.4-0.4-0.8-0.4-1.4c0-0.4,0.1-0.9,0.4-1.2c0.3-0.4,0.6-0.7,1.1-0.9s1.1-0.3,1.7-0.3c1,0,1.8,0.3,2.4,0.7s0.9,1.2,1,2h-1.5
		c0-0.5-0.2-0.8-0.6-1.1s-0.8-0.4-1.4-0.4c-0.5,0-0.9,0.1-1.3,0.3c-0.3,0.2-0.5,0.5-0.5,0.9c0,0.3,0.1,0.5,0.3,0.7s0.4,0.3,0.7,0.4
		s0.7,0.2,1.2,0.4c0.6,0.2,1.1,0.3,1.5,0.5s0.7,0.4,1,0.7c0.3,0.3,0.4,0.8,0.4,1.3c0,0.5-0.1,0.9-0.4,1.3s-0.6,0.7-1.1,0.9
		c-0.5,0.2-1,0.3-1.7,0.3C163.8,247.1,163.2,247,162.6,246.8z"/>
	<path d="M175.3,246.8c-0.5-0.2-1-0.6-1.3-1c-0.3-0.4-0.5-0.9-0.5-1.4h1.5c0,0.4,0.3,0.8,0.6,1.1s0.9,0.4,1.4,0.4
		c0.6,0,1-0.1,1.3-0.4s0.5-0.6,0.5-0.9c0-0.4-0.2-0.7-0.5-0.9s-0.9-0.4-1.6-0.6c-0.6-0.2-1.2-0.3-1.6-0.5c-0.4-0.2-0.8-0.4-1.1-0.8
		c-0.3-0.4-0.4-0.8-0.4-1.4c0-0.4,0.1-0.9,0.4-1.2c0.3-0.4,0.6-0.7,1.1-0.9s1.1-0.3,1.7-0.3c1,0,1.8,0.3,2.4,0.7s0.9,1.2,1,2h-1.5
		c0-0.5-0.2-0.8-0.6-1.1s-0.8-0.4-1.4-0.4c-0.5,0-0.9,0.1-1.3,0.3c-0.3,0.2-0.5,0.5-0.5,0.9c0,0.3,0.1,0.5,0.3,0.7s0.4,0.3,0.7,0.4
		s0.7,0.2,1.2,0.4c0.6,0.2,1.1,0.3,1.5,0.5s0.7,0.4,1,0.7c0.3,0.3,0.4,0.8,0.4,1.3c0,0.5-0.1,0.9-0.4,1.3s-0.6,0.7-1.1,0.9
		c-0.5,0.2-1,0.3-1.7,0.3C176.4,247.1,175.8,247,175.3,246.8z"/>
	<path d="M183.9,246.5c-0.7-0.4-1.2-0.9-1.6-1.6s-0.6-1.5-0.6-2.4s0.2-1.7,0.6-2.4s0.9-1.2,1.6-1.6c0.7-0.4,1.4-0.6,2.3-0.6
		s1.6,0.2,2.3,0.6c0.7,0.4,1.2,0.9,1.6,1.6s0.6,1.5,0.6,2.4c0,0.9-0.2,1.7-0.6,2.4c-0.4,0.7-0.9,1.2-1.6,1.6s-1.4,0.6-2.3,0.6
		C185.3,247.1,184.6,246.9,183.9,246.5z M187.6,245.5c0.5-0.3,0.8-0.6,1.1-1.1s0.4-1.1,0.4-1.8s-0.1-1.3-0.4-1.8
		c-0.3-0.5-0.6-0.9-1.1-1.1s-0.9-0.4-1.5-0.4c-0.5,0-1,0.1-1.5,0.4s-0.8,0.6-1.1,1.1c-0.3,0.5-0.4,1.1-0.4,1.8
		c0,0.7,0.1,1.3,0.4,1.8c0.3,0.5,0.6,0.9,1.1,1.1s0.9,0.4,1.4,0.4S187.2,245.7,187.6,245.5z"/>
	<path d="M193.9,246.8c-0.5-0.2-1-0.6-1.3-1c-0.3-0.4-0.5-0.9-0.5-1.4h1.5c0,0.4,0.3,0.8,0.6,1.1s0.9,0.4,1.4,0.4
		c0.6,0,1-0.1,1.3-0.4s0.5-0.6,0.5-0.9c0-0.4-0.2-0.7-0.5-0.9s-0.9-0.4-1.6-0.6c-0.6-0.2-1.2-0.3-1.6-0.5c-0.4-0.2-0.8-0.4-1.1-0.8
		c-0.3-0.4-0.4-0.8-0.4-1.4c0-0.4,0.1-0.9,0.4-1.2c0.3-0.4,0.6-0.7,1.1-0.9s1.1-0.3,1.7-0.3c1,0,1.8,0.3,2.4,0.7s0.9,1.2,1,2h-1.5
		c0-0.5-0.2-0.8-0.6-1.1s-0.8-0.4-1.4-0.4c-0.5,0-0.9,0.1-1.3,0.3c-0.3,0.2-0.5,0.5-0.5,0.9c0,0.3,0.1,0.5,0.3,0.7s0.4,0.3,0.7,0.4
		s0.7,0.2,1.2,0.4c0.6,0.2,1.1,0.3,1.5,0.5s0.7,0.4,1,0.7c0.3,0.3,0.4,0.8,0.4,1.3c0,0.5-0.1,0.9-0.4,1.3s-0.6,0.7-1.1,0.9
		c-0.5,0.2-1,0.3-1.7,0.3C195,247.1,194.4,247,193.9,246.8z"/>
	<path d="M203.7,238.5c0.6-0.3,1.2-0.5,2-0.5c0.8,0,1.5,0.2,2.1,0.6c0.6,0.4,1.1,0.9,1.5,1.6c0.4,0.7,0.5,1.5,0.5,2.4
		c0,0.9-0.2,1.7-0.5,2.4s-0.9,1.2-1.5,1.6c-0.6,0.4-1.3,0.6-2.1,0.6c-0.8,0-1.4-0.2-2-0.5c-0.6-0.3-1-0.8-1.3-1.3v5.8h-1.5v-12.9
		h1.5v1.6C202.7,239.3,203.1,238.9,203.7,238.5z M207.9,240.8c-0.3-0.5-0.6-0.9-1.1-1.1s-0.9-0.4-1.5-0.4c-0.5,0-1,0.1-1.5,0.4
		s-0.8,0.6-1.1,1.1c-0.3,0.5-0.4,1.1-0.4,1.7c0,0.7,0.1,1.2,0.4,1.7s0.6,0.9,1.1,1.1c0.4,0.3,0.9,0.4,1.5,0.4c0.5,0,1-0.1,1.5-0.4
		c0.4-0.3,0.8-0.6,1.1-1.1s0.4-1.1,0.4-1.8C208.3,241.9,208.2,241.3,207.9,240.8z"/>
	<path d="M219.7,243.1h-7c0.1,0.9,0.4,1.5,0.9,2c0.5,0.5,1.2,0.7,2,0.7c0.6,0,1.1-0.1,1.6-0.4c0.4-0.3,0.7-0.7,0.9-1.2h1.6
		c-0.2,0.8-0.7,1.5-1.4,2.1c-0.7,0.5-1.6,0.8-2.6,0.8c-0.8,0-1.6-0.2-2.2-0.6s-1.2-0.9-1.5-1.6s-0.6-1.5-0.6-2.4
		c0-0.9,0.2-1.7,0.5-2.4c0.4-0.7,0.9-1.2,1.5-1.6s1.4-0.6,2.3-0.6c0.8,0,1.6,0.2,2.2,0.5s1.1,0.9,1.5,1.5s0.5,1.4,0.5,2.1
		C219.7,242.5,219.7,242.8,219.7,243.1z M217.9,240.5c-0.3-0.4-0.6-0.7-1-0.9s-0.9-0.3-1.4-0.3c-0.7,0-1.4,0.2-1.9,0.7
		s-0.8,1.1-0.9,1.9h5.5C218.2,241.4,218.1,240.9,217.9,240.5z"/>
	<path d="M221.7,240.2c0.4-0.7,0.9-1.2,1.5-1.6c0.6-0.4,1.4-0.6,2.2-0.6c1.1,0,2,0.3,2.7,0.8s1.2,1.3,1.4,2.2h-1.6
		c-0.1-0.5-0.4-0.9-0.9-1.3s-1-0.5-1.6-0.5c-0.8,0-1.5,0.3-2,0.9c-0.5,0.6-0.8,1.4-0.8,2.4c0,1.1,0.3,1.9,0.8,2.4
		c0.5,0.6,1.2,0.9,2,0.9c0.6,0,1.2-0.1,1.6-0.4s0.7-0.7,0.9-1.3h1.6c-0.2,0.9-0.7,1.6-1.4,2.1c-0.7,0.5-1.6,0.8-2.6,0.8
		c-0.8,0-1.6-0.2-2.2-0.6s-1.1-0.9-1.5-1.6c-0.4-0.7-0.5-1.5-0.5-2.4C221.1,241.6,221.3,240.9,221.7,240.2z"/>
	<path d="M237.5,238.5c0.5,0.3,0.9,0.7,1.3,1.3c0.3,0.6,0.5,1.3,0.5,2.1v5.2h-1.4v-5c0-0.9-0.2-1.5-0.7-2s-1-0.7-1.8-0.7
		c-0.8,0-1.4,0.2-1.8,0.7s-0.7,1.2-0.7,2.1v4.9h-1.5v-11.8h1.5v4.3c0.3-0.4,0.7-0.8,1.2-1c0.5-0.3,1.1-0.4,1.7-0.4
		C236.4,238,237,238.2,237.5,238.5z"/>
	<path d="M243.2,246.5c-0.7-0.4-1.2-0.9-1.6-1.6s-0.6-1.5-0.6-2.4s0.2-1.7,0.6-2.4s0.9-1.2,1.6-1.6c0.7-0.4,1.4-0.6,2.3-0.6
		s1.6,0.2,2.3,0.6c0.7,0.4,1.2,0.9,1.6,1.6s0.6,1.5,0.6,2.4c0,0.9-0.2,1.7-0.6,2.4c-0.4,0.7-0.9,1.2-1.6,1.6s-1.4,0.6-2.3,0.6
		C244.6,247.1,243.9,246.9,243.2,246.5z M246.9,245.5c0.5-0.3,0.8-0.6,1.1-1.1s0.4-1.1,0.4-1.8s-0.1-1.3-0.4-1.8
		c-0.3-0.5-0.6-0.9-1.1-1.1s-0.9-0.4-1.5-0.4c-0.5,0-1,0.1-1.5,0.4s-0.8,0.6-1.1,1.1c-0.3,0.5-0.4,1.1-0.4,1.8
		c0,0.7,0.1,1.3,0.4,1.8c0.3,0.5,0.6,0.9,1.1,1.1s0.9,0.4,1.4,0.4S246.4,245.7,246.9,245.5z"/>
	<path d="M253.1,246.8c-0.5-0.2-1-0.6-1.3-1c-0.3-0.4-0.5-0.9-0.5-1.4h1.5c0,0.4,0.3,0.8,0.6,1.1s0.9,0.4,1.4,0.4
		c0.6,0,1-0.1,1.3-0.4s0.5-0.6,0.5-0.9c0-0.4-0.2-0.7-0.5-0.9s-0.9-0.4-1.6-0.6c-0.6-0.2-1.2-0.3-1.6-0.5c-0.4-0.2-0.8-0.4-1.1-0.8
		c-0.3-0.4-0.4-0.8-0.4-1.4c0-0.4,0.1-0.9,0.4-1.2c0.3-0.4,0.6-0.7,1.1-0.9s1.1-0.3,1.7-0.3c1,0,1.8,0.3,2.4,0.7s0.9,1.2,1,2h-1.5
		c0-0.5-0.2-0.8-0.5-1.1s-0.8-0.4-1.4-0.4c-0.5,0-0.9,0.1-1.3,0.3c-0.3,0.2-0.5,0.5-0.5,0.9c0,0.3,0.1,0.5,0.3,0.7s0.4,0.3,0.7,0.4
		s0.7,0.2,1.2,0.4c0.6,0.2,1.1,0.3,1.5,0.5s0.7,0.4,1,0.7c0.3,0.3,0.4,0.8,0.4,1.3c0,0.5-0.1,0.9-0.4,1.3s-0.6,0.7-1.1,0.9
		c-0.5,0.2-1,0.3-1.7,0.3C254.3,247.1,253.7,247,253.1,246.8z"/>
	<path d="M261.8,246.5c-0.7-0.4-1.2-0.9-1.6-1.6s-0.6-1.5-0.6-2.4s0.2-1.7,0.6-2.4c0.4-0.7,0.9-1.2,1.6-1.6c0.7-0.4,1.4-0.6,2.3-0.6
		s1.6,0.2,2.3,0.6c0.7,0.4,1.2,0.9,1.6,1.6s0.6,1.5,0.6,2.4c0,0.9-0.2,1.7-0.6,2.4s-0.9,1.2-1.6,1.6s-1.4,0.6-2.3,0.6
		C263.2,247.1,262.5,246.9,261.8,246.5z M265.5,245.5c0.5-0.3,0.8-0.6,1.1-1.1s0.4-1.1,0.4-1.8s-0.1-1.3-0.4-1.8
		c-0.3-0.5-0.6-0.9-1.1-1.1c-0.5-0.2-0.9-0.4-1.5-0.4s-1,0.1-1.5,0.4s-0.8,0.6-1.1,1.1c-0.3,0.5-0.4,1.1-0.4,1.8
		c0,0.7,0.1,1.3,0.4,1.8c0.3,0.5,0.6,0.9,1,1.1s0.9,0.4,1.4,0.4S265,245.7,265.5,245.5z"/>
	<path d="M271.7,246.8c-0.5-0.2-1-0.6-1.3-1c-0.3-0.4-0.5-0.9-0.5-1.4h1.5c0,0.4,0.3,0.8,0.6,1.1s0.9,0.4,1.5,0.4
		c0.5,0,1-0.1,1.3-0.4s0.5-0.6,0.5-0.9c0-0.4-0.2-0.7-0.5-0.9s-0.9-0.4-1.6-0.6c-0.6-0.2-1.2-0.3-1.6-0.5c-0.4-0.2-0.8-0.4-1.1-0.8
		c-0.3-0.4-0.4-0.8-0.4-1.4c0-0.4,0.1-0.9,0.4-1.2s0.6-0.7,1.1-0.9s1-0.3,1.7-0.3c1,0,1.8,0.3,2.4,0.7s0.9,1.2,1,2h-1.5
		c0-0.5-0.2-0.8-0.5-1.1s-0.8-0.4-1.4-0.4c-0.5,0-0.9,0.1-1.3,0.3c-0.3,0.2-0.5,0.5-0.5,0.9c0,0.3,0.1,0.5,0.3,0.7s0.4,0.3,0.7,0.4
		s0.7,0.2,1.2,0.4c0.6,0.2,1.1,0.3,1.5,0.5s0.7,0.4,1,0.7c0.3,0.3,0.4,0.8,0.4,1.3c0,0.5-0.1,0.9-0.4,1.3s-0.6,0.7-1.1,0.9
		c-0.5,0.2-1,0.3-1.7,0.3C272.9,247.1,272.3,247,271.7,246.8z"/>
	<path d="M283.1,240.2c0.4-0.7,0.9-1.2,1.5-1.6c0.6-0.4,1.4-0.6,2.1-0.6c0.7,0,1.3,0.2,1.9,0.5c0.6,0.3,1,0.7,1.3,1.2v-4.6h1.5v11.8
		H290v-1.6c-0.3,0.5-0.7,0.9-1.3,1.3s-1.2,0.5-2,0.5c-0.8,0-1.5-0.2-2.1-0.6c-0.6-0.4-1.1-0.9-1.5-1.6c-0.4-0.7-0.5-1.5-0.5-2.4
		C282.5,241.6,282.7,240.9,283.1,240.2z M289.5,240.8c-0.3-0.5-0.6-0.9-1.1-1.1s-1-0.4-1.5-0.4s-1,0.1-1.5,0.4
		c-0.5,0.3-0.8,0.6-1.1,1.1c-0.3,0.5-0.4,1.1-0.4,1.7c0,0.7,0.1,1.3,0.4,1.8s0.6,0.9,1.1,1.1s0.9,0.4,1.5,0.4s1-0.1,1.5-0.4
		c0.5-0.3,0.8-0.6,1.1-1.1s0.4-1.1,0.4-1.7C290,241.9,289.8,241.3,289.5,240.8z"/>
	<path d="M301.8,243.1h-7c0,0.9,0.4,1.5,0.9,2c0.5,0.5,1.2,0.7,2,0.7c0.6,0,1.1-0.1,1.6-0.4c0.4-0.3,0.7-0.7,0.9-1.2h1.6
		c-0.2,0.8-0.7,1.5-1.4,2.1c-0.7,0.5-1.6,0.8-2.6,0.8c-0.8,0-1.6-0.2-2.2-0.6s-1.2-0.9-1.5-1.6s-0.6-1.5-0.6-2.4
		c0-0.9,0.2-1.7,0.5-2.4c0.4-0.7,0.9-1.2,1.5-1.6s1.4-0.6,2.3-0.6c0.8,0,1.6,0.2,2.2,0.5c0.6,0.4,1.1,0.9,1.5,1.5s0.5,1.4,0.5,2.1
		C301.9,242.5,301.9,242.8,301.8,243.1z M300,240.5c-0.3-0.4-0.6-0.7-1-0.9s-0.9-0.3-1.4-0.3c-0.7,0-1.4,0.2-1.9,0.7
		c-0.5,0.5-0.8,1.1-0.9,1.9h5.5C300.4,241.4,300.3,240.9,300,240.5z"/>
	<path d="M320.4,238.5c0.5,0.3,1,0.7,1.3,1.3c0.3,0.6,0.5,1.3,0.5,2.1v5.2h-1.4v-5c0-0.9-0.2-1.5-0.6-2c-0.4-0.5-1-0.7-1.8-0.7
		c-0.8,0-1.4,0.2-1.8,0.7c-0.5,0.5-0.7,1.2-0.7,2.1v4.8h-1.4v-5c0-0.9-0.2-1.5-0.6-2s-1-0.7-1.8-0.7c-0.8,0-1.4,0.2-1.8,0.7
		c-0.5,0.5-0.7,1.2-0.7,2.1v4.8h-1.5v-8.8h1.5v1.3c0.3-0.5,0.7-0.8,1.2-1.1s1-0.4,1.6-0.4c0.7,0,1.4,0.2,2,0.5
		c0.6,0.3,1,0.8,1.3,1.5c0.3-0.6,0.6-1.1,1.2-1.4s1.2-0.5,1.9-0.5C319.3,238,319.9,238.2,320.4,238.5z"/>
	<path d="M324.5,240.2c0.4-0.7,0.9-1.2,1.5-1.6c0.6-0.4,1.3-0.6,2.1-0.6c0.8,0,1.4,0.2,2,0.5s1,0.8,1.3,1.3v-1.6h1.5v8.8h-1.5v-1.6
		c-0.3,0.5-0.7,0.9-1.3,1.3c-0.6,0.3-1.2,0.5-2,0.5c-0.8,0-1.5-0.2-2.1-0.6c-0.6-0.4-1.1-0.9-1.5-1.6c-0.4-0.7-0.5-1.5-0.5-2.4
		C324,241.6,324.2,240.9,324.5,240.2z M331,240.8c-0.3-0.5-0.6-0.9-1.1-1.1s-1-0.4-1.5-0.4s-1,0.1-1.5,0.4c-0.5,0.3-0.8,0.6-1.1,1.1
		c-0.3,0.5-0.4,1.1-0.4,1.7c0,0.7,0.1,1.3,0.4,1.8s0.6,0.9,1.1,1.1s0.9,0.4,1.5,0.4s1-0.1,1.5-0.4c0.5-0.3,0.8-0.6,1.1-1.1
		s0.4-1.1,0.4-1.7C331.4,241.9,331.3,241.3,331,240.8z"/>
	<path d="M336.8,235.1V247h-1.5v-11.8H336.8z"/>
	<path d="M339.4,236.5c-0.2-0.2-0.3-0.4-0.3-0.7s0.1-0.5,0.3-0.7s0.4-0.3,0.7-0.3c0.3,0,0.5,0.1,0.7,0.3c0.2,0.2,0.3,0.4,0.3,0.7
		s-0.1,0.5-0.3,0.7s-0.4,0.3-0.7,0.3C339.8,236.8,339.5,236.7,339.4,236.5z M340.8,238.2v8.8h-1.5v-8.8H340.8z"/>
	<path d="M348.9,238.5c0.6,0.3,1,0.8,1.3,1.3v-1.6h1.5v9c0,0.8-0.2,1.5-0.5,2.1c-0.3,0.6-0.8,1.1-1.5,1.5s-1.4,0.5-2.2,0.5
		c-1.1,0-2.1-0.3-2.9-0.8c-0.8-0.5-1.2-1.3-1.4-2.2h1.4c0.2,0.5,0.5,1,1,1.3c0.5,0.3,1.1,0.5,1.8,0.5c0.8,0,1.5-0.3,2-0.8
		c0.5-0.5,0.8-1.2,0.8-2.1v-1.8c-0.3,0.5-0.7,0.9-1.3,1.3s-1.2,0.5-2,0.5c-0.8,0-1.5-0.2-2.1-0.6c-0.6-0.4-1.1-0.9-1.5-1.6
		c-0.4-0.7-0.5-1.5-0.5-2.4c0-0.9,0.2-1.7,0.5-2.4c0.4-0.7,0.9-1.2,1.5-1.6c0.6-0.4,1.3-0.6,2.1-0.6
		C347.6,238,348.3,238.2,348.9,238.5z M349.7,240.8c-0.3-0.5-0.6-0.9-1.1-1.1s-1-0.4-1.5-0.4s-1,0.1-1.5,0.4
		c-0.5,0.3-0.8,0.6-1.1,1.1c-0.3,0.5-0.4,1.1-0.4,1.7c0,0.7,0.1,1.3,0.4,1.8s0.6,0.9,1.1,1.1s0.9,0.4,1.5,0.4s1-0.1,1.5-0.4
		c0.5-0.3,0.8-0.6,1.1-1.1s0.4-1.1,0.4-1.7C350.1,241.9,350,241.3,349.7,240.8z"/>
	<path d="M360.9,239c0.7,0.6,1,1.6,1,2.8v5.2h-1.4v-5c0-0.9-0.2-1.5-0.7-2s-1-0.7-1.8-0.7c-0.8,0-1.4,0.2-1.8,0.7
		c-0.5,0.5-0.7,1.2-0.7,2.1v4.9h-1.5v-8.8h1.5v1.3c0.3-0.4,0.7-0.8,1.2-1s1-0.4,1.6-0.4C359.4,238,360.3,238.3,360.9,239z"/>
	<path d="M364.4,236.5c-0.2-0.2-0.3-0.4-0.3-0.7s0.1-0.5,0.3-0.7s0.4-0.3,0.7-0.3c0.3,0,0.5,0.1,0.7,0.3c0.2,0.2,0.3,0.4,0.3,0.7
		s-0.1,0.5-0.3,0.7s-0.4,0.3-0.7,0.3C364.8,236.8,364.5,236.7,364.4,236.5z M365.8,238.2v8.8h-1.5v-8.8H365.8z"/>
	<path d="M368.2,240.2c0.4-0.7,0.9-1.2,1.5-1.6c0.6-0.4,1.4-0.6,2.1-0.6c0.7,0,1.3,0.2,1.9,0.5c0.6,0.3,1,0.7,1.3,1.2v-4.6h1.5v11.8
		h-1.5v-1.6c-0.3,0.5-0.7,0.9-1.3,1.3s-1.2,0.5-2,0.5c-0.8,0-1.5-0.2-2.1-0.6c-0.6-0.4-1.1-0.9-1.5-1.6c-0.4-0.7-0.5-1.5-0.5-2.4
		C367.7,241.6,367.9,240.9,368.2,240.2z M374.7,240.8c-0.3-0.5-0.6-0.9-1.1-1.1s-1-0.4-1.5-0.4s-1,0.1-1.5,0.4
		c-0.5,0.3-0.8,0.6-1.1,1.1c-0.3,0.5-0.4,1.1-0.4,1.7c0,0.7,0.1,1.3,0.4,1.8s0.6,0.9,1.1,1.1s0.9,0.4,1.5,0.4s1-0.1,1.5-0.4
		c0.5-0.3,0.8-0.6,1.1-1.1s0.4-1.1,0.4-1.7C375.1,241.9,375,241.3,374.7,240.8z"/>
	<path d="M379,240.2c0.4-0.7,0.9-1.2,1.5-1.6c0.6-0.4,1.3-0.6,2.1-0.6c0.8,0,1.4,0.2,2,0.5s1,0.8,1.3,1.3v-1.6h1.5v8.8h-1.5v-1.6
		c-0.3,0.5-0.7,0.9-1.3,1.3c-0.6,0.3-1.2,0.5-2,0.5c-0.8,0-1.5-0.2-2.1-0.6c-0.6-0.4-1.1-0.9-1.5-1.6c-0.4-0.7-0.5-1.5-0.5-2.4
		C378.5,241.6,378.7,240.9,379,240.2z M385.5,240.8c-0.3-0.5-0.6-0.9-1.1-1.1s-1-0.4-1.5-0.4s-1,0.1-1.5,0.4
		c-0.5,0.3-0.8,0.6-1.1,1.1c-0.3,0.5-0.4,1.1-0.4,1.7c0,0.7,0.1,1.3,0.4,1.8s0.6,0.9,1.1,1.1s0.9,0.4,1.5,0.4s1-0.1,1.5-0.4
		c0.5-0.3,0.8-0.6,1.1-1.1s0.4-1.1,0.4-1.7C385.9,241.9,385.8,241.3,385.5,240.8z"/>
	<path d="M389.9,240.2c0.4-0.7,0.9-1.2,1.5-1.6c0.6-0.4,1.4-0.6,2.1-0.6c0.7,0,1.3,0.2,1.9,0.5c0.6,0.3,1,0.7,1.3,1.2v-4.6h1.5v11.8
		h-1.5v-1.6c-0.3,0.5-0.7,0.9-1.3,1.3s-1.2,0.5-2,0.5c-0.8,0-1.5-0.2-2.1-0.6c-0.6-0.4-1.1-0.9-1.5-1.6c-0.4-0.7-0.5-1.5-0.5-2.4
		C389.3,241.6,389.5,240.9,389.9,240.2z M396.4,240.8c-0.3-0.5-0.6-0.9-1.1-1.1s-1-0.4-1.5-0.4s-1,0.1-1.5,0.4
		c-0.5,0.3-0.8,0.6-1.1,1.1c-0.3,0.5-0.4,1.1-0.4,1.7c0,0.7,0.1,1.3,0.4,1.8s0.6,0.9,1.1,1.1s0.9,0.4,1.5,0.4s1-0.1,1.5-0.4
		c0.5-0.3,0.8-0.6,1.1-1.1s0.4-1.1,0.4-1.7C396.8,241.9,396.6,241.3,396.4,240.8z"/>
</g>
<g>
	<path class="st2" d="M258.5,50c-0.4-0.9-1.5-1.3-2.4-1c-3.8,1.6-13.8,5.2-24.4,5.2s-20.6-3.6-24.4-5.2c-0.9-0.4-2,0-2.4,1l-16.5,36
		c-0.9,2,0,4.3,1.9,5.1c6.1,2.7,20.1,7.6,41.4,7.6s35.3-4.9,41.4-7.6c2-0.9,2.8-3.2,1.9-5.1L258.5,50z"/>
	<g>
		<g>
			<path class="st3" d="M174.7,107.8c-0.6,0-1-0.4-1-1v-75c0-0.5,0.4-1,1-1s1,0.5,1,1v75C175.7,107.3,175.2,107.8,174.7,107.8z"/>
		</g>
		<g>
			<path class="st3" d="M180.8,107.8h-6.1c-0.6,0-1-0.4-1-1s0.4-1,1-1h6.1c0.6,0,1,0.4,1,1S181.4,107.8,180.8,107.8z"/>
		</g>
		<g>
			<path class="st3" d="M183.6,97h-8.9c-0.6,0-1-0.4-1-1s0.4-1,1-1h8.9c0.6,0,1,0.4,1,1S184.1,97,183.6,97z"/>
		</g>
		<g>
			<path class="st3" d="M180.8,86.3h-6.1c-0.6,0-1-0.4-1-1s0.4-1,1-1h6.1c0.6,0,1,0.4,1,1S181.4,86.3,180.8,86.3z"/>
		</g>
		<g>
			<path class="st3" d="M183.6,75.5h-8.9c-0.6,0-1-0.4-1-1s0.4-1,1-1h8.9c0.6,0,1,0.4,1,1S184.1,75.5,183.6,75.5z"/>
		</g>
		<g>
			<path class="st3" d="M180.8,64.8h-6.1c-0.6,0-1-0.4-1-1c0-0.6,0.4-1,1-1h6.1c0.6,0,1,0.5,1,1S181.4,64.8,180.8,64.8z"/>
		</g>
		<g>
			<path class="st3" d="M183.6,54h-8.9c-0.6,0-1-0.5-1-1s0.4-1,1-1h8.9c0.6,0,1,0.5,1,1S184.1,54,183.6,54z"/>
		</g>
		<g>
			<path class="st3" d="M180.8,43.3h-6.1c-0.6,0-1-0.5-1-1s0.4-1,1-1h6.1c0.6,0,1,0.5,1,1S181.4,43.3,180.8,43.3z"/>
		</g>
		<g>
			<path class="st3" d="M271.2,32.8h-96.5c-0.6,0-1-0.5-1-1s0.4-1,1-1h96.5c0.5,0,1,0.5,1,1S271.7,32.8,271.2,32.8z"/>
		</g>
		<g>
			<path class="st3" d="M249.7,38.9c-0.6,0-1-0.5-1-1v-6.1c0-0.5,0.4-1,1-1s1,0.5,1,1v6.1C250.7,38.4,250.2,38.9,249.7,38.9z"/>
		</g>
		<g>
			<path class="st3" d="M271.2,38.9c-0.5,0-1-0.5-1-1v-6.1c0-0.5,0.5-1,1-1s1,0.5,1,1v6.1C272.2,38.4,271.7,38.9,271.2,38.9z"/>
		</g>
		<g>
			<path class="st3" d="M238.9,41.7c-0.6,0-1-0.5-1-1v-8.9c0-0.5,0.4-1,1-1s1,0.5,1,1v8.9C239.9,41.2,239.5,41.7,238.9,41.7z"/>
		</g>
		<g>
			<path class="st3" d="M260.4,41.7c-0.5,0-1-0.5-1-1v-8.9c0-0.5,0.5-1,1-1s1,0.5,1,1v8.9C261.4,41.2,261,41.7,260.4,41.7z"/>
		</g>
		<g>
			<path class="st3" d="M228.2,38.9c-0.6,0-1-0.5-1-1v-6.1c0-0.5,0.4-1,1-1s1,0.5,1,1v6.1C229.2,38.4,228.8,38.9,228.2,38.9z"/>
		</g>
		<g>
			<path class="st3" d="M217.4,41.7c-0.6,0-1-0.5-1-1v-8.9c0-0.5,0.4-1,1-1s1,0.5,1,1v8.9C218.4,41.2,218,41.7,217.4,41.7z"/>
		</g>
		<g>
			<path class="st3" d="M206.7,38.9c-0.6,0-1-0.5-1-1v-6.1c0-0.5,0.4-1,1-1s1,0.5,1,1v6.1C207.7,38.4,207.3,38.9,206.7,38.9z"/>
		</g>
		<g>
			<path class="st3" d="M195.9,41.7c-0.6,0-1-0.5-1-1v-8.9c0-0.5,0.4-1,1-1s1,0.5,1,1v8.9C196.9,41.2,196.5,41.7,195.9,41.7z"/>
		</g>
		<g>
			<path class="st3" d="M185.2,38.9c-0.6,0-1-0.5-1-1v-6.1c0-0.5,0.4-1,1-1s1,0.5,1,1v6.1C186.2,38.4,185.8,38.9,185.2,38.9z"/>
		</g>
		<g>
			<g>
				<path class="st3" d="M275.3,107.8h-18.8c-0.6,0-1-0.4-1-1s0.4-1,1-1h18.8c0.5,0,1,0.4,1,1S275.9,107.8,275.3,107.8z"/>
			</g>
			<g>
				<path class="st3" d="M275.3,102.3h-11.5c-0.5,0-1-0.4-1-1s0.5-1,1-1h11.5c0.5,0,1,0.4,1,1S275.9,102.3,275.3,102.3z"/>
			</g>
		</g>
	</g>
	<g>
		<circle class="st4" cx="228.1" cy="80" r="10.6"/>
		<circle class="st4" cx="240.9" cy="67.2" r="4.8"/>
	</g>
</g>
</svg>
