<?xml version="1.0" encoding="utf-8"?>
<!-- Generator: Adobe Illustrator 24.1.1, SVG Export Plug-In . SVG Version: 6.00 Build 0)  -->
<svg version="1.1" id="Capa_1" xmlns="http://www.w3.org/2000/svg" xmlns:xlink="http://www.w3.org/1999/xlink" x="0px" y="0px"
	 viewBox="0 0 265.3 362" style="enable-background:new 0 0 265.3 362;" xml:space="preserve">
<style type="text/css">
	.st0{fill:#FFFFFF;}
	.st1{fill:#007CC3;}
	.st2{fill:#808080;}
	.st3{fill:#F5A4C7;}
	.st4{fill:#F4C6DE;}
	.st5{fill:#F173AC;}
</style>
<g>
	<rect x="0" y="0" transform="matrix(-1 4.591826e-11 -4.591826e-11 -1 265.25 361.97)" class="st0" width="265.3" height="362"/>
	<g>
		<g>
			<g>
				<path class="st1" d="M95.3,159.4l3.1,0.3v0.9c0,2.9-2.2,5-5.1,5h-1.2c-2.9,0-5.1-2.2-5.1-5v-7.9c0-2.9,2.2-5,5.1-5h1.2
					c2.9,0,5.1,2.2,5.1,5v0.9l-3.1,0.3v-1.2c0-1.2-0.8-2-2-2h-1.1c-1.2,0-2,0.9-2,2v7.9c0,1.2,0.8,2,2,2h1.1c1.2,0,2-0.9,2-2V159.4z
					"/>
				<path class="st1" d="M111.1,161.1c0,2.6-1.9,4.6-4.6,4.6h-0.8c-2.7,0-4.6-1.9-4.6-4.6v-4c0-2.6,1.9-4.6,4.6-4.6h0.8
					c2.7,0,4.6,2,4.6,4.6V161.1z M108,156.9c0-0.8-0.7-1.5-1.5-1.5h-0.8c-0.8,0-1.5,0.7-1.5,1.5v4.2c0,0.8,0.7,1.5,1.5,1.5h0.8
					c0.8,0,1.5-0.7,1.5-1.5V156.9z"/>
				<path class="st1" d="M116.4,154.1c0.8-1,1.9-1.7,3.2-1.7h0.1c2.8,0,4.3,1.6,4.3,4.6v8.4h-3.1v-8.5c0-0.9-0.6-1.5-1.5-1.5h-0.8
					c-0.9,0-1.5,0.6-1.5,1.5v8.5h-3.1v-12.7h1.4L116.4,154.1z"/>
				<path class="st1" d="M136.8,161.9c0,2.2-1.9,3.8-4.5,3.8h-0.8c-2.7,0-4.6-1.8-4.6-4.3v-0.1l3.1-0.3v0.5c0,0.8,0.5,1.3,1.4,1.3
					h1.1c0.7,0,1.2-0.4,1.2-1c0-2.3-6.6-0.3-6.6-5.5c0-2.2,1.9-3.8,4.5-3.8h0.5c2.6,0,4.6,1.8,4.6,4.3v0.1l-3.1,0.3v-0.5
					c0-0.8-0.6-1.3-1.4-1.3h-0.8c-0.7,0-1.2,0.4-1.2,1C130.1,158.6,136.8,156.7,136.8,161.9z"/>
				<path class="st1" d="M147.1,164c-0.8,1.1-1.9,1.7-3.2,1.7h-0.1c-2.8,0-4.3-1.6-4.3-4.6v-8.4h3.1v8.5c0,0.9,0.6,1.5,1.5,1.5h0.8
					c0.9,0,1.5-0.6,1.5-1.5v-8.5h3.1v12.7H148L147.1,164z"/>
				<path class="st1" d="M152.7,165.4v-17.5h3.1v17.5H152.7z"/>
				<path class="st1" d="M164.1,165.4c-2.7,0-4.1-1.4-4.1-4.1v-5.7h-2.2v-2.9h2.2v-3l3.1-0.5v3.5h2.9v2.9h-2.9v5.6
					c0,0.8,0.4,1.3,1.3,1.3h1.7v3H164.1z"/>
				<path class="st1" d="M176.1,164.1c-0.7,1-1.9,1.6-3.4,1.6h0c-2.6,0-4.1-1.5-4.1-3.6v-0.5c0-2.1,1.5-3.5,4.1-3.5h2.7v-1.3
					c0-0.7-0.7-1.3-1.5-1.3h-0.6c-0.8,0-1.5,0.6-1.5,1.3v0.5l-3.1-0.3v-0.1c0-2.5,1.9-4.4,4.6-4.4h0.6c2.7,0,4.6,1.9,4.6,4.4v8.6
					H177L176.1,164.1z M171.6,161.6c0,0.7,0.5,1.2,1.3,1.2h1.1c0.7,0,1.3-0.5,1.3-1.2v-1.3h-2.4
					C172.1,160.4,171.6,160.9,171.6,161.6L171.6,161.6z"/>
				<path class="st1" d="M68.6,190.8l3.1,0.3v0c0,2.6-1.9,4.6-4.6,4.6h-0.8c-2.7,0-4.6-1.9-4.6-4.6v-4c0-2.6,1.9-4.6,4.6-4.6h0.8
					c2.7,0,4.6,2,4.6,4.6v2.6h-6.8v1.5c0,0.8,0.7,1.5,1.5,1.5h0.8c0.8,0,1.5-0.7,1.5-1.5V190.8z M64.9,187.7h3.8v-0.8
					c0-0.8-0.7-1.5-1.5-1.5h-0.8c-0.8,0-1.5,0.7-1.5,1.5V187.7z"/>
				<path class="st1" d="M84.3,191.9c0,2.2-1.9,3.8-4.5,3.8h-0.8c-2.7,0-4.6-1.8-4.6-4.3v-0.1l3.1-0.3v0.5c0,0.8,0.5,1.3,1.4,1.3H80
					c0.7,0,1.2-0.4,1.2-1c0-2.3-6.6-0.3-6.6-5.5c0-2.2,1.9-3.8,4.5-3.8h0.5c2.6,0,4.6,1.8,4.6,4.3v0.1l-3.1,0.3v-0.5
					c0-0.8-0.6-1.3-1.4-1.3h-0.8c-0.7,0-1.2,0.4-1.2,1C77.7,188.6,84.3,186.7,84.3,191.9z"/>
				<path class="st1" d="M89.5,184.1c0.8-1,1.9-1.7,3.2-1.7h0.1c2.8,0,4.3,1.6,4.3,4.6v4.1c0,2.9-1.5,4.6-4.3,4.6h-0.1
					c-1,0-1.8-0.3-2.5-0.9v5.6h-3.1v-17.7h1.4L89.5,184.1z M90.3,191.2c0,0.9,0.6,1.5,1.5,1.5h0.8c0.9,0,1.5-0.6,1.5-1.5v-4.3
					c0-0.9-0.6-1.5-1.5-1.5h-0.8c-0.9,0-1.5,0.6-1.5,1.5V191.2z"/>
				<path class="st1" d="M106.7,190.8l3.1,0.3v0c0,2.6-1.9,4.6-4.6,4.6h-0.8c-2.7,0-4.6-1.9-4.6-4.6v-4c0-2.6,1.9-4.6,4.6-4.6h0.8
					c2.7,0,4.6,2,4.6,4.6v2.6H103v1.5c0,0.8,0.7,1.5,1.5,1.5h0.8c0.8,0,1.5-0.7,1.5-1.5V190.8z M103,187.7h3.8v-0.8
					c0-0.8-0.7-1.5-1.5-1.5h-0.8c-0.8,0-1.5,0.7-1.5,1.5V187.7z"/>
				<path class="st1" d="M119.4,190.6l3.1,0.3v0.2c0,2.6-1.9,4.6-4.6,4.6h-0.8c-2.7,0-4.6-1.9-4.6-4.6v-4c0-2.6,1.9-4.6,4.6-4.6h0.8
					c2.7,0,4.6,2,4.6,4.6v0.2l-3.1,0.3v-0.6c0-0.8-0.7-1.5-1.5-1.5h-0.8c-0.8,0-1.5,0.7-1.5,1.5v4.2c0,0.8,0.7,1.5,1.5,1.5h0.8
					c0.8,0,1.5-0.7,1.5-1.5V190.6z"/>
				<path class="st1" d="M125.5,177.9h3.1v2.6h-3.1V177.9z M125.5,195.4v-12.7h3.1v12.7H125.5z"/>
				<path class="st1" d="M139.1,194.1c-0.7,1-1.9,1.6-3.4,1.6h0c-2.6,0-4.1-1.5-4.1-3.6v-0.5c0-2.1,1.5-3.5,4.1-3.5h2.7v-1.3
					c0-0.7-0.7-1.3-1.5-1.3h-0.6c-0.8,0-1.5,0.6-1.5,1.3v0.5l-3.1-0.3v-0.1c0-2.5,1.9-4.4,4.6-4.4h0.6c2.7,0,4.6,1.9,4.6,4.4v8.6
					H140L139.1,194.1z M134.6,191.6c0,0.7,0.5,1.2,1.3,1.2h1.1c0.7,0,1.3-0.5,1.3-1.2v-1.3h-2.4
					C135.2,190.4,134.6,190.9,134.6,191.6L134.6,191.6z"/>
				<path class="st1" d="M144.6,195.4v-17.5h3.1v17.5H144.6z"/>
				<path class="st1" d="M150.9,177.9h3.1v2.6h-3.1V177.9z M150.9,195.4v-12.7h3.1v12.7H150.9z"/>
				<path class="st1" d="M161.7,185.6h-5v-2.9h8.8v2.5l-5.2,7.3h5.2v2.9h-9.1v-2.5L161.7,185.6z"/>
				<path class="st1" d="M175.4,194.1c-0.7,1-1.9,1.6-3.4,1.6h0c-2.6,0-4.1-1.5-4.1-3.6v-0.5c0-2.1,1.5-3.5,4.1-3.5h2.7v-1.3
					c0-0.7-0.7-1.3-1.5-1.3h-0.6c-0.8,0-1.5,0.6-1.5,1.3v0.5l-3.1-0.3v-0.1c0-2.5,1.9-4.4,4.6-4.4h0.6c2.7,0,4.6,1.9,4.6,4.4v8.6
					h-1.4L175.4,194.1z M170.9,191.6c0,0.7,0.5,1.2,1.3,1.2h1.1c0.7,0,1.3-0.5,1.3-1.2v-1.3h-2.4
					C171.4,190.4,170.9,190.9,170.9,191.6L170.9,191.6z"/>
				<path class="st1" d="M188.1,194c-0.8,1.1-1.9,1.7-3.2,1.7h-0.1c-2.8,0-4.3-1.6-4.3-4.6V187c0-2.9,1.5-4.6,4.3-4.6h0.1
					c0.9,0,1.7,0.3,2.5,0.9v-5.4h3.1v17.5H189L188.1,194z M187.4,186.9c0-0.9-0.6-1.5-1.5-1.5h-0.8c-0.9,0-1.5,0.6-1.5,1.5v4.3
					c0,0.9,0.6,1.5,1.5,1.5h0.8c0.9,0,1.5-0.6,1.5-1.5V186.9z"/>
				<path class="st1" d="M201,194.1c-0.7,1-1.9,1.6-3.4,1.6h0c-2.6,0-4.1-1.5-4.1-3.6v-0.5c0-2.1,1.5-3.5,4.1-3.5h2.7v-1.3
					c0-0.7-0.7-1.3-1.5-1.3h-0.6c-0.8,0-1.5,0.6-1.5,1.3v0.5l-3.1-0.3v-0.1c0-2.5,1.9-4.4,4.6-4.4h0.6c2.7,0,4.6,1.9,4.6,4.4v8.6
					h-1.4L201,194.1z M196.6,191.6c0,0.7,0.5,1.2,1.3,1.2h1.1c0.7,0,1.3-0.5,1.3-1.2v-1.3h-2.4C197.1,190.4,196.6,190.9,196.6,191.6
					L196.6,191.6z"/>
				<path class="st2" d="M35.5,238.6h-1.5l-5.9-8.9v8.9h-1.5v-11.2h1.5l5.9,8.9v-8.9h1.5V238.6z"/>
				<path class="st2" d="M45.8,229.9v8.8h-1.5v-1.3c-0.3,0.4-0.7,0.8-1.2,1c-0.5,0.3-1,0.4-1.6,0.4c-0.7,0-1.3-0.1-1.8-0.4
					s-1-0.7-1.3-1.3c-0.3-0.6-0.5-1.3-0.5-2.1v-5.1h1.4v4.9c0,0.9,0.2,1.5,0.7,2s1,0.7,1.8,0.7c0.8,0,1.4-0.2,1.8-0.7
					c0.4-0.5,0.7-1.2,0.7-2.1v-4.8H45.8z"/>
				<path class="st2" d="M56.2,234.8h-7c0.1,0.9,0.3,1.5,0.9,2c0.5,0.5,1.2,0.7,2,0.7c0.6,0,1.2-0.1,1.6-0.4
					c0.4-0.3,0.7-0.7,0.9-1.2h1.6c-0.2,0.8-0.7,1.5-1.4,2.1c-0.7,0.5-1.6,0.8-2.6,0.8c-0.8,0-1.6-0.2-2.2-0.6s-1.2-0.9-1.5-1.6
					c-0.4-0.7-0.6-1.5-0.6-2.4c0-0.9,0.2-1.7,0.5-2.4c0.4-0.7,0.9-1.2,1.5-1.6c0.7-0.4,1.4-0.6,2.3-0.6c0.8,0,1.6,0.2,2.2,0.5
					c0.6,0.4,1.1,0.9,1.5,1.5s0.5,1.4,0.5,2.2C56.2,234.2,56.2,234.5,56.2,234.8z M54.4,232.2c-0.2-0.4-0.6-0.7-1-0.9
					c-0.4-0.2-0.9-0.3-1.4-0.3c-0.7,0-1.4,0.2-1.9,0.7c-0.5,0.5-0.8,1.1-0.9,2h5.5C54.7,233.1,54.6,232.6,54.4,232.2z"/>
				<path class="st2" d="M59.5,238.4c-0.5-0.2-1-0.5-1.3-1c-0.3-0.4-0.5-0.9-0.5-1.4h1.5c0,0.4,0.2,0.8,0.6,1.1s0.9,0.4,1.4,0.4
					c0.6,0,1-0.1,1.3-0.4s0.5-0.6,0.5-0.9c0-0.4-0.2-0.7-0.5-0.9c-0.3-0.2-0.9-0.4-1.6-0.6c-0.7-0.2-1.2-0.3-1.6-0.5
					c-0.4-0.2-0.8-0.4-1.1-0.8c-0.3-0.3-0.4-0.8-0.4-1.4c0-0.4,0.1-0.9,0.4-1.2c0.3-0.4,0.6-0.7,1.1-0.9s1.1-0.3,1.7-0.3
					c1,0,1.8,0.2,2.4,0.7c0.6,0.5,0.9,1.2,1,2h-1.5c0-0.5-0.2-0.8-0.6-1.1S61.6,231,61,231c-0.5,0-0.9,0.1-1.2,0.3
					c-0.3,0.2-0.5,0.5-0.5,0.9c0,0.3,0.1,0.5,0.3,0.7s0.4,0.3,0.7,0.4c0.3,0.1,0.7,0.2,1.2,0.4c0.6,0.2,1.1,0.3,1.5,0.5
					s0.7,0.4,1,0.7c0.3,0.3,0.4,0.8,0.4,1.3c0,0.5-0.1,0.9-0.4,1.3s-0.6,0.7-1.1,0.9c-0.5,0.2-1,0.3-1.7,0.3
					C60.6,238.8,60,238.7,59.5,238.4z"/>
				<path class="st2" d="M68.3,231.1v5.2c0,0.4,0.1,0.7,0.3,0.9c0.2,0.2,0.5,0.3,0.9,0.3h1.1v1.2h-1.3c-0.8,0-1.4-0.2-1.8-0.6
					c-0.4-0.4-0.6-1-0.6-1.8v-5.2h-1.1v-1.2h1.1v-2.2h1.5v2.2h2.3v1.2H68.3z"/>
				<path class="st2" d="M74.9,230.1c0.5-0.3,1.1-0.4,1.7-0.4v1.5h-0.4c-1.6,0-2.4,0.9-2.4,2.7v4.8h-1.5v-8.8h1.5v1.4
					C74.1,230.8,74.4,230.4,74.9,230.1z"/>
				<path class="st2" d="M79.9,238.2c-0.7-0.4-1.2-0.9-1.6-1.6c-0.4-0.7-0.6-1.5-0.6-2.4c0-0.9,0.2-1.7,0.6-2.4
					c0.4-0.7,0.9-1.2,1.6-1.6c0.7-0.4,1.4-0.6,2.3-0.6s1.6,0.2,2.3,0.6c0.7,0.4,1.2,0.9,1.6,1.6s0.6,1.5,0.6,2.4
					c0,0.9-0.2,1.7-0.6,2.4c-0.4,0.7-0.9,1.2-1.6,1.6s-1.4,0.6-2.3,0.6C81.3,238.8,80.6,238.6,79.9,238.2z M83.6,237.1
					c0.5-0.2,0.8-0.6,1.1-1.1c0.3-0.5,0.4-1.1,0.4-1.8c0-0.7-0.1-1.3-0.4-1.8c-0.3-0.5-0.6-0.9-1.1-1.1c-0.4-0.2-0.9-0.4-1.5-0.4
					c-0.5,0-1,0.1-1.5,0.4s-0.8,0.6-1.1,1.1c-0.3,0.5-0.4,1.1-0.4,1.8c0,0.7,0.1,1.3,0.4,1.8c0.3,0.5,0.6,0.9,1,1.1s0.9,0.4,1.4,0.4
					S83.1,237.4,83.6,237.1z"/>
				<path class="st2" d="M89.8,238.4c-0.5-0.2-1-0.5-1.3-1c-0.3-0.4-0.5-0.9-0.5-1.4h1.5c0,0.4,0.2,0.8,0.6,1.1s0.9,0.4,1.4,0.4
					c0.6,0,1-0.1,1.3-0.4s0.5-0.6,0.5-0.9c0-0.4-0.2-0.7-0.5-0.9c-0.3-0.2-0.9-0.4-1.6-0.6c-0.7-0.2-1.2-0.3-1.6-0.5
					c-0.4-0.2-0.8-0.4-1.1-0.8c-0.3-0.3-0.4-0.8-0.4-1.4c0-0.4,0.1-0.9,0.4-1.2c0.3-0.4,0.6-0.7,1.1-0.9s1.1-0.3,1.7-0.3
					c1,0,1.8,0.2,2.4,0.7c0.6,0.5,0.9,1.2,1,2h-1.5c0-0.5-0.2-0.8-0.6-1.1S92,231,91.4,231c-0.5,0-0.9,0.1-1.2,0.3
					c-0.3,0.2-0.5,0.5-0.5,0.9c0,0.3,0.1,0.5,0.3,0.7s0.4,0.3,0.7,0.4c0.3,0.1,0.7,0.2,1.2,0.4c0.6,0.2,1.1,0.3,1.5,0.5
					s0.7,0.4,1,0.7c0.3,0.3,0.4,0.8,0.4,1.3c0,0.5-0.1,0.9-0.4,1.3s-0.6,0.7-1.1,0.9c-0.5,0.2-1,0.3-1.7,0.3
					C91,238.8,90.4,238.7,89.8,238.4z"/>
				<path class="st2" d="M106.8,230.2c0.6,0.3,1,0.7,1.3,1.2v-1.6h1.5v9c0,0.8-0.2,1.5-0.5,2.1c-0.3,0.6-0.8,1.1-1.5,1.5
					c-0.6,0.4-1.4,0.5-2.2,0.5c-1.2,0-2.1-0.3-2.9-0.8c-0.8-0.5-1.2-1.3-1.4-2.2h1.4c0.2,0.5,0.5,1,1,1.3c0.5,0.3,1.1,0.5,1.8,0.5
					c0.8,0,1.5-0.3,2-0.8c0.5-0.5,0.8-1.2,0.8-2.1V237c-0.3,0.5-0.7,0.9-1.3,1.3c-0.6,0.3-1.2,0.5-2,0.5c-0.8,0-1.5-0.2-2.1-0.6
					c-0.6-0.4-1.1-0.9-1.5-1.6c-0.4-0.7-0.5-1.5-0.5-2.4c0-0.9,0.2-1.7,0.5-2.4c0.4-0.7,0.9-1.2,1.5-1.6c0.6-0.4,1.3-0.6,2.1-0.6
					C105.5,229.7,106.2,229.9,106.8,230.2z M107.6,232.5c-0.3-0.5-0.6-0.9-1.1-1.1s-1-0.4-1.5-0.4s-1,0.1-1.5,0.4
					c-0.4,0.3-0.8,0.6-1.1,1.1c-0.3,0.5-0.4,1.1-0.4,1.7c0,0.7,0.1,1.3,0.4,1.8s0.6,0.9,1.1,1.1c0.4,0.3,0.9,0.4,1.5,0.4
					s1-0.1,1.5-0.4c0.5-0.3,0.8-0.6,1.1-1.1s0.4-1.1,0.4-1.7C108.1,233.6,107.9,233,107.6,232.5z"/>
				<path class="st2" d="M112,228.2c-0.2-0.2-0.3-0.4-0.3-0.7s0.1-0.5,0.3-0.7c0.2-0.2,0.4-0.3,0.7-0.3c0.3,0,0.5,0.1,0.7,0.3
					c0.2,0.2,0.3,0.4,0.3,0.7s-0.1,0.5-0.3,0.7c-0.2,0.2-0.4,0.3-0.7,0.3C112.5,228.5,112.2,228.4,112,228.2z M113.4,229.9v8.8H112
					v-8.8H113.4z"/>
				<path class="st2" d="M122.8,230.7c0.7,0.6,1,1.6,1,2.8v5.2h-1.4v-5c0-0.9-0.2-1.5-0.7-2s-1-0.7-1.8-0.7c-0.8,0-1.4,0.2-1.8,0.7
					c-0.5,0.5-0.7,1.2-0.7,2.1v4.8h-1.5v-8.8h1.5v1.2c0.3-0.4,0.7-0.8,1.2-1c0.5-0.2,1-0.4,1.6-0.4
					C121.3,229.7,122.1,230,122.8,230.7z"/>
				<path class="st2" d="M134.1,234.8h-7c0.1,0.9,0.3,1.5,0.9,2c0.5,0.5,1.2,0.7,2,0.7c0.6,0,1.2-0.1,1.6-0.4
					c0.4-0.3,0.7-0.7,0.9-1.2h1.6c-0.2,0.8-0.7,1.5-1.4,2.1c-0.7,0.5-1.6,0.8-2.6,0.8c-0.8,0-1.6-0.2-2.2-0.6s-1.2-0.9-1.5-1.6
					c-0.4-0.7-0.6-1.5-0.6-2.4c0-0.9,0.2-1.7,0.5-2.4c0.4-0.7,0.9-1.2,1.5-1.6c0.7-0.4,1.4-0.6,2.3-0.6c0.8,0,1.6,0.2,2.2,0.5
					c0.6,0.4,1.1,0.9,1.5,1.5s0.5,1.4,0.5,2.2C134.2,234.2,134.1,234.5,134.1,234.8z M132.3,232.2c-0.2-0.4-0.6-0.7-1-0.9
					c-0.4-0.2-0.9-0.3-1.4-0.3c-0.7,0-1.4,0.2-1.9,0.7c-0.5,0.5-0.8,1.1-0.9,2h5.5C132.7,233.1,132.5,232.6,132.3,232.2z"/>
				<path class="st2" d="M136.1,231.9c0.4-0.7,0.9-1.2,1.5-1.6c0.6-0.4,1.4-0.6,2.2-0.6c1.1,0,2,0.3,2.7,0.8
					c0.7,0.5,1.2,1.2,1.4,2.2h-1.6c-0.2-0.5-0.4-1-0.9-1.3c-0.4-0.3-1-0.5-1.6-0.5c-0.8,0-1.5,0.3-2,0.9c-0.5,0.6-0.8,1.4-0.8,2.4
					c0,1.1,0.3,1.9,0.8,2.4c0.5,0.6,1.2,0.9,2,0.9c0.6,0,1.2-0.1,1.6-0.4s0.7-0.7,0.9-1.3h1.6c-0.2,0.9-0.7,1.6-1.4,2.2
					c-0.7,0.5-1.6,0.8-2.6,0.8c-0.8,0-1.6-0.2-2.2-0.6s-1.1-0.9-1.5-1.6c-0.4-0.7-0.5-1.5-0.5-2.4
					C135.5,233.3,135.7,232.5,136.1,231.9z"/>
				<path class="st2" d="M147.4,238.2c-0.7-0.4-1.2-0.9-1.6-1.6c-0.4-0.7-0.6-1.5-0.6-2.4c0-0.9,0.2-1.7,0.6-2.4
					c0.4-0.7,0.9-1.2,1.6-1.6c0.7-0.4,1.4-0.6,2.3-0.6s1.6,0.2,2.3,0.6c0.7,0.4,1.2,0.9,1.6,1.6s0.6,1.5,0.6,2.4
					c0,0.9-0.2,1.7-0.6,2.4c-0.4,0.7-0.9,1.2-1.6,1.6s-1.4,0.6-2.3,0.6C148.8,238.8,148.1,238.6,147.4,238.2z M151.1,237.1
					c0.5-0.2,0.8-0.6,1.1-1.1c0.3-0.5,0.4-1.1,0.4-1.8c0-0.7-0.1-1.3-0.4-1.8c-0.3-0.5-0.6-0.9-1.1-1.1c-0.4-0.2-0.9-0.4-1.5-0.4
					c-0.5,0-1,0.1-1.5,0.4s-0.8,0.6-1.1,1.1c-0.3,0.5-0.4,1.1-0.4,1.8c0,0.7,0.1,1.3,0.4,1.8c0.3,0.5,0.6,0.9,1,1.1s0.9,0.4,1.4,0.4
					S150.6,237.4,151.1,237.1z"/>
				<path class="st2" d="M162.1,232.2v1.2h-6.4v-1.2H162.1z"/>
				<path class="st2" d="M166.4,238.2c-0.7-0.4-1.2-0.9-1.6-1.6c-0.4-0.7-0.6-1.5-0.6-2.4c0-0.9,0.2-1.7,0.6-2.4
					c0.4-0.7,0.9-1.2,1.6-1.6c0.7-0.4,1.4-0.6,2.3-0.6s1.6,0.2,2.3,0.6c0.7,0.4,1.2,0.9,1.6,1.6s0.6,1.5,0.6,2.4
					c0,0.9-0.2,1.7-0.6,2.4c-0.4,0.7-0.9,1.2-1.6,1.6s-1.4,0.6-2.3,0.6C167.9,238.8,167.1,238.6,166.4,238.2z M170.1,237.1
					c0.5-0.2,0.8-0.6,1.1-1.1c0.3-0.5,0.4-1.1,0.4-1.8c0-0.7-0.1-1.3-0.4-1.8c-0.3-0.5-0.6-0.9-1.1-1.1c-0.4-0.2-0.9-0.4-1.5-0.4
					c-0.5,0-1,0.1-1.5,0.4s-0.8,0.6-1.1,1.1c-0.3,0.5-0.4,1.1-0.4,1.8c0,0.7,0.1,1.3,0.4,1.8c0.3,0.5,0.6,0.9,1,1.1s0.9,0.4,1.4,0.4
					S169.7,237.4,170.1,237.1z"/>
				<path class="st2" d="M177.9,230.2c0.6-0.3,1.2-0.5,2-0.5c0.8,0,1.5,0.2,2.1,0.6c0.6,0.4,1.1,0.9,1.5,1.6
					c0.4,0.7,0.5,1.5,0.5,2.4c0,0.9-0.2,1.7-0.5,2.4s-0.9,1.2-1.5,1.6c-0.6,0.4-1.3,0.6-2.1,0.6c-0.8,0-1.4-0.2-2-0.5
					c-0.6-0.3-1-0.8-1.3-1.3v1.6h-1.5v-11.8h1.5v4.7C176.8,231,177.3,230.6,177.9,230.2z M182.1,232.5c-0.3-0.5-0.6-0.9-1.1-1.1
					c-0.5-0.3-1-0.4-1.5-0.4c-0.5,0-1,0.1-1.5,0.4c-0.5,0.3-0.8,0.6-1.1,1.1c-0.3,0.5-0.4,1.1-0.4,1.7c0,0.7,0.1,1.2,0.4,1.7
					c0.3,0.5,0.6,0.9,1.1,1.1c0.5,0.3,0.9,0.4,1.5,0.4c0.5,0,1-0.1,1.5-0.4c0.5-0.3,0.8-0.6,1.1-1.1s0.4-1.1,0.4-1.8
					C182.5,233.6,182.4,233,182.1,232.5z"/>
				<path class="st2" d="M187.2,238.4c-0.5-0.2-1-0.5-1.3-1c-0.3-0.4-0.5-0.9-0.5-1.4h1.5c0,0.4,0.2,0.8,0.6,1.1s0.9,0.4,1.4,0.4
					c0.6,0,1-0.1,1.3-0.4s0.5-0.6,0.5-0.9c0-0.4-0.2-0.7-0.5-0.9c-0.3-0.2-0.9-0.4-1.6-0.6c-0.7-0.2-1.2-0.3-1.6-0.5
					c-0.4-0.2-0.8-0.4-1.1-0.8c-0.3-0.3-0.4-0.8-0.4-1.4c0-0.4,0.1-0.9,0.4-1.2c0.3-0.4,0.6-0.7,1.1-0.9s1.1-0.3,1.7-0.3
					c1,0,1.8,0.2,2.4,0.7c0.6,0.5,0.9,1.2,1,2h-1.5c0-0.5-0.2-0.8-0.6-1.1s-0.8-0.4-1.4-0.4c-0.5,0-0.9,0.1-1.2,0.3
					c-0.3,0.2-0.5,0.5-0.5,0.9c0,0.3,0.1,0.5,0.3,0.7s0.4,0.3,0.7,0.4c0.3,0.1,0.7,0.2,1.2,0.4c0.6,0.2,1.1,0.3,1.5,0.5
					s0.7,0.4,1,0.7c0.3,0.3,0.4,0.8,0.4,1.3c0,0.5-0.1,0.9-0.4,1.3s-0.6,0.7-1.1,0.9c-0.5,0.2-1,0.3-1.7,0.3
					C188.3,238.8,187.7,238.7,187.2,238.4z"/>
				<path class="st2" d="M196,231.1v5.2c0,0.4,0.1,0.7,0.3,0.9c0.2,0.2,0.5,0.3,0.9,0.3h1.1v1.2H197c-0.8,0-1.4-0.2-1.8-0.6
					c-0.4-0.4-0.6-1-0.6-1.8v-5.2h-1.1v-1.2h1.1v-2.2h1.5v2.2h2.3v1.2H196z"/>
				<path class="st2" d="M208,234.8h-7c0.1,0.9,0.3,1.5,0.9,2c0.5,0.5,1.2,0.7,2,0.7c0.6,0,1.2-0.1,1.6-0.4c0.4-0.3,0.7-0.7,0.9-1.2
					h1.6c-0.2,0.8-0.7,1.5-1.4,2.1c-0.7,0.5-1.6,0.8-2.6,0.8c-0.8,0-1.6-0.2-2.2-0.6s-1.2-0.9-1.5-1.6c-0.4-0.7-0.6-1.5-0.6-2.4
					c0-0.9,0.2-1.7,0.5-2.4c0.4-0.7,0.9-1.2,1.5-1.6c0.7-0.4,1.4-0.6,2.3-0.6c0.8,0,1.6,0.2,2.2,0.5c0.6,0.4,1.1,0.9,1.5,1.5
					s0.5,1.4,0.5,2.2C208.1,234.2,208.1,234.5,208,234.8z M206.2,232.2c-0.2-0.4-0.6-0.7-1-0.9c-0.4-0.2-0.9-0.3-1.4-0.3
					c-0.7,0-1.4,0.2-1.9,0.7c-0.5,0.5-0.8,1.1-0.9,2h5.5C206.6,233.1,206.5,232.6,206.2,232.2z"/>
				<path class="st2" d="M211.8,231.1v5.2c0,0.4,0.1,0.7,0.3,0.9c0.2,0.2,0.5,0.3,0.9,0.3h1.1v1.2h-1.3c-0.8,0-1.4-0.2-1.8-0.6
					c-0.4-0.4-0.6-1-0.6-1.8v-5.2h-1.1v-1.2h1.1v-2.2h1.5v2.2h2.3v1.2H211.8z"/>
				<path class="st2" d="M218.4,230.1c0.5-0.3,1.1-0.4,1.7-0.4v1.5h-0.4c-1.6,0-2.4,0.9-2.4,2.7v4.8h-1.5v-8.8h1.5v1.4
					C217.5,230.8,217.9,230.4,218.4,230.1z"/>
				<path class="st2" d="M221.8,231.9c0.4-0.7,0.9-1.2,1.5-1.6c0.6-0.4,1.3-0.6,2.1-0.6c0.8,0,1.4,0.2,2,0.5c0.6,0.3,1,0.7,1.3,1.2
					v-1.6h1.5v8.8h-1.5V237c-0.3,0.5-0.7,0.9-1.3,1.3c-0.6,0.3-1.2,0.5-2,0.5c-0.8,0-1.5-0.2-2.1-0.6c-0.6-0.4-1.1-0.9-1.5-1.6
					c-0.4-0.7-0.5-1.5-0.5-2.4C221.3,233.3,221.4,232.5,221.8,231.9z M228.3,232.5c-0.3-0.5-0.6-0.9-1.1-1.1s-1-0.4-1.5-0.4
					s-1,0.1-1.5,0.4c-0.4,0.3-0.8,0.6-1.1,1.1c-0.3,0.5-0.4,1.1-0.4,1.7c0,0.7,0.1,1.3,0.4,1.8s0.6,0.9,1.1,1.1
					c0.4,0.3,0.9,0.4,1.5,0.4s1-0.1,1.5-0.4c0.5-0.3,0.8-0.6,1.1-1.1s0.4-1.1,0.4-1.7C228.7,233.6,228.5,233,228.3,232.5z"/>
				<path class="st2" d="M233.9,238.4c-0.5-0.2-1-0.5-1.3-1c-0.3-0.4-0.5-0.9-0.5-1.4h1.5c0,0.4,0.2,0.8,0.6,1.1s0.9,0.4,1.4,0.4
					c0.6,0,1-0.1,1.3-0.4s0.5-0.6,0.5-0.9c0-0.4-0.2-0.7-0.5-0.9c-0.3-0.2-0.9-0.4-1.6-0.6c-0.7-0.2-1.2-0.3-1.6-0.5
					c-0.4-0.2-0.8-0.4-1.1-0.8c-0.3-0.3-0.4-0.8-0.4-1.4c0-0.4,0.1-0.9,0.4-1.2c0.3-0.4,0.6-0.7,1.1-0.9s1.1-0.3,1.7-0.3
					c1,0,1.8,0.2,2.4,0.7c0.6,0.5,0.9,1.2,1,2h-1.5c0-0.5-0.2-0.8-0.6-1.1s-0.8-0.4-1.4-0.4c-0.5,0-0.9,0.1-1.2,0.3
					c-0.3,0.2-0.5,0.5-0.5,0.9c0,0.3,0.1,0.5,0.3,0.7s0.4,0.3,0.7,0.4c0.3,0.1,0.7,0.2,1.2,0.4c0.6,0.2,1.1,0.3,1.5,0.5
					s0.7,0.4,1,0.7c0.3,0.3,0.4,0.8,0.4,1.3c0,0.5-0.1,0.9-0.4,1.3s-0.6,0.7-1.1,0.9c-0.5,0.2-1,0.3-1.7,0.3
					C235,238.8,234.4,238.7,233.9,238.4z"/>
				<path class="st2" d="M40,258.8h-7c0.1,0.9,0.3,1.5,0.9,2c0.5,0.5,1.2,0.7,2,0.7c0.6,0,1.2-0.1,1.6-0.4c0.4-0.3,0.7-0.7,0.9-1.2
					h1.6c-0.2,0.8-0.7,1.5-1.4,2.1c-0.7,0.5-1.6,0.8-2.6,0.8c-0.8,0-1.6-0.2-2.2-0.6s-1.2-0.9-1.5-1.6c-0.4-0.7-0.6-1.5-0.6-2.4
					c0-0.9,0.2-1.7,0.5-2.4c0.4-0.7,0.9-1.2,1.5-1.6c0.7-0.4,1.4-0.6,2.3-0.6c0.8,0,1.6,0.2,2.2,0.5c0.6,0.4,1.1,0.9,1.5,1.5
					s0.5,1.4,0.5,2.2C40,258.2,40,258.5,40,258.8z M38.2,256.2c-0.2-0.4-0.6-0.7-1-0.9c-0.4-0.2-0.9-0.3-1.4-0.3
					c-0.7,0-1.4,0.2-1.9,0.7c-0.5,0.5-0.8,1.1-0.9,2h5.5C38.5,257.1,38.4,256.6,38.2,256.2z"/>
				<path class="st2" d="M43.3,262.4c-0.5-0.2-1-0.5-1.3-1c-0.3-0.4-0.5-0.9-0.5-1.4H43c0,0.4,0.2,0.8,0.6,1.1s0.9,0.4,1.4,0.4
					c0.6,0,1-0.1,1.3-0.4s0.5-0.6,0.5-0.9c0-0.4-0.2-0.7-0.5-0.9c-0.3-0.2-0.9-0.4-1.6-0.6c-0.7-0.2-1.2-0.3-1.6-0.5
					c-0.4-0.2-0.8-0.4-1.1-0.8c-0.3-0.3-0.4-0.8-0.4-1.4c0-0.4,0.1-0.9,0.4-1.2c0.3-0.4,0.6-0.7,1.1-0.9s1.1-0.3,1.7-0.3
					c1,0,1.8,0.2,2.4,0.7c0.6,0.5,0.9,1.2,1,2h-1.5c0-0.5-0.2-0.8-0.6-1.1s-0.8-0.4-1.4-0.4c-0.5,0-0.9,0.1-1.2,0.3
					c-0.3,0.2-0.5,0.5-0.5,0.9c0,0.3,0.1,0.5,0.3,0.7s0.4,0.3,0.7,0.4c0.3,0.1,0.7,0.2,1.2,0.4c0.6,0.2,1.1,0.3,1.5,0.5
					s0.7,0.4,1,0.7c0.3,0.3,0.4,0.8,0.4,1.3c0,0.5-0.1,0.9-0.4,1.3s-0.6,0.7-1.1,0.9c-0.5,0.2-1,0.3-1.7,0.3
					C44.4,262.8,43.8,262.7,43.3,262.4z"/>
				<path class="st2" d="M50.3,255.9c0.4-0.7,0.9-1.2,1.5-1.6c0.6-0.4,1.4-0.6,2.2-0.6c1.1,0,2,0.3,2.7,0.8c0.7,0.5,1.2,1.2,1.4,2.2
					h-1.6c-0.2-0.5-0.4-1-0.9-1.3c-0.4-0.3-1-0.5-1.6-0.5c-0.8,0-1.5,0.3-2,0.9c-0.5,0.6-0.8,1.4-0.8,2.4c0,1.1,0.3,1.9,0.8,2.4
					c0.5,0.6,1.2,0.9,2,0.9c0.6,0,1.2-0.1,1.6-0.4s0.7-0.7,0.9-1.3h1.6c-0.2,0.9-0.7,1.6-1.4,2.2c-0.7,0.5-1.6,0.8-2.6,0.8
					c-0.8,0-1.6-0.2-2.2-0.6s-1.1-0.9-1.5-1.6c-0.4-0.7-0.5-1.5-0.5-2.4C49.8,257.3,49.9,256.5,50.3,255.9z"/>
				<path class="st2" d="M67.8,253.9v8.8h-1.5v-1.3c-0.3,0.4-0.7,0.8-1.2,1c-0.5,0.3-1,0.4-1.6,0.4c-0.7,0-1.3-0.1-1.8-0.4
					s-1-0.7-1.3-1.3c-0.3-0.6-0.5-1.3-0.5-2.1v-5.1h1.4v4.9c0,0.9,0.2,1.5,0.7,2s1,0.7,1.8,0.7c0.8,0,1.4-0.2,1.8-0.7
					c0.4-0.5,0.7-1.2,0.7-2.1v-4.8H67.8z"/>
				<path class="st2" d="M70.3,255.9c0.4-0.7,0.9-1.2,1.5-1.6c0.6-0.4,1.4-0.6,2.2-0.6c1.1,0,2,0.3,2.7,0.8c0.7,0.5,1.2,1.2,1.4,2.2
					h-1.6c-0.2-0.5-0.4-1-0.9-1.3c-0.4-0.3-1-0.5-1.6-0.5c-0.8,0-1.5,0.3-2,0.9c-0.5,0.6-0.8,1.4-0.8,2.4c0,1.1,0.3,1.9,0.8,2.4
					c0.5,0.6,1.2,0.9,2,0.9c0.6,0,1.2-0.1,1.6-0.4s0.7-0.7,0.9-1.3H78c-0.2,0.9-0.7,1.6-1.4,2.2c-0.7,0.5-1.6,0.8-2.6,0.8
					c-0.8,0-1.6-0.2-2.2-0.6s-1.1-0.9-1.5-1.6c-0.4-0.7-0.5-1.5-0.5-2.4C69.7,257.3,69.9,256.5,70.3,255.9z"/>
				<path class="st2" d="M86.1,254.1c0.5,0.3,1,0.7,1.3,1.3c0.3,0.6,0.5,1.3,0.5,2.1v5.2h-1.4v-5c0-0.9-0.2-1.5-0.7-2
					s-1-0.7-1.8-0.7c-0.8,0-1.4,0.2-1.8,0.7c-0.5,0.5-0.7,1.2-0.7,2.1v4.8H80v-11.8h1.5v4.3c0.3-0.4,0.7-0.8,1.2-1
					c0.5-0.2,1.1-0.4,1.7-0.4C85,253.7,85.6,253.9,86.1,254.1z"/>
				<path class="st2" d="M90.2,255.9c0.4-0.7,0.9-1.2,1.5-1.6c0.6-0.4,1.3-0.6,2.1-0.6c0.8,0,1.4,0.2,2,0.5c0.6,0.3,1,0.7,1.3,1.2
					v-1.6h1.5v8.8h-1.5V261c-0.3,0.5-0.7,0.9-1.3,1.3c-0.6,0.3-1.2,0.5-2,0.5c-0.8,0-1.5-0.2-2.1-0.6c-0.6-0.4-1.1-0.9-1.5-1.6
					c-0.4-0.7-0.5-1.5-0.5-2.4C89.7,257.3,89.8,256.5,90.2,255.9z M96.7,256.5c-0.3-0.5-0.6-0.9-1.1-1.1s-1-0.4-1.5-0.4
					s-1,0.1-1.5,0.4c-0.4,0.3-0.8,0.6-1.1,1.1c-0.3,0.5-0.4,1.1-0.4,1.7c0,0.7,0.1,1.3,0.4,1.8s0.6,0.9,1.1,1.1
					c0.4,0.3,0.9,0.4,1.5,0.4s1-0.1,1.5-0.4c0.5-0.3,0.8-0.6,1.1-1.1s0.4-1.1,0.4-1.7C97.1,257.6,97,257,96.7,256.5z"/>
				<path class="st2" d="M103.6,254.1c0.5-0.3,1.1-0.4,1.7-0.4v1.5h-0.4c-1.6,0-2.4,0.9-2.4,2.7v4.8H101v-8.8h1.5v1.4
					C102.7,254.8,103.1,254.4,103.6,254.1z"/>
				<path class="st2" d="M107,255.9c0.4-0.7,0.9-1.2,1.5-1.6c0.6-0.4,1.3-0.6,2.1-0.6c0.8,0,1.4,0.2,2,0.5c0.6,0.3,1,0.7,1.3,1.2
					v-1.6h1.5v8.8h-1.5V261c-0.3,0.5-0.7,0.9-1.3,1.3c-0.6,0.3-1.2,0.5-2,0.5c-0.8,0-1.5-0.2-2.1-0.6c-0.6-0.4-1.1-0.9-1.5-1.6
					c-0.4-0.7-0.5-1.5-0.5-2.4C106.4,257.3,106.6,256.5,107,255.9z M113.5,256.5c-0.3-0.5-0.6-0.9-1.1-1.1s-1-0.4-1.5-0.4
					s-1,0.1-1.5,0.4c-0.4,0.3-0.8,0.6-1.1,1.1c-0.3,0.5-0.4,1.1-0.4,1.7c0,0.7,0.1,1.3,0.4,1.8s0.6,0.9,1.1,1.1
					c0.4,0.3,0.9,0.4,1.5,0.4s1-0.1,1.5-0.4c0.5-0.3,0.8-0.6,1.1-1.1s0.4-1.1,0.4-1.7C113.9,257.6,113.7,257,113.5,256.5z
					 M112.7,251.4l-3.4,1.8v-1.1l3.4-2V251.4z"/>
				<path class="st2" d="M124.7,254.7c0.7,0.6,1,1.6,1,2.8v5.2h-1.4v-5c0-0.9-0.2-1.5-0.7-2s-1-0.7-1.8-0.7c-0.8,0-1.4,0.2-1.8,0.7
					c-0.5,0.5-0.7,1.2-0.7,2.1v4.8h-1.5v-8.8h1.5v1.2c0.3-0.4,0.7-0.8,1.2-1c0.5-0.2,1-0.4,1.6-0.4C123.1,253.7,124,254,124.7,254.7
					z"/>
				<path class="st2" d="M139.9,253.9l-5.3,12.9h-1.5l1.7-4.2l-3.5-8.7h1.6l2.8,7.1l2.7-7.1H139.9z"/>
				<path class="st2" d="M145.6,255.9c0.4-0.7,0.9-1.2,1.5-1.6c0.6-0.4,1.3-0.6,2.1-0.6c0.8,0,1.4,0.2,2,0.5c0.6,0.3,1,0.7,1.3,1.2
					v-1.6h1.5v8.8h-1.5V261c-0.3,0.5-0.7,0.9-1.3,1.3c-0.6,0.3-1.2,0.5-2,0.5c-0.8,0-1.5-0.2-2.1-0.6c-0.6-0.4-1.1-0.9-1.5-1.6
					c-0.4-0.7-0.5-1.5-0.5-2.4C145.1,257.3,145.2,256.5,145.6,255.9z M152.1,256.5c-0.3-0.5-0.6-0.9-1.1-1.1s-1-0.4-1.5-0.4
					s-1,0.1-1.5,0.4c-0.4,0.3-0.8,0.6-1.1,1.1c-0.3,0.5-0.4,1.1-0.4,1.7c0,0.7,0.1,1.3,0.4,1.8s0.6,0.9,1.1,1.1
					c0.4,0.3,0.9,0.4,1.5,0.4s1-0.1,1.5-0.4c0.5-0.3,0.8-0.6,1.1-1.1s0.4-1.1,0.4-1.7C152.5,257.6,152.3,257,152.1,256.5z"/>
				<path class="st2" d="M159.2,254.2c0.6-0.3,1.2-0.5,2-0.5c0.8,0,1.5,0.2,2.1,0.6c0.6,0.4,1.1,0.9,1.5,1.6
					c0.4,0.7,0.5,1.5,0.5,2.4c0,0.9-0.2,1.7-0.5,2.4s-0.9,1.2-1.5,1.6c-0.6,0.4-1.3,0.6-2.1,0.6c-0.8,0-1.4-0.2-2-0.5
					c-0.6-0.3-1-0.8-1.3-1.3v1.6h-1.5v-11.8h1.5v4.7C158.2,255,158.6,254.6,159.2,254.2z M163.4,256.5c-0.3-0.5-0.6-0.9-1.1-1.1
					c-0.5-0.3-1-0.4-1.5-0.4c-0.5,0-1,0.1-1.5,0.4c-0.5,0.3-0.8,0.6-1.1,1.1c-0.3,0.5-0.4,1.1-0.4,1.7c0,0.7,0.1,1.2,0.4,1.7
					c0.3,0.5,0.6,0.9,1.1,1.1c0.5,0.3,0.9,0.4,1.5,0.4c0.5,0,1-0.1,1.5-0.4c0.5-0.3,0.8-0.6,1.1-1.1s0.4-1.1,0.4-1.8
					C163.8,257.6,163.7,257,163.4,256.5z"/>
				<path class="st2" d="M168.5,262.4c-0.5-0.2-1-0.5-1.3-1c-0.3-0.4-0.5-0.9-0.5-1.4h1.5c0,0.4,0.2,0.8,0.6,1.1s0.9,0.4,1.4,0.4
					c0.6,0,1-0.1,1.3-0.4s0.5-0.6,0.5-0.9c0-0.4-0.2-0.7-0.5-0.9c-0.3-0.2-0.9-0.4-1.6-0.6c-0.7-0.2-1.2-0.3-1.6-0.5
					c-0.4-0.2-0.8-0.4-1.1-0.8c-0.3-0.3-0.4-0.8-0.4-1.4c0-0.4,0.1-0.9,0.4-1.2c0.3-0.4,0.6-0.7,1.1-0.9s1.1-0.3,1.7-0.3
					c1,0,1.8,0.2,2.4,0.7c0.6,0.5,0.9,1.2,1,2H172c0-0.5-0.2-0.8-0.6-1.1s-0.8-0.4-1.4-0.4c-0.5,0-0.9,0.1-1.2,0.3
					c-0.3,0.2-0.5,0.5-0.5,0.9c0,0.3,0.1,0.5,0.3,0.7s0.4,0.3,0.7,0.4c0.3,0.1,0.7,0.2,1.2,0.4c0.6,0.2,1.1,0.3,1.5,0.5
					s0.7,0.4,1,0.7c0.3,0.3,0.4,0.8,0.4,1.3c0,0.5-0.1,0.9-0.4,1.3s-0.6,0.7-1.1,0.9c-0.5,0.2-1,0.3-1.7,0.3
					C169.7,262.8,169.1,262.7,168.5,262.4z"/>
				<path class="st2" d="M177.2,262.2c-0.7-0.4-1.2-0.9-1.6-1.6c-0.4-0.7-0.6-1.5-0.6-2.4c0-0.9,0.2-1.7,0.6-2.4
					c0.4-0.7,0.9-1.2,1.6-1.6c0.7-0.4,1.4-0.6,2.3-0.6s1.6,0.2,2.3,0.6c0.7,0.4,1.2,0.9,1.6,1.6s0.6,1.5,0.6,2.4
					c0,0.9-0.2,1.7-0.6,2.4c-0.4,0.7-0.9,1.2-1.6,1.6s-1.4,0.6-2.3,0.6C178.6,262.8,177.8,262.6,177.2,262.2z M180.9,261.1
					c0.5-0.2,0.8-0.6,1.1-1.1c0.3-0.5,0.4-1.1,0.4-1.8c0-0.7-0.1-1.3-0.4-1.8c-0.3-0.5-0.6-0.9-1.1-1.1c-0.4-0.2-0.9-0.4-1.5-0.4
					c-0.5,0-1,0.1-1.5,0.4s-0.8,0.6-1.1,1.1c-0.3,0.5-0.4,1.1-0.4,1.8c0,0.7,0.1,1.3,0.4,1.8c0.3,0.5,0.6,0.9,1,1.1s0.9,0.4,1.4,0.4
					S180.4,261.4,180.9,261.1z"/>
				<path class="st2" d="M187.3,250.8v11.8h-1.5v-11.8H187.3z"/>
				<path class="st2" d="M193,261.3l2.7-7.4h1.6l-3.4,8.8h-1.7l-3.4-8.8h1.6L193,261.3z"/>
				<path class="st2" d="M206.7,258.8h-7c0.1,0.9,0.3,1.5,0.9,2c0.5,0.5,1.2,0.7,2,0.7c0.6,0,1.2-0.1,1.6-0.4
					c0.4-0.3,0.7-0.7,0.9-1.2h1.6c-0.2,0.8-0.7,1.5-1.4,2.1c-0.7,0.5-1.6,0.8-2.6,0.8c-0.8,0-1.6-0.2-2.2-0.6s-1.2-0.9-1.5-1.6
					c-0.4-0.7-0.6-1.5-0.6-2.4c0-0.9,0.2-1.7,0.5-2.4c0.4-0.7,0.9-1.2,1.5-1.6c0.7-0.4,1.4-0.6,2.3-0.6c0.8,0,1.6,0.2,2.2,0.5
					c0.6,0.4,1.1,0.9,1.5,1.5s0.5,1.4,0.5,2.2C206.7,258.2,206.7,258.5,206.7,258.8z M204.9,256.2c-0.2-0.4-0.6-0.7-1-0.9
					c-0.4-0.2-0.9-0.3-1.4-0.3c-0.7,0-1.4,0.2-1.9,0.7c-0.5,0.5-0.8,1.1-0.9,2h5.5C205.2,257.1,205.1,256.6,204.9,256.2z"/>
				<path class="st2" d="M211.2,254.1c0.5-0.3,1.1-0.4,1.7-0.4v1.5h-0.4c-1.6,0-2.4,0.9-2.4,2.7v4.8h-1.5v-8.8h1.5v1.4
					C210.4,254.8,210.7,254.4,211.2,254.1z"/>
				<path class="st2" d="M214.6,255.9c0.4-0.7,0.9-1.2,1.5-1.6c0.6-0.4,1.3-0.6,2.1-0.6c0.8,0,1.4,0.2,2,0.5c0.6,0.3,1,0.7,1.3,1.2
					v-1.6h1.5v8.8h-1.5V261c-0.3,0.5-0.7,0.9-1.3,1.3c-0.6,0.3-1.2,0.5-2,0.5c-0.8,0-1.5-0.2-2.1-0.6c-0.6-0.4-1.1-0.9-1.5-1.6
					c-0.4-0.7-0.5-1.5-0.5-2.4C214.1,257.3,214.3,256.5,214.6,255.9z M221.1,256.5c-0.3-0.5-0.6-0.9-1.1-1.1s-1-0.4-1.5-0.4
					s-1,0.1-1.5,0.4c-0.4,0.3-0.8,0.6-1.1,1.1c-0.3,0.5-0.4,1.1-0.4,1.7c0,0.7,0.1,1.3,0.4,1.8s0.6,0.9,1.1,1.1
					c0.4,0.3,0.9,0.4,1.5,0.4s1-0.1,1.5-0.4c0.5-0.3,0.8-0.6,1.1-1.1s0.4-1.1,0.4-1.7C221.5,257.6,221.4,257,221.1,256.5z
					 M220.4,251.4l-3.4,1.8v-1.1l3.4-2V251.4z"/>
				<path class="st2" d="M232.3,254.7c0.7,0.6,1,1.6,1,2.8v5.2h-1.4v-5c0-0.9-0.2-1.5-0.7-2s-1-0.7-1.8-0.7c-0.8,0-1.4,0.2-1.8,0.7
					c-0.5,0.5-0.7,1.2-0.7,2.1v4.8h-1.5v-8.8h1.5v1.2c0.3-0.4,0.7-0.8,1.2-1c0.5-0.2,1-0.4,1.6-0.4
					C230.8,253.7,231.6,254,232.3,254.7z"/>
				<path class="st2" d="M39.4,279.1v5.2c0,0.4,0.1,0.7,0.3,0.9c0.2,0.2,0.5,0.3,0.9,0.3h1.1v1.2h-1.3c-0.8,0-1.4-0.2-1.8-0.6
					c-0.4-0.4-0.6-1-0.6-1.8v-5.2h-1.1v-1.2H38v-2.2h1.5v2.2h2.3v1.2H39.4z"/>
				<path class="st2" d="M45.1,286.2c-0.7-0.4-1.2-0.9-1.6-1.6c-0.4-0.7-0.6-1.5-0.6-2.4c0-0.9,0.2-1.7,0.6-2.4
					c0.4-0.7,0.9-1.2,1.6-1.6c0.7-0.4,1.4-0.6,2.3-0.6s1.6,0.2,2.3,0.6c0.7,0.4,1.2,0.9,1.6,1.6s0.6,1.5,0.6,2.4
					c0,0.9-0.2,1.7-0.6,2.4c-0.4,0.7-0.9,1.2-1.6,1.6s-1.4,0.6-2.3,0.6C46.5,286.8,45.7,286.6,45.1,286.2z M48.8,285.1
					c0.5-0.2,0.8-0.6,1.1-1.1c0.3-0.5,0.4-1.1,0.4-1.8c0-0.7-0.1-1.3-0.4-1.8c-0.3-0.5-0.6-0.9-1.1-1.1c-0.4-0.2-0.9-0.4-1.5-0.4
					c-0.5,0-1,0.1-1.5,0.4s-0.8,0.6-1.1,1.1c-0.3,0.5-0.4,1.1-0.4,1.8c0,0.7,0.1,1.3,0.4,1.8c0.3,0.5,0.6,0.9,1,1.1s0.9,0.4,1.4,0.4
					S48.3,285.4,48.8,285.1z"/>
				<path class="st2" d="M53.7,279.9c0.4-0.7,0.9-1.2,1.5-1.6c0.6-0.4,1.3-0.6,2.1-0.6c0.7,0,1.3,0.2,1.9,0.5c0.6,0.3,1,0.7,1.3,1.2
					v-4.6h1.5v11.8h-1.5V285c-0.3,0.5-0.7,1-1.3,1.3s-1.2,0.5-2,0.5c-0.8,0-1.5-0.2-2.1-0.6c-0.6-0.4-1.1-0.9-1.5-1.6
					c-0.4-0.7-0.5-1.5-0.5-2.4C53.2,281.3,53.3,280.5,53.7,279.9z M60.2,280.5c-0.3-0.5-0.6-0.9-1.1-1.1s-1-0.4-1.5-0.4
					s-1,0.1-1.5,0.4c-0.4,0.3-0.8,0.6-1.1,1.1c-0.3,0.5-0.4,1.1-0.4,1.7c0,0.7,0.1,1.3,0.4,1.8s0.6,0.9,1.1,1.1
					c0.4,0.3,0.9,0.4,1.5,0.4s1-0.1,1.5-0.4c0.5-0.3,0.8-0.6,1.1-1.1s0.4-1.1,0.4-1.7C60.6,281.6,60.5,281,60.2,280.5z"/>
				<path class="st2" d="M64.5,279.9c0.4-0.7,0.9-1.2,1.5-1.6c0.6-0.4,1.3-0.6,2.1-0.6c0.8,0,1.4,0.2,2,0.5c0.6,0.3,1,0.7,1.3,1.2
					v-1.6h1.5v8.8h-1.5V285c-0.3,0.5-0.7,0.9-1.3,1.3c-0.6,0.3-1.2,0.5-2,0.5c-0.8,0-1.5-0.2-2.1-0.6c-0.6-0.4-1.1-0.9-1.5-1.6
					c-0.4-0.7-0.5-1.5-0.5-2.4C64,281.3,64.2,280.5,64.5,279.9z M71,280.5c-0.3-0.5-0.6-0.9-1.1-1.1s-1-0.4-1.5-0.4s-1,0.1-1.5,0.4
					c-0.4,0.3-0.8,0.6-1.1,1.1c-0.3,0.5-0.4,1.1-0.4,1.7c0,0.7,0.1,1.3,0.4,1.8s0.6,0.9,1.1,1.1c0.4,0.3,0.9,0.4,1.5,0.4
					s1-0.1,1.5-0.4c0.5-0.3,0.8-0.6,1.1-1.1s0.4-1.1,0.4-1.7C71.4,281.6,71.3,281,71,280.5z"/>
				<path class="st2" d="M76.6,286.4c-0.5-0.2-1-0.5-1.3-1c-0.3-0.4-0.5-0.9-0.5-1.4h1.5c0,0.4,0.2,0.8,0.6,1.1s0.9,0.4,1.4,0.4
					c0.6,0,1-0.1,1.3-0.4s0.5-0.6,0.5-0.9c0-0.4-0.2-0.7-0.5-0.9c-0.3-0.2-0.9-0.4-1.6-0.6c-0.7-0.2-1.2-0.3-1.6-0.5
					c-0.4-0.2-0.8-0.4-1.1-0.8c-0.3-0.3-0.4-0.8-0.4-1.4c0-0.4,0.1-0.9,0.4-1.2c0.3-0.4,0.6-0.7,1.1-0.9s1.1-0.3,1.7-0.3
					c1,0,1.8,0.2,2.4,0.7c0.6,0.5,0.9,1.2,1,2h-1.5c0-0.5-0.2-0.8-0.6-1.1s-0.8-0.4-1.4-0.4c-0.5,0-0.9,0.1-1.2,0.3
					c-0.3,0.2-0.5,0.5-0.5,0.9c0,0.3,0.1,0.5,0.3,0.7s0.4,0.3,0.7,0.4c0.3,0.1,0.7,0.2,1.2,0.4c0.6,0.2,1.1,0.3,1.5,0.5
					s0.7,0.4,1,0.7c0.3,0.3,0.4,0.8,0.4,1.3c0,0.5-0.1,0.9-0.4,1.3s-0.6,0.7-1.1,0.9c-0.5,0.2-1,0.3-1.7,0.3
					C77.8,286.8,77.2,286.7,76.6,286.4z"/>
				<path class="st2" d="M89.7,279.1v5.2c0,0.4,0.1,0.7,0.3,0.9c0.2,0.2,0.5,0.3,0.9,0.3H92v1.2h-1.3c-0.8,0-1.4-0.2-1.8-0.6
					c-0.4-0.4-0.6-1-0.6-1.8v-5.2h-1.1v-1.2h1.1v-2.2h1.5v2.2H92v1.2H89.7z"/>
				<path class="st2" d="M101.6,277.9v8.8h-1.5v-1.3c-0.3,0.4-0.7,0.8-1.2,1c-0.5,0.3-1,0.4-1.6,0.4c-0.7,0-1.3-0.1-1.8-0.4
					s-1-0.7-1.3-1.3c-0.3-0.6-0.5-1.3-0.5-2.1v-5.1h1.4v4.9c0,0.9,0.2,1.5,0.7,2s1,0.7,1.8,0.7c0.8,0,1.4-0.2,1.8-0.7
					c0.4-0.5,0.7-1.2,0.7-2.1v-4.8H101.6z"/>
				<path class="st2" d="M105.3,286.4c-0.5-0.2-1-0.5-1.3-1c-0.3-0.4-0.5-0.9-0.5-1.4h1.5c0,0.4,0.2,0.8,0.6,1.1s0.9,0.4,1.4,0.4
					c0.6,0,1-0.1,1.3-0.4s0.5-0.6,0.5-0.9c0-0.4-0.2-0.7-0.5-0.9c-0.3-0.2-0.9-0.4-1.6-0.6c-0.7-0.2-1.2-0.3-1.6-0.5
					c-0.4-0.2-0.8-0.4-1.1-0.8c-0.3-0.3-0.4-0.8-0.4-1.4c0-0.4,0.1-0.9,0.4-1.2c0.3-0.4,0.6-0.7,1.1-0.9s1.1-0.3,1.7-0.3
					c1,0,1.8,0.2,2.4,0.7c0.6,0.5,0.9,1.2,1,2h-1.5c0-0.5-0.2-0.8-0.6-1.1s-0.8-0.4-1.4-0.4c-0.5,0-0.9,0.1-1.2,0.3
					c-0.3,0.2-0.5,0.5-0.5,0.9c0,0.3,0.1,0.5,0.3,0.7s0.4,0.3,0.7,0.4c0.3,0.1,0.7,0.2,1.2,0.4c0.6,0.2,1.1,0.3,1.5,0.5
					s0.7,0.4,1,0.7c0.3,0.3,0.4,0.8,0.4,1.3c0,0.5-0.1,0.9-0.4,1.3s-0.6,0.7-1.1,0.9c-0.5,0.2-1,0.3-1.7,0.3
					C106.5,286.8,105.9,286.7,105.3,286.4z"/>
				<path class="st2" d="M116.7,279.9c0.4-0.7,0.9-1.2,1.5-1.6c0.6-0.4,1.3-0.6,2.1-0.6c0.7,0,1.3,0.2,1.9,0.5
					c0.6,0.3,1,0.7,1.3,1.2v-4.6h1.5v11.8h-1.5V285c-0.3,0.5-0.7,1-1.3,1.3s-1.2,0.5-2,0.5c-0.8,0-1.5-0.2-2.1-0.6
					c-0.6-0.4-1.1-0.9-1.5-1.6c-0.4-0.7-0.5-1.5-0.5-2.4C116.1,281.3,116.3,280.5,116.7,279.9z M123.1,280.5
					c-0.3-0.5-0.6-0.9-1.1-1.1s-1-0.4-1.5-0.4s-1,0.1-1.5,0.4c-0.4,0.3-0.8,0.6-1.1,1.1c-0.3,0.5-0.4,1.1-0.4,1.7
					c0,0.7,0.1,1.3,0.4,1.8s0.6,0.9,1.1,1.1c0.4,0.3,0.9,0.4,1.5,0.4s1-0.1,1.5-0.4c0.5-0.3,0.8-0.6,1.1-1.1s0.4-1.1,0.4-1.7
					C123.5,281.6,123.4,281,123.1,280.5z"/>
				<path class="st2" d="M135.2,277.9v8.8h-1.5v-1.3c-0.3,0.4-0.7,0.8-1.2,1c-0.5,0.3-1,0.4-1.6,0.4c-0.7,0-1.3-0.1-1.8-0.4
					s-1-0.7-1.3-1.3c-0.3-0.6-0.5-1.3-0.5-2.1v-5.1h1.4v4.9c0,0.9,0.2,1.5,0.7,2s1,0.7,1.8,0.7c0.8,0,1.4-0.2,1.8-0.7
					c0.4-0.5,0.7-1.2,0.7-2.1v-4.8H135.2z"/>
				<path class="st2" d="M137.7,279.9c0.4-0.7,0.9-1.2,1.5-1.6c0.6-0.4,1.3-0.6,2.1-0.6c0.7,0,1.3,0.2,1.9,0.5
					c0.6,0.3,1,0.7,1.3,1.2v-4.6h1.5v11.8h-1.5V285c-0.3,0.5-0.7,1-1.3,1.3s-1.2,0.5-2,0.5c-0.8,0-1.5-0.2-2.1-0.6
					c-0.6-0.4-1.1-0.9-1.5-1.6c-0.4-0.7-0.5-1.5-0.5-2.4C137.2,281.3,137.3,280.5,137.7,279.9z M144.2,280.5
					c-0.3-0.5-0.6-0.9-1.1-1.1s-1-0.4-1.5-0.4s-1,0.1-1.5,0.4c-0.4,0.3-0.8,0.6-1.1,1.1c-0.3,0.5-0.4,1.1-0.4,1.7
					c0,0.7,0.1,1.3,0.4,1.8s0.6,0.9,1.1,1.1c0.4,0.3,0.9,0.4,1.5,0.4s1-0.1,1.5-0.4c0.5-0.3,0.8-0.6,1.1-1.1s0.4-1.1,0.4-1.7
					C144.6,281.6,144.5,281,144.2,280.5z"/>
				<path class="st2" d="M148.5,279.9c0.4-0.7,0.9-1.2,1.5-1.6c0.6-0.4,1.3-0.6,2.1-0.6c0.8,0,1.4,0.2,2,0.5c0.6,0.3,1,0.7,1.3,1.2
					v-1.6h1.5v8.8h-1.5V285c-0.3,0.5-0.7,0.9-1.3,1.3c-0.6,0.3-1.2,0.5-2,0.5c-0.8,0-1.5-0.2-2.1-0.6c-0.6-0.4-1.1-0.9-1.5-1.6
					c-0.4-0.7-0.5-1.5-0.5-2.4C148,281.3,148.2,280.5,148.5,279.9z M155,280.5c-0.3-0.5-0.6-0.9-1.1-1.1s-1-0.4-1.5-0.4
					s-1,0.1-1.5,0.4c-0.4,0.3-0.8,0.6-1.1,1.1c-0.3,0.5-0.4,1.1-0.4,1.7c0,0.7,0.1,1.3,0.4,1.8s0.6,0.9,1.1,1.1
					c0.4,0.3,0.9,0.4,1.5,0.4s1-0.1,1.5-0.4c0.5-0.3,0.8-0.6,1.1-1.1s0.4-1.1,0.4-1.7C155.4,281.6,155.3,281,155,280.5z"/>
				<path class="st2" d="M160.6,286.4c-0.5-0.2-1-0.5-1.3-1c-0.3-0.4-0.5-0.9-0.5-1.4h1.5c0,0.4,0.2,0.8,0.6,1.1s0.9,0.4,1.4,0.4
					c0.6,0,1-0.1,1.3-0.4s0.5-0.6,0.5-0.9c0-0.4-0.2-0.7-0.5-0.9c-0.3-0.2-0.9-0.4-1.6-0.6c-0.7-0.2-1.2-0.3-1.6-0.5
					c-0.4-0.2-0.8-0.4-1.1-0.8c-0.3-0.3-0.4-0.8-0.4-1.4c0-0.4,0.1-0.9,0.4-1.2c0.3-0.4,0.6-0.7,1.1-0.9s1.1-0.3,1.7-0.3
					c1,0,1.8,0.2,2.4,0.7c0.6,0.5,0.9,1.2,1,2h-1.5c0-0.5-0.2-0.8-0.6-1.1s-0.8-0.4-1.4-0.4c-0.5,0-0.9,0.1-1.2,0.3
					c-0.3,0.2-0.5,0.5-0.5,0.9c0,0.3,0.1,0.5,0.3,0.7s0.4,0.3,0.7,0.4c0.3,0.1,0.7,0.2,1.2,0.4c0.6,0.2,1.1,0.3,1.5,0.5
					s0.7,0.4,1,0.7c0.3,0.3,0.4,0.8,0.4,1.3c0,0.5-0.1,0.9-0.4,1.3s-0.6,0.7-1.1,0.9c-0.5,0.2-1,0.3-1.7,0.3
					C161.8,286.8,161.2,286.7,160.6,286.4z"/>
				<path class="st2" d="M169.2,284.6l-1.8,4.3h-1l1.2-4.3H169.2z"/>
				<path class="st2" d="M175.1,279.9c0.4-0.7,0.9-1.2,1.5-1.6c0.6-0.4,1.4-0.6,2.2-0.6c1.1,0,2,0.3,2.7,0.8
					c0.7,0.5,1.2,1.2,1.4,2.2h-1.6c-0.2-0.5-0.4-1-0.9-1.3c-0.4-0.3-1-0.5-1.6-0.5c-0.8,0-1.5,0.3-2,0.9c-0.5,0.6-0.8,1.4-0.8,2.4
					c0,1.1,0.3,1.9,0.8,2.4c0.5,0.6,1.2,0.9,2,0.9c0.6,0,1.2-0.1,1.6-0.4s0.7-0.7,0.9-1.3h1.6c-0.2,0.9-0.7,1.6-1.4,2.2
					c-0.7,0.5-1.6,0.8-2.6,0.8c-0.8,0-1.6-0.2-2.2-0.6s-1.1-0.9-1.5-1.6c-0.4-0.7-0.5-1.5-0.5-2.4
					C174.6,281.3,174.8,280.5,175.1,279.9z"/>
				<path class="st2" d="M186.4,286.2c-0.7-0.4-1.2-0.9-1.6-1.6c-0.4-0.7-0.6-1.5-0.6-2.4c0-0.9,0.2-1.7,0.6-2.4
					c0.4-0.7,0.9-1.2,1.6-1.6c0.7-0.4,1.4-0.6,2.3-0.6s1.6,0.2,2.3,0.6c0.7,0.4,1.2,0.9,1.6,1.6s0.6,1.5,0.6,2.4
					c0,0.9-0.2,1.7-0.6,2.4c-0.4,0.7-0.9,1.2-1.6,1.6s-1.4,0.6-2.3,0.6C187.8,286.8,187.1,286.6,186.4,286.2z M190.1,285.1
					c0.5-0.2,0.8-0.6,1.1-1.1c0.3-0.5,0.4-1.1,0.4-1.8c0-0.7-0.1-1.3-0.4-1.8c-0.3-0.5-0.6-0.9-1.1-1.1c-0.4-0.2-0.9-0.4-1.5-0.4
					c-0.5,0-1,0.1-1.5,0.4s-0.8,0.6-1.1,1.1c-0.3,0.5-0.4,1.1-0.4,1.8c0,0.7,0.1,1.3,0.4,1.8c0.3,0.5,0.6,0.9,1,1.1s0.9,0.4,1.4,0.4
					S189.7,285.4,190.1,285.1z"/>
				<path class="st2" d="M201.9,278.7c0.7,0.6,1,1.6,1,2.8v5.2h-1.4v-5c0-0.9-0.2-1.5-0.7-2s-1-0.7-1.8-0.7c-0.8,0-1.4,0.2-1.8,0.7
					c-0.5,0.5-0.7,1.2-0.7,2.1v4.8h-1.5v-8.8h1.5v1.2c0.3-0.4,0.7-0.8,1.2-1c0.5-0.2,1-0.4,1.6-0.4
					C200.4,277.7,201.3,278,201.9,278.7z"/>
				<path class="st2" d="M217.4,277.9v8.8h-1.5v-1.3c-0.3,0.4-0.7,0.8-1.2,1c-0.5,0.3-1,0.4-1.6,0.4c-0.7,0-1.3-0.1-1.8-0.4
					s-1-0.7-1.3-1.3c-0.3-0.6-0.5-1.3-0.5-2.1v-5.1h1.4v4.9c0,0.9,0.2,1.5,0.7,2s1,0.7,1.8,0.7c0.8,0,1.4-0.2,1.8-0.7
					c0.4-0.5,0.7-1.2,0.7-2.1v-4.8H217.4z"/>
				<path class="st2" d="M226.7,278.7c0.7,0.6,1,1.6,1,2.8v5.2h-1.4v-5c0-0.9-0.2-1.5-0.7-2s-1-0.7-1.8-0.7c-0.8,0-1.4,0.2-1.8,0.7
					c-0.5,0.5-0.7,1.2-0.7,2.1v4.8h-1.5v-8.8h1.5v1.2c0.3-0.4,0.7-0.8,1.2-1c0.5-0.2,1-0.4,1.6-0.4C225.2,277.7,226,278,226.7,278.7
					z"/>
				<path class="st2" d="M44.6,303.1v5.2c0,0.4,0.1,0.7,0.3,0.9c0.2,0.2,0.5,0.3,0.9,0.3h1.1v1.2h-1.3c-0.8,0-1.4-0.2-1.8-0.6
					c-0.4-0.4-0.6-1-0.6-1.8v-5.2H42v-1.2h1.1v-2.2h1.5v2.2h2.3v1.2H44.6z"/>
				<path class="st2" d="M51.2,302.1c0.5-0.3,1.1-0.4,1.7-0.4v1.5h-0.4c-1.6,0-2.4,0.9-2.4,2.7v4.8h-1.5v-8.8h1.5v1.4
					C50.4,302.8,50.7,302.4,51.2,302.1z"/>
				<path class="st2" d="M54.6,303.9c0.4-0.7,0.9-1.2,1.5-1.6c0.6-0.4,1.3-0.6,2.1-0.6c0.8,0,1.4,0.2,2,0.5c0.6,0.3,1,0.7,1.3,1.2
					v-1.6H63v8.8h-1.5V309c-0.3,0.5-0.7,0.9-1.3,1.3c-0.6,0.3-1.2,0.5-2,0.5c-0.8,0-1.5-0.2-2.1-0.6c-0.6-0.4-1.1-0.9-1.5-1.6
					c-0.4-0.7-0.5-1.5-0.5-2.4C54.1,305.3,54.3,304.5,54.6,303.9z M61.1,304.5c-0.3-0.5-0.6-0.9-1.1-1.1s-1-0.4-1.5-0.4
					s-1,0.1-1.5,0.4c-0.4,0.3-0.8,0.6-1.1,1.1c-0.3,0.5-0.4,1.1-0.4,1.7c0,0.7,0.1,1.3,0.4,1.8s0.6,0.9,1.1,1.1
					c0.4,0.3,0.9,0.4,1.5,0.4s1-0.1,1.5-0.4c0.5-0.3,0.8-0.6,1.1-1.1s0.4-1.1,0.4-1.7C61.5,305.6,61.4,305,61.1,304.5z"/>
				<path class="st2" d="M67.2,303.1v5.2c0,0.4,0.1,0.7,0.3,0.9c0.2,0.2,0.5,0.3,0.9,0.3h1.1v1.2h-1.3c-0.8,0-1.4-0.2-1.8-0.6
					c-0.4-0.4-0.6-1-0.6-1.8v-5.2h-1.1v-1.2h1.1v-2.2h1.5v2.2h2.3v1.2H67.2z"/>
				<path class="st2" d="M72.9,310.2c-0.7-0.4-1.2-0.9-1.6-1.6c-0.4-0.7-0.6-1.5-0.6-2.4c0-0.9,0.2-1.7,0.6-2.4
					c0.4-0.7,0.9-1.2,1.6-1.6c0.7-0.4,1.4-0.6,2.3-0.6s1.6,0.2,2.3,0.6c0.7,0.4,1.2,0.9,1.6,1.6s0.6,1.5,0.6,2.4
					c0,0.9-0.2,1.7-0.6,2.4c-0.4,0.7-0.9,1.2-1.6,1.6s-1.4,0.6-2.3,0.6C74.3,310.8,73.5,310.6,72.9,310.2z M76.6,309.1
					c0.5-0.2,0.8-0.6,1.1-1.1c0.3-0.5,0.4-1.1,0.4-1.8c0-0.7-0.1-1.3-0.4-1.8c-0.3-0.5-0.6-0.9-1.1-1.1c-0.4-0.2-0.9-0.4-1.5-0.4
					c-0.5,0-1,0.1-1.5,0.4s-0.8,0.6-1.1,1.1c-0.3,0.5-0.4,1.1-0.4,1.8c0,0.7,0.1,1.3,0.4,1.8c0.3,0.5,0.6,0.9,1,1.1s0.9,0.4,1.4,0.4
					S76.1,309.4,76.6,309.1z"/>
				<path class="st2" d="M85.8,303.9c0.4-0.7,0.9-1.2,1.5-1.6c0.6-0.4,1.3-0.6,2.1-0.6c0.8,0,1.4,0.2,2,0.5c0.6,0.3,1,0.7,1.3,1.2
					v-1.6h1.5v8.8h-1.5V309c-0.3,0.5-0.7,0.9-1.3,1.3c-0.6,0.3-1.2,0.5-2,0.5c-0.8,0-1.5-0.2-2.1-0.6c-0.6-0.4-1.1-0.9-1.5-1.6
					c-0.4-0.7-0.5-1.5-0.5-2.4C85.2,305.3,85.4,304.5,85.8,303.9z M92.2,304.5c-0.3-0.5-0.6-0.9-1.1-1.1s-1-0.4-1.5-0.4
					s-1,0.1-1.5,0.4c-0.4,0.3-0.8,0.6-1.1,1.1c-0.3,0.5-0.4,1.1-0.4,1.7c0,0.7,0.1,1.3,0.4,1.8s0.6,0.9,1.1,1.1
					c0.4,0.3,0.9,0.4,1.5,0.4s1-0.1,1.5-0.4c0.5-0.3,0.8-0.6,1.1-1.1s0.4-1.1,0.4-1.7C92.6,305.6,92.5,305,92.2,304.5z"/>
				<path class="st2" d="M109,302.1c0.5,0.3,1,0.7,1.3,1.3c0.3,0.6,0.5,1.3,0.5,2.1v5.2h-1.4v-5c0-0.9-0.2-1.5-0.6-2
					c-0.4-0.5-1-0.7-1.8-0.7c-0.8,0-1.4,0.2-1.8,0.7c-0.4,0.5-0.7,1.2-0.7,2.1v4.8h-1.4v-5c0-0.9-0.2-1.5-0.6-2s-1-0.7-1.8-0.7
					c-0.8,0-1.4,0.2-1.8,0.7c-0.4,0.5-0.7,1.2-0.7,2.1v4.8h-1.5v-8.8H98v1.3c0.3-0.5,0.7-0.8,1.2-1.1c0.5-0.2,1-0.4,1.6-0.4
					c0.7,0,1.4,0.2,2,0.5c0.6,0.3,1,0.8,1.3,1.5c0.2-0.6,0.7-1.1,1.2-1.4c0.6-0.3,1.2-0.5,1.9-0.5
					C107.8,301.7,108.4,301.9,109,302.1z"/>
				<path class="st2" d="M113.1,303.9c0.4-0.7,0.9-1.2,1.5-1.6c0.6-0.4,1.3-0.6,2.1-0.6c0.8,0,1.4,0.2,2,0.5c0.6,0.3,1,0.7,1.3,1.2
					v-1.6h1.5v8.8h-1.5V309c-0.3,0.5-0.7,0.9-1.3,1.3c-0.6,0.3-1.2,0.5-2,0.5c-0.8,0-1.5-0.2-2.1-0.6c-0.6-0.4-1.1-0.9-1.5-1.6
					c-0.4-0.7-0.5-1.5-0.5-2.4C112.5,305.3,112.7,304.5,113.1,303.9z M119.5,304.5c-0.3-0.5-0.6-0.9-1.1-1.1s-1-0.4-1.5-0.4
					s-1,0.1-1.5,0.4c-0.4,0.3-0.8,0.6-1.1,1.1c-0.3,0.5-0.4,1.1-0.4,1.7c0,0.7,0.1,1.3,0.4,1.8s0.6,0.9,1.1,1.1
					c0.4,0.3,0.9,0.4,1.5,0.4s1-0.1,1.5-0.4c0.5-0.3,0.8-0.6,1.1-1.1s0.4-1.1,0.4-1.7C119.9,305.6,119.8,305,119.5,304.5z"/>
				<path class="st2" d="M126.7,302.2c0.6-0.3,1.2-0.5,2-0.5c0.8,0,1.5,0.2,2.1,0.6c0.6,0.4,1.1,0.9,1.5,1.6
					c0.4,0.7,0.5,1.5,0.5,2.4c0,0.9-0.2,1.7-0.5,2.4s-0.9,1.2-1.5,1.6c-0.6,0.4-1.3,0.6-2.1,0.6c-0.8,0-1.4-0.2-2-0.5
					c-0.6-0.3-1-0.8-1.3-1.3v1.6h-1.5v-11.8h1.5v4.7C125.6,303,126.1,302.6,126.7,302.2z M130.9,304.5c-0.3-0.5-0.6-0.9-1.1-1.1
					c-0.5-0.3-1-0.4-1.5-0.4c-0.5,0-1,0.1-1.5,0.4c-0.5,0.3-0.8,0.6-1.1,1.1c-0.3,0.5-0.4,1.1-0.4,1.7c0,0.7,0.1,1.2,0.4,1.7
					c0.3,0.5,0.6,0.9,1.1,1.1c0.5,0.3,0.9,0.4,1.5,0.4c0.5,0,1-0.1,1.5-0.4c0.5-0.3,0.8-0.6,1.1-1.1s0.4-1.1,0.4-1.8
					C131.3,305.6,131.2,305,130.9,304.5z"/>
				<path class="st2" d="M136.2,298.8v11.8h-1.5v-11.8H136.2z"/>
				<path class="st2" d="M146.6,306.8h-7c0.1,0.9,0.3,1.5,0.9,2c0.5,0.5,1.2,0.7,2,0.7c0.6,0,1.2-0.1,1.6-0.4
					c0.4-0.3,0.7-0.7,0.9-1.2h1.6c-0.2,0.8-0.7,1.5-1.4,2.1c-0.7,0.5-1.6,0.8-2.6,0.8c-0.8,0-1.6-0.2-2.2-0.6s-1.2-0.9-1.5-1.6
					c-0.4-0.7-0.6-1.5-0.6-2.4c0-0.9,0.2-1.7,0.5-2.4c0.4-0.7,0.9-1.2,1.5-1.6c0.7-0.4,1.4-0.6,2.3-0.6c0.8,0,1.6,0.2,2.2,0.5
					c0.6,0.4,1.1,0.9,1.5,1.5s0.5,1.4,0.5,2.2C146.6,306.2,146.6,306.5,146.6,306.8z M144.8,304.2c-0.2-0.4-0.6-0.7-1-0.9
					c-0.4-0.2-0.9-0.3-1.4-0.3c-0.7,0-1.4,0.2-1.9,0.7c-0.5,0.5-0.8,1.1-0.9,2h5.5C145.1,305.1,145,304.6,144.8,304.2z"/>
				<path class="st2" d="M160.4,301.9l-5.3,12.9h-1.5l1.7-4.2l-3.5-8.7h1.6l2.8,7.1l2.7-7.1H160.4z"/>
				<path class="st2" d="M166.1,303.9c0.4-0.7,0.9-1.2,1.5-1.6c0.6-0.4,1.4-0.6,2.2-0.6c1.1,0,2,0.3,2.7,0.8
					c0.7,0.5,1.2,1.2,1.4,2.2h-1.6c-0.2-0.5-0.4-1-0.9-1.3c-0.4-0.3-1-0.5-1.6-0.5c-0.8,0-1.5,0.3-2,0.9c-0.5,0.6-0.8,1.4-0.8,2.4
					c0,1.1,0.3,1.9,0.8,2.4c0.5,0.6,1.2,0.9,2,0.9c0.6,0,1.2-0.1,1.6-0.4s0.7-0.7,0.9-1.3h1.6c-0.2,0.9-0.7,1.6-1.4,2.2
					c-0.7,0.5-1.6,0.8-2.6,0.8c-0.8,0-1.6-0.2-2.2-0.6s-1.1-0.9-1.5-1.6c-0.4-0.7-0.5-1.5-0.5-2.4
					C165.6,305.3,165.7,304.5,166.1,303.9z"/>
				<path class="st2" d="M177.4,310.2c-0.7-0.4-1.2-0.9-1.6-1.6c-0.4-0.7-0.6-1.5-0.6-2.4c0-0.9,0.2-1.7,0.6-2.4
					c0.4-0.7,0.9-1.2,1.6-1.6c0.7-0.4,1.4-0.6,2.3-0.6s1.6,0.2,2.3,0.6c0.7,0.4,1.2,0.9,1.6,1.6s0.6,1.5,0.6,2.4
					c0,0.9-0.2,1.7-0.6,2.4c-0.4,0.7-0.9,1.2-1.6,1.6s-1.4,0.6-2.3,0.6C178.8,310.8,178.1,310.6,177.4,310.2z M181.1,309.1
					c0.5-0.2,0.8-0.6,1.1-1.1c0.3-0.5,0.4-1.1,0.4-1.8c0-0.7-0.1-1.3-0.4-1.8c-0.3-0.5-0.6-0.9-1.1-1.1c-0.4-0.2-0.9-0.4-1.5-0.4
					c-0.5,0-1,0.1-1.5,0.4s-0.8,0.6-1.1,1.1c-0.3,0.5-0.4,1.1-0.4,1.8c0,0.7,0.1,1.3,0.4,1.8c0.3,0.5,0.6,0.9,1,1.1s0.9,0.4,1.4,0.4
					S180.7,309.4,181.1,309.1z"/>
				<path class="st2" d="M188.6,302.1c0.5-0.3,1.1-0.4,1.7-0.4v1.5H190c-1.6,0-2.4,0.9-2.4,2.7v4.8h-1.5v-8.8h1.5v1.4
					C187.8,302.8,188.1,302.4,188.6,302.1z"/>
				<path class="st2" d="M192,303.9c0.4-0.7,0.9-1.2,1.5-1.6c0.6-0.4,1.3-0.6,2.1-0.6c0.7,0,1.3,0.2,1.9,0.5c0.6,0.3,1,0.7,1.3,1.2
					v-4.6h1.5v11.8h-1.5V309c-0.3,0.5-0.7,1-1.3,1.3s-1.2,0.5-2,0.5c-0.8,0-1.5-0.2-2.1-0.6c-0.6-0.4-1.1-0.9-1.5-1.6
					c-0.4-0.7-0.5-1.5-0.5-2.4C191.5,305.3,191.7,304.5,192,303.9z M198.5,304.5c-0.3-0.5-0.6-0.9-1.1-1.1s-1-0.4-1.5-0.4
					s-1,0.1-1.5,0.4c-0.4,0.3-0.8,0.6-1.1,1.1c-0.3,0.5-0.4,1.1-0.4,1.7c0,0.7,0.1,1.3,0.4,1.8s0.6,0.9,1.1,1.1
					c0.4,0.3,0.9,0.4,1.5,0.4s1-0.1,1.5-0.4c0.5-0.3,0.8-0.6,1.1-1.1s0.4-1.1,0.4-1.7C198.9,305.6,198.8,305,198.5,304.5z"/>
				<path class="st2" d="M202.9,300.2c-0.2-0.2-0.3-0.4-0.3-0.7s0.1-0.5,0.3-0.7c0.2-0.2,0.4-0.3,0.7-0.3c0.3,0,0.5,0.1,0.7,0.3
					c0.2,0.2,0.3,0.4,0.3,0.7s-0.1,0.5-0.3,0.7c-0.2,0.2-0.4,0.3-0.7,0.3C203.3,300.5,203.1,300.4,202.9,300.2z M204.3,301.9v8.8
					h-1.5v-8.8H204.3z"/>
				<path class="st2" d="M206.8,303.9c0.4-0.7,0.9-1.2,1.5-1.6c0.6-0.4,1.3-0.6,2.1-0.6c0.8,0,1.4,0.2,2,0.5c0.6,0.3,1,0.7,1.3,1.2
					v-1.6h1.5v8.8h-1.5V309c-0.3,0.5-0.7,0.9-1.3,1.3c-0.6,0.3-1.2,0.5-2,0.5c-0.8,0-1.5-0.2-2.1-0.6c-0.6-0.4-1.1-0.9-1.5-1.6
					c-0.4-0.7-0.5-1.5-0.5-2.4C206.2,305.3,206.4,304.5,206.8,303.9z M213.3,304.5c-0.3-0.5-0.6-0.9-1.1-1.1s-1-0.4-1.5-0.4
					s-1,0.1-1.5,0.4c-0.4,0.3-0.8,0.6-1.1,1.1c-0.3,0.5-0.4,1.1-0.4,1.7c0,0.7,0.1,1.3,0.4,1.8s0.6,0.9,1.1,1.1
					c0.4,0.3,0.9,0.4,1.5,0.4s1-0.1,1.5-0.4c0.5-0.3,0.8-0.6,1.1-1.1s0.4-1.1,0.4-1.7C213.7,305.6,213.5,305,213.3,304.5z"/>
				<path class="st2" d="M219.1,298.8v11.8h-1.5v-11.8H219.1z"/>
				<path class="st2" d="M221.3,310.5c-0.2-0.2-0.3-0.4-0.3-0.7c0-0.3,0.1-0.5,0.3-0.7c0.2-0.2,0.4-0.3,0.7-0.3
					c0.3,0,0.5,0.1,0.7,0.3c0.2,0.2,0.3,0.4,0.3,0.7c0,0.3-0.1,0.5-0.3,0.7c-0.2,0.2-0.4,0.3-0.7,0.3
					C221.7,310.7,221.5,310.6,221.3,310.5z"/>
			</g>
		</g>
		<g>
			<path class="st3" d="M122.9,92.1c0-0.3-0.1-0.7-0.1-1h0c0-0.3,0-0.7,0-1v-3.3c0-10.8,8.6-19.6,19.3-19.9
				c-1.6-9.4-9.8-16.5-19.7-16.5h-1.1h-19.7h-1.1c-11,0-19.9,8.9-19.9,19.9v3.3c0,0.3,0,0.7,0,1h0c0,0.4,0.1,0.7,0.1,1c0,0,0,0,0,0
				c0.5,5,2.9,9.5,6.4,12.7c0.1,0.1,0.3,0.2,0.4,0.3c0.3,0.3,0.7,0.6,1,0.8c0.2,0.2,0.5,0.4,0.7,0.5c0.3,0.2,0.5,0.3,0.8,0.5
				c0.3,0.2,0.6,0.4,0.9,0.5c0.2,0.1,0.5,0.2,0.7,0.4c0.4,0.2,0.7,0.4,1.1,0.5c0.2,0.1,0.4,0.2,0.6,0.2c0.4,0.2,0.8,0.3,1.3,0.4
				c0.2,0,0.3,0.1,0.5,0.1c0.5,0.1,1,0.3,1.4,0.4c0.1,0,0.2,0,0.3,0.1c0.5,0.1,1.1,0.2,1.6,0.2c0.1,0,0.1,0,0.2,0
				c0.6,0.1,1.2,0.1,1.8,0.1c0,0,0,0,0,0h0h4.2h3.6v6.8c0,0.7,0.7,1.2,1.3,1c2.7-0.8,8.6-3,8.6-7.8h4.2h0c0,0,0,0,0,0
				c0.2,0,0.4,0,0.6,0C123,93,123,92.6,122.9,92.1C122.9,92.1,122.9,92.1,122.9,92.1z"/>
			<path class="st4" d="M184.6,86.8c0-11-8.9-19.9-19.9-19.9h-1.1h-19.7h-1.1c-0.2,0-0.4,0-0.6,0c0.2,1.1,0.3,2.2,0.3,3.4v3.3
				c0,0.3,0,0.7,0,1h0c0,0.4-0.1,0.7-0.1,1c0,0,0,0,0,0c-0.5,5-2.9,9.5-6.4,12.7c-0.1,0.1-0.3,0.2-0.4,0.3c-0.3,0.3-0.7,0.6-1,0.8
				c-0.2,0.2-0.5,0.4-0.7,0.5c-0.3,0.2-0.5,0.3-0.8,0.5c-0.3,0.2-0.6,0.4-0.9,0.5c-0.2,0.1-0.4,0.2-0.7,0.4
				c-0.4,0.2-0.7,0.4-1.1,0.5c-0.2,0.1-0.4,0.2-0.6,0.2c-0.4,0.2-0.8,0.3-1.3,0.5c-0.2,0-0.3,0.1-0.5,0.1c-0.5,0.1-1,0.3-1.4,0.4
				c-0.1,0-0.2,0-0.3,0.1c-0.5,0.1-1.1,0.2-1.6,0.2c-0.1,0-0.1,0-0.2,0c-0.4,0-0.8,0-1.3,0.1c0.8,4.5,3,8.4,6.2,11.4
				c0.1,0.1,0.3,0.2,0.4,0.3c0.3,0.3,0.7,0.6,1,0.8c0.2,0.2,0.5,0.4,0.7,0.5c0.3,0.2,0.5,0.3,0.8,0.5c0.3,0.2,0.6,0.4,0.9,0.5
				c0.2,0.1,0.4,0.2,0.7,0.4c0.4,0.2,0.7,0.4,1.1,0.5c0.2,0.1,0.4,0.2,0.6,0.2c0.4,0.2,0.8,0.3,1.3,0.5c0.2,0,0.3,0.1,0.5,0.1
				c0.5,0.1,1,0.3,1.4,0.4c0.1,0,0.2,0,0.3,0.1c0.5,0.1,1.1,0.2,1.6,0.2c0.1,0,0.1,0,0.2,0c0.6,0.1,1.2,0.1,1.8,0.1c0,0,0,0,0,0h0
				h4.2c0,4.8,5.9,7,8.6,7.8c0.7,0.2,1.3-0.3,1.3-1V110h3.6h4.2h0c0,0,0,0,0,0c0.6,0,1.2,0,1.8-0.1c0.1,0,0.1,0,0.2,0
				c0.6-0.1,1.1-0.1,1.6-0.2c0.1,0,0.2,0,0.3-0.1c0.5-0.1,1-0.2,1.4-0.4c0.2,0,0.3-0.1,0.5-0.1c0.4-0.1,0.9-0.3,1.3-0.4
				c0.2-0.1,0.4-0.1,0.6-0.2c0.4-0.2,0.7-0.3,1.1-0.5c0.2-0.1,0.5-0.2,0.7-0.4c0.3-0.2,0.6-0.4,0.9-0.5c0.3-0.2,0.5-0.3,0.8-0.5
				c0.2-0.2,0.5-0.3,0.7-0.5c0.4-0.3,0.7-0.5,1-0.8c0.1-0.1,0.3-0.2,0.4-0.3c3.5-3.2,5.9-7.7,6.4-12.7c0,0,0,0,0,0
				c0-0.3,0.1-0.7,0.1-1h0c0-0.3,0-0.7,0-1V86.8z"/>
			<path class="st5" d="M124.6,93.4c0.6-0.1,1.1-0.1,1.6-0.2c0.1,0,0.2,0,0.3-0.1c0.5-0.1,1-0.2,1.4-0.4c0.2,0,0.3-0.1,0.5-0.1
				c0.4-0.1,0.9-0.3,1.3-0.5c0.2-0.1,0.4-0.1,0.6-0.2c0.4-0.2,0.7-0.3,1.1-0.5c0.2-0.1,0.5-0.2,0.7-0.4c0.3-0.2,0.6-0.4,0.9-0.5
				c0.3-0.2,0.5-0.3,0.8-0.5c0.2-0.2,0.5-0.3,0.7-0.5c0.4-0.3,0.7-0.5,1-0.8c0.1-0.1,0.3-0.2,0.4-0.3c3.5-3.2,5.9-7.7,6.4-12.7
				c0,0,0,0,0,0c0-0.3,0.1-0.7,0.1-1h0c0-0.3,0-0.7,0-1v-3.3c0-1.2-0.1-2.3-0.3-3.4c-10.7,0.3-19.3,9.1-19.3,19.9v3.3
				c0,0.3,0,0.7,0,1h0c0,0.4,0.1,0.7,0.1,1c0,0,0,0,0,0c0,0.5,0.1,0.9,0.2,1.3c0.4,0,0.9,0,1.3-0.1
				C124.4,93.4,124.5,93.4,124.6,93.4z"/>
		</g>
	</g>
</g>
</svg>
