<?xml version="1.0" encoding="utf-8"?>
<!-- Generator: Adobe Illustrator 24.1.1, SVG Export Plug-In . SVG Version: 6.00 Build 0)  -->
<svg version="1.1" id="Capa_1" xmlns="http://www.w3.org/2000/svg" xmlns:xlink="http://www.w3.org/1999/xlink" x="0px" y="0px"
	 viewBox="0 0 265.3 362" style="enable-background:new 0 0 265.3 362;" xml:space="preserve">
<style type="text/css">
	.st0{fill:#FFFFFF;}
	.st1{fill:none;}
	.st2{enable-background:new    ;}
	.st3{fill:#007CC3;}
	.st4{fill:#808080;}
	.st5{fill:#D36F62;}
	.st6{fill:#F8C5B0;}
	.st7{fill:#F7A6A9;}
</style>
<rect class="st0" width="265.3" height="362"/>
<g>
	<g>
		<rect x="23" y="139.4" class="st1" width="219.3" height="180.9"/>
		<g class="st2">
			<path class="st3" d="M34.1,142.4v14.5h-3.1v-14.5h-4.1v-3h11.4v3H34.1z"/>
			<path class="st3" d="M45.8,152.2l3.1,0.3v0c0,2.6-1.9,4.6-4.6,4.6h-0.8c-2.7,0-4.6-1.9-4.6-4.6v-4c0-2.6,1.9-4.6,4.6-4.6h0.8
				c2.7,0,4.6,2,4.6,4.6v2.6H42v1.5c0,0.8,0.7,1.5,1.5,1.5h0.8c0.8,0,1.5-0.7,1.5-1.5V152.2z M42,149.1h3.8v-0.8
				c0-0.8-0.7-1.5-1.5-1.5h-0.8c-0.8,0-1.5,0.7-1.5,1.5V149.1z"/>
			<path class="st3" d="M61.5,153.3c0,2.2-1.9,3.8-4.5,3.8h-0.7c-2.7,0-4.6-1.8-4.6-4.3v-0.1l3.1-0.3v0.5c0,0.8,0.5,1.3,1.4,1.3h1.1
				c0.7,0,1.2-0.4,1.2-1c0-2.3-6.6-0.3-6.6-5.5c0-2.2,1.9-3.8,4.5-3.8h0.5c2.6,0,4.6,1.8,4.6,4.3v0.1l-3.1,0.3v-0.5
				c0-0.8-0.6-1.3-1.4-1.3h-0.8c-0.7,0-1.3,0.4-1.3,1C54.8,150,61.5,148.1,61.5,153.3z"/>
			<path class="st3" d="M69.5,156.9c-2.7,0-4.1-1.4-4.1-4.1V147h-2.2v-2.9h2.2v-3l3.1-0.5v3.5h2.9v2.9h-2.9v5.6
				c0,0.8,0.4,1.3,1.2,1.3h1.7v3H69.5z"/>
			<path class="st3" d="M87.2,155.4c-0.8,1.1-1.9,1.7-3.2,1.7h0c-2.8,0-4.3-1.6-4.3-4.6v-4.1c0-2.9,1.5-4.6,4.3-4.6h0
				c0.9,0,1.7,0.3,2.5,0.9v-5.4h3.1v17.5h-1.4L87.2,155.4z M86.5,148.3c0-0.9-0.6-1.5-1.5-1.5h-0.8c-0.9,0-1.5,0.6-1.5,1.5v4.3
				c0,0.9,0.6,1.5,1.5,1.5H85c0.9,0,1.5-0.6,1.5-1.5V148.3z"/>
			<path class="st3" d="M99.4,152.2l3.1,0.3v0c0,2.6-1.9,4.6-4.6,4.6h-0.8c-2.7,0-4.6-1.9-4.6-4.6v-4c0-2.6,1.9-4.6,4.6-4.6h0.8
				c2.7,0,4.6,2,4.6,4.6v2.6h-6.8v1.5c0,0.8,0.7,1.5,1.5,1.5h0.8c0.8,0,1.5-0.7,1.5-1.5V152.2z M95.6,149.1h3.8v-0.8
				c0-0.8-0.7-1.5-1.5-1.5h-0.8c-0.8,0-1.5,0.7-1.5,1.5V149.1z"/>
			<path class="st3" d="M113.6,145.5c0.8-1,1.9-1.7,3.2-1.7h0c2.8,0,4.3,1.6,4.3,4.6v4.1c0,2.9-1.5,4.6-4.3,4.6h0
				c-1,0-1.8-0.3-2.5-0.9v5.6h-3.1v-17.7h1.4L113.6,145.5z M114.3,152.6c0,0.9,0.6,1.5,1.5,1.5h0.8c0.9,0,1.5-0.6,1.5-1.5v-4.3
				c0-0.9-0.6-1.5-1.5-1.5h-0.8c-0.9,0-1.5,0.6-1.5,1.5V152.6z"/>
			<path class="st3" d="M131.5,155.5c-0.7,1-1.9,1.6-3.4,1.6H128c-2.6,0-4.1-1.5-4.1-3.6V153c0-2.1,1.5-3.5,4.1-3.5h2.7v-1.3
				c0-0.7-0.7-1.3-1.5-1.3h-0.6c-0.8,0-1.5,0.6-1.5,1.3v0.5l-3.1-0.3v-0.1c0-2.5,1.9-4.4,4.6-4.4h0.6c2.7,0,4.6,1.9,4.6,4.4v8.6
				h-1.4L131.5,155.5z M127,153.1c0,0.7,0.5,1.2,1.3,1.2h1.1c0.7,0,1.3-0.5,1.3-1.2v-1.3h-2.4C127.5,151.8,127,152.3,127,153.1
				L127,153.1z"/>
			<path class="st3" d="M139.2,145.5c0.8-1,1.9-1.7,3.2-1.7h0c2.8,0,4.3,1.6,4.3,4.6v4.1c0,2.9-1.5,4.6-4.3,4.6h0
				c-1,0-1.8-0.3-2.5-0.9v5.6h-3.1v-17.7h1.4L139.2,145.5z M140,152.6c0,0.9,0.6,1.5,1.5,1.5h0.8c0.9,0,1.5-0.6,1.5-1.5v-4.3
				c0-0.9-0.6-1.5-1.5-1.5h-0.8c-0.9,0-1.5,0.6-1.5,1.5V152.6z"/>
			<path class="st3" d="M157.2,155.5c-0.7,1-1.9,1.6-3.4,1.6h-0.1c-2.6,0-4.1-1.5-4.1-3.6V153c0-2.1,1.5-3.5,4.1-3.5h2.7v-1.3
				c0-0.7-0.7-1.3-1.5-1.3h-0.6c-0.8,0-1.5,0.6-1.5,1.3v0.5l-3.1-0.3v-0.1c0-2.5,1.9-4.4,4.6-4.4h0.6c2.7,0,4.6,1.9,4.6,4.4v8.6H158
				L157.2,155.5z M152.7,153.1c0,0.7,0.5,1.2,1.3,1.2h1.2c0.7,0,1.3-0.5,1.3-1.2v-1.3H154C153.2,151.8,152.7,152.3,152.7,153.1
				L152.7,153.1z"/>
			<path class="st3" d="M164.9,145.5c0.8-1,1.9-1.7,3.2-1.7h0c2.8,0,4.3,1.6,4.3,4.6v8.4h-3.1v-8.5c0-0.9-0.6-1.5-1.5-1.5h-0.8
				c-0.9,0-1.5,0.6-1.5,1.5v8.5h-3.1v-12.7h1.4L164.9,145.5z"/>
			<path class="st3" d="M175.6,139.4h3.1v2.6h-3.1V139.4z M175.6,156.9v-12.7h3.1v12.7H175.6z"/>
			<path class="st3" d="M188.6,152l3.1,0.3v0.2c0,2.6-1.9,4.6-4.6,4.6h-0.8c-2.7,0-4.6-1.9-4.6-4.6v-4c0-2.6,1.9-4.6,4.6-4.6h0.8
				c2.7,0,4.6,2,4.6,4.6v0.2l-3.1,0.3v-0.6c0-0.8-0.7-1.5-1.5-1.5h-0.8c-0.8,0-1.5,0.7-1.5,1.5v4.2c0,0.8,0.7,1.5,1.5,1.5h0.8
				c0.8,0,1.5-0.7,1.5-1.5V152z"/>
			<path class="st3" d="M204.3,152.5c0,2.6-1.9,4.6-4.6,4.6H199c-2.7,0-4.6-1.9-4.6-4.6v-4c0-2.6,1.9-4.6,4.6-4.6h0.8
				c2.7,0,4.6,2,4.6,4.6V152.5z M201.2,148.4c0-0.8-0.7-1.5-1.5-1.5H199c-0.8,0-1.5,0.7-1.5,1.5v4.2c0,0.8,0.7,1.5,1.5,1.5h0.8
				c0.8,0,1.5-0.7,1.5-1.5V148.4z"/>
			<path class="st3" d="M207.3,156.9v-17.5h3.1v17.5H207.3z"/>
			<path class="st3" d="M221,155.5c-0.7,1-1.9,1.6-3.4,1.6h0c-2.6,0-4.1-1.5-4.1-3.6V153c0-2.1,1.5-3.5,4.1-3.5h2.7v-1.3
				c0-0.7-0.7-1.3-1.5-1.3h-0.6c-0.8,0-1.5,0.6-1.5,1.3v0.5l-3.1-0.3v-0.1c0-2.5,1.9-4.4,4.6-4.4h0.6c2.7,0,4.6,1.9,4.6,4.4v8.6
				h-1.4L221,155.5z M216.5,153.1c0,0.7,0.5,1.2,1.3,1.2h1.1c0.7,0,1.3-0.5,1.3-1.2v-1.3h-2.4C217,151.8,216.5,152.3,216.5,153.1
				L216.5,153.1z"/>
			<path class="st3" d="M233.8,155.4c-0.8,1.1-1.9,1.7-3.2,1.7h0c-2.8,0-4.3-1.6-4.3-4.6v-8.4h3.1v8.5c0,0.9,0.6,1.5,1.5,1.5h0.8
				c0.9,0,1.5-0.6,1.5-1.5v-8.5h3.1v12.7h-1.4L233.8,155.4z"/>
		</g>
		<g class="st2">
			<path class="st4" d="M48,200.1l-2.7-4.6h-1.8v4.6h-1.5v-11.2h3.6c0.8,0,1.6,0.1,2.1,0.4c0.6,0.3,1,0.7,1.3,1.2
				c0.3,0.5,0.4,1.1,0.4,1.7c0,0.8-0.2,1.4-0.7,2c-0.4,0.6-1.1,1-2,1.2l2.8,4.7H48z M43.6,194.3h2.1c0.8,0,1.4-0.2,1.8-0.6
				c0.4-0.4,0.6-0.9,0.6-1.6c0-0.7-0.2-1.2-0.6-1.5c-0.4-0.4-1-0.5-1.8-0.5h-2.1V194.3z"/>
			<path class="st4" d="M59.8,196.2h-7c0.1,0.9,0.3,1.5,0.9,2c0.5,0.5,1.2,0.7,2,0.7c0.6,0,1.2-0.1,1.6-0.4c0.4-0.3,0.7-0.7,0.9-1.2
				h1.6c-0.2,0.8-0.7,1.5-1.4,2.1c-0.7,0.5-1.6,0.8-2.6,0.8c-0.8,0-1.6-0.2-2.2-0.6c-0.7-0.4-1.2-0.9-1.5-1.6
				c-0.4-0.7-0.6-1.5-0.6-2.4c0-0.9,0.2-1.7,0.5-2.4s0.9-1.2,1.5-1.6c0.7-0.4,1.4-0.6,2.3-0.6c0.8,0,1.6,0.2,2.2,0.5
				c0.6,0.4,1.1,0.9,1.5,1.5s0.5,1.4,0.5,2.2C59.8,195.6,59.8,195.9,59.8,196.2z M58,193.6c-0.2-0.4-0.6-0.7-1-0.9s-0.9-0.3-1.4-0.3
				c-0.7,0-1.4,0.2-1.9,0.7c-0.5,0.5-0.8,1.1-0.9,2h5.5C58.3,194.5,58.2,194,58,193.6z"/>
			<path class="st4" d="M61.8,193.3c0.4-0.7,0.9-1.2,1.5-1.6c0.6-0.4,1.4-0.6,2.2-0.6c1.1,0,2,0.3,2.7,0.8c0.7,0.5,1.2,1.2,1.4,2.2
				H68c-0.1-0.5-0.4-1-0.9-1.3c-0.4-0.3-1-0.5-1.6-0.5c-0.8,0-1.5,0.3-2,0.9c-0.5,0.6-0.8,1.4-0.8,2.4c0,1.1,0.3,1.9,0.8,2.4
				c0.5,0.6,1.2,0.9,2,0.9c0.6,0,1.2-0.1,1.6-0.4c0.4-0.3,0.7-0.7,0.9-1.3h1.6c-0.2,0.9-0.7,1.6-1.4,2.2c-0.7,0.5-1.6,0.8-2.6,0.8
				c-0.8,0-1.6-0.2-2.2-0.6c-0.6-0.4-1.1-0.9-1.5-1.6s-0.5-1.5-0.5-2.4C61.2,194.8,61.4,194,61.8,193.3z"/>
			<path class="st4" d="M73.1,199.7c-0.7-0.4-1.2-0.9-1.6-1.6c-0.4-0.7-0.6-1.5-0.6-2.4c0-0.9,0.2-1.7,0.6-2.4
				c0.4-0.7,0.9-1.2,1.6-1.6c0.7-0.4,1.4-0.6,2.3-0.6s1.6,0.2,2.3,0.6c0.7,0.4,1.2,0.9,1.6,1.6c0.4,0.7,0.6,1.5,0.6,2.4
				c0,0.9-0.2,1.7-0.6,2.4c-0.4,0.7-0.9,1.2-1.6,1.6c-0.7,0.4-1.4,0.6-2.3,0.6C74.5,200.2,73.7,200,73.1,199.7z M76.8,198.6
				c0.5-0.2,0.8-0.6,1.1-1.1c0.3-0.5,0.4-1.1,0.4-1.8c0-0.7-0.1-1.3-0.4-1.8c-0.3-0.5-0.6-0.9-1.1-1.1c-0.4-0.2-0.9-0.4-1.5-0.4
				c-0.5,0-1,0.1-1.5,0.4c-0.4,0.2-0.8,0.6-1.1,1.1c-0.3,0.5-0.4,1.1-0.4,1.8c0,0.7,0.1,1.3,0.4,1.8s0.6,0.9,1,1.1
				c0.4,0.2,0.9,0.4,1.4,0.4C75.8,198.9,76.3,198.8,76.8,198.6z"/>
			<path class="st4" d="M83.2,188.2v11.8h-1.5v-11.8H83.2z"/>
			<path class="st4" d="M93.6,196.2h-7c0.1,0.9,0.3,1.5,0.9,2c0.5,0.5,1.2,0.7,2,0.7c0.6,0,1.2-0.1,1.6-0.4c0.4-0.3,0.7-0.7,0.9-1.2
				h1.6c-0.2,0.8-0.7,1.5-1.4,2.1c-0.7,0.5-1.6,0.8-2.6,0.8c-0.8,0-1.6-0.2-2.2-0.6c-0.7-0.4-1.2-0.9-1.5-1.6
				c-0.4-0.7-0.6-1.5-0.6-2.4c0-0.9,0.2-1.7,0.5-2.4s0.9-1.2,1.5-1.6c0.7-0.4,1.4-0.6,2.3-0.6c0.8,0,1.6,0.2,2.2,0.5
				c0.6,0.4,1.1,0.9,1.5,1.5s0.5,1.4,0.5,2.2C93.6,195.6,93.6,195.9,93.6,196.2z M91.8,193.6c-0.2-0.4-0.6-0.7-1-0.9
				s-0.9-0.3-1.4-0.3c-0.7,0-1.4,0.2-1.9,0.7c-0.5,0.5-0.8,1.1-0.9,2h5.5C92.1,194.5,92,194,91.8,193.6z"/>
			<path class="st4" d="M95.6,193.3c0.4-0.7,0.9-1.2,1.5-1.6c0.6-0.4,1.4-0.6,2.2-0.6c1.1,0,2,0.3,2.7,0.8c0.7,0.5,1.2,1.2,1.4,2.2
				h-1.6c-0.1-0.5-0.4-1-0.9-1.3c-0.4-0.3-1-0.5-1.6-0.5c-0.8,0-1.5,0.3-2,0.9c-0.5,0.6-0.8,1.4-0.8,2.4c0,1.1,0.3,1.9,0.8,2.4
				c0.5,0.6,1.2,0.9,2,0.9c0.6,0,1.2-0.1,1.6-0.4c0.4-0.3,0.7-0.7,0.9-1.3h1.6c-0.2,0.9-0.7,1.6-1.4,2.2c-0.7,0.5-1.6,0.8-2.6,0.8
				c-0.8,0-1.6-0.2-2.2-0.6c-0.6-0.4-1.1-0.9-1.5-1.6s-0.5-1.5-0.5-2.4C95,194.8,95.2,194,95.6,193.3z"/>
			<path class="st4" d="M105.3,193.3c0.4-0.7,0.9-1.2,1.5-1.6c0.6-0.4,1.4-0.6,2.2-0.6c1.1,0,2,0.3,2.7,0.8c0.7,0.5,1.2,1.2,1.4,2.2
				h-1.6c-0.1-0.5-0.4-1-0.9-1.3c-0.4-0.3-1-0.5-1.6-0.5c-0.8,0-1.5,0.3-2,0.9c-0.5,0.6-0.8,1.4-0.8,2.4c0,1.1,0.3,1.9,0.8,2.4
				c0.5,0.6,1.2,0.9,2,0.9c0.6,0,1.2-0.1,1.6-0.4c0.4-0.3,0.7-0.7,0.9-1.3h1.6c-0.2,0.9-0.7,1.6-1.4,2.2c-0.7,0.5-1.6,0.8-2.6,0.8
				c-0.8,0-1.6-0.2-2.2-0.6c-0.6-0.4-1.1-0.9-1.5-1.6s-0.5-1.5-0.5-2.4C104.7,194.8,104.9,194,105.3,193.3z"/>
			<path class="st4" d="M115,189.6c-0.2-0.2-0.3-0.4-0.3-0.7s0.1-0.5,0.3-0.7c0.2-0.2,0.4-0.3,0.7-0.3c0.3,0,0.5,0.1,0.7,0.3
				c0.2,0.2,0.3,0.4,0.3,0.7s-0.1,0.5-0.3,0.7c-0.2,0.2-0.4,0.3-0.7,0.3C115.5,189.9,115.2,189.8,115,189.6z M116.4,191.3v8.8H115
				v-8.8H116.4z"/>
			<path class="st4" d="M120.5,199.7c-0.7-0.4-1.2-0.9-1.6-1.6c-0.4-0.7-0.6-1.5-0.6-2.4c0-0.9,0.2-1.7,0.6-2.4
				c0.4-0.7,0.9-1.2,1.6-1.6c0.7-0.4,1.4-0.6,2.3-0.6s1.6,0.2,2.3,0.6c0.7,0.4,1.2,0.9,1.6,1.6c0.4,0.7,0.6,1.5,0.6,2.4
				c0,0.9-0.2,1.7-0.6,2.4c-0.4,0.7-0.9,1.2-1.6,1.6c-0.7,0.4-1.4,0.6-2.3,0.6C121.9,200.2,121.2,200,120.5,199.7z M124.2,198.6
				c0.5-0.2,0.8-0.6,1.1-1.1c0.3-0.5,0.4-1.1,0.4-1.8c0-0.7-0.1-1.3-0.4-1.8c-0.3-0.5-0.6-0.9-1.1-1.1c-0.4-0.2-0.9-0.4-1.5-0.4
				c-0.5,0-1,0.1-1.5,0.4c-0.4,0.2-0.8,0.6-1.1,1.1c-0.3,0.5-0.4,1.1-0.4,1.8c0,0.7,0.1,1.3,0.4,1.8s0.6,0.9,1,1.1
				c0.4,0.2,0.9,0.4,1.4,0.4C123.3,198.9,123.8,198.8,124.2,198.6z M124.4,188.7l-3.4,1.8v-1.1l3.4-2V188.7z"/>
			<path class="st4" d="M136,192.1c0.7,0.6,1,1.6,1,2.8v5.2h-1.4v-5c0-0.9-0.2-1.5-0.7-2c-0.4-0.5-1-0.7-1.8-0.7
				c-0.8,0-1.4,0.2-1.8,0.7c-0.5,0.5-0.7,1.2-0.7,2.1v4.8h-1.5v-8.8h1.5v1.2c0.3-0.4,0.7-0.8,1.2-1c0.5-0.2,1-0.4,1.6-0.4
				C134.5,191.1,135.4,191.5,136,192.1z"/>
			<path class="st4" d="M143.7,193.3c0.4-0.7,0.9-1.2,1.5-1.6c0.6-0.4,1.3-0.6,2.1-0.6c0.7,0,1.3,0.2,1.9,0.5c0.6,0.3,1,0.7,1.3,1.2
				v-4.6h1.5v11.8h-1.5v-1.6c-0.3,0.5-0.7,1-1.3,1.3s-1.2,0.5-2,0.5c-0.8,0-1.5-0.2-2.1-0.6c-0.6-0.4-1.1-0.9-1.5-1.6
				c-0.4-0.7-0.5-1.5-0.5-2.4C143.1,194.8,143.3,194,143.7,193.3z M150.2,193.9c-0.3-0.5-0.6-0.9-1.1-1.1c-0.5-0.3-1-0.4-1.5-0.4
				c-0.5,0-1,0.1-1.5,0.4s-0.8,0.6-1.1,1.1c-0.3,0.5-0.4,1.1-0.4,1.7c0,0.7,0.1,1.3,0.4,1.8s0.6,0.9,1.1,1.1
				c0.4,0.3,0.9,0.4,1.5,0.4c0.5,0,1-0.1,1.5-0.4c0.5-0.3,0.8-0.6,1.1-1.1s0.4-1.1,0.4-1.7C150.6,195,150.4,194.4,150.2,193.9z"/>
			<path class="st4" d="M162.4,196.2h-7c0.1,0.9,0.3,1.5,0.9,2c0.5,0.5,1.2,0.7,2,0.7c0.6,0,1.2-0.1,1.6-0.4
				c0.4-0.3,0.7-0.7,0.9-1.2h1.6c-0.2,0.8-0.7,1.5-1.4,2.1c-0.7,0.5-1.6,0.8-2.6,0.8c-0.8,0-1.6-0.2-2.2-0.6s-1.2-0.9-1.5-1.6
				c-0.4-0.7-0.6-1.5-0.6-2.4c0-0.9,0.2-1.7,0.5-2.4c0.4-0.7,0.9-1.2,1.5-1.6c0.7-0.4,1.4-0.6,2.3-0.6c0.8,0,1.6,0.2,2.2,0.5
				c0.6,0.4,1.1,0.9,1.5,1.5s0.5,1.4,0.5,2.2C162.5,195.6,162.5,195.9,162.4,196.2z M160.6,193.6c-0.2-0.4-0.6-0.7-1-0.9
				c-0.4-0.2-0.9-0.3-1.4-0.3c-0.7,0-1.4,0.2-1.9,0.7c-0.5,0.5-0.8,1.1-0.9,2h5.5C161,194.5,160.9,194,160.6,193.6z"/>
			<path class="st4" d="M168.7,193.3c0.4-0.7,0.9-1.2,1.5-1.6c0.6-0.4,1.4-0.6,2.2-0.6c1.1,0,2,0.3,2.7,0.8s1.2,1.2,1.4,2.2h-1.6
				c-0.1-0.5-0.4-1-0.9-1.3s-1-0.5-1.6-0.5c-0.8,0-1.5,0.3-2,0.9c-0.5,0.6-0.8,1.4-0.8,2.4c0,1.1,0.3,1.9,0.8,2.4s1.2,0.9,2,0.9
				c0.6,0,1.2-0.1,1.6-0.4c0.4-0.3,0.7-0.7,0.9-1.3h1.6c-0.2,0.9-0.7,1.6-1.4,2.2c-0.7,0.5-1.6,0.8-2.6,0.8c-0.8,0-1.6-0.2-2.2-0.6
				s-1.1-0.9-1.5-1.6c-0.4-0.7-0.5-1.5-0.5-2.4C168.1,194.8,168.3,194,168.7,193.3z"/>
			<path class="st4" d="M186.4,196.2h-7c0.1,0.9,0.3,1.5,0.9,2c0.5,0.5,1.2,0.7,2,0.7c0.6,0,1.2-0.1,1.6-0.4
				c0.4-0.3,0.7-0.7,0.9-1.2h1.6c-0.2,0.8-0.7,1.5-1.4,2.1c-0.7,0.5-1.6,0.8-2.6,0.8c-0.8,0-1.6-0.2-2.2-0.6
				c-0.7-0.4-1.2-0.9-1.5-1.6c-0.4-0.7-0.6-1.5-0.6-2.4c0-0.9,0.2-1.7,0.5-2.4c0.4-0.7,0.9-1.2,1.5-1.6c0.7-0.4,1.4-0.6,2.3-0.6
				c0.8,0,1.6,0.2,2.2,0.5c0.6,0.4,1.1,0.9,1.5,1.5s0.5,1.4,0.5,2.2C186.4,195.6,186.4,195.9,186.4,196.2z M184.5,193.6
				c-0.2-0.4-0.6-0.7-1-0.9c-0.4-0.2-0.9-0.3-1.4-0.3c-0.7,0-1.4,0.2-1.9,0.7c-0.5,0.5-0.8,1.1-0.9,2h5.5
				C184.9,194.5,184.8,194,184.5,193.6z M183.7,188.8l-3.4,1.8v-1.1l3.4-2V188.8z"/>
			<path class="st4" d="M189.8,188.2v11.8h-1.5v-11.8H189.8z"/>
			<path class="st4" d="M200,191.3v8.8h-1.5v-1.3c-0.3,0.4-0.7,0.8-1.2,1c-0.5,0.3-1,0.4-1.6,0.4c-0.7,0-1.3-0.1-1.8-0.4
				s-1-0.7-1.3-1.3c-0.3-0.6-0.5-1.3-0.5-2.1v-5.1h1.4v4.9c0,0.9,0.2,1.5,0.7,2c0.4,0.5,1,0.7,1.8,0.7c0.8,0,1.4-0.2,1.8-0.7
				c0.4-0.5,0.7-1.2,0.7-2.1v-4.8H200z"/>
			<path class="st4" d="M204,188.2v11.8h-1.5v-11.8H204z"/>
			<path class="st4" d="M206.4,193.3c0.4-0.7,0.9-1.2,1.5-1.6c0.6-0.4,1.3-0.6,2.1-0.6c0.8,0,1.4,0.2,2,0.5c0.6,0.3,1,0.7,1.3,1.2
				v-1.6h1.5v8.8h-1.5v-1.6c-0.3,0.5-0.7,0.9-1.3,1.3c-0.6,0.3-1.2,0.5-2,0.5c-0.8,0-1.5-0.2-2.1-0.6c-0.6-0.4-1.1-0.9-1.5-1.6
				c-0.4-0.7-0.5-1.5-0.5-2.4C205.9,194.8,206.1,194,206.4,193.3z M212.9,193.9c-0.3-0.5-0.6-0.9-1.1-1.1s-1-0.4-1.5-0.4
				s-1,0.1-1.5,0.4c-0.4,0.3-0.8,0.6-1.1,1.1c-0.3,0.5-0.4,1.1-0.4,1.7c0,0.7,0.1,1.3,0.4,1.8c0.3,0.5,0.6,0.9,1.1,1.1
				c0.4,0.3,0.9,0.4,1.5,0.4s1-0.1,1.5-0.4c0.5-0.3,0.8-0.6,1.1-1.1s0.4-1.1,0.4-1.7C213.3,195,213.2,194.4,212.9,193.9z"/>
			<path class="st4" d="M218.5,199.9c-0.5-0.2-1-0.5-1.3-1c-0.3-0.4-0.5-0.9-0.5-1.4h1.5c0,0.4,0.2,0.8,0.6,1.1s0.9,0.4,1.4,0.4
				c0.6,0,1-0.1,1.3-0.4s0.5-0.6,0.5-0.9c0-0.4-0.2-0.7-0.5-0.9s-0.9-0.4-1.6-0.6c-0.7-0.2-1.2-0.3-1.6-0.5
				c-0.4-0.2-0.8-0.4-1.1-0.8c-0.3-0.3-0.4-0.8-0.4-1.4c0-0.4,0.1-0.9,0.4-1.2c0.3-0.4,0.6-0.7,1.1-0.9c0.5-0.2,1.1-0.3,1.7-0.3
				c1,0,1.8,0.2,2.4,0.7c0.6,0.5,0.9,1.2,1,2H222c0-0.5-0.2-0.8-0.6-1.1c-0.3-0.3-0.8-0.4-1.4-0.4c-0.5,0-0.9,0.1-1.2,0.3
				c-0.3,0.2-0.5,0.5-0.5,0.9c0,0.3,0.1,0.5,0.3,0.7c0.2,0.2,0.4,0.3,0.7,0.4c0.3,0.1,0.7,0.2,1.2,0.4c0.6,0.2,1.1,0.3,1.5,0.5
				c0.4,0.2,0.7,0.4,1,0.7c0.3,0.3,0.4,0.8,0.4,1.3c0,0.5-0.1,0.9-0.4,1.3s-0.6,0.7-1.1,0.9c-0.5,0.2-1,0.3-1.7,0.3
				C219.7,200.2,219.1,200.1,218.5,199.9z"/>
		</g>
		<g class="st2">
			<path class="st4" d="M32.2,217.3c0.4-0.7,0.9-1.2,1.5-1.6c0.6-0.4,1.3-0.6,2.1-0.6c0.7,0,1.3,0.2,1.9,0.5c0.6,0.3,1,0.7,1.3,1.2
				v-4.6h1.5v11.8h-1.5v-1.6c-0.3,0.5-0.7,1-1.3,1.3s-1.2,0.5-2,0.5c-0.8,0-1.5-0.2-2.1-0.6c-0.6-0.4-1.1-0.9-1.5-1.6
				s-0.5-1.5-0.5-2.4C31.7,218.8,31.9,218,32.2,217.3z M38.7,217.9c-0.3-0.5-0.6-0.9-1.1-1.1c-0.5-0.3-1-0.4-1.5-0.4
				c-0.5,0-1,0.1-1.5,0.4c-0.4,0.3-0.8,0.6-1.1,1.1c-0.3,0.5-0.4,1.1-0.4,1.7c0,0.7,0.1,1.3,0.4,1.8c0.3,0.5,0.6,0.9,1.1,1.1
				c0.4,0.3,0.9,0.4,1.5,0.4c0.5,0,1-0.1,1.5-0.4c0.5-0.3,0.8-0.6,1.1-1.1s0.4-1.1,0.4-1.7C39.1,219,39,218.4,38.7,217.9z"/>
			<path class="st4" d="M51,220.2h-7c0.1,0.9,0.3,1.5,0.9,2c0.5,0.5,1.2,0.7,2,0.7c0.6,0,1.2-0.1,1.6-0.4c0.4-0.3,0.7-0.7,0.9-1.2
				h1.6c-0.2,0.8-0.7,1.5-1.4,2.1c-0.7,0.5-1.6,0.8-2.6,0.8c-0.8,0-1.6-0.2-2.2-0.6c-0.7-0.4-1.2-0.9-1.5-1.6
				c-0.4-0.7-0.6-1.5-0.6-2.4c0-0.9,0.2-1.7,0.5-2.4s0.9-1.2,1.5-1.6c0.7-0.4,1.4-0.6,2.3-0.6c0.8,0,1.6,0.2,2.2,0.5
				c0.6,0.4,1.1,0.9,1.5,1.5s0.5,1.4,0.5,2.2C51,219.6,51,219.9,51,220.2z M49.2,217.6c-0.2-0.4-0.6-0.7-1-0.9s-0.9-0.3-1.4-0.3
				c-0.7,0-1.4,0.2-1.9,0.7c-0.5,0.5-0.8,1.1-0.9,2h5.5C49.5,218.5,49.4,218,49.2,217.6z"/>
			<path class="st4" d="M58.7,212.2v11.8h-1.5v-11.8H58.7z"/>
			<path class="st4" d="M61.2,217.3c0.4-0.7,0.9-1.2,1.5-1.6c0.6-0.4,1.3-0.6,2.1-0.6c0.8,0,1.4,0.2,2,0.5c0.6,0.3,1,0.7,1.3,1.2
				v-1.6h1.5v8.8H68v-1.6c-0.3,0.5-0.7,0.9-1.3,1.3c-0.6,0.3-1.2,0.5-2,0.5c-0.8,0-1.5-0.2-2.1-0.6c-0.6-0.4-1.1-0.9-1.5-1.6
				s-0.5-1.5-0.5-2.4C60.6,218.8,60.8,218,61.2,217.3z M67.6,217.9c-0.3-0.5-0.6-0.9-1.1-1.1c-0.5-0.3-1-0.4-1.5-0.4
				c-0.5,0-1,0.1-1.5,0.4c-0.4,0.3-0.8,0.6-1.1,1.1c-0.3,0.5-0.4,1.1-0.4,1.7c0,0.7,0.1,1.3,0.4,1.8c0.3,0.5,0.6,0.9,1.1,1.1
				c0.4,0.3,0.9,0.4,1.5,0.4c0.5,0,1-0.1,1.5-0.4c0.5-0.3,0.8-0.6,1.1-1.1s0.4-1.1,0.4-1.7C68,219,67.9,218.4,67.6,217.9z"/>
			<path class="st4" d="M77.5,223.9c-0.5-0.2-1-0.5-1.3-1c-0.3-0.4-0.5-0.9-0.5-1.4h1.5c0,0.4,0.2,0.8,0.6,1.1s0.9,0.4,1.4,0.4
				c0.6,0,1-0.1,1.3-0.4c0.3-0.2,0.5-0.6,0.5-0.9c0-0.4-0.2-0.7-0.5-0.9c-0.3-0.2-0.9-0.4-1.6-0.6c-0.7-0.2-1.2-0.3-1.6-0.5
				c-0.4-0.2-0.8-0.4-1.1-0.8c-0.3-0.3-0.4-0.8-0.4-1.4c0-0.4,0.1-0.9,0.4-1.2c0.3-0.4,0.6-0.7,1.1-0.9s1.1-0.3,1.7-0.3
				c1,0,1.8,0.2,2.4,0.7c0.6,0.5,0.9,1.2,1,2H81c0-0.5-0.2-0.8-0.6-1.1c-0.3-0.3-0.8-0.4-1.4-0.4c-0.5,0-0.9,0.1-1.2,0.3
				c-0.3,0.2-0.5,0.5-0.5,0.9c0,0.3,0.1,0.5,0.3,0.7c0.2,0.2,0.4,0.3,0.7,0.4c0.3,0.1,0.7,0.2,1.2,0.4c0.6,0.2,1.1,0.3,1.5,0.5
				c0.4,0.2,0.7,0.4,1,0.7c0.3,0.3,0.4,0.8,0.4,1.3c0,0.5-0.1,0.9-0.4,1.3c-0.3,0.4-0.6,0.7-1.1,0.9c-0.5,0.2-1,0.3-1.7,0.3
				C78.7,224.2,78.1,224.1,77.5,223.9z"/>
			<path class="st4" d="M92.4,215.3v8.8h-1.5v-1.3c-0.3,0.4-0.7,0.8-1.2,1c-0.5,0.3-1,0.4-1.6,0.4c-0.7,0-1.3-0.1-1.8-0.4
				s-1-0.7-1.3-1.3c-0.3-0.6-0.5-1.3-0.5-2.1v-5.1H86v4.9c0,0.9,0.2,1.5,0.7,2c0.4,0.5,1,0.7,1.8,0.7c0.8,0,1.4-0.2,1.8-0.7
				c0.4-0.5,0.7-1.2,0.7-2.1v-4.8H92.4z"/>
			<path class="st4" d="M97.6,215.7c0.6-0.3,1.2-0.5,2-0.5c0.8,0,1.5,0.2,2.1,0.6c0.6,0.4,1.1,0.9,1.5,1.6c0.4,0.7,0.5,1.5,0.5,2.4
				c0,0.9-0.2,1.7-0.5,2.4c-0.4,0.7-0.9,1.2-1.5,1.6c-0.6,0.4-1.3,0.6-2.1,0.6c-0.7,0-1.4-0.2-2-0.5c-0.6-0.3-1-0.8-1.3-1.3v5.8
				h-1.5v-12.9h1.5v1.6C96.6,216.4,97,216,97.6,215.7z M101.8,217.9c-0.3-0.5-0.6-0.9-1.1-1.1c-0.5-0.3-1-0.4-1.5-0.4
				c-0.5,0-1,0.1-1.5,0.4c-0.5,0.3-0.8,0.6-1.1,1.1s-0.4,1.1-0.4,1.7c0,0.7,0.1,1.2,0.4,1.7s0.6,0.9,1.1,1.1
				c0.5,0.3,0.9,0.4,1.5,0.4c0.5,0,1-0.1,1.5-0.4c0.5-0.3,0.8-0.6,1.1-1.1c0.3-0.5,0.4-1.1,0.4-1.8
				C102.2,219,102.1,218.4,101.8,217.9z"/>
			<path class="st4" d="M113.6,220.2h-7c0.1,0.9,0.3,1.5,0.9,2c0.5,0.5,1.2,0.7,2,0.7c0.6,0,1.2-0.1,1.6-0.4
				c0.4-0.3,0.7-0.7,0.9-1.2h1.6c-0.2,0.8-0.7,1.5-1.4,2.1c-0.7,0.5-1.6,0.8-2.6,0.8c-0.8,0-1.6-0.2-2.2-0.6
				c-0.7-0.4-1.2-0.9-1.5-1.6c-0.4-0.7-0.6-1.5-0.6-2.4c0-0.9,0.2-1.7,0.5-2.4s0.9-1.2,1.5-1.6c0.7-0.4,1.4-0.6,2.3-0.6
				c0.8,0,1.6,0.2,2.2,0.5c0.6,0.4,1.1,0.9,1.5,1.5s0.5,1.4,0.5,2.2C113.7,219.6,113.6,219.9,113.6,220.2z M111.8,217.6
				c-0.2-0.4-0.6-0.7-1-0.9s-0.9-0.3-1.4-0.3c-0.7,0-1.4,0.2-1.9,0.7c-0.5,0.5-0.8,1.1-0.9,2h5.5C112.1,218.5,112,218,111.8,217.6z"
				/>
			<path class="st4" d="M118.1,215.6c0.5-0.3,1.1-0.4,1.7-0.4v1.5h-0.4c-1.6,0-2.4,0.9-2.4,2.7v4.8h-1.5v-8.8h1.5v1.4
				C117.3,216.2,117.7,215.8,118.1,215.6z"/>
			<path class="st4" d="M125.1,216.5h-1.8v7.6h-1.5v-7.6h-1.1v-1.2h1.1v-0.6c0-1,0.3-1.7,0.8-2.2c0.5-0.5,1.3-0.7,2.4-0.7v1.2
				c-0.6,0-1.1,0.1-1.4,0.4c-0.3,0.3-0.4,0.7-0.4,1.2v0.6h1.8V216.5z"/>
			<path class="st4" d="M126.9,213.6c-0.2-0.2-0.3-0.4-0.3-0.7s0.1-0.5,0.3-0.7c0.2-0.2,0.4-0.3,0.7-0.3c0.3,0,0.5,0.1,0.7,0.3
				c0.2,0.2,0.3,0.4,0.3,0.7s-0.1,0.5-0.3,0.7c-0.2,0.2-0.4,0.3-0.7,0.3C127.3,213.9,127,213.8,126.9,213.6z M128.3,215.3v8.8h-1.5
				v-8.8H128.3z"/>
			<path class="st4" d="M130.7,217.3c0.4-0.7,0.9-1.2,1.5-1.6c0.6-0.4,1.4-0.6,2.2-0.6c1.1,0,2,0.3,2.7,0.8c0.7,0.5,1.2,1.2,1.4,2.2
				h-1.6c-0.1-0.5-0.4-1-0.9-1.3c-0.4-0.3-1-0.5-1.6-0.5c-0.8,0-1.5,0.3-2,0.9c-0.5,0.6-0.8,1.4-0.8,2.4c0,1.1,0.3,1.9,0.8,2.4
				c0.5,0.6,1.2,0.9,2,0.9c0.6,0,1.2-0.1,1.6-0.4s0.7-0.7,0.9-1.3h1.6c-0.2,0.9-0.7,1.6-1.4,2.2c-0.7,0.5-1.6,0.8-2.6,0.8
				c-0.8,0-1.6-0.2-2.2-0.6c-0.6-0.4-1.1-0.9-1.5-1.6s-0.5-1.5-0.5-2.4C130.2,218.8,130.4,218,130.7,217.3z"/>
			<path class="st4" d="M140.5,213.6c-0.2-0.2-0.3-0.4-0.3-0.7s0.1-0.5,0.3-0.7c0.2-0.2,0.4-0.3,0.7-0.3c0.3,0,0.5,0.1,0.7,0.3
				c0.2,0.2,0.3,0.4,0.3,0.7s-0.1,0.5-0.3,0.7c-0.2,0.2-0.4,0.3-0.7,0.3C140.9,213.9,140.7,213.8,140.5,213.6z M141.9,215.3v8.8
				h-1.5v-8.8H141.9z"/>
			<path class="st4" d="M152.3,220.2h-7c0.1,0.9,0.3,1.5,0.9,2c0.5,0.5,1.2,0.7,2,0.7c0.6,0,1.2-0.1,1.6-0.4
				c0.4-0.3,0.7-0.7,0.9-1.2h1.6c-0.2,0.8-0.7,1.5-1.4,2.1c-0.7,0.5-1.6,0.8-2.6,0.8c-0.8,0-1.6-0.2-2.2-0.6
				c-0.7-0.4-1.2-0.9-1.5-1.6c-0.4-0.7-0.6-1.5-0.6-2.4c0-0.9,0.2-1.7,0.5-2.4c0.4-0.7,0.9-1.2,1.5-1.6c0.7-0.4,1.4-0.6,2.3-0.6
				c0.8,0,1.6,0.2,2.2,0.5c0.6,0.4,1.1,0.9,1.5,1.5s0.5,1.4,0.5,2.2C152.4,219.6,152.4,219.9,152.3,220.2z M150.5,217.6
				c-0.2-0.4-0.6-0.7-1-0.9c-0.4-0.2-0.9-0.3-1.4-0.3c-0.7,0-1.4,0.2-1.9,0.7c-0.5,0.5-0.8,1.1-0.9,2h5.5
				C150.9,218.5,150.8,218,150.5,217.6z"/>
			<path class="st4" d="M158.6,217.3c0.4-0.7,0.9-1.2,1.5-1.6c0.6-0.4,1.3-0.6,2.1-0.6c0.7,0,1.3,0.2,1.9,0.5c0.6,0.3,1,0.7,1.3,1.2
				v-4.6h1.5v11.8h-1.5v-1.6c-0.3,0.5-0.7,1-1.3,1.3s-1.2,0.5-2,0.5c-0.8,0-1.5-0.2-2.1-0.6c-0.6-0.4-1.1-0.9-1.5-1.6
				c-0.4-0.7-0.5-1.5-0.5-2.4C158,218.8,158.2,218,158.6,217.3z M165.1,217.9c-0.3-0.5-0.6-0.9-1.1-1.1s-1-0.4-1.5-0.4
				s-1,0.1-1.5,0.4c-0.4,0.3-0.8,0.6-1.1,1.1c-0.3,0.5-0.4,1.1-0.4,1.7c0,0.7,0.1,1.3,0.4,1.8c0.3,0.5,0.6,0.9,1.1,1.1
				c0.4,0.3,0.9,0.4,1.5,0.4s1-0.1,1.5-0.4c0.5-0.3,0.8-0.6,1.1-1.1s0.4-1.1,0.4-1.7C165.5,219,165.3,218.4,165.1,217.9z"/>
			<path class="st4" d="M177.3,220.2h-7c0.1,0.9,0.3,1.5,0.9,2c0.5,0.5,1.2,0.7,2,0.7c0.6,0,1.2-0.1,1.6-0.4
				c0.4-0.3,0.7-0.7,0.9-1.2h1.6c-0.2,0.8-0.7,1.5-1.4,2.1c-0.7,0.5-1.6,0.8-2.6,0.8c-0.8,0-1.6-0.2-2.2-0.6
				c-0.7-0.4-1.2-0.9-1.5-1.6c-0.4-0.7-0.6-1.5-0.6-2.4c0-0.9,0.2-1.7,0.5-2.4c0.4-0.7,0.9-1.2,1.5-1.6c0.7-0.4,1.4-0.6,2.3-0.6
				c0.8,0,1.6,0.2,2.2,0.5c0.6,0.4,1.1,0.9,1.5,1.5s0.5,1.4,0.5,2.2C177.4,219.6,177.4,219.9,177.3,220.2z M175.5,217.6
				c-0.2-0.4-0.6-0.7-1-0.9c-0.4-0.2-0.9-0.3-1.4-0.3c-0.7,0-1.4,0.2-1.9,0.7c-0.5,0.5-0.8,1.1-0.9,2h5.5
				C175.9,218.5,175.8,218,175.5,217.6z"/>
			<path class="st4" d="M180.8,212.2v11.8h-1.5v-11.8H180.8z"/>
			<path class="st4" d="M187.5,217.3c0.4-0.7,0.9-1.2,1.5-1.6c0.6-0.4,1.4-0.6,2.2-0.6c1.1,0,2,0.3,2.7,0.8c0.7,0.5,1.2,1.2,1.4,2.2
				h-1.6c-0.1-0.5-0.4-1-0.9-1.3c-0.4-0.3-1-0.5-1.6-0.5c-0.8,0-1.5,0.3-2,0.9c-0.5,0.6-0.8,1.4-0.8,2.4c0,1.1,0.3,1.9,0.8,2.4
				c0.5,0.6,1.2,0.9,2,0.9c0.6,0,1.2-0.1,1.6-0.4s0.7-0.7,0.9-1.3h1.6c-0.2,0.9-0.7,1.6-1.4,2.2c-0.7,0.5-1.6,0.8-2.6,0.8
				c-0.8,0-1.6-0.2-2.2-0.6c-0.6-0.4-1.1-0.9-1.5-1.6c-0.4-0.7-0.5-1.5-0.5-2.4C187,218.8,187.2,218,187.5,217.3z"/>
			<path class="st4" d="M205,215.3v8.8h-1.5v-1.3c-0.3,0.4-0.7,0.8-1.2,1c-0.5,0.3-1,0.4-1.6,0.4c-0.7,0-1.3-0.1-1.8-0.4
				s-1-0.7-1.3-1.3c-0.3-0.6-0.5-1.3-0.5-2.1v-5.1h1.4v4.9c0,0.9,0.2,1.5,0.7,2c0.4,0.5,1,0.7,1.8,0.7c0.8,0,1.4-0.2,1.8-0.7
				c0.4-0.5,0.7-1.2,0.7-2.1v-4.8H205z"/>
			<path class="st4" d="M215.4,220.2h-7c0.1,0.9,0.3,1.5,0.9,2c0.5,0.5,1.2,0.7,2,0.7c0.6,0,1.2-0.1,1.6-0.4
				c0.4-0.3,0.7-0.7,0.9-1.2h1.6c-0.2,0.8-0.7,1.5-1.4,2.1c-0.7,0.5-1.6,0.8-2.6,0.8c-0.8,0-1.6-0.2-2.2-0.6s-1.2-0.9-1.5-1.6
				c-0.4-0.7-0.6-1.5-0.6-2.4c0-0.9,0.2-1.7,0.5-2.4c0.4-0.7,0.9-1.2,1.5-1.6c0.7-0.4,1.4-0.6,2.3-0.6c0.8,0,1.6,0.2,2.2,0.5
				c0.6,0.4,1.1,0.9,1.5,1.5s0.5,1.4,0.5,2.2C215.5,219.6,215.5,219.9,215.4,220.2z M213.6,217.6c-0.2-0.4-0.6-0.7-1-0.9
				c-0.4-0.2-0.9-0.3-1.4-0.3c-0.7,0-1.4,0.2-1.9,0.7c-0.5,0.5-0.8,1.1-0.9,2h5.5C214,218.5,213.8,218,213.6,217.6z"/>
			<path class="st4" d="M218.9,212.2v11.8h-1.5v-11.8H218.9z"/>
			<path class="st4" d="M222.8,212.2v11.8h-1.5v-11.8H222.8z"/>
			<path class="st4" d="M226.9,223.7c-0.7-0.4-1.2-0.9-1.6-1.6c-0.4-0.7-0.6-1.5-0.6-2.4c0-0.9,0.2-1.7,0.6-2.4
				c0.4-0.7,0.9-1.2,1.6-1.6c0.7-0.4,1.4-0.6,2.3-0.6s1.6,0.2,2.3,0.6c0.7,0.4,1.2,0.9,1.6,1.6c0.4,0.7,0.6,1.5,0.6,2.4
				c0,0.9-0.2,1.7-0.6,2.4c-0.4,0.7-0.9,1.2-1.6,1.6s-1.4,0.6-2.3,0.6C228.3,224.2,227.5,224,226.9,223.7z M230.6,222.6
				c0.5-0.2,0.8-0.6,1.1-1.1c0.3-0.5,0.4-1.1,0.4-1.8c0-0.7-0.1-1.3-0.4-1.8c-0.3-0.5-0.6-0.9-1.1-1.1c-0.4-0.2-0.9-0.4-1.5-0.4
				c-0.5,0-1,0.1-1.5,0.4c-0.4,0.2-0.8,0.6-1.1,1.1c-0.3,0.5-0.4,1.1-0.4,1.8c0,0.7,0.1,1.3,0.4,1.8c0.3,0.5,0.6,0.9,1,1.1
				s0.9,0.4,1.4,0.4C229.6,222.9,230.1,222.8,230.6,222.6z"/>
		</g>
		<g class="st2">
			<path class="st4" d="M68.7,239.3v8.8h-1.5v-1.3c-0.3,0.4-0.7,0.8-1.2,1c-0.5,0.3-1,0.4-1.6,0.4c-0.7,0-1.3-0.1-1.8-0.4
				s-1-0.7-1.3-1.3c-0.3-0.6-0.5-1.3-0.5-2.1v-5.1h1.4v4.9c0,0.9,0.2,1.5,0.7,2c0.4,0.5,1,0.7,1.8,0.7c0.8,0,1.4-0.2,1.8-0.7
				c0.4-0.5,0.7-1.2,0.7-2.1v-4.8H68.7z"/>
			<path class="st4" d="M73,240.5v5.2c0,0.4,0.1,0.7,0.3,0.9c0.2,0.2,0.5,0.3,0.9,0.3h1.1v1.2h-1.3c-0.8,0-1.4-0.2-1.8-0.6
				c-0.4-0.4-0.6-1-0.6-1.8v-5.2h-1.1v-1.2h1.1v-2.2H73v2.2h2.3v1.2H73z"/>
			<path class="st4" d="M85,244.2h-7c0.1,0.9,0.3,1.5,0.9,2c0.5,0.5,1.2,0.7,2,0.7c0.6,0,1.2-0.1,1.6-0.4c0.4-0.3,0.7-0.7,0.9-1.2
				h1.6c-0.2,0.8-0.7,1.5-1.4,2.1c-0.7,0.5-1.6,0.8-2.6,0.8c-0.8,0-1.6-0.2-2.2-0.6c-0.7-0.4-1.2-0.9-1.5-1.6
				c-0.4-0.7-0.6-1.5-0.6-2.4c0-0.9,0.2-1.7,0.5-2.4s0.9-1.2,1.5-1.6c0.7-0.4,1.4-0.6,2.3-0.6c0.8,0,1.6,0.2,2.2,0.5
				c0.6,0.4,1.1,0.9,1.5,1.5s0.5,1.4,0.5,2.2C85,243.6,85,243.9,85,244.2z M83.1,241.6c-0.2-0.4-0.6-0.7-1-0.9s-0.9-0.3-1.4-0.3
				c-0.7,0-1.4,0.2-1.9,0.7c-0.5,0.5-0.8,1.1-0.9,2h5.5C83.5,242.5,83.4,242,83.1,241.6z"/>
			<path class="st4" d="M89.5,239.6c0.5-0.3,1.1-0.4,1.7-0.4v1.5h-0.4c-1.6,0-2.4,0.9-2.4,2.7v4.8h-1.5v-8.8h1.5v1.4
				C88.6,240.2,89,239.8,89.5,239.6z"/>
			<path class="st4" d="M92.9,237.6c-0.2-0.2-0.3-0.4-0.3-0.7s0.1-0.5,0.3-0.7c0.2-0.2,0.4-0.3,0.7-0.3c0.3,0,0.5,0.1,0.7,0.3
				c0.2,0.2,0.3,0.4,0.3,0.7s-0.1,0.5-0.3,0.7c-0.2,0.2-0.4,0.3-0.7,0.3C93.4,237.9,93.1,237.8,92.9,237.6z M94.4,239.3v8.8h-1.5
				v-8.8H94.4z"/>
			<path class="st4" d="M103.7,240.1c0.7,0.6,1,1.6,1,2.8v5.2h-1.4v-5c0-0.9-0.2-1.5-0.7-2c-0.4-0.5-1-0.7-1.8-0.7
				c-0.8,0-1.4,0.2-1.8,0.7c-0.5,0.5-0.7,1.2-0.7,2.1v4.8h-1.5v-8.8h1.5v1.2c0.3-0.4,0.7-0.8,1.2-1c0.5-0.2,1-0.4,1.6-0.4
				C102.2,239.1,103,239.5,103.7,240.1z"/>
			<path class="st4" d="M108.7,247.7c-0.7-0.4-1.2-0.9-1.6-1.6c-0.4-0.7-0.6-1.5-0.6-2.4c0-0.9,0.2-1.7,0.6-2.4
				c0.4-0.7,0.9-1.2,1.6-1.6c0.7-0.4,1.4-0.6,2.3-0.6s1.6,0.2,2.3,0.6c0.7,0.4,1.2,0.9,1.6,1.6c0.4,0.7,0.6,1.5,0.6,2.4
				c0,0.9-0.2,1.7-0.6,2.4c-0.4,0.7-0.9,1.2-1.6,1.6c-0.7,0.4-1.4,0.6-2.3,0.6C110.1,248.2,109.3,248,108.7,247.7z M112.4,246.6
				c0.5-0.2,0.8-0.6,1.1-1.1c0.3-0.5,0.4-1.1,0.4-1.8c0-0.7-0.1-1.3-0.4-1.8c-0.3-0.5-0.6-0.9-1.1-1.1c-0.4-0.2-0.9-0.4-1.5-0.4
				c-0.5,0-1,0.1-1.5,0.4c-0.4,0.2-0.8,0.6-1.1,1.1c-0.3,0.5-0.4,1.1-0.4,1.8c0,0.7,0.1,1.3,0.4,1.8s0.6,0.9,1,1.1
				c0.4,0.2,0.9,0.4,1.4,0.4C111.4,246.9,111.9,246.8,112.4,246.6z"/>
			<path class="st4" d="M121.6,241.3c0.4-0.7,0.9-1.2,1.5-1.6c0.6-0.4,1.3-0.6,2.1-0.6c0.8,0,1.4,0.2,2,0.5c0.6,0.3,1,0.8,1.3,1.2
				v-1.6h1.5v12.9h-1.5v-5.8c-0.3,0.5-0.7,0.9-1.3,1.2c-0.6,0.3-1.2,0.5-2,0.5s-1.5-0.2-2.1-0.6c-0.6-0.4-1.1-0.9-1.5-1.6
				s-0.5-1.5-0.5-2.4C121,242.8,121.2,242,121.6,241.3z M128.1,241.9c-0.3-0.5-0.6-0.9-1.1-1.1c-0.5-0.3-1-0.4-1.5-0.4
				c-0.5,0-1,0.1-1.5,0.4c-0.4,0.3-0.8,0.6-1.1,1.1c-0.3,0.5-0.4,1.1-0.4,1.7c0,0.7,0.1,1.3,0.4,1.8c0.3,0.5,0.6,0.9,1.1,1.1
				c0.4,0.3,0.9,0.4,1.5,0.4c0.5,0,1-0.1,1.5-0.4c0.5-0.3,0.8-0.6,1.1-1.1s0.4-1.1,0.4-1.7C128.5,243,128.3,242.4,128.1,241.9z"/>
			<path class="st4" d="M140.2,239.3v8.8h-1.5v-1.3c-0.3,0.4-0.7,0.8-1.2,1c-0.5,0.3-1,0.4-1.6,0.4c-0.7,0-1.3-0.1-1.8-0.4
				c-0.5-0.3-1-0.7-1.3-1.3c-0.3-0.6-0.5-1.3-0.5-2.1v-5.1h1.4v4.9c0,0.9,0.2,1.5,0.7,2c0.4,0.5,1,0.7,1.8,0.7
				c0.8,0,1.4-0.2,1.8-0.7c0.4-0.5,0.7-1.2,0.7-2.1v-4.8H140.2z"/>
			<path class="st4" d="M150.6,244.2h-7c0.1,0.9,0.3,1.5,0.9,2c0.5,0.5,1.2,0.7,2,0.7c0.6,0,1.2-0.1,1.6-0.4
				c0.4-0.3,0.7-0.7,0.9-1.2h1.6c-0.2,0.8-0.7,1.5-1.4,2.1c-0.7,0.5-1.6,0.8-2.6,0.8c-0.8,0-1.6-0.2-2.2-0.6
				c-0.7-0.4-1.2-0.9-1.5-1.6c-0.4-0.7-0.6-1.5-0.6-2.4c0-0.9,0.2-1.7,0.5-2.4s0.9-1.2,1.5-1.6c0.7-0.4,1.4-0.6,2.3-0.6
				c0.8,0,1.6,0.2,2.2,0.5c0.6,0.4,1.1,0.9,1.5,1.5c0.3,0.6,0.5,1.4,0.5,2.2C150.6,243.6,150.6,243.9,150.6,244.2z M148.8,241.6
				c-0.2-0.4-0.6-0.7-1-0.9s-0.9-0.3-1.4-0.3c-0.7,0-1.4,0.2-1.9,0.7c-0.5,0.5-0.8,1.1-0.9,2h5.5C149.1,242.5,149,242,148.8,241.6z"
				/>
			<path class="st4" d="M159.6,239.7c0.6-0.3,1.2-0.5,2-0.5c0.8,0,1.5,0.2,2.1,0.6c0.6,0.4,1.1,0.9,1.5,1.6c0.4,0.7,0.5,1.5,0.5,2.4
				c0,0.9-0.2,1.7-0.5,2.4c-0.4,0.7-0.9,1.2-1.5,1.6c-0.6,0.4-1.3,0.6-2.1,0.6c-0.8,0-1.4-0.2-2-0.5c-0.6-0.3-1-0.8-1.3-1.3v1.6
				h-1.5v-11.8h1.5v4.7C158.6,240.4,159,240,159.6,239.7z M163.8,241.9c-0.3-0.5-0.6-0.9-1.1-1.1s-1-0.4-1.5-0.4
				c-0.5,0-1,0.1-1.5,0.4s-0.8,0.6-1.1,1.1c-0.3,0.5-0.4,1.1-0.4,1.7c0,0.7,0.1,1.2,0.4,1.7c0.3,0.5,0.6,0.9,1.1,1.1
				c0.5,0.3,0.9,0.4,1.5,0.4c0.5,0,1-0.1,1.5-0.4c0.5-0.3,0.8-0.6,1.1-1.1c0.3-0.5,0.4-1.1,0.4-1.8
				C164.2,243,164.1,242.4,163.8,241.9z"/>
			<path class="st4" d="M175.4,239.3v8.8H174v-1.3c-0.3,0.4-0.7,0.8-1.2,1c-0.5,0.3-1,0.4-1.6,0.4c-0.7,0-1.3-0.1-1.8-0.4
				c-0.5-0.3-1-0.7-1.3-1.3c-0.3-0.6-0.5-1.3-0.5-2.1v-5.1h1.4v4.9c0,0.9,0.2,1.5,0.7,2c0.4,0.5,1,0.7,1.8,0.7
				c0.8,0,1.4-0.2,1.8-0.7c0.4-0.5,0.7-1.2,0.7-2.1v-4.8H175.4z"/>
			<path class="st4" d="M179.2,247.9c-0.5-0.2-1-0.5-1.3-1c-0.3-0.4-0.5-0.9-0.5-1.4h1.5c0,0.4,0.2,0.8,0.6,1.1
				c0.4,0.3,0.9,0.4,1.4,0.4c0.6,0,1-0.1,1.3-0.4c0.3-0.2,0.5-0.6,0.5-0.9c0-0.4-0.2-0.7-0.5-0.9s-0.9-0.4-1.6-0.6
				c-0.7-0.2-1.2-0.3-1.6-0.5c-0.4-0.2-0.8-0.4-1.1-0.8s-0.4-0.8-0.4-1.4c0-0.4,0.1-0.9,0.4-1.2c0.3-0.4,0.6-0.7,1.1-0.9
				c0.5-0.2,1.1-0.3,1.7-0.3c1,0,1.8,0.2,2.4,0.7c0.6,0.5,0.9,1.2,1,2h-1.5c0-0.5-0.2-0.8-0.6-1.1s-0.8-0.4-1.4-0.4
				c-0.5,0-0.9,0.1-1.2,0.3c-0.3,0.2-0.5,0.5-0.5,0.9c0,0.3,0.1,0.5,0.3,0.7c0.2,0.2,0.4,0.3,0.7,0.4c0.3,0.1,0.7,0.2,1.2,0.4
				c0.6,0.2,1.1,0.3,1.5,0.5c0.4,0.2,0.7,0.4,1,0.7c0.3,0.3,0.4,0.8,0.4,1.3c0,0.5-0.1,0.9-0.4,1.3s-0.6,0.7-1.1,0.9
				c-0.5,0.2-1,0.3-1.7,0.3C180.3,248.2,179.7,248.1,179.2,247.9z"/>
			<path class="st4" d="M186.2,241.3c0.4-0.7,0.9-1.2,1.5-1.6c0.6-0.4,1.4-0.6,2.2-0.6c1.1,0,2,0.3,2.7,0.8c0.7,0.5,1.2,1.2,1.4,2.2
				h-1.6c-0.1-0.5-0.4-1-0.9-1.3c-0.4-0.3-1-0.5-1.6-0.5c-0.8,0-1.5,0.3-2,0.9c-0.5,0.6-0.8,1.4-0.8,2.4c0,1.1,0.3,1.9,0.8,2.4
				s1.2,0.9,2,0.9c0.6,0,1.2-0.1,1.6-0.4s0.7-0.7,0.9-1.3h1.6c-0.2,0.9-0.7,1.6-1.4,2.2c-0.7,0.5-1.6,0.8-2.6,0.8
				c-0.8,0-1.6-0.2-2.2-0.6c-0.6-0.4-1.2-0.9-1.5-1.6s-0.5-1.5-0.5-2.4C185.7,242.8,185.9,242,186.2,241.3z"/>
			<path class="st4" d="M196,241.3c0.4-0.7,0.9-1.2,1.5-1.6c0.6-0.4,1.3-0.6,2.1-0.6c0.8,0,1.4,0.2,2,0.5c0.6,0.3,1,0.7,1.3,1.2
				v-1.6h1.5v8.8h-1.5v-1.6c-0.3,0.5-0.7,0.9-1.3,1.3s-1.2,0.5-2,0.5c-0.8,0-1.5-0.2-2.1-0.6c-0.6-0.4-1.1-0.9-1.5-1.6
				s-0.5-1.5-0.5-2.4C195.4,242.8,195.6,242,196,241.3z M202.4,241.9c-0.3-0.5-0.6-0.9-1.1-1.1s-1-0.4-1.5-0.4c-0.5,0-1,0.1-1.5,0.4
				c-0.4,0.3-0.8,0.6-1.1,1.1c-0.3,0.5-0.4,1.1-0.4,1.7c0,0.7,0.1,1.3,0.4,1.8s0.6,0.9,1.1,1.1c0.4,0.3,0.9,0.4,1.5,0.4
				c0.5,0,1-0.1,1.5-0.4c0.5-0.3,0.8-0.6,1.1-1.1c0.3-0.5,0.4-1.1,0.4-1.7C202.8,243,202.7,242.4,202.4,241.9z"/>
		</g>
		<g class="st2">
			<path class="st4" d="M35.3,265.3c0.4-0.7,0.9-1.2,1.5-1.6c0.6-0.4,1.4-0.6,2.2-0.6c1.1,0,2,0.3,2.7,0.8c0.7,0.5,1.2,1.2,1.4,2.2
				h-1.6c-0.1-0.5-0.4-1-0.9-1.3c-0.4-0.3-1-0.5-1.6-0.5c-0.8,0-1.5,0.3-2,0.9c-0.5,0.6-0.8,1.4-0.8,2.4c0,1.1,0.3,1.9,0.8,2.4
				c0.5,0.6,1.2,0.9,2,0.9c0.6,0,1.2-0.1,1.6-0.4c0.4-0.3,0.7-0.7,0.9-1.3h1.6c-0.2,0.9-0.7,1.6-1.4,2.2c-0.7,0.5-1.6,0.8-2.6,0.8
				c-0.8,0-1.6-0.2-2.2-0.6c-0.6-0.4-1.1-0.9-1.5-1.6s-0.5-1.5-0.5-2.4C34.8,266.8,35,266,35.3,265.3z"/>
			<path class="st4" d="M45,265.3c0.4-0.7,0.9-1.2,1.5-1.6c0.6-0.4,1.3-0.6,2.1-0.6c0.8,0,1.4,0.2,2,0.5c0.6,0.3,1,0.7,1.3,1.2v-1.6
				h1.5v8.8h-1.5v-1.6c-0.3,0.5-0.7,0.9-1.3,1.3c-0.6,0.3-1.2,0.5-2,0.5c-0.8,0-1.5-0.2-2.1-0.6c-0.6-0.4-1.1-0.9-1.5-1.6
				s-0.5-1.5-0.5-2.4C44.5,266.8,44.7,266,45,265.3z M51.5,265.9c-0.3-0.5-0.6-0.9-1.1-1.1c-0.5-0.3-1-0.4-1.5-0.4
				c-0.5,0-1,0.1-1.5,0.4c-0.4,0.3-0.8,0.6-1.1,1.1c-0.3,0.5-0.4,1.1-0.4,1.7c0,0.7,0.1,1.3,0.4,1.8c0.3,0.5,0.6,0.9,1.1,1.1
				c0.4,0.3,0.9,0.4,1.5,0.4c0.5,0,1-0.1,1.5-0.4c0.5-0.3,0.8-0.6,1.1-1.1s0.4-1.1,0.4-1.7C51.9,267,51.8,266.4,51.5,265.9z"/>
			<path class="st4" d="M68.2,263.6c0.5,0.3,1,0.7,1.3,1.3c0.3,0.6,0.5,1.3,0.5,2.1v5.2h-1.4v-5c0-0.9-0.2-1.5-0.6-2
				c-0.4-0.5-1-0.7-1.8-0.7c-0.8,0-1.4,0.2-1.8,0.7c-0.4,0.5-0.7,1.2-0.7,2.1v4.8h-1.4v-5c0-0.9-0.2-1.5-0.6-2s-1-0.7-1.8-0.7
				c-0.8,0-1.4,0.2-1.8,0.7c-0.4,0.5-0.7,1.2-0.7,2.1v4.8h-1.5v-8.8h1.5v1.3c0.3-0.5,0.7-0.8,1.2-1.1c0.5-0.2,1-0.4,1.6-0.4
				c0.7,0,1.4,0.2,2,0.5c0.6,0.3,1,0.8,1.3,1.5c0.2-0.6,0.7-1.1,1.2-1.4c0.6-0.3,1.2-0.5,1.9-0.5C67.1,263.1,67.7,263.3,68.2,263.6z
				"/>
			<path class="st4" d="M75.1,263.7c0.6-0.3,1.2-0.5,2-0.5c0.8,0,1.5,0.2,2.1,0.6c0.6,0.4,1.1,0.9,1.5,1.6c0.4,0.7,0.5,1.5,0.5,2.4
				c0,0.9-0.2,1.7-0.5,2.4c-0.4,0.7-0.9,1.2-1.5,1.6c-0.6,0.4-1.3,0.6-2.1,0.6c-0.8,0-1.4-0.2-2-0.5c-0.6-0.3-1-0.8-1.3-1.3v1.6
				h-1.5v-11.8h1.5v4.7C74.1,264.4,74.5,264,75.1,263.7z M79.4,265.9c-0.3-0.5-0.6-0.9-1.1-1.1c-0.5-0.3-1-0.4-1.5-0.4
				c-0.5,0-1,0.1-1.5,0.4c-0.5,0.3-0.8,0.6-1.1,1.1s-0.4,1.1-0.4,1.7c0,0.7,0.1,1.2,0.4,1.7s0.6,0.9,1.1,1.1
				c0.5,0.3,0.9,0.4,1.5,0.4c0.5,0,1-0.1,1.5-0.4c0.5-0.3,0.8-0.6,1.1-1.1c0.3-0.5,0.4-1.1,0.4-1.8C79.8,267,79.6,266.4,79.4,265.9z
				"/>
			<path class="st4" d="M83.2,261.6c-0.2-0.2-0.3-0.4-0.3-0.7s0.1-0.5,0.3-0.7c0.2-0.2,0.4-0.3,0.7-0.3c0.3,0,0.5,0.1,0.7,0.3
				c0.2,0.2,0.3,0.4,0.3,0.7s-0.1,0.5-0.3,0.7c-0.2,0.2-0.4,0.3-0.7,0.3C83.6,261.9,83.4,261.8,83.2,261.6z M84.6,263.3v8.8h-1.5
				v-8.8H84.6z"/>
			<path class="st4" d="M88.7,271.7c-0.7-0.4-1.2-0.9-1.6-1.6c-0.4-0.7-0.6-1.5-0.6-2.4c0-0.9,0.2-1.7,0.6-2.4
				c0.4-0.7,0.9-1.2,1.6-1.6c0.7-0.4,1.4-0.6,2.3-0.6s1.6,0.2,2.3,0.6c0.7,0.4,1.2,0.9,1.6,1.6c0.4,0.7,0.6,1.5,0.6,2.4
				c0,0.9-0.2,1.7-0.6,2.4c-0.4,0.7-0.9,1.2-1.6,1.6c-0.7,0.4-1.4,0.6-2.3,0.6C90.1,272.2,89.4,272,88.7,271.7z M92.4,270.6
				c0.5-0.2,0.8-0.6,1.1-1.1c0.3-0.5,0.4-1.1,0.4-1.8c0-0.7-0.1-1.3-0.4-1.8c-0.3-0.5-0.6-0.9-1.1-1.1c-0.4-0.2-0.9-0.4-1.5-0.4
				c-0.5,0-1,0.1-1.5,0.4c-0.4,0.2-0.8,0.6-1.1,1.1c-0.3,0.5-0.4,1.1-0.4,1.8c0,0.7,0.1,1.3,0.4,1.8s0.6,0.9,1,1.1
				c0.4,0.2,0.9,0.4,1.4,0.4C91.4,270.9,91.9,270.8,92.4,270.6z"/>
			<path class="st4" d="M98.6,271.9c-0.5-0.2-1-0.5-1.3-1c-0.3-0.4-0.5-0.9-0.5-1.4h1.5c0,0.4,0.2,0.8,0.6,1.1s0.9,0.4,1.4,0.4
				c0.6,0,1-0.1,1.3-0.4c0.3-0.2,0.5-0.6,0.5-0.9c0-0.4-0.2-0.7-0.5-0.9c-0.3-0.2-0.9-0.4-1.6-0.6c-0.7-0.2-1.2-0.3-1.6-0.5
				c-0.4-0.2-0.8-0.4-1.1-0.8c-0.3-0.3-0.4-0.8-0.4-1.4c0-0.4,0.1-0.9,0.4-1.2c0.3-0.4,0.6-0.7,1.1-0.9s1.1-0.3,1.7-0.3
				c1,0,1.8,0.2,2.4,0.7c0.6,0.5,0.9,1.2,1,2h-1.5c0-0.5-0.2-0.8-0.6-1.1c-0.3-0.3-0.8-0.4-1.4-0.4c-0.5,0-0.9,0.1-1.2,0.3
				c-0.3,0.2-0.5,0.5-0.5,0.9c0,0.3,0.1,0.5,0.3,0.7c0.2,0.2,0.4,0.3,0.7,0.4c0.3,0.1,0.7,0.2,1.2,0.4c0.6,0.2,1.1,0.3,1.5,0.5
				c0.4,0.2,0.7,0.4,1,0.7c0.3,0.3,0.4,0.8,0.4,1.3c0,0.5-0.1,0.9-0.4,1.3c-0.3,0.4-0.6,0.7-1.1,0.9c-0.5,0.2-1,0.3-1.7,0.3
				C99.8,272.2,99.2,272.1,98.6,271.9z"/>
			<path class="st4" d="M112.7,263.7c0.6-0.3,1.2-0.5,2-0.5c0.8,0,1.5,0.2,2.1,0.6c0.6,0.4,1.1,0.9,1.5,1.6c0.4,0.7,0.5,1.5,0.5,2.4
				c0,0.9-0.2,1.7-0.5,2.4c-0.4,0.7-0.9,1.2-1.5,1.6c-0.6,0.4-1.3,0.6-2.1,0.6c-0.7,0-1.4-0.2-2-0.5c-0.6-0.3-1-0.8-1.3-1.3v5.8H110
				v-12.9h1.5v1.6C111.7,264.4,112.1,264,112.7,263.7z M117,265.9c-0.3-0.5-0.6-0.9-1.1-1.1c-0.5-0.3-1-0.4-1.5-0.4
				c-0.5,0-1,0.1-1.5,0.4c-0.5,0.3-0.8,0.6-1.1,1.1s-0.4,1.1-0.4,1.7c0,0.7,0.1,1.2,0.4,1.7s0.6,0.9,1.1,1.1
				c0.5,0.3,0.9,0.4,1.5,0.4c0.5,0,1-0.1,1.5-0.4c0.5-0.3,0.8-0.6,1.1-1.1c0.3-0.5,0.4-1.1,0.4-1.8C117.4,267,117.2,266.4,117,265.9
				z"/>
			<path class="st4" d="M123.3,263.6c0.5-0.3,1.1-0.4,1.7-0.4v1.5h-0.4c-1.6,0-2.4,0.9-2.4,2.7v4.8h-1.5v-8.8h1.5v1.4
				C122.5,264.2,122.9,263.8,123.3,263.6z"/>
			<path class="st4" d="M128.3,271.7c-0.7-0.4-1.2-0.9-1.6-1.6c-0.4-0.7-0.6-1.5-0.6-2.4c0-0.9,0.2-1.7,0.6-2.4
				c0.4-0.7,0.9-1.2,1.6-1.6c0.7-0.4,1.4-0.6,2.3-0.6s1.6,0.2,2.3,0.6c0.7,0.4,1.2,0.9,1.6,1.6s0.6,1.5,0.6,2.4
				c0,0.9-0.2,1.7-0.6,2.4c-0.4,0.7-0.9,1.2-1.6,1.6c-0.7,0.4-1.4,0.6-2.3,0.6C129.7,272.2,129,272,128.3,271.7z M132,270.6
				c0.5-0.2,0.8-0.6,1.1-1.1c0.3-0.5,0.4-1.1,0.4-1.8c0-0.7-0.1-1.3-0.4-1.8c-0.3-0.5-0.6-0.9-1.1-1.1c-0.4-0.2-0.9-0.4-1.5-0.4
				c-0.5,0-1,0.1-1.5,0.4c-0.4,0.2-0.8,0.6-1.1,1.1c-0.3,0.5-0.4,1.1-0.4,1.8c0,0.7,0.1,1.3,0.4,1.8s0.6,0.9,1,1.1
				c0.4,0.2,0.9,0.4,1.4,0.4C131.1,270.9,131.6,270.8,132,270.6z"/>
			<path class="st4" d="M137,265.3c0.4-0.7,0.9-1.2,1.5-1.6c0.6-0.4,1.3-0.6,2.1-0.6c0.7,0,1.3,0.2,1.9,0.5c0.6,0.3,1,0.7,1.3,1.2
				v-4.6h1.5v11.8h-1.5v-1.6c-0.3,0.5-0.7,1-1.3,1.3s-1.2,0.5-2,0.5c-0.8,0-1.5-0.2-2.1-0.6c-0.6-0.4-1.1-0.9-1.5-1.6
				c-0.4-0.7-0.5-1.5-0.5-2.4C136.4,266.8,136.6,266,137,265.3z M143.5,265.9c-0.3-0.5-0.6-0.9-1.1-1.1c-0.5-0.3-1-0.4-1.5-0.4
				c-0.5,0-1,0.1-1.5,0.4s-0.8,0.6-1.1,1.1c-0.3,0.5-0.4,1.1-0.4,1.7c0,0.7,0.1,1.3,0.4,1.8s0.6,0.9,1.1,1.1
				c0.4,0.3,0.9,0.4,1.5,0.4c0.5,0,1-0.1,1.5-0.4c0.5-0.3,0.8-0.6,1.1-1.1s0.4-1.1,0.4-1.7C143.9,267,143.7,266.4,143.5,265.9z"/>
			<path class="st4" d="M155.6,263.3v8.8h-1.5v-1.3c-0.3,0.4-0.7,0.8-1.2,1c-0.5,0.3-1,0.4-1.6,0.4c-0.7,0-1.3-0.1-1.8-0.4
				s-1-0.7-1.3-1.3c-0.3-0.6-0.5-1.3-0.5-2.1v-5.1h1.4v4.9c0,0.9,0.2,1.5,0.7,2c0.4,0.5,1,0.7,1.8,0.7c0.8,0,1.4-0.2,1.8-0.7
				c0.4-0.5,0.7-1.2,0.7-2.1v-4.8H155.6z"/>
			<path class="st4" d="M158,265.3c0.4-0.7,0.9-1.2,1.5-1.6c0.6-0.4,1.4-0.6,2.2-0.6c1.1,0,2,0.3,2.7,0.8c0.7,0.5,1.2,1.2,1.4,2.2
				h-1.6c-0.1-0.5-0.4-1-0.9-1.3c-0.4-0.3-1-0.5-1.6-0.5c-0.8,0-1.5,0.3-2,0.9c-0.5,0.6-0.8,1.4-0.8,2.4c0,1.1,0.3,1.9,0.8,2.4
				c0.5,0.6,1.2,0.9,2,0.9c0.6,0,1.2-0.1,1.6-0.4s0.7-0.7,0.9-1.3h1.6c-0.2,0.9-0.7,1.6-1.4,2.2c-0.7,0.5-1.6,0.8-2.6,0.8
				c-0.8,0-1.6-0.2-2.2-0.6c-0.6-0.4-1.1-0.9-1.5-1.6c-0.4-0.7-0.5-1.5-0.5-2.4C157.5,266.8,157.7,266,158,265.3z"/>
			<path class="st4" d="M167.8,261.6c-0.2-0.2-0.3-0.4-0.3-0.7s0.1-0.5,0.3-0.7c0.2-0.2,0.4-0.3,0.7-0.3c0.3,0,0.5,0.1,0.7,0.3
				c0.2,0.2,0.3,0.4,0.3,0.7s-0.1,0.5-0.3,0.7c-0.2,0.2-0.4,0.3-0.7,0.3C168.2,261.9,168,261.8,167.8,261.6z M169.2,263.3v8.8h-1.5
				v-8.8H169.2z"/>
			<path class="st4" d="M171.7,265.3c0.4-0.7,0.9-1.2,1.5-1.6c0.6-0.4,1.3-0.6,2.1-0.6c0.7,0,1.3,0.2,1.9,0.5c0.6,0.3,1,0.7,1.3,1.2
				v-4.6h1.5v11.8h-1.5v-1.6c-0.3,0.5-0.7,1-1.3,1.3s-1.2,0.5-2,0.5c-0.8,0-1.5-0.2-2.1-0.6c-0.6-0.4-1.1-0.9-1.5-1.6
				c-0.4-0.7-0.5-1.5-0.5-2.4C171.1,266.8,171.3,266,171.7,265.3z M178.2,265.9c-0.3-0.5-0.6-0.9-1.1-1.1s-1-0.4-1.5-0.4
				s-1,0.1-1.5,0.4c-0.4,0.3-0.8,0.6-1.1,1.1c-0.3,0.5-0.4,1.1-0.4,1.7c0,0.7,0.1,1.3,0.4,1.8c0.3,0.5,0.6,0.9,1.1,1.1
				c0.4,0.3,0.9,0.4,1.5,0.4s1-0.1,1.5-0.4c0.5-0.3,0.8-0.6,1.1-1.1s0.4-1.1,0.4-1.7C178.6,267,178.4,266.4,178.2,265.9z"/>
			<path class="st4" d="M184.1,271.7c-0.7-0.4-1.2-0.9-1.6-1.6c-0.4-0.7-0.6-1.5-0.6-2.4c0-0.9,0.2-1.7,0.6-2.4
				c0.4-0.7,0.9-1.2,1.6-1.6c0.7-0.4,1.4-0.6,2.3-0.6s1.6,0.2,2.3,0.6c0.7,0.4,1.2,0.9,1.6,1.6c0.4,0.7,0.6,1.5,0.6,2.4
				c0,0.9-0.2,1.7-0.6,2.4c-0.4,0.7-0.9,1.2-1.6,1.6s-1.4,0.6-2.3,0.6C185.5,272.2,184.8,272,184.1,271.7z M187.8,270.6
				c0.5-0.2,0.8-0.6,1.1-1.1c0.3-0.5,0.4-1.1,0.4-1.8c0-0.7-0.1-1.3-0.4-1.8c-0.3-0.5-0.6-0.9-1.1-1.1c-0.4-0.2-0.9-0.4-1.5-0.4
				c-0.5,0-1,0.1-1.5,0.4c-0.4,0.2-0.8,0.6-1.1,1.1c-0.3,0.5-0.4,1.1-0.4,1.8c0,0.7,0.1,1.3,0.4,1.8c0.3,0.5,0.6,0.9,1,1.1
				s0.9,0.4,1.4,0.4C186.8,270.9,187.3,270.8,187.8,270.6z"/>
			<path class="st4" d="M194,271.9c-0.5-0.2-1-0.5-1.3-1c-0.3-0.4-0.5-0.9-0.5-1.4h1.5c0,0.4,0.2,0.8,0.6,1.1s0.9,0.4,1.4,0.4
				c0.6,0,1-0.1,1.3-0.4s0.5-0.6,0.5-0.9c0-0.4-0.2-0.7-0.5-0.9s-0.9-0.4-1.6-0.6c-0.7-0.2-1.2-0.3-1.6-0.5
				c-0.4-0.2-0.8-0.4-1.1-0.8c-0.3-0.3-0.4-0.8-0.4-1.4c0-0.4,0.1-0.9,0.4-1.2c0.3-0.4,0.6-0.7,1.1-0.9c0.5-0.2,1.1-0.3,1.7-0.3
				c1,0,1.8,0.2,2.4,0.7c0.6,0.5,0.9,1.2,1,2h-1.5c0-0.5-0.2-0.8-0.6-1.1c-0.3-0.3-0.8-0.4-1.4-0.4c-0.5,0-0.9,0.1-1.2,0.3
				c-0.3,0.2-0.5,0.5-0.5,0.9c0,0.3,0.1,0.5,0.3,0.7c0.2,0.2,0.4,0.3,0.7,0.4c0.3,0.1,0.7,0.2,1.2,0.4c0.6,0.2,1.1,0.3,1.5,0.5
				c0.4,0.2,0.7,0.4,1,0.7c0.3,0.3,0.4,0.8,0.4,1.3c0,0.5-0.1,0.9-0.4,1.3s-0.6,0.7-1.1,0.9c-0.5,0.2-1,0.3-1.7,0.3
				C195.2,272.2,194.6,272.1,194,271.9z"/>
			<path class="st4" d="M208.1,263.7c0.6-0.3,1.2-0.5,2-0.5c0.8,0,1.5,0.2,2.1,0.6c0.6,0.4,1.1,0.9,1.5,1.6c0.4,0.7,0.5,1.5,0.5,2.4
				c0,0.9-0.2,1.7-0.5,2.4c-0.4,0.7-0.9,1.2-1.5,1.6c-0.6,0.4-1.3,0.6-2.1,0.6c-0.7,0-1.4-0.2-2-0.5c-0.6-0.3-1-0.8-1.3-1.3v5.8
				h-1.5v-12.9h1.5v1.6C207.1,264.4,207.5,264,208.1,263.7z M212.4,265.9c-0.3-0.5-0.6-0.9-1.1-1.1c-0.5-0.3-1-0.4-1.5-0.4
				c-0.5,0-1,0.1-1.5,0.4s-0.8,0.6-1.1,1.1c-0.3,0.5-0.4,1.1-0.4,1.7c0,0.7,0.1,1.2,0.4,1.7c0.3,0.5,0.6,0.9,1.1,1.1
				c0.5,0.3,0.9,0.4,1.5,0.4c0.5,0,1-0.1,1.5-0.4c0.5-0.3,0.8-0.6,1.1-1.1c0.3-0.5,0.4-1.1,0.4-1.8
				C212.8,267,212.6,266.4,212.4,265.9z"/>
			<path class="st4" d="M217.8,271.7c-0.7-0.4-1.2-0.9-1.6-1.6c-0.4-0.7-0.6-1.5-0.6-2.4c0-0.9,0.2-1.7,0.6-2.4
				c0.4-0.7,0.9-1.2,1.6-1.6c0.7-0.4,1.4-0.6,2.3-0.6s1.6,0.2,2.3,0.6c0.7,0.4,1.2,0.9,1.6,1.6c0.4,0.7,0.6,1.5,0.6,2.4
				c0,0.9-0.2,1.7-0.6,2.4c-0.4,0.7-0.9,1.2-1.6,1.6s-1.4,0.6-2.3,0.6C219.2,272.2,218.4,272,217.8,271.7z M221.5,270.6
				c0.5-0.2,0.8-0.6,1.1-1.1c0.3-0.5,0.4-1.1,0.4-1.8c0-0.7-0.1-1.3-0.4-1.8c-0.3-0.5-0.6-0.9-1.1-1.1c-0.4-0.2-0.9-0.4-1.5-0.4
				c-0.5,0-1,0.1-1.5,0.4c-0.4,0.2-0.8,0.6-1.1,1.1c-0.3,0.5-0.4,1.1-0.4,1.8c0,0.7,0.1,1.3,0.4,1.8c0.3,0.5,0.6,0.9,1,1.1
				s0.9,0.4,1.4,0.4C220.5,270.9,221,270.8,221.5,270.6z"/>
			<path class="st4" d="M229,263.6c0.5-0.3,1.1-0.4,1.7-0.4v1.5h-0.4c-1.6,0-2.4,0.9-2.4,2.7v4.8h-1.5v-8.8h1.5v1.4
				C228.1,264.2,228.5,263.8,229,263.6z"/>
		</g>
		<g class="st2">
			<path class="st4" d="M58.3,292.2h-7c0.1,0.9,0.3,1.5,0.9,2c0.5,0.5,1.2,0.7,2,0.7c0.6,0,1.2-0.1,1.6-0.4c0.4-0.3,0.7-0.7,0.9-1.2
				h1.6c-0.2,0.8-0.7,1.5-1.4,2.1c-0.7,0.5-1.6,0.8-2.6,0.8c-0.8,0-1.6-0.2-2.2-0.6c-0.7-0.4-1.2-0.9-1.5-1.6
				c-0.4-0.7-0.6-1.5-0.6-2.4c0-0.9,0.2-1.7,0.5-2.4s0.9-1.2,1.5-1.6c0.7-0.4,1.4-0.6,2.3-0.6c0.8,0,1.6,0.2,2.2,0.5
				c0.6,0.4,1.1,0.9,1.5,1.5s0.5,1.4,0.5,2.2C58.4,291.6,58.4,291.9,58.3,292.2z M56.5,289.6c-0.2-0.4-0.6-0.7-1-0.9
				s-0.9-0.3-1.4-0.3c-0.7,0-1.4,0.2-1.9,0.7c-0.5,0.5-0.8,1.1-0.9,2h5.5C56.9,290.5,56.8,290,56.5,289.6z"/>
			<path class="st4" d="M61.8,284.2v11.8h-1.5v-11.8H61.8z"/>
			<path class="st4" d="M77.7,284.9l-4.2,11.2h-1.7l-4.2-11.2h1.6l3.5,9.6l3.5-9.6H77.7z"/>
			<path class="st4" d="M79.4,285.6c-0.2-0.2-0.3-0.4-0.3-0.7s0.1-0.5,0.3-0.7c0.2-0.2,0.4-0.3,0.7-0.3c0.3,0,0.5,0.1,0.7,0.3
				c0.2,0.2,0.3,0.4,0.3,0.7s-0.1,0.5-0.3,0.7c-0.2,0.2-0.4,0.3-0.7,0.3C79.8,285.9,79.6,285.8,79.4,285.6z M80.8,287.3v8.8h-1.5
				v-8.8H80.8z"/>
			<path class="st4" d="M85.8,287.6c0.5-0.3,1.1-0.4,1.7-0.4v1.5h-0.4c-1.6,0-2.4,0.9-2.4,2.7v4.8h-1.5v-8.8h1.5v1.4
				C85,288.2,85.3,287.8,85.8,287.6z"/>
			<path class="st4" d="M97,287.3v8.8h-1.5v-1.3c-0.3,0.4-0.7,0.8-1.2,1c-0.5,0.3-1,0.4-1.6,0.4c-0.7,0-1.3-0.1-1.8-0.4
				s-1-0.7-1.3-1.3c-0.3-0.6-0.5-1.3-0.5-2.1v-5.1h1.4v4.9c0,0.9,0.2,1.5,0.7,2c0.4,0.5,1,0.7,1.8,0.7c0.8,0,1.4-0.2,1.8-0.7
				c0.4-0.5,0.7-1.2,0.7-2.1v-4.8H97z"/>
			<path class="st4" d="M100.8,295.9c-0.5-0.2-1-0.5-1.3-1c-0.3-0.4-0.5-0.9-0.5-1.4h1.5c0,0.4,0.2,0.8,0.6,1.1s0.9,0.4,1.4,0.4
				c0.6,0,1-0.1,1.3-0.4c0.3-0.2,0.5-0.6,0.5-0.9c0-0.4-0.2-0.7-0.5-0.9c-0.3-0.2-0.9-0.4-1.6-0.6c-0.7-0.2-1.2-0.3-1.6-0.5
				c-0.4-0.2-0.8-0.4-1.1-0.8c-0.3-0.3-0.4-0.8-0.4-1.4c0-0.4,0.1-0.9,0.4-1.2c0.3-0.4,0.6-0.7,1.1-0.9s1.1-0.3,1.7-0.3
				c1,0,1.8,0.2,2.4,0.7c0.6,0.5,0.9,1.2,1,2h-1.5c0-0.5-0.2-0.8-0.6-1.1c-0.3-0.3-0.8-0.4-1.4-0.4c-0.5,0-0.9,0.1-1.2,0.3
				c-0.3,0.2-0.5,0.5-0.5,0.9c0,0.3,0.1,0.5,0.3,0.7c0.2,0.2,0.4,0.3,0.7,0.4c0.3,0.1,0.7,0.2,1.2,0.4c0.6,0.2,1.1,0.3,1.5,0.5
				c0.4,0.2,0.7,0.4,1,0.7c0.3,0.3,0.4,0.8,0.4,1.3c0,0.5-0.1,0.9-0.4,1.3c-0.3,0.4-0.6,0.7-1.1,0.9c-0.5,0.2-1,0.3-1.7,0.3
				C101.9,296.2,101.3,296.1,100.8,295.9z"/>
			<path class="st4" d="M112.1,289.3c0.4-0.7,0.9-1.2,1.5-1.6c0.6-0.4,1.3-0.6,2.1-0.6c0.7,0,1.3,0.2,1.9,0.5c0.6,0.3,1,0.7,1.3,1.2
				v-4.6h1.5v11.8H119v-1.6c-0.3,0.5-0.7,1-1.3,1.3s-1.2,0.5-2,0.5c-0.8,0-1.5-0.2-2.1-0.6c-0.6-0.4-1.1-0.9-1.5-1.6
				s-0.5-1.5-0.5-2.4C111.6,290.8,111.7,290,112.1,289.3z M118.6,289.9c-0.3-0.5-0.6-0.9-1.1-1.1c-0.5-0.3-1-0.4-1.5-0.4
				c-0.5,0-1,0.1-1.5,0.4c-0.4,0.3-0.8,0.6-1.1,1.1c-0.3,0.5-0.4,1.1-0.4,1.7c0,0.7,0.1,1.3,0.4,1.8c0.3,0.5,0.6,0.9,1.1,1.1
				c0.4,0.3,0.9,0.4,1.5,0.4c0.5,0,1-0.1,1.5-0.4c0.5-0.3,0.8-0.6,1.1-1.1s0.4-1.1,0.4-1.7C119,291,118.8,290.4,118.6,289.9z"/>
			<path class="st4" d="M130.9,292.2h-7c0.1,0.9,0.3,1.5,0.9,2c0.5,0.5,1.2,0.7,2,0.7c0.6,0,1.2-0.1,1.6-0.4
				c0.4-0.3,0.7-0.7,0.9-1.2h1.6c-0.2,0.8-0.7,1.5-1.4,2.1c-0.7,0.5-1.6,0.8-2.6,0.8c-0.8,0-1.6-0.2-2.2-0.6
				c-0.7-0.4-1.2-0.9-1.5-1.6c-0.4-0.7-0.6-1.5-0.6-2.4c0-0.9,0.2-1.7,0.5-2.4s0.9-1.2,1.5-1.6c0.7-0.4,1.4-0.6,2.3-0.6
				c0.8,0,1.6,0.2,2.2,0.5c0.6,0.4,1.1,0.9,1.5,1.5s0.5,1.4,0.5,2.2C130.9,291.6,130.9,291.9,130.9,292.2z M129,289.6
				c-0.2-0.4-0.6-0.7-1-0.9s-0.9-0.3-1.4-0.3c-0.7,0-1.4,0.2-1.9,0.7c-0.5,0.5-0.8,1.1-0.9,2h5.5C129.4,290.5,129.3,290,129,289.6z"
				/>
			<path class="st4" d="M134.3,284.2v11.8h-1.5v-11.8H134.3z"/>
			<path class="st4" d="M147.5,290.5c-0.6,0.6-1.6,0.9-2.9,0.9h-2.1v4.7H141v-11.2h3.6c1.3,0,2.2,0.3,2.9,0.9c0.7,0.6,1,1.4,1,2.4
				C148.5,289.1,148.2,289.9,147.5,290.5z M146.4,289.7c0.4-0.4,0.6-0.9,0.6-1.5c0-1.4-0.8-2.1-2.4-2.1h-2.1v4.1h2.1
				C145.4,290.2,146,290,146.4,289.7z"/>
			<path class="st4" d="M150.3,289.3c0.4-0.7,0.9-1.2,1.5-1.6c0.6-0.4,1.3-0.6,2.1-0.6c0.8,0,1.4,0.2,2,0.5c0.6,0.3,1,0.7,1.3,1.2
				v-1.6h1.5v8.8h-1.5v-1.6c-0.3,0.5-0.7,0.9-1.3,1.3c-0.6,0.3-1.2,0.5-2,0.5c-0.8,0-1.5-0.2-2.1-0.6c-0.6-0.4-1.1-0.9-1.5-1.6
				c-0.4-0.7-0.5-1.5-0.5-2.4C149.8,290.8,149.9,290,150.3,289.3z M156.8,289.9c-0.3-0.5-0.6-0.9-1.1-1.1s-1-0.4-1.5-0.4
				s-1,0.1-1.5,0.4c-0.4,0.3-0.8,0.6-1.1,1.1c-0.3,0.5-0.4,1.1-0.4,1.7c0,0.7,0.1,1.3,0.4,1.8c0.3,0.5,0.6,0.9,1.1,1.1
				c0.4,0.3,0.9,0.4,1.5,0.4s1-0.1,1.5-0.4c0.5-0.3,0.8-0.6,1.1-1.1s0.4-1.1,0.4-1.7C157.2,291,157,290.4,156.8,289.9z"/>
			<path class="st4" d="M163.9,287.7c0.6-0.3,1.2-0.5,2-0.5c0.8,0,1.5,0.2,2.1,0.6c0.6,0.4,1.1,0.9,1.5,1.6c0.4,0.7,0.5,1.5,0.5,2.4
				c0,0.9-0.2,1.7-0.5,2.4s-0.9,1.2-1.5,1.6c-0.6,0.4-1.3,0.6-2.1,0.6c-0.7,0-1.4-0.2-2-0.5s-1-0.8-1.3-1.3v5.8h-1.5v-12.9h1.5v1.6
				C162.9,288.4,163.3,288,163.9,287.7z M168.1,289.9c-0.3-0.5-0.6-0.9-1.1-1.1s-1-0.4-1.5-0.4c-0.5,0-1,0.1-1.5,0.4
				c-0.5,0.3-0.8,0.6-1.1,1.1c-0.3,0.5-0.4,1.1-0.4,1.7c0,0.7,0.1,1.2,0.4,1.7c0.3,0.5,0.6,0.9,1.1,1.1c0.5,0.3,0.9,0.4,1.5,0.4
				c0.5,0,1-0.1,1.5-0.4c0.5-0.3,0.8-0.6,1.1-1.1s0.4-1.1,0.4-1.8C168.5,291,168.4,290.4,168.1,289.9z"/>
			<path class="st4" d="M172,285.6c-0.2-0.2-0.3-0.4-0.3-0.7s0.1-0.5,0.3-0.7c0.2-0.2,0.4-0.3,0.7-0.3c0.3,0,0.5,0.1,0.7,0.3
				c0.2,0.2,0.3,0.4,0.3,0.7s-0.1,0.5-0.3,0.7c-0.2,0.2-0.4,0.3-0.7,0.3C172.4,285.9,172.2,285.8,172,285.6z M173.4,287.3v8.8h-1.5
				v-8.8H173.4z"/>
			<path class="st4" d="M177.3,284.2v11.8h-1.5v-11.8H177.3z"/>
			<path class="st4" d="M181.4,295.7c-0.7-0.4-1.2-0.9-1.6-1.6c-0.4-0.7-0.6-1.5-0.6-2.4c0-0.9,0.2-1.7,0.6-2.4
				c0.4-0.7,0.9-1.2,1.6-1.6c0.7-0.4,1.4-0.6,2.3-0.6s1.6,0.2,2.3,0.6c0.7,0.4,1.2,0.9,1.6,1.6c0.4,0.7,0.6,1.5,0.6,2.4
				c0,0.9-0.2,1.7-0.6,2.4c-0.4,0.7-0.9,1.2-1.6,1.6s-1.4,0.6-2.3,0.6C182.8,296.2,182.1,296,181.4,295.7z M185.1,294.6
				c0.5-0.2,0.8-0.6,1.1-1.1c0.3-0.5,0.4-1.1,0.4-1.8c0-0.7-0.1-1.3-0.4-1.8c-0.3-0.5-0.6-0.9-1.1-1.1c-0.4-0.2-0.9-0.4-1.5-0.4
				c-0.5,0-1,0.1-1.5,0.4c-0.4,0.2-0.8,0.6-1.1,1.1c-0.3,0.5-0.4,1.1-0.4,1.8c0,0.7,0.1,1.3,0.4,1.8c0.3,0.5,0.6,0.9,1,1.1
				s0.9,0.4,1.4,0.4C184.2,294.9,184.6,294.8,185.1,294.6z"/>
			<path class="st4" d="M202.4,287.6c0.5,0.3,1,0.7,1.3,1.3c0.3,0.6,0.5,1.3,0.5,2.1v5.2h-1.4v-5c0-0.9-0.2-1.5-0.6-2
				s-1-0.7-1.8-0.7c-0.8,0-1.4,0.2-1.8,0.7c-0.4,0.5-0.7,1.2-0.7,2.1v4.8h-1.4v-5c0-0.9-0.2-1.5-0.6-2c-0.4-0.5-1-0.7-1.8-0.7
				c-0.8,0-1.4,0.2-1.8,0.7s-0.7,1.2-0.7,2.1v4.8H190v-8.8h1.5v1.3c0.3-0.5,0.7-0.8,1.2-1.1c0.5-0.2,1-0.4,1.6-0.4
				c0.7,0,1.4,0.2,2,0.5c0.6,0.3,1,0.8,1.3,1.5c0.2-0.6,0.7-1.1,1.2-1.4c0.6-0.3,1.2-0.5,1.9-0.5
				C201.3,287.1,201.9,287.3,202.4,287.6z"/>
			<path class="st4" d="M206.5,289.3c0.4-0.7,0.9-1.2,1.5-1.6c0.6-0.4,1.3-0.6,2.1-0.6c0.8,0,1.4,0.2,2,0.5c0.6,0.3,1,0.7,1.3,1.2
				v-1.6h1.5v8.8h-1.5v-1.6c-0.3,0.5-0.7,0.9-1.3,1.3s-1.2,0.5-2,0.5c-0.8,0-1.5-0.2-2.1-0.6c-0.6-0.4-1.1-0.9-1.5-1.6
				c-0.4-0.7-0.5-1.5-0.5-2.4C206,290.8,206.2,290,206.5,289.3z M213,289.9c-0.3-0.5-0.6-0.9-1.1-1.1c-0.5-0.3-1-0.4-1.5-0.4
				c-0.5,0-1,0.1-1.5,0.4s-0.8,0.6-1.1,1.1c-0.3,0.5-0.4,1.1-0.4,1.7c0,0.7,0.1,1.3,0.4,1.8s0.6,0.9,1.1,1.1
				c0.4,0.3,0.9,0.4,1.5,0.4c0.5,0,1-0.1,1.5-0.4c0.5-0.3,0.8-0.6,1.1-1.1s0.4-1.1,0.4-1.7C213.4,291,213.3,290.4,213,289.9z"/>
		</g>
		<g class="st2">
			<path class="st4" d="M82.9,308.9v11.2h-1.5V315h-5.7v5.1h-1.5v-11.2h1.5v4.9h5.7v-4.9H82.9z"/>
			<path class="st4" d="M93.2,311.3v8.8h-1.5v-1.3c-0.3,0.4-0.7,0.8-1.2,1c-0.5,0.3-1,0.4-1.6,0.4c-0.7,0-1.3-0.1-1.8-0.4
				s-1-0.7-1.3-1.3c-0.3-0.6-0.5-1.3-0.5-2.1v-5.1h1.4v4.9c0,0.9,0.2,1.5,0.7,2c0.4,0.5,1,0.7,1.8,0.7c0.8,0,1.4-0.2,1.8-0.7
				c0.4-0.5,0.7-1.2,0.7-2.1v-4.8H93.2z"/>
			<path class="st4" d="M108,311.6c0.5,0.3,1,0.7,1.3,1.3c0.3,0.6,0.5,1.3,0.5,2.1v5.2h-1.4v-5c0-0.9-0.2-1.5-0.6-2
				c-0.4-0.5-1-0.7-1.8-0.7c-0.8,0-1.4,0.2-1.8,0.7c-0.4,0.5-0.7,1.2-0.7,2.1v4.8H102v-5c0-0.9-0.2-1.5-0.6-2s-1-0.7-1.8-0.7
				c-0.8,0-1.4,0.2-1.8,0.7c-0.4,0.5-0.7,1.2-0.7,2.1v4.8h-1.5v-8.8h1.5v1.3c0.3-0.5,0.7-0.8,1.2-1.1c0.5-0.2,1-0.4,1.6-0.4
				c0.7,0,1.4,0.2,2,0.5c0.6,0.3,1,0.8,1.3,1.5c0.2-0.6,0.7-1.1,1.2-1.4c0.6-0.3,1.2-0.5,1.9-0.5C106.9,311.1,107.5,311.3,108,311.6
				z"/>
			<path class="st4" d="M112.1,313.3c0.4-0.7,0.9-1.2,1.5-1.6c0.6-0.4,1.3-0.6,2.1-0.6c0.8,0,1.4,0.2,2,0.5c0.6,0.3,1,0.7,1.3,1.2
				v-1.6h1.5v8.8H119v-1.6c-0.3,0.5-0.7,0.9-1.3,1.3c-0.6,0.3-1.2,0.5-2,0.5c-0.8,0-1.5-0.2-2.1-0.6c-0.6-0.4-1.1-0.9-1.5-1.6
				s-0.5-1.5-0.5-2.4C111.6,314.8,111.8,314,112.1,313.3z M118.6,313.9c-0.3-0.5-0.6-0.9-1.1-1.1c-0.5-0.3-1-0.4-1.5-0.4
				c-0.5,0-1,0.1-1.5,0.4c-0.4,0.3-0.8,0.6-1.1,1.1c-0.3,0.5-0.4,1.1-0.4,1.7c0,0.7,0.1,1.3,0.4,1.8c0.3,0.5,0.6,0.9,1.1,1.1
				c0.4,0.3,0.9,0.4,1.5,0.4c0.5,0,1-0.1,1.5-0.4c0.5-0.3,0.8-0.6,1.1-1.1s0.4-1.1,0.4-1.7C119,315,118.9,314.4,118.6,313.9z"/>
			<path class="st4" d="M129.8,312.1c0.7,0.6,1,1.6,1,2.8v5.2h-1.4v-5c0-0.9-0.2-1.5-0.7-2c-0.4-0.5-1-0.7-1.8-0.7
				c-0.8,0-1.4,0.2-1.8,0.7c-0.5,0.5-0.7,1.2-0.7,2.1v4.8H123v-8.8h1.5v1.2c0.3-0.4,0.7-0.8,1.2-1c0.5-0.2,1-0.4,1.6-0.4
				C128.3,311.1,129.2,311.5,129.8,312.1z"/>
			<path class="st4" d="M134.8,319.7c-0.7-0.4-1.2-0.9-1.6-1.6c-0.4-0.7-0.6-1.5-0.6-2.4c0-0.9,0.2-1.7,0.6-2.4
				c0.4-0.7,0.9-1.2,1.6-1.6c0.7-0.4,1.4-0.6,2.3-0.6s1.6,0.2,2.3,0.6c0.7,0.4,1.2,0.9,1.6,1.6c0.4,0.7,0.6,1.5,0.6,2.4
				c0,0.9-0.2,1.7-0.6,2.4c-0.4,0.7-0.9,1.2-1.6,1.6s-1.4,0.6-2.3,0.6C136.2,320.2,135.5,320,134.8,319.7z M138.5,318.6
				c0.5-0.2,0.8-0.6,1.1-1.1c0.3-0.5,0.4-1.1,0.4-1.8c0-0.7-0.1-1.3-0.4-1.8c-0.3-0.5-0.6-0.9-1.1-1.1c-0.4-0.2-0.9-0.4-1.5-0.4
				c-0.5,0-1,0.1-1.5,0.4c-0.4,0.2-0.8,0.6-1.1,1.1c-0.3,0.5-0.4,1.1-0.4,1.8c0,0.7,0.1,1.3,0.4,1.8c0.3,0.5,0.6,0.9,1,1.1
				s0.9,0.4,1.4,0.4C137.5,318.9,138,318.8,138.5,318.6z"/>
			<path class="st4" d="M149.1,319.2c-0.6-1.5-0.9-3.2-0.9-5c0-1.8,0.3-3.5,0.9-5.1s1.5-2.9,2.6-3.9h1.5v0.1c-1.2,1.1-2.1,2.5-2.7,4
				s-0.9,3.2-0.9,4.9c0,1.7,0.3,3.2,0.9,4.7s1.4,2.8,2.5,4v0.1h-1.5C150.4,322,149.6,320.8,149.1,319.2z"/>
			<path class="st4" d="M164.2,308.9l-4.2,11.2h-1.7l-4.2-11.2h1.6l3.5,9.6l3.5-9.6H164.2z"/>
			<path class="st4" d="M172.3,314.5c-0.6,0.6-1.6,0.9-2.9,0.9h-2.1v4.7h-1.5v-11.2h3.6c1.3,0,2.2,0.3,2.9,0.9c0.7,0.6,1,1.4,1,2.4
				C173.2,313.1,172.9,313.9,172.3,314.5z M171.2,313.7c0.4-0.4,0.6-0.9,0.6-1.5c0-1.4-0.8-2.1-2.4-2.1h-2.1v4.1h2.1
				C170.2,314.2,170.8,314,171.2,313.7z"/>
			<path class="st4" d="M183.6,308.9v11.2h-1.5V315h-5.7v5.1H175v-11.2h1.5v4.9h5.7v-4.9H183.6z"/>
			<path class="st4" d="M185.7,323v-0.1c1.1-1.1,1.9-2.4,2.5-4c0.6-1.5,0.9-3.1,0.9-4.7c0-1.7-0.3-3.3-0.9-4.9
				c-0.6-1.6-1.5-2.9-2.7-4v-0.1h1.5c1.1,1,2,2.3,2.6,3.9s0.9,3.3,0.9,5.1c0,1.8-0.3,3.5-0.9,5c-0.6,1.5-1.4,2.8-2.4,3.8H185.7z"/>
		</g>
	</g>
	<g>
		<g>
			<g>
				<path class="st5" d="M132.6,107.2c1.8,0,4,1.3,4,1.3l1.6-13l2.6-7.5l4.8-33l1.8-4.8l-14.8,3.3L132.6,107.2L132.6,107.2z"/>
				<path class="st5" d="M132.6,107.2c-1.8,0-4,1.3-4,1.3l-1.6-13l-2.6-7.5l-4.8-33l-1.8-4.8l14.8,3.3L132.6,107.2L132.6,107.2z"/>
			</g>
		</g>
		<path class="st6" d="M171.4,57.1c0,0-5.8,3.7-5.6,9.2c0.2,5.5,6.4,5.6,10.4,0.9s3.6-8.8,3.6-8.8l-4.1-4L171.4,57.1z"/>
		<path class="st6" d="M93.9,57.1c0,0,5.8,3.7,5.6,9.2c-0.2,5.5-6.4,5.6-10.4,0.9s-3.6-8.8-3.6-8.8l4.1-4L93.9,57.1z"/>
		<path class="st7" d="M181.3,48.2c-3.1-6.3-8.4-7.4-15.2-5.9c-6.9,1.4-6.9,7-15.9,4.7c-11.6-2.9-9.2-3.6-17.5-3.6v11.9
			c7,0,11.9-1.9,11.9-1.9s-11,6-11,17.2c0,6.6,0.4,12.3,0,15.4s1.4,4.8,3,4.8l0,0c1.5,0,1.7-1.3,2.8-1.2c1.1,0.1-0.2,1.5-1.7,4.1
			c-0.1,0.2-0.2,0.5-0.3,0.8c-1,3.3-0.9,12.1-0.9,14.3c0,0.3,0.2,0.5,0.5,0.5c0.3,0,0.5-0.2,0.5-0.5c0.1-1.7,0.6-7.6,1.5-11.6
			c0.1-0.3,0.1-0.6,0.2-0.8c1.3-4.7,2.1-6.9,4.8-15.8c0,0,0-0.1,0-0.1c0.1-0.3,0.1-0.5,0.2-0.8c2.5-9,5-14.3,5.1-21.1
			c0,0,6.6-2.6,10.6-6.5s6.9-6.2,11.5-5.3s5.4,4.7-0.6,9.6c0,0,0.9,2.1,3.4,1c0,0,0.5,3.9,4.2,2.8c0,0-1,2.8,2.3,3.5
			C180.6,63.5,184.4,54.5,181.3,48.2z"/>
		<path class="st7" d="M83.9,48.2c3.1-6.3,8.4-7.4,15.2-5.9c6.8,1.4,6.9,7,15.9,4.7c11.6-2.9,9.2-3.6,17.5-3.6v11.9
			c-7,0-11.9-1.9-11.9-1.9s11,6,11,17.2c0,6.6-0.4,12.3,0,15.4s-1.4,4.8-3,4.8l0,0c-1.5,0-1.7-1.3-2.8-1.2c-1.1,0.1,0.2,1.5,1.7,4.1
			c0.1,0.2,0.2,0.5,0.3,0.8c1,3.3,1,12.1,0.9,14.3c0,0.3-0.2,0.5-0.5,0.5c-0.3,0-0.5-0.2-0.5-0.5c-0.1-1.7-0.6-7.6-1.5-11.6
			c-0.1-0.3-0.1-0.6-0.2-0.8c-1.3-4.7-2.1-6.9-4.8-15.8c0,0,0-0.1,0-0.1c-0.1-0.3-0.2-0.5-0.2-0.8c-2.5-9-5-14.3-5.1-21.1
			c0,0-6.7-2.6-10.6-6.5s-6.8-6.2-11.5-5.3c-4.7,1-5.4,4.7,0.6,9.6c0,0-0.9,2.1-3.3,1c0,0-0.5,3.9-4.2,2.8c0,0,1,2.8-2.3,3.5
			C84.7,63.5,80.8,54.5,83.9,48.2z"/>
	</g>
</g>
</svg>
