<svg xmlns="http://www.w3.org/2000/svg" viewBox="0 0 116.06 75"><defs><style>.cls-1,.cls-4{isolation:isolate;}.cls-2{fill:#f8c5b0;}.cls-3,.cls-4{fill:#d36f62;}.cls-4{opacity:0.5;mix-blend-mode:multiply;}.cls-5{fill:none;stroke:#f173ac;stroke-miterlimit:10;stroke-width:2px;}</style></defs><title>Sin título-1</title><g class="cls-1"><g id="Capa_1" data-name="Capa 1"><path class="cls-2" d="M542.2,1189.31a7.34,7.34,0,0,1,12.24-5.46q2.05,1.85,4.56,4.06c13.91,12.34,28.35,25.2,32.82,33.34,0,0-2.37,35.44-30.19,35.7-9.06,0-14.86-2-17.59-3.23a3.13,3.13,0,0,1-1.84-2.87Z" transform="translate(-504.75 -1181.95)"/><path class="cls-3" d="M584.25,1211.55s-3.12,14,5,21.85a57.34,57.34,0,0,0,2.52-12.16A53.93,53.93,0,0,0,584.25,1211.55Z" transform="translate(-504.75 -1181.95)"/><path class="cls-3" d="M589.14,1217.24s-1.41,5.82,1.93,9.22c0,0,3.16-2,2.23-5.3A4.9,4.9,0,0,0,589.14,1217.24Z" transform="translate(-504.75 -1181.95)"/><path class="cls-4" d="M589.14,1217.24s-1.41,5.82,1.93,9.22c0,0,3.16-2,2.23-5.3A4.9,4.9,0,0,0,589.14,1217.24Z" transform="translate(-504.75 -1181.95)"/><path class="cls-5" d="M597.83,1188.37a2.43,2.43,0,0,0-3.14-1.24c-5,2-18,6.76-31.91,6.76s-26.92-4.72-31.92-6.76a2.43,2.43,0,0,0-3.14,1.24l-21.51,47a5,5,0,0,0,2.53,6.71c8,3.53,26.2,9.91,54,9.91s46.08-6.38,54-9.91a5.05,5.05,0,0,0,2.54-6.71Z" transform="translate(-504.75 -1181.95)"/><path class="cls-2" d="M591.82,1221.25s-2.37,35.44-30.19,35.7c-9.06,0-14.86-2-17.59-3.23a3.13,3.13,0,0,1-1.84-2.87v-34" transform="translate(-504.75 -1181.95)"/><path class="cls-3" d="M584.25,1211.55s-3.12,14,5,21.85a57.34,57.34,0,0,0,2.52-12.16A53.93,53.93,0,0,0,584.25,1211.55Z" transform="translate(-504.75 -1181.95)"/><path class="cls-3" d="M589.14,1217.24s-1.41,5.82,1.93,9.22c0,0,3.16-2,2.23-5.3A4.9,4.9,0,0,0,589.14,1217.24Z" transform="translate(-504.75 -1181.95)"/><path class="cls-4" d="M589.14,1217.24s-1.41,5.82,1.93,9.22c0,0,3.16-2,2.23-5.3A4.9,4.9,0,0,0,589.14,1217.24Z" transform="translate(-504.75 -1181.95)"/></g></g></svg>