<?xml version="1.0" encoding="utf-8"?>
<!-- Generator: Adobe Illustrator 24.1.1, SVG Export Plug-In . SVG Version: 6.00 Build 0)  -->
<svg version="1.1" id="Capa_1" xmlns="http://www.w3.org/2000/svg" xmlns:xlink="http://www.w3.org/1999/xlink" x="0px" y="0px"
	 viewBox="0 0 290 362" style="enable-background:new 0 0 290 362;" xml:space="preserve">
<style type="text/css">
	.st0{fill:#FFFFFF;}
	.st1{fill:#007CC3;}
	.st2{fill:#D36F62;}
	.st3{fill:#F8C5B0;}
	.st4{fill:#F7A6A9;}
	.st5{fill:#F173AC;}
	.st6{clip-path:url(#SVGID_2_);}
	.st7{fill:#D9D9D9;}
	.st8{fill:#BFBFBF;}
	.st9{fill:#999999;}
	.st10{fill:#1A1A1A;}
	.st11{clip-path:url(#SVGID_4_);}
	.st12{fill:#F5A4C7;}
	.st13{fill:#F4C6DE;}
	.st14{opacity:0.5;fill:#D36F62;}
	.st15{fill:none;stroke:#F4C6DE;stroke-linecap:round;stroke-linejoin:round;stroke-miterlimit:10;}
</style>
<rect x="-14.63" y="-36.83" transform="matrix(-1 4.592270e-11 -4.592270e-11 -1 290 362)" class="st0" width="319.25" height="435.66"/>
<g>
	<g>
		<path class="st1" d="M96.42,151.37v-17.5h11.17v3h-8.02v4.25h6.45v3h-6.45v4.25h8.02v3H96.42z"/>
		<path class="st1" d="M116.69,146.52l3.07,0.3v0.2c0,2.65-1.9,4.6-4.57,4.6h-0.78c-2.67,0-4.57-1.95-4.57-4.6v-4.05
			c0-2.65,1.9-4.6,4.57-4.6h0.78c2.67,0,4.57,1.95,4.57,4.6v0.2l-3.07,0.3v-0.6c0-0.82-0.67-1.5-1.5-1.5h-0.78
			c-0.82,0-1.5,0.67-1.5,1.5v4.25c0,0.83,0.67,1.5,1.5,1.5h0.78c0.82,0,1.5-0.67,1.5-1.5V146.52z"/>
		<path class="st1" d="M132.44,147.02c0,2.65-1.9,4.6-4.57,4.6h-0.78c-2.67,0-4.57-1.95-4.57-4.6v-4.05c0-2.65,1.9-4.6,4.57-4.6
			h0.78c2.67,0,4.57,1.95,4.57,4.6V147.02z M129.36,142.88c0-0.82-0.67-1.5-1.5-1.5h-0.78c-0.82,0-1.5,0.67-1.5,1.5v4.25
			c0,0.83,0.67,1.5,1.5,1.5h0.78c0.82,0,1.5-0.67,1.5-1.5V142.88z"/>
		<path class="st1" d="M136.49,150.02c-0.68-0.42-1.05-1.17-1.05-2.15c0-0.88,0.3-1.58,0.87-2.07c-0.75-0.78-1.12-1.78-1.12-3v-0.07
			c0-2.5,1.82-4.35,4.5-4.35h0.4c1.33,0,2.35,0.48,3.1,1.4l0.75-1.15h1.42v4.17c0,2.5-1.8,4.35-4.45,4.35h-2.27
			c-0.42,0-0.73,0.3-0.73,0.72s0.3,0.7,0.73,0.7h2.37c2.52,0,4.1,1.7,4.1,3.9s-1.57,3.9-4.1,3.9h-1.22c-2.52,0-4.1-1.7-4.1-3.9
			C135.69,151.52,135.96,150.7,136.49,150.02z M142.41,142.63c0-0.9-0.72-1.65-1.62-1.65h-1.03c-0.92,0-1.62,0.75-1.62,1.65v0.28
			c0,0.92,0.7,1.65,1.62,1.65h1.03c0.9,0,1.62-0.67,1.62-1.65V142.63z M142.31,152.37c0-0.6-0.45-1.1-1.33-1.1h-1.17
			c-0.88,0-1.33,0.5-1.33,1.1v0.2c0,0.62,0.45,1.1,1.33,1.1h1.17c0.88,0,1.33-0.48,1.33-1.1V152.37z"/>
		<path class="st1" d="M150.31,140.05c0.77-1.02,1.9-1.67,3.22-1.67h1.47v3.12h-2.47c-0.88,0-1.47,0.6-1.47,1.48v8.4h-3.07v-12.75
			h1.42L150.31,140.05z"/>
		<path class="st1" d="M164.34,150c-0.67,1-1.9,1.63-3.4,1.63h-0.05c-2.58,0-4.12-1.47-4.12-3.57v-0.5c0-2.1,1.55-3.52,4.12-3.52
			h2.67v-1.32c0-0.72-0.67-1.32-1.5-1.32h-0.6c-0.82,0-1.5,0.6-1.5,1.32v0.47l-3.07-0.3v-0.08c0-2.5,1.9-4.42,4.57-4.42h0.6
			c2.67,0,4.57,1.92,4.57,4.42v8.57h-1.42L164.34,150z M159.84,147.57c0,0.67,0.52,1.2,1.3,1.2h1.15c0.67,0,1.27-0.5,1.27-1.17v-1.3
			h-2.42c-0.78,0-1.3,0.53-1.3,1.2V147.57z"/>
		<path class="st1" d="M176.51,133.88v2.92h-1.67c-0.82,0-1.25,0.42-1.25,1.25v0.57h2.67v2.92h-2.67v9.82h-3.07v-9.82h-2.25v-2.92
			h2.25v-0.65c0-2.67,1.4-4.1,4.07-4.1H176.51z"/>
		<path class="st1" d="M179.89,136.88h-2.62l2-3.25h4L179.89,136.88z M178.01,151.37v-12.75h3.07v12.75H178.01z"/>
		<path class="st1" d="M191.66,150c-0.67,1-1.9,1.63-3.4,1.63h-0.05c-2.58,0-4.12-1.47-4.12-3.57v-0.5c0-2.1,1.55-3.52,4.12-3.52
			h2.67v-1.32c0-0.72-0.67-1.32-1.5-1.32h-0.6c-0.82,0-1.5,0.6-1.5,1.32v0.47l-3.07-0.3v-0.08c0-2.5,1.9-4.42,4.57-4.42h0.6
			c2.67,0,4.57,1.92,4.57,4.42v8.57h-1.42L191.66,150z M187.16,147.57c0,0.67,0.52,1.2,1.3,1.2h1.15c0.67,0,1.27-0.5,1.27-1.17v-1.3
			h-2.42c-0.78,0-1.3,0.53-1.3,1.2V147.57z"/>
		<path class="st1" d="M85.34,181.37c-2.67,0-4.07-1.42-4.07-4.1v-5.72h-2.25v-2.92h2.25v-3l3.07-0.5v3.5h2.92v2.92h-2.92v5.57
			c0,0.83,0.42,1.25,1.25,1.25h1.67v3H85.34z"/>
		<path class="st1" d="M92.34,170.05c0.77-1.02,1.9-1.67,3.22-1.67h1.47v3.12h-2.47c-0.88,0-1.47,0.6-1.47,1.48v8.4h-3.07v-12.75
			h1.42L92.34,170.05z"/>
		<path class="st1" d="M106.36,180c-0.67,1-1.9,1.63-3.4,1.63h-0.05c-2.58,0-4.12-1.47-4.12-3.57v-0.5c0-2.1,1.55-3.52,4.12-3.52
			h2.67v-1.32c0-0.72-0.67-1.32-1.5-1.32h-0.6c-0.82,0-1.5,0.6-1.5,1.32v0.47l-3.07-0.3v-0.08c0-2.5,1.9-4.42,4.57-4.42h0.6
			c2.67,0,4.57,1.92,4.57,4.42v8.57h-1.42L106.36,180z M101.86,177.57c0,0.67,0.52,1.2,1.3,1.2h1.15c0.67,0,1.27-0.5,1.27-1.17v-1.3
			h-2.42c-0.78,0-1.3,0.53-1.3,1.2V177.57z"/>
		<path class="st1" d="M114.11,170.05c0.77-1.02,1.9-1.67,3.22-1.67h0.05c2.77,0,4.32,1.65,4.32,4.57v8.42h-3.07v-8.52
			c0-0.88-0.6-1.47-1.47-1.47h-0.82c-0.88,0-1.47,0.6-1.47,1.47v8.52h-3.07v-12.75h1.42L114.11,170.05z"/>
		<path class="st1" d="M134.46,177.8c0,2.2-1.87,3.82-4.52,3.82h-0.75c-2.67,0-4.62-1.85-4.62-4.35v-0.08l3.07-0.25v0.47
			c0,0.78,0.55,1.33,1.38,1.33h1.15c0.7,0,1.2-0.42,1.2-1c0-2.3-6.65-0.33-6.65-5.55c0-2.2,1.87-3.82,4.52-3.82h0.45
			c2.65,0,4.62,1.8,4.62,4.3v0.08l-3.07,0.3v-0.47c0-0.77-0.58-1.32-1.38-1.32h-0.83c-0.72,0-1.25,0.45-1.25,1.05
			C127.79,174.5,134.46,172.6,134.46,177.8z"/>
		<path class="st1" d="M139.64,181.37l-3.8-12.75h3.22l2.55,9.55l0.05,0.65l0.05-0.65l2.55-9.55h3.22l-3.8,12.75H139.64z"/>
		<path class="st1" d="M156.56,180c-0.67,1-1.9,1.63-3.4,1.63h-0.05c-2.58,0-4.12-1.47-4.12-3.57v-0.5c0-2.1,1.55-3.52,4.12-3.52
			h2.67v-1.32c0-0.72-0.67-1.32-1.5-1.32h-0.6c-0.82,0-1.5,0.6-1.5,1.32v0.47l-3.07-0.3v-0.08c0-2.5,1.9-4.42,4.57-4.42h0.6
			c2.67,0,4.57,1.92,4.57,4.42v8.57h-1.42L156.56,180z M152.06,177.57c0,0.67,0.52,1.2,1.3,1.2h1.15c0.67,0,1.27-0.5,1.27-1.17v-1.3
			h-2.42c-0.78,0-1.3,0.53-1.3,1.2V177.57z"/>
		<path class="st1" d="M163.04,180.02c-0.67-0.42-1.05-1.17-1.05-2.15c0-0.88,0.3-1.58,0.87-2.07c-0.75-0.78-1.12-1.78-1.12-3v-0.07
			c0-2.5,1.82-4.35,4.5-4.35h0.4c1.32,0,2.35,0.48,3.1,1.4l0.75-1.15h1.42v4.17c0,2.5-1.8,4.35-4.45,4.35h-2.27
			c-0.43,0-0.73,0.3-0.73,0.72s0.3,0.7,0.73,0.7h2.37c2.52,0,4.1,1.7,4.1,3.9c0,2.2-1.57,3.9-4.1,3.9h-1.22c-2.52,0-4.1-1.7-4.1-3.9
			C162.24,181.52,162.51,180.7,163.04,180.02z M168.96,172.63c0-0.9-0.72-1.65-1.62-1.65h-1.03c-0.92,0-1.62,0.75-1.62,1.65v0.28
			c0,0.92,0.7,1.65,1.62,1.65h1.03c0.9,0,1.62-0.67,1.62-1.65V172.63z M168.86,182.37c0-0.6-0.45-1.1-1.33-1.1h-1.17
			c-0.87,0-1.32,0.5-1.32,1.1v0.2c0,0.62,0.45,1.1,1.32,1.1h1.17c0.88,0,1.33-0.48,1.33-1.1V182.37z"/>
		<path class="st1" d="M174.54,163.88h3.07v2.58h-3.07V163.88z M174.54,181.37v-12.75h3.07v12.75H174.54z"/>
		<path class="st1" d="M183.19,170.05c0.77-1.02,1.9-1.67,3.22-1.67h0.05c2.77,0,4.32,1.65,4.32,4.57v8.42h-3.07v-8.52
			c0-0.88-0.6-1.47-1.47-1.47h-0.82c-0.88,0-1.47,0.6-1.47,1.47v8.52h-3.07v-12.75h1.42L183.19,170.05z"/>
		<path class="st1" d="M201.24,180c-0.67,1-1.9,1.63-3.4,1.63h-0.05c-2.58,0-4.12-1.47-4.12-3.57v-0.5c0-2.1,1.55-3.52,4.12-3.52
			h2.67v-1.32c0-0.72-0.67-1.32-1.5-1.32h-0.6c-0.82,0-1.5,0.6-1.5,1.32v0.47l-3.07-0.3v-0.08c0-2.5,1.9-4.42,4.57-4.42h0.6
			c2.67,0,4.57,1.92,4.57,4.42v8.57h-1.42L201.24,180z M196.74,177.57c0,0.67,0.52,1.2,1.3,1.2h1.15c0.67,0,1.27-0.5,1.27-1.17v-1.3
			h-2.42c-0.78,0-1.3,0.53-1.3,1.2V177.57z"/>
		<path class="st1" d="M206.66,181.37v-17.5h3.07v17.5H206.66z"/>
		<g>
			<path d="M50.64,218.22l-4.21,11.15h-1.68l-4.21-11.15h1.55l3.5,9.62l3.5-9.62H50.64z"/>
		</g>
		<g>
			<path d="M52.28,218.89c-0.19-0.19-0.29-0.43-0.29-0.7s0.1-0.51,0.29-0.7c0.19-0.19,0.43-0.29,0.7-0.29c0.27,0,0.49,0.1,0.68,0.29
				c0.19,0.19,0.28,0.43,0.28,0.7s-0.09,0.51-0.28,0.7c-0.19,0.19-0.41,0.29-0.68,0.29C52.71,219.18,52.48,219.09,52.28,218.89z
				 M53.69,220.61v8.77h-1.46v-8.77H53.69z"/>
		</g>
		<g>
			<path d="M57.47,229.17c-0.53-0.23-0.96-0.55-1.26-0.96c-0.31-0.41-0.48-0.88-0.51-1.42h1.5c0.04,0.44,0.25,0.79,0.62,1.07
				s0.85,0.42,1.45,0.42c0.55,0,0.99-0.12,1.31-0.37s0.48-0.55,0.48-0.93c0-0.38-0.17-0.67-0.51-0.86
				c-0.34-0.19-0.87-0.37-1.58-0.55c-0.65-0.17-1.18-0.34-1.59-0.52c-0.41-0.18-0.76-0.44-1.06-0.78c-0.29-0.35-0.44-0.8-0.44-1.37
				c0-0.45,0.13-0.86,0.4-1.23c0.27-0.37,0.65-0.67,1.14-0.89s1.05-0.33,1.68-0.33c0.97,0,1.75,0.25,2.35,0.74
				c0.6,0.49,0.92,1.16,0.96,2.02h-1.46c-0.03-0.46-0.22-0.83-0.55-1.1s-0.79-0.42-1.35-0.42c-0.52,0-0.94,0.11-1.25,0.34
				c-0.31,0.22-0.46,0.52-0.46,0.88c0,0.29,0.09,0.53,0.28,0.71s0.42,0.34,0.7,0.45c0.28,0.11,0.67,0.24,1.18,0.38
				c0.63,0.17,1.14,0.34,1.54,0.5s0.73,0.41,1.02,0.74c0.28,0.33,0.43,0.76,0.44,1.3c0,0.48-0.13,0.91-0.4,1.3s-0.64,0.69-1.13,0.9
				c-0.49,0.22-1.04,0.33-1.67,0.33C58.6,229.52,58,229.4,57.47,229.17z"/>
		</g>
		<g>
			<path d="M72.3,220.61v8.77h-1.46v-1.3c-0.28,0.45-0.66,0.8-1.16,1.05c-0.5,0.25-1.04,0.38-1.64,0.38c-0.68,0-1.3-0.14-1.84-0.42
				s-0.97-0.71-1.29-1.27c-0.31-0.56-0.47-1.25-0.47-2.06v-5.14h1.44v4.94c0,0.86,0.22,1.53,0.66,1.99s1.03,0.7,1.79,0.7
				c0.78,0,1.39-0.24,1.84-0.72c0.45-0.48,0.67-1.18,0.67-2.1v-4.82H72.3z"/>
		</g>
		<g>
			<path d="M74.76,222.6c0.36-0.68,0.86-1.2,1.5-1.58c0.63-0.37,1.34-0.56,2.12-0.56c0.77,0,1.43,0.17,2,0.5
				c0.57,0.33,0.99,0.75,1.26,1.25v-1.6h1.47v8.77h-1.47v-1.63c-0.29,0.51-0.72,0.94-1.29,1.27c-0.57,0.34-1.24,0.5-1.99,0.5
				c-0.78,0-1.48-0.19-2.11-0.58c-0.63-0.38-1.13-0.92-1.49-1.62c-0.36-0.69-0.54-1.48-0.54-2.37
				C74.22,224.06,74.4,223.28,74.76,222.6z M81.24,223.25c-0.27-0.49-0.63-0.87-1.08-1.13s-0.95-0.39-1.5-0.39s-1.04,0.13-1.49,0.38
				c-0.45,0.26-0.81,0.63-1.07,1.12c-0.27,0.49-0.4,1.07-0.4,1.73c0,0.67,0.13,1.26,0.4,1.75s0.62,0.88,1.07,1.14
				c0.45,0.26,0.94,0.39,1.49,0.39s1.04-0.13,1.5-0.39c0.45-0.26,0.81-0.64,1.08-1.14s0.4-1.07,0.4-1.74
				C81.64,224.31,81.51,223.74,81.24,223.25z"/>
		</g>
		<g>
			<path d="M87.04,217.53v11.84h-1.46v-11.84H87.04z"/>
		</g>
		<g>
			<path d="M89.56,218.89c-0.19-0.19-0.29-0.43-0.29-0.7s0.1-0.51,0.29-0.7c0.19-0.19,0.43-0.29,0.7-0.29c0.27,0,0.49,0.1,0.68,0.29
				c0.19,0.19,0.28,0.43,0.28,0.7s-0.09,0.51-0.28,0.7c-0.19,0.19-0.41,0.29-0.68,0.29C89.99,219.18,89.75,219.09,89.56,218.89z
				 M90.97,220.61v8.77h-1.46v-8.77H90.97z"/>
		</g>
		<g>
			<path d="M94.54,228.17h4.3v1.2h-5.97v-1.2l4.26-6.38h-4.22v-1.18h5.9v1.18L94.54,228.17z"/>
		</g>
		<g>
			<path d="M100.73,222.6c0.36-0.68,0.86-1.2,1.5-1.58c0.63-0.37,1.34-0.56,2.12-0.56c0.77,0,1.43,0.17,2,0.5
				c0.57,0.33,0.99,0.75,1.26,1.25v-1.6h1.47v8.77h-1.47v-1.63c-0.29,0.51-0.72,0.94-1.29,1.27c-0.57,0.34-1.24,0.5-1.99,0.5
				c-0.78,0-1.48-0.19-2.11-0.58c-0.63-0.38-1.13-0.92-1.49-1.62c-0.36-0.69-0.54-1.48-0.54-2.37
				C100.19,224.06,100.37,223.28,100.73,222.6z M107.21,223.25c-0.27-0.49-0.63-0.87-1.08-1.13s-0.95-0.39-1.5-0.39
				s-1.04,0.13-1.49,0.38c-0.45,0.26-0.81,0.63-1.07,1.12c-0.27,0.49-0.4,1.07-0.4,1.73c0,0.67,0.13,1.26,0.4,1.75
				s0.62,0.88,1.07,1.14c0.45,0.26,0.94,0.39,1.49,0.39s1.04-0.13,1.5-0.39c0.45-0.26,0.81-0.64,1.08-1.14s0.4-1.07,0.4-1.74
				C107.61,224.31,107.48,223.74,107.21,223.25z"/>
		</g>
		<g>
			<path d="M111.55,222.6c0.36-0.68,0.87-1.2,1.51-1.58c0.65-0.37,1.38-0.56,2.22-0.56c1.08,0,1.96,0.26,2.66,0.78
				c0.7,0.52,1.16,1.25,1.38,2.18h-1.57c-0.15-0.53-0.44-0.95-0.87-1.26c-0.43-0.31-0.97-0.46-1.61-0.46c-0.83,0-1.5,0.29-2.02,0.86
				c-0.51,0.57-0.77,1.38-0.77,2.42c0,1.06,0.26,1.87,0.77,2.45c0.51,0.58,1.18,0.86,2.02,0.86c0.64,0,1.17-0.15,1.6-0.45
				s0.72-0.73,0.88-1.28h1.57c-0.23,0.9-0.7,1.61-1.41,2.15c-0.7,0.54-1.58,0.81-2.64,0.81c-0.83,0-1.57-0.19-2.22-0.56
				s-1.15-0.9-1.51-1.58c-0.36-0.68-0.54-1.48-0.54-2.4C111,224.07,111.18,223.28,111.55,222.6z"/>
		</g>
		<g>
			<path d="M121.31,218.89c-0.19-0.19-0.29-0.43-0.29-0.7s0.1-0.51,0.29-0.7c0.19-0.19,0.43-0.29,0.7-0.29
				c0.27,0,0.49,0.1,0.68,0.29c0.19,0.19,0.28,0.43,0.28,0.7s-0.09,0.51-0.28,0.7c-0.19,0.19-0.41,0.29-0.68,0.29
				C121.73,219.18,121.5,219.09,121.31,218.89z M122.71,220.61v8.77h-1.46v-8.77H122.71z"/>
		</g>
		<g>
			<path d="M126.79,228.96c-0.67-0.37-1.19-0.9-1.57-1.59c-0.38-0.69-0.57-1.49-0.57-2.39c0-0.9,0.19-1.69,0.58-2.38
				c0.39-0.69,0.92-1.22,1.59-1.58c0.67-0.37,1.42-0.55,2.26-0.55s1.58,0.18,2.26,0.55c0.67,0.37,1.2,0.89,1.59,1.58
				s0.58,1.48,0.58,2.38c0,0.91-0.2,1.7-0.6,2.39c-0.4,0.69-0.94,1.22-1.62,1.59s-1.44,0.56-2.27,0.56
				C128.2,229.52,127.45,229.33,126.79,228.96z M130.49,227.87c0.46-0.25,0.83-0.61,1.11-1.1c0.28-0.49,0.42-1.09,0.42-1.79
				c0-0.7-0.14-1.3-0.42-1.79c-0.28-0.49-0.64-0.86-1.09-1.1c-0.45-0.24-0.93-0.36-1.46-0.36c-0.53,0-1.02,0.12-1.46,0.36
				s-0.8,0.61-1.06,1.1c-0.27,0.49-0.4,1.09-0.4,1.79c0,0.71,0.13,1.32,0.39,1.81c0.26,0.49,0.61,0.86,1.05,1.1s0.92,0.36,1.44,0.36
				S130.03,228.12,130.49,227.87z M130.65,218.01l-3.41,1.82v-1.09l3.41-2V218.01z"/>
		</g>
		<g>
			<path d="M142.3,221.41c0.66,0.65,0.99,1.58,0.99,2.79v5.17h-1.44v-4.96c0-0.88-0.22-1.54-0.66-2.01s-1.04-0.7-1.79-0.7
				c-0.77,0-1.38,0.24-1.83,0.72c-0.45,0.48-0.68,1.18-0.68,2.1v4.85h-1.46v-8.77h1.46v1.25c0.29-0.45,0.68-0.79,1.18-1.04
				c0.5-0.25,1.04-0.37,1.64-0.37C140.77,220.45,141.64,220.77,142.3,221.41z"/>
		</g>
		<g>
			<path d="M149.95,222.6c0.36-0.68,0.86-1.2,1.5-1.58c0.63-0.37,1.35-0.56,2.14-0.56c0.68,0,1.32,0.16,1.9,0.47
				c0.59,0.32,1.04,0.73,1.34,1.24v-4.64h1.47v11.84h-1.47v-1.65c-0.29,0.52-0.71,0.95-1.28,1.29s-1.23,0.5-1.98,0.5
				c-0.78,0-1.49-0.19-2.12-0.58c-0.63-0.38-1.13-0.92-1.5-1.62c-0.36-0.69-0.54-1.48-0.54-2.37
				C149.4,224.06,149.58,223.28,149.95,222.6z M156.43,223.25c-0.27-0.49-0.63-0.87-1.08-1.13s-0.95-0.39-1.5-0.39
				s-1.04,0.13-1.49,0.38c-0.45,0.26-0.81,0.63-1.07,1.12c-0.27,0.49-0.4,1.07-0.4,1.73c0,0.67,0.13,1.26,0.4,1.75
				s0.62,0.88,1.07,1.14c0.45,0.26,0.94,0.39,1.49,0.39s1.04-0.13,1.5-0.39c0.45-0.26,0.81-0.64,1.08-1.14s0.4-1.07,0.4-1.74
				C156.83,224.31,156.69,223.74,156.43,223.25z"/>
		</g>
		<g>
			<path d="M168.71,225.53h-7.01c0.05,0.86,0.35,1.54,0.89,2.02c0.54,0.49,1.19,0.73,1.96,0.73c0.63,0,1.15-0.15,1.58-0.44
				c0.42-0.29,0.72-0.68,0.89-1.18h1.57c-0.23,0.84-0.7,1.53-1.41,2.06c-0.7,0.53-1.58,0.79-2.62,0.79c-0.83,0-1.58-0.19-2.23-0.56
				s-1.17-0.9-1.54-1.59c-0.37-0.69-0.56-1.49-0.56-2.39c0-0.91,0.18-1.7,0.54-2.38c0.36-0.68,0.87-1.21,1.53-1.58
				c0.66-0.37,1.41-0.55,2.26-0.55c0.83,0,1.57,0.18,2.21,0.54c0.64,0.36,1.13,0.86,1.48,1.5s0.52,1.35,0.52,2.15
				C168.76,224.93,168.75,225.22,168.71,225.53z M166.89,222.92c-0.25-0.4-0.58-0.7-1-0.91c-0.42-0.21-0.89-0.31-1.4-0.31
				c-0.74,0-1.36,0.23-1.88,0.7c-0.52,0.47-0.81,1.12-0.89,1.95h5.54C167.26,223.8,167.14,223.32,166.89,222.92z"/>
		</g>
		<g>
			<path d="M172.14,217.53v11.84h-1.46v-11.84H172.14z"/>
		</g>
		<g>
			<path d="M186.67,220.61v8.77h-1.46v-1.3c-0.28,0.45-0.66,0.8-1.16,1.05c-0.5,0.25-1.04,0.38-1.64,0.38
				c-0.68,0-1.3-0.14-1.84-0.42s-0.97-0.71-1.29-1.27c-0.31-0.56-0.47-1.25-0.47-2.06v-5.14h1.44v4.94c0,0.86,0.22,1.53,0.66,1.99
				s1.03,0.7,1.79,0.7c0.78,0,1.39-0.24,1.84-0.72c0.45-0.48,0.67-1.18,0.67-2.1v-4.82H186.67z M184.35,218.13l-3.41,1.82v-1.09
				l3.41-2V218.13z"/>
		</g>
		<g>
			<path d="M190.91,221.81v5.17c0,0.43,0.09,0.73,0.27,0.9c0.18,0.18,0.5,0.26,0.94,0.26h1.07v1.23h-1.31
				c-0.81,0-1.42-0.19-1.82-0.56c-0.41-0.37-0.61-0.99-0.61-1.84v-5.17h-1.14v-1.2h1.14v-2.21h1.46v2.21h2.29v1.2H190.91z"/>
		</g>
		<g>
			<path d="M202.91,225.53h-7.01c0.05,0.86,0.35,1.54,0.89,2.02c0.54,0.49,1.19,0.73,1.96,0.73c0.63,0,1.15-0.15,1.58-0.44
				c0.42-0.29,0.72-0.68,0.89-1.18h1.57c-0.23,0.84-0.7,1.53-1.41,2.06c-0.7,0.53-1.58,0.79-2.62,0.79c-0.83,0-1.58-0.19-2.23-0.56
				s-1.17-0.9-1.54-1.59c-0.37-0.69-0.56-1.49-0.56-2.39c0-0.91,0.18-1.7,0.54-2.38c0.36-0.68,0.87-1.21,1.53-1.58
				c0.66-0.37,1.41-0.55,2.26-0.55c0.83,0,1.57,0.18,2.21,0.54c0.64,0.36,1.13,0.86,1.48,1.5s0.52,1.35,0.52,2.15
				C202.95,224.93,202.94,225.22,202.91,225.53z M201.08,222.92c-0.25-0.4-0.58-0.7-1-0.91c-0.42-0.21-0.89-0.31-1.4-0.31
				c-0.74,0-1.36,0.23-1.88,0.7c-0.52,0.47-0.81,1.12-0.89,1.95h5.54C201.45,223.8,201.33,223.32,201.08,222.92z"/>
		</g>
		<g>
			<path d="M207.43,220.86c0.47-0.28,1.05-0.42,1.74-0.42v1.5h-0.38c-1.63,0-2.45,0.89-2.45,2.66v4.77h-1.46v-8.77h1.46v1.42
				C206.59,221.53,206.95,221.14,207.43,220.86z"/>
		</g>
		<g>
			<path d="M212.43,228.96c-0.67-0.37-1.19-0.9-1.57-1.59c-0.38-0.69-0.57-1.49-0.57-2.39c0-0.9,0.19-1.69,0.58-2.38
				c0.39-0.69,0.92-1.22,1.59-1.58c0.67-0.37,1.42-0.55,2.26-0.55s1.58,0.18,2.26,0.55c0.67,0.37,1.2,0.89,1.59,1.58
				s0.58,1.48,0.58,2.38c0,0.91-0.2,1.7-0.6,2.39c-0.4,0.69-0.94,1.22-1.62,1.59s-1.44,0.56-2.27,0.56
				C213.84,229.52,213.1,229.33,212.43,228.96z M216.14,227.87c0.46-0.25,0.83-0.61,1.11-1.1c0.28-0.49,0.42-1.09,0.42-1.79
				c0-0.7-0.14-1.3-0.42-1.79c-0.28-0.49-0.64-0.86-1.09-1.1c-0.45-0.24-0.93-0.36-1.46-0.36c-0.53,0-1.02,0.12-1.46,0.36
				s-0.8,0.61-1.06,1.1c-0.27,0.49-0.4,1.09-0.4,1.79c0,0.71,0.13,1.32,0.39,1.81c0.26,0.49,0.61,0.86,1.05,1.1s0.92,0.36,1.44,0.36
				S215.68,228.12,216.14,227.87z"/>
		</g>
		<g>
			<path d="M222.59,227.36l-1.79,4.3h-0.98l1.17-4.3H222.59z"/>
		</g>
		<g>
			<path d="M229.98,217.53v11.84h-1.46v-11.84H229.98z"/>
		</g>
		<g>
			<path d="M234.05,228.96c-0.67-0.37-1.19-0.9-1.57-1.59c-0.38-0.69-0.57-1.49-0.57-2.39c0-0.9,0.19-1.69,0.58-2.38
				c0.39-0.69,0.92-1.22,1.59-1.58c0.67-0.37,1.42-0.55,2.26-0.55s1.58,0.18,2.26,0.55c0.67,0.37,1.2,0.89,1.59,1.58
				s0.58,1.48,0.58,2.38c0,0.91-0.2,1.7-0.6,2.39c-0.4,0.69-0.94,1.22-1.62,1.59s-1.44,0.56-2.27,0.56
				C235.46,229.52,234.72,229.33,234.05,228.96z M237.75,227.87c0.46-0.25,0.83-0.61,1.11-1.1c0.28-0.49,0.42-1.09,0.42-1.79
				c0-0.7-0.14-1.3-0.42-1.79c-0.28-0.49-0.64-0.86-1.09-1.1c-0.45-0.24-0.93-0.36-1.46-0.36c-0.53,0-1.02,0.12-1.46,0.36
				s-0.8,0.61-1.06,1.1c-0.27,0.49-0.4,1.09-0.4,1.79c0,0.71,0.13,1.32,0.39,1.81c0.26,0.49,0.61,0.86,1.05,1.1s0.92,0.36,1.44,0.36
				S237.3,228.12,237.75,227.87z"/>
		</g>
		<g>
			<path d="M243.99,229.17c-0.53-0.23-0.96-0.55-1.26-0.96c-0.31-0.41-0.48-0.88-0.51-1.42h1.5c0.04,0.44,0.25,0.79,0.62,1.07
				s0.85,0.42,1.45,0.42c0.55,0,0.99-0.12,1.31-0.37s0.48-0.55,0.48-0.93c0-0.38-0.17-0.67-0.51-0.86
				c-0.34-0.19-0.87-0.37-1.58-0.55c-0.65-0.17-1.18-0.34-1.59-0.52c-0.41-0.18-0.76-0.44-1.06-0.78c-0.29-0.35-0.44-0.8-0.44-1.37
				c0-0.45,0.13-0.86,0.4-1.23c0.27-0.37,0.65-0.67,1.14-0.89s1.05-0.33,1.68-0.33c0.97,0,1.75,0.25,2.35,0.74
				c0.6,0.49,0.92,1.16,0.96,2.02h-1.46c-0.03-0.46-0.22-0.83-0.55-1.1s-0.79-0.42-1.35-0.42c-0.52,0-0.94,0.11-1.25,0.34
				c-0.31,0.22-0.46,0.52-0.46,0.88c0,0.29,0.09,0.53,0.28,0.71s0.42,0.34,0.7,0.45c0.28,0.11,0.67,0.24,1.18,0.38
				c0.63,0.17,1.14,0.34,1.54,0.5s0.73,0.41,1.02,0.74c0.28,0.33,0.43,0.76,0.44,1.3c0,0.48-0.13,0.91-0.4,1.3s-0.64,0.69-1.13,0.9
				c-0.49,0.22-1.04,0.33-1.67,0.33C245.13,229.52,244.53,229.4,243.99,229.17z"/>
		</g>
		<g>
			<path d="M54.4,252.96c-0.67-0.37-1.19-0.9-1.57-1.59c-0.38-0.69-0.57-1.49-0.57-2.39c0-0.9,0.19-1.69,0.58-2.38
				c0.39-0.69,0.92-1.22,1.59-1.58c0.67-0.37,1.42-0.55,2.26-0.55s1.58,0.18,2.26,0.55c0.67,0.37,1.2,0.89,1.59,1.58
				s0.58,1.48,0.58,2.38c0,0.91-0.2,1.7-0.6,2.39c-0.4,0.69-0.94,1.22-1.62,1.59s-1.44,0.56-2.27,0.56
				C55.81,253.52,55.07,253.33,54.4,252.96z M58.11,251.87c0.46-0.25,0.83-0.61,1.11-1.1c0.28-0.49,0.42-1.09,0.42-1.79
				c0-0.7-0.14-1.3-0.42-1.79c-0.28-0.49-0.64-0.86-1.09-1.1c-0.45-0.24-0.93-0.36-1.46-0.36c-0.53,0-1.02,0.12-1.46,0.36
				s-0.8,0.61-1.06,1.1c-0.27,0.49-0.4,1.09-0.4,1.79c0,0.71,0.13,1.32,0.39,1.81c0.26,0.49,0.61,0.86,1.05,1.1s0.92,0.36,1.44,0.36
				S57.65,252.12,58.11,251.87z"/>
		</g>
		<g>
			<path d="M66.32,252.03l2.72-7.42h1.55l-3.44,8.77h-1.7l-3.44-8.77h1.57L66.32,252.03z"/>
		</g>
		<g>
			<path d="M72.03,246.6c0.36-0.68,0.86-1.2,1.5-1.58c0.63-0.37,1.34-0.56,2.12-0.56c0.77,0,1.43,0.17,2,0.5
				c0.57,0.33,0.99,0.75,1.26,1.25v-1.6h1.47v8.77h-1.47v-1.63c-0.29,0.51-0.72,0.94-1.29,1.27c-0.57,0.34-1.24,0.5-1.99,0.5
				c-0.78,0-1.48-0.19-2.11-0.58c-0.63-0.38-1.13-0.92-1.49-1.62c-0.36-0.69-0.54-1.48-0.54-2.37
				C71.48,248.06,71.66,247.28,72.03,246.6z M78.51,247.25c-0.27-0.49-0.63-0.87-1.08-1.13s-0.95-0.39-1.5-0.39
				s-1.04,0.13-1.49,0.38c-0.45,0.26-0.81,0.63-1.07,1.12c-0.27,0.49-0.4,1.07-0.4,1.73c0,0.67,0.13,1.26,0.4,1.75
				s0.62,0.88,1.07,1.14c0.45,0.26,0.94,0.39,1.49,0.39s1.04-0.13,1.5-0.39c0.45-0.26,0.81-0.64,1.08-1.14s0.4-1.07,0.4-1.74
				C78.91,248.31,78.77,247.74,78.51,247.25z"/>
		</g>
		<g>
			<path d="M85.39,244.86c0.47-0.28,1.05-0.42,1.74-0.42v1.5h-0.38c-1.63,0-2.45,0.89-2.45,2.66v4.77h-1.46v-8.77h1.46v1.42
				C84.56,245.53,84.92,245.14,85.39,244.86z"/>
		</g>
		<g>
			<path d="M88.86,242.89c-0.19-0.19-0.29-0.43-0.29-0.7s0.1-0.51,0.29-0.7c0.19-0.19,0.43-0.29,0.7-0.29c0.27,0,0.49,0.1,0.68,0.29
				c0.19,0.19,0.28,0.43,0.28,0.7s-0.09,0.51-0.28,0.7c-0.19,0.19-0.41,0.29-0.68,0.29C89.28,243.18,89.05,243.09,88.86,242.89z
				 M90.27,244.61v8.77h-1.46v-8.77H90.27z"/>
		</g>
		<g>
			<path d="M94.34,252.96c-0.67-0.37-1.19-0.9-1.57-1.59c-0.38-0.69-0.57-1.49-0.57-2.39c0-0.9,0.19-1.69,0.58-2.38
				c0.39-0.69,0.92-1.22,1.59-1.58c0.67-0.37,1.42-0.55,2.26-0.55s1.58,0.18,2.26,0.55c0.67,0.37,1.2,0.89,1.59,1.58
				s0.58,1.48,0.58,2.38c0,0.91-0.2,1.7-0.6,2.39c-0.4,0.69-0.94,1.22-1.62,1.59s-1.44,0.56-2.27,0.56
				C95.75,253.52,95,253.33,94.34,252.96z M98.04,251.87c0.46-0.25,0.83-0.61,1.11-1.1c0.28-0.49,0.42-1.09,0.42-1.79
				c0-0.7-0.14-1.3-0.42-1.79c-0.28-0.49-0.64-0.86-1.09-1.1c-0.45-0.24-0.93-0.36-1.46-0.36c-0.53,0-1.02,0.12-1.46,0.36
				s-0.8,0.61-1.06,1.1c-0.27,0.49-0.4,1.09-0.4,1.79c0,0.71,0.13,1.32,0.39,1.81c0.26,0.49,0.61,0.86,1.05,1.1s0.92,0.36,1.44,0.36
				S97.58,252.12,98.04,251.87z"/>
		</g>
		<g>
			<path d="M104.28,253.17c-0.53-0.23-0.96-0.55-1.26-0.96c-0.31-0.41-0.48-0.88-0.51-1.42h1.5c0.04,0.44,0.25,0.79,0.62,1.07
				s0.85,0.42,1.45,0.42c0.55,0,0.99-0.12,1.31-0.37s0.48-0.55,0.48-0.93c0-0.38-0.17-0.67-0.51-0.86
				c-0.34-0.19-0.87-0.37-1.58-0.55c-0.65-0.17-1.18-0.34-1.59-0.52c-0.41-0.18-0.76-0.44-1.06-0.78c-0.29-0.35-0.44-0.8-0.44-1.37
				c0-0.45,0.13-0.86,0.4-1.23c0.27-0.37,0.65-0.67,1.14-0.89s1.05-0.33,1.68-0.33c0.97,0,1.75,0.25,2.35,0.74
				c0.6,0.49,0.92,1.16,0.96,2.02h-1.46c-0.03-0.46-0.22-0.83-0.55-1.1s-0.79-0.42-1.35-0.42c-0.52,0-0.94,0.11-1.25,0.34
				c-0.31,0.22-0.46,0.52-0.46,0.88c0,0.29,0.09,0.53,0.28,0.71s0.42,0.34,0.7,0.45c0.28,0.11,0.67,0.24,1.18,0.38
				c0.63,0.17,1.14,0.34,1.54,0.5s0.73,0.41,1.02,0.74c0.28,0.33,0.43,0.76,0.44,1.3c0,0.48-0.13,0.91-0.4,1.3s-0.64,0.69-1.13,0.9
				c-0.49,0.22-1.04,0.33-1.67,0.33C105.42,253.52,104.82,253.4,104.28,253.17z"/>
		</g>
		<g>
			<path d="M112.84,251.36l-1.79,4.3h-0.98l1.17-4.3H112.84z"/>
		</g>
		<g>
			<path d="M120.23,241.53v11.84h-1.46v-11.84H120.23z"/>
		</g>
		<g>
			<path d="M122.71,246.6c0.36-0.68,0.86-1.2,1.5-1.58c0.63-0.37,1.34-0.56,2.12-0.56c0.77,0,1.43,0.17,2,0.5
				c0.57,0.33,0.99,0.75,1.26,1.25v-1.6h1.47v8.77h-1.47v-1.63c-0.29,0.51-0.72,0.94-1.29,1.27c-0.57,0.34-1.24,0.5-1.99,0.5
				c-0.78,0-1.48-0.19-2.11-0.58c-0.63-0.38-1.13-0.92-1.49-1.62c-0.36-0.69-0.54-1.48-0.54-2.37
				C122.17,248.06,122.35,247.28,122.71,246.6z M129.19,247.25c-0.27-0.49-0.63-0.87-1.08-1.13s-0.95-0.39-1.5-0.39
				s-1.04,0.13-1.49,0.38c-0.45,0.26-0.81,0.63-1.07,1.12c-0.27,0.49-0.4,1.07-0.4,1.73c0,0.67,0.13,1.26,0.4,1.75
				s0.62,0.88,1.07,1.14c0.45,0.26,0.94,0.39,1.49,0.39s1.04-0.13,1.5-0.39c0.45-0.26,0.81-0.64,1.08-1.14s0.4-1.07,0.4-1.74
				C129.59,248.31,129.46,247.74,129.19,247.25z"/>
		</g>
		<g>
			<path d="M134.83,253.17c-0.53-0.23-0.96-0.55-1.26-0.96c-0.31-0.41-0.48-0.88-0.51-1.42h1.5c0.04,0.44,0.25,0.79,0.62,1.07
				s0.85,0.42,1.45,0.42c0.55,0,0.99-0.12,1.31-0.37s0.48-0.55,0.48-0.93c0-0.38-0.17-0.67-0.51-0.86
				c-0.34-0.19-0.87-0.37-1.58-0.55c-0.65-0.17-1.18-0.34-1.59-0.52c-0.41-0.18-0.76-0.44-1.06-0.78c-0.29-0.35-0.44-0.8-0.44-1.37
				c0-0.45,0.13-0.86,0.4-1.23c0.27-0.37,0.65-0.67,1.14-0.89s1.05-0.33,1.68-0.33c0.97,0,1.75,0.25,2.35,0.74
				c0.6,0.49,0.92,1.16,0.96,2.02h-1.46c-0.03-0.46-0.22-0.83-0.55-1.1s-0.79-0.42-1.35-0.42c-0.52,0-0.94,0.11-1.25,0.34
				c-0.31,0.22-0.46,0.52-0.46,0.88c0,0.29,0.09,0.53,0.28,0.71s0.42,0.34,0.7,0.45c0.28,0.11,0.67,0.24,1.18,0.38
				c0.63,0.17,1.14,0.34,1.54,0.5s0.73,0.41,1.02,0.74c0.28,0.33,0.43,0.76,0.44,1.3c0,0.48-0.13,0.91-0.4,1.3s-0.64,0.69-1.13,0.9
				c-0.49,0.22-1.04,0.33-1.67,0.33C135.96,253.52,135.36,253.4,134.83,253.17z"/>
		</g>
		<g>
			<path d="M147.93,245.81v5.17c0,0.43,0.09,0.73,0.27,0.9c0.18,0.18,0.5,0.26,0.94,0.26h1.07v1.23h-1.31
				c-0.81,0-1.42-0.19-1.82-0.56c-0.41-0.37-0.61-0.99-0.61-1.84v-5.17h-1.14v-1.2h1.14v-2.21h1.46v2.21h2.29v1.2H147.93z"/>
		</g>
		<g>
			<path d="M154.53,244.86c0.47-0.28,1.05-0.42,1.74-0.42v1.5h-0.38c-1.63,0-2.45,0.89-2.45,2.66v4.77h-1.46v-8.77h1.46v1.42
				C153.69,245.53,154.06,245.14,154.53,244.86z"/>
		</g>
		<g>
			<path d="M159.54,252.96c-0.67-0.37-1.19-0.9-1.57-1.59c-0.38-0.69-0.57-1.49-0.57-2.39c0-0.9,0.19-1.69,0.58-2.38
				c0.39-0.69,0.92-1.22,1.59-1.58c0.67-0.37,1.42-0.55,2.26-0.55s1.58,0.18,2.26,0.55c0.67,0.37,1.2,0.89,1.59,1.58
				s0.58,1.48,0.58,2.38c0,0.91-0.2,1.7-0.6,2.39c-0.4,0.69-0.94,1.22-1.62,1.59s-1.44,0.56-2.27,0.56
				C160.95,253.52,160.2,253.33,159.54,252.96z M163.24,251.87c0.46-0.25,0.83-0.61,1.11-1.1c0.28-0.49,0.42-1.09,0.42-1.79
				c0-0.7-0.14-1.3-0.42-1.79c-0.28-0.49-0.64-0.86-1.09-1.1c-0.45-0.24-0.93-0.36-1.46-0.36c-0.53,0-1.02,0.12-1.46,0.36
				s-0.8,0.61-1.06,1.1c-0.27,0.49-0.4,1.09-0.4,1.79c0,0.71,0.13,1.32,0.39,1.81c0.26,0.49,0.61,0.86,1.05,1.1s0.92,0.36,1.44,0.36
				S162.78,252.12,163.24,251.87z"/>
		</g>
		<g>
			<path d="M180.55,244.87c0.53,0.28,0.96,0.71,1.26,1.27c0.31,0.57,0.46,1.25,0.46,2.06v5.17h-1.44v-4.96
				c0-0.88-0.22-1.54-0.65-2.01c-0.43-0.46-1.02-0.7-1.75-0.7c-0.76,0-1.36,0.24-1.81,0.73c-0.45,0.49-0.67,1.19-0.67,2.1v4.83
				h-1.44v-4.96c0-0.88-0.22-1.54-0.65-2.01s-1.02-0.7-1.75-0.7c-0.76,0-1.36,0.24-1.81,0.73c-0.45,0.49-0.67,1.19-0.67,2.1v4.83
				h-1.46v-8.77h1.46v1.26c0.29-0.46,0.67-0.81,1.16-1.06c0.49-0.25,1.02-0.37,1.61-0.37c0.74,0,1.39,0.17,1.95,0.5
				c0.57,0.33,0.99,0.82,1.26,1.46c0.25-0.62,0.65-1.1,1.22-1.44c0.57-0.34,1.19-0.51,1.89-0.51
				C179.41,244.45,180.02,244.59,180.55,244.87z"/>
		</g>
		<g>
			<path d="M187.41,244.97c0.57-0.34,1.24-0.5,1.99-0.5c0.78,0,1.49,0.19,2.12,0.56c0.63,0.37,1.13,0.9,1.5,1.58
				c0.36,0.68,0.54,1.46,0.54,2.36c0,0.89-0.18,1.67-0.54,2.37s-0.86,1.23-1.5,1.62c-0.63,0.38-1.34,0.58-2.12,0.58
				c-0.75,0-1.41-0.17-1.98-0.5c-0.57-0.34-1.01-0.75-1.3-1.26v5.78h-1.46v-12.93h1.46v1.62
				C186.41,245.72,186.84,245.3,187.41,244.97z M191.67,247.23c-0.27-0.49-0.63-0.86-1.08-1.12c-0.45-0.26-0.95-0.38-1.5-0.38
				c-0.53,0-1.03,0.13-1.48,0.39c-0.45,0.26-0.82,0.64-1.09,1.14c-0.27,0.5-0.41,1.07-0.41,1.72c0,0.66,0.14,1.24,0.41,1.74
				c0.27,0.5,0.63,0.88,1.09,1.14c0.45,0.26,0.95,0.39,1.48,0.39c0.54,0,1.04-0.13,1.5-0.39c0.45-0.26,0.81-0.64,1.08-1.14
				s0.4-1.08,0.4-1.75C192.07,248.3,191.94,247.72,191.67,247.23z"/>
		</g>
		<g>
			<path d="M195.48,246.6c0.36-0.68,0.86-1.2,1.5-1.58c0.63-0.37,1.34-0.56,2.12-0.56c0.77,0,1.43,0.17,2,0.5
				c0.57,0.33,0.99,0.75,1.26,1.25v-1.6h1.47v8.77h-1.47v-1.63c-0.29,0.51-0.72,0.94-1.29,1.27c-0.57,0.34-1.24,0.5-1.99,0.5
				c-0.78,0-1.48-0.19-2.11-0.58c-0.63-0.38-1.13-0.92-1.49-1.62c-0.36-0.69-0.54-1.48-0.54-2.37
				C194.94,248.06,195.12,247.28,195.48,246.6z M201.96,247.25c-0.27-0.49-0.63-0.87-1.08-1.13s-0.95-0.39-1.5-0.39
				s-1.04,0.13-1.49,0.38c-0.45,0.26-0.81,0.63-1.07,1.12c-0.27,0.49-0.4,1.07-0.4,1.73c0,0.67,0.13,1.26,0.4,1.75
				s0.62,0.88,1.07,1.14c0.45,0.26,0.94,0.39,1.49,0.39s1.04-0.13,1.5-0.39c0.45-0.26,0.81-0.64,1.08-1.14s0.4-1.07,0.4-1.74
				C202.36,248.31,202.23,247.74,201.96,247.25z"/>
		</g>
		<g>
			<path d="M207.59,253.17c-0.53-0.23-0.96-0.55-1.26-0.96c-0.31-0.41-0.48-0.88-0.51-1.42h1.5c0.04,0.44,0.25,0.79,0.62,1.07
				s0.85,0.42,1.45,0.42c0.55,0,0.99-0.12,1.31-0.37s0.48-0.55,0.48-0.93c0-0.38-0.17-0.67-0.51-0.86
				c-0.34-0.19-0.87-0.37-1.58-0.55c-0.65-0.17-1.18-0.34-1.59-0.52c-0.41-0.18-0.76-0.44-1.06-0.78c-0.29-0.35-0.44-0.8-0.44-1.37
				c0-0.45,0.13-0.86,0.4-1.23c0.27-0.37,0.65-0.67,1.14-0.89s1.05-0.33,1.68-0.33c0.97,0,1.75,0.25,2.35,0.74
				c0.6,0.49,0.92,1.16,0.96,2.02h-1.46c-0.03-0.46-0.22-0.83-0.55-1.1s-0.79-0.42-1.35-0.42c-0.52,0-0.94,0.11-1.25,0.34
				c-0.31,0.22-0.46,0.52-0.46,0.88c0,0.29,0.09,0.53,0.28,0.71s0.42,0.34,0.7,0.45c0.28,0.11,0.67,0.24,1.18,0.38
				c0.63,0.17,1.14,0.34,1.54,0.5s0.73,0.41,1.02,0.74c0.28,0.33,0.43,0.76,0.44,1.3c0,0.48-0.13,0.91-0.4,1.3s-0.64,0.69-1.13,0.9
				c-0.49,0.22-1.04,0.33-1.67,0.33C208.73,253.52,208.13,253.4,207.59,253.17z"/>
		</g>
		<g>
			<path d="M218.92,246.6c0.36-0.68,0.86-1.2,1.5-1.58c0.63-0.37,1.35-0.56,2.14-0.56c0.68,0,1.32,0.16,1.9,0.47
				c0.59,0.32,1.04,0.73,1.34,1.24v-4.64h1.47v11.84h-1.47v-1.65c-0.29,0.52-0.71,0.95-1.28,1.29s-1.23,0.5-1.98,0.5
				c-0.78,0-1.49-0.19-2.12-0.58c-0.63-0.38-1.13-0.92-1.5-1.62c-0.36-0.69-0.54-1.48-0.54-2.37
				C218.38,248.06,218.56,247.28,218.92,246.6z M225.4,247.25c-0.27-0.49-0.63-0.87-1.08-1.13s-0.95-0.39-1.5-0.39
				s-1.04,0.13-1.49,0.38c-0.45,0.26-0.81,0.63-1.07,1.12c-0.27,0.49-0.4,1.07-0.4,1.73c0,0.67,0.13,1.26,0.4,1.75
				s0.62,0.88,1.07,1.14c0.45,0.26,0.94,0.39,1.49,0.39s1.04-0.13,1.5-0.39c0.45-0.26,0.81-0.64,1.08-1.14s0.4-1.07,0.4-1.74
				C225.8,248.31,225.67,247.74,225.4,247.25z"/>
		</g>
		<g>
			<path d="M237.69,249.53h-7.01c0.05,0.86,0.35,1.54,0.89,2.02c0.54,0.49,1.19,0.73,1.96,0.73c0.63,0,1.15-0.15,1.58-0.44
				c0.42-0.29,0.72-0.68,0.89-1.18h1.57c-0.23,0.84-0.7,1.53-1.41,2.06c-0.7,0.53-1.58,0.79-2.62,0.79c-0.83,0-1.58-0.19-2.23-0.56
				s-1.17-0.9-1.54-1.59c-0.37-0.69-0.56-1.49-0.56-2.39c0-0.91,0.18-1.7,0.54-2.38c0.36-0.68,0.87-1.21,1.53-1.58
				c0.66-0.37,1.41-0.55,2.26-0.55c0.83,0,1.57,0.18,2.21,0.54c0.64,0.36,1.13,0.86,1.48,1.5s0.52,1.35,0.52,2.15
				C237.74,248.93,237.72,249.22,237.69,249.53z M235.87,246.92c-0.25-0.4-0.58-0.7-1-0.91c-0.42-0.21-0.89-0.31-1.4-0.31
				c-0.74,0-1.36,0.23-1.88,0.7c-0.52,0.47-0.81,1.12-0.89,1.95h5.54C236.23,247.8,236.11,247.32,235.87,246.92z"/>
		</g>
		<g>
			<path d="M51.36,266.22v1.18h-4.85v3.76h3.94v1.18h-3.94v5.02h-1.46v-11.15H51.36z"/>
		</g>
		<g>
			<path d="M53.12,270.6c0.36-0.68,0.86-1.2,1.5-1.58c0.63-0.37,1.34-0.56,2.12-0.56c0.77,0,1.43,0.17,2,0.5
				c0.57,0.33,0.99,0.75,1.26,1.25v-1.6h1.47v8.77H60v-1.63c-0.29,0.51-0.72,0.94-1.29,1.27c-0.57,0.34-1.24,0.5-1.99,0.5
				c-0.78,0-1.48-0.19-2.11-0.58c-0.63-0.38-1.13-0.92-1.49-1.62c-0.36-0.69-0.54-1.48-0.54-2.37
				C52.58,272.06,52.76,271.28,53.12,270.6z M59.6,271.25c-0.27-0.49-0.63-0.87-1.08-1.13s-0.95-0.39-1.5-0.39s-1.04,0.13-1.49,0.38
				c-0.45,0.26-0.81,0.63-1.07,1.12c-0.27,0.49-0.4,1.07-0.4,1.73c0,0.67,0.13,1.26,0.4,1.75s0.62,0.88,1.07,1.14
				c0.45,0.26,0.94,0.39,1.49,0.39s1.04-0.13,1.5-0.39c0.45-0.26,0.81-0.64,1.08-1.14s0.4-1.07,0.4-1.74
				C60,272.31,59.87,271.74,59.6,271.25z"/>
		</g>
		<g>
			<path d="M65.4,265.53v11.84h-1.46v-11.84H65.4z"/>
		</g>
		<g>
			<path d="M69.47,276.96c-0.67-0.37-1.19-0.9-1.57-1.59c-0.38-0.69-0.57-1.49-0.57-2.39c0-0.9,0.19-1.69,0.58-2.38
				c0.39-0.69,0.92-1.22,1.59-1.58c0.67-0.37,1.42-0.55,2.26-0.55s1.58,0.18,2.26,0.55c0.67,0.37,1.2,0.89,1.59,1.58
				s0.58,1.48,0.58,2.38c0,0.91-0.2,1.7-0.6,2.39c-0.4,0.69-0.94,1.22-1.62,1.59s-1.44,0.56-2.27,0.56
				C70.88,277.52,70.13,277.33,69.47,276.96z M73.17,275.87c0.46-0.25,0.83-0.61,1.11-1.1c0.28-0.49,0.42-1.09,0.42-1.79
				c0-0.7-0.14-1.3-0.42-1.79c-0.28-0.49-0.64-0.86-1.09-1.1c-0.45-0.24-0.93-0.36-1.46-0.36c-0.53,0-1.02,0.12-1.46,0.36
				s-0.8,0.61-1.06,1.1c-0.27,0.49-0.4,1.09-0.4,1.79c0,0.71,0.13,1.32,0.39,1.81c0.26,0.49,0.61,0.86,1.05,1.1s0.92,0.36,1.44,0.36
				S72.71,276.12,73.17,275.87z"/>
		</g>
		<g>
			<path d="M80.86,268.97c0.57-0.34,1.24-0.5,1.99-0.5c0.78,0,1.49,0.19,2.12,0.56c0.63,0.37,1.13,0.9,1.5,1.58
				c0.36,0.68,0.54,1.46,0.54,2.36c0,0.89-0.18,1.67-0.54,2.37s-0.86,1.23-1.5,1.62c-0.63,0.38-1.34,0.58-2.12,0.58
				c-0.75,0-1.41-0.17-1.98-0.5c-0.57-0.34-1.01-0.75-1.3-1.26v5.78h-1.46v-12.93h1.46v1.62C79.86,269.72,80.29,269.3,80.86,268.97z
				 M85.12,271.23c-0.27-0.49-0.63-0.86-1.08-1.12c-0.45-0.26-0.95-0.38-1.5-0.38c-0.53,0-1.03,0.13-1.48,0.39
				c-0.45,0.26-0.82,0.64-1.09,1.14c-0.27,0.5-0.41,1.07-0.41,1.72c0,0.66,0.14,1.24,0.41,1.74c0.27,0.5,0.63,0.88,1.09,1.14
				c0.45,0.26,0.95,0.39,1.48,0.39c0.54,0,1.04-0.13,1.5-0.39c0.45-0.26,0.81-0.64,1.08-1.14s0.4-1.08,0.4-1.75
				C85.52,272.3,85.39,271.72,85.12,271.23z"/>
		</g>
		<g>
			<path d="M88.98,266.89c-0.19-0.19-0.29-0.43-0.29-0.7s0.1-0.51,0.29-0.7c0.19-0.19,0.43-0.29,0.7-0.29c0.27,0,0.49,0.1,0.68,0.29
				c0.19,0.19,0.28,0.43,0.28,0.7s-0.09,0.51-0.28,0.7c-0.19,0.19-0.41,0.29-0.68,0.29C89.41,267.18,89.17,267.09,88.98,266.89z
				 M90.39,268.61v8.77h-1.46v-8.77H90.39z"/>
		</g>
		<g>
			<path d="M94.46,276.96c-0.67-0.37-1.19-0.9-1.57-1.59c-0.38-0.69-0.57-1.49-0.57-2.39c0-0.9,0.19-1.69,0.58-2.38
				c0.39-0.69,0.92-1.22,1.59-1.58c0.67-0.37,1.42-0.55,2.26-0.55s1.58,0.18,2.26,0.55c0.67,0.37,1.2,0.89,1.59,1.58
				s0.58,1.48,0.58,2.38c0,0.91-0.2,1.7-0.6,2.39c-0.4,0.69-0.94,1.22-1.62,1.59s-1.44,0.56-2.27,0.56
				C95.87,277.52,95.13,277.33,94.46,276.96z M98.16,275.87c0.46-0.25,0.83-0.61,1.11-1.1c0.28-0.49,0.42-1.09,0.42-1.79
				c0-0.7-0.14-1.3-0.42-1.79c-0.28-0.49-0.64-0.86-1.09-1.1c-0.45-0.24-0.93-0.36-1.46-0.36c-0.53,0-1.02,0.12-1.46,0.36
				s-0.8,0.61-1.06,1.1c-0.27,0.49-0.4,1.09-0.4,1.79c0,0.71,0.13,1.32,0.39,1.81c0.26,0.49,0.61,0.86,1.05,1.1s0.92,0.36,1.44,0.36
				S97.71,276.12,98.16,275.87z"/>
		</g>
		<g>
			<path d="M114.93,268.61l-5.28,12.9h-1.5l1.73-4.22l-3.54-8.67h1.62l2.75,7.1l2.72-7.1H114.93z"/>
		</g>
		<g>
			<path d="M128.61,273.53h-7.01c0.05,0.86,0.35,1.54,0.89,2.02c0.54,0.49,1.19,0.73,1.96,0.73c0.63,0,1.15-0.15,1.58-0.44
				c0.42-0.29,0.72-0.68,0.89-1.18h1.57c-0.23,0.84-0.7,1.53-1.41,2.06c-0.7,0.53-1.58,0.79-2.62,0.79c-0.83,0-1.58-0.19-2.23-0.56
				s-1.17-0.9-1.54-1.59c-0.37-0.69-0.56-1.49-0.56-2.39c0-0.91,0.18-1.7,0.54-2.38c0.36-0.68,0.87-1.21,1.53-1.58
				c0.66-0.37,1.41-0.55,2.26-0.55c0.83,0,1.57,0.18,2.21,0.54c0.64,0.36,1.13,0.86,1.48,1.5s0.52,1.35,0.52,2.15
				C128.66,272.93,128.64,273.22,128.61,273.53z M126.79,270.92c-0.25-0.4-0.58-0.7-1-0.91c-0.42-0.21-0.89-0.31-1.4-0.31
				c-0.74,0-1.36,0.23-1.88,0.7c-0.52,0.47-0.81,1.12-0.89,1.95h5.54C127.15,271.8,127.03,271.32,126.79,270.92z"/>
		</g>
		<g>
			<path d="M132.04,265.53v11.84h-1.46v-11.84H132.04z"/>
		</g>
		<g>
			<path d="M138.79,270.6c0.36-0.68,0.87-1.2,1.51-1.58c0.65-0.37,1.38-0.56,2.22-0.56c1.08,0,1.96,0.26,2.66,0.78
				c0.7,0.52,1.16,1.25,1.38,2.18h-1.57c-0.15-0.53-0.44-0.95-0.87-1.26c-0.43-0.31-0.97-0.46-1.61-0.46c-0.83,0-1.5,0.29-2.02,0.86
				c-0.51,0.57-0.77,1.38-0.77,2.42c0,1.06,0.26,1.87,0.77,2.45c0.51,0.58,1.18,0.86,2.02,0.86c0.64,0,1.17-0.15,1.6-0.45
				s0.72-0.73,0.88-1.28h1.57c-0.23,0.9-0.7,1.61-1.41,2.15c-0.7,0.54-1.58,0.81-2.64,0.81c-0.83,0-1.57-0.19-2.22-0.56
				s-1.15-0.9-1.51-1.58c-0.36-0.68-0.54-1.48-0.54-2.4C138.24,272.07,138.42,271.28,138.79,270.6z"/>
		</g>
		<g>
			<path d="M156.27,268.61v8.77h-1.46v-1.3c-0.28,0.45-0.66,0.8-1.16,1.05c-0.5,0.25-1.04,0.38-1.64,0.38
				c-0.68,0-1.3-0.14-1.84-0.42s-0.97-0.71-1.29-1.27c-0.31-0.56-0.47-1.25-0.47-2.06v-5.14h1.44v4.94c0,0.86,0.22,1.53,0.66,1.99
				s1.03,0.7,1.79,0.7c0.78,0,1.39-0.24,1.84-0.72c0.45-0.48,0.67-1.18,0.67-2.1v-4.82H156.27z"/>
		</g>
		<g>
			<path d="M166.69,273.53h-7.01c0.05,0.86,0.35,1.54,0.89,2.02c0.54,0.49,1.19,0.73,1.96,0.73c0.63,0,1.15-0.15,1.58-0.44
				c0.42-0.29,0.72-0.68,0.89-1.18h1.57c-0.23,0.84-0.7,1.53-1.41,2.06c-0.7,0.53-1.58,0.79-2.62,0.79c-0.83,0-1.58-0.19-2.23-0.56
				s-1.17-0.9-1.54-1.59c-0.37-0.69-0.56-1.49-0.56-2.39c0-0.91,0.18-1.7,0.54-2.38c0.36-0.68,0.87-1.21,1.53-1.58
				c0.66-0.37,1.41-0.55,2.26-0.55c0.83,0,1.57,0.18,2.21,0.54c0.64,0.36,1.13,0.86,1.48,1.5s0.52,1.35,0.52,2.15
				C166.74,272.93,166.72,273.22,166.69,273.53z M164.87,270.92c-0.25-0.4-0.58-0.7-1-0.91c-0.42-0.21-0.89-0.31-1.4-0.31
				c-0.74,0-1.36,0.23-1.88,0.7c-0.52,0.47-0.81,1.12-0.89,1.95h5.54C165.23,271.8,165.11,271.32,164.87,270.92z"/>
		</g>
		<g>
			<path d="M170.11,265.53v11.84h-1.46v-11.84H170.11z"/>
		</g>
		<g>
			<path d="M174.05,265.53v11.84h-1.46v-11.84H174.05z"/>
		</g>
		<g>
			<path d="M178.12,276.96c-0.67-0.37-1.19-0.9-1.57-1.59c-0.38-0.69-0.57-1.49-0.57-2.39c0-0.9,0.19-1.69,0.58-2.38
				c0.39-0.69,0.92-1.22,1.59-1.58c0.67-0.37,1.42-0.55,2.26-0.55s1.58,0.18,2.26,0.55c0.67,0.37,1.2,0.89,1.59,1.58
				s0.58,1.48,0.58,2.38c0,0.91-0.2,1.7-0.6,2.39c-0.4,0.69-0.94,1.22-1.62,1.59s-1.44,0.56-2.27,0.56
				C179.53,277.52,178.79,277.33,178.12,276.96z M181.83,275.87c0.46-0.25,0.83-0.61,1.11-1.1c0.28-0.49,0.42-1.09,0.42-1.79
				c0-0.7-0.14-1.3-0.42-1.79c-0.28-0.49-0.64-0.86-1.09-1.1c-0.45-0.24-0.93-0.36-1.46-0.36c-0.53,0-1.02,0.12-1.46,0.36
				s-0.8,0.61-1.06,1.1c-0.27,0.49-0.4,1.09-0.4,1.79c0,0.71,0.13,1.32,0.39,1.81c0.26,0.49,0.61,0.86,1.05,1.1s0.92,0.36,1.44,0.36
				S181.37,276.12,181.83,275.87z"/>
		</g>
		<g>
			<path d="M198.82,268.61v8.77h-1.46v-1.3c-0.28,0.45-0.66,0.8-1.16,1.05c-0.5,0.25-1.04,0.38-1.64,0.38
				c-0.68,0-1.3-0.14-1.84-0.42s-0.97-0.71-1.29-1.27c-0.31-0.56-0.47-1.25-0.47-2.06v-5.14h1.44v4.94c0,0.86,0.22,1.53,0.66,1.99
				s1.03,0.7,1.79,0.7c0.78,0,1.39-0.24,1.84-0.72c0.45-0.48,0.67-1.18,0.67-2.1v-4.82H198.82z"/>
		</g>
		<g>
			<path d="M203.06,269.81v5.17c0,0.43,0.09,0.73,0.27,0.9c0.18,0.18,0.5,0.26,0.94,0.26h1.07v1.23h-1.31
				c-0.81,0-1.42-0.19-1.82-0.56c-0.41-0.37-0.61-0.99-0.61-1.84v-5.17h-1.14v-1.2h1.14v-2.21h1.46v2.21h2.29v1.2H203.06z"/>
		</g>
		<g>
			<path d="M215.06,273.53h-7.01c0.05,0.86,0.35,1.54,0.89,2.02c0.54,0.49,1.19,0.73,1.96,0.73c0.63,0,1.15-0.15,1.58-0.44
				c0.42-0.29,0.72-0.68,0.89-1.18h1.57c-0.23,0.84-0.7,1.53-1.41,2.06c-0.7,0.53-1.58,0.79-2.62,0.79c-0.83,0-1.58-0.19-2.23-0.56
				s-1.17-0.9-1.54-1.59c-0.37-0.69-0.56-1.49-0.56-2.39c0-0.91,0.18-1.7,0.54-2.38c0.36-0.68,0.87-1.21,1.53-1.58
				c0.66-0.37,1.41-0.55,2.26-0.55c0.83,0,1.57,0.18,2.21,0.54c0.64,0.36,1.13,0.86,1.48,1.5s0.52,1.35,0.52,2.15
				C215.11,272.93,215.09,273.22,215.06,273.53z M213.23,270.92c-0.25-0.4-0.58-0.7-1-0.91c-0.42-0.21-0.89-0.31-1.4-0.31
				c-0.74,0-1.36,0.23-1.88,0.7c-0.52,0.47-0.81,1.12-0.89,1.95h5.54C213.6,271.8,213.48,271.32,213.23,270.92z"/>
		</g>
		<g>
			<path d="M219.58,268.86c0.47-0.28,1.05-0.42,1.74-0.42v1.5h-0.38c-1.63,0-2.45,0.89-2.45,2.66v4.77h-1.46v-8.77h1.46v1.42
				C218.74,269.53,219.1,269.14,219.58,268.86z"/>
		</g>
		<g>
			<path d="M223.04,266.89c-0.19-0.19-0.29-0.43-0.29-0.7s0.1-0.51,0.29-0.7c0.19-0.19,0.43-0.29,0.7-0.29
				c0.27,0,0.49,0.1,0.68,0.29c0.19,0.19,0.28,0.43,0.28,0.7s-0.09,0.51-0.28,0.7c-0.19,0.19-0.41,0.29-0.68,0.29
				C223.47,267.18,223.23,267.09,223.04,266.89z M224.45,268.61v8.77h-1.46v-8.77H224.45z"/>
		</g>
		<g>
			<path d="M233.79,269.41c0.66,0.65,0.99,1.58,0.99,2.79v5.17h-1.44v-4.96c0-0.88-0.22-1.54-0.66-2.01s-1.04-0.7-1.79-0.7
				c-0.77,0-1.38,0.24-1.83,0.72c-0.45,0.48-0.68,1.18-0.68,2.1v4.85h-1.46v-8.77h1.46v1.25c0.29-0.45,0.68-0.79,1.18-1.04
				c0.5-0.25,1.04-0.37,1.64-0.37C232.27,268.45,233.13,268.77,233.79,269.41z"/>
		</g>
		<g>
			<path d="M238.76,276.96c-0.67-0.37-1.19-0.9-1.57-1.59c-0.38-0.69-0.57-1.49-0.57-2.39c0-0.9,0.19-1.69,0.58-2.38
				c0.39-0.69,0.92-1.22,1.59-1.58c0.67-0.37,1.42-0.55,2.26-0.55s1.58,0.18,2.26,0.55c0.67,0.37,1.2,0.89,1.59,1.58
				s0.58,1.48,0.58,2.38c0,0.91-0.2,1.7-0.6,2.39c-0.4,0.69-0.94,1.22-1.62,1.59s-1.44,0.56-2.27,0.56
				C240.17,277.52,239.43,277.33,238.76,276.96z M242.47,275.87c0.46-0.25,0.83-0.61,1.11-1.1c0.28-0.49,0.42-1.09,0.42-1.79
				c0-0.7-0.14-1.3-0.42-1.79c-0.28-0.49-0.64-0.86-1.09-1.1c-0.45-0.24-0.93-0.36-1.46-0.36c-0.53,0-1.02,0.12-1.46,0.36
				s-0.8,0.61-1.06,1.1c-0.27,0.49-0.4,1.09-0.4,1.79c0,0.71,0.13,1.32,0.39,1.81c0.26,0.49,0.61,0.86,1.05,1.1s0.92,0.36,1.44,0.36
				S242.01,276.12,242.47,275.87z"/>
		</g>
		<g>
			<path d="M48.2,292.97c0.57-0.34,1.24-0.5,1.99-0.5c0.78,0,1.49,0.19,2.12,0.56c0.63,0.37,1.13,0.9,1.5,1.58
				c0.36,0.68,0.54,1.46,0.54,2.36c0,0.89-0.18,1.67-0.54,2.37s-0.86,1.23-1.5,1.62c-0.63,0.38-1.34,0.58-2.12,0.58
				c-0.75,0-1.41-0.17-1.98-0.5c-0.57-0.34-1.01-0.75-1.3-1.26v5.78h-1.46v-12.93h1.46v1.62C47.2,293.72,47.63,293.3,48.2,292.97z
				 M52.47,295.23c-0.27-0.49-0.63-0.86-1.08-1.12c-0.45-0.26-0.95-0.38-1.5-0.38c-0.53,0-1.03,0.13-1.48,0.39
				c-0.45,0.26-0.82,0.64-1.09,1.14c-0.27,0.5-0.41,1.07-0.41,1.72c0,0.66,0.14,1.24,0.41,1.74c0.27,0.5,0.63,0.88,1.09,1.14
				c0.45,0.26,0.95,0.39,1.48,0.39c0.54,0,1.04-0.13,1.5-0.39c0.45-0.26,0.81-0.64,1.08-1.14s0.4-1.08,0.4-1.75
				C52.87,296.3,52.73,295.72,52.47,295.23z"/>
		</g>
		<g>
			<path d="M56.27,294.6c0.36-0.68,0.86-1.2,1.5-1.58c0.63-0.37,1.34-0.56,2.12-0.56c0.77,0,1.43,0.17,2,0.5
				c0.57,0.33,0.99,0.75,1.26,1.25v-1.6h1.47v8.77h-1.47v-1.63c-0.29,0.51-0.72,0.94-1.29,1.27c-0.57,0.34-1.24,0.5-1.99,0.5
				c-0.78,0-1.48-0.19-2.11-0.58c-0.63-0.38-1.13-0.92-1.49-1.62c-0.36-0.69-0.54-1.48-0.54-2.37
				C55.73,296.06,55.91,295.28,56.27,294.6z M62.75,295.25c-0.27-0.49-0.63-0.87-1.08-1.13s-0.95-0.39-1.5-0.39
				s-1.04,0.13-1.49,0.38c-0.45,0.26-0.81,0.63-1.07,1.12c-0.27,0.49-0.4,1.07-0.4,1.73c0,0.67,0.13,1.26,0.4,1.75
				s0.62,0.88,1.07,1.14c0.45,0.26,0.94,0.39,1.49,0.39s1.04-0.13,1.5-0.39c0.45-0.26,0.81-0.64,1.08-1.14s0.4-1.07,0.4-1.74
				C63.15,296.31,63.02,295.74,62.75,295.25z"/>
		</g>
		<g>
			<path d="M69.64,292.86c0.47-0.28,1.05-0.42,1.74-0.42v1.5h-0.38c-1.63,0-2.45,0.89-2.45,2.66v4.77h-1.46v-8.77h1.46v1.42
				C68.8,293.53,69.17,293.14,69.64,292.86z"/>
		</g>
		<g>
			<path d="M73.06,294.6c0.36-0.68,0.86-1.2,1.5-1.58c0.63-0.37,1.34-0.56,2.12-0.56c0.77,0,1.43,0.17,2,0.5
				c0.57,0.33,0.99,0.75,1.26,1.25v-1.6h1.47v8.77h-1.47v-1.63c-0.29,0.51-0.72,0.94-1.29,1.27c-0.57,0.34-1.24,0.5-1.99,0.5
				c-0.78,0-1.48-0.19-2.11-0.58c-0.63-0.38-1.13-0.92-1.49-1.62c-0.36-0.69-0.54-1.48-0.54-2.37
				C72.52,296.06,72.7,295.28,73.06,294.6z M79.54,295.25c-0.27-0.49-0.63-0.87-1.08-1.13s-0.95-0.39-1.5-0.39s-1.04,0.13-1.49,0.38
				c-0.45,0.26-0.81,0.63-1.07,1.12c-0.27,0.49-0.4,1.07-0.4,1.73c0,0.67,0.13,1.26,0.4,1.75s0.62,0.88,1.07,1.14
				c0.45,0.26,0.94,0.39,1.49,0.39s1.04-0.13,1.5-0.39c0.45-0.26,0.81-0.64,1.08-1.14s0.4-1.07,0.4-1.74
				C79.94,296.31,79.81,295.74,79.54,295.25z"/>
		</g>
		<g>
			<path d="M88.15,294.6c0.36-0.68,0.86-1.2,1.5-1.58c0.63-0.37,1.35-0.56,2.14-0.56c0.68,0,1.32,0.16,1.9,0.47
				c0.59,0.32,1.04,0.73,1.34,1.24v-4.64h1.47v11.84h-1.47v-1.65c-0.29,0.52-0.71,0.95-1.28,1.29s-1.23,0.5-1.98,0.5
				c-0.78,0-1.49-0.19-2.12-0.58c-0.63-0.38-1.13-0.92-1.5-1.62c-0.36-0.69-0.54-1.48-0.54-2.37
				C87.6,296.06,87.78,295.28,88.15,294.6z M94.63,295.25c-0.27-0.49-0.63-0.87-1.08-1.13s-0.95-0.39-1.5-0.39s-1.04,0.13-1.49,0.38
				c-0.45,0.26-0.81,0.63-1.07,1.12c-0.27,0.49-0.4,1.07-0.4,1.73c0,0.67,0.13,1.26,0.4,1.75s0.62,0.88,1.07,1.14
				c0.45,0.26,0.94,0.39,1.49,0.39s1.04-0.13,1.5-0.39c0.45-0.26,0.81-0.64,1.08-1.14s0.4-1.07,0.4-1.74
				C95.03,296.31,94.89,295.74,94.63,295.25z"/>
		</g>
		<g>
			<path d="M106.91,297.53h-7.01c0.05,0.86,0.35,1.54,0.89,2.02c0.54,0.49,1.19,0.73,1.96,0.73c0.63,0,1.15-0.15,1.58-0.44
				c0.42-0.29,0.72-0.68,0.89-1.18h1.57c-0.23,0.84-0.7,1.53-1.41,2.06c-0.7,0.53-1.58,0.79-2.62,0.79c-0.83,0-1.58-0.19-2.23-0.56
				s-1.17-0.9-1.54-1.59c-0.37-0.69-0.56-1.49-0.56-2.39c0-0.91,0.18-1.7,0.54-2.38c0.36-0.68,0.87-1.21,1.53-1.58
				c0.66-0.37,1.41-0.55,2.26-0.55c0.83,0,1.57,0.18,2.21,0.54c0.64,0.36,1.13,0.86,1.48,1.5s0.52,1.35,0.52,2.15
				C106.96,296.93,106.95,297.22,106.91,297.53z M105.09,294.92c-0.25-0.4-0.58-0.7-1-0.91c-0.42-0.21-0.89-0.31-1.4-0.31
				c-0.74,0-1.36,0.23-1.88,0.7c-0.52,0.47-0.81,1.12-0.89,1.95h5.54C105.46,295.8,105.34,295.32,105.09,294.92z"/>
		</g>
		<g>
			<path d="M110.66,293.81v5.17c0,0.43,0.09,0.73,0.27,0.9c0.18,0.18,0.5,0.26,0.94,0.26h1.07v1.23h-1.31
				c-0.81,0-1.42-0.19-1.82-0.56c-0.41-0.37-0.61-0.99-0.61-1.84v-5.17h-1.14v-1.2h1.14v-2.21h1.46v2.21h2.29v1.2H110.66z"/>
		</g>
		<g>
			<path d="M122.66,297.53h-7.01c0.05,0.86,0.35,1.54,0.89,2.02c0.54,0.49,1.19,0.73,1.96,0.73c0.63,0,1.15-0.15,1.58-0.44
				c0.42-0.29,0.72-0.68,0.89-1.18h1.57c-0.23,0.84-0.7,1.53-1.41,2.06c-0.7,0.53-1.58,0.79-2.62,0.79c-0.83,0-1.58-0.19-2.23-0.56
				s-1.17-0.9-1.54-1.59c-0.37-0.69-0.56-1.49-0.56-2.39c0-0.91,0.18-1.7,0.54-2.38c0.36-0.68,0.87-1.21,1.53-1.58
				c0.66-0.37,1.41-0.55,2.26-0.55c0.83,0,1.57,0.18,2.21,0.54c0.64,0.36,1.13,0.86,1.48,1.5s0.52,1.35,0.52,2.15
				C122.71,296.93,122.69,297.22,122.66,297.53z M120.83,294.92c-0.25-0.4-0.58-0.7-1-0.91c-0.42-0.21-0.89-0.31-1.4-0.31
				c-0.74,0-1.36,0.23-1.88,0.7c-0.52,0.47-0.81,1.12-0.89,1.95h5.54C121.2,295.8,121.08,295.32,120.83,294.92z"/>
		</g>
		<g>
			<path d="M124.63,294.6c0.36-0.68,0.87-1.2,1.51-1.58c0.65-0.37,1.38-0.56,2.22-0.56c1.08,0,1.96,0.26,2.66,0.78
				c0.7,0.52,1.16,1.25,1.38,2.18h-1.57c-0.15-0.53-0.44-0.95-0.87-1.26c-0.43-0.31-0.97-0.46-1.61-0.46c-0.83,0-1.5,0.29-2.02,0.86
				c-0.51,0.57-0.77,1.38-0.77,2.42c0,1.06,0.26,1.87,0.77,2.45c0.51,0.58,1.18,0.86,2.02,0.86c0.64,0,1.17-0.15,1.6-0.45
				s0.72-0.73,0.88-1.28h1.57c-0.23,0.9-0.7,1.61-1.41,2.15c-0.7,0.54-1.58,0.81-2.64,0.81c-0.83,0-1.57-0.19-2.22-0.56
				s-1.15-0.9-1.51-1.58c-0.36-0.68-0.54-1.48-0.54-2.4C124.08,296.07,124.26,295.28,124.63,294.6z"/>
		</g>
		<g>
			<path d="M136.11,293.81v5.17c0,0.43,0.09,0.73,0.27,0.9c0.18,0.18,0.5,0.26,0.94,0.26h1.07v1.23h-1.31
				c-0.81,0-1.42-0.19-1.82-0.56c-0.41-0.37-0.61-0.99-0.61-1.84v-5.17h-1.14v-1.2h1.14v-2.21h1.46v2.21h2.29v1.2H136.11z"/>
		</g>
		<g>
			<path d="M140.16,294.6c0.36-0.68,0.86-1.2,1.5-1.58c0.63-0.37,1.34-0.56,2.12-0.56c0.77,0,1.43,0.17,2,0.5
				c0.57,0.33,0.99,0.75,1.26,1.25v-1.6h1.47v8.77h-1.47v-1.63c-0.29,0.51-0.72,0.94-1.29,1.27c-0.57,0.34-1.24,0.5-1.99,0.5
				c-0.78,0-1.48-0.19-2.11-0.58c-0.63-0.38-1.13-0.92-1.49-1.62c-0.36-0.69-0.54-1.48-0.54-2.37
				C139.62,296.06,139.8,295.28,140.16,294.6z M146.64,295.25c-0.27-0.49-0.63-0.87-1.08-1.13s-0.95-0.39-1.5-0.39
				s-1.04,0.13-1.49,0.38c-0.45,0.26-0.81,0.63-1.07,1.12c-0.27,0.49-0.4,1.07-0.4,1.73c0,0.67,0.13,1.26,0.4,1.75
				s0.62,0.88,1.07,1.14c0.45,0.26,0.94,0.39,1.49,0.39s1.04-0.13,1.5-0.39c0.45-0.26,0.81-0.64,1.08-1.14s0.4-1.07,0.4-1.74
				C147.04,296.31,146.91,295.74,146.64,295.25z"/>
		</g>
		<g>
			<path d="M153.53,292.86c0.47-0.28,1.05-0.42,1.74-0.42v1.5h-0.38c-1.63,0-2.45,0.89-2.45,2.66v4.77h-1.46v-8.77h1.46v1.42
				C152.69,293.53,153.06,293.14,153.53,292.86z"/>
		</g>
		<g>
			<path d="M163.96,292.97c0.57-0.34,1.24-0.5,1.99-0.5c0.78,0,1.49,0.19,2.12,0.56c0.63,0.37,1.13,0.9,1.5,1.58
				c0.36,0.68,0.54,1.46,0.54,2.36c0,0.89-0.18,1.67-0.54,2.37s-0.86,1.23-1.5,1.62c-0.63,0.38-1.34,0.58-2.12,0.58
				c-0.75,0-1.41-0.17-1.98-0.5c-0.57-0.34-1.01-0.75-1.3-1.26v5.78h-1.46v-12.93h1.46v1.62
				C162.96,293.72,163.39,293.3,163.96,292.97z M168.23,295.23c-0.27-0.49-0.63-0.86-1.08-1.12c-0.45-0.26-0.95-0.38-1.5-0.38
				c-0.53,0-1.03,0.13-1.48,0.39c-0.45,0.26-0.82,0.64-1.09,1.14c-0.27,0.5-0.41,1.07-0.41,1.72c0,0.66,0.14,1.24,0.41,1.74
				c0.27,0.5,0.63,0.88,1.09,1.14c0.45,0.26,0.95,0.39,1.48,0.39c0.54,0,1.04-0.13,1.5-0.39c0.45-0.26,0.81-0.64,1.08-1.14
				s0.4-1.08,0.4-1.75C168.63,296.3,168.49,295.72,168.23,295.23z"/>
		</g>
		<g>
			<path d="M172.03,294.6c0.36-0.68,0.86-1.2,1.5-1.58c0.63-0.37,1.34-0.56,2.12-0.56c0.77,0,1.43,0.17,2,0.5
				c0.57,0.33,0.99,0.75,1.26,1.25v-1.6h1.47v8.77h-1.47v-1.63c-0.29,0.51-0.72,0.94-1.29,1.27c-0.57,0.34-1.24,0.5-1.99,0.5
				c-0.78,0-1.48-0.19-2.11-0.58c-0.63-0.38-1.13-0.92-1.49-1.62c-0.36-0.69-0.54-1.48-0.54-2.37
				C171.49,296.06,171.67,295.28,172.03,294.6z M178.51,295.25c-0.27-0.49-0.63-0.87-1.08-1.13s-0.95-0.39-1.5-0.39
				s-1.04,0.13-1.49,0.38c-0.45,0.26-0.81,0.63-1.07,1.12c-0.27,0.49-0.4,1.07-0.4,1.73c0,0.67,0.13,1.26,0.4,1.75
				s0.62,0.88,1.07,1.14c0.45,0.26,0.94,0.39,1.49,0.39s1.04-0.13,1.5-0.39c0.45-0.26,0.81-0.64,1.08-1.14s0.4-1.07,0.4-1.74
				C178.91,296.31,178.78,295.74,178.51,295.25z"/>
		</g>
		<g>
			<path d="M184.63,293.81v5.17c0,0.43,0.09,0.73,0.27,0.9c0.18,0.18,0.5,0.26,0.94,0.26h1.07v1.23h-1.31
				c-0.81,0-1.42-0.19-1.82-0.56c-0.41-0.37-0.61-0.99-0.61-1.84v-5.17h-1.14v-1.2h1.14v-2.21h1.46v2.21h2.29v1.2H184.63z"/>
		</g>
		<g>
			<path d="M190.27,300.96c-0.67-0.37-1.19-0.9-1.57-1.59c-0.38-0.69-0.57-1.49-0.57-2.39c0-0.9,0.19-1.69,0.58-2.38
				c0.39-0.69,0.92-1.22,1.59-1.58c0.67-0.37,1.42-0.55,2.26-0.55s1.58,0.18,2.26,0.55c0.67,0.37,1.2,0.89,1.59,1.58
				s0.58,1.48,0.58,2.38c0,0.91-0.2,1.7-0.6,2.39c-0.4,0.69-0.94,1.22-1.62,1.59s-1.44,0.56-2.27,0.56
				C191.68,301.52,190.93,301.33,190.27,300.96z M193.97,299.87c0.46-0.25,0.83-0.61,1.11-1.1c0.28-0.49,0.42-1.09,0.42-1.79
				c0-0.7-0.14-1.3-0.42-1.79c-0.28-0.49-0.64-0.86-1.09-1.1c-0.45-0.24-0.93-0.36-1.46-0.36c-0.53,0-1.02,0.12-1.46,0.36
				s-0.8,0.61-1.06,1.1c-0.27,0.49-0.4,1.09-0.4,1.79c0,0.71,0.13,1.32,0.39,1.81c0.26,0.49,0.61,0.86,1.05,1.1s0.92,0.36,1.44,0.36
				S193.51,300.12,193.97,299.87z"/>
		</g>
		<g>
			<path d="M200.37,289.53v11.84h-1.46v-11.84H200.37z"/>
		</g>
		<g>
			<path d="M204.44,300.96c-0.67-0.37-1.19-0.9-1.57-1.59c-0.38-0.69-0.57-1.49-0.57-2.39c0-0.9,0.19-1.69,0.58-2.38
				c0.39-0.69,0.92-1.22,1.59-1.58c0.67-0.37,1.42-0.55,2.26-0.55s1.58,0.18,2.26,0.55c0.67,0.37,1.2,0.89,1.59,1.58
				s0.58,1.48,0.58,2.38c0,0.91-0.2,1.7-0.6,2.39c-0.4,0.69-0.94,1.22-1.62,1.59s-1.44,0.56-2.27,0.56
				C205.85,301.52,205.11,301.33,204.44,300.96z M208.15,299.87c0.46-0.25,0.83-0.61,1.11-1.1c0.28-0.49,0.42-1.09,0.42-1.79
				c0-0.7-0.14-1.3-0.42-1.79c-0.28-0.49-0.64-0.86-1.09-1.1c-0.45-0.24-0.93-0.36-1.46-0.36c-0.53,0-1.02,0.12-1.46,0.36
				s-0.8,0.61-1.06,1.1c-0.27,0.49-0.4,1.09-0.4,1.79c0,0.71,0.13,1.32,0.39,1.81c0.26,0.49,0.61,0.86,1.05,1.1s0.92,0.36,1.44,0.36
				S207.69,300.12,208.15,299.87z"/>
		</g>
		<g>
			<path d="M218.7,292.96c0.57,0.33,1,0.75,1.27,1.25v-1.6h1.47v8.96c0,0.8-0.17,1.51-0.51,2.14c-0.34,0.62-0.83,1.11-1.46,1.46
				c-0.63,0.35-1.37,0.53-2.22,0.53c-1.15,0-2.11-0.27-2.88-0.82c-0.77-0.54-1.22-1.29-1.36-2.22h1.44
				c0.16,0.53,0.49,0.96,0.99,1.29c0.5,0.33,1.1,0.49,1.81,0.49c0.8,0,1.45-0.25,1.96-0.75c0.51-0.5,0.76-1.21,0.76-2.11v-1.84
				c-0.29,0.51-0.71,0.94-1.28,1.28c-0.57,0.34-1.23,0.51-1.98,0.51c-0.78,0-1.49-0.19-2.12-0.58c-0.63-0.38-1.13-0.92-1.5-1.62
				c-0.36-0.69-0.54-1.48-0.54-2.37c0-0.9,0.18-1.68,0.54-2.36c0.36-0.68,0.86-1.2,1.5-1.58c0.63-0.37,1.34-0.56,2.12-0.56
				C217.46,292.46,218.13,292.63,218.7,292.96z M219.57,295.25c-0.27-0.49-0.63-0.87-1.08-1.13s-0.95-0.39-1.5-0.39
				s-1.04,0.13-1.49,0.38c-0.45,0.26-0.81,0.63-1.07,1.12c-0.27,0.49-0.4,1.07-0.4,1.73c0,0.67,0.13,1.26,0.4,1.75
				s0.62,0.88,1.07,1.14c0.45,0.26,0.94,0.39,1.49,0.39s1.04-0.13,1.5-0.39c0.45-0.26,0.81-0.64,1.08-1.14s0.4-1.07,0.4-1.74
				C219.97,296.31,219.84,295.74,219.57,295.25z"/>
		</g>
		<g>
			<path d="M226.19,290.13l-3.41,1.82v-1.09l3.41-2V290.13z M225.36,292.61v8.77h-1.46v-8.77H225.36z"/>
		</g>
		<g>
			<path d="M227.84,294.6c0.36-0.68,0.86-1.2,1.5-1.58c0.63-0.37,1.34-0.56,2.12-0.56c0.77,0,1.43,0.17,2,0.5
				c0.57,0.33,0.99,0.75,1.26,1.25v-1.6h1.47v8.77h-1.47v-1.63c-0.29,0.51-0.72,0.94-1.29,1.27c-0.57,0.34-1.24,0.5-1.99,0.5
				c-0.78,0-1.48-0.19-2.11-0.58c-0.63-0.38-1.13-0.92-1.49-1.62c-0.36-0.69-0.54-1.48-0.54-2.37
				C227.3,296.06,227.48,295.28,227.84,294.6z M234.32,295.25c-0.27-0.49-0.63-0.87-1.08-1.13s-0.95-0.39-1.5-0.39
				s-1.04,0.13-1.49,0.38c-0.45,0.26-0.81,0.63-1.07,1.12c-0.27,0.49-0.4,1.07-0.4,1.73c0,0.67,0.13,1.26,0.4,1.75
				s0.62,0.88,1.07,1.14c0.45,0.26,0.94,0.39,1.49,0.39s1.04-0.13,1.5-0.39c0.45-0.26,0.81-0.64,1.08-1.14s0.4-1.07,0.4-1.74
				C234.72,296.31,234.59,295.74,234.32,295.25z"/>
		</g>
		<g>
			<path d="M239.96,301.17c-0.53-0.23-0.96-0.55-1.26-0.96c-0.31-0.41-0.48-0.88-0.51-1.42h1.5c0.04,0.44,0.25,0.79,0.62,1.07
				s0.85,0.42,1.45,0.42c0.55,0,0.99-0.12,1.31-0.37s0.48-0.55,0.48-0.93c0-0.38-0.17-0.67-0.51-0.86
				c-0.34-0.19-0.87-0.37-1.58-0.55c-0.65-0.17-1.18-0.34-1.59-0.52c-0.41-0.18-0.76-0.44-1.06-0.78c-0.29-0.35-0.44-0.8-0.44-1.37
				c0-0.45,0.13-0.86,0.4-1.23c0.27-0.37,0.65-0.67,1.14-0.89s1.05-0.33,1.68-0.33c0.97,0,1.75,0.25,2.35,0.74
				c0.6,0.49,0.92,1.16,0.96,2.02h-1.46c-0.03-0.46-0.22-0.83-0.55-1.1s-0.79-0.42-1.35-0.42c-0.52,0-0.94,0.11-1.25,0.34
				c-0.31,0.22-0.46,0.52-0.46,0.88c0,0.29,0.09,0.53,0.28,0.71s0.42,0.34,0.7,0.45c0.28,0.11,0.67,0.24,1.18,0.38
				c0.63,0.17,1.14,0.34,1.54,0.5s0.73,0.41,1.02,0.74c0.28,0.33,0.43,0.76,0.44,1.3c0,0.48-0.13,0.91-0.4,1.3s-0.64,0.69-1.13,0.9
				c-0.49,0.22-1.04,0.33-1.67,0.33C241.09,301.52,240.49,301.4,239.96,301.17z"/>
		</g>
		<g>
			<path d="M95.51,316.96c0.57,0.33,1,0.75,1.27,1.25v-1.6h1.47v8.96c0,0.8-0.17,1.51-0.51,2.14c-0.34,0.62-0.83,1.11-1.46,1.46
				c-0.63,0.35-1.37,0.53-2.22,0.53c-1.15,0-2.11-0.27-2.88-0.82c-0.77-0.54-1.22-1.29-1.36-2.22h1.44
				c0.16,0.53,0.49,0.96,0.99,1.29c0.5,0.33,1.1,0.49,1.81,0.49c0.8,0,1.45-0.25,1.96-0.75c0.51-0.5,0.76-1.21,0.76-2.11v-1.84
				c-0.29,0.51-0.71,0.94-1.28,1.28c-0.57,0.34-1.23,0.51-1.98,0.51c-0.78,0-1.49-0.19-2.12-0.58c-0.63-0.38-1.13-0.92-1.5-1.62
				c-0.36-0.69-0.54-1.48-0.54-2.37c0-0.9,0.18-1.68,0.54-2.36c0.36-0.68,0.86-1.2,1.5-1.58c0.63-0.37,1.34-0.56,2.12-0.56
				C94.27,316.46,94.94,316.63,95.51,316.96z M96.38,319.25c-0.27-0.49-0.63-0.87-1.08-1.13s-0.95-0.39-1.5-0.39
				s-1.04,0.13-1.49,0.38c-0.45,0.26-0.81,0.63-1.07,1.12c-0.27,0.49-0.4,1.07-0.4,1.73c0,0.67,0.13,1.26,0.4,1.75
				s0.62,0.88,1.07,1.14c0.45,0.26,0.94,0.39,1.49,0.39s1.04-0.13,1.5-0.39c0.45-0.26,0.81-0.64,1.08-1.14s0.4-1.07,0.4-1.74
				C96.78,320.31,96.64,319.74,96.38,319.25z"/>
		</g>
		<g>
			<path d="M100.76,314.89c-0.19-0.19-0.29-0.43-0.29-0.7s0.1-0.51,0.29-0.7c0.19-0.19,0.43-0.29,0.7-0.29
				c0.27,0,0.49,0.1,0.68,0.29c0.19,0.19,0.28,0.43,0.28,0.7s-0.09,0.51-0.28,0.7c-0.19,0.19-0.41,0.29-0.68,0.29
				C101.19,315.18,100.95,315.09,100.76,314.89z M102.17,316.61v8.77h-1.46v-8.77H102.17z"/>
		</g>
		<g>
			<path d="M111.51,317.41c0.66,0.65,0.99,1.58,0.99,2.79v5.17h-1.44v-4.96c0-0.88-0.22-1.54-0.66-2.01s-1.04-0.7-1.79-0.7
				c-0.77,0-1.38,0.24-1.83,0.72c-0.45,0.48-0.68,1.18-0.68,2.1v4.85h-1.46v-8.77h1.46v1.25c0.29-0.45,0.68-0.79,1.18-1.04
				c0.5-0.25,1.04-0.37,1.64-0.37C109.99,316.45,110.85,316.77,111.51,317.41z"/>
		</g>
		<g>
			<path d="M122.84,321.53h-7.01c0.05,0.86,0.35,1.54,0.89,2.02c0.54,0.49,1.19,0.73,1.96,0.73c0.63,0,1.15-0.15,1.58-0.44
				c0.42-0.29,0.72-0.68,0.89-1.18h1.57c-0.23,0.84-0.7,1.53-1.41,2.06c-0.7,0.53-1.58,0.79-2.62,0.79c-0.83,0-1.58-0.19-2.23-0.56
				s-1.17-0.9-1.54-1.59c-0.37-0.69-0.56-1.49-0.56-2.39c0-0.91,0.18-1.7,0.54-2.38c0.36-0.68,0.87-1.21,1.53-1.58
				c0.66-0.37,1.41-0.55,2.26-0.55c0.83,0,1.57,0.18,2.21,0.54c0.64,0.36,1.13,0.86,1.48,1.5s0.52,1.35,0.52,2.15
				C122.89,320.93,122.87,321.22,122.84,321.53z M121.02,318.92c-0.25-0.4-0.58-0.7-1-0.91c-0.42-0.21-0.89-0.31-1.4-0.31
				c-0.74,0-1.36,0.23-1.88,0.7c-0.52,0.47-0.81,1.12-0.89,1.95h5.54C121.39,319.8,121.26,319.32,121.02,318.92z"/>
		</g>
		<g>
			<path d="M124.81,318.6c0.36-0.68,0.87-1.2,1.51-1.58c0.65-0.37,1.38-0.56,2.22-0.56c1.08,0,1.96,0.26,2.66,0.78
				c0.7,0.52,1.16,1.25,1.38,2.18h-1.57c-0.15-0.53-0.44-0.95-0.87-1.26c-0.43-0.31-0.97-0.46-1.61-0.46c-0.83,0-1.5,0.29-2.02,0.86
				c-0.51,0.57-0.77,1.38-0.77,2.42c0,1.06,0.26,1.87,0.77,2.45c0.51,0.58,1.18,0.86,2.02,0.86c0.64,0,1.17-0.15,1.6-0.45
				s0.72-0.73,0.88-1.28h1.57c-0.23,0.9-0.7,1.61-1.41,2.15c-0.7,0.54-1.58,0.81-2.64,0.81c-0.83,0-1.57-0.19-2.22-0.56
				s-1.15-0.9-1.51-1.58c-0.36-0.68-0.54-1.48-0.54-2.4C124.27,320.07,124.45,319.28,124.81,318.6z"/>
		</g>
		<g>
			<path d="M136.11,324.96c-0.67-0.37-1.19-0.9-1.57-1.59c-0.38-0.69-0.57-1.49-0.57-2.39c0-0.9,0.19-1.69,0.58-2.38
				c0.39-0.69,0.92-1.22,1.59-1.58c0.67-0.37,1.42-0.55,2.26-0.55s1.58,0.18,2.26,0.55c0.67,0.37,1.2,0.89,1.59,1.58
				s0.58,1.48,0.58,2.38c0,0.91-0.2,1.7-0.6,2.39c-0.4,0.69-0.94,1.22-1.62,1.59s-1.44,0.56-2.27,0.56
				C137.52,325.52,136.78,325.33,136.11,324.96z M139.82,323.87c0.46-0.25,0.83-0.61,1.11-1.1c0.28-0.49,0.42-1.09,0.42-1.79
				c0-0.7-0.14-1.3-0.42-1.79c-0.28-0.49-0.64-0.86-1.09-1.1c-0.45-0.24-0.93-0.36-1.46-0.36c-0.53,0-1.02,0.12-1.46,0.36
				s-0.8,0.61-1.06,1.1c-0.27,0.49-0.4,1.09-0.4,1.79c0,0.71,0.13,1.32,0.39,1.81c0.26,0.49,0.61,0.86,1.05,1.1s0.92,0.36,1.44,0.36
				S139.36,324.12,139.82,323.87z"/>
		</g>
		<g>
			<path d="M146.22,313.53v11.84h-1.46v-11.84H146.22z"/>
		</g>
		<g>
			<path d="M150.29,324.96c-0.67-0.37-1.19-0.9-1.57-1.59c-0.38-0.69-0.57-1.49-0.57-2.39c0-0.9,0.19-1.69,0.58-2.38
				c0.39-0.69,0.92-1.22,1.59-1.58c0.67-0.37,1.42-0.55,2.26-0.55s1.58,0.18,2.26,0.55c0.67,0.37,1.2,0.89,1.59,1.58
				s0.58,1.48,0.58,2.38c0,0.91-0.2,1.7-0.6,2.39c-0.4,0.69-0.94,1.22-1.62,1.59s-1.44,0.56-2.27,0.56
				C151.7,325.52,150.96,325.33,150.29,324.96z M153.99,323.87c0.46-0.25,0.83-0.61,1.11-1.1c0.28-0.49,0.42-1.09,0.42-1.79
				c0-0.7-0.14-1.3-0.42-1.79c-0.28-0.49-0.64-0.86-1.09-1.1c-0.45-0.24-0.93-0.36-1.46-0.36c-0.53,0-1.02,0.12-1.46,0.36
				s-0.8,0.61-1.06,1.1c-0.27,0.49-0.4,1.09-0.4,1.79c0,0.71,0.13,1.32,0.39,1.81c0.26,0.49,0.61,0.86,1.05,1.1s0.92,0.36,1.44,0.36
				S153.53,324.12,153.99,323.87z M154.15,314.01l-3.41,1.82v-1.09l3.41-2V314.01z"/>
		</g>
		<g>
			<path d="M164.55,316.96c0.57,0.33,1,0.75,1.27,1.25v-1.6h1.47v8.96c0,0.8-0.17,1.51-0.51,2.14c-0.34,0.62-0.83,1.11-1.46,1.46
				c-0.63,0.35-1.37,0.53-2.22,0.53c-1.15,0-2.11-0.27-2.88-0.82c-0.77-0.54-1.22-1.29-1.36-2.22h1.44
				c0.16,0.53,0.49,0.96,0.99,1.29c0.5,0.33,1.1,0.49,1.81,0.49c0.8,0,1.45-0.25,1.96-0.75c0.51-0.5,0.76-1.21,0.76-2.11v-1.84
				c-0.29,0.51-0.71,0.94-1.28,1.28c-0.57,0.34-1.23,0.51-1.98,0.51c-0.78,0-1.49-0.19-2.12-0.58c-0.63-0.38-1.13-0.92-1.5-1.62
				c-0.36-0.69-0.54-1.48-0.54-2.37c0-0.9,0.18-1.68,0.54-2.36c0.36-0.68,0.86-1.2,1.5-1.58c0.63-0.37,1.34-0.56,2.12-0.56
				C163.31,316.46,163.98,316.63,164.55,316.96z M165.42,319.25c-0.27-0.49-0.63-0.87-1.08-1.13s-0.95-0.39-1.5-0.39
				s-1.04,0.13-1.49,0.38c-0.45,0.26-0.81,0.63-1.07,1.12c-0.27,0.49-0.4,1.07-0.4,1.73c0,0.67,0.13,1.26,0.4,1.75
				s0.62,0.88,1.07,1.14c0.45,0.26,0.94,0.39,1.49,0.39s1.04-0.13,1.5-0.39c0.45-0.26,0.81-0.64,1.08-1.14s0.4-1.07,0.4-1.74
				C165.82,320.31,165.68,319.74,165.42,319.25z"/>
		</g>
		<g>
			<path d="M169.8,314.89c-0.19-0.19-0.29-0.43-0.29-0.7s0.1-0.51,0.29-0.7c0.19-0.19,0.43-0.29,0.7-0.29c0.27,0,0.49,0.1,0.68,0.29
				c0.19,0.19,0.28,0.43,0.28,0.7s-0.09,0.51-0.28,0.7c-0.19,0.19-0.41,0.29-0.68,0.29C170.23,315.18,169.99,315.09,169.8,314.89z
				 M171.21,316.61v8.77h-1.46v-8.77H171.21z"/>
		</g>
		<g>
			<path d="M173.69,318.6c0.36-0.68,0.87-1.2,1.51-1.58c0.65-0.37,1.38-0.56,2.22-0.56c1.08,0,1.96,0.26,2.66,0.78
				c0.7,0.52,1.16,1.25,1.38,2.18h-1.57c-0.15-0.53-0.44-0.95-0.87-1.26c-0.43-0.31-0.97-0.46-1.61-0.46c-0.83,0-1.5,0.29-2.02,0.86
				c-0.51,0.57-0.77,1.38-0.77,2.42c0,1.06,0.26,1.87,0.77,2.45c0.51,0.58,1.18,0.86,2.02,0.86c0.64,0,1.17-0.15,1.6-0.45
				s0.72-0.73,0.88-1.28h1.57c-0.23,0.9-0.7,1.61-1.41,2.15c-0.7,0.54-1.58,0.81-2.64,0.81c-0.83,0-1.57-0.19-2.22-0.56
				s-1.15-0.9-1.51-1.58c-0.36-0.68-0.54-1.48-0.54-2.4C173.14,320.07,173.33,319.28,173.69,318.6z"/>
		</g>
		<g>
			<path d="M183.4,318.6c0.36-0.68,0.86-1.2,1.5-1.58c0.63-0.37,1.34-0.56,2.12-0.56c0.77,0,1.43,0.17,2,0.5
				c0.57,0.33,0.99,0.75,1.26,1.25v-1.6h1.47v8.77h-1.47v-1.63c-0.29,0.51-0.72,0.94-1.29,1.27c-0.57,0.34-1.24,0.5-1.99,0.5
				c-0.78,0-1.48-0.19-2.11-0.58c-0.63-0.38-1.13-0.92-1.49-1.62c-0.36-0.69-0.54-1.48-0.54-2.37
				C182.86,320.06,183.04,319.28,183.4,318.6z M189.88,319.25c-0.27-0.49-0.63-0.87-1.08-1.13s-0.95-0.39-1.5-0.39
				s-1.04,0.13-1.49,0.38c-0.45,0.26-0.81,0.63-1.07,1.12c-0.27,0.49-0.4,1.07-0.4,1.73c0,0.67,0.13,1.26,0.4,1.75
				s0.62,0.88,1.07,1.14c0.45,0.26,0.94,0.39,1.49,0.39s1.04-0.13,1.5-0.39c0.45-0.26,0.81-0.64,1.08-1.14s0.4-1.07,0.4-1.74
				C190.28,320.31,190.15,319.74,189.88,319.25z"/>
		</g>
		<g>
			<path d="M195.51,325.17c-0.53-0.23-0.96-0.55-1.26-0.96c-0.31-0.41-0.48-0.88-0.51-1.42h1.5c0.04,0.44,0.25,0.79,0.62,1.07
				s0.85,0.42,1.45,0.42c0.55,0,0.99-0.12,1.31-0.37s0.48-0.55,0.48-0.93c0-0.38-0.17-0.67-0.51-0.86
				c-0.34-0.19-0.87-0.37-1.58-0.55c-0.65-0.17-1.18-0.34-1.59-0.52c-0.41-0.18-0.76-0.44-1.06-0.78c-0.29-0.35-0.44-0.8-0.44-1.37
				c0-0.45,0.13-0.86,0.4-1.23c0.27-0.37,0.65-0.67,1.14-0.89s1.05-0.33,1.68-0.33c0.97,0,1.75,0.25,2.35,0.74
				c0.6,0.49,0.92,1.16,0.96,2.02h-1.46c-0.03-0.46-0.22-0.83-0.55-1.1s-0.79-0.42-1.35-0.42c-0.52,0-0.94,0.11-1.25,0.34
				c-0.31,0.22-0.46,0.52-0.46,0.88c0,0.29,0.09,0.53,0.28,0.71s0.42,0.34,0.7,0.45c0.28,0.11,0.67,0.24,1.18,0.38
				c0.63,0.17,1.14,0.34,1.54,0.5s0.73,0.41,1.02,0.74c0.28,0.33,0.43,0.76,0.44,1.3c0,0.48-0.13,0.91-0.4,1.3s-0.64,0.69-1.13,0.9
				c-0.49,0.22-1.04,0.33-1.67,0.33C196.65,325.52,196.05,325.4,195.51,325.17z"/>
		</g>
	</g>
</g>
<path class="st5" d="M175.16,52.71c-0.38-0.82-1.33-1.2-2.16-0.85c-3.45,1.41-12.45,4.67-22.02,4.67c-9.57,0-18.57-3.26-22.02-4.67
	c-0.83-0.34-1.79,0.04-2.16,0.85l-14.84,32.41c-0.81,1.76-0.02,3.85,1.75,4.63c5.49,2.43,18.07,6.84,37.28,6.84
	c19.21,0,31.8-4.41,37.28-6.84c1.77-0.79,2.55-2.87,1.75-4.63L175.16,52.71z"/>
<g>
	<g>
		<path class="st7" d="M99.68,104.82c-0.55,0-1-0.45-1-1V36.25c0-0.55,0.45-1,1-1s1,0.45,1,1v67.57
			C100.68,104.37,100.23,104.82,99.68,104.82z"/>
	</g>
	<g>
		<path class="st7" d="M105.18,104.82h-5.5c-0.55,0-1-0.45-1-1s0.45-1,1-1h5.5c0.55,0,1,0.45,1,1S105.73,104.82,105.18,104.82z"/>
	</g>
	<g>
		<path class="st7" d="M107.69,95.14h-8.02c-0.55,0-1-0.45-1-1s0.45-1,1-1h8.02c0.55,0,1,0.45,1,1S108.24,95.14,107.69,95.14z"/>
	</g>
	<g>
		<path class="st7" d="M105.18,85.45h-5.5c-0.55,0-1-0.45-1-1s0.45-1,1-1h5.5c0.55,0,1,0.45,1,1S105.73,85.45,105.18,85.45z"/>
	</g>
	<g>
		<path class="st7" d="M107.69,75.77h-8.02c-0.55,0-1-0.45-1-1s0.45-1,1-1h8.02c0.55,0,1,0.45,1,1S108.24,75.77,107.69,75.77z"/>
	</g>
	<g>
		<path class="st7" d="M105.18,66.09h-5.5c-0.55,0-1-0.45-1-1s0.45-1,1-1h5.5c0.55,0,1,0.45,1,1S105.73,66.09,105.18,66.09z"/>
	</g>
	<g>
		<path class="st7" d="M107.69,56.4h-8.02c-0.55,0-1-0.45-1-1s0.45-1,1-1h8.02c0.55,0,1,0.45,1,1S108.24,56.4,107.69,56.4z"/>
	</g>
	<g>
		<path class="st7" d="M105.18,46.72h-5.5c-0.55,0-1-0.45-1-1s0.45-1,1-1h5.5c0.55,0,1,0.45,1,1S105.73,46.72,105.18,46.72z"/>
	</g>
	<g>
		<path class="st7" d="M186.61,37.25H99.68c-0.55,0-1-0.45-1-1s0.45-1,1-1h86.94c0.55,0,1,0.45,1,1S187.16,37.25,186.61,37.25z"/>
	</g>
	<g>
		<path class="st7" d="M167.25,42.75c-0.55,0-1-0.45-1-1v-5.5c0-0.55,0.45-1,1-1s1,0.45,1,1v5.5
			C168.25,42.3,167.8,42.75,167.25,42.75z"/>
	</g>
	<g>
		<path class="st7" d="M186.61,42.75c-0.55,0-1-0.45-1-1v-5.5c0-0.55,0.45-1,1-1s1,0.45,1,1v5.5
			C187.61,42.3,187.16,42.75,186.61,42.75z"/>
	</g>
	<g>
		<path class="st7" d="M157.56,45.26c-0.55,0-1-0.45-1-1v-8.02c0-0.55,0.45-1,1-1s1,0.45,1,1v8.02
			C158.56,44.82,158.11,45.26,157.56,45.26z"/>
	</g>
	<g>
		<path class="st7" d="M176.93,45.26c-0.55,0-1-0.45-1-1v-8.02c0-0.55,0.45-1,1-1s1,0.45,1,1v8.02
			C177.93,44.82,177.48,45.26,176.93,45.26z"/>
	</g>
	<g>
		<path class="st7" d="M147.88,42.75c-0.55,0-1-0.45-1-1v-5.5c0-0.55,0.45-1,1-1s1,0.45,1,1v5.5
			C148.88,42.3,148.43,42.75,147.88,42.75z"/>
	</g>
	<g>
		<path class="st7" d="M138.2,45.26c-0.55,0-1-0.45-1-1v-8.02c0-0.55,0.45-1,1-1s1,0.45,1,1v8.02
			C139.2,44.82,138.75,45.26,138.2,45.26z"/>
	</g>
	<g>
		<path class="st7" d="M128.51,42.75c-0.55,0-1-0.45-1-1v-5.5c0-0.55,0.45-1,1-1s1,0.45,1,1v5.5
			C129.51,42.3,129.07,42.75,128.51,42.75z"/>
	</g>
	<g>
		<path class="st7" d="M118.83,45.26c-0.55,0-1-0.45-1-1v-8.02c0-0.55,0.45-1,1-1s1,0.45,1,1v8.02
			C119.83,44.82,119.38,45.26,118.83,45.26z"/>
	</g>
	<g>
		<path class="st7" d="M109.15,42.75c-0.55,0-1-0.45-1-1v-5.5c0-0.55,0.45-1,1-1s1,0.45,1,1v5.5
			C110.15,42.3,109.7,42.75,109.15,42.75z"/>
	</g>
	<g>
		<g>
			<path class="st7" d="M190.32,104.82h-16.91c-0.55,0-1-0.45-1-1s0.45-1,1-1h16.91c0.55,0,1,0.45,1,1S190.88,104.82,190.32,104.82z
				"/>
		</g>
		<g>
			<path class="st7" d="M190.32,99.88h-10.36c-0.55,0-1-0.45-1-1s0.45-1,1-1h10.36c0.55,0,1,0.45,1,1S190.88,99.88,190.32,99.88z"/>
		</g>
	</g>
</g>
<g>
	<circle class="st12" cx="147.81" cy="79.71" r="9.54"/>
	<circle class="st12" cx="159.37" cy="68.16" r="4.32"/>
</g>
</svg>
