<?xml version="1.0" encoding="utf-8"?>
<!-- Generator: Adobe Illustrator 24.1.1, SVG Export Plug-In . SVG Version: 6.00 Build 0)  -->
<svg version="1.1" id="Capa_1" xmlns="http://www.w3.org/2000/svg" xmlns:xlink="http://www.w3.org/1999/xlink" x="0px" y="0px"
	 viewBox="0 0 103.92 67.57" style="enable-background:new 0 0 103.92 67.57;" xml:space="preserve">
<style type="text/css">
	.st0{fill:#D9D9D9;}
	.st1{fill:#D36F62;}
	.st2{fill:#F8C5B0;}
	.st3{fill:#F7A6A9;}
	.st4{fill:#007CC3;}
	.st5{clip-path:url(#SVGID_2_);}
	.st6{fill:#F173AC;}
	.st7{fill:#F5A4C7;}
	.st8{fill:#F4C6DE;}
	.st9{fill:#BFBFBF;}
	.st10{clip-path:url(#SVGID_4_);}
	.st11{fill:#999999;}
	.st12{fill:#1A1A1A;}
	.st13{opacity:0.5;fill:#D36F62;}
	.st14{fill:none;stroke:#F4C6DE;stroke-linecap:round;stroke-linejoin:round;stroke-miterlimit:10;}
</style>
<path class="st6" d="M82.12,16.46c-0.38-0.82-1.33-1.2-2.16-0.85c-3.45,1.41-12.45,4.67-22.02,4.67c-9.57,0-18.57-3.26-22.02-4.67
	c-0.83-0.34-1.79,0.04-2.16,0.85L18.91,48.87c-0.81,1.76-0.02,3.85,1.75,4.63c5.49,2.43,18.07,6.84,37.28,6.84
	c19.21,0,31.8-4.41,37.28-6.84c1.77-0.79,2.55-2.87,1.75-4.63L82.12,16.46z"/>
<g>
	<g>
		<path class="st0" d="M7.94,67.57c-0.54,0-0.97-0.43-0.97-0.97V0.97C6.97,0.43,7.4,0,7.94,0s0.97,0.43,0.97,0.97V66.6
			C8.91,67.14,8.47,67.57,7.94,67.57z"/>
	</g>
	<g>
		<path class="st0" d="M13.28,67.57H7.94c-0.54,0-0.97-0.43-0.97-0.97s0.43-0.97,0.97-0.97h5.34c0.54,0,0.97,0.43,0.97,0.97
			S13.82,67.57,13.28,67.57z"/>
	</g>
	<g>
		<path class="st0" d="M15.72,58.17H7.94c-0.54,0-0.97-0.43-0.97-0.97c0-0.54,0.43-0.97,0.97-0.97h7.79c0.54,0,0.97,0.43,0.97,0.97
			C16.69,57.73,16.26,58.17,15.72,58.17z"/>
	</g>
	<g>
		<path class="st0" d="M13.28,48.76H7.94c-0.54,0-0.97-0.43-0.97-0.97s0.43-0.97,0.97-0.97h5.34c0.54,0,0.97,0.43,0.97,0.97
			S13.82,48.76,13.28,48.76z"/>
	</g>
	<g>
		<path class="st0" d="M15.72,39.36H7.94c-0.54,0-0.97-0.43-0.97-0.97c0-0.54,0.43-0.97,0.97-0.97h7.79c0.54,0,0.97,0.43,0.97,0.97
			C16.69,38.92,16.26,39.36,15.72,39.36z"/>
	</g>
	<g>
		<path class="st0" d="M13.28,29.95H7.94c-0.54,0-0.97-0.43-0.97-0.97c0-0.54,0.43-0.97,0.97-0.97h5.34c0.54,0,0.97,0.43,0.97,0.97
			C14.25,29.52,13.82,29.95,13.28,29.95z"/>
	</g>
	<g>
		<path class="st0" d="M15.72,20.55H7.94c-0.54,0-0.97-0.43-0.97-0.97c0-0.54,0.43-0.97,0.97-0.97h7.79c0.54,0,0.97,0.43,0.97,0.97
			C16.69,20.11,16.26,20.55,15.72,20.55z"/>
	</g>
	<g>
		<path class="st0" d="M13.28,11.14H7.94c-0.54,0-0.97-0.43-0.97-0.97c0-0.54,0.43-0.97,0.97-0.97h5.34c0.54,0,0.97,0.43,0.97,0.97
			C14.25,10.71,13.82,11.14,13.28,11.14z"/>
	</g>
	<g>
		<path class="st0" d="M92.37,1.94H7.94c-0.54,0-0.97-0.43-0.97-0.97S7.4,0,7.94,0h84.44c0.54,0,0.97,0.43,0.97,0.97
			S92.91,1.94,92.37,1.94z"/>
	</g>
	<g>
		<path class="st0" d="M73.56,7.28c-0.54,0-0.97-0.43-0.97-0.97V0.97c0-0.54,0.43-0.97,0.97-0.97c0.54,0,0.97,0.43,0.97,0.97v5.34
			C74.54,6.85,74.1,7.28,73.56,7.28z"/>
	</g>
	<g>
		<path class="st0" d="M92.37,7.28c-0.54,0-0.97-0.43-0.97-0.97V0.97C91.4,0.43,91.84,0,92.37,0s0.97,0.43,0.97,0.97v5.34
			C93.34,6.85,92.91,7.28,92.37,7.28z"/>
	</g>
	<g>
		<path class="st0" d="M64.16,9.73c-0.54,0-0.97-0.43-0.97-0.97V0.97c0-0.54,0.43-0.97,0.97-0.97c0.54,0,0.97,0.43,0.97,0.97v7.78
			C65.13,9.29,64.7,9.73,64.16,9.73z"/>
	</g>
	<g>
		<path class="st0" d="M82.97,9.73C82.43,9.73,82,9.29,82,8.76V0.97C82,0.43,82.43,0,82.97,0s0.97,0.43,0.97,0.97v7.78
			C83.94,9.29,83.51,9.73,82.97,9.73z"/>
	</g>
	<g>
		<path class="st0" d="M54.75,7.28c-0.54,0-0.97-0.43-0.97-0.97V0.97c0-0.54,0.43-0.97,0.97-0.97s0.97,0.43,0.97,0.97v5.34
			C55.73,6.85,55.29,7.28,54.75,7.28z"/>
	</g>
	<g>
		<path class="st0" d="M45.35,9.73c-0.54,0-0.97-0.43-0.97-0.97V0.97c0-0.54,0.43-0.97,0.97-0.97s0.97,0.43,0.97,0.97v7.78
			C46.32,9.29,45.89,9.73,45.35,9.73z"/>
	</g>
	<g>
		<path class="st0" d="M35.95,7.28c-0.54,0-0.97-0.43-0.97-0.97V0.97c0-0.54,0.43-0.97,0.97-0.97c0.54,0,0.97,0.43,0.97,0.97v5.34
			C36.92,6.85,36.48,7.28,35.95,7.28z"/>
	</g>
	<g>
		<path class="st0" d="M26.54,9.73c-0.54,0-0.97-0.43-0.97-0.97V0.97C25.57,0.43,26,0,26.54,0s0.97,0.43,0.97,0.97v7.78
			C27.51,9.29,27.08,9.73,26.54,9.73z"/>
	</g>
	<g>
		<path class="st0" d="M17.14,7.28c-0.54,0-0.97-0.43-0.97-0.97V0.97C16.16,0.43,16.6,0,17.14,0c0.54,0,0.97,0.43,0.97,0.97v5.34
			C18.11,6.85,17.67,7.28,17.14,7.28z"/>
	</g>
	<g>
		<g>
			<path class="st0" d="M95.98,67.57H79.55c-0.54,0-0.97-0.43-0.97-0.97s0.43-0.97,0.97-0.97h16.43c0.54,0,0.97,0.43,0.97,0.97
				S96.52,67.57,95.98,67.57z"/>
		</g>
		<g>
			<path class="st0" d="M95.98,62.77H85.92c-0.54,0-0.97-0.43-0.97-0.97c0-0.54,0.43-0.97,0.97-0.97h10.06
				c0.54,0,0.97,0.43,0.97,0.97C96.95,62.34,96.52,62.77,95.98,62.77z"/>
		</g>
	</g>
</g>
<g>
	<g>
		<path class="st8" d="M48.65,42.99c-2.54,0-4.21-0.39-4.35-0.42c-0.27-0.06-0.43-0.33-0.37-0.6c0.06-0.27,0.34-0.44,0.6-0.37
			c0.07,0.02,6.65,1.52,13.66-1.61c7.28-3.26,13.04-3.04,13.28-3.02c0.28,0.01,0.49,0.25,0.48,0.52c-0.01,0.28-0.23,0.51-0.52,0.48
			c-0.06,0-5.78-0.21-12.83,2.94C54.86,42.57,51.29,42.99,48.65,42.99z"/>
	</g>
	<g>
		<path class="st8" d="M54.53,42.27c-0.1,0-0.2-0.03-0.29-0.09c-0.22-0.16-0.27-0.47-0.11-0.7c3.02-4.17,2.32-5.39,1.26-7.22
			c-0.35-0.61-0.75-1.31-1.07-2.17c-1.11-3.08,1.21-4.98,2.59-5.55c0.25-0.1,0.55,0.01,0.65,0.27s-0.01,0.55-0.27,0.65
			c-0.13,0.05-3.09,1.34-2.03,4.29c0.28,0.78,0.64,1.41,0.99,2.01c1.29,2.24,1.92,3.84-1.32,8.31
			C54.83,42.2,54.68,42.27,54.53,42.27z"/>
	</g>
	<g>
		<path class="st8" d="M56.49,53.32c-5.06,0-5.78-3.29-6.42-6.2l-0.12-0.55c-0.63-2.78-3.15-3.65-3.25-3.68
			c-0.26-0.09-0.4-0.37-0.32-0.63s0.37-0.4,0.63-0.32c0.13,0.04,3.16,1.07,3.92,4.41l0.12,0.55c0.64,2.9,1.19,5.41,5.44,5.41
			c0,0,0,0,0,0c0.28,0,0.5,0.22,0.5,0.5S56.77,53.32,56.49,53.32C56.49,53.32,56.49,53.32,56.49,53.32z"/>
	</g>
	<g>
		<path class="st8" d="M62.91,39.28c-0.18,0-0.36-0.1-0.45-0.28c-0.12-0.25-0.02-0.55,0.22-0.67c0.04-0.02,4.02-2.06,4.58-6.38
			c0.65-5.02,4.14-5.12,4.18-5.12c0,0,0,0,0.01,0c0.27,0,0.5,0.22,0.5,0.49c0,0.28-0.22,0.5-0.49,0.51c-0.11,0-2.67,0.12-3.2,4.25
			c-0.63,4.86-4.94,7.06-5.13,7.15C63.06,39.26,62.99,39.28,62.91,39.28z"/>
	</g>
	<g>
		<path class="st8" d="M64.6,52.4c-0.5,0-1.02-0.08-1.51-0.31c-0.84-0.39-1.41-1.13-1.69-2.19c-0.15-0.56-0.26-1.14-0.37-1.71
			c-0.58-2.99-1.07-5.57-7.13-5.78c-0.28-0.01-0.49-0.24-0.48-0.52c0.01-0.28,0.24-0.46,0.52-0.48c6.85,0.24,7.5,3.61,8.07,6.59
			c0.11,0.55,0.21,1.1,0.36,1.64c0.21,0.77,0.58,1.28,1.15,1.54c1.06,0.5,2.58,0,3.08-0.23c0.25-0.12,0.55-0.01,0.66,0.24
			c0.12,0.25,0.01,0.55-0.24,0.66C66.94,51.9,65.84,52.4,64.6,52.4z"/>
	</g>
	<g>
		<path class="st8" d="M53.57,31.34c-0.18,0-0.37-0.02-0.54-0.06c-0.61-0.15-1.13-0.58-1.36-1.13c-0.16-0.39-0.16-0.79-0.16-1.14
			c0-0.18,0-0.37-0.03-0.54c-0.05-0.35-0.3-0.73-0.63-0.76c-0.28-0.03-0.48-0.27-0.45-0.54c0.03-0.28,0.28-0.48,0.54-0.45
			c0.85,0.08,1.41,0.87,1.52,1.61c0.04,0.23,0.04,0.46,0.04,0.69c0,0.29,0,0.56,0.09,0.77c0.1,0.25,0.37,0.46,0.67,0.54
			c0.31,0.08,0.66,0.03,1-0.13c0.25-0.11,0.55,0,0.66,0.25s0,0.55-0.25,0.66C54.33,31.26,53.94,31.34,53.57,31.34z"/>
	</g>
	<g>
		<path class="st8" d="M56.23,34.26c-0.15,0-0.3-0.01-0.45-0.03c-0.27-0.04-0.46-0.29-0.42-0.57c0.04-0.27,0.3-0.46,0.57-0.42
			c0.91,0.14,1.93-0.32,2.6-1.15c0.75-0.93,0.97-2.12,1.03-2.96c0.02-0.28,0.27-0.48,0.53-0.46c0.28,0.02,0.48,0.26,0.46,0.53
			c-0.1,1.41-0.53,2.63-1.25,3.52C58.52,33.69,57.35,34.26,56.23,34.26z"/>
	</g>
	<g>
		<path class="st8" d="M60.67,35.3c-0.27,0-0.54-0.04-0.8-0.14c-0.84-0.3-1.54-1.05-1.85-2.02c-0.08-0.26,0.06-0.54,0.32-0.63
			c0.26-0.09,0.54,0.06,0.63,0.32c0.22,0.66,0.69,1.19,1.24,1.39c0.57,0.2,1.24,0.01,1.52-0.44c0.15-0.23,0.46-0.3,0.69-0.15
			c0.23,0.15,0.3,0.46,0.15,0.69C62.18,34.94,61.44,35.3,60.67,35.3z"/>
	</g>
	<g>
		<path class="st8" d="M67.99,31.2c-0.19,0-0.38-0.11-0.46-0.3c-0.09-0.21-0.16-0.43-0.23-0.65c-0.08-0.26-0.16-0.5-0.27-0.7
			c-0.25-0.46-0.73-0.8-1.28-0.91c-0.53-0.11-1.13,0-1.63,0.29c-0.24,0.13-0.55,0.05-0.68-0.19c-0.14-0.24-0.05-0.54,0.19-0.68
			c0.72-0.41,1.56-0.55,2.33-0.4c0.83,0.17,1.56,0.7,1.96,1.41c0.16,0.29,0.25,0.59,0.35,0.88c0.06,0.18,0.12,0.37,0.19,0.55
			c0.11,0.25,0,0.55-0.26,0.66C68.13,31.19,68.06,31.2,67.99,31.2z"/>
	</g>
	<g>
		<path class="st8" d="M70.71,32.23c-0.26,0-0.48-0.2-0.5-0.46c-0.02-0.33-0.35-0.6-0.67-0.69c-0.34-0.1-0.77-0.08-1.34,0.07
			c-0.27,0.07-0.54-0.09-0.61-0.36s0.09-0.54,0.36-0.61c0.47-0.13,1.18-0.27,1.88-0.07c0.77,0.22,1.34,0.87,1.39,1.58
			c0.02,0.28-0.19,0.51-0.46,0.53C70.74,32.23,70.73,32.23,70.71,32.23z"/>
	</g>
	<g>
		<path class="st8" d="M67.59,47.51c-0.64,0-1.27-0.2-1.77-0.57c-0.25-0.19-0.46-0.41-0.66-0.63c-0.19-0.2-0.37-0.4-0.57-0.54
			c-0.41-0.29-1-0.4-1.6-0.29c-0.52,0.09-1.06,0.32-1.71,0.72c-0.23,0.15-0.54,0.07-0.69-0.16c-0.15-0.23-0.07-0.54,0.16-0.69
			c0.76-0.47,1.42-0.74,2.07-0.85c0.86-0.15,1.72,0.02,2.34,0.46c0.29,0.2,0.51,0.44,0.73,0.68c0.18,0.19,0.34,0.37,0.53,0.51
			c0.49,0.37,1.18,0.48,1.79,0.28c0.6-0.19,1.13-0.66,1.43-1.26c0.12-0.25,0.42-0.35,0.67-0.23c0.25,0.12,0.35,0.42,0.23,0.67
			c-0.42,0.85-1.16,1.5-2.02,1.77C68.21,47.46,67.9,47.51,67.59,47.51z"/>
	</g>
	<g>
		<path class="st8" d="M68.69,50.28c-0.7,0-1.4-0.29-1.9-0.81c-0.65-0.67-0.94-1.7-0.75-2.67c0.05-0.27,0.32-0.45,0.59-0.39
			c0.27,0.05,0.45,0.32,0.39,0.59c-0.13,0.64,0.06,1.34,0.48,1.78c0.43,0.45,1.12,0.62,1.67,0.42c0.26-0.1,0.55,0.04,0.64,0.3
			s-0.04,0.55-0.3,0.64C69.25,50.24,68.97,50.28,68.69,50.28z"/>
	</g>
	<g>
		<path class="st8" d="M60.04,53.32c-0.12,0-0.23-0.04-0.32-0.12c-0.47-0.41-1.17-1.5-0.44-2.68c0.91-1.46,2.84-0.79,2.92-0.76
			c0.26,0.09,0.39,0.38,0.3,0.64c-0.09,0.26-0.38,0.39-0.64,0.3c-0.01-0.01-1.25-0.43-1.74,0.35c-0.46,0.74,0.17,1.33,0.24,1.4
			c0.21,0.18,0.23,0.5,0.04,0.7C60.32,53.26,60.18,53.32,60.04,53.32z"/>
	</g>
	<g>
		<path class="st8" d="M52.34,51.89c-0.02,0-0.05,0-0.08-0.01c-0.27-0.04-0.46-0.29-0.42-0.56c0.01-0.07,0.27-1.75,2.36-2.6
			c2.12-0.86,3.77,0.64,3.83,0.71c0.2,0.19,0.21,0.5,0.02,0.71c-0.19,0.2-0.5,0.21-0.71,0.02c-0.06-0.05-1.26-1.13-2.78-0.51
			c-1.54,0.63-1.74,1.78-1.75,1.83C52.8,51.72,52.59,51.89,52.34,51.89z"/>
	</g>
	<g>
		<path class="st8" d="M54.88,49.53c-0.11,0-0.22-0.04-0.32-0.11c-0.21-0.17-0.25-0.49-0.07-0.7c1.25-1.54-0.02-2.99-0.07-3.05
			c-0.18-0.21-0.17-0.52,0.04-0.71c0.2-0.18,0.52-0.17,0.7,0.03c0.67,0.73,1.55,2.58,0.11,4.35C55.17,49.47,55.03,49.53,54.88,49.53
			z"/>
	</g>
	<g>
		<path class="st8" d="M47.46,54.11c-0.2,0-0.38-0.12-0.46-0.31c-0.03-0.08-0.8-1.99,0.15-3.62c0.65-1.11,1.9-1.79,3.73-2.03
			c0.26-0.04,0.52,0.16,0.56,0.43s-0.16,0.52-0.43,0.56c-1.5,0.19-2.51,0.71-2.99,1.53c-0.71,1.2-0.1,2.73-0.09,2.75
			c0.1,0.26-0.02,0.55-0.27,0.65C47.59,54.1,47.53,54.11,47.46,54.11z"/>
	</g>
	<g>
		<path class="st8" d="M47.24,51.09c-2.44,0-3.05-1.4-3.08-1.46c-0.11-0.25,0.01-0.55,0.27-0.65c0.25-0.1,0.54,0.01,0.65,0.26
			c0.03,0.05,0.47,0.93,2.4,0.85c0.26-0.01,0.51,0.2,0.52,0.48c0.01,0.28-0.2,0.51-0.48,0.52C47.43,51.09,47.33,51.09,47.24,51.09z"
			/>
	</g>
</g>
</svg>
