<?xml version="1.0" encoding="utf-8"?>
<!-- Generator: Adobe Illustrator 24.1.1, SVG Export Plug-In . SVG Version: 6.00 Build 0)  -->
<svg version="1.1" id="Capa_1" xmlns="http://www.w3.org/2000/svg" xmlns:xlink="http://www.w3.org/1999/xlink" x="0px" y="0px"
	 viewBox="0 0 290 362" style="enable-background:new 0 0 290 362;" xml:space="preserve">
<style type="text/css">
	.st0{fill:#FFFFFF;}
	.st1{fill:#007CC3;}
	.st2{fill:#D36F62;}
	.st3{fill:#F8C5B0;}
	.st4{fill:#F7A6A9;}
	.st5{fill:#F173AC;}
	.st6{clip-path:url(#SVGID_2_);}
	.st7{fill:#D9D9D9;}
	.st8{fill:#BFBFBF;}
	.st9{fill:#999999;}
	.st10{fill:#1A1A1A;}
	.st11{clip-path:url(#SVGID_4_);}
	.st12{fill:#F5A4C7;}
	.st13{fill:#F4C6DE;}
	.st14{opacity:0.5;fill:#D36F62;}
	.st15{fill:none;stroke:#F4C6DE;stroke-linecap:round;stroke-linejoin:round;stroke-miterlimit:10;}
</style>
<rect x="-16.37" y="-39.21" transform="matrix(-1 4.592181e-11 -4.592181e-11 -1 290 362)" class="st0" width="322.75" height="440.43"/>
<g>
	<g>
		<path class="st1" d="M118.18,136.88v4.25h6.45v3h-6.45v7.25h-3.15v-17.5h11.17v3H118.18z"/>
		<path class="st1" d="M130.53,140.05c0.77-1.02,1.9-1.67,3.22-1.67h1.47v3.12h-2.47c-0.88,0-1.47,0.6-1.47,1.48v8.4h-3.07v-12.75
			h1.42L130.53,140.05z"/>
		<path class="st1" d="M146.9,147.02c0,2.65-1.9,4.6-4.57,4.6h-0.78c-2.67,0-4.57-1.95-4.57-4.6v-4.05c0-2.65,1.9-4.6,4.57-4.6h0.78
			c2.67,0,4.57,1.95,4.57,4.6V147.02z M143.82,142.88c0-0.82-0.67-1.5-1.5-1.5h-0.78c-0.82,0-1.5,0.67-1.5,1.5v4.25
			c0,0.83,0.67,1.5,1.5,1.5h0.78c0.82,0,1.5-0.67,1.5-1.5V142.88z"/>
		<path class="st1" d="M154.97,151.37c-2.67,0-4.07-1.42-4.07-4.1v-5.72h-2.25v-2.92h2.25v-3l3.07-0.5v3.5h2.92v2.92h-2.92v5.57
			c0,0.83,0.42,1.25,1.25,1.25h1.67v3H154.97z"/>
		<path class="st1" d="M159.65,133.88h3.07v2.58h-3.07V133.88z M159.65,151.37v-12.75h3.07v12.75H159.65z"/>
		<path class="st1" d="M175.6,147.8c0,2.2-1.87,3.82-4.52,3.82h-0.75c-2.67,0-4.62-1.85-4.62-4.35v-0.08l3.07-0.25v0.47
			c0,0.78,0.55,1.33,1.38,1.33h1.15c0.7,0,1.2-0.42,1.2-1c0-2.3-6.65-0.33-6.65-5.55c0-2.2,1.87-3.82,4.52-3.82h0.45
			c2.65,0,4.62,1.8,4.62,4.3v0.08l-3.07,0.3v-0.47c0-0.77-0.58-1.32-1.38-1.32h-0.83c-0.72,0-1.25,0.45-1.25,1.05
			C168.93,144.5,175.6,142.6,175.6,147.8z"/>
		<path class="st1" d="M66.84,176.52l3.07,0.3v0.2c0,2.65-1.9,4.6-4.57,4.6h-0.78c-2.67,0-4.57-1.95-4.57-4.6v-4.05
			c0-2.65,1.9-4.6,4.57-4.6h0.78c2.67,0,4.57,1.95,4.57,4.6v0.2l-3.07,0.3v-0.6c0-0.82-0.67-1.5-1.5-1.5h-0.78
			c-0.82,0-1.5,0.67-1.5,1.5v4.25c0,0.83,0.67,1.5,1.5,1.5h0.78c0.82,0,1.5-0.67,1.5-1.5V176.52z"/>
		<path class="st1" d="M79.51,176.7l3.07,0.3v0.03c0,2.65-1.9,4.6-4.57,4.6h-0.78c-2.67,0-4.57-1.95-4.57-4.6v-4.05
			c0-2.65,1.9-4.6,4.57-4.6h0.78c2.67,0,4.57,1.95,4.57,4.6v2.6h-6.85v1.55c0,0.83,0.67,1.5,1.5,1.5h0.78c0.82,0,1.5-0.67,1.5-1.5
			V176.7z M75.74,173.65h3.77v-0.78c0-0.82-0.67-1.5-1.5-1.5h-0.78c-0.82,0-1.5,0.67-1.5,1.5V173.65z M78.46,166.88h-2.62l2-3.25h4
			L78.46,166.88z"/>
		<path class="st1" d="M87.91,170.05c0.77-1.02,1.9-1.67,3.22-1.67h1.47v3.12h-2.47c-0.88,0-1.47,0.6-1.47,1.48v8.4h-3.07v-12.75
			h1.42L87.91,170.05z"/>
		<path class="st1" d="M96.91,181.37l-3.8-12.75h3.22l2.55,9.55l0.05,0.65l0.05-0.65l2.55-9.55h3.22l-3.8,12.75H96.91z"/>
		<path class="st1" d="M106.51,163.88h3.07v2.58h-3.07V163.88z M106.51,181.37v-12.75h3.07v12.75H106.51z"/>
		<path class="st1" d="M119.44,176.52l3.07,0.3v0.2c0,2.65-1.9,4.6-4.57,4.6h-0.78c-2.67,0-4.57-1.95-4.57-4.6v-4.05
			c0-2.65,1.9-4.6,4.57-4.6h0.78c2.67,0,4.57,1.95,4.57,4.6v0.2l-3.07,0.3v-0.6c0-0.82-0.67-1.5-1.5-1.5h-0.78
			c-0.82,0-1.5,0.67-1.5,1.5v4.25c0,0.83,0.67,1.5,1.5,1.5h0.78c0.82,0,1.5-0.67,1.5-1.5V176.52z"/>
		<path class="st1" d="M135.19,177.02c0,2.65-1.9,4.6-4.57,4.6h-0.78c-2.67,0-4.57-1.95-4.57-4.6v-4.05c0-2.65,1.9-4.6,4.57-4.6
			h0.78c2.67,0,4.57,1.95,4.57,4.6V177.02z M132.11,172.88c0-0.82-0.67-1.5-1.5-1.5h-0.78c-0.82,0-1.5,0.67-1.5,1.5v4.25
			c0,0.83,0.67,1.5,1.5,1.5h0.78c0.82,0,1.5-0.67,1.5-1.5V172.88z"/>
		<path class="st1" d="M143.44,174.48v-2.92h5.42v2.92H143.44z"/>
		<path class="st1" d="M159.66,181.37l-3.8-12.75h3.22l2.55,9.55l0.05,0.65l0.05-0.65l2.55-9.55h3.22l-3.8,12.75H159.66z"/>
		<path class="st1" d="M176.59,180c-0.67,1-1.9,1.63-3.4,1.63h-0.05c-2.58,0-4.12-1.47-4.12-3.57v-0.5c0-2.1,1.55-3.52,4.12-3.52
			h2.67v-1.32c0-0.72-0.67-1.32-1.5-1.32h-0.6c-0.82,0-1.5,0.6-1.5,1.32v0.47l-3.07-0.3v-0.08c0-2.5,1.9-4.42,4.57-4.42h0.6
			c2.67,0,4.57,1.92,4.57,4.42v8.57h-1.42L176.59,180z M172.09,177.57c0,0.67,0.52,1.2,1.3,1.2h1.15c0.67,0,1.27-0.5,1.27-1.17v-1.3
			h-2.42c-0.78,0-1.3,0.53-1.3,1.2V177.57z"/>
		<path class="st1" d="M183.06,180.02c-0.67-0.42-1.05-1.17-1.05-2.15c0-0.88,0.3-1.58,0.87-2.07c-0.75-0.78-1.12-1.78-1.12-3v-0.07
			c0-2.5,1.82-4.35,4.5-4.35h0.4c1.32,0,2.35,0.48,3.1,1.4l0.75-1.15h1.42v4.17c0,2.5-1.8,4.35-4.45,4.35h-2.27
			c-0.43,0-0.73,0.3-0.73,0.72s0.3,0.7,0.73,0.7h2.37c2.52,0,4.1,1.7,4.1,3.9c0,2.2-1.57,3.9-4.1,3.9h-1.22c-2.52,0-4.1-1.7-4.1-3.9
			C182.26,181.52,182.54,180.7,183.06,180.02z M188.99,172.63c0-0.9-0.72-1.65-1.62-1.65h-1.03c-0.92,0-1.62,0.75-1.62,1.65v0.28
			c0,0.92,0.7,1.65,1.62,1.65h1.03c0.9,0,1.62-0.67,1.62-1.65V172.63z M188.89,182.37c0-0.6-0.45-1.1-1.33-1.1h-1.17
			c-0.87,0-1.32,0.5-1.32,1.1v0.2c0,0.62,0.45,1.1,1.32,1.1h1.17c0.88,0,1.33-0.48,1.33-1.1V182.37z"/>
		<path class="st1" d="M194.56,163.88h3.07v2.58h-3.07V163.88z M194.56,181.37v-12.75h3.07v12.75H194.56z"/>
		<path class="st1" d="M203.21,170.05c0.77-1.02,1.9-1.67,3.22-1.67h0.05c2.77,0,4.32,1.65,4.32,4.57v8.42h-3.07v-8.52
			c0-0.88-0.6-1.47-1.47-1.47h-0.82c-0.88,0-1.47,0.6-1.47,1.47v8.52h-3.07v-12.75h1.42L203.21,170.05z"/>
		<path class="st1" d="M221.26,180c-0.67,1-1.9,1.63-3.4,1.63h-0.05c-2.58,0-4.12-1.47-4.12-3.57v-0.5c0-2.1,1.55-3.52,4.12-3.52
			h2.67v-1.32c0-0.72-0.67-1.32-1.5-1.32h-0.6c-0.82,0-1.5,0.6-1.5,1.32v0.47l-3.07-0.3v-0.08c0-2.5,1.9-4.42,4.57-4.42h0.6
			c2.67,0,4.57,1.92,4.57,4.42v8.57h-1.42L221.26,180z M216.76,177.57c0,0.67,0.52,1.2,1.3,1.2h1.15c0.67,0,1.27-0.5,1.27-1.17v-1.3
			h-2.42c-0.78,0-1.3,0.53-1.3,1.2V177.57z"/>
		<path class="st1" d="M226.69,181.37v-17.5h3.07v17.5H226.69z"/>
		<g>
			<path d="M62.07,219.41v3.73h4.06v1.2h-4.06v3.84h4.54v1.2h-6v-11.17h6v1.2H62.07z"/>
		</g>
		<g>
			<path d="M70.12,229.17c-0.53-0.23-0.96-0.55-1.26-0.96c-0.31-0.41-0.48-0.88-0.51-1.42h1.5c0.04,0.44,0.25,0.79,0.62,1.07
				s0.85,0.42,1.45,0.42c0.55,0,0.99-0.12,1.31-0.37s0.48-0.55,0.48-0.93c0-0.38-0.17-0.67-0.51-0.86
				c-0.34-0.19-0.87-0.37-1.58-0.55c-0.65-0.17-1.18-0.34-1.59-0.52c-0.41-0.18-0.76-0.44-1.06-0.78c-0.29-0.35-0.44-0.8-0.44-1.37
				c0-0.45,0.13-0.86,0.4-1.23c0.27-0.37,0.65-0.67,1.14-0.89s1.05-0.33,1.68-0.33c0.97,0,1.75,0.25,2.35,0.74
				c0.6,0.49,0.92,1.16,0.96,2.02h-1.46c-0.03-0.46-0.22-0.83-0.55-1.1s-0.79-0.42-1.35-0.42c-0.52,0-0.94,0.11-1.25,0.34
				c-0.31,0.22-0.46,0.52-0.46,0.88c0,0.29,0.09,0.53,0.28,0.71s0.42,0.34,0.7,0.45c0.28,0.11,0.67,0.24,1.18,0.38
				c0.63,0.17,1.14,0.34,1.54,0.5s0.73,0.41,1.02,0.74c0.28,0.33,0.43,0.76,0.44,1.3c0,0.48-0.13,0.91-0.4,1.3s-0.64,0.69-1.13,0.9
				c-0.49,0.22-1.04,0.33-1.67,0.33C71.26,229.52,70.66,229.4,70.12,229.17z"/>
		</g>
		<g>
			<path d="M78.95,221.81v5.17c0,0.43,0.09,0.73,0.27,0.9c0.18,0.18,0.5,0.26,0.94,0.26h1.07v1.23h-1.31
				c-0.81,0-1.42-0.19-1.82-0.56c-0.41-0.37-0.61-0.99-0.61-1.84v-5.17h-1.14v-1.2h1.14v-2.21h1.46v2.21h2.29v1.2H78.95z"/>
		</g>
		<g>
			<path d="M90.78,220.61v8.77h-1.46v-1.3c-0.28,0.45-0.66,0.8-1.16,1.05c-0.5,0.25-1.04,0.38-1.64,0.38c-0.68,0-1.3-0.14-1.84-0.42
				s-0.97-0.71-1.29-1.27c-0.31-0.56-0.47-1.25-0.47-2.06v-5.14h1.44v4.94c0,0.86,0.22,1.53,0.66,1.99s1.03,0.7,1.79,0.7
				c0.78,0,1.39-0.24,1.84-0.72c0.45-0.48,0.67-1.18,0.67-2.1v-4.82H90.78z"/>
		</g>
		<g>
			<path d="M93.24,222.6c0.36-0.68,0.86-1.2,1.5-1.58c0.63-0.37,1.35-0.56,2.14-0.56c0.68,0,1.32,0.16,1.9,0.47
				c0.59,0.32,1.04,0.73,1.34,1.24v-4.64h1.47v11.84h-1.47v-1.65c-0.29,0.52-0.71,0.95-1.28,1.29s-1.23,0.5-1.98,0.5
				c-0.78,0-1.49-0.19-2.12-0.58c-0.63-0.38-1.13-0.92-1.5-1.62c-0.36-0.69-0.54-1.48-0.54-2.37
				C92.7,224.06,92.88,223.28,93.24,222.6z M99.72,223.25c-0.27-0.49-0.63-0.87-1.08-1.13s-0.95-0.39-1.5-0.39s-1.04,0.13-1.49,0.38
				c-0.45,0.26-0.81,0.63-1.07,1.12c-0.27,0.49-0.4,1.07-0.4,1.73c0,0.67,0.13,1.26,0.4,1.75s0.62,0.88,1.07,1.14
				c0.45,0.26,0.94,0.39,1.49,0.39s1.04-0.13,1.5-0.39c0.45-0.26,0.81-0.64,1.08-1.14s0.4-1.07,0.4-1.74
				C100.12,224.31,99.99,223.74,99.72,223.25z"/>
		</g>
		<g>
			<path d="M104.11,218.89c-0.19-0.19-0.29-0.43-0.29-0.7s0.1-0.51,0.29-0.7c0.19-0.19,0.43-0.29,0.7-0.29
				c0.27,0,0.49,0.1,0.68,0.29c0.19,0.19,0.28,0.43,0.28,0.7s-0.09,0.51-0.28,0.7c-0.19,0.19-0.41,0.29-0.68,0.29
				C104.53,219.18,104.3,219.09,104.11,218.89z M105.52,220.61v8.77h-1.46v-8.77H105.52z"/>
		</g>
		<g>
			<path d="M109.59,228.96c-0.67-0.37-1.19-0.9-1.57-1.59c-0.38-0.69-0.57-1.49-0.57-2.39c0-0.9,0.19-1.69,0.58-2.38
				c0.39-0.69,0.92-1.22,1.59-1.58c0.67-0.37,1.42-0.55,2.26-0.55s1.58,0.18,2.26,0.55c0.67,0.37,1.2,0.89,1.59,1.58
				s0.58,1.48,0.58,2.38c0,0.91-0.2,1.7-0.6,2.39c-0.4,0.69-0.94,1.22-1.62,1.59s-1.44,0.56-2.27,0.56
				C111,229.52,110.25,229.33,109.59,228.96z M113.29,227.87c0.46-0.25,0.83-0.61,1.11-1.1c0.28-0.49,0.42-1.09,0.42-1.79
				c0-0.7-0.14-1.3-0.42-1.79c-0.28-0.49-0.64-0.86-1.09-1.1c-0.45-0.24-0.93-0.36-1.46-0.36c-0.53,0-1.02,0.12-1.46,0.36
				s-0.8,0.61-1.06,1.1c-0.27,0.49-0.4,1.09-0.4,1.79c0,0.71,0.13,1.32,0.39,1.81c0.26,0.49,0.61,0.86,1.05,1.1s0.92,0.36,1.44,0.36
				S112.83,228.12,113.29,227.87z"/>
		</g>
		<g>
			<path d="M134.87,220.87c0.53,0.28,0.96,0.71,1.26,1.27c0.31,0.57,0.46,1.25,0.46,2.06v5.17h-1.44v-4.96
				c0-0.88-0.22-1.54-0.65-2.01c-0.43-0.46-1.02-0.7-1.75-0.7c-0.76,0-1.36,0.24-1.81,0.73c-0.45,0.49-0.67,1.19-0.67,2.1v4.83
				h-1.44v-4.96c0-0.88-0.22-1.54-0.65-2.01s-1.02-0.7-1.75-0.7c-0.76,0-1.36,0.24-1.81,0.73c-0.45,0.49-0.67,1.19-0.67,2.1v4.83
				h-1.46v-8.77h1.46v1.26c0.29-0.46,0.67-0.81,1.16-1.06c0.49-0.25,1.02-0.37,1.61-0.37c0.74,0,1.39,0.17,1.95,0.5
				c0.57,0.33,0.99,0.82,1.26,1.46c0.25-0.62,0.65-1.1,1.22-1.44c0.57-0.34,1.19-0.51,1.89-0.51
				C133.73,220.45,134.34,220.59,134.87,220.87z"/>
		</g>
		<g>
			<path d="M139.03,218.89c-0.19-0.19-0.29-0.43-0.29-0.7s0.1-0.51,0.29-0.7c0.19-0.19,0.43-0.29,0.7-0.29
				c0.27,0,0.49,0.1,0.68,0.29c0.19,0.19,0.28,0.43,0.28,0.7s-0.09,0.51-0.28,0.7c-0.19,0.19-0.41,0.29-0.68,0.29
				C139.46,219.18,139.23,219.09,139.03,218.89z M140.44,220.61v8.77h-1.46v-8.77H140.44z"/>
		</g>
		<g>
			<path d="M142.92,222.6c0.36-0.68,0.87-1.2,1.51-1.58c0.65-0.37,1.38-0.56,2.22-0.56c1.08,0,1.96,0.26,2.66,0.78
				c0.7,0.52,1.16,1.25,1.38,2.18h-1.57c-0.15-0.53-0.44-0.95-0.87-1.26c-0.43-0.31-0.97-0.46-1.61-0.46c-0.83,0-1.5,0.29-2.02,0.86
				c-0.51,0.57-0.77,1.38-0.77,2.42c0,1.06,0.26,1.87,0.77,2.45c0.51,0.58,1.18,0.86,2.02,0.86c0.64,0,1.17-0.15,1.6-0.45
				s0.72-0.73,0.88-1.28h1.57c-0.23,0.9-0.7,1.61-1.41,2.15c-0.7,0.54-1.58,0.81-2.64,0.81c-0.83,0-1.57-0.19-2.22-0.56
				s-1.15-0.9-1.51-1.58c-0.36-0.68-0.54-1.48-0.54-2.4C142.38,224.07,142.56,223.28,142.92,222.6z"/>
		</g>
		<g>
			<path d="M155.19,220.86c0.47-0.28,1.05-0.42,1.74-0.42v1.5h-0.38c-1.63,0-2.45,0.89-2.45,2.66v4.77h-1.46v-8.77h1.46v1.42
				C154.35,221.53,154.71,221.14,155.19,220.86z"/>
		</g>
		<g>
			<path d="M160.19,228.96c-0.67-0.37-1.19-0.9-1.57-1.59c-0.38-0.69-0.57-1.49-0.57-2.39c0-0.9,0.19-1.69,0.58-2.38
				c0.39-0.69,0.92-1.22,1.59-1.58c0.67-0.37,1.42-0.55,2.26-0.55s1.58,0.18,2.26,0.55c0.67,0.37,1.2,0.89,1.59,1.58
				s0.58,1.48,0.58,2.38c0,0.91-0.2,1.7-0.6,2.39c-0.4,0.69-0.94,1.22-1.62,1.59s-1.44,0.56-2.27,0.56
				C161.6,229.52,160.86,229.33,160.19,228.96z M163.9,227.87c0.46-0.25,0.83-0.61,1.11-1.1c0.28-0.49,0.42-1.09,0.42-1.79
				c0-0.7-0.14-1.3-0.42-1.79c-0.28-0.49-0.64-0.86-1.09-1.1c-0.45-0.24-0.93-0.36-1.46-0.36c-0.53,0-1.02,0.12-1.46,0.36
				s-0.8,0.61-1.06,1.1c-0.27,0.49-0.4,1.09-0.4,1.79c0,0.71,0.13,1.32,0.39,1.81c0.26,0.49,0.61,0.86,1.05,1.1s0.92,0.36,1.44,0.36
				S163.44,228.12,163.9,227.87z"/>
		</g>
		<g>
			<path d="M170.14,229.17c-0.53-0.23-0.96-0.55-1.26-0.96c-0.31-0.41-0.48-0.88-0.51-1.42h1.5c0.04,0.44,0.25,0.79,0.62,1.07
				s0.85,0.42,1.45,0.42c0.55,0,0.99-0.12,1.31-0.37s0.48-0.55,0.48-0.93c0-0.38-0.17-0.67-0.51-0.86
				c-0.34-0.19-0.87-0.37-1.58-0.55c-0.65-0.17-1.18-0.34-1.59-0.52c-0.41-0.18-0.76-0.44-1.06-0.78c-0.29-0.35-0.44-0.8-0.44-1.37
				c0-0.45,0.13-0.86,0.4-1.23c0.27-0.37,0.65-0.67,1.14-0.89s1.05-0.33,1.68-0.33c0.97,0,1.75,0.25,2.35,0.74
				c0.6,0.49,0.92,1.16,0.96,2.02h-1.46c-0.03-0.46-0.22-0.83-0.55-1.1s-0.79-0.42-1.35-0.42c-0.52,0-0.94,0.11-1.25,0.34
				c-0.31,0.22-0.46,0.52-0.46,0.88c0,0.29,0.09,0.53,0.28,0.71s0.42,0.34,0.7,0.45c0.28,0.11,0.67,0.24,1.18,0.38
				c0.63,0.17,1.14,0.34,1.54,0.5s0.73,0.41,1.02,0.74c0.28,0.33,0.43,0.76,0.44,1.3c0,0.48-0.13,0.91-0.4,1.3s-0.64,0.69-1.13,0.9
				c-0.49,0.22-1.04,0.33-1.67,0.33C171.27,229.52,170.67,229.4,170.14,229.17z"/>
		</g>
		<g>
			<path d="M177.19,222.6c0.36-0.68,0.87-1.2,1.51-1.58c0.65-0.37,1.38-0.56,2.22-0.56c1.08,0,1.96,0.26,2.66,0.78
				c0.7,0.52,1.16,1.25,1.38,2.18h-1.57c-0.15-0.53-0.44-0.95-0.87-1.26c-0.43-0.31-0.97-0.46-1.61-0.46c-0.83,0-1.5,0.29-2.02,0.86
				c-0.51,0.57-0.77,1.38-0.77,2.42c0,1.06,0.26,1.87,0.77,2.45c0.51,0.58,1.18,0.86,2.02,0.86c0.64,0,1.17-0.15,1.6-0.45
				s0.72-0.73,0.88-1.28h1.57c-0.23,0.9-0.7,1.61-1.41,2.15c-0.7,0.54-1.58,0.81-2.64,0.81c-0.83,0-1.57-0.19-2.22-0.56
				s-1.15-0.9-1.51-1.58c-0.36-0.68-0.54-1.48-0.54-2.4C176.65,224.07,176.83,223.28,177.19,222.6z"/>
		</g>
		<g>
			<path d="M188.5,228.96c-0.67-0.37-1.19-0.9-1.57-1.59c-0.38-0.69-0.57-1.49-0.57-2.39c0-0.9,0.19-1.69,0.58-2.38
				c0.39-0.69,0.92-1.22,1.59-1.58c0.67-0.37,1.42-0.55,2.26-0.55s1.58,0.18,2.26,0.55c0.67,0.37,1.2,0.89,1.59,1.58
				s0.58,1.48,0.58,2.38c0,0.91-0.2,1.7-0.6,2.39c-0.4,0.69-0.94,1.22-1.62,1.59s-1.44,0.56-2.27,0.56
				C189.91,229.52,189.16,229.33,188.5,228.96z M192.2,227.87c0.46-0.25,0.83-0.61,1.11-1.1c0.28-0.49,0.42-1.09,0.42-1.79
				c0-0.7-0.14-1.3-0.42-1.79c-0.28-0.49-0.64-0.86-1.09-1.1c-0.45-0.24-0.93-0.36-1.46-0.36c-0.53,0-1.02,0.12-1.46,0.36
				s-0.8,0.61-1.06,1.1c-0.27,0.49-0.4,1.09-0.4,1.79c0,0.71,0.13,1.32,0.39,1.81c0.26,0.49,0.61,0.86,1.05,1.1s0.92,0.36,1.44,0.36
				S191.74,228.12,192.2,227.87z M192.36,218.01l-3.41,1.82v-1.09l3.41-2V218.01z"/>
		</g>
		<g>
			<path d="M199.89,220.97c0.57-0.34,1.24-0.5,1.99-0.5c0.78,0,1.49,0.19,2.12,0.56c0.63,0.37,1.13,0.9,1.5,1.58
				c0.36,0.68,0.54,1.46,0.54,2.36c0,0.89-0.18,1.67-0.54,2.37s-0.86,1.23-1.5,1.62c-0.63,0.38-1.34,0.58-2.12,0.58
				c-0.75,0-1.41-0.17-1.98-0.5c-0.57-0.34-1.01-0.75-1.3-1.26v5.78h-1.46v-12.93h1.46v1.62
				C198.89,221.72,199.32,221.3,199.89,220.97z M204.15,223.23c-0.27-0.49-0.63-0.86-1.08-1.12c-0.45-0.26-0.95-0.38-1.5-0.38
				c-0.53,0-1.03,0.13-1.48,0.39c-0.45,0.26-0.82,0.64-1.09,1.14c-0.27,0.5-0.41,1.07-0.41,1.72c0,0.66,0.14,1.24,0.41,1.74
				c0.27,0.5,0.63,0.88,1.09,1.14c0.45,0.26,0.95,0.39,1.48,0.39c0.54,0,1.04-0.13,1.5-0.39c0.45-0.26,0.81-0.64,1.08-1.14
				s0.4-1.08,0.4-1.75C204.55,224.3,204.42,223.72,204.15,223.23z"/>
		</g>
		<g>
			<path d="M208.01,218.89c-0.19-0.19-0.29-0.43-0.29-0.7s0.1-0.51,0.29-0.7c0.19-0.19,0.43-0.29,0.7-0.29
				c0.27,0,0.49,0.1,0.68,0.29c0.19,0.19,0.28,0.43,0.28,0.7s-0.09,0.51-0.28,0.7c-0.19,0.19-0.41,0.29-0.68,0.29
				C208.43,219.18,208.2,219.09,208.01,218.89z M209.42,220.61v8.77h-1.46v-8.77H209.42z"/>
		</g>
		<g>
			<path d="M211.9,222.6c0.36-0.68,0.87-1.2,1.51-1.58c0.65-0.37,1.38-0.56,2.22-0.56c1.08,0,1.96,0.26,2.66,0.78
				c0.7,0.52,1.16,1.25,1.38,2.18h-1.57c-0.15-0.53-0.44-0.95-0.87-1.26c-0.43-0.31-0.97-0.46-1.61-0.46c-0.83,0-1.5,0.29-2.02,0.86
				c-0.51,0.57-0.77,1.38-0.77,2.42c0,1.06,0.26,1.87,0.77,2.45c0.51,0.58,1.18,0.86,2.02,0.86c0.64,0,1.17-0.15,1.6-0.45
				s0.72-0.73,0.88-1.28h1.57c-0.23,0.9-0.7,1.61-1.41,2.15c-0.7,0.54-1.58,0.81-2.64,0.81c-0.83,0-1.57-0.19-2.22-0.56
				s-1.15-0.9-1.51-1.58c-0.36-0.68-0.54-1.48-0.54-2.4C211.35,224.07,211.53,223.28,211.9,222.6z"/>
		</g>
		<g>
			<path d="M223.2,228.96c-0.67-0.37-1.19-0.9-1.57-1.59c-0.38-0.69-0.57-1.49-0.57-2.39c0-0.9,0.19-1.69,0.58-2.38
				c0.39-0.69,0.92-1.22,1.59-1.58c0.67-0.37,1.42-0.55,2.26-0.55s1.58,0.18,2.26,0.55c0.67,0.37,1.2,0.89,1.59,1.58
				s0.58,1.48,0.58,2.38c0,0.91-0.2,1.7-0.6,2.39c-0.4,0.69-0.94,1.22-1.62,1.59s-1.44,0.56-2.27,0.56
				C224.61,229.52,223.87,229.33,223.2,228.96z M226.9,227.87c0.46-0.25,0.83-0.61,1.11-1.1c0.28-0.49,0.42-1.09,0.42-1.79
				c0-0.7-0.14-1.3-0.42-1.79c-0.28-0.49-0.64-0.86-1.09-1.1c-0.45-0.24-0.93-0.36-1.46-0.36c-0.53,0-1.02,0.12-1.46,0.36
				s-0.8,0.61-1.06,1.1c-0.27,0.49-0.4,1.09-0.4,1.79c0,0.71,0.13,1.32,0.39,1.81c0.26,0.49,0.61,0.86,1.05,1.1s0.92,0.36,1.44,0.36
				S226.45,228.12,226.9,227.87z"/>
		</g>
		<g>
			<path d="M56.83,246.6c0.36-0.68,0.86-1.2,1.5-1.58c0.63-0.37,1.35-0.56,2.14-0.56c0.76,0,1.42,0.17,1.99,0.5
				c0.57,0.34,0.99,0.75,1.26,1.24v-1.6h1.47v12.93h-1.47v-5.78c-0.28,0.49-0.7,0.91-1.28,1.25c-0.58,0.34-1.25,0.51-2.02,0.51
				c-0.77,0-1.47-0.19-2.1-0.58c-0.63-0.38-1.13-0.92-1.49-1.62c-0.36-0.69-0.54-1.48-0.54-2.37
				C56.28,248.06,56.46,247.28,56.83,246.6z M63.31,247.25c-0.27-0.49-0.63-0.87-1.08-1.13s-0.95-0.39-1.5-0.39
				s-1.04,0.13-1.49,0.38c-0.45,0.26-0.81,0.63-1.07,1.12c-0.27,0.49-0.4,1.07-0.4,1.73c0,0.67,0.13,1.26,0.4,1.75
				s0.62,0.88,1.07,1.14c0.45,0.26,0.94,0.39,1.49,0.39s1.04-0.13,1.5-0.39c0.45-0.26,0.81-0.64,1.08-1.14s0.4-1.07,0.4-1.74
				C63.71,248.31,63.57,247.74,63.31,247.25z"/>
		</g>
		<g>
			<path d="M75.42,244.61v8.77h-1.46v-1.3c-0.28,0.45-0.66,0.8-1.16,1.05c-0.5,0.25-1.04,0.38-1.64,0.38c-0.68,0-1.3-0.14-1.84-0.42
				s-0.97-0.71-1.29-1.27c-0.31-0.56-0.47-1.25-0.47-2.06v-5.14H69v4.94c0,0.86,0.22,1.53,0.66,1.99s1.03,0.7,1.79,0.7
				c0.78,0,1.39-0.24,1.84-0.72c0.45-0.48,0.67-1.18,0.67-2.1v-4.82H75.42z"/>
		</g>
		<g>
			<path d="M85.83,249.53h-7.01c0.05,0.86,0.35,1.54,0.89,2.02c0.54,0.49,1.19,0.73,1.96,0.73c0.63,0,1.15-0.15,1.58-0.44
				c0.42-0.29,0.72-0.68,0.89-1.18h1.57c-0.23,0.84-0.7,1.53-1.41,2.06c-0.7,0.53-1.58,0.79-2.62,0.79c-0.83,0-1.58-0.19-2.23-0.56
				s-1.17-0.9-1.54-1.59c-0.37-0.69-0.56-1.49-0.56-2.39c0-0.91,0.18-1.7,0.54-2.38c0.36-0.68,0.87-1.21,1.53-1.58
				c0.66-0.37,1.41-0.55,2.26-0.55c0.83,0,1.57,0.18,2.21,0.54c0.64,0.36,1.13,0.86,1.48,1.5s0.52,1.35,0.52,2.15
				C85.88,248.93,85.87,249.22,85.83,249.53z M84.01,246.92c-0.25-0.4-0.58-0.7-1-0.91c-0.42-0.21-0.89-0.31-1.4-0.31
				c-0.74,0-1.36,0.23-1.88,0.7c-0.52,0.47-0.81,1.12-0.89,1.95h5.54C84.38,247.8,84.26,247.32,84.01,246.92z"/>
		</g>
		<g>
			<path d="M92.12,242.89c-0.19-0.19-0.29-0.43-0.29-0.7s0.1-0.51,0.29-0.7c0.19-0.19,0.43-0.29,0.7-0.29c0.27,0,0.49,0.1,0.68,0.29
				c0.19,0.19,0.28,0.43,0.28,0.7s-0.09,0.51-0.28,0.7c-0.19,0.19-0.41,0.29-0.68,0.29C92.55,243.18,92.31,243.09,92.12,242.89z
				 M93.53,244.61v8.77h-1.46v-8.77H93.53z"/>
		</g>
		<g>
			<path d="M96.01,246.6c0.36-0.68,0.86-1.2,1.5-1.58c0.63-0.37,1.35-0.56,2.14-0.56c0.68,0,1.32,0.16,1.9,0.47
				c0.59,0.32,1.04,0.73,1.34,1.24v-4.64h1.47v11.84h-1.47v-1.65c-0.29,0.52-0.71,0.95-1.28,1.29s-1.23,0.5-1.98,0.5
				c-0.78,0-1.49-0.19-2.12-0.58c-0.63-0.38-1.13-0.92-1.5-1.62c-0.36-0.69-0.54-1.48-0.54-2.37
				C95.47,248.06,95.65,247.28,96.01,246.6z M102.49,247.25c-0.27-0.49-0.63-0.87-1.08-1.13s-0.95-0.39-1.5-0.39
				s-1.04,0.13-1.49,0.38c-0.45,0.26-0.81,0.63-1.07,1.12c-0.27,0.49-0.4,1.07-0.4,1.73c0,0.67,0.13,1.26,0.4,1.75
				s0.62,0.88,1.07,1.14c0.45,0.26,0.94,0.39,1.49,0.39s1.04-0.13,1.5-0.39c0.45-0.26,0.81-0.64,1.08-1.14s0.4-1.07,0.4-1.74
				C102.89,248.31,102.76,247.74,102.49,247.25z"/>
		</g>
		<g>
			<path d="M114.78,249.53h-7.01c0.05,0.86,0.35,1.54,0.89,2.02c0.54,0.49,1.19,0.73,1.96,0.73c0.63,0,1.15-0.15,1.58-0.44
				c0.42-0.29,0.72-0.68,0.89-1.18h1.57c-0.23,0.84-0.7,1.53-1.41,2.06c-0.7,0.53-1.58,0.79-2.62,0.79c-0.83,0-1.58-0.19-2.23-0.56
				s-1.17-0.9-1.54-1.59c-0.37-0.69-0.56-1.49-0.56-2.39c0-0.91,0.18-1.7,0.54-2.38c0.36-0.68,0.87-1.21,1.53-1.58
				c0.66-0.37,1.41-0.55,2.26-0.55c0.83,0,1.57,0.18,2.21,0.54c0.64,0.36,1.13,0.86,1.48,1.5s0.52,1.35,0.52,2.15
				C114.83,248.93,114.81,249.22,114.78,249.53z M112.95,246.92c-0.25-0.4-0.58-0.7-1-0.91c-0.42-0.21-0.89-0.31-1.4-0.31
				c-0.74,0-1.36,0.23-1.88,0.7c-0.52,0.47-0.81,1.12-0.89,1.95h5.54C113.32,247.8,113.2,247.32,112.95,246.92z"/>
		</g>
		<g>
			<path d="M123.61,245.41c0.66,0.65,0.99,1.58,0.99,2.79v5.17h-1.44v-4.96c0-0.88-0.22-1.54-0.66-2.01s-1.04-0.7-1.79-0.7
				c-0.77,0-1.38,0.24-1.83,0.72c-0.45,0.48-0.68,1.18-0.68,2.1v4.85h-1.46v-8.77h1.46v1.25c0.29-0.45,0.68-0.79,1.18-1.04
				c0.5-0.25,1.04-0.37,1.64-0.37C122.08,244.45,122.95,244.77,123.61,245.41z"/>
		</g>
		<g>
			<path d="M128.76,245.81v5.17c0,0.43,0.09,0.73,0.27,0.9c0.18,0.18,0.5,0.26,0.94,0.26h1.07v1.23h-1.31
				c-0.81,0-1.42-0.19-1.82-0.56c-0.41-0.37-0.61-0.99-0.61-1.84v-5.17h-1.14v-1.2h1.14v-2.21h1.46v2.21h2.29v1.2H128.76z"/>
		</g>
		<g>
			<path d="M132.86,242.89c-0.19-0.19-0.29-0.43-0.29-0.7s0.1-0.51,0.29-0.7c0.19-0.19,0.43-0.29,0.7-0.29
				c0.27,0,0.49,0.1,0.68,0.29c0.19,0.19,0.28,0.43,0.28,0.7s-0.09,0.51-0.28,0.7c-0.19,0.19-0.41,0.29-0.68,0.29
				C133.28,243.18,133.05,243.09,132.86,242.89z M134.27,244.61v8.77h-1.46v-8.77H134.27z"/>
		</g>
		<g>
			<path d="M140.31,245.81h-1.84v7.57h-1.46v-7.57h-1.14v-1.2h1.14v-0.62c0-0.98,0.25-1.7,0.76-2.15s1.32-0.68,2.44-0.68v1.22
				c-0.64,0-1.09,0.13-1.35,0.38c-0.26,0.25-0.39,0.66-0.39,1.24v0.62h1.84V245.81z"/>
		</g>
		<g>
			<path d="M142.06,242.89c-0.19-0.19-0.29-0.43-0.29-0.7s0.1-0.51,0.29-0.7c0.19-0.19,0.43-0.29,0.7-0.29
				c0.27,0,0.49,0.1,0.68,0.29c0.19,0.19,0.28,0.43,0.28,0.7s-0.09,0.51-0.28,0.7c-0.19,0.19-0.41,0.29-0.68,0.29
				C142.48,243.18,142.25,243.09,142.06,242.89z M143.47,244.61v8.77h-1.46v-8.77H143.47z"/>
		</g>
		<g>
			<path d="M145.95,246.6c0.36-0.68,0.87-1.2,1.51-1.58c0.65-0.37,1.38-0.56,2.22-0.56c1.08,0,1.96,0.26,2.66,0.78
				c0.7,0.52,1.16,1.25,1.38,2.18h-1.57c-0.15-0.53-0.44-0.95-0.87-1.26c-0.43-0.31-0.97-0.46-1.61-0.46c-0.83,0-1.5,0.29-2.02,0.86
				c-0.51,0.57-0.77,1.38-0.77,2.42c0,1.06,0.26,1.87,0.77,2.45c0.51,0.58,1.18,0.86,2.02,0.86c0.64,0,1.17-0.15,1.6-0.45
				s0.72-0.73,0.88-1.28h1.57c-0.23,0.9-0.7,1.61-1.41,2.15c-0.7,0.54-1.58,0.81-2.64,0.81c-0.83,0-1.57-0.19-2.22-0.56
				s-1.15-0.9-1.51-1.58c-0.36-0.68-0.54-1.48-0.54-2.4C145.4,248.07,145.58,247.28,145.95,246.6z"/>
		</g>
		<g>
			<path d="M155.66,246.6c0.36-0.68,0.86-1.2,1.5-1.58c0.63-0.37,1.34-0.56,2.12-0.56c0.77,0,1.43,0.17,2,0.5
				c0.57,0.33,0.99,0.75,1.26,1.25v-1.6h1.47v8.77h-1.47v-1.63c-0.29,0.51-0.72,0.94-1.29,1.27c-0.57,0.34-1.24,0.5-1.99,0.5
				c-0.78,0-1.48-0.19-2.11-0.58c-0.63-0.38-1.13-0.92-1.49-1.62c-0.36-0.69-0.54-1.48-0.54-2.37
				C155.11,248.06,155.29,247.28,155.66,246.6z M162.14,247.25c-0.27-0.49-0.63-0.87-1.08-1.13s-0.95-0.39-1.5-0.39
				s-1.04,0.13-1.49,0.38c-0.45,0.26-0.81,0.63-1.07,1.12c-0.27,0.49-0.4,1.07-0.4,1.73c0,0.67,0.13,1.26,0.4,1.75
				s0.62,0.88,1.07,1.14c0.45,0.26,0.94,0.39,1.49,0.39s1.04-0.13,1.5-0.39c0.45-0.26,0.81-0.64,1.08-1.14s0.4-1.07,0.4-1.74
				C162.54,248.31,162.4,247.74,162.14,247.25z"/>
		</g>
		<g>
			<path d="M172.2,241.53v11.84h-1.46v-11.84H172.2z"/>
		</g>
		<g>
			<path d="M182.63,249.53h-7.01c0.05,0.86,0.35,1.54,0.89,2.02c0.54,0.49,1.19,0.73,1.96,0.73c0.63,0,1.15-0.15,1.58-0.44
				c0.42-0.29,0.72-0.68,0.89-1.18h1.57c-0.23,0.84-0.7,1.53-1.41,2.06c-0.7,0.53-1.58,0.79-2.62,0.79c-0.83,0-1.58-0.19-2.23-0.56
				s-1.17-0.9-1.54-1.59c-0.37-0.69-0.56-1.49-0.56-2.39c0-0.91,0.18-1.7,0.54-2.38c0.36-0.68,0.87-1.21,1.53-1.58
				c0.66-0.37,1.41-0.55,2.26-0.55c0.83,0,1.57,0.18,2.21,0.54c0.64,0.36,1.13,0.86,1.48,1.5s0.52,1.35,0.52,2.15
				C182.68,248.93,182.66,249.22,182.63,249.53z M180.81,246.92c-0.25-0.4-0.58-0.7-1-0.91c-0.42-0.21-0.89-0.31-1.4-0.31
				c-0.74,0-1.36,0.23-1.88,0.7c-0.52,0.47-0.81,1.12-0.89,1.95h5.54C181.18,247.8,181.05,247.32,180.81,246.92z"/>
		</g>
		<g>
			<path d="M185.9,253.17c-0.53-0.23-0.96-0.55-1.26-0.96c-0.31-0.41-0.48-0.88-0.51-1.42h1.5c0.04,0.44,0.25,0.79,0.62,1.07
				s0.85,0.42,1.45,0.42c0.55,0,0.99-0.12,1.31-0.37s0.48-0.55,0.48-0.93c0-0.38-0.17-0.67-0.51-0.86
				c-0.34-0.19-0.87-0.37-1.58-0.55c-0.65-0.17-1.18-0.34-1.59-0.52c-0.41-0.18-0.76-0.44-1.06-0.78c-0.29-0.35-0.44-0.8-0.44-1.37
				c0-0.45,0.13-0.86,0.4-1.23c0.27-0.37,0.65-0.67,1.14-0.89s1.05-0.33,1.68-0.33c0.97,0,1.75,0.25,2.35,0.74
				c0.6,0.49,0.92,1.16,0.96,2.02h-1.46c-0.03-0.46-0.22-0.83-0.55-1.1s-0.79-0.42-1.35-0.42c-0.52,0-0.94,0.11-1.25,0.34
				c-0.31,0.22-0.46,0.52-0.46,0.88c0,0.29,0.09,0.53,0.28,0.71s0.42,0.34,0.7,0.45c0.28,0.11,0.67,0.24,1.18,0.38
				c0.63,0.17,1.14,0.34,1.54,0.5s0.73,0.41,1.02,0.74c0.28,0.33,0.43,0.76,0.44,1.3c0,0.48-0.13,0.91-0.4,1.3s-0.64,0.69-1.13,0.9
				c-0.49,0.22-1.04,0.33-1.67,0.33C187.03,253.52,186.43,253.4,185.9,253.17z"/>
		</g>
		<g>
			<path d="M193,242.89c-0.19-0.19-0.29-0.43-0.29-0.7s0.1-0.51,0.29-0.7c0.19-0.19,0.43-0.29,0.7-0.29c0.27,0,0.49,0.1,0.68,0.29
				c0.19,0.19,0.28,0.43,0.28,0.7s-0.09,0.51-0.28,0.7c-0.19,0.19-0.41,0.29-0.68,0.29C193.43,243.18,193.19,243.09,193,242.89z
				 M194.41,244.61v8.77h-1.46v-8.77H194.41z"/>
		</g>
		<g>
			<path d="M198.48,252.96c-0.67-0.37-1.19-0.9-1.57-1.59c-0.38-0.69-0.57-1.49-0.57-2.39c0-0.9,0.19-1.69,0.58-2.38
				c0.39-0.69,0.92-1.22,1.59-1.58c0.67-0.37,1.42-0.55,2.26-0.55s1.58,0.18,2.26,0.55c0.67,0.37,1.2,0.89,1.59,1.58
				s0.58,1.48,0.58,2.38c0,0.91-0.2,1.7-0.6,2.39c-0.4,0.69-0.94,1.22-1.62,1.59s-1.44,0.56-2.27,0.56
				C199.89,253.52,199.14,253.33,198.48,252.96z M202.18,251.87c0.46-0.25,0.83-0.61,1.11-1.1c0.28-0.49,0.42-1.09,0.42-1.79
				c0-0.7-0.14-1.3-0.42-1.79c-0.28-0.49-0.64-0.86-1.09-1.1c-0.45-0.24-0.93-0.36-1.46-0.36c-0.53,0-1.02,0.12-1.46,0.36
				s-0.8,0.61-1.06,1.1c-0.27,0.49-0.4,1.09-0.4,1.79c0,0.71,0.13,1.32,0.39,1.81c0.26,0.49,0.61,0.86,1.05,1.1s0.92,0.36,1.44,0.36
				S201.72,252.12,202.18,251.87z"/>
		</g>
		<g>
			<path d="M213.99,245.41c0.66,0.65,0.99,1.58,0.99,2.79v5.17h-1.44v-4.96c0-0.88-0.22-1.54-0.66-2.01s-1.04-0.7-1.79-0.7
				c-0.77,0-1.38,0.24-1.83,0.72c-0.45,0.48-0.68,1.18-0.68,2.1v4.85h-1.46v-8.77h1.46v1.25c0.29-0.45,0.68-0.79,1.18-1.04
				c0.5-0.25,1.04-0.37,1.64-0.37C212.47,244.45,213.33,244.77,213.99,245.41z"/>
		</g>
		<g>
			<path d="M225.32,249.53h-7.01c0.05,0.86,0.35,1.54,0.89,2.02c0.54,0.49,1.19,0.73,1.96,0.73c0.63,0,1.15-0.15,1.58-0.44
				c0.42-0.29,0.72-0.68,0.89-1.18h1.57c-0.23,0.84-0.7,1.53-1.41,2.06c-0.7,0.53-1.58,0.79-2.62,0.79c-0.83,0-1.58-0.19-2.23-0.56
				s-1.17-0.9-1.54-1.59c-0.37-0.69-0.56-1.49-0.56-2.39c0-0.91,0.18-1.7,0.54-2.38c0.36-0.68,0.87-1.21,1.53-1.58
				c0.66-0.37,1.41-0.55,2.26-0.55c0.83,0,1.57,0.18,2.21,0.54c0.64,0.36,1.13,0.86,1.48,1.5s0.52,1.35,0.52,2.15
				C225.37,248.93,225.35,249.22,225.32,249.53z M223.5,246.92c-0.25-0.4-0.58-0.7-1-0.91c-0.42-0.21-0.89-0.31-1.4-0.31
				c-0.74,0-1.36,0.23-1.88,0.7c-0.52,0.47-0.81,1.12-0.89,1.95h5.54C223.86,247.8,223.74,247.32,223.5,246.92z"/>
		</g>
		<g>
			<path d="M228.58,253.17c-0.53-0.23-0.96-0.55-1.26-0.96c-0.31-0.41-0.48-0.88-0.51-1.42h1.5c0.04,0.44,0.25,0.79,0.62,1.07
				s0.85,0.42,1.45,0.42c0.55,0,0.99-0.12,1.31-0.37s0.48-0.55,0.48-0.93c0-0.38-0.17-0.67-0.51-0.86
				c-0.34-0.19-0.87-0.37-1.58-0.55c-0.65-0.17-1.18-0.34-1.59-0.52c-0.41-0.18-0.76-0.44-1.06-0.78c-0.29-0.35-0.44-0.8-0.44-1.37
				c0-0.45,0.13-0.86,0.4-1.23c0.27-0.37,0.65-0.67,1.14-0.89s1.05-0.33,1.68-0.33c0.97,0,1.75,0.25,2.35,0.74
				c0.6,0.49,0.92,1.16,0.96,2.02h-1.46c-0.03-0.46-0.22-0.83-0.55-1.1s-0.79-0.42-1.35-0.42c-0.52,0-0.94,0.11-1.25,0.34
				c-0.31,0.22-0.46,0.52-0.46,0.88c0,0.29,0.09,0.53,0.28,0.71s0.42,0.34,0.7,0.45c0.28,0.11,0.67,0.24,1.18,0.38
				c0.63,0.17,1.14,0.34,1.54,0.5s0.73,0.41,1.02,0.74c0.28,0.33,0.43,0.76,0.44,1.3c0,0.48-0.13,0.91-0.4,1.3s-0.64,0.69-1.13,0.9
				c-0.49,0.22-1.04,0.33-1.67,0.33C229.72,253.52,229.12,253.4,228.58,253.17z"/>
		</g>
		<g>
			<path d="M43.51,266.89c-0.19-0.19-0.29-0.43-0.29-0.7s0.1-0.51,0.29-0.7c0.19-0.19,0.43-0.29,0.7-0.29c0.27,0,0.49,0.1,0.68,0.29
				c0.19,0.19,0.28,0.43,0.28,0.7s-0.09,0.51-0.28,0.7c-0.19,0.19-0.41,0.29-0.68,0.29C43.94,267.18,43.71,267.09,43.51,266.89z
				 M44.92,268.61v8.77h-1.46v-8.77H44.92z"/>
		</g>
		<g>
			<path d="M54.27,269.41c0.66,0.65,0.99,1.58,0.99,2.79v5.17h-1.44v-4.96c0-0.88-0.22-1.54-0.66-2.01s-1.04-0.7-1.79-0.7
				c-0.77,0-1.38,0.24-1.83,0.72c-0.45,0.48-0.68,1.18-0.68,2.1v4.85H47.4v-8.77h1.46v1.25c0.29-0.45,0.68-0.79,1.18-1.04
				c0.5-0.25,1.04-0.37,1.64-0.37C52.74,268.45,53.6,268.77,54.27,269.41z"/>
		</g>
		<g>
			<path d="M61.21,269.81h-1.84v7.57h-1.46v-7.57h-1.14v-1.2h1.14v-0.62c0-0.98,0.25-1.7,0.76-2.15s1.32-0.68,2.44-0.68v1.22
				c-0.64,0-1.09,0.13-1.35,0.38c-0.26,0.25-0.39,0.66-0.39,1.24v0.62h1.84V269.81z"/>
		</g>
		<g>
			<path d="M64.36,265.53v11.84h-1.46v-11.84H64.36z"/>
		</g>
		<g>
			<path d="M66.84,270.6c0.36-0.68,0.86-1.2,1.5-1.58c0.63-0.37,1.34-0.56,2.12-0.56c0.77,0,1.43,0.17,2,0.5
				c0.57,0.33,0.99,0.75,1.26,1.25v-1.6h1.47v8.77h-1.47v-1.63c-0.29,0.51-0.72,0.94-1.29,1.27c-0.57,0.34-1.24,0.5-1.99,0.5
				c-0.78,0-1.48-0.19-2.11-0.58c-0.63-0.38-1.13-0.92-1.49-1.62c-0.36-0.69-0.54-1.48-0.54-2.37
				C66.3,272.06,66.48,271.28,66.84,270.6z M73.32,271.25c-0.27-0.49-0.63-0.87-1.08-1.13s-0.95-0.39-1.5-0.39s-1.04,0.13-1.49,0.38
				c-0.45,0.26-0.81,0.63-1.07,1.12c-0.27,0.49-0.4,1.07-0.4,1.73c0,0.67,0.13,1.26,0.4,1.75s0.62,0.88,1.07,1.14
				c0.45,0.26,0.94,0.39,1.49,0.39s1.04-0.13,1.5-0.39c0.45-0.26,0.81-0.64,1.08-1.14s0.4-1.07,0.4-1.74
				C73.72,272.31,73.59,271.74,73.32,271.25z"/>
		</g>
		<g>
			<path d="M90.02,268.87c0.53,0.28,0.96,0.71,1.26,1.27c0.31,0.57,0.46,1.25,0.46,2.06v5.17h-1.44v-4.96
				c0-0.88-0.22-1.54-0.65-2.01c-0.43-0.46-1.02-0.7-1.75-0.7c-0.76,0-1.36,0.24-1.81,0.73c-0.45,0.49-0.67,1.19-0.67,2.1v4.83
				h-1.44v-4.96c0-0.88-0.22-1.54-0.65-2.01s-1.02-0.7-1.75-0.7c-0.76,0-1.36,0.24-1.81,0.73c-0.45,0.49-0.67,1.19-0.67,2.1v4.83
				h-1.46v-8.77h1.46v1.26c0.29-0.46,0.67-0.81,1.16-1.06c0.49-0.25,1.02-0.37,1.61-0.37c0.74,0,1.39,0.17,1.95,0.5
				c0.57,0.33,0.99,0.82,1.26,1.46c0.25-0.62,0.65-1.1,1.22-1.44c0.57-0.34,1.19-0.51,1.89-0.51
				C88.88,268.45,89.49,268.59,90.02,268.87z"/>
		</g>
		<g>
			<path d="M94.14,270.6c0.36-0.68,0.86-1.2,1.5-1.58c0.63-0.37,1.34-0.56,2.12-0.56c0.77,0,1.43,0.17,2,0.5
				c0.57,0.33,0.99,0.75,1.26,1.25v-1.6h1.47v8.77h-1.47v-1.63c-0.29,0.51-0.72,0.94-1.29,1.27c-0.57,0.34-1.24,0.5-1.99,0.5
				c-0.78,0-1.48-0.19-2.11-0.58c-0.63-0.38-1.13-0.92-1.49-1.62c-0.36-0.69-0.54-1.48-0.54-2.37
				C93.59,272.06,93.77,271.28,94.14,270.6z M100.62,271.25c-0.27-0.49-0.63-0.87-1.08-1.13s-0.95-0.39-1.5-0.39
				s-1.04,0.13-1.49,0.38c-0.45,0.26-0.81,0.63-1.07,1.12c-0.27,0.49-0.4,1.07-0.4,1.73c0,0.67,0.13,1.26,0.4,1.75
				s0.62,0.88,1.07,1.14c0.45,0.26,0.94,0.39,1.49,0.39s1.04-0.13,1.5-0.39c0.45-0.26,0.81-0.64,1.08-1.14s0.4-1.07,0.4-1.74
				C101.02,272.31,100.88,271.74,100.62,271.25z"/>
		</g>
		<g>
			<path d="M106.73,269.81v5.17c0,0.43,0.09,0.73,0.27,0.9c0.18,0.18,0.5,0.26,0.94,0.26h1.07v1.23h-1.31
				c-0.81,0-1.42-0.19-1.82-0.56c-0.41-0.37-0.61-0.99-0.61-1.84v-5.17h-1.14v-1.2h1.14v-2.21h1.46v2.21h2.29v1.2H106.73z"/>
		</g>
		<g>
			<path d="M112.37,276.96c-0.67-0.37-1.19-0.9-1.57-1.59c-0.38-0.69-0.57-1.49-0.57-2.39c0-0.9,0.19-1.69,0.58-2.38
				c0.39-0.69,0.92-1.22,1.59-1.58c0.67-0.37,1.42-0.55,2.26-0.55s1.58,0.18,2.26,0.55c0.67,0.37,1.2,0.89,1.59,1.58
				s0.58,1.48,0.58,2.38c0,0.91-0.2,1.7-0.6,2.39c-0.4,0.69-0.94,1.22-1.62,1.59s-1.44,0.56-2.27,0.56
				C113.78,277.52,113.04,277.33,112.37,276.96z M116.07,275.87c0.46-0.25,0.83-0.61,1.11-1.1c0.28-0.49,0.42-1.09,0.42-1.79
				c0-0.7-0.14-1.3-0.42-1.79c-0.28-0.49-0.64-0.86-1.09-1.1c-0.45-0.24-0.93-0.36-1.46-0.36c-0.53,0-1.02,0.12-1.46,0.36
				s-0.8,0.61-1.06,1.1c-0.27,0.49-0.4,1.09-0.4,1.79c0,0.71,0.13,1.32,0.39,1.81c0.26,0.49,0.61,0.86,1.05,1.1s0.92,0.36,1.44,0.36
				S115.61,276.12,116.07,275.87z"/>
		</g>
		<g>
			<path d="M123.57,268.86c0.47-0.28,1.05-0.42,1.74-0.42v1.5h-0.38c-1.63,0-2.45,0.89-2.45,2.66v4.77h-1.46v-8.77h1.46v1.42
				C122.73,269.53,123.1,269.14,123.57,268.86z"/>
		</g>
		<g>
			<path d="M127.03,266.89c-0.19-0.19-0.29-0.43-0.29-0.7s0.1-0.51,0.29-0.7c0.19-0.19,0.43-0.29,0.7-0.29
				c0.27,0,0.49,0.1,0.68,0.29c0.19,0.19,0.28,0.43,0.28,0.7s-0.09,0.51-0.28,0.7c-0.19,0.19-0.41,0.29-0.68,0.29
				C127.46,267.18,127.23,267.09,127.03,266.89z M128.44,268.61v8.77h-1.46v-8.77H128.44z"/>
		</g>
		<g>
			<path d="M130.92,270.6c0.36-0.68,0.86-1.2,1.5-1.58c0.63-0.37,1.34-0.56,2.12-0.56c0.77,0,1.43,0.17,2,0.5
				c0.57,0.33,0.99,0.75,1.26,1.25v-1.6h1.47v8.77h-1.47v-1.63c-0.29,0.51-0.72,0.94-1.29,1.27c-0.57,0.34-1.24,0.5-1.99,0.5
				c-0.78,0-1.48-0.19-2.11-0.58c-0.63-0.38-1.13-0.92-1.49-1.62c-0.36-0.69-0.54-1.48-0.54-2.37
				C130.38,272.06,130.56,271.28,130.92,270.6z M137.4,271.25c-0.27-0.49-0.63-0.87-1.08-1.13s-0.95-0.39-1.5-0.39
				s-1.04,0.13-1.49,0.38c-0.45,0.26-0.81,0.63-1.07,1.12c-0.27,0.49-0.4,1.07-0.4,1.73c0,0.67,0.13,1.26,0.4,1.75
				s0.62,0.88,1.07,1.14c0.45,0.26,0.94,0.39,1.49,0.39s1.04-0.13,1.5-0.39c0.45-0.26,0.81-0.64,1.08-1.14s0.4-1.07,0.4-1.74
				C137.8,272.31,137.67,271.74,137.4,271.25z"/>
		</g>
		<g>
			<path d="M143.03,277.17c-0.53-0.23-0.96-0.55-1.26-0.96c-0.31-0.41-0.48-0.88-0.51-1.42h1.5c0.04,0.44,0.25,0.79,0.62,1.07
				s0.85,0.42,1.45,0.42c0.55,0,0.99-0.12,1.31-0.37s0.48-0.55,0.48-0.93c0-0.38-0.17-0.67-0.51-0.86
				c-0.34-0.19-0.87-0.37-1.58-0.55c-0.65-0.17-1.18-0.34-1.59-0.52c-0.41-0.18-0.76-0.44-1.06-0.78c-0.29-0.35-0.44-0.8-0.44-1.37
				c0-0.45,0.13-0.86,0.4-1.23c0.27-0.37,0.65-0.67,1.14-0.89s1.05-0.33,1.68-0.33c0.97,0,1.75,0.25,2.35,0.74
				c0.6,0.49,0.92,1.16,0.96,2.02h-1.46c-0.03-0.46-0.22-0.83-0.55-1.1s-0.79-0.42-1.35-0.42c-0.52,0-0.94,0.11-1.25,0.34
				c-0.31,0.22-0.46,0.52-0.46,0.88c0,0.29,0.09,0.53,0.28,0.71s0.42,0.34,0.7,0.45c0.28,0.11,0.67,0.24,1.18,0.38
				c0.63,0.17,1.14,0.34,1.54,0.5s0.73,0.41,1.02,0.74c0.28,0.33,0.43,0.76,0.44,1.3c0,0.48-0.13,0.91-0.4,1.3s-0.64,0.69-1.13,0.9
				c-0.49,0.22-1.04,0.33-1.67,0.33C144.17,277.52,143.57,277.4,143.03,277.17z"/>
		</g>
		<g>
			<path d="M151.59,275.36l-1.79,4.3h-0.98l1.17-4.3H151.59z"/>
		</g>
		<g>
			<path d="M157.58,266.89c-0.19-0.19-0.29-0.43-0.29-0.7s0.1-0.51,0.29-0.7c0.19-0.19,0.43-0.29,0.7-0.29
				c0.27,0,0.49,0.1,0.68,0.29c0.19,0.19,0.28,0.43,0.28,0.7s-0.09,0.51-0.28,0.7c-0.19,0.19-0.41,0.29-0.68,0.29
				C158,267.18,157.77,267.09,157.58,266.89z M158.98,268.61v8.77h-1.46v-8.77H158.98z"/>
		</g>
		<g>
			<path d="M168.33,269.41c0.66,0.65,0.99,1.58,0.99,2.79v5.17h-1.44v-4.96c0-0.88-0.22-1.54-0.66-2.01s-1.04-0.7-1.79-0.7
				c-0.77,0-1.38,0.24-1.83,0.72c-0.45,0.48-0.68,1.18-0.68,2.1v4.85h-1.46v-8.77h1.46v1.25c0.29-0.45,0.68-0.79,1.18-1.04
				c0.5-0.25,1.04-0.37,1.64-0.37C166.8,268.45,167.67,268.77,168.33,269.41z"/>
		</g>
		<g>
			<path d="M175.27,269.81h-1.84v7.57h-1.46v-7.57h-1.14v-1.2h1.14v-0.62c0-0.98,0.25-1.7,0.76-2.15s1.32-0.68,2.44-0.68v1.22
				c-0.64,0-1.09,0.13-1.35,0.38c-0.26,0.25-0.39,0.66-0.39,1.24v0.62h1.84V269.81z"/>
		</g>
		<g>
			<path d="M184.92,273.53h-7.01c0.05,0.86,0.35,1.54,0.89,2.02c0.54,0.49,1.19,0.73,1.96,0.73c0.63,0,1.15-0.15,1.58-0.44
				c0.42-0.29,0.72-0.68,0.89-1.18h1.57c-0.23,0.84-0.7,1.53-1.41,2.06c-0.7,0.53-1.58,0.79-2.62,0.79c-0.83,0-1.58-0.19-2.23-0.56
				s-1.17-0.9-1.54-1.59c-0.37-0.69-0.56-1.49-0.56-2.39c0-0.91,0.18-1.7,0.54-2.38c0.36-0.68,0.87-1.21,1.53-1.58
				c0.66-0.37,1.41-0.55,2.26-0.55c0.83,0,1.57,0.18,2.21,0.54c0.64,0.36,1.13,0.86,1.48,1.5s0.52,1.35,0.52,2.15
				C184.97,272.93,184.95,273.22,184.92,273.53z M183.1,270.92c-0.25-0.4-0.58-0.7-1-0.91c-0.42-0.21-0.89-0.31-1.4-0.31
				c-0.74,0-1.36,0.23-1.88,0.7c-0.52,0.47-0.81,1.12-0.89,1.95h5.54C183.46,271.8,183.34,271.32,183.1,270.92z"/>
		</g>
		<g>
			<path d="M186.89,270.6c0.36-0.68,0.87-1.2,1.51-1.58c0.65-0.37,1.38-0.56,2.22-0.56c1.08,0,1.96,0.26,2.66,0.78
				c0.7,0.52,1.16,1.25,1.38,2.18h-1.57c-0.15-0.53-0.44-0.95-0.87-1.26c-0.43-0.31-0.97-0.46-1.61-0.46c-0.83,0-1.5,0.29-2.02,0.86
				c-0.51,0.57-0.77,1.38-0.77,2.42c0,1.06,0.26,1.87,0.77,2.45c0.51,0.58,1.18,0.86,2.02,0.86c0.64,0,1.17-0.15,1.6-0.45
				s0.72-0.73,0.88-1.28h1.57c-0.23,0.9-0.7,1.61-1.41,2.15c-0.7,0.54-1.58,0.81-2.64,0.81c-0.83,0-1.57-0.19-2.22-0.56
				s-1.15-0.9-1.51-1.58c-0.36-0.68-0.54-1.48-0.54-2.4C186.34,272.07,186.52,271.28,186.89,270.6z"/>
		</g>
		<g>
			<path d="M196.6,270.6c0.36-0.68,0.87-1.2,1.51-1.58c0.65-0.37,1.38-0.56,2.22-0.56c1.08,0,1.96,0.26,2.66,0.78
				c0.7,0.52,1.16,1.25,1.38,2.18h-1.57c-0.15-0.53-0.44-0.95-0.87-1.26c-0.43-0.31-0.97-0.46-1.61-0.46c-0.83,0-1.5,0.29-2.02,0.86
				c-0.51,0.57-0.77,1.38-0.77,2.42c0,1.06,0.26,1.87,0.77,2.45c0.51,0.58,1.18,0.86,2.02,0.86c0.64,0,1.17-0.15,1.6-0.45
				s0.72-0.73,0.88-1.28h1.57c-0.23,0.9-0.7,1.61-1.41,2.15c-0.7,0.54-1.58,0.81-2.64,0.81c-0.83,0-1.57-0.19-2.22-0.56
				s-1.15-0.9-1.51-1.58c-0.36-0.68-0.54-1.48-0.54-2.4C196.06,272.07,196.24,271.28,196.6,270.6z"/>
		</g>
		<g>
			<path d="M206.36,266.89c-0.19-0.19-0.29-0.43-0.29-0.7s0.1-0.51,0.29-0.7c0.19-0.19,0.43-0.29,0.7-0.29
				c0.27,0,0.49,0.1,0.68,0.29c0.19,0.19,0.28,0.43,0.28,0.7s-0.09,0.51-0.28,0.7c-0.19,0.19-0.41,0.29-0.68,0.29
				C206.78,267.18,206.55,267.09,206.36,266.89z M207.77,268.61v8.77h-1.46v-8.77H207.77z"/>
		</g>
		<g>
			<path d="M211.84,276.96c-0.67-0.37-1.19-0.9-1.57-1.59c-0.38-0.69-0.57-1.49-0.57-2.39c0-0.9,0.19-1.69,0.58-2.38
				c0.39-0.69,0.92-1.22,1.59-1.58c0.67-0.37,1.42-0.55,2.26-0.55s1.58,0.18,2.26,0.55c0.67,0.37,1.2,0.89,1.59,1.58
				s0.58,1.48,0.58,2.38c0,0.91-0.2,1.7-0.6,2.39c-0.4,0.69-0.94,1.22-1.62,1.59s-1.44,0.56-2.27,0.56
				C213.25,277.52,212.5,277.33,211.84,276.96z M215.54,275.87c0.46-0.25,0.83-0.61,1.11-1.1c0.28-0.49,0.42-1.09,0.42-1.79
				c0-0.7-0.14-1.3-0.42-1.79c-0.28-0.49-0.64-0.86-1.09-1.1c-0.45-0.24-0.93-0.36-1.46-0.36c-0.53,0-1.02,0.12-1.46,0.36
				s-0.8,0.61-1.06,1.1c-0.27,0.49-0.4,1.09-0.4,1.79c0,0.71,0.13,1.32,0.39,1.81c0.26,0.49,0.61,0.86,1.05,1.1s0.92,0.36,1.44,0.36
				S215.08,276.12,215.54,275.87z"/>
		</g>
		<g>
			<path d="M227.35,269.41c0.66,0.65,0.99,1.58,0.99,2.79v5.17h-1.44v-4.96c0-0.88-0.22-1.54-0.66-2.01s-1.04-0.7-1.79-0.7
				c-0.77,0-1.38,0.24-1.83,0.72c-0.45,0.48-0.68,1.18-0.68,2.1v4.85h-1.46v-8.77h1.46v1.25c0.29-0.45,0.68-0.79,1.18-1.04
				c0.5-0.25,1.04-0.37,1.64-0.37C225.82,268.45,226.69,268.77,227.35,269.41z"/>
		</g>
		<g>
			<path d="M238.68,273.53h-7.01c0.05,0.86,0.35,1.54,0.89,2.02c0.54,0.49,1.19,0.73,1.96,0.73c0.63,0,1.15-0.15,1.58-0.44
				c0.42-0.29,0.72-0.68,0.89-1.18h1.57c-0.23,0.84-0.7,1.53-1.41,2.06c-0.7,0.53-1.58,0.79-2.62,0.79c-0.83,0-1.58-0.19-2.23-0.56
				s-1.17-0.9-1.54-1.59c-0.37-0.69-0.56-1.49-0.56-2.39c0-0.91,0.18-1.7,0.54-2.38c0.36-0.68,0.87-1.21,1.53-1.58
				c0.66-0.37,1.41-0.55,2.26-0.55c0.83,0,1.57,0.18,2.21,0.54c0.64,0.36,1.13,0.86,1.48,1.5s0.52,1.35,0.52,2.15
				C238.73,272.93,238.71,273.22,238.68,273.53z M236.85,270.92c-0.25-0.4-0.58-0.7-1-0.91c-0.42-0.21-0.89-0.31-1.4-0.31
				c-0.74,0-1.36,0.23-1.88,0.7c-0.52,0.47-0.81,1.12-0.89,1.95h5.54C237.22,271.8,237.1,271.32,236.85,270.92z"/>
		</g>
		<g>
			<path d="M241.94,277.17c-0.53-0.23-0.96-0.55-1.26-0.96c-0.31-0.41-0.48-0.88-0.51-1.42h1.5c0.04,0.44,0.25,0.79,0.62,1.07
				s0.85,0.42,1.45,0.42c0.55,0,0.99-0.12,1.31-0.37s0.48-0.55,0.48-0.93c0-0.38-0.17-0.67-0.51-0.86
				c-0.34-0.19-0.87-0.37-1.58-0.55c-0.65-0.17-1.18-0.34-1.59-0.52c-0.41-0.18-0.76-0.44-1.06-0.78c-0.29-0.35-0.44-0.8-0.44-1.37
				c0-0.45,0.13-0.86,0.4-1.23c0.27-0.37,0.65-0.67,1.14-0.89s1.05-0.33,1.68-0.33c0.97,0,1.75,0.25,2.35,0.74
				c0.6,0.49,0.92,1.16,0.96,2.02h-1.46c-0.03-0.46-0.22-0.83-0.55-1.1s-0.79-0.42-1.35-0.42c-0.52,0-0.94,0.11-1.25,0.34
				c-0.31,0.22-0.46,0.52-0.46,0.88c0,0.29,0.09,0.53,0.28,0.71s0.42,0.34,0.7,0.45c0.28,0.11,0.67,0.24,1.18,0.38
				c0.63,0.17,1.14,0.34,1.54,0.5s0.73,0.41,1.02,0.74c0.28,0.33,0.43,0.76,0.44,1.3c0,0.48-0.13,0.91-0.4,1.3s-0.64,0.69-1.13,0.9
				c-0.49,0.22-1.04,0.33-1.67,0.33C243.08,277.52,242.48,277.4,241.94,277.17z"/>
		</g>
		<g>
			<path d="M64.77,300.03l2.72-7.42h1.55l-3.44,8.77h-1.7l-3.44-8.77h1.57L64.77,300.03z"/>
		</g>
		<g>
			<path d="M70.48,294.6c0.36-0.68,0.86-1.2,1.5-1.58c0.63-0.37,1.34-0.56,2.12-0.56c0.77,0,1.43,0.17,2,0.5
				c0.57,0.33,0.99,0.75,1.26,1.25v-1.6h1.47v8.77h-1.47v-1.63c-0.29,0.51-0.72,0.94-1.29,1.27c-0.57,0.34-1.24,0.5-1.99,0.5
				c-0.78,0-1.48-0.19-2.11-0.58c-0.63-0.38-1.13-0.92-1.49-1.62c-0.36-0.69-0.54-1.48-0.54-2.37
				C69.94,296.06,70.12,295.28,70.48,294.6z M76.96,295.25c-0.27-0.49-0.63-0.87-1.08-1.13s-0.95-0.39-1.5-0.39
				s-1.04,0.13-1.49,0.38c-0.45,0.26-0.81,0.63-1.07,1.12c-0.27,0.49-0.4,1.07-0.4,1.73c0,0.67,0.13,1.26,0.4,1.75
				s0.62,0.88,1.07,1.14c0.45,0.26,0.94,0.39,1.49,0.39s1.04-0.13,1.5-0.39c0.45-0.26,0.81-0.64,1.08-1.14s0.4-1.07,0.4-1.74
				C77.36,296.31,77.23,295.74,76.96,295.25z"/>
		</g>
		<g>
			<path d="M86.9,292.96c0.57,0.33,1,0.75,1.27,1.25v-1.6h1.47v8.96c0,0.8-0.17,1.51-0.51,2.14c-0.34,0.62-0.83,1.11-1.46,1.46
				c-0.63,0.35-1.37,0.53-2.22,0.53c-1.15,0-2.11-0.27-2.88-0.82c-0.77-0.54-1.22-1.29-1.36-2.22h1.44
				c0.16,0.53,0.49,0.96,0.99,1.29c0.5,0.33,1.1,0.49,1.81,0.49c0.8,0,1.45-0.25,1.96-0.75c0.51-0.5,0.76-1.21,0.76-2.11v-1.84
				c-0.29,0.51-0.71,0.94-1.28,1.28c-0.57,0.34-1.23,0.51-1.98,0.51c-0.78,0-1.49-0.19-2.12-0.58c-0.63-0.38-1.13-0.92-1.5-1.62
				c-0.36-0.69-0.54-1.48-0.54-2.37c0-0.9,0.18-1.68,0.54-2.36c0.36-0.68,0.86-1.2,1.5-1.58c0.63-0.37,1.34-0.56,2.12-0.56
				C85.67,292.46,86.33,292.63,86.9,292.96z M87.78,295.25c-0.27-0.49-0.63-0.87-1.08-1.13s-0.95-0.39-1.5-0.39
				s-1.04,0.13-1.49,0.38c-0.45,0.26-0.81,0.63-1.07,1.12c-0.27,0.49-0.4,1.07-0.4,1.73c0,0.67,0.13,1.26,0.4,1.75
				s0.62,0.88,1.07,1.14c0.45,0.26,0.94,0.39,1.49,0.39s1.04-0.13,1.5-0.39c0.45-0.26,0.81-0.64,1.08-1.14s0.4-1.07,0.4-1.74
				C88.18,296.31,88.04,295.74,87.78,295.25z"/>
		</g>
		<g>
			<path d="M92.16,290.89c-0.19-0.19-0.29-0.43-0.29-0.7s0.1-0.51,0.29-0.7c0.19-0.19,0.43-0.29,0.7-0.29c0.27,0,0.49,0.1,0.68,0.29
				c0.19,0.19,0.28,0.43,0.28,0.7s-0.09,0.51-0.28,0.7c-0.19,0.19-0.41,0.29-0.68,0.29C92.59,291.18,92.35,291.09,92.16,290.89z
				 M93.57,292.61v8.77h-1.46v-8.77H93.57z"/>
		</g>
		<g>
			<path d="M102.91,293.41c0.66,0.65,0.99,1.58,0.99,2.79v5.17h-1.44v-4.96c0-0.88-0.22-1.54-0.66-2.01s-1.04-0.7-1.79-0.7
				c-0.77,0-1.38,0.24-1.83,0.72c-0.45,0.48-0.68,1.18-0.68,2.1v4.85h-1.46v-8.77h1.46v1.25c0.29-0.45,0.68-0.79,1.18-1.04
				c0.5-0.25,1.04-0.37,1.64-0.37C101.39,292.45,102.25,292.77,102.91,293.41z"/>
		</g>
		<g>
			<path d="M106.29,294.6c0.36-0.68,0.86-1.2,1.5-1.58c0.63-0.37,1.34-0.56,2.12-0.56c0.77,0,1.43,0.17,2,0.5
				c0.57,0.33,0.99,0.75,1.26,1.25v-1.6h1.47v8.77h-1.47v-1.63c-0.29,0.51-0.72,0.94-1.29,1.27c-0.57,0.34-1.24,0.5-1.99,0.5
				c-0.78,0-1.48-0.19-2.11-0.58c-0.63-0.38-1.13-0.92-1.49-1.62c-0.36-0.69-0.54-1.48-0.54-2.37
				C105.75,296.06,105.93,295.28,106.29,294.6z M112.77,295.25c-0.27-0.49-0.63-0.87-1.08-1.13s-0.95-0.39-1.5-0.39
				s-1.04,0.13-1.49,0.38c-0.45,0.26-0.81,0.63-1.07,1.12c-0.27,0.49-0.4,1.07-0.4,1.73c0,0.67,0.13,1.26,0.4,1.75
				s0.62,0.88,1.07,1.14c0.45,0.26,0.94,0.39,1.49,0.39s1.04-0.13,1.5-0.39c0.45-0.26,0.81-0.64,1.08-1.14s0.4-1.07,0.4-1.74
				C113.17,296.31,113.04,295.74,112.77,295.25z"/>
		</g>
		<g>
			<path d="M118.56,289.53v11.84h-1.46v-11.84H118.56z"/>
		</g>
		<g>
			<path d="M128.99,297.53h-7.01c0.05,0.86,0.35,1.54,0.89,2.02c0.54,0.49,1.19,0.73,1.96,0.73c0.63,0,1.15-0.15,1.58-0.44
				c0.42-0.29,0.72-0.68,0.89-1.18h1.57c-0.23,0.84-0.7,1.53-1.41,2.06c-0.7,0.53-1.58,0.79-2.62,0.79c-0.83,0-1.58-0.19-2.23-0.56
				s-1.17-0.9-1.54-1.59c-0.37-0.69-0.56-1.49-0.56-2.39c0-0.91,0.18-1.7,0.54-2.38c0.36-0.68,0.87-1.21,1.53-1.58
				c0.66-0.37,1.41-0.55,2.26-0.55c0.83,0,1.57,0.18,2.21,0.54c0.64,0.36,1.13,0.86,1.48,1.5s0.52,1.35,0.52,2.15
				C129.04,296.93,129.02,297.22,128.99,297.53z M127.17,294.92c-0.25-0.4-0.58-0.7-1-0.91c-0.42-0.21-0.89-0.31-1.4-0.31
				c-0.74,0-1.36,0.23-1.88,0.7c-0.52,0.47-0.81,1.12-0.89,1.95h5.54C127.54,295.8,127.41,295.32,127.17,294.92z"/>
		</g>
		<g>
			<path d="M132.26,301.17c-0.53-0.23-0.96-0.55-1.26-0.96c-0.31-0.41-0.48-0.88-0.51-1.42h1.5c0.04,0.44,0.25,0.79,0.62,1.07
				s0.85,0.42,1.45,0.42c0.55,0,0.99-0.12,1.31-0.37s0.48-0.55,0.48-0.93c0-0.38-0.17-0.67-0.51-0.86
				c-0.34-0.19-0.87-0.37-1.58-0.55c-0.65-0.17-1.18-0.34-1.59-0.52c-0.41-0.18-0.76-0.44-1.06-0.78c-0.29-0.35-0.44-0.8-0.44-1.37
				c0-0.45,0.13-0.86,0.4-1.23c0.27-0.37,0.65-0.67,1.14-0.89s1.05-0.33,1.68-0.33c0.97,0,1.75,0.25,2.35,0.74
				c0.6,0.49,0.92,1.16,0.96,2.02h-1.46c-0.03-0.46-0.22-0.83-0.55-1.1s-0.79-0.42-1.35-0.42c-0.52,0-0.94,0.11-1.25,0.34
				c-0.31,0.22-0.46,0.52-0.46,0.88c0,0.29,0.09,0.53,0.28,0.71s0.42,0.34,0.7,0.45c0.28,0.11,0.67,0.24,1.18,0.38
				c0.63,0.17,1.14,0.34,1.54,0.5s0.73,0.41,1.02,0.74c0.28,0.33,0.43,0.76,0.44,1.3c0,0.48-0.13,0.91-0.4,1.3s-0.64,0.69-1.13,0.9
				c-0.49,0.22-1.04,0.33-1.67,0.33C133.39,301.52,132.79,301.4,132.26,301.17z"/>
		</g>
		<g>
			<path d="M151.14,292.61l-5.28,12.9h-1.5l1.73-4.22l-3.54-8.67h1.62l2.75,7.1l2.72-7.1H151.14z"/>
		</g>
		<g>
			<path d="M164.81,297.53h-7.01c0.05,0.86,0.35,1.54,0.89,2.02c0.54,0.49,1.19,0.73,1.96,0.73c0.63,0,1.15-0.15,1.58-0.44
				c0.42-0.29,0.72-0.68,0.89-1.18h1.57c-0.23,0.84-0.7,1.53-1.41,2.06c-0.7,0.53-1.58,0.79-2.62,0.79c-0.83,0-1.58-0.19-2.23-0.56
				s-1.17-0.9-1.54-1.59c-0.37-0.69-0.56-1.49-0.56-2.39c0-0.91,0.18-1.7,0.54-2.38c0.36-0.68,0.87-1.21,1.53-1.58
				c0.66-0.37,1.41-0.55,2.26-0.55c0.83,0,1.57,0.18,2.21,0.54c0.64,0.36,1.13,0.86,1.48,1.5s0.52,1.35,0.52,2.15
				C164.86,296.93,164.85,297.22,164.81,297.53z M162.99,294.92c-0.25-0.4-0.58-0.7-1-0.91c-0.42-0.21-0.89-0.31-1.4-0.31
				c-0.74,0-1.36,0.23-1.88,0.7c-0.52,0.47-0.81,1.12-0.89,1.95h5.54C163.36,295.8,163.24,295.32,162.99,294.92z"/>
		</g>
		<g>
			<path d="M168.24,289.53v11.84h-1.46v-11.84H168.24z"/>
		</g>
		<g>
			<path d="M182.94,297.53h-7.01c0.05,0.86,0.35,1.54,0.89,2.02c0.54,0.49,1.19,0.73,1.96,0.73c0.63,0,1.15-0.15,1.58-0.44
				c0.42-0.29,0.72-0.68,0.89-1.18h1.57c-0.23,0.84-0.7,1.53-1.41,2.06c-0.7,0.53-1.58,0.79-2.62,0.79c-0.83,0-1.58-0.19-2.23-0.56
				s-1.17-0.9-1.54-1.59c-0.37-0.69-0.56-1.49-0.56-2.39c0-0.91,0.18-1.7,0.54-2.38c0.36-0.68,0.87-1.21,1.53-1.58
				c0.66-0.37,1.41-0.55,2.26-0.55c0.83,0,1.57,0.18,2.21,0.54c0.64,0.36,1.13,0.86,1.48,1.5s0.52,1.35,0.52,2.15
				C182.99,296.93,182.97,297.22,182.94,297.53z M181.12,294.92c-0.25-0.4-0.58-0.7-1-0.91c-0.42-0.21-0.89-0.31-1.4-0.31
				c-0.74,0-1.36,0.23-1.88,0.7c-0.52,0.47-0.81,1.12-0.89,1.95h5.54C181.49,295.8,181.36,295.32,181.12,294.92z"/>
		</g>
		<g>
			<path d="M186.21,301.17c-0.53-0.23-0.96-0.55-1.26-0.96c-0.31-0.41-0.48-0.88-0.51-1.42h1.5c0.04,0.44,0.25,0.79,0.62,1.07
				s0.85,0.42,1.45,0.42c0.55,0,0.99-0.12,1.31-0.37s0.48-0.55,0.48-0.93c0-0.38-0.17-0.67-0.51-0.86
				c-0.34-0.19-0.87-0.37-1.58-0.55c-0.65-0.17-1.18-0.34-1.59-0.52c-0.41-0.18-0.76-0.44-1.06-0.78c-0.29-0.35-0.44-0.8-0.44-1.37
				c0-0.45,0.13-0.86,0.4-1.23c0.27-0.37,0.65-0.67,1.14-0.89s1.05-0.33,1.68-0.33c0.97,0,1.75,0.25,2.35,0.74
				c0.6,0.49,0.92,1.16,0.96,2.02h-1.46c-0.03-0.46-0.22-0.83-0.55-1.1s-0.79-0.42-1.35-0.42c-0.52,0-0.94,0.11-1.25,0.34
				c-0.31,0.22-0.46,0.52-0.46,0.88c0,0.29,0.09,0.53,0.28,0.71s0.42,0.34,0.7,0.45c0.28,0.11,0.67,0.24,1.18,0.38
				c0.63,0.17,1.14,0.34,1.54,0.5s0.73,0.41,1.02,0.74c0.28,0.33,0.43,0.76,0.44,1.3c0,0.48-0.13,0.91-0.4,1.3s-0.64,0.69-1.13,0.9
				c-0.49,0.22-1.04,0.33-1.67,0.33C187.34,301.52,186.74,301.4,186.21,301.17z"/>
		</g>
		<g>
			<path d="M195.04,293.81v5.17c0,0.43,0.09,0.73,0.27,0.9c0.18,0.18,0.5,0.26,0.94,0.26h1.07v1.23h-1.31
				c-0.81,0-1.42-0.19-1.82-0.56c-0.41-0.37-0.61-0.99-0.61-1.84v-5.17h-1.14v-1.2h1.14v-2.21h1.46v2.21h2.29v1.2H195.04z"/>
		</g>
		<g>
			<path d="M199.09,294.6c0.36-0.68,0.86-1.2,1.5-1.58c0.63-0.37,1.34-0.56,2.12-0.56c0.77,0,1.43,0.17,2,0.5
				c0.57,0.33,0.99,0.75,1.26,1.25v-1.6h1.47v8.77h-1.47v-1.63c-0.29,0.51-0.72,0.94-1.29,1.27c-0.57,0.34-1.24,0.5-1.99,0.5
				c-0.78,0-1.48-0.19-2.11-0.58c-0.63-0.38-1.13-0.92-1.49-1.62c-0.36-0.69-0.54-1.48-0.54-2.37
				C198.54,296.06,198.72,295.28,199.09,294.6z M205.57,295.25c-0.27-0.49-0.63-0.87-1.08-1.13s-0.95-0.39-1.5-0.39
				s-1.04,0.13-1.49,0.38c-0.45,0.26-0.81,0.63-1.07,1.12c-0.27,0.49-0.4,1.07-0.4,1.73c0,0.67,0.13,1.26,0.4,1.75
				s0.62,0.88,1.07,1.14c0.45,0.26,0.94,0.39,1.49,0.39s1.04-0.13,1.5-0.39c0.45-0.26,0.81-0.64,1.08-1.14s0.4-1.07,0.4-1.74
				C205.97,296.31,205.83,295.74,205.57,295.25z"/>
		</g>
		<g>
			<path d="M209.9,294.6c0.36-0.68,0.86-1.2,1.5-1.58c0.63-0.37,1.35-0.56,2.14-0.56c0.68,0,1.32,0.16,1.9,0.47
				c0.59,0.32,1.04,0.73,1.34,1.24v-4.64h1.47v11.84h-1.47v-1.65c-0.29,0.52-0.71,0.95-1.28,1.29s-1.23,0.5-1.98,0.5
				c-0.78,0-1.49-0.19-2.12-0.58c-0.63-0.38-1.13-0.92-1.5-1.62c-0.36-0.69-0.54-1.48-0.54-2.37
				C209.36,296.06,209.54,295.28,209.9,294.6z M216.38,295.25c-0.27-0.49-0.63-0.87-1.08-1.13s-0.95-0.39-1.5-0.39
				s-1.04,0.13-1.49,0.38c-0.45,0.26-0.81,0.63-1.07,1.12c-0.27,0.49-0.4,1.07-0.4,1.73c0,0.67,0.13,1.26,0.4,1.75
				s0.62,0.88,1.07,1.14c0.45,0.26,0.94,0.39,1.49,0.39s1.04-0.13,1.5-0.39c0.45-0.26,0.81-0.64,1.08-1.14s0.4-1.07,0.4-1.74
				C216.78,296.31,216.65,295.74,216.38,295.25z"/>
		</g>
		<g>
			<path d="M222.31,300.96c-0.67-0.37-1.19-0.9-1.57-1.59c-0.38-0.69-0.57-1.49-0.57-2.39c0-0.9,0.19-1.69,0.58-2.38
				c0.39-0.69,0.92-1.22,1.59-1.58c0.67-0.37,1.42-0.55,2.26-0.55s1.58,0.18,2.26,0.55c0.67,0.37,1.2,0.89,1.59,1.58
				s0.58,1.48,0.58,2.38c0,0.91-0.2,1.7-0.6,2.39c-0.4,0.69-0.94,1.22-1.62,1.59s-1.44,0.56-2.27,0.56
				C223.72,301.52,222.98,301.33,222.31,300.96z M226.02,299.87c0.46-0.25,0.83-0.61,1.11-1.1c0.28-0.49,0.42-1.09,0.42-1.79
				c0-0.7-0.14-1.3-0.42-1.79c-0.28-0.49-0.64-0.86-1.09-1.1c-0.45-0.24-0.93-0.36-1.46-0.36c-0.53,0-1.02,0.12-1.46,0.36
				s-0.8,0.61-1.06,1.1c-0.27,0.49-0.4,1.09-0.4,1.79c0,0.71,0.13,1.32,0.39,1.81c0.26,0.49,0.61,0.86,1.05,1.1s0.92,0.36,1.44,0.36
				S225.56,300.12,226.02,299.87z"/>
		</g>
		<g>
			<path d="M81.39,316.87c0.53,0.28,0.95,0.71,1.26,1.27c0.3,0.57,0.46,1.25,0.46,2.06v5.17h-1.44v-4.96c0-0.88-0.22-1.54-0.66-2.01
				s-1.04-0.7-1.79-0.7c-0.77,0-1.38,0.24-1.83,0.72c-0.45,0.48-0.68,1.18-0.68,2.1v4.85h-1.46v-11.84h1.46v4.32
				c0.29-0.45,0.68-0.79,1.19-1.04c0.51-0.25,1.07-0.37,1.7-0.37C80.26,316.45,80.86,316.59,81.39,316.87z"/>
		</g>
		<g>
			<path d="M87.08,324.96c-0.67-0.37-1.19-0.9-1.57-1.59c-0.38-0.69-0.57-1.49-0.57-2.39c0-0.9,0.19-1.69,0.58-2.38
				c0.39-0.69,0.92-1.22,1.59-1.58c0.67-0.37,1.42-0.55,2.26-0.55s1.58,0.18,2.26,0.55c0.67,0.37,1.2,0.89,1.59,1.58
				s0.58,1.48,0.58,2.38c0,0.91-0.2,1.7-0.6,2.39c-0.4,0.69-0.94,1.22-1.62,1.59s-1.44,0.56-2.27,0.56
				C88.49,325.52,87.75,325.33,87.08,324.96z M90.79,323.87c0.46-0.25,0.83-0.61,1.11-1.1c0.28-0.49,0.42-1.09,0.42-1.79
				c0-0.7-0.14-1.3-0.42-1.79c-0.28-0.49-0.64-0.86-1.09-1.1c-0.45-0.24-0.93-0.36-1.46-0.36c-0.53,0-1.02,0.12-1.46,0.36
				s-0.8,0.61-1.06,1.1c-0.27,0.49-0.4,1.09-0.4,1.79c0,0.71,0.13,1.32,0.39,1.81c0.26,0.49,0.61,0.86,1.05,1.1s0.92,0.36,1.44,0.36
				S90.33,324.12,90.79,323.87z"/>
		</g>
		<g>
			<path d="M98.28,316.86c0.47-0.28,1.05-0.42,1.74-0.42v1.5h-0.38c-1.63,0-2.45,0.89-2.45,2.66v4.77h-1.46v-8.77h1.46v1.42
				C97.44,317.53,97.81,317.14,98.28,316.86z"/>
		</g>
		<g>
			<path d="M114.07,316.87c0.53,0.28,0.96,0.71,1.26,1.27c0.31,0.57,0.46,1.25,0.46,2.06v5.17h-1.44v-4.96
				c0-0.88-0.22-1.54-0.65-2.01c-0.43-0.46-1.02-0.7-1.75-0.7c-0.76,0-1.36,0.24-1.81,0.73c-0.45,0.49-0.67,1.19-0.67,2.1v4.83
				h-1.44v-4.96c0-0.88-0.22-1.54-0.65-2.01s-1.02-0.7-1.75-0.7c-0.76,0-1.36,0.24-1.81,0.73c-0.45,0.49-0.67,1.19-0.67,2.1v4.83
				h-1.46v-8.77h1.46v1.26c0.29-0.46,0.67-0.81,1.16-1.06c0.49-0.25,1.02-0.37,1.61-0.37c0.74,0,1.39,0.17,1.95,0.5
				c0.57,0.33,0.99,0.82,1.26,1.46c0.25-0.62,0.65-1.1,1.22-1.44c0.57-0.34,1.19-0.51,1.89-0.51
				C112.93,316.45,113.53,316.59,114.07,316.87z"/>
		</g>
		<g>
			<path d="M119.77,324.96c-0.67-0.37-1.19-0.9-1.57-1.59c-0.38-0.69-0.57-1.49-0.57-2.39c0-0.9,0.19-1.69,0.58-2.38
				c0.39-0.69,0.92-1.22,1.59-1.58c0.67-0.37,1.42-0.55,2.26-0.55s1.58,0.18,2.26,0.55c0.67,0.37,1.2,0.89,1.59,1.58
				s0.58,1.48,0.58,2.38c0,0.91-0.2,1.7-0.6,2.39c-0.4,0.69-0.94,1.22-1.62,1.59s-1.44,0.56-2.27,0.56
				C121.18,325.52,120.44,325.33,119.77,324.96z M123.47,323.87c0.46-0.25,0.83-0.61,1.11-1.1c0.28-0.49,0.42-1.09,0.42-1.79
				c0-0.7-0.14-1.3-0.42-1.79c-0.28-0.49-0.64-0.86-1.09-1.1c-0.45-0.24-0.93-0.36-1.46-0.36c-0.53,0-1.02,0.12-1.46,0.36
				s-0.8,0.61-1.06,1.1c-0.27,0.49-0.4,1.09-0.4,1.79c0,0.71,0.13,1.32,0.39,1.81c0.26,0.49,0.61,0.86,1.05,1.1s0.92,0.36,1.44,0.36
				S123.02,324.12,123.47,323.87z"/>
		</g>
		<g>
			<path d="M135.28,317.41c0.66,0.65,0.99,1.58,0.99,2.79v5.17h-1.44v-4.96c0-0.88-0.22-1.54-0.66-2.01s-1.04-0.7-1.79-0.7
				c-0.77,0-1.38,0.24-1.83,0.72c-0.45,0.48-0.68,1.18-0.68,2.1v4.85h-1.46v-8.77h1.46v1.25c0.29-0.45,0.68-0.79,1.18-1.04
				c0.5-0.25,1.04-0.37,1.64-0.37C133.76,316.45,134.62,316.77,135.28,317.41z"/>
		</g>
		<g>
			<path d="M138.66,318.6c0.36-0.68,0.86-1.2,1.5-1.58c0.63-0.37,1.34-0.56,2.12-0.56c0.77,0,1.43,0.17,2,0.5
				c0.57,0.33,0.99,0.75,1.26,1.25v-1.6h1.47v8.77h-1.47v-1.63c-0.29,0.51-0.72,0.94-1.29,1.27c-0.57,0.34-1.24,0.5-1.99,0.5
				c-0.78,0-1.48-0.19-2.11-0.58c-0.63-0.38-1.13-0.92-1.49-1.62c-0.36-0.69-0.54-1.48-0.54-2.37
				C138.11,320.06,138.3,319.28,138.66,318.6z M145.14,319.25c-0.27-0.49-0.63-0.87-1.08-1.13s-0.95-0.39-1.5-0.39
				s-1.04,0.13-1.49,0.38c-0.45,0.26-0.81,0.63-1.07,1.12c-0.27,0.49-0.4,1.07-0.4,1.73c0,0.67,0.13,1.26,0.4,1.75
				s0.62,0.88,1.07,1.14c0.45,0.26,0.94,0.39,1.49,0.39s1.04-0.13,1.5-0.39c0.45-0.26,0.81-0.64,1.08-1.14s0.4-1.07,0.4-1.74
				C145.54,320.31,145.4,319.74,145.14,319.25z"/>
		</g>
		<g>
			<path d="M150.93,313.53v11.84h-1.46v-11.84H150.93z"/>
		</g>
		<g>
			<path d="M160.95,324.03l2.72-7.42h1.55l-3.44,8.77h-1.7l-3.44-8.77h1.57L160.95,324.03z"/>
		</g>
		<g>
			<path d="M166.66,318.6c0.36-0.68,0.86-1.2,1.5-1.58c0.63-0.37,1.34-0.56,2.12-0.56c0.77,0,1.43,0.17,2,0.5
				c0.57,0.33,0.99,0.75,1.26,1.25v-1.6h1.47v8.77h-1.47v-1.63c-0.29,0.51-0.72,0.94-1.29,1.27c-0.57,0.34-1.24,0.5-1.99,0.5
				c-0.78,0-1.48-0.19-2.11-0.58c-0.63-0.38-1.13-0.92-1.49-1.62c-0.36-0.69-0.54-1.48-0.54-2.37
				C166.11,320.06,166.29,319.28,166.66,318.6z M173.14,319.25c-0.27-0.49-0.63-0.87-1.08-1.13s-0.95-0.39-1.5-0.39
				s-1.04,0.13-1.49,0.38c-0.45,0.26-0.81,0.63-1.07,1.12c-0.27,0.49-0.4,1.07-0.4,1.73c0,0.67,0.13,1.26,0.4,1.75
				s0.62,0.88,1.07,1.14c0.45,0.26,0.94,0.39,1.49,0.39s1.04-0.13,1.5-0.39c0.45-0.26,0.81-0.64,1.08-1.14s0.4-1.07,0.4-1.74
				C173.54,320.31,173.4,319.74,173.14,319.25z"/>
		</g>
		<g>
			<path d="M183.08,316.96c0.57,0.33,1,0.75,1.27,1.25v-1.6h1.47v8.96c0,0.8-0.17,1.51-0.51,2.14c-0.34,0.62-0.83,1.11-1.46,1.46
				c-0.63,0.35-1.37,0.53-2.22,0.53c-1.15,0-2.11-0.27-2.88-0.82c-0.77-0.54-1.22-1.29-1.36-2.22h1.44
				c0.16,0.53,0.49,0.96,0.99,1.29c0.5,0.33,1.1,0.49,1.81,0.49c0.8,0,1.45-0.25,1.96-0.75c0.51-0.5,0.76-1.21,0.76-2.11v-1.84
				c-0.29,0.51-0.71,0.94-1.28,1.28c-0.57,0.34-1.23,0.51-1.98,0.51c-0.78,0-1.49-0.19-2.12-0.58c-0.63-0.38-1.13-0.92-1.5-1.62
				c-0.36-0.69-0.54-1.48-0.54-2.37c0-0.9,0.18-1.68,0.54-2.36c0.36-0.68,0.86-1.2,1.5-1.58c0.63-0.37,1.34-0.56,2.12-0.56
				C181.85,316.46,182.51,316.63,183.08,316.96z M183.95,319.25c-0.27-0.49-0.63-0.87-1.08-1.13s-0.95-0.39-1.5-0.39
				s-1.04,0.13-1.49,0.38c-0.45,0.26-0.81,0.63-1.07,1.12c-0.27,0.49-0.4,1.07-0.4,1.73c0,0.67,0.13,1.26,0.4,1.75
				s0.62,0.88,1.07,1.14c0.45,0.26,0.94,0.39,1.49,0.39s1.04-0.13,1.5-0.39c0.45-0.26,0.81-0.64,1.08-1.14s0.4-1.07,0.4-1.74
				C184.35,320.31,184.22,319.74,183.95,319.25z"/>
		</g>
		<g>
			<path d="M188.34,314.89c-0.19-0.19-0.29-0.43-0.29-0.7s0.1-0.51,0.29-0.7c0.19-0.19,0.43-0.29,0.7-0.29
				c0.27,0,0.49,0.1,0.68,0.29c0.19,0.19,0.28,0.43,0.28,0.7s-0.09,0.51-0.28,0.7c-0.19,0.19-0.41,0.29-0.68,0.29
				C188.76,315.18,188.53,315.09,188.34,314.89z M189.75,316.61v8.77h-1.46v-8.77H189.75z"/>
		</g>
		<g>
			<path d="M199.09,317.41c0.66,0.65,0.99,1.58,0.99,2.79v5.17h-1.44v-4.96c0-0.88-0.22-1.54-0.66-2.01s-1.04-0.7-1.79-0.7
				c-0.77,0-1.38,0.24-1.83,0.72c-0.45,0.48-0.68,1.18-0.68,2.1v4.85h-1.46v-8.77h1.46v1.25c0.29-0.45,0.68-0.79,1.18-1.04
				c0.5-0.25,1.04-0.37,1.64-0.37C197.56,316.45,198.43,316.77,199.09,317.41z"/>
		</g>
		<g>
			<path d="M202.47,318.6c0.36-0.68,0.86-1.2,1.5-1.58c0.63-0.37,1.34-0.56,2.12-0.56c0.77,0,1.43,0.17,2,0.5
				c0.57,0.33,0.99,0.75,1.26,1.25v-1.6h1.47v8.77h-1.47v-1.63c-0.29,0.51-0.72,0.94-1.29,1.27c-0.57,0.34-1.24,0.5-1.99,0.5
				c-0.78,0-1.48-0.19-2.11-0.58c-0.63-0.38-1.13-0.92-1.49-1.62c-0.36-0.69-0.54-1.48-0.54-2.37
				C201.92,320.06,202.1,319.28,202.47,318.6z M208.94,319.25c-0.27-0.49-0.63-0.87-1.08-1.13s-0.95-0.39-1.5-0.39
				s-1.04,0.13-1.49,0.38c-0.45,0.26-0.81,0.63-1.07,1.12c-0.27,0.49-0.4,1.07-0.4,1.73c0,0.67,0.13,1.26,0.4,1.75
				s0.62,0.88,1.07,1.14c0.45,0.26,0.94,0.39,1.49,0.39s1.04-0.13,1.5-0.39c0.45-0.26,0.81-0.64,1.08-1.14s0.4-1.07,0.4-1.74
				C209.35,320.31,209.21,319.74,208.94,319.25z"/>
		</g>
		<g>
			<path d="M214.74,313.53v11.84h-1.46v-11.84H214.74z"/>
		</g>
	</g>
</g>
<g>
	<circle class="st1" cx="145" cy="70.03" r="33.78"/>
	<g>
		<defs>
			<path id="SVGID_3_" d="M145,36.25c-18.66,0-33.79,15.13-33.79,33.78s15.13,33.78,33.79,33.78s33.79-15.13,33.79-33.78V36.25H145z
				"/>
		</defs>
		<clipPath id="SVGID_2_">
			<use xlink:href="#SVGID_3_"  style="overflow:visible;"/>
		</clipPath>
		<g class="st6">
			<path class="st5" d="M155.97,62.95l-99.82,99.82c-1.07,1.07-2.8,1.07-3.87,0h0c-1.07-1.07-1.07-2.8,0-3.87l99.82-99.82"/>
			<path class="st12" d="M168.11,69.57l-22.63-22.63l-1.11,1.11c-0.91,0.91-0.91,2.38,0,3.29l19.34,19.34
				c0.91,0.91,2.38,0.91,3.29,0L168.11,69.57z"/>
			<path class="st13" d="M142.78,76.35l-4.08-4.08c-0.58-0.58-0.58-1.51,0-2.09l12.25-12.25l6.17,6.17l-12.25,12.25
				C144.3,76.93,143.36,76.93,142.78,76.35z"/>
			<path class="st8" d="M158.81,37.72l-1.03-1.03c-0.57-0.57-1.49-0.57-2.06,0l-10.25,10.25l2.06,2.06L158.81,37.72z"/>
			<path class="st7" d="M161.9,36.69l1.03,1.03l-13.34,13.34L147.53,49l12.31-12.31C160.41,36.12,161.33,36.12,161.9,36.69z"/>
			<path class="st8" d="M167.04,37.72l-1.03-1.03c-0.57-0.57-1.49-0.57-2.06,0l-14.37,14.37l2.06,2.06L167.04,37.72z"/>
			<path class="st7" d="M170.11,36.67l1.03,1.03l-17.45,17.45l-2.06-2.06l16.42-16.42C168.62,36.11,169.54,36.11,170.11,36.67z"/>
			<path class="st8" d="M175.27,37.72l-1.03-1.03c-0.57-0.57-1.49-0.57-2.06,0l-18.48,18.48l2.06,2.06L175.27,37.72z"/>
			<path class="st7" d="M177.33,52.12l1.03,1.03c0.57,0.57,0.57,1.49,0,2.06l-12.31,12.31l-2.06-2.06L177.33,52.12z"/>
			<path class="st8" d="M178.36,57.27l-1.03-1.03l-11.28,11.28l2.06,2.06l10.25-10.25C178.93,58.75,178.93,57.83,178.36,57.27z"/>
			<path class="st8" d="M178.36,49.04l-1.03-1.03L161.94,63.4l2.06,2.06l14.37-14.37C178.93,50.53,178.93,49.6,178.36,49.04z"/>
			<path class="st7" d="M177.31,43.88l1.03,1.03c0.57,0.57,0.57,1.49,0,2.06l-16.42,16.42l-2.06-2.06L177.31,43.88z"/>
			<path class="st8" d="M178.36,40.81l-1.03-1.03l-19.51,19.51l2.06,2.06l18.48-18.48C178.93,42.3,178.93,41.37,178.36,40.81z"/>
			<path class="st7" d="M178.36,36.69L178.36,36.69c0.57,0.57,0.57,1.49,0,2.06l-20.54,20.54l-2.06-2.06l20.54-20.54
				C176.87,36.12,177.79,36.12,178.36,36.69z"/>
		</g>
	</g>
</g>
</svg>
