<?xml version="1.0" encoding="utf-8"?>
<!-- Generator: Adobe Illustrator 24.1.1, SVG Export Plug-In . SVG Version: 6.00 Build 0)  -->
<svg version="1.1" id="Capa_1" xmlns="http://www.w3.org/2000/svg" xmlns:xlink="http://www.w3.org/1999/xlink" x="0px" y="0px"
	 viewBox="0 0 103.92 67.57" style="enable-background:new 0 0 103.92 67.57;" xml:space="preserve">
<style type="text/css">
	.st0{fill:#D9D9D9;}
	.st1{fill:#D36F62;}
	.st2{fill:#F8C5B0;}
	.st3{fill:#F7A6A9;}
	.st4{fill:#007CC3;}
	.st5{clip-path:url(#SVGID_2_);}
	.st6{fill:#F173AC;}
	.st7{fill:#F5A4C7;}
	.st8{fill:#F4C6DE;}
	.st9{fill:#BFBFBF;}
	.st10{clip-path:url(#SVGID_4_);}
	.st11{fill:#999999;}
	.st12{fill:#1A1A1A;}
	.st13{opacity:0.5;fill:#D36F62;}
	.st14{fill:none;stroke:#F4C6DE;stroke-linecap:round;stroke-linejoin:round;stroke-miterlimit:10;}
</style>
<g>
	<circle class="st6" cx="51.8" cy="33.78" r="33.78"/>
	<g>
		<defs>
			<path id="SVGID_3_" d="M51.8,0C41.14,0,31.64,4.94,25.45,12.65H11.18v33.78h9.29c5.01,12.39,17.14,21.13,31.33,21.13
				c18.66,0,33.78-15.13,33.78-33.78h7.15L92.64,0H51.8z"/>
		</defs>
		<clipPath id="SVGID_2_">
			<use xlink:href="#SVGID_3_"  style="overflow:visible;"/>
		</clipPath>
		<g class="st5">
			<path class="st0" d="M59.72,14.58H18.04c-0.2,0-0.38,0.06-0.53,0.16c-0.1,0.07-0.19,0.15-0.25,0.25
				c-0.04,0.07-0.08,0.14-0.1,0.21c-0.03,0.1-0.06,0.2-0.06,0.31v28.05c0,0.09,0.02,0.17,0.04,0.26c0.04,0.12,0.09,0.24,0.17,0.33
				c0.04,0.05,0.08,0.09,0.13,0.13c0.16,0.14,0.37,0.22,0.6,0.22h56.02c1.06,0,2.07-0.33,2.9-0.92L59.72,14.58z"/>
			<path class="st9" d="M44.24,45.93c0,0-1.94,15.99,0.48,21.64H32.45c0,0,0.24-18.08,3.31-23.82L44.24,45.93z"/>
			<path class="st9" d="M78.76,41.31l13.6-34.68c0.24-0.62-0.21-1.29-0.88-1.29H65.32c-0.34,0-0.66,0.19-0.83,0.49l-4.78,8.75
				l17.24,29.01C77.75,43.04,78.39,42.25,78.76,41.31z"/>
			<circle class="st11" cx="68.36" cy="29.55" r="5.75"/>
			<circle class="st9" cx="68.36" cy="29.55" r="2.12"/>
			<g>
				<circle class="st9" cx="33.49" cy="29.55" r="3.02"/>
				<circle class="st9" cx="46.23" cy="29.55" r="3.02"/>
			</g>
			<circle class="st11" cx="39.86" cy="44.51" r="5.75"/>
			<circle class="st9" cx="39.86" cy="44.51" r="2.12"/>
			<path class="st12" d="M74.49,5.35v-4.4c0-0.52,0.42-0.94,0.94-0.94h14.69c0.52,0,0.94,0.42,0.94,0.94v4.4"/>
			<path class="st12" d="M12.12,35.91h1.9V23.19h-1.9c-0.52,0-0.94,0.42-0.94,0.94v10.84C11.18,35.49,11.6,35.91,12.12,35.91z"/>
			<path class="st11" d="M17.1,41.8h-2.13c-0.52,0-0.94-0.42-0.94-0.94V18.23c0-0.52,0.42-0.94,0.94-0.94h2.13V41.8z"/>
		</g>
	</g>
</g>
</svg>
