<?xml version="1.0" encoding="utf-8"?>
<!-- Generator: Adobe Illustrator 24.1.1, SVG Export Plug-In . SVG Version: 6.00 Build 0)  -->
<svg version="1.1" id="Capa_1" xmlns="http://www.w3.org/2000/svg" xmlns:xlink="http://www.w3.org/1999/xlink" x="0px" y="0px"
	 viewBox="0 0 290 362" style="enable-background:new 0 0 290 362;" xml:space="preserve">
<style type="text/css">
	.st0{fill:#FFFFFF;}
	.st1{fill:#007CC3;}
	.st2{fill:#D36F62;}
	.st3{fill:#F8C5B0;}
	.st4{fill:#F7A6A9;}
	.st5{fill:#F173AC;}
	.st6{clip-path:url(#SVGID_2_);}
	.st7{fill:#D9D9D9;}
	.st8{fill:#BFBFBF;}
	.st9{fill:#999999;}
	.st10{fill:#1A1A1A;}
	.st11{clip-path:url(#SVGID_4_);}
	.st12{fill:#F5A4C7;}
	.st13{fill:#F4C6DE;}
	.st14{opacity:0.5;fill:#D36F62;}
	.st15{fill:none;stroke:#F4C6DE;stroke-linecap:round;stroke-linejoin:round;stroke-miterlimit:10;}
</style>
<g>
	<rect x="-13.63" y="-35.46" class="st0" width="317.25" height="432.93"/>
</g>
<g>
	<path class="st1" d="M52.66,139.39l3.55,13.8l0.05,0.65l0.05-0.65l3.55-13.8h3.4l-4.9,17.5h-4.22l-4.87-17.5H52.66z"/>
	<path class="st1" d="M65.02,139.39h3.07v2.58h-3.07V139.39z M65.02,156.88v-12.75h3.07v12.75H65.02z"/>
	<path class="st1" d="M78.66,155.46c-0.78,1.08-1.88,1.67-3.2,1.67h-0.05c-2.77,0-4.32-1.65-4.32-4.57v-4.1
		c0-2.92,1.55-4.57,4.32-4.57h0.05c0.92,0,1.75,0.3,2.47,0.9v-5.4h3.07v17.5h-1.42L78.66,155.46z M77.94,148.36
		c0-0.88-0.6-1.47-1.47-1.47h-0.82c-0.88,0-1.47,0.6-1.47,1.47v4.3c0,0.87,0.6,1.47,1.47,1.47h0.82c0.88,0,1.47-0.6,1.47-1.47
		V148.36z"/>
	<path class="st1" d="M90.86,152.21l3.07,0.3v0.03c0,2.65-1.9,4.6-4.57,4.6h-0.78c-2.67,0-4.57-1.95-4.57-4.6v-4.05
		c0-2.65,1.9-4.6,4.57-4.6h0.78c2.67,0,4.57,1.95,4.57,4.6v2.6h-6.85v1.55c0,0.83,0.67,1.5,1.5,1.5h0.78c0.82,0,1.5-0.67,1.5-1.5
		V152.21z M87.09,149.16h3.77v-0.78c0-0.82-0.67-1.5-1.5-1.5h-0.78c-0.82,0-1.5,0.67-1.5,1.5V149.16z"/>
	<path class="st1" d="M106.61,152.53c0,2.65-1.9,4.6-4.57,4.6h-0.78c-2.67,0-4.57-1.95-4.57-4.6v-4.05c0-2.65,1.9-4.6,4.57-4.6h0.78
		c2.67,0,4.57,1.95,4.57,4.6V152.53z M103.54,148.38c0-0.82-0.67-1.5-1.5-1.5h-0.78c-0.82,0-1.5,0.67-1.5,1.5v4.25
		c0,0.83,0.67,1.5,1.5,1.5h0.78c0.82,0,1.5-0.67,1.5-1.5V148.38z"/>
	<path class="st1" d="M121.96,152.03l3.07,0.3v0.2c0,2.65-1.9,4.6-4.57,4.6h-0.78c-2.67,0-4.57-1.95-4.57-4.6v-4.05
		c0-2.65,1.9-4.6,4.57-4.6h0.78c2.67,0,4.57,1.95,4.57,4.6v0.2l-3.07,0.3v-0.6c0-0.82-0.67-1.5-1.5-1.5h-0.78
		c-0.82,0-1.5,0.67-1.5,1.5v4.25c0,0.83,0.67,1.5,1.5,1.5h0.78c0.82,0,1.5-0.67,1.5-1.5V152.03z"/>
	<path class="st1" d="M137.71,152.53c0,2.65-1.9,4.6-4.57,4.6h-0.78c-2.67,0-4.57-1.95-4.57-4.6v-4.05c0-2.65,1.9-4.6,4.57-4.6h0.78
		c2.67,0,4.57,1.95,4.57,4.6V152.53z M134.64,148.38c0-0.82-0.67-1.5-1.5-1.5h-0.78c-0.82,0-1.5,0.67-1.5,1.5v4.25
		c0,0.83,0.67,1.5,1.5,1.5h0.78c0.82,0,1.5-0.67,1.5-1.5V148.38z"/>
	<path class="st1" d="M140.71,156.88v-17.5h3.07v17.5H140.71z"/>
	<path class="st1" d="M149.36,145.56c0.77-1.02,1.9-1.67,3.22-1.67h0.05c2.77,0,4.32,1.65,4.32,4.57v4.1c0,2.92-1.55,4.57-4.32,4.57
		h-0.05c-0.97,0-1.8-0.3-2.47-0.88v5.62h-3.07v-17.75h1.42L149.36,145.56z M150.11,152.66c0,0.87,0.6,1.47,1.47,1.47h0.82
		c0.88,0,1.47-0.6,1.47-1.47v-4.3c0-0.88-0.6-1.47-1.47-1.47h-0.82c-0.88,0-1.47,0.6-1.47,1.47V152.66z"/>
	<path class="st1" d="M169.64,152.53c0,2.65-1.9,4.6-4.57,4.6h-0.78c-2.67,0-4.57-1.95-4.57-4.6v-4.05c0-2.65,1.9-4.6,4.57-4.6h0.78
		c2.67,0,4.57,1.95,4.57,4.6V152.53z M166.56,148.38c0-0.82-0.67-1.5-1.5-1.5h-0.78c-0.82,0-1.5,0.67-1.5,1.5v4.25
		c0,0.83,0.67,1.5,1.5,1.5h0.78c0.82,0,1.5-0.67,1.5-1.5V148.38z"/>
	<path class="st1" d="M182.26,153.31c0,2.2-1.87,3.82-4.52,3.82h-0.75c-2.67,0-4.62-1.85-4.62-4.35v-0.08l3.07-0.25v0.47
		c0,0.78,0.55,1.33,1.38,1.33h1.15c0.7,0,1.2-0.42,1.2-1c0-2.3-6.65-0.33-6.65-5.55c0-2.2,1.87-3.82,4.52-3.82h0.45
		c2.65,0,4.62,1.8,4.62,4.3v0.08l-3.07,0.3v-0.47c0-0.77-0.58-1.32-1.38-1.32h-0.83c-0.72,0-1.25,0.45-1.25,1.05
		C175.59,150.01,182.26,148.11,182.26,153.31z"/>
	<path class="st1" d="M191.74,152.03l3.07,0.3v0.2c0,2.65-1.9,4.6-4.57,4.6h-0.78c-2.67,0-4.57-1.95-4.57-4.6v-4.05
		c0-2.65,1.9-4.6,4.57-4.6h0.78c2.67,0,4.57,1.95,4.57,4.6v0.2l-3.07,0.3v-0.6c0-0.82-0.67-1.5-1.5-1.5h-0.78
		c-0.82,0-1.5,0.67-1.5,1.5v4.25c0,0.83,0.67,1.5,1.5,1.5h0.78c0.82,0,1.5-0.67,1.5-1.5V152.03z"/>
	<path class="st1" d="M207.49,152.53c0,2.65-1.9,4.6-4.57,4.6h-0.78c-2.67,0-4.57-1.95-4.57-4.6v-4.05c0-2.65,1.9-4.6,4.57-4.6h0.78
		c2.67,0,4.57,1.95,4.57,4.6V152.53z M204.41,148.38c0-0.82-0.67-1.5-1.5-1.5h-0.78c-0.82,0-1.5,0.67-1.5,1.5v4.25
		c0,0.83,0.67,1.5,1.5,1.5h0.78c0.82,0,1.5-0.67,1.5-1.5V148.38z"/>
	<path class="st1" d="M212.81,145.56c0.77-1.02,1.9-1.67,3.22-1.67h0.05c2.77,0,4.32,1.65,4.32,4.57v4.1c0,2.92-1.55,4.57-4.32,4.57
		h-0.05c-0.97,0-1.8-0.3-2.47-0.88v5.62h-3.07v-17.75h1.42L212.81,145.56z M213.56,152.66c0,0.87,0.6,1.47,1.47,1.47h0.82
		c0.88,0,1.47-0.6,1.47-1.47v-4.3c0-0.88-0.6-1.47-1.47-1.47h-0.82c-0.88,0-1.47,0.6-1.47,1.47V152.66z"/>
	<path class="st1" d="M225.29,142.39h-2.62l2-3.25h4L225.29,142.39z M223.41,156.88v-12.75h3.07v12.75H223.41z"/>
	<path class="st1" d="M237.06,155.51c-0.67,1-1.9,1.63-3.4,1.63h-0.05c-2.58,0-4.12-1.47-4.12-3.57v-0.5c0-2.1,1.55-3.52,4.12-3.52
		h2.67v-1.32c0-0.72-0.67-1.32-1.5-1.32h-0.6c-0.82,0-1.5,0.6-1.5,1.32v0.47l-3.07-0.3v-0.08c0-2.5,1.9-4.42,4.57-4.42h0.6
		c2.67,0,4.57,1.92,4.57,4.42v8.57h-1.42L237.06,155.51z M232.56,153.08c0,0.67,0.52,1.2,1.3,1.2h1.15c0.67,0,1.27-0.5,1.27-1.17
		v-1.3h-2.42c-0.78,0-1.3,0.53-1.3,1.2V153.08z"/>
	<g>
		<path d="M48.37,190.12v3.73h4.06v1.2h-4.06v3.84h4.54v1.2h-6v-11.17h6v1.2H48.37z"/>
	</g>
	<g>
		<path d="M59.7,200.08l-2.08-3.26l-2,3.26H54.1l2.83-4.35l-2.83-4.42h1.65l2.08,3.25l1.98-3.25h1.52l-2.82,4.34l2.83,4.43H59.7z"/>
	</g>
	<g>
		<path d="M65.53,191.67c0.57-0.34,1.24-0.5,1.99-0.5c0.78,0,1.49,0.19,2.12,0.56c0.63,0.37,1.13,0.9,1.5,1.58
			c0.36,0.68,0.54,1.46,0.54,2.36c0,0.89-0.18,1.67-0.54,2.37s-0.86,1.23-1.5,1.62c-0.63,0.38-1.34,0.58-2.12,0.58
			c-0.75,0-1.41-0.17-1.98-0.5c-0.57-0.34-1.01-0.75-1.3-1.26v5.78h-1.46v-12.93h1.46v1.62C64.53,192.43,64.96,192.01,65.53,191.67z
			 M69.79,193.94c-0.27-0.49-0.63-0.86-1.08-1.12c-0.45-0.26-0.95-0.38-1.5-0.38c-0.53,0-1.03,0.13-1.48,0.39
			c-0.45,0.26-0.82,0.64-1.09,1.14c-0.27,0.5-0.41,1.07-0.41,1.72c0,0.66,0.14,1.24,0.41,1.74c0.27,0.5,0.63,0.88,1.09,1.14
			c0.45,0.26,0.95,0.39,1.48,0.39c0.54,0,1.04-0.13,1.5-0.39c0.45-0.26,0.81-0.64,1.08-1.14s0.4-1.08,0.4-1.75
			C70.19,195.01,70.06,194.43,69.79,193.94z"/>
	</g>
	<g>
		<path d="M75.06,188.24v11.84H73.6v-11.84H75.06z"/>
	</g>
	<g>
		<path d="M79.13,199.67c-0.67-0.37-1.19-0.9-1.57-1.59c-0.38-0.69-0.57-1.49-0.57-2.39c0-0.9,0.19-1.69,0.58-2.38
			c0.39-0.69,0.92-1.22,1.59-1.58c0.67-0.37,1.42-0.55,2.26-0.55s1.58,0.18,2.26,0.55c0.67,0.37,1.2,0.89,1.59,1.58
			s0.58,1.48,0.58,2.38c0,0.91-0.2,1.7-0.6,2.39c-0.4,0.69-0.94,1.22-1.62,1.59s-1.44,0.56-2.27,0.56
			C80.54,200.23,79.8,200.04,79.13,199.67z M82.83,198.58c0.46-0.25,0.83-0.61,1.11-1.1c0.28-0.49,0.42-1.09,0.42-1.79
			c0-0.7-0.14-1.3-0.42-1.79c-0.28-0.49-0.64-0.86-1.09-1.1c-0.45-0.24-0.93-0.36-1.46-0.36c-0.53,0-1.02,0.12-1.46,0.36
			s-0.8,0.61-1.06,1.1c-0.27,0.49-0.4,1.09-0.4,1.79c0,0.71,0.13,1.32,0.39,1.81c0.26,0.49,0.61,0.86,1.05,1.1s0.92,0.36,1.44,0.36
			S82.37,198.82,82.83,198.58z"/>
	</g>
	<g>
		<path d="M90.33,191.57c0.47-0.28,1.05-0.42,1.74-0.42v1.5h-0.38c-1.63,0-2.45,0.89-2.45,2.66v4.77h-1.46v-8.77h1.46v1.42
			C89.49,192.24,89.85,191.85,90.33,191.57z"/>
	</g>
	<g>
		<path d="M93.75,193.31c0.36-0.68,0.86-1.2,1.5-1.58c0.63-0.37,1.34-0.56,2.12-0.56c0.77,0,1.43,0.17,2,0.5
			c0.57,0.33,0.99,0.75,1.26,1.25v-1.6h1.47v8.77h-1.47v-1.63c-0.29,0.51-0.72,0.94-1.29,1.27c-0.57,0.34-1.24,0.5-1.99,0.5
			c-0.78,0-1.48-0.19-2.11-0.58c-0.63-0.38-1.13-0.92-1.49-1.62c-0.36-0.69-0.54-1.48-0.54-2.37
			C93.2,194.77,93.38,193.98,93.75,193.31z M100.23,193.96c-0.27-0.49-0.63-0.87-1.08-1.13s-0.95-0.39-1.5-0.39
			s-1.04,0.13-1.49,0.38c-0.45,0.26-0.81,0.63-1.07,1.12c-0.27,0.49-0.4,1.07-0.4,1.73c0,0.67,0.13,1.26,0.4,1.75
			s0.62,0.88,1.07,1.14c0.45,0.26,0.94,0.39,1.49,0.39s1.04-0.13,1.5-0.39c0.45-0.26,0.81-0.64,1.08-1.14s0.4-1.07,0.4-1.74
			C100.63,195.02,100.49,194.45,100.23,193.96z"/>
	</g>
	<g>
		<path d="M104.56,193.31c0.36-0.68,0.87-1.2,1.51-1.58c0.65-0.37,1.38-0.56,2.22-0.56c1.08,0,1.96,0.26,2.66,0.78
			c0.7,0.52,1.16,1.25,1.38,2.18h-1.57c-0.15-0.53-0.44-0.95-0.87-1.26c-0.43-0.31-0.97-0.46-1.61-0.46c-0.83,0-1.5,0.29-2.02,0.86
			c-0.51,0.57-0.77,1.38-0.77,2.42c0,1.06,0.26,1.87,0.77,2.45c0.51,0.58,1.18,0.86,2.02,0.86c0.64,0,1.17-0.15,1.6-0.45
			s0.72-0.73,0.88-1.28h1.57c-0.23,0.9-0.7,1.61-1.41,2.15c-0.7,0.54-1.58,0.81-2.64,0.81c-0.83,0-1.57-0.19-2.22-0.56
			s-1.15-0.9-1.51-1.58c-0.36-0.68-0.54-1.48-0.54-2.4C104.02,194.78,104.2,193.98,104.56,193.31z"/>
	</g>
	<g>
		<path d="M114.32,189.6c-0.19-0.19-0.29-0.43-0.29-0.7s0.1-0.51,0.29-0.7c0.19-0.19,0.43-0.29,0.7-0.29c0.27,0,0.49,0.1,0.68,0.29
			c0.19,0.19,0.28,0.43,0.28,0.7s-0.09,0.51-0.28,0.7c-0.19,0.19-0.41,0.29-0.68,0.29C114.75,189.89,114.51,189.79,114.32,189.6z
			 M115.73,191.32v8.77h-1.46v-8.77H115.73z"/>
	</g>
	<g>
		<path d="M119.8,199.67c-0.67-0.37-1.19-0.9-1.57-1.59c-0.38-0.69-0.57-1.49-0.57-2.39c0-0.9,0.19-1.69,0.58-2.38
			c0.39-0.69,0.92-1.22,1.59-1.58c0.67-0.37,1.42-0.55,2.26-0.55s1.58,0.18,2.26,0.55c0.67,0.37,1.2,0.89,1.59,1.58
			s0.58,1.48,0.58,2.38c0,0.91-0.2,1.7-0.6,2.39c-0.4,0.69-0.94,1.22-1.62,1.59s-1.44,0.56-2.27,0.56
			C121.21,200.23,120.47,200.04,119.8,199.67z M123.5,198.58c0.46-0.25,0.83-0.61,1.11-1.1c0.28-0.49,0.42-1.09,0.42-1.79
			c0-0.7-0.14-1.3-0.42-1.79c-0.28-0.49-0.64-0.86-1.09-1.1c-0.45-0.24-0.93-0.36-1.46-0.36c-0.53,0-1.02,0.12-1.46,0.36
			s-0.8,0.61-1.06,1.1c-0.27,0.49-0.4,1.09-0.4,1.79c0,0.71,0.13,1.32,0.39,1.81c0.26,0.49,0.61,0.86,1.05,1.1s0.92,0.36,1.44,0.36
			S123.05,198.82,123.5,198.58z M123.66,188.72l-3.41,1.82v-1.09l3.41-2V188.72z"/>
	</g>
	<g>
		<path d="M135.31,192.12c0.66,0.65,0.99,1.58,0.99,2.79v5.17h-1.44v-4.96c0-0.88-0.22-1.54-0.66-2.01s-1.04-0.7-1.79-0.7
			c-0.77,0-1.38,0.24-1.83,0.72c-0.45,0.48-0.68,1.18-0.68,2.1v4.85h-1.46v-8.77h1.46v1.25c0.29-0.45,0.68-0.79,1.18-1.04
			c0.5-0.25,1.04-0.37,1.64-0.37C133.79,191.16,134.65,191.48,135.31,192.12z"/>
	</g>
	<g>
		<path d="M142.96,193.31c0.36-0.68,0.86-1.2,1.5-1.58c0.63-0.37,1.35-0.56,2.14-0.56c0.68,0,1.32,0.16,1.9,0.47
			c0.59,0.32,1.04,0.73,1.34,1.24v-4.64h1.47v11.84h-1.47v-1.65c-0.29,0.52-0.71,0.95-1.28,1.29s-1.23,0.5-1.98,0.5
			c-0.78,0-1.49-0.19-2.12-0.58c-0.63-0.38-1.13-0.92-1.5-1.62c-0.36-0.69-0.54-1.48-0.54-2.37
			C142.42,194.77,142.6,193.98,142.96,193.31z M149.44,193.96c-0.27-0.49-0.63-0.87-1.08-1.13s-0.95-0.39-1.5-0.39
			s-1.04,0.13-1.49,0.38c-0.45,0.26-0.81,0.63-1.07,1.12c-0.27,0.49-0.4,1.07-0.4,1.73c0,0.67,0.13,1.26,0.4,1.75
			s0.62,0.88,1.07,1.14c0.45,0.26,0.94,0.39,1.49,0.39s1.04-0.13,1.5-0.39c0.45-0.26,0.81-0.64,1.08-1.14s0.4-1.07,0.4-1.74
			C149.84,195.02,149.71,194.45,149.44,193.96z"/>
	</g>
	<g>
		<path d="M161.73,196.24h-7.01c0.05,0.86,0.35,1.54,0.89,2.02c0.54,0.49,1.19,0.73,1.96,0.73c0.63,0,1.15-0.15,1.58-0.44
			c0.42-0.29,0.72-0.68,0.89-1.18h1.57c-0.23,0.84-0.7,1.53-1.41,2.06c-0.7,0.53-1.58,0.79-2.62,0.79c-0.83,0-1.58-0.19-2.23-0.56
			s-1.17-0.9-1.54-1.59c-0.37-0.69-0.56-1.49-0.56-2.39c0-0.91,0.18-1.7,0.54-2.38c0.36-0.68,0.87-1.21,1.53-1.58
			c0.66-0.37,1.41-0.55,2.26-0.55c0.83,0,1.57,0.18,2.21,0.54c0.64,0.36,1.13,0.86,1.48,1.5s0.52,1.35,0.52,2.15
			C161.78,195.64,161.76,195.93,161.73,196.24z M159.91,193.63c-0.25-0.4-0.58-0.7-1-0.91c-0.42-0.21-0.89-0.31-1.4-0.31
			c-0.74,0-1.36,0.23-1.88,0.7c-0.52,0.47-0.81,1.12-0.89,1.95h5.54C160.27,194.5,160.15,194.03,159.91,193.63z"/>
	</g>
	<g>
		<path d="M165.15,188.24v11.84h-1.46v-11.84H165.15z"/>
	</g>
	<g>
		<path d="M173.68,192.51v5.17c0,0.43,0.09,0.73,0.27,0.9c0.18,0.18,0.5,0.26,0.94,0.26h1.07v1.23h-1.31
			c-0.81,0-1.42-0.19-1.82-0.56c-0.41-0.37-0.61-0.99-0.61-1.84v-5.17h-1.14v-1.2h1.14v-2.21h1.46v2.21h2.29v1.2H173.68z"/>
	</g>
	<g>
		<path d="M185.68,196.24h-7.01c0.05,0.86,0.35,1.54,0.89,2.02c0.54,0.49,1.19,0.73,1.96,0.73c0.63,0,1.15-0.15,1.58-0.44
			c0.42-0.29,0.72-0.68,0.89-1.18h1.57c-0.23,0.84-0.7,1.53-1.41,2.06c-0.7,0.53-1.58,0.79-2.62,0.79c-0.83,0-1.58-0.19-2.23-0.56
			s-1.17-0.9-1.54-1.59c-0.37-0.69-0.56-1.49-0.56-2.39c0-0.91,0.18-1.7,0.54-2.38c0.36-0.68,0.87-1.21,1.53-1.58
			c0.66-0.37,1.41-0.55,2.26-0.55c0.83,0,1.57,0.18,2.21,0.54c0.64,0.36,1.13,0.86,1.48,1.5s0.52,1.35,0.52,2.15
			C185.73,195.64,185.71,195.93,185.68,196.24z M183.86,193.63c-0.25-0.4-0.58-0.7-1-0.91c-0.42-0.21-0.89-0.31-1.4-0.31
			c-0.74,0-1.36,0.23-1.88,0.7c-0.52,0.47-0.81,1.12-0.89,1.95h5.54C184.22,194.5,184.1,194.03,183.86,193.63z"/>
	</g>
	<g>
		<path d="M189.15,201.99c0,0.78-0.2,1.35-0.59,1.71c-0.39,0.36-0.97,0.54-1.73,0.54h-0.85v-1.23h0.61c0.41,0,0.69-0.08,0.86-0.24
			c0.17-0.16,0.25-0.43,0.25-0.82v-10.64h1.46V201.99z M187.74,189.6c-0.19-0.19-0.28-0.43-0.28-0.7s0.09-0.51,0.28-0.7
			c0.19-0.19,0.42-0.29,0.7-0.29s0.51,0.1,0.7,0.29c0.19,0.19,0.28,0.43,0.28,0.7s-0.09,0.51-0.28,0.7
			c-0.19,0.19-0.42,0.29-0.7,0.29S187.92,189.79,187.74,189.6z"/>
	</g>
	<g>
		<path d="M191.66,189.6c-0.19-0.19-0.29-0.43-0.29-0.7s0.1-0.51,0.29-0.7c0.19-0.19,0.43-0.29,0.7-0.29c0.27,0,0.49,0.1,0.68,0.29
			c0.19,0.19,0.28,0.43,0.28,0.7s-0.09,0.51-0.28,0.7c-0.19,0.19-0.41,0.29-0.68,0.29C192.09,189.89,191.86,189.79,191.66,189.6z
			 M193.07,191.32v8.77h-1.46v-8.77H193.07z"/>
	</g>
	<g>
		<path d="M195.55,193.31c0.36-0.68,0.86-1.2,1.5-1.58c0.63-0.37,1.35-0.56,2.14-0.56c0.68,0,1.32,0.16,1.9,0.47
			c0.59,0.32,1.04,0.73,1.34,1.24v-4.64h1.47v11.84h-1.47v-1.65c-0.29,0.52-0.71,0.95-1.28,1.29s-1.23,0.5-1.98,0.5
			c-0.78,0-1.49-0.19-2.12-0.58c-0.63-0.38-1.13-0.92-1.5-1.62c-0.36-0.69-0.54-1.48-0.54-2.37
			C195.01,194.77,195.19,193.98,195.55,193.31z M202.03,193.96c-0.27-0.49-0.63-0.87-1.08-1.13s-0.95-0.39-1.5-0.39
			s-1.04,0.13-1.49,0.38c-0.45,0.26-0.81,0.63-1.07,1.12c-0.27,0.49-0.4,1.07-0.4,1.73c0,0.67,0.13,1.26,0.4,1.75
			s0.62,0.88,1.07,1.14c0.45,0.26,0.94,0.39,1.49,0.39s1.04-0.13,1.5-0.39c0.45-0.26,0.81-0.64,1.08-1.14s0.4-1.07,0.4-1.74
			C202.43,195.02,202.3,194.45,202.03,193.96z"/>
	</g>
	<g>
		<path d="M207.96,199.67c-0.67-0.37-1.19-0.9-1.57-1.59c-0.38-0.69-0.57-1.49-0.57-2.39c0-0.9,0.19-1.69,0.58-2.38
			c0.39-0.69,0.92-1.22,1.59-1.58c0.67-0.37,1.42-0.55,2.26-0.55s1.58,0.18,2.26,0.55c0.67,0.37,1.2,0.89,1.59,1.58
			s0.58,1.48,0.58,2.38c0,0.91-0.2,1.7-0.6,2.39c-0.4,0.69-0.94,1.22-1.62,1.59s-1.44,0.56-2.27,0.56
			C209.37,200.23,208.63,200.04,207.96,199.67z M211.66,198.58c0.46-0.25,0.83-0.61,1.11-1.1c0.28-0.49,0.42-1.09,0.42-1.79
			c0-0.7-0.14-1.3-0.42-1.79c-0.28-0.49-0.64-0.86-1.09-1.1c-0.45-0.24-0.93-0.36-1.46-0.36c-0.53,0-1.02,0.12-1.46,0.36
			s-0.8,0.61-1.06,1.1c-0.27,0.49-0.4,1.09-0.4,1.79c0,0.71,0.13,1.32,0.39,1.81c0.26,0.49,0.61,0.86,1.05,1.1s0.92,0.36,1.44,0.36
			S211.2,198.82,211.66,198.58z"/>
	</g>
	<g>
		<path d="M220.88,193.31c0.36-0.68,0.86-1.2,1.5-1.58c0.63-0.37,1.35-0.56,2.14-0.56c0.68,0,1.32,0.16,1.9,0.47
			c0.59,0.32,1.04,0.73,1.34,1.24v-4.64h1.47v11.84h-1.47v-1.65c-0.29,0.52-0.71,0.95-1.28,1.29s-1.23,0.5-1.98,0.5
			c-0.78,0-1.49-0.19-2.12-0.58c-0.63-0.38-1.13-0.92-1.5-1.62c-0.36-0.69-0.54-1.48-0.54-2.37
			C220.34,194.77,220.52,193.98,220.88,193.31z M227.36,193.96c-0.27-0.49-0.63-0.87-1.08-1.13s-0.95-0.39-1.5-0.39
			s-1.04,0.13-1.49,0.38c-0.45,0.26-0.81,0.63-1.07,1.12c-0.27,0.49-0.4,1.07-0.4,1.73c0,0.67,0.13,1.26,0.4,1.75
			s0.62,0.88,1.07,1.14c0.45,0.26,0.94,0.39,1.49,0.39s1.04-0.13,1.5-0.39c0.45-0.26,0.81-0.64,1.08-1.14s0.4-1.07,0.4-1.74
			C227.76,195.02,227.63,194.45,227.36,193.96z"/>
	</g>
	<g>
		<path d="M239.65,196.24h-7.01c0.05,0.86,0.35,1.54,0.89,2.02c0.54,0.49,1.19,0.73,1.96,0.73c0.63,0,1.15-0.15,1.58-0.44
			c0.42-0.29,0.72-0.68,0.89-1.18h1.57c-0.23,0.84-0.7,1.53-1.41,2.06c-0.7,0.53-1.58,0.79-2.62,0.79c-0.83,0-1.58-0.19-2.23-0.56
			s-1.17-0.9-1.54-1.59c-0.37-0.69-0.56-1.49-0.56-2.39c0-0.91,0.18-1.7,0.54-2.38c0.36-0.68,0.87-1.21,1.53-1.58
			c0.66-0.37,1.41-0.55,2.26-0.55c0.83,0,1.57,0.18,2.21,0.54c0.64,0.36,1.13,0.86,1.48,1.5s0.52,1.35,0.52,2.15
			C239.7,195.64,239.68,195.93,239.65,196.24z M237.82,193.63c-0.25-0.4-0.58-0.7-1-0.91c-0.42-0.21-0.89-0.31-1.4-0.31
			c-0.74,0-1.36,0.23-1.88,0.7c-0.52,0.47-0.81,1.12-0.89,1.95h5.54C238.19,194.5,238.07,194.03,237.82,193.63z"/>
	</g>
	<g>
		<path d="M243.07,188.24v11.84h-1.46v-11.84H243.07z"/>
	</g>
	<g>
		<path d="M50.89,217.31c0.36-0.68,0.87-1.2,1.51-1.58c0.65-0.37,1.38-0.56,2.22-0.56c1.08,0,1.96,0.26,2.66,0.78
			c0.7,0.52,1.16,1.25,1.38,2.18H57.1c-0.15-0.53-0.44-0.95-0.87-1.26c-0.43-0.31-0.97-0.46-1.61-0.46c-0.83,0-1.5,0.29-2.02,0.86
			c-0.51,0.57-0.77,1.38-0.77,2.42c0,1.06,0.26,1.87,0.77,2.45c0.51,0.58,1.18,0.86,2.02,0.86c0.64,0,1.17-0.15,1.6-0.45
			s0.72-0.73,0.88-1.28h1.57c-0.23,0.9-0.7,1.61-1.41,2.15c-0.7,0.54-1.58,0.81-2.64,0.81c-0.83,0-1.57-0.19-2.22-0.56
			s-1.15-0.9-1.51-1.58c-0.36-0.68-0.54-1.48-0.54-2.4C50.35,218.78,50.53,217.98,50.89,217.31z"/>
	</g>
	<g>
		<path d="M68.38,215.32v8.77h-1.46v-1.3c-0.28,0.45-0.66,0.8-1.16,1.05c-0.5,0.25-1.04,0.38-1.64,0.38c-0.68,0-1.3-0.14-1.84-0.42
			s-0.97-0.71-1.29-1.27c-0.31-0.56-0.47-1.25-0.47-2.06v-5.14h1.44v4.94c0,0.86,0.22,1.53,0.66,1.99s1.03,0.7,1.79,0.7
			c0.78,0,1.39-0.24,1.84-0.72c0.45-0.48,0.67-1.18,0.67-2.1v-4.82H68.38z"/>
	</g>
	<g>
		<path d="M78.79,220.24h-7.01c0.05,0.86,0.35,1.54,0.89,2.02c0.54,0.49,1.19,0.73,1.96,0.73c0.63,0,1.15-0.15,1.58-0.44
			c0.42-0.29,0.72-0.68,0.89-1.18h1.57c-0.23,0.84-0.7,1.53-1.41,2.06c-0.7,0.53-1.58,0.79-2.62,0.79c-0.83,0-1.58-0.19-2.23-0.56
			s-1.17-0.9-1.54-1.59c-0.37-0.69-0.56-1.49-0.56-2.39c0-0.91,0.18-1.7,0.54-2.38c0.36-0.68,0.87-1.21,1.53-1.58
			c0.66-0.37,1.41-0.55,2.26-0.55c0.83,0,1.57,0.18,2.21,0.54c0.64,0.36,1.13,0.86,1.48,1.5s0.52,1.35,0.52,2.15
			C78.84,219.64,78.83,219.93,78.79,220.24z M76.97,217.63c-0.25-0.4-0.58-0.7-1-0.91c-0.42-0.21-0.89-0.31-1.4-0.31
			c-0.74,0-1.36,0.23-1.88,0.7c-0.52,0.47-0.81,1.12-0.89,1.95h5.54C77.34,218.5,77.22,218.03,76.97,217.63z"/>
	</g>
	<g>
		<path d="M82.22,212.24v11.84h-1.46v-11.84H82.22z"/>
	</g>
	<g>
		<path d="M86.15,212.24v11.84H84.7v-11.84H86.15z"/>
	</g>
	<g>
		<path d="M90.23,223.67c-0.67-0.37-1.19-0.9-1.57-1.59c-0.38-0.69-0.57-1.49-0.57-2.39c0-0.9,0.19-1.69,0.58-2.38
			c0.39-0.69,0.92-1.22,1.59-1.58c0.67-0.37,1.42-0.55,2.26-0.55s1.58,0.18,2.26,0.55c0.67,0.37,1.2,0.89,1.59,1.58
			s0.58,1.48,0.58,2.38c0,0.91-0.2,1.7-0.6,2.39c-0.4,0.69-0.94,1.22-1.62,1.59s-1.44,0.56-2.27,0.56
			C91.64,224.23,90.89,224.04,90.23,223.67z M93.93,222.58c0.46-0.25,0.83-0.61,1.11-1.1c0.28-0.49,0.42-1.09,0.42-1.79
			c0-0.7-0.14-1.3-0.42-1.79c-0.28-0.49-0.64-0.86-1.09-1.1c-0.45-0.24-0.93-0.36-1.46-0.36c-0.53,0-1.02,0.12-1.46,0.36
			s-0.8,0.61-1.06,1.1c-0.27,0.49-0.4,1.09-0.4,1.79c0,0.71,0.13,1.32,0.39,1.81c0.26,0.49,0.61,0.86,1.05,1.1s0.92,0.36,1.44,0.36
			S93.47,222.82,93.93,222.58z"/>
	</g>
	<g>
		<path d="M110.92,215.32v8.77h-1.46v-1.3c-0.28,0.45-0.66,0.8-1.16,1.05c-0.5,0.25-1.04,0.38-1.64,0.38c-0.68,0-1.3-0.14-1.84-0.42
			s-0.97-0.71-1.29-1.27c-0.31-0.56-0.47-1.25-0.47-2.06v-5.14h1.44v4.94c0,0.86,0.22,1.53,0.66,1.99s1.03,0.7,1.79,0.7
			c0.78,0,1.39-0.24,1.84-0.72c0.45-0.48,0.67-1.18,0.67-2.1v-4.82H110.92z"/>
	</g>
	<g>
		<path d="M115.16,216.51v5.17c0,0.43,0.09,0.73,0.27,0.9c0.18,0.18,0.5,0.26,0.94,0.26h1.07v1.23h-1.31
			c-0.81,0-1.42-0.19-1.82-0.56c-0.41-0.37-0.61-0.99-0.61-1.84v-5.17h-1.14v-1.2h1.14v-2.21h1.46v2.21h2.29v1.2H115.16z"/>
	</g>
	<g>
		<path d="M127.16,220.24h-7.01c0.05,0.86,0.35,1.54,0.89,2.02c0.54,0.49,1.19,0.73,1.96,0.73c0.63,0,1.15-0.15,1.58-0.44
			c0.42-0.29,0.72-0.68,0.89-1.18h1.57c-0.23,0.84-0.7,1.53-1.41,2.06c-0.7,0.53-1.58,0.79-2.62,0.79c-0.83,0-1.58-0.19-2.23-0.56
			s-1.17-0.9-1.54-1.59c-0.37-0.69-0.56-1.49-0.56-2.39c0-0.91,0.18-1.7,0.54-2.38c0.36-0.68,0.87-1.21,1.53-1.58
			c0.66-0.37,1.41-0.55,2.26-0.55c0.83,0,1.57,0.18,2.21,0.54c0.64,0.36,1.13,0.86,1.48,1.5s0.52,1.35,0.52,2.15
			C127.21,219.64,127.19,219.93,127.16,220.24z M125.34,217.63c-0.25-0.4-0.58-0.7-1-0.91c-0.42-0.21-0.89-0.31-1.4-0.31
			c-0.74,0-1.36,0.23-1.88,0.7c-0.52,0.47-0.81,1.12-0.89,1.95h5.54C125.7,218.5,125.58,218.03,125.34,217.63z"/>
	</g>
	<g>
		<path d="M131.68,215.57c0.47-0.28,1.05-0.42,1.74-0.42v1.5h-0.38c-1.63,0-2.45,0.89-2.45,2.66v4.77h-1.46v-8.77h1.46v1.42
			C130.84,216.24,131.21,215.85,131.68,215.57z"/>
	</g>
	<g>
		<path d="M135.14,213.6c-0.19-0.19-0.29-0.43-0.29-0.7s0.1-0.51,0.29-0.7c0.19-0.19,0.43-0.29,0.7-0.29c0.27,0,0.49,0.1,0.68,0.29
			c0.19,0.19,0.28,0.43,0.28,0.7s-0.09,0.51-0.28,0.7c-0.19,0.19-0.41,0.29-0.68,0.29C135.57,213.89,135.34,213.79,135.14,213.6z
			 M136.55,215.32v8.77h-1.46v-8.77H136.55z"/>
	</g>
	<g>
		<path d="M145.9,216.12c0.66,0.65,0.99,1.58,0.99,2.79v5.17h-1.44v-4.96c0-0.88-0.22-1.54-0.66-2.01s-1.04-0.7-1.79-0.7
			c-0.77,0-1.38,0.24-1.83,0.72c-0.45,0.48-0.68,1.18-0.68,2.1v4.85h-1.46v-8.77h1.46v1.25c0.29-0.45,0.68-0.79,1.18-1.04
			c0.5-0.25,1.04-0.37,1.64-0.37C144.37,215.16,145.23,215.48,145.9,216.12z"/>
	</g>
	<g>
		<path d="M150.86,223.67c-0.67-0.37-1.19-0.9-1.57-1.59c-0.38-0.69-0.57-1.49-0.57-2.39c0-0.9,0.19-1.69,0.58-2.38
			c0.39-0.69,0.92-1.22,1.59-1.58c0.67-0.37,1.42-0.55,2.26-0.55s1.58,0.18,2.26,0.55c0.67,0.37,1.2,0.89,1.59,1.58
			s0.58,1.48,0.58,2.38c0,0.91-0.2,1.7-0.6,2.39c-0.4,0.69-0.94,1.22-1.62,1.59s-1.44,0.56-2.27,0.56
			C152.27,224.23,151.53,224.04,150.86,223.67z M154.57,222.58c0.46-0.25,0.83-0.61,1.11-1.1c0.28-0.49,0.42-1.09,0.42-1.79
			c0-0.7-0.14-1.3-0.42-1.79c-0.28-0.49-0.64-0.86-1.09-1.1c-0.45-0.24-0.93-0.36-1.46-0.36c-0.53,0-1.02,0.12-1.46,0.36
			s-0.8,0.61-1.06,1.1c-0.27,0.49-0.4,1.09-0.4,1.79c0,0.71,0.13,1.32,0.39,1.81c0.26,0.49,0.61,0.86,1.05,1.1s0.92,0.36,1.44,0.36
			S154.11,222.82,154.57,222.58z"/>
	</g>
	<g>
		<path d="M161.02,222.07l-1.79,4.3h-0.98l1.17-4.3H161.02z"/>
	</g>
	<g>
		<path d="M168.41,212.24v11.84h-1.46v-11.84H168.41z"/>
	</g>
	<g>
		<path d="M170.89,217.31c0.36-0.68,0.86-1.2,1.5-1.58c0.63-0.37,1.34-0.56,2.12-0.56c0.77,0,1.43,0.17,2,0.5
			c0.57,0.33,0.99,0.75,1.26,1.25v-1.6h1.47v8.77h-1.47v-1.63c-0.29,0.51-0.72,0.94-1.29,1.27c-0.57,0.34-1.24,0.5-1.99,0.5
			c-0.78,0-1.48-0.19-2.11-0.58c-0.63-0.38-1.13-0.92-1.49-1.62c-0.36-0.69-0.54-1.48-0.54-2.37
			C170.35,218.77,170.53,217.98,170.89,217.31z M177.37,217.96c-0.27-0.49-0.63-0.87-1.08-1.13s-0.95-0.39-1.5-0.39
			s-1.04,0.13-1.49,0.38c-0.45,0.26-0.81,0.63-1.07,1.12c-0.27,0.49-0.4,1.07-0.4,1.73c0,0.67,0.13,1.26,0.4,1.75
			s0.62,0.88,1.07,1.14c0.45,0.26,0.94,0.39,1.49,0.39s1.04-0.13,1.5-0.39c0.45-0.26,0.81-0.64,1.08-1.14s0.4-1.07,0.4-1.74
			C177.77,219.02,177.64,218.45,177.37,217.96z"/>
	</g>
	<g>
		<path d="M189.24,222.74l2.72-7.42h1.55l-3.44,8.77h-1.7l-3.44-8.77h1.57L189.24,222.74z"/>
	</g>
	<g>
		<path d="M194.95,217.31c0.36-0.68,0.86-1.2,1.5-1.58c0.63-0.37,1.34-0.56,2.12-0.56c0.77,0,1.43,0.17,2,0.5
			c0.57,0.33,0.99,0.75,1.26,1.25v-1.6h1.47v8.77h-1.47v-1.63c-0.29,0.51-0.72,0.94-1.29,1.27c-0.57,0.34-1.24,0.5-1.99,0.5
			c-0.78,0-1.48-0.19-2.11-0.58c-0.63-0.38-1.13-0.92-1.49-1.62c-0.36-0.69-0.54-1.48-0.54-2.37
			C194.41,218.77,194.59,217.98,194.95,217.31z M201.43,217.96c-0.27-0.49-0.63-0.87-1.08-1.13s-0.95-0.39-1.5-0.39
			s-1.04,0.13-1.49,0.38c-0.45,0.26-0.81,0.63-1.07,1.12c-0.27,0.49-0.4,1.07-0.4,1.73c0,0.67,0.13,1.26,0.4,1.75
			s0.62,0.88,1.07,1.14c0.45,0.26,0.94,0.39,1.49,0.39s1.04-0.13,1.5-0.39c0.45-0.26,0.81-0.64,1.08-1.14s0.4-1.07,0.4-1.74
			C201.83,219.02,201.7,218.45,201.43,217.96z"/>
	</g>
	<g>
		<path d="M211.38,215.67c0.57,0.33,1,0.75,1.27,1.25v-1.6h1.47v8.96c0,0.8-0.17,1.51-0.51,2.14c-0.34,0.62-0.83,1.11-1.46,1.46
			c-0.63,0.35-1.37,0.53-2.22,0.53c-1.15,0-2.11-0.27-2.88-0.82c-0.77-0.54-1.22-1.29-1.36-2.22h1.44c0.16,0.53,0.49,0.96,0.99,1.29
			c0.5,0.33,1.1,0.49,1.81,0.49c0.8,0,1.45-0.25,1.96-0.75c0.51-0.5,0.76-1.21,0.76-2.11v-1.84c-0.29,0.51-0.71,0.94-1.28,1.28
			c-0.57,0.34-1.23,0.51-1.98,0.51c-0.78,0-1.49-0.19-2.12-0.58c-0.63-0.38-1.13-0.92-1.5-1.62c-0.36-0.69-0.54-1.48-0.54-2.37
			c0-0.9,0.18-1.68,0.54-2.36c0.36-0.68,0.86-1.2,1.5-1.58c0.63-0.37,1.34-0.56,2.12-0.56
			C210.14,215.17,210.81,215.34,211.38,215.67z M212.25,217.96c-0.27-0.49-0.63-0.87-1.08-1.13s-0.95-0.39-1.5-0.39
			s-1.04,0.13-1.49,0.38c-0.45,0.26-0.81,0.63-1.07,1.12c-0.27,0.49-0.4,1.07-0.4,1.73c0,0.67,0.13,1.26,0.4,1.75
			s0.62,0.88,1.07,1.14c0.45,0.26,0.94,0.39,1.49,0.39s1.04-0.13,1.5-0.39c0.45-0.26,0.81-0.64,1.08-1.14s0.4-1.07,0.4-1.74
			C212.65,219.02,212.51,218.45,212.25,217.96z"/>
	</g>
	<g>
		<path d="M216.63,213.6c-0.19-0.19-0.29-0.43-0.29-0.7s0.1-0.51,0.29-0.7c0.19-0.19,0.43-0.29,0.7-0.29c0.27,0,0.49,0.1,0.68,0.29
			c0.19,0.19,0.28,0.43,0.28,0.7s-0.09,0.51-0.28,0.7c-0.19,0.19-0.41,0.29-0.68,0.29C217.06,213.89,216.82,213.79,216.63,213.6z
			 M218.04,215.32v8.77h-1.46v-8.77H218.04z"/>
	</g>
	<g>
		<path d="M227.38,216.12c0.66,0.65,0.99,1.58,0.99,2.79v5.17h-1.44v-4.96c0-0.88-0.22-1.54-0.66-2.01s-1.04-0.7-1.79-0.7
			c-0.77,0-1.38,0.24-1.83,0.72c-0.45,0.48-0.68,1.18-0.68,2.1v4.85h-1.46v-8.77h1.46v1.25c0.29-0.45,0.68-0.79,1.18-1.04
			c0.5-0.25,1.04-0.37,1.64-0.37C225.86,215.16,226.72,215.48,227.38,216.12z"/>
	</g>
	<g>
		<path d="M230.76,217.31c0.36-0.68,0.86-1.2,1.5-1.58c0.63-0.37,1.34-0.56,2.12-0.56c0.77,0,1.43,0.17,2,0.5
			c0.57,0.33,0.99,0.75,1.26,1.25v-1.6h1.47v8.77h-1.47v-1.63c-0.29,0.51-0.72,0.94-1.29,1.27c-0.57,0.34-1.24,0.5-1.99,0.5
			c-0.78,0-1.48-0.19-2.11-0.58c-0.63-0.38-1.13-0.92-1.49-1.62c-0.36-0.69-0.54-1.48-0.54-2.37
			C230.22,218.77,230.4,217.98,230.76,217.31z M237.24,217.96c-0.27-0.49-0.63-0.87-1.08-1.13s-0.95-0.39-1.5-0.39
			s-1.04,0.13-1.49,0.38c-0.45,0.26-0.81,0.63-1.07,1.12c-0.27,0.49-0.4,1.07-0.4,1.73c0,0.67,0.13,1.26,0.4,1.75
			s0.62,0.88,1.07,1.14c0.45,0.26,0.94,0.39,1.49,0.39s1.04-0.13,1.5-0.39c0.45-0.26,0.81-0.64,1.08-1.14s0.4-1.07,0.4-1.74
			C237.64,219.02,237.51,218.45,237.24,217.96z"/>
	</g>
	<g>
		<path d="M73.41,239.32l-5.28,12.9h-1.5l1.73-4.22l-3.54-8.67h1.62l2.75,7.1l2.72-7.1H73.41z"/>
	</g>
	<g>
		<path d="M80.59,236.24v11.84h-1.46v-11.84H80.59z"/>
	</g>
	<g>
		<path d="M83.07,241.31c0.36-0.68,0.86-1.2,1.5-1.58c0.63-0.37,1.34-0.56,2.12-0.56c0.77,0,1.43,0.17,2,0.5
			c0.57,0.33,0.99,0.75,1.26,1.25v-1.6h1.47v8.77h-1.47v-1.63c-0.29,0.51-0.72,0.94-1.29,1.27c-0.57,0.34-1.24,0.5-1.99,0.5
			c-0.78,0-1.48-0.19-2.11-0.58c-0.63-0.38-1.13-0.92-1.49-1.62c-0.36-0.69-0.54-1.48-0.54-2.37
			C82.53,242.77,82.71,241.98,83.07,241.31z M89.55,241.96c-0.27-0.49-0.63-0.87-1.08-1.13s-0.95-0.39-1.5-0.39
			s-1.04,0.13-1.49,0.38c-0.45,0.26-0.81,0.63-1.07,1.12c-0.27,0.49-0.4,1.07-0.4,1.73c0,0.67,0.13,1.26,0.4,1.75
			s0.62,0.88,1.07,1.14c0.45,0.26,0.94,0.39,1.49,0.39s1.04-0.13,1.5-0.39c0.45-0.26,0.81-0.64,1.08-1.14s0.4-1.07,0.4-1.74
			C89.95,243.02,89.82,242.45,89.55,241.96z"/>
	</g>
	<g>
		<path d="M101.42,246.74l2.72-7.42h1.55l-3.44,8.77h-1.7l-3.44-8.77h1.57L101.42,246.74z"/>
	</g>
	<g>
		<path d="M114.91,239.32v8.77h-1.46v-1.3c-0.28,0.45-0.66,0.8-1.16,1.05c-0.5,0.25-1.04,0.38-1.64,0.38c-0.68,0-1.3-0.14-1.84-0.42
			s-0.97-0.71-1.29-1.27c-0.31-0.56-0.47-1.25-0.47-2.06v-5.14h1.44v4.94c0,0.86,0.22,1.53,0.66,1.99s1.03,0.7,1.79,0.7
			c0.78,0,1.39-0.24,1.84-0.72c0.45-0.48,0.67-1.18,0.67-2.1v-4.82H114.91z"/>
	</g>
	<g>
		<path d="M118.83,236.24v11.84h-1.46v-11.84H118.83z"/>
	</g>
	<g>
		<path d="M124.58,246.74l2.72-7.42h1.55l-3.44,8.77h-1.7l-3.44-8.77h1.57L124.58,246.74z"/>
	</g>
	<g>
		<path d="M130.29,241.31c0.36-0.68,0.86-1.2,1.5-1.58c0.63-0.37,1.34-0.56,2.12-0.56c0.77,0,1.43,0.17,2,0.5
			c0.57,0.33,0.99,0.75,1.26,1.25v-1.6h1.47v8.77h-1.47v-1.63c-0.29,0.51-0.72,0.94-1.29,1.27c-0.57,0.34-1.24,0.5-1.99,0.5
			c-0.78,0-1.48-0.19-2.11-0.58c-0.63-0.38-1.13-0.92-1.49-1.62c-0.36-0.69-0.54-1.48-0.54-2.37
			C129.74,242.77,129.92,241.98,130.29,241.31z M136.77,241.96c-0.27-0.49-0.63-0.87-1.08-1.13s-0.95-0.39-1.5-0.39
			s-1.04,0.13-1.49,0.38c-0.45,0.26-0.81,0.63-1.07,1.12c-0.27,0.49-0.4,1.07-0.4,1.73c0,0.67,0.13,1.26,0.4,1.75
			s0.62,0.88,1.07,1.14c0.45,0.26,0.94,0.39,1.49,0.39s1.04-0.13,1.5-0.39c0.45-0.26,0.81-0.64,1.08-1.14s0.4-1.07,0.4-1.74
			C137.17,243.02,137.03,242.45,136.77,241.96z"/>
	</g>
	<g>
		<path d="M148.14,239.67c0.58-0.33,1.23-0.5,1.97-0.5c0.79,0,1.5,0.19,2.13,0.56c0.63,0.37,1.13,0.9,1.49,1.58
			c0.36,0.68,0.54,1.46,0.54,2.36c0,0.89-0.18,1.67-0.54,2.37s-0.86,1.23-1.5,1.62c-0.63,0.38-1.34,0.58-2.12,0.58
			c-0.76,0-1.42-0.17-1.99-0.5c-0.57-0.33-1-0.75-1.29-1.26v1.62h-1.46v-11.84h1.46v4.7C147.13,240.42,147.57,240,148.14,239.67z
			 M152.38,241.94c-0.27-0.49-0.63-0.86-1.08-1.12c-0.45-0.26-0.95-0.38-1.5-0.38c-0.53,0-1.03,0.13-1.48,0.39
			c-0.45,0.26-0.82,0.64-1.09,1.14c-0.27,0.5-0.41,1.07-0.41,1.72c0,0.66,0.14,1.24,0.41,1.74c0.27,0.5,0.63,0.88,1.09,1.14
			c0.45,0.26,0.95,0.39,1.48,0.39c0.54,0,1.04-0.13,1.5-0.39c0.45-0.26,0.81-0.64,1.08-1.14s0.4-1.08,0.4-1.75
			C152.78,243.01,152.65,242.43,152.38,241.94z"/>
	</g>
	<g>
		<path d="M163.97,239.32v8.77h-1.46v-1.3c-0.28,0.45-0.66,0.8-1.16,1.05c-0.5,0.25-1.04,0.38-1.64,0.38c-0.68,0-1.3-0.14-1.84-0.42
			s-0.97-0.71-1.29-1.27c-0.31-0.56-0.47-1.25-0.47-2.06v-5.14h1.44v4.94c0,0.86,0.22,1.53,0.66,1.99s1.03,0.7,1.79,0.7
			c0.78,0,1.39-0.24,1.84-0.72c0.45-0.48,0.67-1.18,0.67-2.1v-4.82H163.97z"/>
	</g>
	<g>
		<path d="M167.73,247.88c-0.53-0.23-0.96-0.55-1.26-0.96c-0.31-0.41-0.48-0.88-0.51-1.42h1.5c0.04,0.44,0.25,0.79,0.62,1.07
			s0.85,0.42,1.45,0.42c0.55,0,0.99-0.12,1.31-0.37s0.48-0.55,0.48-0.93c0-0.38-0.17-0.67-0.51-0.86c-0.34-0.19-0.87-0.37-1.58-0.55
			c-0.65-0.17-1.18-0.34-1.59-0.52c-0.41-0.18-0.76-0.44-1.06-0.78c-0.29-0.35-0.44-0.8-0.44-1.37c0-0.45,0.13-0.86,0.4-1.23
			c0.27-0.37,0.65-0.67,1.14-0.89s1.05-0.33,1.68-0.33c0.97,0,1.75,0.25,2.35,0.74c0.6,0.49,0.92,1.16,0.96,2.02h-1.46
			c-0.03-0.46-0.22-0.83-0.55-1.1s-0.79-0.42-1.35-0.42c-0.52,0-0.94,0.11-1.25,0.34c-0.31,0.22-0.46,0.52-0.46,0.88
			c0,0.29,0.09,0.53,0.28,0.71s0.42,0.34,0.7,0.45c0.28,0.11,0.67,0.24,1.18,0.38c0.63,0.17,1.14,0.34,1.54,0.5s0.73,0.41,1.02,0.74
			c0.28,0.33,0.43,0.76,0.44,1.3c0,0.48-0.13,0.91-0.4,1.3s-0.64,0.69-1.13,0.9c-0.49,0.22-1.04,0.33-1.67,0.33
			C168.86,248.23,168.26,248.11,167.73,247.88z"/>
	</g>
	<g>
		<path d="M174.78,241.31c0.36-0.68,0.87-1.2,1.51-1.58c0.65-0.37,1.38-0.56,2.22-0.56c1.08,0,1.96,0.26,2.66,0.78
			c0.7,0.52,1.16,1.25,1.38,2.18h-1.57c-0.15-0.53-0.44-0.95-0.87-1.26c-0.43-0.31-0.97-0.46-1.61-0.46c-0.83,0-1.5,0.29-2.02,0.86
			c-0.51,0.57-0.77,1.38-0.77,2.42c0,1.06,0.26,1.87,0.77,2.45c0.51,0.58,1.18,0.86,2.02,0.86c0.64,0,1.17-0.15,1.6-0.45
			s0.72-0.73,0.88-1.28h1.57c-0.23,0.9-0.7,1.61-1.41,2.15c-0.7,0.54-1.58,0.81-2.64,0.81c-0.83,0-1.57-0.19-2.22-0.56
			s-1.15-0.9-1.51-1.58c-0.36-0.68-0.54-1.48-0.54-2.4C174.24,242.78,174.42,241.98,174.78,241.31z"/>
	</g>
	<g>
		<path d="M184.5,241.31c0.36-0.68,0.86-1.2,1.5-1.58c0.63-0.37,1.34-0.56,2.12-0.56c0.77,0,1.43,0.17,2,0.5
			c0.57,0.33,0.99,0.75,1.26,1.25v-1.6h1.47v8.77h-1.47v-1.63c-0.29,0.51-0.72,0.94-1.29,1.27c-0.57,0.34-1.24,0.5-1.99,0.5
			c-0.78,0-1.48-0.19-2.11-0.58c-0.63-0.38-1.13-0.92-1.49-1.62c-0.36-0.69-0.54-1.48-0.54-2.37
			C183.95,242.77,184.13,241.98,184.5,241.31z M190.98,241.96c-0.27-0.49-0.63-0.87-1.08-1.13s-0.95-0.39-1.5-0.39
			s-1.04,0.13-1.49,0.38c-0.45,0.26-0.81,0.63-1.07,1.12c-0.27,0.49-0.4,1.07-0.4,1.73c0,0.67,0.13,1.26,0.4,1.75
			s0.62,0.88,1.07,1.14c0.45,0.26,0.94,0.39,1.49,0.39s1.04-0.13,1.5-0.39c0.45-0.26,0.81-0.64,1.08-1.14s0.4-1.07,0.4-1.74
			C191.38,243.02,191.24,242.45,190.98,241.96z"/>
	</g>
	<g>
		<path d="M202.17,240.12c0.66,0.65,0.99,1.58,0.99,2.79v5.17h-1.44v-4.96c0-0.88-0.22-1.54-0.66-2.01s-1.04-0.7-1.79-0.7
			c-0.77,0-1.38,0.24-1.83,0.72c-0.45,0.48-0.68,1.18-0.68,2.1v4.85h-1.46v-8.77h1.46v1.25c0.29-0.45,0.68-0.79,1.18-1.04
			c0.5-0.25,1.04-0.37,1.64-0.37C200.65,239.16,201.51,239.48,202.17,240.12z"/>
	</g>
	<g>
		<path d="M205.55,241.31c0.36-0.68,0.86-1.2,1.5-1.58c0.63-0.37,1.35-0.56,2.14-0.56c0.68,0,1.32,0.16,1.9,0.47
			c0.59,0.32,1.04,0.73,1.34,1.24v-4.64h1.47v11.84h-1.47v-1.65c-0.29,0.52-0.71,0.95-1.28,1.29s-1.23,0.5-1.98,0.5
			c-0.78,0-1.49-0.19-2.12-0.58c-0.63-0.38-1.13-0.92-1.5-1.62c-0.36-0.69-0.54-1.48-0.54-2.37
			C205.01,242.77,205.19,241.98,205.55,241.31z M212.03,241.96c-0.27-0.49-0.63-0.87-1.08-1.13s-0.95-0.39-1.5-0.39
			s-1.04,0.13-1.49,0.38c-0.45,0.26-0.81,0.63-1.07,1.12c-0.27,0.49-0.4,1.07-0.4,1.73c0,0.67,0.13,1.26,0.4,1.75
			s0.62,0.88,1.07,1.14c0.45,0.26,0.94,0.39,1.49,0.39s1.04-0.13,1.5-0.39c0.45-0.26,0.81-0.64,1.08-1.14s0.4-1.07,0.4-1.74
			C212.43,243.02,212.3,242.45,212.03,241.96z"/>
	</g>
	<g>
		<path d="M217.96,247.67c-0.67-0.37-1.19-0.9-1.57-1.59c-0.38-0.69-0.57-1.49-0.57-2.39c0-0.9,0.19-1.69,0.58-2.38
			c0.39-0.69,0.92-1.22,1.59-1.58c0.67-0.37,1.42-0.55,2.26-0.55s1.58,0.18,2.26,0.55c0.67,0.37,1.2,0.89,1.59,1.58
			s0.58,1.48,0.58,2.38c0,0.91-0.2,1.7-0.6,2.39c-0.4,0.69-0.94,1.22-1.62,1.59s-1.44,0.56-2.27,0.56
			C219.37,248.23,218.63,248.04,217.96,247.67z M221.66,246.58c0.46-0.25,0.83-0.61,1.11-1.1c0.28-0.49,0.42-1.09,0.42-1.79
			c0-0.7-0.14-1.3-0.42-1.79c-0.28-0.49-0.64-0.86-1.09-1.1c-0.45-0.24-0.93-0.36-1.46-0.36c-0.53,0-1.02,0.12-1.46,0.36
			s-0.8,0.61-1.06,1.1c-0.27,0.49-0.4,1.09-0.4,1.79c0,0.71,0.13,1.32,0.39,1.81c0.26,0.49,0.61,0.86,1.05,1.1s0.92,0.36,1.44,0.36
			S221.2,246.82,221.66,246.58z"/>
	</g>
	<g>
		<path d="M53.35,265.31c0.36-0.68,0.87-1.2,1.51-1.58c0.65-0.37,1.38-0.56,2.22-0.56c1.08,0,1.96,0.26,2.66,0.78
			c0.7,0.52,1.16,1.25,1.38,2.18h-1.57c-0.15-0.53-0.44-0.95-0.87-1.26c-0.43-0.31-0.97-0.46-1.61-0.46c-0.83,0-1.5,0.29-2.02,0.86
			c-0.51,0.57-0.77,1.38-0.77,2.42c0,1.06,0.26,1.87,0.77,2.45c0.51,0.58,1.18,0.86,2.02,0.86c0.64,0,1.17-0.15,1.6-0.45
			s0.72-0.73,0.88-1.28h1.57c-0.23,0.9-0.7,1.61-1.41,2.15c-0.7,0.54-1.58,0.81-2.64,0.81c-0.83,0-1.57-0.19-2.22-0.56
			s-1.15-0.9-1.51-1.58c-0.36-0.68-0.54-1.48-0.54-2.4C52.8,266.78,52.98,265.98,53.35,265.31z"/>
	</g>
	<g>
		<path d="M63.06,265.31c0.36-0.68,0.86-1.2,1.5-1.58c0.63-0.37,1.34-0.56,2.12-0.56c0.77,0,1.43,0.17,2,0.5
			c0.57,0.33,0.99,0.75,1.26,1.25v-1.6h1.47v8.77h-1.47v-1.63c-0.29,0.51-0.72,0.94-1.29,1.27c-0.57,0.34-1.24,0.5-1.99,0.5
			c-0.78,0-1.48-0.19-2.11-0.58c-0.63-0.38-1.13-0.92-1.49-1.62c-0.36-0.69-0.54-1.48-0.54-2.37
			C62.51,266.77,62.69,265.98,63.06,265.31z M69.54,265.96c-0.27-0.49-0.63-0.87-1.08-1.13s-0.95-0.39-1.5-0.39
			s-1.04,0.13-1.49,0.38c-0.45,0.26-0.81,0.63-1.07,1.12c-0.27,0.49-0.4,1.07-0.4,1.73c0,0.67,0.13,1.26,0.4,1.75
			s0.62,0.88,1.07,1.14c0.45,0.26,0.94,0.39,1.49,0.39s1.04-0.13,1.5-0.39c0.45-0.26,0.81-0.64,1.08-1.14s0.4-1.07,0.4-1.74
			C69.94,267.02,69.8,266.45,69.54,265.96z"/>
	</g>
	<g>
		<path d="M86.24,263.58c0.53,0.28,0.96,0.71,1.26,1.27c0.31,0.57,0.46,1.25,0.46,2.06v5.17h-1.44v-4.96c0-0.88-0.22-1.54-0.65-2.01
			c-0.43-0.46-1.02-0.7-1.75-0.7c-0.76,0-1.36,0.24-1.81,0.73c-0.45,0.49-0.67,1.19-0.67,2.1v4.83h-1.44v-4.96
			c0-0.88-0.22-1.54-0.65-2.01s-1.02-0.7-1.75-0.7c-0.76,0-1.36,0.24-1.81,0.73c-0.45,0.49-0.67,1.19-0.67,2.1v4.83h-1.46v-8.77
			h1.46v1.26c0.29-0.46,0.67-0.81,1.16-1.06c0.49-0.25,1.02-0.37,1.61-0.37c0.74,0,1.39,0.17,1.95,0.5
			c0.57,0.33,0.99,0.82,1.26,1.46c0.25-0.62,0.65-1.1,1.22-1.44c0.57-0.34,1.19-0.51,1.89-0.51
			C85.1,263.16,85.71,263.3,86.24,263.58z"/>
	</g>
	<g>
		<path d="M93.12,263.67c0.58-0.33,1.23-0.5,1.97-0.5c0.79,0,1.5,0.19,2.13,0.56c0.63,0.37,1.13,0.9,1.49,1.58
			c0.36,0.68,0.54,1.46,0.54,2.36c0,0.89-0.18,1.67-0.54,2.37s-0.86,1.23-1.5,1.62c-0.63,0.38-1.34,0.58-2.12,0.58
			c-0.76,0-1.42-0.17-1.99-0.5c-0.57-0.33-1-0.75-1.29-1.26v1.62h-1.46v-11.84h1.46v4.7C92.11,264.42,92.55,264,93.12,263.67z
			 M97.36,265.94c-0.27-0.49-0.63-0.86-1.08-1.12c-0.45-0.26-0.95-0.38-1.5-0.38c-0.53,0-1.03,0.13-1.48,0.39
			c-0.45,0.26-0.82,0.64-1.09,1.14c-0.27,0.5-0.41,1.07-0.41,1.72c0,0.66,0.14,1.24,0.41,1.74c0.27,0.5,0.63,0.88,1.09,1.14
			c0.45,0.26,0.95,0.39,1.48,0.39c0.54,0,1.04-0.13,1.5-0.39c0.45-0.26,0.81-0.64,1.08-1.14s0.4-1.08,0.4-1.75
			C97.76,267.01,97.63,266.43,97.36,265.94z"/>
	</g>
	<g>
		<path d="M101.22,261.6c-0.19-0.19-0.29-0.43-0.29-0.7s0.1-0.51,0.29-0.7c0.19-0.19,0.43-0.29,0.7-0.29c0.27,0,0.49,0.1,0.68,0.29
			c0.19,0.19,0.28,0.43,0.28,0.7s-0.09,0.51-0.28,0.7c-0.19,0.19-0.41,0.29-0.68,0.29C101.64,261.89,101.41,261.79,101.22,261.6z
			 M102.63,263.32v8.77h-1.46v-8.77H102.63z"/>
	</g>
	<g>
		<path d="M106.7,271.67c-0.67-0.37-1.19-0.9-1.57-1.59c-0.38-0.69-0.57-1.49-0.57-2.39c0-0.9,0.19-1.69,0.58-2.38
			c0.39-0.69,0.92-1.22,1.59-1.58c0.67-0.37,1.42-0.55,2.26-0.55s1.58,0.18,2.26,0.55c0.67,0.37,1.2,0.89,1.59,1.58
			s0.58,1.48,0.58,2.38c0,0.91-0.2,1.7-0.6,2.39c-0.4,0.69-0.94,1.22-1.62,1.59s-1.44,0.56-2.27,0.56
			C108.11,272.23,107.36,272.04,106.7,271.67z M110.4,270.58c0.46-0.25,0.83-0.61,1.11-1.1c0.28-0.49,0.42-1.09,0.42-1.79
			c0-0.7-0.14-1.3-0.42-1.79c-0.28-0.49-0.64-0.86-1.09-1.1c-0.45-0.24-0.93-0.36-1.46-0.36c-0.53,0-1.02,0.12-1.46,0.36
			s-0.8,0.61-1.06,1.1c-0.27,0.49-0.4,1.09-0.4,1.79c0,0.71,0.13,1.32,0.39,1.81c0.26,0.49,0.61,0.86,1.05,1.1s0.92,0.36,1.44,0.36
			S109.94,270.82,110.4,270.58z"/>
	</g>
	<g>
		<path d="M116.64,271.88c-0.53-0.23-0.96-0.55-1.26-0.96c-0.31-0.41-0.48-0.88-0.51-1.42h1.5c0.04,0.44,0.25,0.79,0.62,1.07
			s0.85,0.42,1.45,0.42c0.55,0,0.99-0.12,1.31-0.37s0.48-0.55,0.48-0.93c0-0.38-0.17-0.67-0.51-0.86c-0.34-0.19-0.87-0.37-1.58-0.55
			c-0.65-0.17-1.18-0.34-1.59-0.52c-0.41-0.18-0.76-0.44-1.06-0.78c-0.29-0.35-0.44-0.8-0.44-1.37c0-0.45,0.13-0.86,0.4-1.23
			c0.27-0.37,0.65-0.67,1.14-0.89s1.05-0.33,1.68-0.33c0.97,0,1.75,0.25,2.35,0.74c0.6,0.49,0.92,1.16,0.96,2.02h-1.46
			c-0.03-0.46-0.22-0.83-0.55-1.1s-0.79-0.42-1.35-0.42c-0.52,0-0.94,0.11-1.25,0.34c-0.31,0.22-0.46,0.52-0.46,0.88
			c0,0.29,0.09,0.53,0.28,0.71s0.42,0.34,0.7,0.45c0.28,0.11,0.67,0.24,1.18,0.38c0.63,0.17,1.14,0.34,1.54,0.5s0.73,0.41,1.02,0.74
			c0.28,0.33,0.43,0.76,0.44,1.3c0,0.48-0.13,0.91-0.4,1.3s-0.64,0.69-1.13,0.9c-0.49,0.22-1.04,0.33-1.67,0.33
			C117.78,272.23,117.18,272.11,116.64,271.88z"/>
	</g>
	<g>
		<path d="M130.71,263.67c0.57-0.34,1.24-0.5,1.99-0.5c0.78,0,1.49,0.19,2.12,0.56c0.63,0.37,1.13,0.9,1.5,1.58
			c0.36,0.68,0.54,1.46,0.54,2.36c0,0.89-0.18,1.67-0.54,2.37s-0.86,1.23-1.5,1.62c-0.63,0.38-1.34,0.58-2.12,0.58
			c-0.75,0-1.41-0.17-1.98-0.5c-0.57-0.34-1.01-0.75-1.3-1.26v5.78h-1.46v-12.93h1.46v1.62
			C129.71,264.43,130.14,264.01,130.71,263.67z M134.98,265.94c-0.27-0.49-0.63-0.86-1.08-1.12c-0.45-0.26-0.95-0.38-1.5-0.38
			c-0.53,0-1.03,0.13-1.48,0.39c-0.45,0.26-0.82,0.64-1.09,1.14c-0.27,0.5-0.41,1.07-0.41,1.72c0,0.66,0.14,1.24,0.41,1.74
			c0.27,0.5,0.63,0.88,1.09,1.14c0.45,0.26,0.95,0.39,1.48,0.39c0.54,0,1.04-0.13,1.5-0.39c0.45-0.26,0.81-0.64,1.08-1.14
			s0.4-1.08,0.4-1.75C135.38,267.01,135.24,266.43,134.98,265.94z"/>
	</g>
	<g>
		<path d="M141.34,263.57c0.47-0.28,1.05-0.42,1.74-0.42v1.5h-0.38c-1.63,0-2.45,0.89-2.45,2.66v4.77h-1.46v-8.77h1.46v1.42
			C140.5,264.24,140.86,263.85,141.34,263.57z"/>
	</g>
	<g>
		<path d="M146.35,271.67c-0.67-0.37-1.19-0.9-1.57-1.59c-0.38-0.69-0.57-1.49-0.57-2.39c0-0.9,0.19-1.69,0.58-2.38
			c0.39-0.69,0.92-1.22,1.59-1.58c0.67-0.37,1.42-0.55,2.26-0.55s1.58,0.18,2.26,0.55c0.67,0.37,1.2,0.89,1.59,1.58
			s0.58,1.48,0.58,2.38c0,0.91-0.2,1.7-0.6,2.39c-0.4,0.69-0.94,1.22-1.62,1.59s-1.44,0.56-2.27,0.56
			C147.76,272.23,147.01,272.04,146.35,271.67z M150.05,270.58c0.46-0.25,0.83-0.61,1.11-1.1c0.28-0.49,0.42-1.09,0.42-1.79
			c0-0.7-0.14-1.3-0.42-1.79c-0.28-0.49-0.64-0.86-1.09-1.1c-0.45-0.24-0.93-0.36-1.46-0.36c-0.53,0-1.02,0.12-1.46,0.36
			s-0.8,0.61-1.06,1.1c-0.27,0.49-0.4,1.09-0.4,1.79c0,0.71,0.13,1.32,0.39,1.81c0.26,0.49,0.61,0.86,1.05,1.1s0.92,0.36,1.44,0.36
			S149.59,270.82,150.05,270.58z"/>
	</g>
	<g>
		<path d="M154.99,265.31c0.36-0.68,0.86-1.2,1.5-1.58c0.63-0.37,1.35-0.56,2.14-0.56c0.68,0,1.32,0.16,1.9,0.47
			c0.59,0.32,1.04,0.73,1.34,1.24v-4.64h1.47v11.84h-1.47v-1.65c-0.29,0.52-0.71,0.95-1.28,1.29s-1.23,0.5-1.98,0.5
			c-0.78,0-1.49-0.19-2.12-0.58c-0.63-0.38-1.13-0.92-1.5-1.62c-0.36-0.69-0.54-1.48-0.54-2.37
			C154.45,266.77,154.63,265.98,154.99,265.31z M161.47,265.96c-0.27-0.49-0.63-0.87-1.08-1.13s-0.95-0.39-1.5-0.39
			s-1.04,0.13-1.49,0.38c-0.45,0.26-0.81,0.63-1.07,1.12c-0.27,0.49-0.4,1.07-0.4,1.73c0,0.67,0.13,1.26,0.4,1.75
			s0.62,0.88,1.07,1.14c0.45,0.26,0.94,0.39,1.49,0.39s1.04-0.13,1.5-0.39c0.45-0.26,0.81-0.64,1.08-1.14s0.4-1.07,0.4-1.74
			C161.87,267.02,161.74,266.45,161.47,265.96z"/>
	</g>
	<g>
		<path d="M173.58,263.32v8.77h-1.46v-1.3c-0.28,0.45-0.66,0.8-1.16,1.05c-0.5,0.25-1.04,0.38-1.64,0.38c-0.68,0-1.3-0.14-1.84-0.42
			s-0.97-0.71-1.29-1.27c-0.31-0.56-0.47-1.25-0.47-2.06v-5.14h1.44v4.94c0,0.86,0.22,1.53,0.66,1.99s1.03,0.7,1.79,0.7
			c0.78,0,1.39-0.24,1.84-0.72c0.45-0.48,0.67-1.18,0.67-2.1v-4.82H173.58z"/>
	</g>
	<g>
		<path d="M176.05,265.31c0.36-0.68,0.87-1.2,1.51-1.58c0.65-0.37,1.38-0.56,2.22-0.56c1.08,0,1.96,0.26,2.66,0.78
			c0.7,0.52,1.16,1.25,1.38,2.18h-1.57c-0.15-0.53-0.44-0.95-0.87-1.26c-0.43-0.31-0.97-0.46-1.61-0.46c-0.83,0-1.5,0.29-2.02,0.86
			c-0.51,0.57-0.77,1.38-0.77,2.42c0,1.06,0.26,1.87,0.77,2.45c0.51,0.58,1.18,0.86,2.02,0.86c0.64,0,1.17-0.15,1.6-0.45
			s0.72-0.73,0.88-1.28h1.57c-0.23,0.9-0.7,1.61-1.41,2.15c-0.7,0.54-1.58,0.81-2.64,0.81c-0.83,0-1.57-0.19-2.22-0.56
			s-1.15-0.9-1.51-1.58c-0.36-0.68-0.54-1.48-0.54-2.4C175.51,266.78,175.69,265.98,176.05,265.31z"/>
	</g>
	<g>
		<path d="M187.54,264.51v5.17c0,0.43,0.09,0.73,0.27,0.9c0.18,0.18,0.5,0.26,0.94,0.26h1.07v1.23h-1.31
			c-0.81,0-1.42-0.19-1.82-0.56c-0.41-0.37-0.61-0.99-0.61-1.84v-5.17h-1.14v-1.2h1.14v-2.21h1.46v2.21h2.29v1.2H187.54z"/>
	</g>
	<g>
		<path d="M193.18,271.67c-0.67-0.37-1.19-0.9-1.57-1.59c-0.38-0.69-0.57-1.49-0.57-2.39c0-0.9,0.19-1.69,0.58-2.38
			c0.39-0.69,0.92-1.22,1.59-1.58c0.67-0.37,1.42-0.55,2.26-0.55s1.58,0.18,2.26,0.55c0.67,0.37,1.2,0.89,1.59,1.58
			s0.58,1.48,0.58,2.38c0,0.91-0.2,1.7-0.6,2.39c-0.4,0.69-0.94,1.22-1.62,1.59s-1.44,0.56-2.27,0.56
			C194.59,272.23,193.84,272.04,193.18,271.67z M196.88,270.58c0.46-0.25,0.83-0.61,1.11-1.1c0.28-0.49,0.42-1.09,0.42-1.79
			c0-0.7-0.14-1.3-0.42-1.79c-0.28-0.49-0.64-0.86-1.09-1.1c-0.45-0.24-0.93-0.36-1.46-0.36c-0.53,0-1.02,0.12-1.46,0.36
			s-0.8,0.61-1.06,1.1c-0.27,0.49-0.4,1.09-0.4,1.79c0,0.71,0.13,1.32,0.39,1.81c0.26,0.49,0.61,0.86,1.05,1.1s0.92,0.36,1.44,0.36
			S196.42,270.82,196.88,270.58z"/>
	</g>
	<g>
		<path d="M203.12,271.88c-0.53-0.23-0.96-0.55-1.26-0.96c-0.31-0.41-0.48-0.88-0.51-1.42h1.5c0.04,0.44,0.25,0.79,0.62,1.07
			s0.85,0.42,1.45,0.42c0.55,0,0.99-0.12,1.31-0.37s0.48-0.55,0.48-0.93c0-0.38-0.17-0.67-0.51-0.86c-0.34-0.19-0.87-0.37-1.58-0.55
			c-0.65-0.17-1.18-0.34-1.59-0.52c-0.41-0.18-0.76-0.44-1.06-0.78c-0.29-0.35-0.44-0.8-0.44-1.37c0-0.45,0.13-0.86,0.4-1.23
			c0.27-0.37,0.65-0.67,1.14-0.89s1.05-0.33,1.68-0.33c0.97,0,1.75,0.25,2.35,0.74c0.6,0.49,0.92,1.16,0.96,2.02h-1.46
			c-0.03-0.46-0.22-0.83-0.55-1.1s-0.79-0.42-1.35-0.42c-0.52,0-0.94,0.11-1.25,0.34c-0.31,0.22-0.46,0.52-0.46,0.88
			c0,0.29,0.09,0.53,0.28,0.71s0.42,0.34,0.7,0.45c0.28,0.11,0.67,0.24,1.18,0.38c0.63,0.17,1.14,0.34,1.54,0.5s0.73,0.41,1.02,0.74
			c0.28,0.33,0.43,0.76,0.44,1.3c0,0.48-0.13,0.91-0.4,1.3s-0.64,0.69-1.13,0.9c-0.49,0.22-1.04,0.33-1.67,0.33
			C204.26,272.23,203.65,272.11,203.12,271.88z"/>
	</g>
	<g>
		<path d="M214.45,265.31c0.36-0.68,0.86-1.2,1.5-1.58c0.63-0.37,1.35-0.56,2.14-0.56c0.68,0,1.32,0.16,1.9,0.47
			c0.59,0.32,1.04,0.73,1.34,1.24v-4.64h1.47v11.84h-1.47v-1.65c-0.29,0.52-0.71,0.95-1.28,1.29s-1.23,0.5-1.98,0.5
			c-0.78,0-1.49-0.19-2.12-0.58c-0.63-0.38-1.13-0.92-1.5-1.62c-0.36-0.69-0.54-1.48-0.54-2.37
			C213.91,266.77,214.09,265.98,214.45,265.31z M220.93,265.96c-0.27-0.49-0.63-0.87-1.08-1.13s-0.95-0.39-1.5-0.39
			s-1.04,0.13-1.49,0.38c-0.45,0.26-0.81,0.63-1.07,1.12c-0.27,0.49-0.4,1.07-0.4,1.73c0,0.67,0.13,1.26,0.4,1.75
			s0.62,0.88,1.07,1.14c0.45,0.26,0.94,0.39,1.49,0.39s1.04-0.13,1.5-0.39c0.45-0.26,0.81-0.64,1.08-1.14s0.4-1.07,0.4-1.74
			C221.33,267.02,221.2,266.45,220.93,265.96z"/>
	</g>
	<g>
		<path d="M233.22,268.24h-7.01c0.05,0.86,0.35,1.54,0.89,2.02c0.54,0.49,1.19,0.73,1.96,0.73c0.63,0,1.15-0.15,1.58-0.44
			c0.42-0.29,0.72-0.68,0.89-1.18h1.57c-0.23,0.84-0.7,1.53-1.41,2.06c-0.7,0.53-1.58,0.79-2.62,0.79c-0.83,0-1.58-0.19-2.23-0.56
			s-1.17-0.9-1.54-1.59c-0.37-0.69-0.56-1.49-0.56-2.39c0-0.91,0.18-1.7,0.54-2.38c0.36-0.68,0.87-1.21,1.53-1.58
			c0.66-0.37,1.41-0.55,2.26-0.55c0.83,0,1.57,0.18,2.21,0.54c0.64,0.36,1.13,0.86,1.48,1.5s0.52,1.35,0.52,2.15
			C233.27,267.64,233.25,267.93,233.22,268.24z M231.39,265.63c-0.25-0.4-0.58-0.7-1-0.91c-0.42-0.21-0.89-0.31-1.4-0.31
			c-0.74,0-1.36,0.23-1.88,0.7c-0.52,0.47-0.81,1.12-0.89,1.95h5.54C231.76,266.5,231.64,266.03,231.39,265.63z"/>
	</g>
	<g>
		<path d="M236.64,260.24v11.84h-1.46v-11.84H236.64z"/>
	</g>
	<g>
		<path d="M81.03,284.93l-4.21,11.15h-1.68l-4.21-11.15h1.55l3.5,9.62l3.5-9.62H81.03z"/>
	</g>
	<g>
		<path d="M82.68,285.6c-0.19-0.19-0.29-0.43-0.29-0.7s0.1-0.51,0.29-0.7c0.19-0.19,0.43-0.29,0.7-0.29c0.27,0,0.49,0.1,0.68,0.29
			c0.19,0.19,0.28,0.43,0.28,0.7s-0.09,0.51-0.28,0.7c-0.19,0.19-0.41,0.29-0.68,0.29C83.11,285.89,82.87,285.79,82.68,285.6z
			 M84.09,287.32v8.77h-1.46v-8.77H84.09z"/>
	</g>
	<g>
		<path d="M89.12,287.57c0.47-0.28,1.05-0.42,1.74-0.42v1.5h-0.38c-1.63,0-2.45,0.89-2.45,2.66v4.77h-1.46v-8.77h1.46v1.42
			C88.28,288.24,88.65,287.85,89.12,287.57z"/>
	</g>
	<g>
		<path d="M100.31,287.32v8.77h-1.46v-1.3c-0.28,0.45-0.66,0.8-1.16,1.05c-0.5,0.25-1.04,0.38-1.64,0.38c-0.68,0-1.3-0.14-1.84-0.42
			s-0.97-0.71-1.29-1.27c-0.31-0.56-0.47-1.25-0.47-2.06v-5.14h1.44v4.94c0,0.86,0.22,1.53,0.66,1.99s1.03,0.7,1.79,0.7
			c0.78,0,1.39-0.24,1.84-0.72c0.45-0.48,0.67-1.18,0.67-2.1v-4.82H100.31z"/>
	</g>
	<g>
		<path d="M104.07,295.88c-0.53-0.23-0.96-0.55-1.26-0.96c-0.31-0.41-0.48-0.88-0.51-1.42h1.5c0.04,0.44,0.25,0.79,0.62,1.07
			s0.85,0.42,1.45,0.42c0.55,0,0.99-0.12,1.31-0.37s0.48-0.55,0.48-0.93c0-0.38-0.17-0.67-0.51-0.86c-0.34-0.19-0.87-0.37-1.58-0.55
			c-0.65-0.17-1.18-0.34-1.59-0.52c-0.41-0.18-0.76-0.44-1.06-0.78c-0.29-0.35-0.44-0.8-0.44-1.37c0-0.45,0.13-0.86,0.4-1.23
			c0.27-0.37,0.65-0.67,1.14-0.89s1.05-0.33,1.68-0.33c0.97,0,1.75,0.25,2.35,0.74c0.6,0.49,0.92,1.16,0.96,2.02h-1.46
			c-0.03-0.46-0.22-0.83-0.55-1.1s-0.79-0.42-1.35-0.42c-0.52,0-0.94,0.11-1.25,0.34c-0.31,0.22-0.46,0.52-0.46,0.88
			c0,0.29,0.09,0.53,0.28,0.71s0.42,0.34,0.7,0.45c0.28,0.11,0.67,0.24,1.18,0.38c0.63,0.17,1.14,0.34,1.54,0.5s0.73,0.41,1.02,0.74
			c0.28,0.33,0.43,0.76,0.44,1.3c0,0.48-0.13,0.91-0.4,1.3s-0.64,0.69-1.13,0.9c-0.49,0.22-1.04,0.33-1.67,0.33
			C105.21,296.23,104.61,296.11,104.07,295.88z"/>
	</g>
	<g>
		<path d="M115.4,289.31c0.36-0.68,0.86-1.2,1.5-1.58c0.63-0.37,1.35-0.56,2.14-0.56c0.68,0,1.32,0.16,1.9,0.47
			c0.59,0.32,1.04,0.73,1.34,1.24v-4.64h1.47v11.84h-1.47v-1.65c-0.29,0.52-0.71,0.95-1.28,1.29s-1.23,0.5-1.98,0.5
			c-0.78,0-1.49-0.19-2.12-0.58c-0.63-0.38-1.13-0.92-1.5-1.62c-0.36-0.69-0.54-1.48-0.54-2.37
			C114.86,290.77,115.04,289.98,115.4,289.31z M121.88,289.96c-0.27-0.49-0.63-0.87-1.08-1.13s-0.95-0.39-1.5-0.39
			s-1.04,0.13-1.49,0.38c-0.45,0.26-0.81,0.63-1.07,1.12c-0.27,0.49-0.4,1.07-0.4,1.73c0,0.67,0.13,1.26,0.4,1.75
			s0.62,0.88,1.07,1.14c0.45,0.26,0.94,0.39,1.49,0.39s1.04-0.13,1.5-0.39c0.45-0.26,0.81-0.64,1.08-1.14s0.4-1.07,0.4-1.74
			C122.28,291.02,122.15,290.45,121.88,289.96z"/>
	</g>
	<g>
		<path d="M134.17,292.24h-7.01c0.05,0.86,0.35,1.54,0.89,2.02c0.54,0.49,1.19,0.73,1.96,0.73c0.63,0,1.15-0.15,1.58-0.44
			c0.42-0.29,0.72-0.68,0.89-1.18h1.57c-0.23,0.84-0.7,1.53-1.41,2.06c-0.7,0.53-1.58,0.79-2.62,0.79c-0.83,0-1.58-0.19-2.23-0.56
			s-1.17-0.9-1.54-1.59c-0.37-0.69-0.56-1.49-0.56-2.39c0-0.91,0.18-1.7,0.54-2.38c0.36-0.68,0.87-1.21,1.53-1.58
			c0.66-0.37,1.41-0.55,2.26-0.55c0.83,0,1.57,0.18,2.21,0.54c0.64,0.36,1.13,0.86,1.48,1.5s0.52,1.35,0.52,2.15
			C134.22,291.64,134.2,291.93,134.17,292.24z M132.35,289.63c-0.25-0.4-0.58-0.7-1-0.91c-0.42-0.21-0.89-0.31-1.4-0.31
			c-0.74,0-1.36,0.23-1.88,0.7c-0.52,0.47-0.81,1.12-0.89,1.95h5.54C132.71,290.5,132.59,290.03,132.35,289.63z"/>
	</g>
	<g>
		<path d="M137.6,284.24v11.84h-1.46v-11.84H137.6z"/>
	</g>
	<g>
		<path d="M150.85,290.51c-0.63,0.61-1.6,0.92-2.9,0.92h-2.14v4.66h-1.46v-11.15h3.6c1.26,0,2.22,0.3,2.87,0.91
			c0.66,0.61,0.98,1.39,0.98,2.35C151.8,289.12,151.48,289.89,150.85,290.51z M149.74,289.7c0.38-0.35,0.58-0.85,0.58-1.5
			c0-1.38-0.79-2.06-2.37-2.06h-2.14v4.1h2.14C148.76,290.23,149.35,290.05,149.74,289.7z"/>
	</g>
	<g>
		<path d="M153.61,289.31c0.36-0.68,0.86-1.2,1.5-1.58c0.63-0.37,1.34-0.56,2.12-0.56c0.77,0,1.43,0.17,2,0.5
			c0.57,0.33,0.99,0.75,1.26,1.25v-1.6h1.47v8.77h-1.47v-1.63c-0.29,0.51-0.72,0.94-1.29,1.27c-0.57,0.34-1.24,0.5-1.99,0.5
			c-0.78,0-1.48-0.19-2.11-0.58c-0.63-0.38-1.13-0.92-1.49-1.62c-0.36-0.69-0.54-1.48-0.54-2.37
			C153.07,290.77,153.25,289.98,153.61,289.31z M160.09,289.96c-0.27-0.49-0.63-0.87-1.08-1.13s-0.95-0.39-1.5-0.39
			s-1.04,0.13-1.49,0.38c-0.45,0.26-0.81,0.63-1.07,1.12c-0.27,0.49-0.4,1.07-0.4,1.73c0,0.67,0.13,1.26,0.4,1.75
			s0.62,0.88,1.07,1.14c0.45,0.26,0.94,0.39,1.49,0.39s1.04-0.13,1.5-0.39c0.45-0.26,0.81-0.64,1.08-1.14s0.4-1.07,0.4-1.74
			C160.49,291.02,160.36,290.45,160.09,289.96z"/>
	</g>
	<g>
		<path d="M167.17,287.67c0.57-0.34,1.24-0.5,1.99-0.5c0.78,0,1.49,0.19,2.12,0.56c0.63,0.37,1.13,0.9,1.5,1.58
			c0.36,0.68,0.54,1.46,0.54,2.36c0,0.89-0.18,1.67-0.54,2.37s-0.86,1.23-1.5,1.62c-0.63,0.38-1.34,0.58-2.12,0.58
			c-0.75,0-1.41-0.17-1.98-0.5c-0.57-0.34-1.01-0.75-1.3-1.26v5.78h-1.46v-12.93h1.46v1.62
			C166.17,288.43,166.6,288.01,167.17,287.67z M171.43,289.94c-0.27-0.49-0.63-0.86-1.08-1.12c-0.45-0.26-0.95-0.38-1.5-0.38
			c-0.53,0-1.03,0.13-1.48,0.39c-0.45,0.26-0.82,0.64-1.09,1.14c-0.27,0.5-0.41,1.07-0.41,1.72c0,0.66,0.14,1.24,0.41,1.74
			c0.27,0.5,0.63,0.88,1.09,1.14c0.45,0.26,0.95,0.39,1.48,0.39c0.54,0,1.04-0.13,1.5-0.39c0.45-0.26,0.81-0.64,1.08-1.14
			s0.4-1.08,0.4-1.75C171.83,291.01,171.7,290.43,171.43,289.94z"/>
	</g>
	<g>
		<path d="M175.29,285.6c-0.19-0.19-0.29-0.43-0.29-0.7s0.1-0.51,0.29-0.7c0.19-0.19,0.43-0.29,0.7-0.29c0.27,0,0.49,0.1,0.68,0.29
			c0.19,0.19,0.28,0.43,0.28,0.7s-0.09,0.51-0.28,0.7c-0.19,0.19-0.41,0.29-0.68,0.29C175.72,285.89,175.48,285.79,175.29,285.6z
			 M176.7,287.32v8.77h-1.46v-8.77H176.7z"/>
	</g>
	<g>
		<path d="M180.63,284.24v11.84h-1.46v-11.84H180.63z"/>
	</g>
	<g>
		<path d="M184.71,295.67c-0.67-0.37-1.19-0.9-1.57-1.59c-0.38-0.69-0.57-1.49-0.57-2.39c0-0.9,0.19-1.69,0.58-2.38
			c0.39-0.69,0.92-1.22,1.59-1.58c0.67-0.37,1.42-0.55,2.26-0.55s1.58,0.18,2.26,0.55c0.67,0.37,1.2,0.89,1.59,1.58
			s0.58,1.48,0.58,2.38c0,0.91-0.2,1.7-0.6,2.39c-0.4,0.69-0.94,1.22-1.62,1.59s-1.44,0.56-2.27,0.56
			C186.12,296.23,185.37,296.04,184.71,295.67z M188.41,294.58c0.46-0.25,0.83-0.61,1.11-1.1c0.28-0.49,0.42-1.09,0.42-1.79
			c0-0.7-0.14-1.3-0.42-1.79c-0.28-0.49-0.64-0.86-1.09-1.1c-0.45-0.24-0.93-0.36-1.46-0.36c-0.53,0-1.02,0.12-1.46,0.36
			s-0.8,0.61-1.06,1.1c-0.27,0.49-0.4,1.09-0.4,1.79c0,0.71,0.13,1.32,0.39,1.81c0.26,0.49,0.61,0.86,1.05,1.1s0.92,0.36,1.44,0.36
			S187.95,294.82,188.41,294.58z"/>
	</g>
	<g>
		<path d="M205.72,287.58c0.53,0.28,0.96,0.71,1.26,1.27c0.31,0.57,0.46,1.25,0.46,2.06v5.17h-1.44v-4.96
			c0-0.88-0.22-1.54-0.65-2.01c-0.43-0.46-1.02-0.7-1.75-0.7c-0.76,0-1.36,0.24-1.81,0.73c-0.45,0.49-0.67,1.19-0.67,2.1v4.83h-1.44
			v-4.96c0-0.88-0.22-1.54-0.65-2.01s-1.02-0.7-1.75-0.7c-0.76,0-1.36,0.24-1.81,0.73c-0.45,0.49-0.67,1.19-0.67,2.1v4.83h-1.46
			v-8.77h1.46v1.26c0.29-0.46,0.67-0.81,1.16-1.06c0.49-0.25,1.02-0.37,1.61-0.37c0.74,0,1.39,0.17,1.95,0.5
			c0.57,0.33,0.99,0.82,1.26,1.46c0.25-0.62,0.65-1.1,1.22-1.44c0.57-0.34,1.19-0.51,1.89-0.51
			C204.58,287.16,205.19,287.3,205.72,287.58z"/>
	</g>
	<g>
		<path d="M209.83,289.31c0.36-0.68,0.86-1.2,1.5-1.58c0.63-0.37,1.34-0.56,2.12-0.56c0.77,0,1.43,0.17,2,0.5
			c0.57,0.33,0.99,0.75,1.26,1.25v-1.6h1.47v8.77h-1.47v-1.63c-0.29,0.51-0.72,0.94-1.29,1.27c-0.57,0.34-1.24,0.5-1.99,0.5
			c-0.78,0-1.48-0.19-2.11-0.58c-0.63-0.38-1.13-0.92-1.49-1.62c-0.36-0.69-0.54-1.48-0.54-2.37
			C209.29,290.77,209.47,289.98,209.83,289.31z M216.31,289.96c-0.27-0.49-0.63-0.87-1.08-1.13s-0.95-0.39-1.5-0.39
			s-1.04,0.13-1.49,0.38c-0.45,0.26-0.81,0.63-1.07,1.12c-0.27,0.49-0.4,1.07-0.4,1.73c0,0.67,0.13,1.26,0.4,1.75
			s0.62,0.88,1.07,1.14c0.45,0.26,0.94,0.39,1.49,0.39s1.04-0.13,1.5-0.39c0.45-0.26,0.81-0.64,1.08-1.14s0.4-1.07,0.4-1.74
			C216.71,291.02,216.58,290.45,216.31,289.96z"/>
	</g>
	<g>
		<path d="M95.31,308.93v11.15h-1.46v-5.06h-5.68v5.06h-1.46v-11.15h1.46v4.9h5.68v-4.9H95.31z"/>
	</g>
	<g>
		<path d="M105.56,311.32v8.77h-1.46v-1.3c-0.28,0.45-0.66,0.8-1.16,1.05c-0.5,0.25-1.04,0.38-1.64,0.38c-0.68,0-1.3-0.14-1.84-0.42
			s-0.97-0.71-1.29-1.27c-0.31-0.56-0.47-1.25-0.47-2.06v-5.14h1.44v4.94c0,0.86,0.22,1.53,0.66,1.99s1.03,0.7,1.79,0.7
			c0.78,0,1.39-0.24,1.84-0.72c0.45-0.48,0.67-1.18,0.67-2.1v-4.82H105.56z"/>
	</g>
	<g>
		<path d="M120.39,311.58c0.53,0.28,0.96,0.71,1.26,1.27c0.31,0.57,0.46,1.25,0.46,2.06v5.17h-1.44v-4.96
			c0-0.88-0.22-1.54-0.65-2.01c-0.43-0.46-1.02-0.7-1.75-0.7c-0.76,0-1.36,0.24-1.81,0.73c-0.45,0.49-0.67,1.19-0.67,2.1v4.83h-1.44
			v-4.96c0-0.88-0.22-1.54-0.65-2.01s-1.02-0.7-1.75-0.7c-0.76,0-1.36,0.24-1.81,0.73c-0.45,0.49-0.67,1.19-0.67,2.1v4.83h-1.46
			v-8.77h1.46v1.26c0.29-0.46,0.67-0.81,1.16-1.06c0.49-0.25,1.02-0.37,1.61-0.37c0.74,0,1.39,0.17,1.95,0.5
			c0.57,0.33,0.99,0.82,1.26,1.46c0.25-0.62,0.65-1.1,1.22-1.44c0.57-0.34,1.19-0.51,1.89-0.51
			C119.25,311.16,119.86,311.3,120.39,311.58z"/>
	</g>
	<g>
		<path d="M124.51,313.31c0.36-0.68,0.86-1.2,1.5-1.58c0.63-0.37,1.34-0.56,2.12-0.56c0.77,0,1.43,0.17,2,0.5
			c0.57,0.33,0.99,0.75,1.26,1.25v-1.6h1.47v8.77h-1.47v-1.63c-0.29,0.51-0.72,0.94-1.29,1.27c-0.57,0.34-1.24,0.5-1.99,0.5
			c-0.78,0-1.48-0.19-2.11-0.58c-0.63-0.38-1.13-0.92-1.49-1.62c-0.36-0.69-0.54-1.48-0.54-2.37
			C123.96,314.77,124.14,313.98,124.51,313.31z M130.99,313.96c-0.27-0.49-0.63-0.87-1.08-1.13s-0.95-0.39-1.5-0.39
			s-1.04,0.13-1.49,0.38c-0.45,0.26-0.81,0.63-1.07,1.12c-0.27,0.49-0.4,1.07-0.4,1.73c0,0.67,0.13,1.26,0.4,1.75
			s0.62,0.88,1.07,1.14c0.45,0.26,0.94,0.39,1.49,0.39s1.04-0.13,1.5-0.39c0.45-0.26,0.81-0.64,1.08-1.14s0.4-1.07,0.4-1.74
			C131.39,315.02,131.25,314.45,130.99,313.96z"/>
	</g>
	<g>
		<path d="M142.19,312.12c0.66,0.65,0.99,1.58,0.99,2.79v5.17h-1.44v-4.96c0-0.88-0.22-1.54-0.66-2.01s-1.04-0.7-1.79-0.7
			c-0.77,0-1.38,0.24-1.83,0.72c-0.45,0.48-0.68,1.18-0.68,2.1v4.85h-1.46v-8.77h1.46v1.25c0.29-0.45,0.68-0.79,1.18-1.04
			c0.5-0.25,1.04-0.37,1.64-0.37C140.66,311.16,141.52,311.48,142.19,312.12z"/>
	</g>
	<g>
		<path d="M147.15,319.67c-0.67-0.37-1.19-0.9-1.57-1.59c-0.38-0.69-0.57-1.49-0.57-2.39c0-0.9,0.19-1.69,0.58-2.38
			c0.39-0.69,0.92-1.22,1.59-1.58c0.67-0.37,1.42-0.55,2.26-0.55s1.58,0.18,2.26,0.55c0.67,0.37,1.2,0.89,1.59,1.58
			s0.58,1.48,0.58,2.38c0,0.91-0.2,1.7-0.6,2.39c-0.4,0.69-0.94,1.22-1.62,1.59s-1.44,0.56-2.27,0.56
			C148.56,320.23,147.82,320.04,147.15,319.67z M150.86,318.58c0.46-0.25,0.83-0.61,1.11-1.1c0.28-0.49,0.42-1.09,0.42-1.79
			c0-0.7-0.14-1.3-0.42-1.79c-0.28-0.49-0.64-0.86-1.09-1.1c-0.45-0.24-0.93-0.36-1.46-0.36c-0.53,0-1.02,0.12-1.46,0.36
			s-0.8,0.61-1.06,1.1c-0.27,0.49-0.4,1.09-0.4,1.79c0,0.71,0.13,1.32,0.39,1.81c0.26,0.49,0.61,0.86,1.05,1.1s0.92,0.36,1.44,0.36
			S150.4,318.82,150.86,318.58z"/>
	</g>
	<g>
		<path d="M161.43,319.24c-0.57-1.55-0.86-3.22-0.86-5.01c0-1.83,0.3-3.55,0.9-5.14s1.46-2.91,2.58-3.94h1.52v0.14
			c-1.2,1.12-2.09,2.47-2.7,4.04s-0.9,3.21-0.9,4.9c0,1.65,0.29,3.23,0.86,4.74c0.57,1.5,1.41,2.82,2.5,3.95v0.14h-1.52
			C162.79,322.06,162,320.78,161.43,319.24z"/>
	</g>
	<g>
		<path d="M176.55,308.93l-4.21,11.15h-1.68l-4.21-11.15h1.55l3.5,9.62l3.5-9.62H176.55z"/>
	</g>
	<g>
		<path d="M184.66,314.51c-0.63,0.61-1.6,0.92-2.9,0.92h-2.14v4.66h-1.46v-11.15h3.6c1.26,0,2.22,0.3,2.87,0.91
			c0.66,0.61,0.98,1.39,0.98,2.35C185.61,313.12,185.29,313.89,184.66,314.51z M183.55,313.7c0.38-0.35,0.58-0.85,0.58-1.5
			c0-1.38-0.79-2.06-2.37-2.06h-2.14v4.1h2.14C182.56,314.23,183.16,314.05,183.55,313.7z"/>
	</g>
	<g>
		<path d="M196.01,308.93v11.15h-1.46v-5.06h-5.68v5.06h-1.46v-11.15h1.46v4.9h5.68v-4.9H196.01z"/>
	</g>
	<g>
		<path d="M198.03,323.06v-0.14c1.1-1.13,1.93-2.45,2.5-3.95c0.57-1.5,0.86-3.08,0.86-4.74c0-1.7-0.3-3.33-0.9-4.9
			s-1.5-2.92-2.7-4.04v-0.14h1.52c1.12,1.04,1.98,2.35,2.58,3.94s0.9,3.31,0.9,5.14c0,1.79-0.29,3.46-0.86,5.01
			c-0.57,1.55-1.37,2.82-2.39,3.82H198.03z"/>
	</g>
</g>
<circle class="st5" cx="145" cy="75.54" r="33.78"/>
<g>
	<defs>
		<path id="SVGID_1_" d="M145,41.76c-10.66,0-20.16,4.94-26.35,12.65h-14.27V88.2h9.29c5.01,12.39,17.14,21.13,31.33,21.13
			c18.66,0,33.78-15.13,33.78-33.78h7.15l-0.1-33.78H145z"/>
	</defs>
	<clipPath id="SVGID_2_">
		<use xlink:href="#SVGID_1_"  style="overflow:visible;"/>
	</clipPath>
	<g class="st6">
		<path class="st7" d="M152.92,56.34h-41.68c-0.2,0-0.38,0.06-0.53,0.16c-0.1,0.07-0.19,0.15-0.25,0.25
			c-0.04,0.07-0.08,0.14-0.1,0.21c-0.03,0.1-0.06,0.2-0.06,0.31v28.05c0,0.09,0.02,0.17,0.04,0.26c0.04,0.12,0.09,0.24,0.17,0.33
			c0.04,0.05,0.08,0.09,0.13,0.13c0.16,0.14,0.37,0.22,0.6,0.22h56.02c1.06,0,2.07-0.33,2.9-0.92L152.92,56.34z"/>
		<path class="st8" d="M137.44,87.69c0,0-1.94,15.99,0.48,21.64h-12.27c0,0,0.24-18.08,3.31-23.82L137.44,87.69z"/>
		<path class="st8" d="M171.96,83.07l13.6-34.68c0.24-0.62-0.21-1.29-0.88-1.29h-26.16c-0.34,0-0.66,0.19-0.83,0.49l-4.78,8.75
			l17.24,29.01C170.95,84.8,171.59,84.01,171.96,83.07z"/>
		<circle class="st9" cx="161.56" cy="71.3" r="5.75"/>
		<circle class="st8" cx="161.56" cy="71.3" r="2.12"/>
		<g>
			<circle class="st8" cx="126.69" cy="71.3" r="3.02"/>
			<circle class="st8" cx="139.43" cy="71.3" r="3.02"/>
		</g>
		<circle class="st9" cx="133.06" cy="86.27" r="5.75"/>
		<circle class="st8" cx="133.06" cy="86.27" r="2.12"/>
		<path class="st10" d="M167.69,47.1v-4.4c0-0.52,0.42-0.94,0.94-0.94h14.69c0.52,0,0.94,0.42,0.94,0.94v4.4"/>
		<path class="st10" d="M105.32,77.66h1.9V64.94h-1.9c-0.52,0-0.94,0.42-0.94,0.94v10.84C104.38,77.24,104.8,77.66,105.32,77.66z"/>
		<path class="st9" d="M110.3,83.56h-2.13c-0.52,0-0.94-0.42-0.94-0.94V59.99c0-0.52,0.42-0.94,0.94-0.94h2.13V83.56z"/>
	</g>
</g>
</svg>
