<?xml version="1.0" encoding="utf-8"?>
<!-- Generator: Adobe Illustrator 24.1.1, SVG Export Plug-In . SVG Version: 6.00 Build 0)  -->
<svg version="1.1" id="Capa_1" xmlns="http://www.w3.org/2000/svg" xmlns:xlink="http://www.w3.org/1999/xlink" x="0px" y="0px"
	 viewBox="0 0 103.92 67.57" style="enable-background:new 0 0 103.92 67.57;" xml:space="preserve">
<style type="text/css">
	.st0{fill:#D9D9D9;}
	.st1{fill:#D36F62;}
	.st2{fill:#F8C5B0;}
	.st3{fill:#F7A6A9;}
	.st4{fill:#007CC3;}
	.st5{clip-path:url(#SVGID_2_);}
	.st6{fill:#F173AC;}
	.st7{fill:#F5A4C7;}
	.st8{fill:#F4C6DE;}
	.st9{fill:#BFBFBF;}
	.st10{clip-path:url(#SVGID_4_);}
	.st11{fill:#999999;}
	.st12{fill:#1A1A1A;}
	.st13{opacity:0.5;fill:#D36F62;}
	.st14{fill:none;stroke:#F4C6DE;stroke-linecap:round;stroke-linejoin:round;stroke-miterlimit:10;}
</style>
<g>
	<circle class="st4" cx="51.96" cy="33.79" r="33.78"/>
	<g>
		<defs>
			<path id="SVGID_1_" d="M51.96,0C33.3,0,18.17,15.13,18.17,33.78S33.3,67.57,51.96,67.57s33.79-15.13,33.79-33.78V0H51.96z"/>
		</defs>
		<clipPath id="SVGID_2_">
			<use xlink:href="#SVGID_1_"  style="overflow:visible;"/>
		</clipPath>
		<g class="st5">
			<path class="st6" d="M62.93,26.7l-99.82,99.82c-1.07,1.07-2.8,1.07-3.87,0h0c-1.07-1.07-1.07-2.8,0-3.87l99.82-99.82"/>
			<path class="st7" d="M75.07,33.33L52.44,10.69l-1.11,1.11c-0.91,0.91-0.91,2.38,0,3.29l19.34,19.34c0.91,0.91,2.38,0.91,3.29,0
				L75.07,33.33z"/>
			<path class="st8" d="M49.74,40.1l-4.08-4.08c-0.58-0.58-0.58-1.51,0-2.09l12.25-12.25l6.17,6.17L51.83,40.1
				C51.25,40.68,50.32,40.68,49.74,40.1z"/>
			<path class="st9" d="M65.77,1.47l-1.03-1.03c-0.57-0.57-1.49-0.57-2.06,0L52.44,10.69l2.06,2.06L65.77,1.47z"/>
			<path class="st0" d="M68.86,0.44l1.03,1.03L56.55,14.81l-2.06-2.06L66.8,0.44C67.37-0.13,68.29-0.13,68.86,0.44z"/>
			<path class="st9" d="M74,1.47l-1.03-1.03c-0.57-0.57-1.49-0.57-2.06,0L56.55,14.81l2.06,2.06L74,1.47z"/>
			<path class="st0" d="M77.07,0.43l1.03,1.03L60.65,18.91l-2.06-2.06L75.01,0.43C75.58-0.14,76.5-0.14,77.07,0.43z"/>
			<path class="st9" d="M82.23,1.47L81.2,0.44c-0.57-0.57-1.49-0.57-2.06,0L60.66,18.92l2.06,2.06L82.23,1.47z"/>
			<path class="st0" d="M84.29,15.87l1.03,1.03c0.57,0.57,0.57,1.49,0,2.06L73.01,31.27l-2.06-2.06L84.29,15.87z"/>
			<path class="st9" d="M85.32,21.02l-1.03-1.03L73.01,31.27l2.06,2.06l10.25-10.25C85.89,22.51,85.89,21.59,85.32,21.02z"/>
			<path class="st9" d="M85.32,12.79l-1.03-1.03L68.89,27.15l2.06,2.06l14.37-14.37C85.89,14.28,85.89,13.36,85.32,12.79z"/>
			<path class="st0" d="M84.27,7.63l1.03,1.03c0.57,0.57,0.57,1.49,0,2.06L68.88,27.14l-2.06-2.06L84.27,7.63z"/>
			<path class="st9" d="M85.32,4.56l-1.03-1.03L64.78,23.04l2.06,2.06L85.32,6.62C85.89,6.05,85.89,5.13,85.32,4.56z"/>
			<path class="st0" d="M85.32,0.44L85.32,0.44c0.57,0.57,0.57,1.49,0,2.06L64.78,23.04l-2.06-2.06L83.26,0.44
				C83.83-0.13,84.75-0.13,85.32,0.44z"/>
		</g>
	</g>
</g>
</svg>
