<?xml version="1.0" encoding="utf-8"?>
<!-- Generator: Adobe Illustrator 24.1.1, SVG Export Plug-In . SVG Version: 6.00 Build 0)  -->
<svg version="1.1" id="Capa_1" xmlns="http://www.w3.org/2000/svg" xmlns:xlink="http://www.w3.org/1999/xlink" x="0px" y="0px"
	 viewBox="0 0 103.92 67.57" style="enable-background:new 0 0 103.92 67.57;" xml:space="preserve">
<style type="text/css">
	.st0{fill:#D9D9D9;}
	.st1{fill:#D36F62;}
	.st2{fill:#F8C5B0;}
	.st3{fill:#F7A6A9;}
	.st4{fill:#007CC3;}
	.st5{clip-path:url(#SVGID_2_);}
	.st6{fill:#F173AC;}
	.st7{fill:#F5A4C7;}
	.st8{fill:#F4C6DE;}
	.st9{fill:#BFBFBF;}
	.st10{clip-path:url(#SVGID_4_);}
	.st11{fill:#999999;}
	.st12{fill:#1A1A1A;}
	.st13{opacity:0.5;fill:#D36F62;}
	.st14{fill:none;stroke:#F4C6DE;stroke-linecap:round;stroke-linejoin:round;stroke-miterlimit:10;}
</style>
<g>
	<path class="st2" d="M35.88,0c1.77,0,3.47,0.68,4.75,1.91c1.85,1.77,5.31,5,11.51,10.49c11.12,9.86,22.66,20.14,26.22,26.64
		c0,0-1.89,28.32-24.12,28.53c-10.49,0-15.52-3.36-15.52-3.36v0.6c0,1.52-1.23,2.75-2.75,2.75h-8.97c-1.52,0-2.75-1.23-2.75-2.75
		V2.75c0-1.52,1.23-2.75,2.75-2.75H35.88z"/>
	<path class="st1" d="M72.31,31.29c-0.01,0.03-2.5,11.17,4.04,17.47c1.71-5.33,2-9.72,2-9.72C77.15,36.84,75.02,34.2,72.31,31.29z"
		/>
	<path class="st1" d="M76.22,35.84c0,0-1.12,4.65,1.55,7.37c0,0,2.53-1.57,1.78-4.24C78.8,36.3,77.06,36.07,76.22,35.84z"/>
	<path class="st13" d="M76.22,35.84c0,0-1.12,4.65,1.55,7.37c0,0,2.53-1.57,1.78-4.24C78.8,36.3,77.06,36.07,76.22,35.84z"/>
</g>
</svg>
