<?xml version="1.0" encoding="utf-8"?>
<!-- Generator: Adobe Illustrator 24.1.1, SVG Export Plug-In . SVG Version: 6.00 Build 0)  -->
<svg version="1.1" id="Capa_1" xmlns="http://www.w3.org/2000/svg" xmlns:xlink="http://www.w3.org/1999/xlink" x="0px" y="0px"
	 viewBox="0 0 290 362" style="enable-background:new 0 0 290 362;" xml:space="preserve">
<style type="text/css">
	.st0{fill:#FFFFFF;}
	.st1{fill:#007CC3;}
	.st2{fill:#D36F62;}
	.st3{fill:#F8C5B0;}
	.st4{fill:#F7A6A9;}
	.st5{fill:#F173AC;}
	.st6{clip-path:url(#SVGID_2_);}
	.st7{fill:#D9D9D9;}
	.st8{fill:#BFBFBF;}
	.st9{fill:#999999;}
	.st10{fill:#1A1A1A;}
	.st11{clip-path:url(#SVGID_4_);}
	.st12{fill:#F5A4C7;}
	.st13{fill:#F4C6DE;}
	.st14{opacity:0.5;fill:#D36F62;}
	.st15{fill:none;stroke:#F4C6DE;stroke-linecap:round;stroke-linejoin:round;stroke-miterlimit:10;}
</style>
<rect x="-10.37" y="-31.03" transform="matrix(-1 4.592137e-11 -4.592137e-11 -1 290 362)" class="st0" width="310.75" height="424.05"/>
<g>
	<path class="st1" d="M105.89,165.46v-17.5h3.15v17.5H105.89z"/>
	<path class="st1" d="M114.86,154.14c0.77-1.02,1.9-1.67,3.22-1.67h0.05c2.77,0,4.32,1.65,4.32,4.57v8.42h-3.07v-8.52
		c0-0.88-0.6-1.47-1.47-1.47h-0.82c-0.88,0-1.47,0.6-1.47,1.47v8.52h-3.07v-12.75h1.42L114.86,154.14z"/>
	<path class="st1" d="M132.34,147.96v2.92h-1.67c-0.82,0-1.25,0.42-1.25,1.25v0.57h2.67v2.92h-2.67v9.82h-3.07v-9.82h-2.25v-2.92
		h2.25v-0.65c0-2.67,1.4-4.1,4.07-4.1H132.34z"/>
	<path class="st1" d="M143.51,161.11c0,2.65-1.9,4.6-4.57,4.6h-0.78c-2.67,0-4.57-1.95-4.57-4.6v-4.05c0-2.65,1.9-4.6,4.57-4.6h0.78
		c2.67,0,4.57,1.95,4.57,4.6V161.11z M140.44,156.96c0-0.82-0.67-1.5-1.5-1.5h-0.78c-0.82,0-1.5,0.67-1.5,1.5v4.25
		c0,0.83,0.67,1.5,1.5,1.5h0.78c0.82,0,1.5-0.67,1.5-1.5V156.96z"/>
	<path class="st1" d="M148.84,154.14c0.77-1.02,1.9-1.67,3.22-1.67h1.47v3.12h-2.47c-0.88,0-1.47,0.6-1.47,1.48v8.4h-3.07v-12.75
		h1.42L148.84,154.14z"/>
	<path class="st1" d="M157.84,154.14c0.78-1.02,1.83-1.67,3.12-1.67h0.05c1.57,0,2.72,0.55,3.45,1.65c0.72-1.02,1.82-1.65,3.1-1.65
		h0.05c2.7,0,4.2,1.65,4.2,4.57v8.42h-3.07v-8.52c0-0.88-0.6-1.47-1.47-1.47h-0.58c-0.82,0-1.4,0.57-1.47,1.37v8.62h-3.07v-8.52
		c0-0.88-0.6-1.47-1.47-1.47h-0.57c-0.88,0-1.47,0.6-1.47,1.47v8.52h-3.07v-12.75h1.42L157.84,154.14z"/>
	<path class="st1" d="M181.54,160.79l3.07,0.3v0.03c0,2.65-1.9,4.6-4.57,4.6h-0.78c-2.67,0-4.57-1.95-4.57-4.6v-4.05
		c0-2.65,1.9-4.6,4.57-4.6h0.78c2.67,0,4.57,1.95,4.57,4.6v2.6h-6.85v1.55c0,0.83,0.67,1.5,1.5,1.5h0.78c0.82,0,1.5-0.67,1.5-1.5
		V160.79z M177.76,157.74h3.77v-0.78c0-0.82-0.67-1.5-1.5-1.5h-0.78c-0.82,0-1.5,0.67-1.5,1.5V157.74z"/>
	<path class="st1" d="M84.36,184.14c0.78-1.02,1.83-1.67,3.12-1.67h0.05c1.57,0,2.72,0.55,3.45,1.65c0.72-1.02,1.82-1.65,3.1-1.65
		h0.05c2.7,0,4.2,1.65,4.2,4.57v8.42h-3.07v-8.52c0-0.88-0.6-1.47-1.47-1.47h-0.58c-0.82,0-1.4,0.57-1.47,1.37v8.62h-3.07v-8.52
		c0-0.88-0.6-1.47-1.47-1.47h-0.57c-0.88,0-1.47,0.6-1.47,1.47v8.52h-3.07v-12.75h1.42L84.36,184.14z"/>
	<path class="st1" d="M108.06,190.79l3.07,0.3v0.03c0,2.65-1.9,4.6-4.57,4.6h-0.78c-2.67,0-4.57-1.95-4.57-4.6v-4.05
		c0-2.65,1.9-4.6,4.57-4.6h0.78c2.67,0,4.57,1.95,4.57,4.6v2.6h-6.85v1.55c0,0.83,0.67,1.5,1.5,1.5h0.78c0.82,0,1.5-0.67,1.5-1.5
		V190.79z M104.29,187.74h3.77v-0.78c0-0.82-0.67-1.5-1.5-1.5h-0.78c-0.82,0-1.5,0.67-1.5,1.5V187.74z M107.01,180.96h-2.62l2-3.25
		h4L107.01,180.96z"/>
	<path class="st1" d="M121.46,194.04c-0.78,1.08-1.88,1.67-3.2,1.67h-0.05c-2.77,0-4.32-1.65-4.32-4.57v-4.1
		c0-2.92,1.55-4.57,4.32-4.57h0.05c0.92,0,1.75,0.3,2.47,0.9v-5.4h3.07v17.5h-1.42L121.46,194.04z M120.74,186.94
		c0-0.88-0.6-1.47-1.47-1.47h-0.82c-0.88,0-1.47,0.6-1.47,1.47v4.3c0,0.87,0.6,1.47,1.47,1.47h0.82c0.88,0,1.47-0.6,1.47-1.47
		V186.94z"/>
	<path class="st1" d="M127.06,177.96h3.07v2.58h-3.07V177.96z M127.06,195.46v-12.75h3.07v12.75H127.06z"/>
	<path class="st1" d="M139.99,190.61l3.07,0.3v0.2c0,2.65-1.9,4.6-4.57,4.6h-0.78c-2.67,0-4.57-1.95-4.57-4.6v-4.05
		c0-2.65,1.9-4.6,4.57-4.6h0.78c2.67,0,4.57,1.95,4.57,4.6v0.2l-3.07,0.3v-0.6c0-0.82-0.67-1.5-1.5-1.5h-0.78
		c-0.82,0-1.5,0.67-1.5,1.5v4.25c0,0.83,0.67,1.5,1.5,1.5h0.78c0.82,0,1.5-0.67,1.5-1.5V190.61z"/>
	<path class="st1" d="M155.74,191.11c0,2.65-1.9,4.6-4.57,4.6h-0.78c-2.67,0-4.57-1.95-4.57-4.6v-4.05c0-2.65,1.9-4.6,4.57-4.6h0.78
		c2.67,0,4.57,1.95,4.57,4.6V191.11z M152.66,186.96c0-0.82-0.67-1.5-1.5-1.5h-0.78c-0.82,0-1.5,0.67-1.5,1.5v4.25
		c0,0.83,0.67,1.5,1.5,1.5h0.78c0.82,0,1.5-0.67,1.5-1.5V186.96z"/>
	<path class="st1" d="M171.24,177.96v2.92h-1.67c-0.82,0-1.25,0.42-1.25,1.25v0.57h2.67v2.92h-2.67v9.82h-3.07v-9.82h-2.25v-2.92
		h2.25v-0.65c0-2.68,1.4-4.1,4.07-4.1H171.24z"/>
	<path class="st1" d="M172.74,177.96h3.07v2.58h-3.07V177.96z M172.74,195.46v-12.75h3.07v12.75H172.74z"/>
	<path class="st1" d="M181.39,184.14c0.77-1.02,1.9-1.67,3.22-1.67h0.05c2.77,0,4.32,1.65,4.32,4.57v8.42h-3.07v-8.52
		c0-0.88-0.6-1.47-1.47-1.47h-0.82c-0.88,0-1.47,0.6-1.47,1.47v8.52h-3.07v-12.75h1.42L181.39,184.14z"/>
	<path class="st1" d="M199.44,194.09c-0.67,1-1.9,1.63-3.4,1.63h-0.05c-2.58,0-4.12-1.47-4.12-3.57v-0.5c0-2.1,1.55-3.52,4.12-3.52
		h2.67v-1.32c0-0.72-0.67-1.32-1.5-1.32h-0.6c-0.82,0-1.5,0.6-1.5,1.32v0.47l-3.07-0.3v-0.08c0-2.5,1.9-4.42,4.57-4.42h0.6
		c2.67,0,4.57,1.92,4.57,4.42v8.57h-1.42L199.44,194.09z M194.94,191.66c0,0.67,0.52,1.2,1.3,1.2h1.15c0.67,0,1.27-0.5,1.27-1.17
		v-1.3h-2.42c-0.78,0-1.3,0.53-1.3,1.2V191.66z"/>
	<path class="st1" d="M204.86,195.46v-17.5h3.07v17.5H204.86z"/>
	<g>
		<path d="M53.99,228.69v3.73h4.06v1.2h-4.06v3.84h4.54v1.2h-6v-11.17h6v1.2H53.99z"/>
	</g>
	<g>
		<path d="M62.19,226.82v11.84h-1.46v-11.84H62.19z"/>
	</g>
	<g>
		<path d="M68.99,228.18c-0.19-0.19-0.29-0.43-0.29-0.7s0.1-0.51,0.29-0.7c0.19-0.19,0.43-0.29,0.7-0.29c0.27,0,0.49,0.1,0.68,0.29
			c0.19,0.19,0.28,0.43,0.28,0.7s-0.09,0.51-0.28,0.7c-0.19,0.19-0.41,0.29-0.68,0.29C69.42,228.47,69.18,228.37,68.99,228.18z
			 M70.4,229.89v8.77h-1.46v-8.77H70.4z"/>
	</g>
	<g>
		<path d="M79.74,230.7c0.66,0.65,0.99,1.58,0.99,2.79v5.17H79.3v-4.96c0-0.88-0.22-1.54-0.66-2.01s-1.04-0.7-1.79-0.7
			c-0.77,0-1.38,0.24-1.83,0.72c-0.45,0.48-0.68,1.18-0.68,2.1v4.85h-1.46v-8.77h1.46v1.25c0.29-0.45,0.68-0.79,1.18-1.04
			c0.5-0.25,1.04-0.37,1.64-0.37C78.22,229.73,79.08,230.06,79.74,230.7z"/>
	</g>
	<g>
		<path d="M86.69,231.09h-1.84v7.57h-1.46v-7.57h-1.14v-1.2h1.14v-0.62c0-0.98,0.25-1.7,0.76-2.15s1.32-0.68,2.44-0.68v1.22
			c-0.64,0-1.09,0.13-1.35,0.38c-0.26,0.25-0.39,0.66-0.39,1.24v0.62h1.84V231.09z"/>
	</g>
	<g>
		<path d="M89.98,238.25c-0.67-0.37-1.19-0.9-1.57-1.59c-0.38-0.69-0.57-1.49-0.57-2.39c0-0.9,0.19-1.69,0.58-2.38
			c0.39-0.69,0.92-1.22,1.59-1.58c0.67-0.37,1.42-0.55,2.26-0.55s1.58,0.18,2.26,0.55c0.67,0.37,1.2,0.89,1.59,1.58
			s0.58,1.48,0.58,2.38c0,0.91-0.2,1.7-0.6,2.39c-0.4,0.69-0.94,1.22-1.62,1.59s-1.44,0.56-2.27,0.56
			C91.39,238.8,90.64,238.62,89.98,238.25z M93.68,237.16c0.46-0.25,0.83-0.61,1.11-1.1c0.28-0.49,0.42-1.09,0.42-1.79
			c0-0.7-0.14-1.3-0.42-1.79c-0.28-0.49-0.64-0.86-1.09-1.1c-0.45-0.24-0.93-0.36-1.46-0.36c-0.53,0-1.02,0.12-1.46,0.36
			s-0.8,0.61-1.06,1.1c-0.27,0.49-0.4,1.09-0.4,1.79c0,0.71,0.13,1.32,0.39,1.81c0.26,0.49,0.61,0.86,1.05,1.1s0.92,0.36,1.44,0.36
			S93.22,237.4,93.68,237.16z"/>
	</g>
	<g>
		<path d="M101.18,230.15c0.47-0.28,1.05-0.42,1.74-0.42v1.5h-0.38c-1.63,0-2.45,0.89-2.45,2.66v4.77h-1.46v-8.77h1.46v1.42
			C100.34,230.82,100.7,230.43,101.18,230.15z"/>
	</g>
	<g>
		<path d="M116.96,230.16c0.53,0.28,0.96,0.71,1.26,1.27c0.31,0.57,0.46,1.25,0.46,2.06v5.17h-1.44v-4.96
			c0-0.88-0.22-1.54-0.65-2.01c-0.43-0.46-1.02-0.7-1.75-0.7c-0.76,0-1.36,0.24-1.81,0.73c-0.45,0.49-0.67,1.19-0.67,2.1v4.83h-1.44
			v-4.96c0-0.88-0.22-1.54-0.65-2.01s-1.02-0.7-1.75-0.7c-0.76,0-1.36,0.24-1.81,0.73c-0.45,0.49-0.67,1.19-0.67,2.1v4.83h-1.46
			v-8.77h1.46v1.26c0.29-0.46,0.67-0.81,1.16-1.06c0.49-0.25,1.02-0.37,1.61-0.37c0.74,0,1.39,0.17,1.95,0.5
			c0.57,0.33,0.99,0.82,1.26,1.46c0.25-0.62,0.65-1.1,1.22-1.44c0.57-0.34,1.19-0.51,1.89-0.51
			C115.82,229.73,116.43,229.88,116.96,230.16z"/>
	</g>
	<g>
		<path d="M129.02,234.82h-7.01c0.05,0.86,0.35,1.54,0.89,2.02c0.54,0.49,1.19,0.73,1.96,0.73c0.63,0,1.15-0.15,1.58-0.44
			c0.42-0.29,0.72-0.68,0.89-1.18h1.57c-0.23,0.84-0.7,1.53-1.41,2.06c-0.7,0.53-1.58,0.79-2.62,0.79c-0.83,0-1.58-0.19-2.23-0.56
			s-1.17-0.9-1.54-1.59c-0.37-0.69-0.56-1.49-0.56-2.39c0-0.91,0.18-1.7,0.54-2.38c0.36-0.68,0.87-1.21,1.53-1.58
			c0.66-0.37,1.41-0.55,2.26-0.55c0.83,0,1.57,0.18,2.21,0.54c0.64,0.36,1.13,0.86,1.48,1.5s0.52,1.35,0.52,2.15
			C129.07,234.22,129.06,234.51,129.02,234.82z M127.2,232.21c-0.25-0.4-0.58-0.7-1-0.91c-0.42-0.21-0.89-0.31-1.4-0.31
			c-0.74,0-1.36,0.23-1.88,0.7c-0.52,0.47-0.81,1.12-0.89,1.95h5.54C127.57,233.08,127.45,232.61,127.2,232.21z"/>
	</g>
	<g>
		<path d="M135.26,231.88c0.36-0.68,0.86-1.2,1.5-1.58c0.63-0.37,1.35-0.56,2.14-0.56c0.68,0,1.32,0.16,1.9,0.47
			c0.59,0.32,1.04,0.73,1.34,1.24v-4.64h1.47v11.84h-1.47v-1.65c-0.29,0.52-0.71,0.95-1.28,1.29s-1.23,0.5-1.98,0.5
			c-0.78,0-1.49-0.19-2.12-0.58c-0.63-0.38-1.13-0.92-1.5-1.62c-0.36-0.69-0.54-1.48-0.54-2.37
			C134.72,233.35,134.9,232.56,135.26,231.88z M141.74,232.53c-0.27-0.49-0.63-0.87-1.08-1.13s-0.95-0.39-1.5-0.39
			s-1.04,0.13-1.49,0.38c-0.45,0.26-0.81,0.63-1.07,1.12c-0.27,0.49-0.4,1.07-0.4,1.73c0,0.67,0.13,1.26,0.4,1.75
			s0.62,0.88,1.07,1.14c0.45,0.26,0.94,0.39,1.49,0.39s1.04-0.13,1.5-0.39c0.45-0.26,0.81-0.64,1.08-1.14s0.4-1.07,0.4-1.74
			C142.14,233.6,142.01,233.02,141.74,232.53z"/>
	</g>
	<g>
		<path d="M154.03,234.82h-7.01c0.05,0.86,0.35,1.54,0.89,2.02c0.54,0.49,1.19,0.73,1.96,0.73c0.63,0,1.15-0.15,1.58-0.44
			c0.42-0.29,0.72-0.68,0.89-1.18h1.57c-0.23,0.84-0.7,1.53-1.41,2.06c-0.7,0.53-1.58,0.79-2.62,0.79c-0.83,0-1.58-0.19-2.23-0.56
			s-1.17-0.9-1.54-1.59c-0.37-0.69-0.56-1.49-0.56-2.39c0-0.91,0.18-1.7,0.54-2.38c0.36-0.68,0.87-1.21,1.53-1.58
			c0.66-0.37,1.41-0.55,2.26-0.55c0.83,0,1.57,0.18,2.21,0.54c0.64,0.36,1.13,0.86,1.48,1.5s0.52,1.35,0.52,2.15
			C154.08,234.22,154.06,234.51,154.03,234.82z M152.21,232.21c-0.25-0.4-0.58-0.7-1-0.91c-0.42-0.21-0.89-0.31-1.4-0.31
			c-0.74,0-1.36,0.23-1.88,0.7c-0.52,0.47-0.81,1.12-0.89,1.95h5.54C152.58,233.08,152.45,232.61,152.21,232.21z"/>
	</g>
	<g>
		<path d="M162.05,231.09v5.17c0,0.43,0.09,0.73,0.27,0.9c0.18,0.18,0.5,0.26,0.94,0.26h1.07v1.23h-1.31
			c-0.81,0-1.42-0.19-1.82-0.56c-0.41-0.37-0.61-0.99-0.61-1.84v-5.17h-1.14v-1.2h1.14v-2.21h1.46v2.21h2.29v1.2H162.05z"/>
	</g>
	<g>
		<path d="M173.87,229.89v8.77h-1.46v-1.3c-0.28,0.45-0.66,0.8-1.16,1.05c-0.5,0.25-1.04,0.38-1.64,0.38c-0.68,0-1.3-0.14-1.84-0.42
			s-0.97-0.71-1.29-1.27c-0.31-0.56-0.47-1.25-0.47-2.06v-5.14h1.44v4.94c0,0.86,0.22,1.53,0.66,1.99s1.03,0.7,1.79,0.7
			c0.78,0,1.39-0.24,1.84-0.72c0.45-0.48,0.67-1.18,0.67-2.1v-4.82H173.87z"/>
	</g>
	<g>
		<path d="M188.56,234.82h-7.01c0.05,0.86,0.35,1.54,0.89,2.02c0.54,0.49,1.19,0.73,1.96,0.73c0.63,0,1.15-0.15,1.58-0.44
			c0.42-0.29,0.72-0.68,0.89-1.18h1.57c-0.23,0.84-0.7,1.53-1.41,2.06c-0.7,0.53-1.58,0.79-2.62,0.79c-0.83,0-1.58-0.19-2.23-0.56
			s-1.17-0.9-1.54-1.59c-0.37-0.69-0.56-1.49-0.56-2.39c0-0.91,0.18-1.7,0.54-2.38c0.36-0.68,0.87-1.21,1.53-1.58
			c0.66-0.37,1.41-0.55,2.26-0.55c0.83,0,1.57,0.18,2.21,0.54c0.64,0.36,1.13,0.86,1.48,1.5s0.52,1.35,0.52,2.15
			C188.61,234.22,188.59,234.51,188.56,234.82z M186.74,232.21c-0.25-0.4-0.58-0.7-1-0.91c-0.42-0.21-0.89-0.31-1.4-0.31
			c-0.74,0-1.36,0.23-1.88,0.7c-0.52,0.47-0.81,1.12-0.89,1.95h5.54C187.1,233.08,186.98,232.61,186.74,232.21z"/>
	</g>
	<g>
		<path d="M191.82,238.46c-0.53-0.23-0.96-0.55-1.26-0.96c-0.31-0.41-0.48-0.88-0.51-1.42h1.5c0.04,0.44,0.25,0.79,0.62,1.07
			s0.85,0.42,1.45,0.42c0.55,0,0.99-0.12,1.31-0.37s0.48-0.55,0.48-0.93c0-0.38-0.17-0.67-0.51-0.86c-0.34-0.19-0.87-0.37-1.58-0.55
			c-0.65-0.17-1.18-0.34-1.59-0.52c-0.41-0.18-0.76-0.44-1.06-0.78c-0.29-0.35-0.44-0.8-0.44-1.37c0-0.45,0.13-0.86,0.4-1.23
			c0.27-0.37,0.65-0.67,1.14-0.89s1.05-0.33,1.68-0.33c0.97,0,1.75,0.25,2.35,0.74c0.6,0.49,0.92,1.16,0.96,2.02h-1.46
			c-0.03-0.46-0.22-0.83-0.55-1.1s-0.79-0.42-1.35-0.42c-0.52,0-0.94,0.11-1.25,0.34c-0.31,0.22-0.46,0.52-0.46,0.88
			c0,0.29,0.09,0.53,0.28,0.71s0.42,0.34,0.7,0.45c0.28,0.11,0.67,0.24,1.18,0.38c0.63,0.17,1.14,0.34,1.54,0.5s0.73,0.41,1.02,0.74
			c0.28,0.33,0.43,0.76,0.44,1.3c0,0.48-0.13,0.91-0.4,1.3s-0.64,0.69-1.13,0.9c-0.49,0.22-1.04,0.33-1.67,0.33
			C192.96,238.8,192.36,238.69,191.82,238.46z"/>
	</g>
	<g>
		<path d="M200.65,231.09v5.17c0,0.43,0.09,0.73,0.27,0.9c0.18,0.18,0.5,0.26,0.94,0.26h1.07v1.23h-1.31
			c-0.81,0-1.42-0.19-1.82-0.56c-0.41-0.37-0.61-0.99-0.61-1.84v-5.17h-1.14v-1.2h1.14v-2.21h1.46v2.21h2.29v1.2H200.65z"/>
	</g>
	<g>
		<path d="M212.48,229.89v8.77h-1.46v-1.3c-0.28,0.45-0.66,0.8-1.16,1.05c-0.5,0.25-1.04,0.38-1.64,0.38c-0.68,0-1.3-0.14-1.84-0.42
			s-0.97-0.71-1.29-1.27c-0.31-0.56-0.47-1.25-0.47-2.06v-5.14h1.44v4.94c0,0.86,0.22,1.53,0.66,1.99s1.03,0.7,1.79,0.7
			c0.78,0,1.39-0.24,1.84-0.72c0.45-0.48,0.67-1.18,0.67-2.1v-4.82H212.48z"/>
	</g>
	<g>
		<path d="M214.94,231.88c0.36-0.68,0.86-1.2,1.5-1.58c0.63-0.37,1.35-0.56,2.14-0.56c0.68,0,1.32,0.16,1.9,0.47
			c0.59,0.32,1.04,0.73,1.34,1.24v-4.64h1.47v11.84h-1.47v-1.65c-0.29,0.52-0.71,0.95-1.28,1.29s-1.23,0.5-1.98,0.5
			c-0.78,0-1.49-0.19-2.12-0.58c-0.63-0.38-1.13-0.92-1.5-1.62c-0.36-0.69-0.54-1.48-0.54-2.37
			C214.4,233.35,214.58,232.56,214.94,231.88z M221.42,232.53c-0.27-0.49-0.63-0.87-1.08-1.13s-0.95-0.39-1.5-0.39
			s-1.04,0.13-1.49,0.38c-0.45,0.26-0.81,0.63-1.07,1.12c-0.27,0.49-0.4,1.07-0.4,1.73c0,0.67,0.13,1.26,0.4,1.75
			s0.62,0.88,1.07,1.14c0.45,0.26,0.94,0.39,1.49,0.39s1.04-0.13,1.5-0.39c0.45-0.26,0.81-0.64,1.08-1.14s0.4-1.07,0.4-1.74
			C221.82,233.6,221.69,233.02,221.42,232.53z"/>
	</g>
	<g>
		<path d="M225.81,228.18c-0.19-0.19-0.29-0.43-0.29-0.7s0.1-0.51,0.29-0.7c0.19-0.19,0.43-0.29,0.7-0.29c0.27,0,0.49,0.1,0.68,0.29
			c0.19,0.19,0.28,0.43,0.28,0.7s-0.09,0.51-0.28,0.7c-0.19,0.19-0.41,0.29-0.68,0.29C226.23,228.47,226,228.37,225.81,228.18z
			 M227.22,229.89v8.77h-1.46v-8.77H227.22z"/>
	</g>
	<g>
		<path d="M231.29,238.25c-0.67-0.37-1.19-0.9-1.57-1.59c-0.38-0.69-0.57-1.49-0.57-2.39c0-0.9,0.19-1.69,0.58-2.38
			c0.39-0.69,0.92-1.22,1.59-1.58c0.67-0.37,1.42-0.55,2.26-0.55s1.58,0.18,2.26,0.55c0.67,0.37,1.2,0.89,1.59,1.58
			s0.58,1.48,0.58,2.38c0,0.91-0.2,1.7-0.6,2.39c-0.4,0.69-0.94,1.22-1.62,1.59s-1.44,0.56-2.27,0.56
			C232.7,238.8,231.95,238.62,231.29,238.25z M234.99,237.16c0.46-0.25,0.83-0.61,1.11-1.1c0.28-0.49,0.42-1.09,0.42-1.79
			c0-0.7-0.14-1.3-0.42-1.79c-0.28-0.49-0.64-0.86-1.09-1.1c-0.45-0.24-0.93-0.36-1.46-0.36c-0.53,0-1.02,0.12-1.46,0.36
			s-0.8,0.61-1.06,1.1c-0.27,0.49-0.4,1.09-0.4,1.79c0,0.71,0.13,1.32,0.39,1.81c0.26,0.49,0.61,0.86,1.05,1.1s0.92,0.36,1.44,0.36
			S234.53,237.4,234.99,237.16z"/>
	</g>
	<g>
		<path d="M67.11,254.25c0.57,0.33,1,0.75,1.27,1.25v-1.6h1.47v8.96c0,0.8-0.17,1.51-0.51,2.14c-0.34,0.62-0.83,1.11-1.46,1.46
			c-0.63,0.35-1.37,0.53-2.22,0.53c-1.15,0-2.11-0.27-2.88-0.82c-0.77-0.54-1.22-1.29-1.36-2.22h1.44c0.16,0.53,0.49,0.96,0.99,1.29
			c0.5,0.33,1.1,0.49,1.81,0.49c0.8,0,1.45-0.25,1.96-0.75c0.51-0.5,0.76-1.21,0.76-2.11v-1.84c-0.29,0.51-0.71,0.94-1.28,1.28
			c-0.57,0.34-1.23,0.51-1.98,0.51c-0.78,0-1.49-0.19-2.12-0.58c-0.63-0.38-1.13-0.92-1.5-1.62c-0.36-0.69-0.54-1.48-0.54-2.37
			c0-0.9,0.18-1.68,0.54-2.36c0.36-0.68,0.86-1.2,1.5-1.58c0.63-0.37,1.34-0.56,2.12-0.56C65.87,253.75,66.54,253.92,67.11,254.25z
			 M67.98,256.53c-0.27-0.49-0.63-0.87-1.08-1.13s-0.95-0.39-1.5-0.39s-1.04,0.13-1.49,0.38c-0.45,0.26-0.81,0.63-1.07,1.12
			c-0.27,0.49-0.4,1.07-0.4,1.73c0,0.67,0.13,1.26,0.4,1.75s0.62,0.88,1.07,1.14c0.45,0.26,0.94,0.39,1.49,0.39s1.04-0.13,1.5-0.39
			c0.45-0.26,0.81-0.64,1.08-1.14s0.4-1.07,0.4-1.74C68.38,257.6,68.24,257.02,67.98,256.53z"/>
	</g>
	<g>
		<path d="M72.36,252.18c-0.19-0.19-0.29-0.43-0.29-0.7s0.1-0.51,0.29-0.7c0.19-0.19,0.43-0.29,0.7-0.29c0.27,0,0.49,0.1,0.68,0.29
			c0.19,0.19,0.28,0.43,0.28,0.7s-0.09,0.51-0.28,0.7c-0.19,0.19-0.41,0.29-0.68,0.29C72.79,252.47,72.55,252.37,72.36,252.18z
			 M73.77,253.89v8.77h-1.46v-8.77H73.77z"/>
	</g>
	<g>
		<path d="M83.11,254.7c0.66,0.65,0.99,1.58,0.99,2.79v5.17h-1.44v-4.96c0-0.88-0.22-1.54-0.66-2.01s-1.04-0.7-1.79-0.7
			c-0.77,0-1.38,0.24-1.83,0.72c-0.45,0.48-0.68,1.18-0.68,2.1v4.85h-1.46v-8.77h1.46v1.25c0.29-0.45,0.68-0.79,1.18-1.04
			c0.5-0.25,1.04-0.37,1.64-0.37C81.59,253.73,82.45,254.06,83.11,254.7z"/>
	</g>
	<g>
		<path d="M94.44,258.82h-7.01c0.05,0.86,0.35,1.54,0.89,2.02c0.54,0.49,1.19,0.73,1.96,0.73c0.63,0,1.15-0.15,1.58-0.44
			c0.42-0.29,0.72-0.68,0.89-1.18h1.57c-0.23,0.84-0.7,1.53-1.41,2.06c-0.7,0.53-1.58,0.79-2.62,0.79c-0.83,0-1.58-0.19-2.23-0.56
			s-1.17-0.9-1.54-1.59c-0.37-0.69-0.56-1.49-0.56-2.39c0-0.91,0.18-1.7,0.54-2.38c0.36-0.68,0.87-1.21,1.53-1.58
			c0.66-0.37,1.41-0.55,2.26-0.55c0.83,0,1.57,0.18,2.21,0.54c0.64,0.36,1.13,0.86,1.48,1.5s0.52,1.35,0.52,2.15
			C94.49,258.22,94.47,258.51,94.44,258.82z M92.62,256.21c-0.25-0.4-0.58-0.7-1-0.91c-0.42-0.21-0.89-0.31-1.4-0.31
			c-0.74,0-1.36,0.23-1.88,0.7c-0.52,0.47-0.81,1.12-0.89,1.95h5.54C92.99,257.08,92.86,256.61,92.62,256.21z"/>
	</g>
	<g>
		<path d="M96.41,255.88c0.36-0.68,0.87-1.2,1.51-1.58c0.65-0.37,1.38-0.56,2.22-0.56c1.08,0,1.96,0.26,2.66,0.78
			c0.7,0.52,1.16,1.25,1.38,2.18h-1.57c-0.15-0.53-0.44-0.95-0.87-1.26c-0.43-0.31-0.97-0.46-1.61-0.46c-0.83,0-1.5,0.29-2.02,0.86
			c-0.51,0.57-0.77,1.38-0.77,2.42c0,1.06,0.26,1.87,0.77,2.45c0.51,0.58,1.18,0.86,2.02,0.86c0.64,0,1.17-0.15,1.6-0.45
			s0.72-0.73,0.88-1.28h1.57c-0.23,0.9-0.7,1.61-1.41,2.15c-0.7,0.54-1.58,0.81-2.64,0.81c-0.83,0-1.57-0.19-2.22-0.56
			s-1.15-0.9-1.51-1.58c-0.36-0.68-0.54-1.48-0.54-2.4C95.87,257.35,96.05,256.56,96.41,255.88z"/>
	</g>
	<g>
		<path d="M107.71,262.25c-0.67-0.37-1.19-0.9-1.57-1.59c-0.38-0.69-0.57-1.49-0.57-2.39c0-0.9,0.19-1.69,0.58-2.38
			c0.39-0.69,0.92-1.22,1.59-1.58c0.67-0.37,1.42-0.55,2.26-0.55s1.58,0.18,2.26,0.55c0.67,0.37,1.2,0.89,1.59,1.58
			s0.58,1.48,0.58,2.38c0,0.91-0.2,1.7-0.6,2.39c-0.4,0.69-0.94,1.22-1.62,1.59s-1.44,0.56-2.27,0.56
			C109.12,262.8,108.38,262.62,107.71,262.25z M111.42,261.16c0.46-0.25,0.83-0.61,1.11-1.1c0.28-0.49,0.42-1.09,0.42-1.79
			c0-0.7-0.14-1.3-0.42-1.79c-0.28-0.49-0.64-0.86-1.09-1.1c-0.45-0.24-0.93-0.36-1.46-0.36c-0.53,0-1.02,0.12-1.46,0.36
			s-0.8,0.61-1.06,1.1c-0.27,0.49-0.4,1.09-0.4,1.79c0,0.71,0.13,1.32,0.39,1.81c0.26,0.49,0.61,0.86,1.05,1.1s0.92,0.36,1.44,0.36
			S110.96,261.4,111.42,261.16z"/>
	</g>
	<g>
		<path d="M117.82,250.82v11.84h-1.46v-11.84H117.82z"/>
	</g>
	<g>
		<path d="M121.89,262.25c-0.67-0.37-1.19-0.9-1.57-1.59c-0.38-0.69-0.57-1.49-0.57-2.39c0-0.9,0.19-1.69,0.58-2.38
			c0.39-0.69,0.92-1.22,1.59-1.58c0.67-0.37,1.42-0.55,2.26-0.55s1.58,0.18,2.26,0.55c0.67,0.37,1.2,0.89,1.59,1.58
			s0.58,1.48,0.58,2.38c0,0.91-0.2,1.7-0.6,2.39c-0.4,0.69-0.94,1.22-1.62,1.59s-1.44,0.56-2.27,0.56
			C123.3,262.8,122.56,262.62,121.89,262.25z M125.59,261.16c0.46-0.25,0.83-0.61,1.11-1.1c0.28-0.49,0.42-1.09,0.42-1.79
			c0-0.7-0.14-1.3-0.42-1.79c-0.28-0.49-0.64-0.86-1.09-1.1c-0.45-0.24-0.93-0.36-1.46-0.36c-0.53,0-1.02,0.12-1.46,0.36
			s-0.8,0.61-1.06,1.1c-0.27,0.49-0.4,1.09-0.4,1.79c0,0.71,0.13,1.32,0.39,1.81c0.26,0.49,0.61,0.86,1.05,1.1s0.92,0.36,1.44,0.36
			S125.14,261.4,125.59,261.16z M125.75,251.3l-3.41,1.82v-1.09l3.41-2V251.3z"/>
	</g>
	<g>
		<path d="M136.15,254.25c0.57,0.33,1,0.75,1.27,1.25v-1.6h1.47v8.96c0,0.8-0.17,1.51-0.51,2.14c-0.34,0.62-0.83,1.11-1.46,1.46
			c-0.63,0.35-1.37,0.53-2.22,0.53c-1.15,0-2.11-0.27-2.88-0.82c-0.77-0.54-1.22-1.29-1.36-2.22h1.44c0.16,0.53,0.49,0.96,0.99,1.29
			c0.5,0.33,1.1,0.49,1.81,0.49c0.8,0,1.45-0.25,1.96-0.75c0.51-0.5,0.76-1.21,0.76-2.11v-1.84c-0.29,0.51-0.71,0.94-1.28,1.28
			c-0.57,0.34-1.23,0.51-1.98,0.51c-0.78,0-1.49-0.19-2.12-0.58c-0.63-0.38-1.13-0.92-1.5-1.62c-0.36-0.69-0.54-1.48-0.54-2.37
			c0-0.9,0.18-1.68,0.54-2.36c0.36-0.68,0.86-1.2,1.5-1.58c0.63-0.37,1.34-0.56,2.12-0.56
			C134.91,253.75,135.58,253.92,136.15,254.25z M137.02,256.53c-0.27-0.49-0.63-0.87-1.08-1.13s-0.95-0.39-1.5-0.39
			s-1.04,0.13-1.49,0.38c-0.45,0.26-0.81,0.63-1.07,1.12c-0.27,0.49-0.4,1.07-0.4,1.73c0,0.67,0.13,1.26,0.4,1.75
			s0.62,0.88,1.07,1.14c0.45,0.26,0.94,0.39,1.49,0.39s1.04-0.13,1.5-0.39c0.45-0.26,0.81-0.64,1.08-1.14s0.4-1.07,0.4-1.74
			C137.42,257.6,137.28,257.02,137.02,256.53z"/>
	</g>
	<g>
		<path d="M141.4,252.18c-0.19-0.19-0.29-0.43-0.29-0.7s0.1-0.51,0.29-0.7c0.19-0.19,0.43-0.29,0.7-0.29c0.27,0,0.49,0.1,0.68,0.29
			c0.19,0.19,0.28,0.43,0.28,0.7s-0.09,0.51-0.28,0.7c-0.19,0.19-0.41,0.29-0.68,0.29C141.83,252.47,141.59,252.37,141.4,252.18z
			 M142.81,253.89v8.77h-1.46v-8.77H142.81z"/>
	</g>
	<g>
		<path d="M145.29,255.88c0.36-0.68,0.87-1.2,1.51-1.58c0.65-0.37,1.38-0.56,2.22-0.56c1.08,0,1.96,0.26,2.66,0.78
			c0.7,0.52,1.16,1.25,1.38,2.18h-1.57c-0.15-0.53-0.44-0.95-0.87-1.26c-0.43-0.31-0.97-0.46-1.61-0.46c-0.83,0-1.5,0.29-2.02,0.86
			c-0.51,0.57-0.77,1.38-0.77,2.42c0,1.06,0.26,1.87,0.77,2.45c0.51,0.58,1.18,0.86,2.02,0.86c0.64,0,1.17-0.15,1.6-0.45
			s0.72-0.73,0.88-1.28h1.57c-0.23,0.9-0.7,1.61-1.41,2.15c-0.7,0.54-1.58,0.81-2.64,0.81c-0.83,0-1.57-0.19-2.22-0.56
			s-1.15-0.9-1.51-1.58c-0.36-0.68-0.54-1.48-0.54-2.4C144.75,257.35,144.93,256.56,145.29,255.88z"/>
	</g>
	<g>
		<path d="M156.59,262.25c-0.67-0.37-1.19-0.9-1.57-1.59c-0.38-0.69-0.57-1.49-0.57-2.39c0-0.9,0.19-1.69,0.58-2.38
			c0.39-0.69,0.92-1.22,1.59-1.58c0.67-0.37,1.42-0.55,2.26-0.55s1.58,0.18,2.26,0.55c0.67,0.37,1.2,0.89,1.59,1.58
			s0.58,1.48,0.58,2.38c0,0.91-0.2,1.7-0.6,2.39c-0.4,0.69-0.94,1.22-1.62,1.59s-1.44,0.56-2.27,0.56
			C158,262.8,157.26,262.62,156.59,262.25z M160.3,261.16c0.46-0.25,0.83-0.61,1.11-1.1c0.28-0.49,0.42-1.09,0.42-1.79
			c0-0.7-0.14-1.3-0.42-1.79c-0.28-0.49-0.64-0.86-1.09-1.1c-0.45-0.24-0.93-0.36-1.46-0.36c-0.53,0-1.02,0.12-1.46,0.36
			s-0.8,0.61-1.06,1.1c-0.27,0.49-0.4,1.09-0.4,1.79c0,0.71,0.13,1.32,0.39,1.81c0.26,0.49,0.61,0.86,1.05,1.1s0.92,0.36,1.44,0.36
			S159.84,261.4,160.3,261.16z"/>
	</g>
	<g>
		<path d="M169.56,252.18c-0.19-0.19-0.29-0.43-0.29-0.7s0.1-0.51,0.29-0.7c0.19-0.19,0.43-0.29,0.7-0.29c0.27,0,0.49,0.1,0.68,0.29
			c0.19,0.19,0.28,0.43,0.28,0.7s-0.09,0.51-0.28,0.7c-0.19,0.19-0.41,0.29-0.68,0.29C169.99,252.47,169.75,252.37,169.56,252.18z
			 M170.97,253.89v8.77h-1.46v-8.77H170.97z"/>
	</g>
	<g>
		<path d="M180.31,254.7c0.66,0.65,0.99,1.58,0.99,2.79v5.17h-1.44v-4.96c0-0.88-0.22-1.54-0.66-2.01s-1.04-0.7-1.79-0.7
			c-0.77,0-1.38,0.24-1.83,0.72c-0.45,0.48-0.68,1.18-0.68,2.1v4.85h-1.46v-8.77h1.46v1.25c0.29-0.45,0.68-0.79,1.18-1.04
			c0.5-0.25,1.04-0.37,1.64-0.37C178.79,253.73,179.65,254.06,180.31,254.7z"/>
	</g>
	<g>
		<path d="M185.47,255.09v5.17c0,0.43,0.09,0.73,0.27,0.9c0.18,0.18,0.5,0.26,0.94,0.26h1.07v1.23h-1.31
			c-0.81,0-1.42-0.19-1.82-0.56c-0.41-0.37-0.61-0.99-0.61-1.84v-5.17h-1.14v-1.2h1.14v-2.21h1.46v2.21h2.29v1.2H185.47z"/>
	</g>
	<g>
		<path d="M197.47,258.82h-7.01c0.05,0.86,0.35,1.54,0.89,2.02c0.54,0.49,1.19,0.73,1.96,0.73c0.63,0,1.15-0.15,1.58-0.44
			c0.42-0.29,0.72-0.68,0.89-1.18h1.57c-0.23,0.84-0.7,1.53-1.41,2.06c-0.7,0.53-1.58,0.79-2.62,0.79c-0.83,0-1.58-0.19-2.23-0.56
			s-1.17-0.9-1.54-1.59c-0.37-0.69-0.56-1.49-0.56-2.39c0-0.91,0.18-1.7,0.54-2.38c0.36-0.68,0.87-1.21,1.53-1.58
			c0.66-0.37,1.41-0.55,2.26-0.55c0.83,0,1.57,0.18,2.21,0.54c0.64,0.36,1.13,0.86,1.48,1.5s0.52,1.35,0.52,2.15
			C197.51,258.22,197.5,258.51,197.47,258.82z M195.64,256.21c-0.25-0.4-0.58-0.7-1-0.91c-0.42-0.21-0.89-0.31-1.4-0.31
			c-0.74,0-1.36,0.23-1.88,0.7c-0.52,0.47-0.81,1.12-0.89,1.95h5.54C196.01,257.08,195.89,256.61,195.64,256.21z"/>
	</g>
	<g>
		<path d="M205.04,254.25c0.57,0.33,1,0.75,1.27,1.25v-1.6h1.47v8.96c0,0.8-0.17,1.51-0.51,2.14c-0.34,0.62-0.83,1.11-1.46,1.46
			c-0.63,0.35-1.37,0.53-2.22,0.53c-1.15,0-2.11-0.27-2.88-0.82c-0.77-0.54-1.22-1.29-1.36-2.22h1.44c0.16,0.53,0.49,0.96,0.99,1.29
			c0.5,0.33,1.1,0.49,1.81,0.49c0.8,0,1.45-0.25,1.96-0.75c0.51-0.5,0.76-1.21,0.76-2.11v-1.84c-0.29,0.51-0.71,0.94-1.28,1.28
			c-0.57,0.34-1.23,0.51-1.98,0.51c-0.78,0-1.49-0.19-2.12-0.58c-0.63-0.38-1.13-0.92-1.5-1.62c-0.36-0.69-0.54-1.48-0.54-2.37
			c0-0.9,0.18-1.68,0.54-2.36c0.36-0.68,0.86-1.2,1.5-1.58c0.63-0.37,1.34-0.56,2.12-0.56
			C203.81,253.75,204.47,253.92,205.04,254.25z M205.91,256.53c-0.27-0.49-0.63-0.87-1.08-1.13s-0.95-0.39-1.5-0.39
			s-1.04,0.13-1.49,0.38c-0.45,0.26-0.81,0.63-1.07,1.12c-0.27,0.49-0.4,1.07-0.4,1.73c0,0.67,0.13,1.26,0.4,1.75
			s0.62,0.88,1.07,1.14c0.45,0.26,0.94,0.39,1.49,0.39s1.04-0.13,1.5-0.39c0.45-0.26,0.81-0.64,1.08-1.14s0.4-1.07,0.4-1.74
			C206.31,257.6,206.18,257.02,205.91,256.53z"/>
	</g>
	<g>
		<path d="M212.8,254.15c0.47-0.28,1.05-0.42,1.74-0.42v1.5h-0.38c-1.63,0-2.45,0.89-2.45,2.66v4.77h-1.46v-8.77h1.46v1.42
			C211.96,254.82,212.33,254.43,212.8,254.15z"/>
	</g>
	<g>
		<path d="M216.22,255.88c0.36-0.68,0.86-1.2,1.5-1.58c0.63-0.37,1.34-0.56,2.12-0.56c0.77,0,1.43,0.17,2,0.5
			c0.57,0.33,0.99,0.75,1.26,1.25v-1.6h1.47v8.77h-1.47v-1.63c-0.29,0.51-0.72,0.94-1.29,1.27c-0.57,0.34-1.24,0.5-1.99,0.5
			c-0.78,0-1.48-0.19-2.11-0.58c-0.63-0.38-1.13-0.92-1.49-1.62c-0.36-0.69-0.54-1.48-0.54-2.37
			C215.67,257.35,215.85,256.56,216.22,255.88z M222.7,256.53c-0.27-0.49-0.63-0.87-1.08-1.13s-0.95-0.39-1.5-0.39
			s-1.04,0.13-1.49,0.38c-0.45,0.26-0.81,0.63-1.07,1.12c-0.27,0.49-0.4,1.07-0.4,1.73c0,0.67,0.13,1.26,0.4,1.75
			s0.62,0.88,1.07,1.14c0.45,0.26,0.94,0.39,1.49,0.39s1.04-0.13,1.5-0.39c0.45-0.26,0.81-0.64,1.08-1.14s0.4-1.07,0.4-1.74
			C223.1,257.6,222.96,257.02,222.7,256.53z"/>
	</g>
	<g>
		<path d="M228.49,250.82v11.84h-1.46v-11.84H228.49z"/>
	</g>
	<g>
		<path d="M49.52,286.46c-0.53-0.23-0.96-0.55-1.26-0.96c-0.31-0.41-0.48-0.88-0.51-1.42h1.5c0.04,0.44,0.25,0.79,0.62,1.07
			s0.85,0.42,1.45,0.42c0.55,0,0.99-0.12,1.31-0.37s0.48-0.55,0.48-0.93c0-0.38-0.17-0.67-0.51-0.86c-0.34-0.19-0.87-0.37-1.58-0.55
			c-0.65-0.17-1.18-0.34-1.59-0.52c-0.41-0.18-0.76-0.44-1.06-0.78c-0.29-0.35-0.44-0.8-0.44-1.37c0-0.45,0.13-0.86,0.4-1.23
			c0.27-0.37,0.65-0.67,1.14-0.89s1.05-0.33,1.68-0.33c0.97,0,1.75,0.25,2.35,0.74c0.6,0.49,0.92,1.16,0.96,2.02h-1.46
			c-0.03-0.46-0.22-0.83-0.55-1.1s-0.79-0.42-1.35-0.42c-0.52,0-0.94,0.11-1.25,0.34c-0.31,0.22-0.46,0.52-0.46,0.88
			c0,0.29,0.09,0.53,0.28,0.71s0.42,0.34,0.7,0.45c0.28,0.11,0.67,0.24,1.18,0.38c0.63,0.17,1.14,0.34,1.54,0.5s0.73,0.41,1.02,0.74
			c0.28,0.33,0.43,0.76,0.44,1.3c0,0.48-0.13,0.91-0.4,1.3s-0.64,0.69-1.13,0.9c-0.49,0.22-1.04,0.33-1.67,0.33
			C50.66,286.8,50.06,286.69,49.52,286.46z"/>
	</g>
	<g>
		<path d="M64.53,282.82h-7.01c0.05,0.86,0.35,1.54,0.89,2.02c0.54,0.49,1.19,0.73,1.96,0.73c0.63,0,1.15-0.15,1.58-0.44
			c0.42-0.29,0.72-0.68,0.89-1.18h1.57c-0.23,0.84-0.7,1.53-1.41,2.06c-0.7,0.53-1.58,0.79-2.62,0.79c-0.83,0-1.58-0.19-2.23-0.56
			s-1.17-0.9-1.54-1.59c-0.37-0.69-0.56-1.49-0.56-2.39c0-0.91,0.18-1.7,0.54-2.38c0.36-0.68,0.87-1.21,1.53-1.58
			c0.66-0.37,1.41-0.55,2.26-0.55c0.83,0,1.57,0.18,2.21,0.54c0.64,0.36,1.13,0.86,1.48,1.5s0.52,1.35,0.52,2.15
			C64.58,282.22,64.56,282.51,64.53,282.82z M62.71,280.21c-0.25-0.4-0.58-0.7-1-0.91c-0.42-0.21-0.89-0.31-1.4-0.31
			c-0.74,0-1.36,0.23-1.88,0.7c-0.52,0.47-0.81,1.12-0.89,1.95h5.54C63.07,281.08,62.95,280.61,62.71,280.21z"/>
	</g>
	<g>
		<path d="M69.05,278.15c0.47-0.28,1.05-0.42,1.74-0.42v1.5H70.4c-1.63,0-2.45,0.89-2.45,2.66v4.77H66.5v-8.77h1.46v1.42
			C68.21,278.82,68.58,278.43,69.05,278.15z"/>
	</g>
	<g>
		<path d="M72.47,279.88c0.36-0.68,0.86-1.2,1.5-1.58c0.63-0.37,1.34-0.56,2.12-0.56c0.77,0,1.43,0.17,2,0.5
			c0.57,0.33,0.99,0.75,1.26,1.25v-1.6h1.47v8.77h-1.47v-1.63c-0.29,0.51-0.72,0.94-1.29,1.27c-0.57,0.34-1.24,0.5-1.99,0.5
			c-0.78,0-1.48-0.19-2.11-0.58c-0.63-0.38-1.13-0.92-1.49-1.62c-0.36-0.69-0.54-1.48-0.54-2.37
			C71.92,281.35,72.1,280.56,72.47,279.88z M78.95,280.53c-0.27-0.49-0.63-0.87-1.08-1.13s-0.95-0.39-1.5-0.39s-1.04,0.13-1.49,0.38
			c-0.45,0.26-0.81,0.63-1.07,1.12c-0.27,0.49-0.4,1.07-0.4,1.73c0,0.67,0.13,1.26,0.4,1.75s0.62,0.88,1.07,1.14
			c0.45,0.26,0.94,0.39,1.49,0.39s1.04-0.13,1.5-0.39c0.45-0.26,0.81-0.64,1.08-1.14s0.4-1.07,0.4-1.74
			C79.35,281.6,79.21,281.02,78.95,280.53z M78.21,275.41l-3.41,1.82v-1.09l3.41-2V275.41z"/>
	</g>
	<g>
		<path d="M95.5,282.82H88.5c0.05,0.86,0.35,1.54,0.89,2.02c0.54,0.49,1.19,0.73,1.96,0.73c0.63,0,1.15-0.15,1.58-0.44
			c0.42-0.29,0.72-0.68,0.89-1.18h1.57c-0.23,0.84-0.7,1.53-1.41,2.06c-0.7,0.53-1.58,0.79-2.62,0.79c-0.83,0-1.58-0.19-2.23-0.56
			s-1.17-0.9-1.54-1.59c-0.37-0.69-0.56-1.49-0.56-2.39c0-0.91,0.18-1.7,0.54-2.38c0.36-0.68,0.87-1.21,1.53-1.58
			c0.66-0.37,1.41-0.55,2.26-0.55c0.83,0,1.57,0.18,2.21,0.54c0.64,0.36,1.13,0.86,1.48,1.5s0.52,1.35,0.52,2.15
			C95.55,282.22,95.54,282.51,95.5,282.82z M93.68,280.21c-0.25-0.4-0.58-0.7-1-0.91c-0.42-0.21-0.89-0.31-1.4-0.31
			c-0.74,0-1.36,0.23-1.88,0.7c-0.52,0.47-0.81,1.12-0.89,1.95h5.54C94.05,281.08,93.93,280.61,93.68,280.21z"/>
	</g>
	<g>
		<path d="M104.34,278.7c0.66,0.65,0.99,1.58,0.99,2.79v5.17h-1.44v-4.96c0-0.88-0.22-1.54-0.66-2.01s-1.04-0.7-1.79-0.7
			c-0.77,0-1.38,0.24-1.83,0.72c-0.45,0.48-0.68,1.18-0.68,2.1v4.85h-1.46v-8.77h1.46v1.25c0.29-0.45,0.68-0.79,1.18-1.04
			c0.5-0.25,1.04-0.37,1.64-0.37C102.81,277.73,103.68,278.06,104.34,278.7z"/>
	</g>
	<g>
		<path d="M110.98,285.32l2.72-7.42h1.55l-3.44,8.77h-1.7l-3.44-8.77h1.57L110.98,285.32z"/>
	</g>
	<g>
		<path d="M116.74,276.18c-0.19-0.19-0.29-0.43-0.29-0.7s0.1-0.51,0.29-0.7c0.19-0.19,0.43-0.29,0.7-0.29c0.27,0,0.49,0.1,0.68,0.29
			c0.19,0.19,0.28,0.43,0.28,0.7s-0.09,0.51-0.28,0.7c-0.19,0.19-0.41,0.29-0.68,0.29C117.16,276.47,116.93,276.37,116.74,276.18z
			 M118.14,277.89v8.77h-1.46v-8.77H118.14z"/>
	</g>
	<g>
		<path d="M120.62,279.88c0.36-0.68,0.86-1.2,1.5-1.58c0.63-0.37,1.34-0.56,2.12-0.56c0.77,0,1.43,0.17,2,0.5
			c0.57,0.33,0.99,0.75,1.26,1.25v-1.6h1.47v8.77h-1.47v-1.63c-0.29,0.51-0.72,0.94-1.29,1.27c-0.57,0.34-1.24,0.5-1.99,0.5
			c-0.78,0-1.48-0.19-2.11-0.58c-0.63-0.38-1.13-0.92-1.49-1.62c-0.36-0.69-0.54-1.48-0.54-2.37
			C120.08,281.35,120.26,280.56,120.62,279.88z M127.1,280.53c-0.27-0.49-0.63-0.87-1.08-1.13s-0.95-0.39-1.5-0.39
			s-1.04,0.13-1.49,0.38c-0.45,0.26-0.81,0.63-1.07,1.12c-0.27,0.49-0.4,1.07-0.4,1.73c0,0.67,0.13,1.26,0.4,1.75
			s0.62,0.88,1.07,1.14c0.45,0.26,0.94,0.39,1.49,0.39s1.04-0.13,1.5-0.39c0.45-0.26,0.81-0.64,1.08-1.14s0.4-1.07,0.4-1.74
			C127.5,281.6,127.37,281.02,127.1,280.53z"/>
	</g>
	<g>
		<path d="M131.44,279.88c0.36-0.68,0.86-1.2,1.5-1.58c0.63-0.37,1.35-0.56,2.14-0.56c0.68,0,1.32,0.16,1.9,0.47
			c0.59,0.32,1.04,0.73,1.34,1.24v-4.64h1.47v11.84h-1.47v-1.65c-0.29,0.52-0.71,0.95-1.28,1.29s-1.23,0.5-1.98,0.5
			c-0.78,0-1.49-0.19-2.12-0.58c-0.63-0.38-1.13-0.92-1.5-1.62c-0.36-0.69-0.54-1.48-0.54-2.37
			C130.9,281.35,131.08,280.56,131.44,279.88z M137.92,280.53c-0.27-0.49-0.63-0.87-1.08-1.13s-0.95-0.39-1.5-0.39
			s-1.04,0.13-1.49,0.38c-0.45,0.26-0.81,0.63-1.07,1.12c-0.27,0.49-0.4,1.07-0.4,1.73c0,0.67,0.13,1.26,0.4,1.75
			s0.62,0.88,1.07,1.14c0.45,0.26,0.94,0.39,1.49,0.39s1.04-0.13,1.5-0.39c0.45-0.26,0.81-0.64,1.08-1.14s0.4-1.07,0.4-1.74
			C138.32,281.6,138.19,281.02,137.92,280.53z"/>
	</g>
	<g>
		<path d="M143.85,286.25c-0.67-0.37-1.19-0.9-1.57-1.59c-0.38-0.69-0.57-1.49-0.57-2.39c0-0.9,0.19-1.69,0.58-2.38
			c0.39-0.69,0.92-1.22,1.59-1.58c0.67-0.37,1.42-0.55,2.26-0.55s1.58,0.18,2.26,0.55c0.67,0.37,1.2,0.89,1.59,1.58
			s0.58,1.48,0.58,2.38c0,0.91-0.2,1.7-0.6,2.39c-0.4,0.69-0.94,1.22-1.62,1.59s-1.44,0.56-2.27,0.56
			C145.26,286.8,144.51,286.62,143.85,286.25z M147.55,285.16c0.46-0.25,0.83-0.61,1.11-1.1c0.28-0.49,0.42-1.09,0.42-1.79
			c0-0.7-0.14-1.3-0.42-1.79c-0.28-0.49-0.64-0.86-1.09-1.1c-0.45-0.24-0.93-0.36-1.46-0.36c-0.53,0-1.02,0.12-1.46,0.36
			s-0.8,0.61-1.06,1.1c-0.27,0.49-0.4,1.09-0.4,1.79c0,0.71,0.13,1.32,0.39,1.81c0.26,0.49,0.61,0.86,1.05,1.1s0.92,0.36,1.44,0.36
			S147.09,285.4,147.55,285.16z"/>
	</g>
	<g>
		<path d="M156.77,279.88c0.36-0.68,0.86-1.2,1.5-1.58c0.63-0.37,1.34-0.56,2.12-0.56c0.77,0,1.43,0.17,2,0.5
			c0.57,0.33,0.99,0.75,1.26,1.25v-1.6h1.47v8.77h-1.47v-1.63c-0.29,0.51-0.72,0.94-1.29,1.27c-0.57,0.34-1.24,0.5-1.99,0.5
			c-0.78,0-1.48-0.19-2.11-0.58c-0.63-0.38-1.13-0.92-1.49-1.62c-0.36-0.69-0.54-1.48-0.54-2.37
			C156.22,281.35,156.4,280.56,156.77,279.88z M163.25,280.53c-0.27-0.49-0.63-0.87-1.08-1.13s-0.95-0.39-1.5-0.39
			s-1.04,0.13-1.49,0.38c-0.45,0.26-0.81,0.63-1.07,1.12c-0.27,0.49-0.4,1.07-0.4,1.73c0,0.67,0.13,1.26,0.4,1.75
			s0.62,0.88,1.07,1.14c0.45,0.26,0.94,0.39,1.49,0.39s1.04-0.13,1.5-0.39c0.45-0.26,0.81-0.64,1.08-1.14s0.4-1.07,0.4-1.74
			C163.65,281.6,163.51,281.02,163.25,280.53z"/>
	</g>
	<g>
		<path d="M173.63,279.09v5.17c0,0.43,0.09,0.73,0.27,0.9c0.18,0.18,0.5,0.26,0.94,0.26h1.07v1.23h-1.31
			c-0.81,0-1.42-0.19-1.82-0.56c-0.41-0.37-0.61-0.99-0.61-1.84v-5.17h-1.14v-1.2h1.14v-2.21h1.46v2.21h2.29v1.2H173.63z"/>
	</g>
	<g>
		<path d="M185.46,277.89v8.77H184v-1.3c-0.28,0.45-0.66,0.8-1.16,1.05c-0.5,0.25-1.04,0.38-1.64,0.38c-0.68,0-1.3-0.14-1.84-0.42
			s-0.97-0.71-1.29-1.27c-0.31-0.56-0.47-1.25-0.47-2.06v-5.14h1.44v4.94c0,0.86,0.22,1.53,0.66,1.99s1.03,0.7,1.79,0.7
			c0.78,0,1.39-0.24,1.84-0.72c0.45-0.48,0.67-1.18,0.67-2.1v-4.82H185.46z"/>
	</g>
	<g>
		<path d="M192.19,279.88c0.36-0.68,0.87-1.2,1.51-1.58c0.65-0.37,1.38-0.56,2.22-0.56c1.08,0,1.96,0.26,2.66,0.78
			c0.7,0.52,1.16,1.25,1.38,2.18h-1.57c-0.15-0.53-0.44-0.95-0.87-1.26c-0.43-0.31-0.97-0.46-1.61-0.46c-0.83,0-1.5,0.29-2.02,0.86
			c-0.51,0.57-0.77,1.38-0.77,2.42c0,1.06,0.26,1.87,0.77,2.45c0.51,0.58,1.18,0.86,2.02,0.86c0.64,0,1.17-0.15,1.6-0.45
			s0.72-0.73,0.88-1.28h1.57c-0.23,0.9-0.7,1.61-1.41,2.15c-0.7,0.54-1.58,0.81-2.64,0.81c-0.83,0-1.57-0.19-2.22-0.56
			s-1.15-0.9-1.51-1.58c-0.36-0.68-0.54-1.48-0.54-2.4C191.65,281.35,191.83,280.56,192.19,279.88z"/>
	</g>
	<g>
		<path d="M203.5,286.25c-0.67-0.37-1.19-0.9-1.57-1.59c-0.38-0.69-0.57-1.49-0.57-2.39c0-0.9,0.19-1.69,0.58-2.38
			c0.39-0.69,0.92-1.22,1.59-1.58c0.67-0.37,1.42-0.55,2.26-0.55s1.58,0.18,2.26,0.55c0.67,0.37,1.2,0.89,1.59,1.58
			s0.58,1.48,0.58,2.38c0,0.91-0.2,1.7-0.6,2.39c-0.4,0.69-0.94,1.22-1.62,1.59s-1.44,0.56-2.27,0.56
			C204.91,286.8,204.16,286.62,203.5,286.25z M207.2,285.16c0.46-0.25,0.83-0.61,1.11-1.1c0.28-0.49,0.42-1.09,0.42-1.79
			c0-0.7-0.14-1.3-0.42-1.79c-0.28-0.49-0.64-0.86-1.09-1.1c-0.45-0.24-0.93-0.36-1.46-0.36c-0.53,0-1.02,0.12-1.46,0.36
			s-0.8,0.61-1.06,1.1c-0.27,0.49-0.4,1.09-0.4,1.79c0,0.71,0.13,1.32,0.39,1.81c0.26,0.49,0.61,0.86,1.05,1.1s0.92,0.36,1.44,0.36
			S206.74,285.4,207.2,285.16z"/>
	</g>
	<g>
		<path d="M214.7,278.15c0.47-0.28,1.05-0.42,1.74-0.42v1.5h-0.38c-1.63,0-2.45,0.89-2.45,2.66v4.77h-1.46v-8.77h1.46v1.42
			C213.86,278.82,214.22,278.43,214.7,278.15z"/>
	</g>
	<g>
		<path d="M220.66,278.15c0.47-0.28,1.05-0.42,1.74-0.42v1.5h-0.38c-1.63,0-2.45,0.89-2.45,2.66v4.77h-1.46v-8.77h1.46v1.42
			C219.82,278.82,220.19,278.43,220.66,278.15z"/>
	</g>
	<g>
		<path d="M232.03,282.82h-7.01c0.05,0.86,0.35,1.54,0.89,2.02c0.54,0.49,1.19,0.73,1.96,0.73c0.63,0,1.15-0.15,1.58-0.44
			c0.42-0.29,0.72-0.68,0.89-1.18h1.57c-0.23,0.84-0.7,1.53-1.41,2.06c-0.7,0.53-1.58,0.79-2.62,0.79c-0.83,0-1.58-0.19-2.23-0.56
			s-1.17-0.9-1.54-1.59c-0.37-0.69-0.56-1.49-0.56-2.39c0-0.91,0.18-1.7,0.54-2.38c0.36-0.68,0.87-1.21,1.53-1.58
			c0.66-0.37,1.41-0.55,2.26-0.55c0.83,0,1.57,0.18,2.21,0.54c0.64,0.36,1.13,0.86,1.48,1.5s0.52,1.35,0.52,2.15
			C232.08,282.22,232.06,282.51,232.03,282.82z M230.21,280.21c-0.25-0.4-0.58-0.7-1-0.91c-0.42-0.21-0.89-0.31-1.4-0.31
			c-0.74,0-1.36,0.23-1.88,0.7c-0.52,0.47-0.81,1.12-0.89,1.95h5.54C230.57,281.08,230.45,280.61,230.21,280.21z"/>
	</g>
	<g>
		<path d="M235.59,286.25c-0.67-0.37-1.19-0.9-1.57-1.59c-0.38-0.69-0.57-1.49-0.57-2.39c0-0.9,0.19-1.69,0.58-2.38
			c0.39-0.69,0.92-1.22,1.59-1.58c0.67-0.37,1.42-0.55,2.26-0.55s1.58,0.18,2.26,0.55c0.67,0.37,1.2,0.89,1.59,1.58
			s0.58,1.48,0.58,2.38c0,0.91-0.2,1.7-0.6,2.39c-0.4,0.69-0.94,1.22-1.62,1.59s-1.44,0.56-2.27,0.56
			C237,286.8,236.26,286.62,235.59,286.25z M239.3,285.16c0.46-0.25,0.83-0.61,1.11-1.1c0.28-0.49,0.42-1.09,0.42-1.79
			c0-0.7-0.14-1.3-0.42-1.79c-0.28-0.49-0.64-0.86-1.09-1.1c-0.45-0.24-0.93-0.36-1.46-0.36c-0.53,0-1.02,0.12-1.46,0.36
			s-0.8,0.61-1.06,1.1c-0.27,0.49-0.4,1.09-0.4,1.79c0,0.71,0.13,1.32,0.39,1.81c0.26,0.49,0.61,0.86,1.05,1.1s0.92,0.36,1.44,0.36
			S238.84,285.4,239.3,285.16z"/>
	</g>
	<g>
		<path d="M87.36,306.82h-7.01c0.05,0.86,0.35,1.54,0.89,2.02c0.54,0.49,1.19,0.73,1.96,0.73c0.63,0,1.15-0.15,1.58-0.44
			c0.42-0.29,0.72-0.68,0.89-1.18h1.57c-0.23,0.84-0.7,1.53-1.41,2.06c-0.7,0.53-1.58,0.79-2.62,0.79c-0.83,0-1.58-0.19-2.23-0.56
			s-1.17-0.9-1.54-1.59c-0.37-0.69-0.56-1.49-0.56-2.39c0-0.91,0.18-1.7,0.54-2.38c0.36-0.68,0.87-1.21,1.53-1.58
			c0.66-0.37,1.41-0.55,2.26-0.55c0.83,0,1.57,0.18,2.21,0.54c0.64,0.36,1.13,0.86,1.48,1.5s0.52,1.35,0.52,2.15
			C87.41,306.22,87.39,306.51,87.36,306.82z M85.54,304.21c-0.25-0.4-0.58-0.7-1-0.91c-0.42-0.21-0.89-0.31-1.4-0.31
			c-0.74,0-1.36,0.23-1.88,0.7c-0.52,0.47-0.81,1.12-0.89,1.95h5.54C85.91,305.08,85.78,304.61,85.54,304.21z"/>
	</g>
	<g>
		<path d="M96.19,302.7c0.66,0.65,0.99,1.58,0.99,2.79v5.17h-1.44v-4.96c0-0.88-0.22-1.54-0.66-2.01s-1.04-0.7-1.79-0.7
			c-0.77,0-1.38,0.24-1.83,0.72c-0.45,0.48-0.68,1.18-0.68,2.1v4.85h-1.46v-8.77h1.46v1.25c0.29-0.45,0.68-0.79,1.18-1.04
			c0.5-0.25,1.04-0.37,1.64-0.37C94.67,301.73,95.53,302.06,96.19,302.7z"/>
	</g>
	<g>
		<path d="M110.72,300.23l-4.45,10.43h-1.47l4.51-10.29h-6.18v-1.25h7.58V300.23z"/>
	</g>
	<g>
		<path d="M116.85,303.88c0.36-0.68,0.86-1.2,1.5-1.58c0.63-0.37,1.35-0.56,2.14-0.56c0.68,0,1.32,0.16,1.9,0.47
			c0.59,0.32,1.04,0.73,1.34,1.24v-4.64h1.47v11.84h-1.47v-1.65c-0.29,0.52-0.71,0.95-1.28,1.29s-1.23,0.5-1.98,0.5
			c-0.78,0-1.49-0.19-2.12-0.58c-0.63-0.38-1.13-0.92-1.5-1.62c-0.36-0.69-0.54-1.48-0.54-2.37
			C116.31,305.35,116.49,304.56,116.85,303.88z M123.33,304.53c-0.27-0.49-0.63-0.87-1.08-1.13s-0.95-0.39-1.5-0.39
			s-1.04,0.13-1.49,0.38c-0.45,0.26-0.81,0.63-1.07,1.12c-0.27,0.49-0.4,1.07-0.4,1.73c0,0.67,0.13,1.26,0.4,1.75
			s0.62,0.88,1.07,1.14c0.45,0.26,0.94,0.39,1.49,0.39s1.04-0.13,1.5-0.39c0.45-0.26,0.81-0.64,1.08-1.14s0.4-1.07,0.4-1.74
			C123.73,305.6,123.6,305.02,123.33,304.53z"/>
	</g>
	<g>
		<path d="M129.95,299.41l-3.41,1.82v-1.09l3.41-2V299.41z M129.12,301.89v8.77h-1.46v-8.77H129.12z"/>
	</g>
	<g>
		<path d="M131.6,303.88c0.36-0.68,0.86-1.2,1.5-1.58c0.63-0.37,1.34-0.56,2.12-0.56c0.77,0,1.43,0.17,2,0.5
			c0.57,0.33,0.99,0.75,1.26,1.25v-1.6h1.47v8.77h-1.47v-1.63c-0.29,0.51-0.72,0.94-1.29,1.27c-0.57,0.34-1.24,0.5-1.99,0.5
			c-0.78,0-1.48-0.19-2.11-0.58c-0.63-0.38-1.13-0.92-1.49-1.62c-0.36-0.69-0.54-1.48-0.54-2.37
			C131.06,305.35,131.24,304.56,131.6,303.88z M138.08,304.53c-0.27-0.49-0.63-0.87-1.08-1.13s-0.95-0.39-1.5-0.39
			s-1.04,0.13-1.49,0.38c-0.45,0.26-0.81,0.63-1.07,1.12c-0.27,0.49-0.4,1.07-0.4,1.73c0,0.67,0.13,1.26,0.4,1.75
			s0.62,0.88,1.07,1.14c0.45,0.26,0.94,0.39,1.49,0.39s1.04-0.13,1.5-0.39c0.45-0.26,0.81-0.64,1.08-1.14s0.4-1.07,0.4-1.74
			C138.48,305.6,138.35,305.02,138.08,304.53z"/>
	</g>
	<g>
		<path d="M143.71,310.46c-0.53-0.23-0.96-0.55-1.26-0.96c-0.31-0.41-0.48-0.88-0.51-1.42h1.5c0.04,0.44,0.25,0.79,0.62,1.07
			s0.85,0.42,1.45,0.42c0.55,0,0.99-0.12,1.31-0.37s0.48-0.55,0.48-0.93c0-0.38-0.17-0.67-0.51-0.86c-0.34-0.19-0.87-0.37-1.58-0.55
			c-0.65-0.17-1.18-0.34-1.59-0.52c-0.41-0.18-0.76-0.44-1.06-0.78c-0.29-0.35-0.44-0.8-0.44-1.37c0-0.45,0.13-0.86,0.4-1.23
			c0.27-0.37,0.65-0.67,1.14-0.89s1.05-0.33,1.68-0.33c0.97,0,1.75,0.25,2.35,0.74c0.6,0.49,0.92,1.16,0.96,2.02h-1.46
			c-0.03-0.46-0.22-0.83-0.55-1.1s-0.79-0.42-1.35-0.42c-0.52,0-0.94,0.11-1.25,0.34c-0.31,0.22-0.46,0.52-0.46,0.88
			c0,0.29,0.09,0.53,0.28,0.71s0.42,0.34,0.7,0.45c0.28,0.11,0.67,0.24,1.18,0.38c0.63,0.17,1.14,0.34,1.54,0.5s0.73,0.41,1.02,0.74
			c0.28,0.33,0.43,0.76,0.44,1.3c0,0.48-0.13,0.91-0.4,1.3s-0.64,0.69-1.13,0.9c-0.49,0.22-1.04,0.33-1.67,0.33
			C144.85,310.8,144.25,310.69,143.71,310.46z"/>
	</g>
	<g>
		<path d="M161.18,302.16c0.53,0.28,0.95,0.71,1.26,1.27c0.3,0.57,0.46,1.25,0.46,2.06v5.17h-1.44v-4.96c0-0.88-0.22-1.54-0.66-2.01
			s-1.04-0.7-1.79-0.7c-0.77,0-1.38,0.24-1.83,0.72c-0.45,0.48-0.68,1.18-0.68,2.1v4.85h-1.46v-11.84h1.46v4.32
			c0.29-0.45,0.68-0.79,1.19-1.04c0.51-0.25,1.07-0.37,1.7-0.37C160.05,301.73,160.65,301.88,161.18,302.16z"/>
	</g>
	<g>
		<path d="M165.28,303.88c0.36-0.68,0.86-1.2,1.5-1.58c0.63-0.37,1.34-0.56,2.12-0.56c0.77,0,1.43,0.17,2,0.5
			c0.57,0.33,0.99,0.75,1.26,1.25v-1.6h1.47v8.77h-1.47v-1.63c-0.29,0.51-0.72,0.94-1.29,1.27c-0.57,0.34-1.24,0.5-1.99,0.5
			c-0.78,0-1.48-0.19-2.11-0.58c-0.63-0.38-1.13-0.92-1.49-1.62c-0.36-0.69-0.54-1.48-0.54-2.37
			C164.74,305.35,164.92,304.56,165.28,303.88z M171.76,304.53c-0.27-0.49-0.63-0.87-1.08-1.13s-0.95-0.39-1.5-0.39
			s-1.04,0.13-1.49,0.38c-0.45,0.26-0.81,0.63-1.07,1.12c-0.27,0.49-0.4,1.07-0.4,1.73c0,0.67,0.13,1.26,0.4,1.75
			s0.62,0.88,1.07,1.14c0.45,0.26,0.94,0.39,1.49,0.39s1.04-0.13,1.5-0.39c0.45-0.26,0.81-0.64,1.08-1.14s0.4-1.07,0.4-1.74
			C172.16,305.6,172.03,305.02,171.76,304.53z M171.02,299.41l-3.41,1.82v-1.09l3.41-2V299.41z"/>
	</g>
	<g>
		<path d="M178.87,302.25c0.58-0.33,1.23-0.5,1.97-0.5c0.79,0,1.5,0.19,2.13,0.56c0.63,0.37,1.13,0.9,1.49,1.58
			c0.36,0.68,0.54,1.46,0.54,2.36c0,0.89-0.18,1.67-0.54,2.37s-0.86,1.23-1.5,1.62c-0.63,0.38-1.34,0.58-2.12,0.58
			c-0.76,0-1.42-0.17-1.99-0.5c-0.57-0.33-1-0.75-1.29-1.26v1.62h-1.46v-11.84h1.46v4.7C177.85,303,178.29,302.58,178.87,302.25z
			 M183.11,304.52c-0.27-0.49-0.63-0.86-1.08-1.12c-0.45-0.26-0.95-0.38-1.5-0.38c-0.53,0-1.03,0.13-1.48,0.39
			c-0.45,0.26-0.82,0.64-1.09,1.14c-0.27,0.5-0.41,1.07-0.41,1.72c0,0.66,0.14,1.24,0.41,1.74c0.27,0.5,0.63,0.88,1.09,1.14
			c0.45,0.26,0.95,0.39,1.48,0.39c0.54,0,1.04-0.13,1.5-0.39c0.45-0.26,0.81-0.64,1.08-1.14s0.4-1.08,0.4-1.75
			C183.51,305.58,183.37,305.01,183.11,304.52z"/>
	</g>
	<g>
		<path d="M186.96,300.18c-0.19-0.19-0.29-0.43-0.29-0.7s0.1-0.51,0.29-0.7c0.19-0.19,0.43-0.29,0.7-0.29c0.27,0,0.49,0.1,0.68,0.29
			c0.19,0.19,0.28,0.43,0.28,0.7s-0.09,0.51-0.28,0.7c-0.19,0.19-0.41,0.29-0.68,0.29C187.39,300.47,187.15,300.37,186.96,300.18z
			 M188.37,301.89v8.77h-1.46v-8.77H188.37z"/>
	</g>
	<g>
		<path d="M192.31,298.82v11.84h-1.46v-11.84H192.31z"/>
	</g>
	<g>
		<path d="M202.74,306.82h-7.01c0.05,0.86,0.35,1.54,0.89,2.02c0.54,0.49,1.19,0.73,1.96,0.73c0.63,0,1.15-0.15,1.58-0.44
			c0.42-0.29,0.72-0.68,0.89-1.18h1.57c-0.23,0.84-0.7,1.53-1.41,2.06c-0.7,0.53-1.58,0.79-2.62,0.79c-0.83,0-1.58-0.19-2.23-0.56
			s-1.17-0.9-1.54-1.59c-0.37-0.69-0.56-1.49-0.56-2.39c0-0.91,0.18-1.7,0.54-2.38c0.36-0.68,0.87-1.21,1.53-1.58
			c0.66-0.37,1.41-0.55,2.26-0.55c0.83,0,1.57,0.18,2.21,0.54c0.64,0.36,1.13,0.86,1.48,1.5s0.52,1.35,0.52,2.15
			C202.79,306.22,202.77,306.51,202.74,306.82z M200.91,304.21c-0.25-0.4-0.58-0.7-1-0.91c-0.42-0.21-0.89-0.31-1.4-0.31
			c-0.74,0-1.36,0.23-1.88,0.7c-0.52,0.47-0.81,1.12-0.89,1.95h5.54C201.28,305.08,201.16,304.61,200.91,304.21z"/>
	</g>
	<g>
		<path d="M206,310.46c-0.53-0.23-0.96-0.55-1.26-0.96c-0.31-0.41-0.48-0.88-0.51-1.42h1.5c0.04,0.44,0.25,0.79,0.62,1.07
			s0.85,0.42,1.45,0.42c0.55,0,0.99-0.12,1.31-0.37s0.48-0.55,0.48-0.93c0-0.38-0.17-0.67-0.51-0.86c-0.34-0.19-0.87-0.37-1.58-0.55
			c-0.65-0.17-1.18-0.34-1.59-0.52c-0.41-0.18-0.76-0.44-1.06-0.78c-0.29-0.35-0.44-0.8-0.44-1.37c0-0.45,0.13-0.86,0.4-1.23
			c0.27-0.37,0.65-0.67,1.14-0.89s1.05-0.33,1.68-0.33c0.97,0,1.75,0.25,2.35,0.74c0.6,0.49,0.92,1.16,0.96,2.02h-1.46
			c-0.03-0.46-0.22-0.83-0.55-1.1s-0.79-0.42-1.35-0.42c-0.52,0-0.94,0.11-1.25,0.34c-0.31,0.22-0.46,0.52-0.46,0.88
			c0,0.29,0.09,0.53,0.28,0.71s0.42,0.34,0.7,0.45c0.28,0.11,0.67,0.24,1.18,0.38c0.63,0.17,1.14,0.34,1.54,0.5s0.73,0.41,1.02,0.74
			c0.28,0.33,0.43,0.76,0.44,1.3c0,0.48-0.13,0.91-0.4,1.3s-0.64,0.69-1.13,0.9c-0.49,0.22-1.04,0.33-1.67,0.33
			C207.14,310.8,206.53,310.69,206,310.46z"/>
	</g>
</g>
<g>
	<path class="st12" d="M179.34,74.77L164.58,59.9c-10.79-10.87-28.37-10.87-39.15,0l-14.76,14.88"/>
	<path class="st5" d="M177.16,117.91h-64.31c-1.21,0-2.18-0.98-2.18-2.18V74.77h68.68v40.95
		C179.34,116.93,178.36,117.91,177.16,117.91z"/>
	<path class="st7" d="M167.47,113.83h-44.94c-1.21,0-2.19-0.98-2.19-2.19V52.52c0-1.21,0.98-2.19,2.19-2.19h44.94
		c1.21,0,2.19,0.98,2.19,2.19v59.13C169.66,112.85,168.68,113.83,167.47,113.83z"/>
	<path class="st12" d="M145,96.34l33.66,21.14c0.41-0.34,0.68-0.85,0.68-1.42V74.77L145,96.34z"/>
	<path class="st12" d="M145,96.34l-33.66,21.14c-0.41-0.34-0.68-0.85-0.68-1.42V74.77L145,96.34z"/>
	<path class="st5" d="M177.49,117.91c0.5,0,0.94-0.2,1.27-0.51l-29.25-26.13c-2.49-2.22-6.54-2.22-9.02,0l-29.25,26.13
		c0.33,0.32,0.78,0.51,1.27,0.51H177.49z"/>
	<g>
		<path class="st1" d="M147.64,67.44c-0.08,0.5,0.14,0.98,0.71,0.98c0.96,0,2.01-1.61,2.01-3.68c0-2.71-1.56-4.75-4.63-4.75
			c-3.43,0-6.09,3.02-6.09,6.59c0,2.88,1.56,4.8,4.63,4.8c1.05,0,2-0.3,2.55-0.61l0.5,1.29c-1.01,0.61-2.25,0.87-3.27,0.87
			c-3.82,0-6.12-2.49-6.12-6.12c0-4.5,3.49-8.36,8.01-8.36c3.81,0,6.14,2.6,6.14,6.06c0,2.47-1.27,5.51-3.95,5.51
			c-1.07,0-1.78-0.58-2.14-1.29c-0.57,0.68-1.34,1.05-2.17,1.05h-0.03c-1.75,0-2.57-1.04-2.31-2.88l0.33-2.42
			c0.25-1.84,1.39-2.88,3.13-2.88h0.03c0.83,0,1.5,0.41,1.87,1.05l0.71-0.9h0.9L147.64,67.44z M146.13,64.4
			c0.08-0.55-0.25-0.93-0.8-0.93h-0.52c-0.55,0-0.98,0.38-1.05,0.93l-0.36,2.55c-0.08,0.55,0.25,0.93,0.8,0.93h0.52
			c0.55,0,0.98-0.38,1.05-0.93L146.13,64.4z"/>
	</g>
</g>
</svg>
