<?xml version="1.0" encoding="utf-8"?>
<!-- Generator: Adobe Illustrator 24.1.1, SVG Export Plug-In . SVG Version: 6.00 Build 0)  -->
<svg version="1.1" id="Capa_1" xmlns="http://www.w3.org/2000/svg" xmlns:xlink="http://www.w3.org/1999/xlink" x="0px" y="0px"
	 viewBox="0 0 450 280" style="enable-background:new 0 0 450 280;" xml:space="preserve">
<style type="text/css">
	.st0{fill:#FFFFFF;}
	.st1{fill:#007CC3;}
	.st2{fill:#D36F62;}
	.st3{fill:#F8C5B0;}
	.st4{fill:#F7A6A9;}
	.st5{fill:#F173AC;}
	.st6{clip-path:url(#SVGID_2_);}
	.st7{fill:#D9D9D9;}
	.st8{fill:#BFBFBF;}
	.st9{fill:#999999;}
	.st10{fill:#1A1A1A;}
	.st11{fill:#F5A4C7;}
	.st12{fill:#F4C6DE;}
	.st13{opacity:0.5;fill:#D36F62;enable-background:new    ;}
</style>
<rect class="st0" width="450" height="280"/>
<g>
	<path class="st1" d="M132.66,138.25l3.55,13.8l0.05,0.65l0.05-0.65l3.55-13.8h3.4l-4.9,17.5h-4.22l-4.87-17.5H132.66z"/>
	<path class="st1" d="M145.01,138.25h3.07v2.58h-3.07V138.25z M145.01,155.75V143h3.07v12.75H145.01z"/>
	<path class="st1" d="M158.66,154.33c-0.78,1.08-1.88,1.67-3.2,1.67h-0.05c-2.77,0-4.32-1.65-4.32-4.57v-4.1
		c0-2.92,1.55-4.57,4.32-4.57h0.05c0.92,0,1.75,0.3,2.47,0.9v-5.4h3.07v17.5h-1.42L158.66,154.33z M157.94,147.23
		c0-0.88-0.6-1.47-1.47-1.47h-0.82c-0.88,0-1.47,0.6-1.47,1.47v4.3c0,0.87,0.6,1.47,1.47,1.47h0.82c0.88,0,1.47-0.6,1.47-1.47
		V147.23z"/>
	<path class="st1" d="M170.86,151.08l3.07,0.3v0.03c0,2.65-1.9,4.6-4.57,4.6h-0.78c-2.67,0-4.57-1.95-4.57-4.6v-4.05
		c0-2.65,1.9-4.6,4.57-4.6h0.78c2.67,0,4.57,1.95,4.57,4.6v2.6h-6.85v1.55c0,0.83,0.67,1.5,1.5,1.5h0.78c0.82,0,1.5-0.67,1.5-1.5
		V151.08z M167.09,148.03h3.77v-0.78c0-0.82-0.67-1.5-1.5-1.5h-0.78c-0.82,0-1.5,0.67-1.5,1.5V148.03z"/>
	<path class="st1" d="M186.61,151.4c0,2.65-1.9,4.6-4.57,4.6h-0.78c-2.67,0-4.57-1.95-4.57-4.6v-4.05c0-2.65,1.9-4.6,4.57-4.6h0.78
		c2.67,0,4.57,1.95,4.57,4.6V151.4z M183.54,147.25c0-0.82-0.67-1.5-1.5-1.5h-0.78c-0.82,0-1.5,0.67-1.5,1.5v4.25
		c0,0.83,0.67,1.5,1.5,1.5h0.78c0.82,0,1.5-0.67,1.5-1.5V147.25z"/>
	<path class="st1" d="M201.96,150.9l3.07,0.3v0.2c0,2.65-1.9,4.6-4.57,4.6h-0.78c-2.67,0-4.57-1.95-4.57-4.6v-4.05
		c0-2.65,1.9-4.6,4.57-4.6h0.78c2.67,0,4.57,1.95,4.57,4.6v0.2l-3.07,0.3v-0.6c0-0.82-0.67-1.5-1.5-1.5h-0.78
		c-0.82,0-1.5,0.67-1.5,1.5v4.25c0,0.83,0.67,1.5,1.5,1.5h0.78c0.82,0,1.5-0.67,1.5-1.5V150.9z"/>
	<path class="st1" d="M217.71,151.4c0,2.65-1.9,4.6-4.57,4.6h-0.78c-2.67,0-4.57-1.95-4.57-4.6v-4.05c0-2.65,1.9-4.6,4.57-4.6h0.78
		c2.67,0,4.57,1.95,4.57,4.6V151.4z M214.64,147.25c0-0.82-0.67-1.5-1.5-1.5h-0.78c-0.82,0-1.5,0.67-1.5,1.5v4.25
		c0,0.83,0.67,1.5,1.5,1.5h0.78c0.82,0,1.5-0.67,1.5-1.5V147.25z"/>
	<path class="st1" d="M220.71,155.75v-17.5h3.07v17.5H220.71z"/>
	<path class="st1" d="M229.36,144.43c0.77-1.02,1.9-1.67,3.22-1.67h0.05c2.77,0,4.32,1.65,4.32,4.57v4.1c0,2.92-1.55,4.57-4.32,4.57
		h-0.05c-0.97,0-1.8-0.3-2.47-0.88v5.62h-3.07V143h1.42L229.36,144.43z M230.11,151.53c0,0.87,0.6,1.47,1.47,1.47h0.82
		c0.88,0,1.47-0.6,1.47-1.47v-4.3c0-0.88-0.6-1.47-1.47-1.47h-0.82c-0.88,0-1.47,0.6-1.47,1.47V151.53z"/>
	<path class="st1" d="M249.63,151.4c0,2.65-1.9,4.6-4.57,4.6h-0.78c-2.67,0-4.57-1.95-4.57-4.6v-4.05c0-2.65,1.9-4.6,4.57-4.6h0.78
		c2.67,0,4.57,1.95,4.57,4.6V151.4z M246.56,147.25c0-0.82-0.67-1.5-1.5-1.5h-0.78c-0.82,0-1.5,0.67-1.5,1.5v4.25
		c0,0.83,0.67,1.5,1.5,1.5h0.78c0.82,0,1.5-0.67,1.5-1.5V147.25z"/>
	<path class="st1" d="M262.26,152.18c0,2.2-1.87,3.82-4.52,3.82h-0.75c-2.67,0-4.62-1.85-4.62-4.35v-0.08l3.07-0.25v0.47
		c0,0.78,0.55,1.33,1.38,1.33h1.15c0.7,0,1.2-0.42,1.2-1c0-2.3-6.65-0.33-6.65-5.55c0-2.2,1.87-3.82,4.52-3.82h0.45
		c2.65,0,4.62,1.8,4.62,4.3v0.08l-3.07,0.3v-0.47c0-0.77-0.58-1.32-1.38-1.32h-0.83c-0.72,0-1.25,0.45-1.25,1.05
		C255.59,148.88,262.26,146.98,262.26,152.18z"/>
	<path class="st1" d="M271.74,150.9l3.07,0.3v0.2c0,2.65-1.9,4.6-4.57,4.6h-0.78c-2.67,0-4.57-1.95-4.57-4.6v-4.05
		c0-2.65,1.9-4.6,4.57-4.6h0.78c2.67,0,4.57,1.95,4.57,4.6v0.2l-3.07,0.3v-0.6c0-0.82-0.67-1.5-1.5-1.5h-0.78
		c-0.82,0-1.5,0.67-1.5,1.5v4.25c0,0.83,0.67,1.5,1.5,1.5h0.78c0.82,0,1.5-0.67,1.5-1.5V150.9z"/>
	<path class="st1" d="M287.48,151.4c0,2.65-1.9,4.6-4.57,4.6h-0.78c-2.67,0-4.57-1.95-4.57-4.6v-4.05c0-2.65,1.9-4.6,4.57-4.6h0.78
		c2.67,0,4.57,1.95,4.57,4.6V151.4z M284.41,147.25c0-0.82-0.67-1.5-1.5-1.5h-0.78c-0.82,0-1.5,0.67-1.5,1.5v4.25
		c0,0.83,0.67,1.5,1.5,1.5h0.78c0.82,0,1.5-0.67,1.5-1.5V147.25z"/>
	<path class="st1" d="M292.81,144.43c0.77-1.02,1.9-1.67,3.22-1.67h0.05c2.77,0,4.32,1.65,4.32,4.57v4.1c0,2.92-1.55,4.57-4.32,4.57
		h-0.05c-0.97,0-1.8-0.3-2.47-0.88v5.62h-3.07V143h1.42L292.81,144.43z M293.56,151.53c0,0.87,0.6,1.47,1.47,1.47h0.82
		c0.88,0,1.47-0.6,1.47-1.47v-4.3c0-0.88-0.6-1.47-1.47-1.47h-0.82c-0.88,0-1.47,0.6-1.47,1.47V151.53z"/>
	<path class="st1" d="M305.29,141.25h-2.62l2-3.25h4L305.29,141.25z M303.41,155.75V143h3.07v12.75H303.41z"/>
	<path class="st1" d="M317.06,154.38c-0.67,1-1.9,1.63-3.4,1.63h-0.05c-2.58,0-4.12-1.47-4.12-3.57v-0.5c0-2.1,1.55-3.52,4.12-3.52
		h2.67v-1.32c0-0.72-0.67-1.32-1.5-1.32h-0.6c-0.82,0-1.5,0.6-1.5,1.32v0.47l-3.07-0.3v-0.08c0-2.5,1.9-4.42,4.57-4.42h0.6
		c2.67,0,4.57,1.92,4.57,4.42v8.57h-1.42L317.06,154.38z M312.56,151.95c0,0.67,0.52,1.2,1.3,1.2h1.15c0.67,0,1.27-0.5,1.27-1.17
		v-1.3h-2.42c-0.78,0-1.3,0.53-1.3,1.2V151.95z"/>
	<path d="M48.28,188.98v3.73h4.06v1.2h-4.06v3.84h4.54v1.2h-6v-11.17h6v1.2H48.28z"/>
	<path d="M59.61,198.95l-2.08-3.26l-2,3.26h-1.52l2.83-4.35l-2.83-4.42h1.65l2.08,3.25l1.98-3.25h1.52l-2.82,4.34l2.83,4.43H59.61z"
		/>
	<path d="M65.44,190.54c0.57-0.34,1.24-0.5,1.99-0.5c0.78,0,1.49,0.19,2.12,0.56c0.63,0.37,1.13,0.9,1.5,1.58
		c0.36,0.68,0.54,1.46,0.54,2.36c0,0.89-0.18,1.67-0.54,2.37s-0.86,1.23-1.5,1.62c-0.63,0.38-1.34,0.58-2.12,0.58
		c-0.75,0-1.41-0.17-1.98-0.5c-0.57-0.34-1.01-0.75-1.3-1.26v5.78H62.7v-12.93h1.46v1.62C64.44,191.3,64.87,190.88,65.44,190.54z
		 M69.71,192.81c-0.27-0.49-0.63-0.86-1.08-1.12c-0.45-0.26-0.95-0.38-1.5-0.38c-0.53,0-1.03,0.13-1.48,0.39
		c-0.45,0.26-0.82,0.64-1.09,1.14c-0.27,0.5-0.41,1.07-0.41,1.72c0,0.66,0.14,1.24,0.41,1.74c0.27,0.5,0.63,0.88,1.09,1.14
		c0.45,0.26,0.95,0.39,1.48,0.39c0.54,0,1.04-0.13,1.5-0.39c0.45-0.26,0.81-0.64,1.08-1.14s0.4-1.08,0.4-1.75
		C70.11,193.87,69.97,193.3,69.71,192.81z"/>
	<path d="M74.97,187.11v11.84h-1.46v-11.84H74.97z"/>
	<path d="M79.04,198.53c-0.67-0.37-1.19-0.9-1.57-1.59c-0.38-0.69-0.57-1.49-0.57-2.39c0-0.9,0.19-1.69,0.58-2.38
		c0.39-0.69,0.92-1.22,1.59-1.58c0.67-0.37,1.42-0.55,2.26-0.55s1.58,0.18,2.26,0.55c0.67,0.37,1.2,0.89,1.59,1.58
		s0.58,1.48,0.58,2.38c0,0.91-0.2,1.7-0.6,2.39c-0.4,0.69-0.94,1.22-1.62,1.59s-1.44,0.56-2.27,0.56
		C80.45,199.09,79.71,198.91,79.04,198.53z M82.75,197.45c0.46-0.25,0.83-0.61,1.11-1.1c0.28-0.49,0.42-1.09,0.42-1.79
		c0-0.7-0.14-1.3-0.42-1.79c-0.28-0.49-0.64-0.86-1.09-1.1c-0.45-0.24-0.93-0.36-1.46-0.36c-0.53,0-1.02,0.12-1.46,0.36
		s-0.8,0.61-1.06,1.1c-0.27,0.49-0.4,1.09-0.4,1.79c0,0.71,0.13,1.32,0.39,1.81c0.26,0.49,0.61,0.86,1.05,1.1s0.92,0.36,1.44,0.36
		S82.29,197.69,82.75,197.45z"/>
	<path d="M90.24,190.44c0.47-0.28,1.05-0.42,1.74-0.42v1.5h-0.38c-1.63,0-2.45,0.89-2.45,2.66v4.77h-1.46v-8.77h1.46v1.42
		C89.4,191.1,89.77,190.72,90.24,190.44z"/>
	<path d="M93.66,192.17c0.36-0.68,0.86-1.2,1.5-1.58c0.63-0.37,1.34-0.56,2.12-0.56c0.77,0,1.43,0.17,2,0.5
		c0.57,0.33,0.99,0.75,1.26,1.25v-1.6h1.47v8.77h-1.47v-1.63c-0.29,0.51-0.72,0.94-1.29,1.27c-0.57,0.34-1.24,0.5-1.99,0.5
		c-0.78,0-1.48-0.19-2.11-0.58c-0.63-0.38-1.13-0.92-1.49-1.62c-0.36-0.69-0.54-1.48-0.54-2.37
		C93.11,193.64,93.29,192.85,93.66,192.17z M100.14,192.82c-0.27-0.49-0.63-0.87-1.08-1.13s-0.95-0.39-1.5-0.39
		s-1.04,0.13-1.49,0.38c-0.45,0.26-0.81,0.63-1.07,1.12c-0.27,0.49-0.4,1.07-0.4,1.73c0,0.67,0.13,1.26,0.4,1.75
		s0.62,0.88,1.07,1.14c0.45,0.26,0.94,0.39,1.49,0.39s1.04-0.13,1.5-0.39c0.45-0.26,0.81-0.64,1.08-1.14s0.4-1.07,0.4-1.74
		C100.54,193.89,100.4,193.31,100.14,192.82z"/>
	<path d="M104.47,192.17c0.36-0.68,0.87-1.2,1.51-1.58c0.65-0.37,1.38-0.56,2.22-0.56c1.08,0,1.96,0.26,2.66,0.78
		c0.7,0.52,1.16,1.25,1.38,2.18h-1.57c-0.15-0.53-0.44-0.95-0.87-1.26c-0.43-0.31-0.97-0.46-1.61-0.46c-0.83,0-1.5,0.29-2.02,0.86
		c-0.51,0.57-0.77,1.38-0.77,2.42c0,1.06,0.26,1.87,0.77,2.45c0.51,0.58,1.18,0.86,2.02,0.86c0.64,0,1.17-0.15,1.6-0.45
		s0.72-0.73,0.88-1.28h1.57c-0.23,0.9-0.7,1.61-1.41,2.15c-0.7,0.54-1.58,0.81-2.64,0.81c-0.83,0-1.57-0.19-2.22-0.56
		s-1.15-0.9-1.51-1.58c-0.36-0.68-0.54-1.48-0.54-2.4C103.93,193.64,104.11,192.85,104.47,192.17z"/>
	<path d="M114.23,188.47c-0.19-0.19-0.29-0.43-0.29-0.7s0.1-0.51,0.29-0.7c0.19-0.19,0.43-0.29,0.7-0.29c0.27,0,0.49,0.1,0.68,0.29
		c0.19,0.19,0.28,0.43,0.28,0.7s-0.09,0.51-0.28,0.7c-0.19,0.19-0.41,0.29-0.68,0.29C114.66,188.76,114.42,188.66,114.23,188.47z
		 M115.64,190.18v8.77h-1.46v-8.77H115.64z"/>
	<path d="M119.71,198.53c-0.67-0.37-1.19-0.9-1.57-1.59c-0.38-0.69-0.57-1.49-0.57-2.39c0-0.9,0.19-1.69,0.58-2.38
		c0.39-0.69,0.92-1.22,1.59-1.58c0.67-0.37,1.42-0.55,2.26-0.55s1.58,0.18,2.26,0.55c0.67,0.37,1.2,0.89,1.59,1.58
		s0.58,1.48,0.58,2.38c0,0.91-0.2,1.7-0.6,2.39c-0.4,0.69-0.94,1.22-1.62,1.59s-1.44,0.56-2.27,0.56
		C121.12,199.09,120.38,198.91,119.71,198.53z M123.42,197.45c0.46-0.25,0.83-0.61,1.11-1.1c0.28-0.49,0.42-1.09,0.42-1.79
		c0-0.7-0.14-1.3-0.42-1.79c-0.28-0.49-0.64-0.86-1.09-1.1c-0.45-0.24-0.93-0.36-1.46-0.36c-0.53,0-1.02,0.12-1.46,0.36
		s-0.8,0.61-1.06,1.1c-0.27,0.49-0.4,1.09-0.4,1.79c0,0.71,0.13,1.32,0.39,1.81c0.26,0.49,0.61,0.86,1.05,1.1s0.92,0.36,1.44,0.36
		S122.96,197.69,123.42,197.45z M123.58,187.59l-3.41,1.82v-1.09l3.41-2V187.59z"/>
	<path d="M135.22,190.99c0.66,0.65,0.99,1.58,0.99,2.79v5.17h-1.44v-4.96c0-0.88-0.22-1.54-0.66-2.01s-1.04-0.7-1.79-0.7
		c-0.77,0-1.38,0.24-1.83,0.72c-0.45,0.48-0.68,1.18-0.68,2.1v4.85h-1.46v-8.77h1.46v1.25c0.29-0.45,0.68-0.79,1.18-1.04
		c0.5-0.25,1.04-0.37,1.64-0.37C133.7,190.02,134.56,190.34,135.22,190.99z"/>
	<path d="M155.24,190.45c0.53,0.28,0.96,0.71,1.26,1.27c0.31,0.57,0.46,1.25,0.46,2.06v5.17h-1.44v-4.96c0-0.88-0.22-1.54-0.65-2.01
		c-0.43-0.46-1.02-0.7-1.75-0.7c-0.76,0-1.36,0.24-1.81,0.73c-0.45,0.49-0.67,1.19-0.67,2.1v4.83h-1.44v-4.96
		c0-0.88-0.22-1.54-0.65-2.01s-1.02-0.7-1.75-0.7c-0.76,0-1.36,0.24-1.81,0.73c-0.45,0.49-0.67,1.19-0.67,2.1v4.83h-1.46v-8.77h1.46
		v1.26c0.29-0.46,0.67-0.81,1.16-1.06c0.49-0.25,1.02-0.37,1.61-0.37c0.74,0,1.39,0.17,1.95,0.5c0.57,0.33,0.99,0.82,1.26,1.46
		c0.25-0.62,0.65-1.1,1.22-1.44c0.57-0.34,1.19-0.51,1.89-0.51C154.1,190.02,154.71,190.16,155.24,190.45z"/>
	<path d="M159.35,192.17c0.36-0.68,0.86-1.2,1.5-1.58c0.63-0.37,1.34-0.56,2.12-0.56c0.77,0,1.43,0.17,2,0.5
		c0.57,0.33,0.99,0.75,1.26,1.25v-1.6h1.47v8.77h-1.47v-1.63c-0.29,0.51-0.72,0.94-1.29,1.27c-0.57,0.34-1.24,0.5-1.99,0.5
		c-0.78,0-1.48-0.19-2.11-0.58c-0.63-0.38-1.13-0.92-1.49-1.62c-0.36-0.69-0.54-1.48-0.54-2.37
		C158.81,193.64,158.99,192.85,159.35,192.17z M165.83,192.82c-0.27-0.49-0.63-0.87-1.08-1.13s-0.95-0.39-1.5-0.39
		s-1.04,0.13-1.49,0.38c-0.45,0.26-0.81,0.63-1.07,1.12c-0.27,0.49-0.4,1.07-0.4,1.73c0,0.67,0.13,1.26,0.4,1.75
		s0.62,0.88,1.07,1.14c0.45,0.26,0.94,0.39,1.49,0.39s1.04-0.13,1.5-0.39c0.45-0.26,0.81-0.64,1.08-1.14s0.4-1.07,0.4-1.74
		C166.23,193.89,166.1,193.31,165.83,192.82z"/>
	<path d="M175.78,190.53c0.57,0.33,1,0.75,1.27,1.25v-1.6h1.47v8.96c0,0.8-0.17,1.51-0.51,2.14c-0.34,0.62-0.83,1.11-1.46,1.46
		c-0.63,0.35-1.37,0.53-2.22,0.53c-1.15,0-2.11-0.27-2.88-0.82c-0.77-0.54-1.22-1.29-1.36-2.22h1.44c0.16,0.53,0.49,0.96,0.99,1.29
		c0.5,0.33,1.1,0.49,1.81,0.49c0.8,0,1.45-0.25,1.96-0.75c0.51-0.5,0.76-1.21,0.76-2.11v-1.84c-0.29,0.51-0.71,0.94-1.28,1.28
		c-0.57,0.34-1.23,0.51-1.98,0.51c-0.78,0-1.49-0.19-2.12-0.58c-0.63-0.38-1.13-0.92-1.5-1.62c-0.36-0.69-0.54-1.48-0.54-2.37
		c0-0.9,0.18-1.68,0.54-2.36c0.36-0.68,0.86-1.2,1.5-1.58c0.63-0.37,1.34-0.56,2.12-0.56C174.54,190.04,175.21,190.2,175.78,190.53z
		 M176.65,192.82c-0.27-0.49-0.63-0.87-1.08-1.13s-0.95-0.39-1.5-0.39s-1.04,0.13-1.49,0.38c-0.45,0.26-0.81,0.63-1.07,1.12
		c-0.27,0.49-0.4,1.07-0.4,1.73c0,0.67,0.13,1.26,0.4,1.75s0.62,0.88,1.07,1.14c0.45,0.26,0.94,0.39,1.49,0.39s1.04-0.13,1.5-0.39
		c0.45-0.26,0.81-0.64,1.08-1.14s0.4-1.07,0.4-1.74C177.05,193.89,176.92,193.31,176.65,192.82z"/>
	<path d="M187.85,190.99c0.66,0.65,0.99,1.58,0.99,2.79v5.17h-1.44v-4.96c0-0.88-0.22-1.54-0.66-2.01s-1.04-0.7-1.79-0.7
		c-0.77,0-1.38,0.24-1.83,0.72c-0.45,0.48-0.68,1.18-0.68,2.1v4.85h-1.46v-8.77h1.46v1.25c0.29-0.45,0.68-0.79,1.18-1.04
		c0.5-0.25,1.04-0.37,1.64-0.37C186.33,190.02,187.19,190.34,187.85,190.99z"/>
	<path d="M191.28,188.47c-0.19-0.19-0.29-0.43-0.29-0.7s0.1-0.51,0.29-0.7c0.19-0.19,0.43-0.29,0.7-0.29c0.27,0,0.49,0.1,0.68,0.29
		c0.19,0.19,0.28,0.43,0.28,0.7s-0.09,0.51-0.28,0.7c-0.19,0.19-0.41,0.29-0.68,0.29C191.7,188.76,191.47,188.66,191.28,188.47z
		 M192.68,190.18v8.77h-1.46v-8.77H192.68z"/>
	<path d="M198.73,191.38h-1.84v7.57h-1.46v-7.57h-1.14v-1.2h1.14v-0.62c0-0.98,0.25-1.7,0.76-2.15s1.32-0.68,2.44-0.68v1.22
		c-0.64,0-1.09,0.13-1.35,0.38c-0.26,0.25-0.39,0.66-0.39,1.24v0.62h1.84V191.38z"/>
	<path d="M200.47,188.47c-0.19-0.19-0.29-0.43-0.29-0.7s0.1-0.51,0.29-0.7c0.19-0.19,0.43-0.29,0.7-0.29c0.27,0,0.49,0.1,0.68,0.29
		c0.19,0.19,0.28,0.43,0.28,0.7s-0.09,0.51-0.28,0.7c-0.19,0.19-0.41,0.29-0.68,0.29C200.9,188.76,200.67,188.66,200.47,188.47z
		 M201.88,190.18v8.77h-1.46v-8.77H201.88z"/>
	<path d="M204.36,192.17c0.36-0.68,0.87-1.2,1.51-1.58c0.65-0.37,1.38-0.56,2.22-0.56c1.08,0,1.96,0.26,2.66,0.78
		c0.7,0.52,1.16,1.25,1.38,2.18h-1.57c-0.15-0.53-0.44-0.95-0.87-1.26c-0.43-0.31-0.97-0.46-1.61-0.46c-0.83,0-1.5,0.29-2.02,0.86
		c-0.51,0.57-0.77,1.38-0.77,2.42c0,1.06,0.26,1.87,0.77,2.45c0.51,0.58,1.18,0.86,2.02,0.86c0.64,0,1.17-0.15,1.6-0.45
		s0.72-0.73,0.88-1.28h1.57c-0.23,0.9-0.7,1.61-1.41,2.15c-0.7,0.54-1.58,0.81-2.64,0.81c-0.83,0-1.57-0.19-2.22-0.56
		s-1.15-0.9-1.51-1.58c-0.36-0.68-0.54-1.48-0.54-2.4C203.82,193.64,204,192.85,204.36,192.17z"/>
	<path d="M214.07,192.17c0.36-0.68,0.86-1.2,1.5-1.58c0.63-0.37,1.34-0.56,2.12-0.56c0.77,0,1.43,0.17,2,0.5
		c0.57,0.33,0.99,0.75,1.26,1.25v-1.6h1.47v8.77h-1.47v-1.63c-0.29,0.51-0.72,0.94-1.29,1.27c-0.57,0.34-1.24,0.5-1.99,0.5
		c-0.78,0-1.48-0.19-2.11-0.58c-0.63-0.38-1.13-0.92-1.49-1.62c-0.36-0.69-0.54-1.48-0.54-2.37
		C213.53,193.64,213.71,192.85,214.07,192.17z M220.55,192.82c-0.27-0.49-0.63-0.87-1.08-1.13s-0.95-0.39-1.5-0.39
		s-1.04,0.13-1.49,0.38c-0.45,0.26-0.81,0.63-1.07,1.12c-0.27,0.49-0.4,1.07-0.4,1.73c0,0.67,0.13,1.26,0.4,1.75
		s0.62,0.88,1.07,1.14c0.45,0.26,0.94,0.39,1.49,0.39s1.04-0.13,1.5-0.39c0.45-0.26,0.81-0.64,1.08-1.14s0.4-1.07,0.4-1.74
		C220.95,193.89,220.82,193.31,220.55,192.82z"/>
	<path d="M224.89,192.17c0.36-0.68,0.86-1.2,1.5-1.58c0.63-0.37,1.35-0.56,2.14-0.56c0.68,0,1.32,0.16,1.9,0.47
		c0.59,0.32,1.04,0.73,1.34,1.24v-4.64h1.47v11.84h-1.47v-1.65c-0.29,0.52-0.71,0.95-1.28,1.29s-1.23,0.5-1.98,0.5
		c-0.78,0-1.49-0.19-2.12-0.58c-0.63-0.38-1.13-0.92-1.5-1.62c-0.36-0.69-0.54-1.48-0.54-2.37
		C224.35,193.64,224.53,192.85,224.89,192.17z M231.37,192.82c-0.27-0.49-0.63-0.87-1.08-1.13s-0.95-0.39-1.5-0.39
		s-1.04,0.13-1.49,0.38c-0.45,0.26-0.81,0.63-1.07,1.12c-0.27,0.49-0.4,1.07-0.4,1.73c0,0.67,0.13,1.26,0.4,1.75
		s0.62,0.88,1.07,1.14c0.45,0.26,0.94,0.39,1.49,0.39s1.04-0.13,1.5-0.39c0.45-0.26,0.81-0.64,1.08-1.14s0.4-1.07,0.4-1.74
		C231.77,193.89,231.64,193.31,231.37,192.82z"/>
	<path d="M235.71,192.17c0.36-0.68,0.86-1.2,1.5-1.58c0.63-0.37,1.34-0.56,2.12-0.56c0.77,0,1.43,0.17,2,0.5
		c0.57,0.33,0.99,0.75,1.26,1.25v-1.6h1.47v8.77h-1.47v-1.63c-0.29,0.51-0.72,0.94-1.29,1.27c-0.57,0.34-1.24,0.5-1.99,0.5
		c-0.78,0-1.48-0.19-2.11-0.58c-0.63-0.38-1.13-0.92-1.49-1.62c-0.36-0.69-0.54-1.48-0.54-2.37
		C235.16,193.64,235.34,192.85,235.71,192.17z M242.19,192.82c-0.27-0.49-0.63-0.87-1.08-1.13s-0.95-0.39-1.5-0.39
		s-1.04,0.13-1.49,0.38c-0.45,0.26-0.81,0.63-1.07,1.12c-0.27,0.49-0.4,1.07-0.4,1.73c0,0.67,0.13,1.26,0.4,1.75
		s0.62,0.88,1.07,1.14c0.45,0.26,0.94,0.39,1.49,0.39s1.04-0.13,1.5-0.39c0.45-0.26,0.81-0.64,1.08-1.14s0.4-1.07,0.4-1.74
		C242.59,193.89,242.45,193.31,242.19,192.82z"/>
	<path d="M250.79,192.17c0.36-0.68,0.86-1.2,1.5-1.58c0.63-0.37,1.35-0.56,2.14-0.56c0.68,0,1.32,0.16,1.9,0.47
		c0.59,0.32,1.04,0.73,1.34,1.24v-4.64h1.47v11.84h-1.47v-1.65c-0.29,0.52-0.71,0.95-1.28,1.29s-1.23,0.5-1.98,0.5
		c-0.78,0-1.49-0.19-2.12-0.58c-0.63-0.38-1.13-0.92-1.5-1.62c-0.36-0.69-0.54-1.48-0.54-2.37
		C250.25,193.64,250.43,192.85,250.79,192.17z M257.27,192.82c-0.27-0.49-0.63-0.87-1.08-1.13s-0.95-0.39-1.5-0.39
		s-1.04,0.13-1.49,0.38c-0.45,0.26-0.81,0.63-1.07,1.12c-0.27,0.49-0.4,1.07-0.4,1.73c0,0.67,0.13,1.26,0.4,1.75
		s0.62,0.88,1.07,1.14c0.45,0.26,0.94,0.39,1.49,0.39s1.04-0.13,1.5-0.39c0.45-0.26,0.81-0.64,1.08-1.14s0.4-1.07,0.4-1.74
		C257.67,193.89,257.54,193.31,257.27,192.82z"/>
	<path d="M269.56,195.11h-7.01c0.05,0.86,0.35,1.54,0.89,2.02c0.54,0.49,1.19,0.73,1.96,0.73c0.63,0,1.15-0.15,1.58-0.44
		c0.42-0.29,0.72-0.68,0.89-1.18h1.57c-0.23,0.84-0.7,1.53-1.41,2.06c-0.7,0.53-1.58,0.79-2.62,0.79c-0.83,0-1.58-0.19-2.23-0.56
		s-1.17-0.9-1.54-1.59c-0.37-0.69-0.56-1.49-0.56-2.39c0-0.91,0.18-1.7,0.54-2.38c0.36-0.68,0.87-1.21,1.53-1.58
		c0.66-0.37,1.41-0.55,2.26-0.55c0.83,0,1.57,0.18,2.21,0.54c0.64,0.36,1.13,0.86,1.48,1.5s0.52,1.35,0.52,2.15
		C269.61,194.51,269.59,194.8,269.56,195.11z M267.74,192.49c-0.25-0.4-0.58-0.7-1-0.91c-0.42-0.21-0.89-0.31-1.4-0.31
		c-0.74,0-1.36,0.23-1.88,0.7c-0.52,0.47-0.81,1.12-0.89,1.95h5.54C268.11,193.37,267.98,192.89,267.74,192.49z"/>
	<path d="M272.99,187.11v11.84h-1.46v-11.84H272.99z"/>
	<path d="M281.51,191.38v5.17c0,0.43,0.09,0.73,0.27,0.9c0.18,0.18,0.5,0.26,0.94,0.26h1.07v1.23h-1.31c-0.81,0-1.42-0.19-1.82-0.56
		c-0.41-0.37-0.61-0.99-0.61-1.84v-5.17h-1.14v-1.2h1.14v-2.21h1.46v2.21h2.29v1.2H281.51z"/>
	<path d="M293.51,195.11h-7.01c0.05,0.86,0.35,1.54,0.89,2.02c0.54,0.49,1.19,0.73,1.96,0.73c0.63,0,1.15-0.15,1.58-0.44
		c0.42-0.29,0.72-0.68,0.89-1.18h1.57c-0.23,0.84-0.7,1.53-1.41,2.06c-0.7,0.53-1.58,0.79-2.62,0.79c-0.83,0-1.58-0.19-2.23-0.56
		s-1.17-0.9-1.54-1.59c-0.37-0.69-0.56-1.49-0.56-2.39c0-0.91,0.18-1.7,0.54-2.38c0.36-0.68,0.87-1.21,1.53-1.58
		c0.66-0.37,1.41-0.55,2.26-0.55c0.83,0,1.57,0.18,2.21,0.54c0.64,0.36,1.13,0.86,1.48,1.5s0.52,1.35,0.52,2.15
		C293.56,194.51,293.54,194.8,293.51,195.11z M291.69,192.49c-0.25-0.4-0.58-0.7-1-0.91c-0.42-0.21-0.89-0.31-1.4-0.31
		c-0.74,0-1.36,0.23-1.88,0.7c-0.52,0.47-0.81,1.12-0.89,1.95h5.54C292.06,193.37,291.93,192.89,291.69,192.49z"/>
	<path d="M296.99,200.85c0,0.78-0.2,1.35-0.59,1.71c-0.39,0.36-0.97,0.54-1.73,0.54h-0.85v-1.23h0.61c0.41,0,0.69-0.08,0.86-0.24
		c0.17-0.16,0.25-0.43,0.25-0.82v-10.64h1.46V200.85z M295.57,188.47c-0.19-0.19-0.28-0.43-0.28-0.7s0.09-0.51,0.28-0.7
		c0.19-0.19,0.42-0.29,0.7-0.29s0.51,0.1,0.7,0.29c0.19,0.19,0.28,0.43,0.28,0.7s-0.09,0.51-0.28,0.7c-0.19,0.19-0.42,0.29-0.7,0.29
		S295.76,188.66,295.57,188.47z"/>
	<path d="M299.5,188.47c-0.19-0.19-0.29-0.43-0.29-0.7s0.1-0.51,0.29-0.7c0.19-0.19,0.43-0.29,0.7-0.29c0.27,0,0.49,0.1,0.68,0.29
		c0.19,0.19,0.28,0.43,0.28,0.7s-0.09,0.51-0.28,0.7c-0.19,0.19-0.41,0.29-0.68,0.29C299.92,188.76,299.69,188.66,299.5,188.47z
		 M300.91,190.18v8.77h-1.46v-8.77H300.91z"/>
	<path d="M303.38,192.17c0.36-0.68,0.86-1.2,1.5-1.58c0.63-0.37,1.35-0.56,2.14-0.56c0.68,0,1.32,0.16,1.9,0.47
		c0.59,0.32,1.04,0.73,1.34,1.24v-4.64h1.47v11.84h-1.47v-1.65c-0.29,0.52-0.71,0.95-1.28,1.29s-1.23,0.5-1.98,0.5
		c-0.78,0-1.49-0.19-2.12-0.58c-0.63-0.38-1.13-0.92-1.5-1.62c-0.36-0.69-0.54-1.48-0.54-2.37
		C302.84,193.64,303.02,192.85,303.38,192.17z M309.86,192.82c-0.27-0.49-0.63-0.87-1.08-1.13s-0.95-0.39-1.5-0.39
		s-1.04,0.13-1.49,0.38c-0.45,0.26-0.81,0.63-1.07,1.12c-0.27,0.49-0.4,1.07-0.4,1.73c0,0.67,0.13,1.26,0.4,1.75
		s0.62,0.88,1.07,1.14c0.45,0.26,0.94,0.39,1.49,0.39s1.04-0.13,1.5-0.39c0.45-0.26,0.81-0.64,1.08-1.14s0.4-1.07,0.4-1.74
		C310.26,193.89,310.13,193.31,309.86,192.82z"/>
	<path d="M315.79,198.53c-0.67-0.37-1.19-0.9-1.57-1.59c-0.38-0.69-0.57-1.49-0.57-2.39c0-0.9,0.19-1.69,0.58-2.38
		c0.39-0.69,0.92-1.22,1.59-1.58c0.67-0.37,1.42-0.55,2.26-0.55s1.58,0.18,2.26,0.55c0.67,0.37,1.2,0.89,1.59,1.58
		s0.58,1.48,0.58,2.38c0,0.91-0.2,1.7-0.6,2.39c-0.4,0.69-0.94,1.22-1.62,1.59s-1.44,0.56-2.27,0.56
		C317.2,199.09,316.46,198.91,315.79,198.53z M319.5,197.45c0.46-0.25,0.83-0.61,1.11-1.1c0.28-0.49,0.42-1.09,0.42-1.79
		c0-0.7-0.14-1.3-0.42-1.79c-0.28-0.49-0.64-0.86-1.09-1.1c-0.45-0.24-0.93-0.36-1.46-0.36c-0.53,0-1.02,0.12-1.46,0.36
		s-0.8,0.61-1.06,1.1c-0.27,0.49-0.4,1.09-0.4,1.79c0,0.71,0.13,1.32,0.39,1.81c0.26,0.49,0.61,0.86,1.05,1.1s0.92,0.36,1.44,0.36
		S319.04,197.69,319.5,197.45z"/>
	<path d="M328.71,192.17c0.36-0.68,0.86-1.2,1.5-1.58c0.63-0.37,1.35-0.56,2.14-0.56c0.68,0,1.32,0.16,1.9,0.47
		c0.59,0.32,1.04,0.73,1.34,1.24v-4.64h1.47v11.84h-1.47v-1.65c-0.29,0.52-0.71,0.95-1.28,1.29s-1.23,0.5-1.98,0.5
		c-0.78,0-1.49-0.19-2.12-0.58c-0.63-0.38-1.13-0.92-1.5-1.62c-0.36-0.69-0.54-1.48-0.54-2.37
		C328.17,193.64,328.35,192.85,328.71,192.17z M335.19,192.82c-0.27-0.49-0.63-0.87-1.08-1.13s-0.95-0.39-1.5-0.39
		s-1.04,0.13-1.49,0.38c-0.45,0.26-0.81,0.63-1.07,1.12c-0.27,0.49-0.4,1.07-0.4,1.73c0,0.67,0.13,1.26,0.4,1.75
		s0.62,0.88,1.07,1.14c0.45,0.26,0.94,0.39,1.49,0.39s1.04-0.13,1.5-0.39c0.45-0.26,0.81-0.64,1.08-1.14s0.4-1.07,0.4-1.74
		C335.59,193.89,335.46,193.31,335.19,192.82z"/>
	<path d="M347.48,195.11h-7.01c0.05,0.86,0.35,1.54,0.89,2.02c0.54,0.49,1.19,0.73,1.96,0.73c0.63,0,1.15-0.15,1.58-0.44
		c0.42-0.29,0.72-0.68,0.89-1.18h1.57c-0.23,0.84-0.7,1.53-1.41,2.06c-0.7,0.53-1.58,0.79-2.62,0.79c-0.83,0-1.58-0.19-2.23-0.56
		s-1.17-0.9-1.54-1.59c-0.37-0.69-0.56-1.49-0.56-2.39c0-0.91,0.18-1.7,0.54-2.38c0.36-0.68,0.87-1.21,1.53-1.58
		c0.66-0.37,1.41-0.55,2.26-0.55c0.83,0,1.57,0.18,2.21,0.54c0.64,0.36,1.13,0.86,1.48,1.5s0.52,1.35,0.52,2.15
		C347.53,194.51,347.51,194.8,347.48,195.11z M345.66,192.49c-0.25-0.4-0.58-0.7-1-0.91c-0.42-0.21-0.89-0.31-1.4-0.31
		c-0.74,0-1.36,0.23-1.88,0.7c-0.52,0.47-0.81,1.12-0.89,1.95h5.54C346.02,193.37,345.9,192.89,345.66,192.49z"/>
	<path d="M350.9,187.11v11.84h-1.46v-11.84H350.9z"/>
	<path d="M357.66,192.17c0.36-0.68,0.87-1.2,1.51-1.58c0.65-0.37,1.38-0.56,2.22-0.56c1.08,0,1.96,0.26,2.66,0.78
		c0.7,0.52,1.16,1.25,1.38,2.18h-1.57c-0.15-0.53-0.44-0.95-0.87-1.26c-0.43-0.31-0.97-0.46-1.61-0.46c-0.83,0-1.5,0.29-2.02,0.86
		c-0.51,0.57-0.77,1.38-0.77,2.42c0,1.06,0.26,1.87,0.77,2.45c0.51,0.58,1.18,0.86,2.02,0.86c0.64,0,1.17-0.15,1.6-0.45
		s0.72-0.73,0.88-1.28h1.57c-0.23,0.9-0.7,1.61-1.41,2.15c-0.7,0.54-1.58,0.81-2.64,0.81c-0.83,0-1.57-0.19-2.22-0.56
		s-1.15-0.9-1.51-1.58c-0.36-0.68-0.54-1.48-0.54-2.4C357.11,193.64,357.29,192.85,357.66,192.17z"/>
	<path d="M375.14,190.18v8.77h-1.46v-1.3c-0.28,0.45-0.66,0.8-1.16,1.05c-0.5,0.25-1.04,0.38-1.64,0.38c-0.68,0-1.3-0.14-1.84-0.42
		s-0.97-0.71-1.29-1.27c-0.31-0.56-0.47-1.25-0.47-2.06v-5.14h1.44v4.94c0,0.86,0.22,1.53,0.66,1.99s1.03,0.7,1.79,0.7
		c0.78,0,1.39-0.24,1.84-0.72c0.45-0.48,0.67-1.18,0.67-2.1v-4.82H375.14z"/>
	<path d="M385.56,195.11h-7.01c0.05,0.86,0.35,1.54,0.89,2.02c0.54,0.49,1.19,0.73,1.96,0.73c0.63,0,1.15-0.15,1.58-0.44
		c0.42-0.29,0.72-0.68,0.89-1.18h1.57c-0.23,0.84-0.7,1.53-1.41,2.06c-0.7,0.53-1.58,0.79-2.62,0.79c-0.83,0-1.58-0.19-2.23-0.56
		s-1.17-0.9-1.54-1.59c-0.37-0.69-0.56-1.49-0.56-2.39c0-0.91,0.18-1.7,0.54-2.38c0.36-0.68,0.87-1.21,1.53-1.58
		c0.66-0.37,1.41-0.55,2.26-0.55c0.83,0,1.57,0.18,2.21,0.54c0.64,0.36,1.13,0.86,1.48,1.5s0.52,1.35,0.52,2.15
		C385.61,194.51,385.59,194.8,385.56,195.11z M383.74,192.49c-0.25-0.4-0.58-0.7-1-0.91c-0.42-0.21-0.89-0.31-1.4-0.31
		c-0.74,0-1.36,0.23-1.88,0.7c-0.52,0.47-0.81,1.12-0.89,1.95h5.54C384.1,193.37,383.98,192.89,383.74,192.49z"/>
	<path d="M388.98,187.11v11.84h-1.46v-11.84H388.98z"/>
	<path d="M392.92,187.11v11.84h-1.46v-11.84H392.92z"/>
	<path d="M396.99,198.53c-0.67-0.37-1.19-0.9-1.57-1.59c-0.38-0.69-0.57-1.49-0.57-2.39c0-0.9,0.19-1.69,0.58-2.38
		c0.39-0.69,0.92-1.22,1.59-1.58c0.67-0.37,1.42-0.55,2.26-0.55s1.58,0.18,2.26,0.55c0.67,0.37,1.2,0.89,1.59,1.58
		s0.58,1.48,0.58,2.38c0,0.91-0.2,1.7-0.6,2.39c-0.4,0.69-0.94,1.22-1.62,1.59s-1.44,0.56-2.27,0.56
		C398.4,199.09,397.66,198.91,396.99,198.53z M400.69,197.45c0.46-0.25,0.83-0.61,1.11-1.1c0.28-0.49,0.42-1.09,0.42-1.79
		c0-0.7-0.14-1.3-0.42-1.79c-0.28-0.49-0.64-0.86-1.09-1.1c-0.45-0.24-0.93-0.36-1.46-0.36c-0.53,0-1.02,0.12-1.46,0.36
		s-0.8,0.61-1.06,1.1c-0.27,0.49-0.4,1.09-0.4,1.79c0,0.71,0.13,1.32,0.39,1.81c0.26,0.49,0.61,0.86,1.05,1.1s0.92,0.36,1.44,0.36
		S400.24,197.69,400.69,197.45z"/>
	<path d="M80.7,214.18v8.77h-1.46v-1.3c-0.28,0.45-0.66,0.8-1.16,1.05c-0.5,0.25-1.04,0.38-1.64,0.38c-0.68,0-1.3-0.14-1.84-0.42
		s-0.97-0.71-1.29-1.27c-0.31-0.56-0.47-1.25-0.47-2.06v-5.14h1.44v4.94c0,0.86,0.22,1.53,0.66,1.99s1.03,0.7,1.79,0.7
		c0.78,0,1.39-0.24,1.84-0.72c0.45-0.48,0.67-1.18,0.67-2.1v-4.82H80.7z"/>
	<path d="M84.94,215.38v5.17c0,0.43,0.09,0.73,0.27,0.9c0.18,0.18,0.5,0.26,0.94,0.26h1.07v1.23h-1.31c-0.81,0-1.42-0.19-1.82-0.56
		c-0.41-0.37-0.61-0.99-0.61-1.84v-5.17h-1.14v-1.2h1.14v-2.21h1.46v2.21h2.29v1.2H84.94z"/>
	<path d="M96.94,219.11h-7.01c0.05,0.86,0.35,1.54,0.89,2.02c0.54,0.49,1.19,0.73,1.96,0.73c0.63,0,1.15-0.15,1.58-0.44
		c0.42-0.29,0.72-0.68,0.89-1.18h1.57c-0.23,0.84-0.7,1.53-1.41,2.06c-0.7,0.53-1.58,0.79-2.62,0.79c-0.83,0-1.58-0.19-2.23-0.56
		s-1.17-0.9-1.54-1.59c-0.37-0.69-0.56-1.49-0.56-2.39c0-0.91,0.18-1.7,0.54-2.38c0.36-0.68,0.87-1.21,1.53-1.58
		c0.66-0.37,1.41-0.55,2.26-0.55c0.83,0,1.57,0.18,2.21,0.54c0.64,0.36,1.13,0.86,1.48,1.5s0.52,1.35,0.52,2.15
		C96.99,218.51,96.97,218.8,96.94,219.11z M95.11,216.49c-0.25-0.4-0.58-0.7-1-0.91c-0.42-0.21-0.89-0.31-1.4-0.31
		c-0.74,0-1.36,0.23-1.88,0.7c-0.52,0.47-0.81,1.12-0.89,1.95h5.54C95.48,217.37,95.36,216.89,95.11,216.49z"/>
	<path d="M101.46,214.44c0.47-0.28,1.05-0.42,1.74-0.42v1.5h-0.38c-1.63,0-2.45,0.89-2.45,2.66v4.77h-1.46v-8.77h1.46v1.42
		C100.62,215.1,100.98,214.72,101.46,214.44z"/>
	<path d="M104.92,212.47c-0.19-0.19-0.29-0.43-0.29-0.7s0.1-0.51,0.29-0.7c0.19-0.19,0.43-0.29,0.7-0.29c0.27,0,0.49,0.1,0.68,0.29
		c0.19,0.19,0.28,0.43,0.28,0.7s-0.09,0.51-0.28,0.7c-0.19,0.19-0.41,0.29-0.68,0.29C105.35,212.76,105.11,212.66,104.92,212.47z
		 M106.33,214.18v8.77h-1.46v-8.77H106.33z"/>
	<path d="M115.67,214.99c0.66,0.65,0.99,1.58,0.99,2.79v5.17h-1.44v-4.96c0-0.88-0.22-1.54-0.66-2.01s-1.04-0.7-1.79-0.7
		c-0.77,0-1.38,0.24-1.83,0.72c-0.45,0.48-0.68,1.18-0.68,2.1v4.85h-1.46v-8.77h1.46v1.25c0.29-0.45,0.68-0.79,1.18-1.04
		c0.5-0.25,1.04-0.37,1.64-0.37C114.15,214.02,115.01,214.34,115.67,214.99z"/>
	<path d="M120.64,222.53c-0.67-0.37-1.19-0.9-1.57-1.59c-0.38-0.69-0.57-1.49-0.57-2.39c0-0.9,0.19-1.69,0.58-2.38
		c0.39-0.69,0.92-1.22,1.59-1.58c0.67-0.37,1.42-0.55,2.26-0.55s1.58,0.18,2.26,0.55c0.67,0.37,1.2,0.89,1.59,1.58
		s0.58,1.48,0.58,2.38c0,0.91-0.2,1.7-0.6,2.39c-0.4,0.69-0.94,1.22-1.62,1.59s-1.44,0.56-2.27,0.56
		C122.05,223.09,121.31,222.91,120.64,222.53z M124.35,221.45c0.46-0.25,0.83-0.61,1.11-1.1c0.28-0.49,0.42-1.09,0.42-1.79
		c0-0.7-0.14-1.3-0.42-1.79c-0.28-0.49-0.64-0.86-1.09-1.1c-0.45-0.24-0.93-0.36-1.46-0.36c-0.53,0-1.02,0.12-1.46,0.36
		s-0.8,0.61-1.06,1.1c-0.27,0.49-0.4,1.09-0.4,1.79c0,0.71,0.13,1.32,0.39,1.81c0.26,0.49,0.61,0.86,1.05,1.1s0.92,0.36,1.44,0.36
		S123.89,221.69,124.35,221.45z"/>
	<path d="M130.79,220.93l-1.79,4.3h-0.98l1.17-4.3H130.79z"/>
	<path d="M138.19,211.11v11.84h-1.46v-11.84H138.19z"/>
	<path d="M140.67,216.17c0.36-0.68,0.86-1.2,1.5-1.58c0.63-0.37,1.34-0.56,2.12-0.56c0.77,0,1.43,0.17,2,0.5
		c0.57,0.33,0.99,0.75,1.26,1.25v-1.6h1.47v8.77h-1.47v-1.63c-0.29,0.51-0.72,0.94-1.29,1.27c-0.57,0.34-1.24,0.5-1.99,0.5
		c-0.78,0-1.48-0.19-2.11-0.58c-0.63-0.38-1.13-0.92-1.49-1.62c-0.36-0.69-0.54-1.48-0.54-2.37
		C140.12,217.64,140.3,216.85,140.67,216.17z M147.14,216.82c-0.27-0.49-0.63-0.87-1.08-1.13s-0.95-0.39-1.5-0.39
		s-1.04,0.13-1.49,0.38c-0.45,0.26-0.81,0.63-1.07,1.12c-0.27,0.49-0.4,1.07-0.4,1.73c0,0.67,0.13,1.26,0.4,1.75
		s0.62,0.88,1.07,1.14c0.45,0.26,0.94,0.39,1.49,0.39s1.04-0.13,1.5-0.39c0.45-0.26,0.81-0.64,1.08-1.14s0.4-1.07,0.4-1.74
		C147.54,217.89,147.41,217.31,147.14,216.82z"/>
	<path d="M159.02,221.61l2.72-7.42h1.55l-3.44,8.77h-1.7l-3.44-8.77h1.57L159.02,221.61z"/>
	<path d="M164.73,216.17c0.36-0.68,0.86-1.2,1.5-1.58c0.63-0.37,1.34-0.56,2.12-0.56c0.77,0,1.43,0.17,2,0.5
		c0.57,0.33,0.99,0.75,1.26,1.25v-1.6h1.47v8.77h-1.47v-1.63c-0.29,0.51-0.72,0.94-1.29,1.27c-0.57,0.34-1.24,0.5-1.99,0.5
		c-0.78,0-1.48-0.19-2.11-0.58c-0.63-0.38-1.13-0.92-1.49-1.62c-0.36-0.69-0.54-1.48-0.54-2.37
		C164.18,217.64,164.37,216.85,164.73,216.17z M171.21,216.82c-0.27-0.49-0.63-0.87-1.08-1.13s-0.95-0.39-1.5-0.39
		s-1.04,0.13-1.49,0.38c-0.45,0.26-0.81,0.63-1.07,1.12c-0.27,0.49-0.4,1.07-0.4,1.73c0,0.67,0.13,1.26,0.4,1.75
		s0.62,0.88,1.07,1.14c0.45,0.26,0.94,0.39,1.49,0.39s1.04-0.13,1.5-0.39c0.45-0.26,0.81-0.64,1.08-1.14s0.4-1.07,0.4-1.74
		C171.61,217.89,171.47,217.31,171.21,216.82z"/>
	<path d="M181.15,214.53c0.57,0.33,1,0.75,1.27,1.25v-1.6h1.47v8.96c0,0.8-0.17,1.51-0.51,2.14c-0.34,0.62-0.83,1.11-1.46,1.46
		c-0.63,0.35-1.37,0.53-2.22,0.53c-1.15,0-2.11-0.27-2.88-0.82c-0.77-0.54-1.22-1.29-1.36-2.22h1.44c0.16,0.53,0.49,0.96,0.99,1.29
		c0.5,0.33,1.1,0.49,1.81,0.49c0.8,0,1.45-0.25,1.96-0.75c0.51-0.5,0.76-1.21,0.76-2.11v-1.84c-0.29,0.51-0.71,0.94-1.28,1.28
		c-0.57,0.34-1.23,0.51-1.98,0.51c-0.78,0-1.49-0.19-2.12-0.58c-0.63-0.38-1.13-0.92-1.5-1.62c-0.36-0.69-0.54-1.48-0.54-2.37
		c0-0.9,0.18-1.68,0.54-2.36c0.36-0.68,0.86-1.2,1.5-1.58c0.63-0.37,1.34-0.56,2.12-0.56C179.92,214.04,180.58,214.2,181.15,214.53z
		 M182.02,216.82c-0.27-0.49-0.63-0.87-1.08-1.13s-0.95-0.39-1.5-0.39s-1.04,0.13-1.49,0.38c-0.45,0.26-0.81,0.63-1.07,1.12
		c-0.27,0.49-0.4,1.07-0.4,1.73c0,0.67,0.13,1.26,0.4,1.75s0.62,0.88,1.07,1.14c0.45,0.26,0.94,0.39,1.49,0.39s1.04-0.13,1.5-0.39
		c0.45-0.26,0.81-0.64,1.08-1.14s0.4-1.07,0.4-1.74C182.42,217.89,182.29,217.31,182.02,216.82z"/>
	<path d="M186.41,212.47c-0.19-0.19-0.29-0.43-0.29-0.7s0.1-0.51,0.29-0.7c0.19-0.19,0.43-0.29,0.7-0.29c0.27,0,0.49,0.1,0.68,0.29
		c0.19,0.19,0.28,0.43,0.28,0.7s-0.09,0.51-0.28,0.7c-0.19,0.19-0.41,0.29-0.68,0.29C186.83,212.76,186.6,212.66,186.41,212.47z
		 M187.82,214.18v8.77h-1.46v-8.77H187.82z"/>
	<path d="M197.16,214.99c0.66,0.65,0.99,1.58,0.99,2.79v5.17h-1.44v-4.96c0-0.88-0.22-1.54-0.66-2.01s-1.04-0.7-1.79-0.7
		c-0.77,0-1.38,0.24-1.83,0.72c-0.45,0.48-0.68,1.18-0.68,2.1v4.85h-1.46v-8.77h1.46v1.25c0.29-0.45,0.68-0.79,1.18-1.04
		c0.5-0.25,1.04-0.37,1.64-0.37C195.63,214.02,196.5,214.34,197.16,214.99z"/>
	<path d="M200.54,216.17c0.36-0.68,0.86-1.2,1.5-1.58c0.63-0.37,1.34-0.56,2.12-0.56c0.77,0,1.43,0.17,2,0.5
		c0.57,0.33,0.99,0.75,1.26,1.25v-1.6h1.47v8.77h-1.47v-1.63c-0.29,0.51-0.72,0.94-1.29,1.27c-0.57,0.34-1.24,0.5-1.99,0.5
		c-0.78,0-1.48-0.19-2.11-0.58c-0.63-0.38-1.13-0.92-1.49-1.62c-0.36-0.69-0.54-1.48-0.54-2.37
		C199.99,217.64,200.17,216.85,200.54,216.17z M207.02,216.82c-0.27-0.49-0.63-0.87-1.08-1.13s-0.95-0.39-1.5-0.39
		s-1.04,0.13-1.49,0.38c-0.45,0.26-0.81,0.63-1.07,1.12c-0.27,0.49-0.4,1.07-0.4,1.73c0,0.67,0.13,1.26,0.4,1.75
		s0.62,0.88,1.07,1.14c0.45,0.26,0.94,0.39,1.49,0.39s1.04-0.13,1.5-0.39c0.45-0.26,0.81-0.64,1.08-1.14s0.4-1.07,0.4-1.74
		C207.42,217.89,207.28,217.31,207.02,216.82z"/>
	<path d="M223.18,214.18l-5.28,12.9h-1.5l1.73-4.22l-3.54-8.67h1.62l2.75,7.1l2.72-7.1H223.18z"/>
	<path d="M230.36,211.11v11.84h-1.46v-11.84H230.36z"/>
	<path d="M232.84,216.17c0.36-0.68,0.86-1.2,1.5-1.58c0.63-0.37,1.34-0.56,2.12-0.56c0.77,0,1.43,0.17,2,0.5
		c0.57,0.33,0.99,0.75,1.26,1.25v-1.6h1.47v8.77h-1.47v-1.63c-0.29,0.51-0.72,0.94-1.29,1.27c-0.57,0.34-1.24,0.5-1.99,0.5
		c-0.78,0-1.48-0.19-2.11-0.58c-0.63-0.38-1.13-0.92-1.49-1.62c-0.36-0.69-0.54-1.48-0.54-2.37
		C232.29,217.64,232.48,216.85,232.84,216.17z M239.32,216.82c-0.27-0.49-0.63-0.87-1.08-1.13s-0.95-0.39-1.5-0.39
		s-1.04,0.13-1.49,0.38c-0.45,0.26-0.81,0.63-1.07,1.12c-0.27,0.49-0.4,1.07-0.4,1.73c0,0.67,0.13,1.26,0.4,1.75
		s0.62,0.88,1.07,1.14c0.45,0.26,0.94,0.39,1.49,0.39s1.04-0.13,1.5-0.39c0.45-0.26,0.81-0.64,1.08-1.14s0.4-1.07,0.4-1.74
		C239.72,217.89,239.58,217.31,239.32,216.82z"/>
	<path d="M251.19,221.61l2.72-7.42h1.55l-3.44,8.77h-1.7l-3.44-8.77h1.57L251.19,221.61z"/>
	<path d="M264.68,214.18v8.77h-1.46v-1.3c-0.28,0.45-0.66,0.8-1.16,1.05c-0.5,0.25-1.04,0.38-1.64,0.38c-0.68,0-1.3-0.14-1.84-0.42
		s-0.97-0.71-1.29-1.27c-0.31-0.56-0.47-1.25-0.47-2.06v-5.14h1.44v4.94c0,0.86,0.22,1.53,0.66,1.99s1.03,0.7,1.79,0.7
		c0.78,0,1.39-0.24,1.84-0.72c0.45-0.48,0.67-1.18,0.67-2.1v-4.82H264.68z"/>
	<path d="M268.6,211.11v11.84h-1.46v-11.84H268.6z"/>
	<path d="M274.34,221.61l2.72-7.42h1.55l-3.44,8.77h-1.7l-3.44-8.77h1.57L274.34,221.61z"/>
	<path d="M280.05,216.17c0.36-0.68,0.86-1.2,1.5-1.58c0.63-0.37,1.34-0.56,2.12-0.56c0.77,0,1.43,0.17,2,0.5
		c0.57,0.33,0.99,0.75,1.26,1.25v-1.6h1.47v8.77h-1.47v-1.63c-0.29,0.51-0.72,0.94-1.29,1.27c-0.57,0.34-1.24,0.5-1.99,0.5
		c-0.78,0-1.48-0.19-2.11-0.58c-0.63-0.38-1.13-0.92-1.49-1.62c-0.36-0.69-0.54-1.48-0.54-2.37
		C279.51,217.64,279.69,216.85,280.05,216.17z M286.53,216.82c-0.27-0.49-0.63-0.87-1.08-1.13s-0.95-0.39-1.5-0.39
		s-1.04,0.13-1.49,0.38c-0.45,0.26-0.81,0.63-1.07,1.12c-0.27,0.49-0.4,1.07-0.4,1.73c0,0.67,0.13,1.26,0.4,1.75
		s0.62,0.88,1.07,1.14c0.45,0.26,0.94,0.39,1.49,0.39s1.04-0.13,1.5-0.39c0.45-0.26,0.81-0.64,1.08-1.14s0.4-1.07,0.4-1.74
		C286.93,217.89,286.8,217.31,286.53,216.82z"/>
	<path d="M292.37,220.93l-1.79,4.3h-0.98l1.17-4.3H292.37z"/>
	<path d="M301.08,214.53c0.58-0.33,1.23-0.5,1.97-0.5c0.79,0,1.5,0.19,2.13,0.56c0.63,0.37,1.13,0.9,1.49,1.58
		c0.36,0.68,0.54,1.46,0.54,2.36c0,0.89-0.18,1.67-0.54,2.37s-0.86,1.23-1.5,1.62c-0.63,0.38-1.34,0.58-2.12,0.58
		c-0.76,0-1.42-0.17-1.99-0.5c-0.57-0.33-1-0.75-1.29-1.26v1.62h-1.46v-11.84h1.46v4.7C300.06,215.29,300.5,214.87,301.08,214.53z
		 M305.32,216.81c-0.27-0.49-0.63-0.86-1.08-1.12c-0.45-0.26-0.95-0.38-1.5-0.38c-0.53,0-1.03,0.13-1.48,0.39
		c-0.45,0.26-0.82,0.64-1.09,1.14c-0.27,0.5-0.41,1.07-0.41,1.72c0,0.66,0.14,1.24,0.41,1.74c0.27,0.5,0.63,0.88,1.09,1.14
		c0.45,0.26,0.95,0.39,1.48,0.39c0.54,0,1.04-0.13,1.5-0.39c0.45-0.26,0.81-0.64,1.08-1.14s0.4-1.08,0.4-1.75
		C305.72,217.87,305.58,217.3,305.32,216.81z"/>
	<path d="M316.9,214.18v8.77h-1.46v-1.3c-0.28,0.45-0.66,0.8-1.16,1.05c-0.5,0.25-1.04,0.38-1.64,0.38c-0.68,0-1.3-0.14-1.84-0.42
		s-0.97-0.71-1.29-1.27c-0.31-0.56-0.47-1.25-0.47-2.06v-5.14h1.44v4.94c0,0.86,0.22,1.53,0.66,1.99s1.03,0.7,1.79,0.7
		c0.78,0,1.39-0.24,1.84-0.72c0.45-0.48,0.67-1.18,0.67-2.1v-4.82H316.9z"/>
	<path d="M320.66,222.75c-0.53-0.23-0.96-0.55-1.26-0.96c-0.31-0.41-0.48-0.88-0.51-1.42h1.5c0.04,0.44,0.25,0.79,0.62,1.07
		s0.85,0.42,1.45,0.42c0.55,0,0.99-0.12,1.31-0.37s0.48-0.55,0.48-0.93c0-0.38-0.17-0.67-0.51-0.86c-0.34-0.19-0.87-0.37-1.58-0.55
		c-0.65-0.17-1.18-0.34-1.59-0.52c-0.41-0.18-0.76-0.44-1.06-0.78c-0.29-0.35-0.44-0.8-0.44-1.37c0-0.45,0.13-0.86,0.4-1.23
		c0.27-0.37,0.65-0.67,1.14-0.89s1.05-0.33,1.68-0.33c0.97,0,1.75,0.25,2.35,0.74c0.6,0.49,0.92,1.16,0.96,2.02h-1.46
		c-0.03-0.46-0.22-0.83-0.55-1.1s-0.79-0.42-1.35-0.42c-0.52,0-0.94,0.11-1.25,0.34c-0.31,0.22-0.46,0.52-0.46,0.88
		c0,0.29,0.09,0.53,0.28,0.71s0.42,0.34,0.7,0.45c0.28,0.11,0.67,0.24,1.18,0.38c0.63,0.17,1.14,0.34,1.54,0.5s0.73,0.41,1.02,0.74
		c0.28,0.33,0.43,0.76,0.44,1.3c0,0.48-0.13,0.91-0.4,1.3s-0.64,0.69-1.13,0.9c-0.49,0.22-1.04,0.33-1.67,0.33
		C321.8,223.09,321.2,222.98,320.66,222.75z"/>
	<path d="M327.72,216.17c0.36-0.68,0.87-1.2,1.51-1.58c0.65-0.37,1.38-0.56,2.22-0.56c1.08,0,1.96,0.26,2.66,0.78
		c0.7,0.52,1.16,1.25,1.38,2.18h-1.57c-0.15-0.53-0.44-0.95-0.87-1.26c-0.43-0.31-0.97-0.46-1.61-0.46c-0.83,0-1.5,0.29-2.02,0.86
		c-0.51,0.57-0.77,1.38-0.77,2.42c0,1.06,0.26,1.87,0.77,2.45c0.51,0.58,1.18,0.86,2.02,0.86c0.64,0,1.17-0.15,1.6-0.45
		s0.72-0.73,0.88-1.28h1.57c-0.23,0.9-0.7,1.61-1.41,2.15c-0.7,0.54-1.58,0.81-2.64,0.81c-0.83,0-1.57-0.19-2.22-0.56
		s-1.15-0.9-1.51-1.58c-0.36-0.68-0.54-1.48-0.54-2.4C327.17,217.64,327.35,216.85,327.72,216.17z"/>
	<path d="M337.43,216.17c0.36-0.68,0.86-1.2,1.5-1.58c0.63-0.37,1.34-0.56,2.12-0.56c0.77,0,1.43,0.17,2,0.5
		c0.57,0.33,0.99,0.75,1.26,1.25v-1.6h1.47v8.77h-1.47v-1.63c-0.29,0.51-0.72,0.94-1.29,1.27c-0.57,0.34-1.24,0.5-1.99,0.5
		c-0.78,0-1.48-0.19-2.11-0.58c-0.63-0.38-1.13-0.92-1.49-1.62c-0.36-0.69-0.54-1.48-0.54-2.37
		C336.89,217.64,337.07,216.85,337.43,216.17z M343.91,216.82c-0.27-0.49-0.63-0.87-1.08-1.13s-0.95-0.39-1.5-0.39
		s-1.04,0.13-1.49,0.38c-0.45,0.26-0.81,0.63-1.07,1.12c-0.27,0.49-0.4,1.07-0.4,1.73c0,0.67,0.13,1.26,0.4,1.75
		s0.62,0.88,1.07,1.14c0.45,0.26,0.94,0.39,1.49,0.39s1.04-0.13,1.5-0.39c0.45-0.26,0.81-0.64,1.08-1.14s0.4-1.07,0.4-1.74
		C344.31,217.89,344.18,217.31,343.91,216.82z"/>
	<path d="M355.11,214.99c0.66,0.65,0.99,1.58,0.99,2.79v5.17h-1.44v-4.96c0-0.88-0.22-1.54-0.66-2.01s-1.04-0.7-1.79-0.7
		c-0.77,0-1.38,0.24-1.83,0.72c-0.45,0.48-0.68,1.18-0.68,2.1v4.85h-1.46v-8.77h1.46v1.25c0.29-0.45,0.68-0.79,1.18-1.04
		c0.5-0.25,1.04-0.37,1.64-0.37C353.58,214.02,354.45,214.34,355.11,214.99z"/>
	<path d="M358.49,216.17c0.36-0.68,0.86-1.2,1.5-1.58c0.63-0.37,1.35-0.56,2.14-0.56c0.68,0,1.32,0.16,1.9,0.47
		c0.59,0.32,1.04,0.73,1.34,1.24v-4.64h1.47v11.84h-1.47v-1.65c-0.29,0.52-0.71,0.95-1.28,1.29s-1.23,0.5-1.98,0.5
		c-0.78,0-1.49-0.19-2.12-0.58c-0.63-0.38-1.13-0.92-1.5-1.62c-0.36-0.69-0.54-1.48-0.54-2.37
		C357.94,217.64,358.12,216.85,358.49,216.17z M364.96,216.82c-0.27-0.49-0.63-0.87-1.08-1.13s-0.95-0.39-1.5-0.39
		s-1.04,0.13-1.49,0.38c-0.45,0.26-0.81,0.63-1.07,1.12c-0.27,0.49-0.4,1.07-0.4,1.73c0,0.67,0.13,1.26,0.4,1.75
		s0.62,0.88,1.07,1.14c0.45,0.26,0.94,0.39,1.49,0.39s1.04-0.13,1.5-0.39c0.45-0.26,0.81-0.64,1.08-1.14s0.4-1.07,0.4-1.74
		C365.37,217.89,365.23,217.31,364.96,216.82z"/>
	<path d="M370.89,222.53c-0.67-0.37-1.19-0.9-1.57-1.59c-0.38-0.69-0.57-1.49-0.57-2.39c0-0.9,0.19-1.69,0.58-2.38
		c0.39-0.69,0.92-1.22,1.59-1.58c0.67-0.37,1.42-0.55,2.26-0.55s1.58,0.18,2.26,0.55c0.67,0.37,1.2,0.89,1.59,1.58
		s0.58,1.48,0.58,2.38c0,0.91-0.2,1.7-0.6,2.39c-0.4,0.69-0.94,1.22-1.62,1.59s-1.44,0.56-2.27,0.56
		C372.3,223.09,371.56,222.91,370.89,222.53z M374.6,221.45c0.46-0.25,0.83-0.61,1.11-1.1c0.28-0.49,0.42-1.09,0.42-1.79
		c0-0.7-0.14-1.3-0.42-1.79c-0.28-0.49-0.64-0.86-1.09-1.1c-0.45-0.24-0.93-0.36-1.46-0.36c-0.53,0-1.02,0.12-1.46,0.36
		s-0.8,0.61-1.06,1.1c-0.27,0.49-0.4,1.09-0.4,1.79c0,0.71,0.13,1.32,0.39,1.81c0.26,0.49,0.61,0.86,1.05,1.1s0.92,0.36,1.44,0.36
		S374.14,221.69,374.6,221.45z"/>
	<path d="M90.97,240.17c0.36-0.68,0.87-1.2,1.51-1.58c0.65-0.37,1.38-0.56,2.22-0.56c1.08,0,1.96,0.26,2.66,0.78
		c0.7,0.52,1.16,1.25,1.38,2.18h-1.57c-0.15-0.53-0.44-0.95-0.87-1.26c-0.43-0.31-0.97-0.46-1.61-0.46c-0.83,0-1.5,0.29-2.02,0.86
		c-0.51,0.57-0.77,1.38-0.77,2.42c0,1.06,0.26,1.87,0.77,2.45c0.51,0.58,1.18,0.86,2.02,0.86c0.64,0,1.17-0.15,1.6-0.45
		s0.72-0.73,0.88-1.28h1.57c-0.23,0.9-0.7,1.61-1.41,2.15c-0.7,0.54-1.58,0.81-2.64,0.81c-0.83,0-1.57-0.19-2.22-0.56
		s-1.15-0.9-1.51-1.58c-0.36-0.68-0.54-1.48-0.54-2.4C90.43,241.64,90.61,240.85,90.97,240.17z"/>
	<path d="M100.68,240.17c0.36-0.68,0.86-1.2,1.5-1.58c0.63-0.37,1.34-0.56,2.12-0.56c0.77,0,1.43,0.17,2,0.5
		c0.57,0.33,0.99,0.75,1.26,1.25v-1.6h1.47v8.77h-1.47v-1.63c-0.29,0.51-0.72,0.94-1.29,1.27c-0.57,0.34-1.24,0.5-1.99,0.5
		c-0.78,0-1.48-0.19-2.11-0.58c-0.63-0.38-1.13-0.92-1.49-1.62c-0.36-0.69-0.54-1.48-0.54-2.37
		C100.14,241.64,100.32,240.85,100.68,240.17z M107.16,240.82c-0.27-0.49-0.63-0.87-1.08-1.13s-0.95-0.39-1.5-0.39
		s-1.04,0.13-1.49,0.38c-0.45,0.26-0.81,0.63-1.07,1.12c-0.27,0.49-0.4,1.07-0.4,1.73c0,0.67,0.13,1.26,0.4,1.75
		s0.62,0.88,1.07,1.14c0.45,0.26,0.94,0.39,1.49,0.39s1.04-0.13,1.5-0.39c0.45-0.26,0.81-0.64,1.08-1.14s0.4-1.07,0.4-1.74
		C107.56,241.89,107.43,241.31,107.16,240.82z"/>
	<path d="M123.86,238.45c0.53,0.28,0.96,0.71,1.26,1.27c0.31,0.57,0.46,1.25,0.46,2.06v5.17h-1.44v-4.96c0-0.88-0.22-1.54-0.65-2.01
		c-0.43-0.46-1.02-0.7-1.75-0.7c-0.76,0-1.36,0.24-1.81,0.73c-0.45,0.49-0.67,1.19-0.67,2.1v4.83h-1.44v-4.96
		c0-0.88-0.22-1.54-0.65-2.01s-1.02-0.7-1.75-0.7c-0.76,0-1.36,0.24-1.81,0.73c-0.45,0.49-0.67,1.19-0.67,2.1v4.83h-1.46v-8.77h1.46
		v1.26c0.29-0.46,0.67-0.81,1.16-1.06c0.49-0.25,1.02-0.37,1.61-0.37c0.74,0,1.39,0.17,1.95,0.5c0.57,0.33,0.99,0.82,1.26,1.46
		c0.25-0.62,0.65-1.1,1.22-1.44c0.57-0.34,1.19-0.51,1.89-0.51C122.72,238.02,123.33,238.16,123.86,238.45z"/>
	<path d="M130.75,238.53c0.58-0.33,1.23-0.5,1.97-0.5c0.79,0,1.5,0.19,2.13,0.56c0.63,0.37,1.13,0.9,1.49,1.58
		c0.36,0.68,0.54,1.46,0.54,2.36c0,0.89-0.18,1.67-0.54,2.37s-0.86,1.23-1.5,1.62c-0.63,0.38-1.34,0.58-2.12,0.58
		c-0.76,0-1.42-0.17-1.99-0.5c-0.57-0.33-1-0.75-1.29-1.26v1.62h-1.46v-11.84h1.46v4.7C129.73,239.29,130.17,238.87,130.75,238.53z
		 M134.99,240.81c-0.27-0.49-0.63-0.86-1.08-1.12c-0.45-0.26-0.95-0.38-1.5-0.38c-0.53,0-1.03,0.13-1.48,0.39
		c-0.45,0.26-0.82,0.64-1.09,1.14c-0.27,0.5-0.41,1.07-0.41,1.72c0,0.66,0.14,1.24,0.41,1.74c0.27,0.5,0.63,0.88,1.09,1.14
		c0.45,0.26,0.95,0.39,1.48,0.39c0.54,0,1.04-0.13,1.5-0.39c0.45-0.26,0.81-0.64,1.08-1.14s0.4-1.08,0.4-1.75
		C135.38,241.87,135.25,241.3,134.99,240.81z"/>
	<path d="M138.84,236.47c-0.19-0.19-0.29-0.43-0.29-0.7s0.1-0.51,0.29-0.7c0.19-0.19,0.43-0.29,0.7-0.29c0.27,0,0.49,0.1,0.68,0.29
		c0.19,0.19,0.28,0.43,0.28,0.7s-0.09,0.51-0.28,0.7c-0.19,0.19-0.41,0.29-0.68,0.29C139.27,236.76,139.03,236.66,138.84,236.47z
		 M140.25,238.18v8.77h-1.46v-8.77H140.25z"/>
	<path d="M144.32,246.53c-0.67-0.37-1.19-0.9-1.57-1.59c-0.38-0.69-0.57-1.49-0.57-2.39c0-0.9,0.19-1.69,0.58-2.38
		c0.39-0.69,0.92-1.22,1.59-1.58c0.67-0.37,1.42-0.55,2.26-0.55s1.58,0.18,2.26,0.55c0.67,0.37,1.2,0.89,1.59,1.58
		s0.58,1.48,0.58,2.38c0,0.91-0.2,1.7-0.6,2.39c-0.4,0.69-0.94,1.22-1.62,1.59s-1.44,0.56-2.27,0.56
		C145.73,247.09,144.99,246.91,144.32,246.53z M148.03,245.45c0.46-0.25,0.83-0.61,1.11-1.1c0.28-0.49,0.42-1.09,0.42-1.79
		c0-0.7-0.14-1.3-0.42-1.79c-0.28-0.49-0.64-0.86-1.09-1.1c-0.45-0.24-0.93-0.36-1.46-0.36c-0.53,0-1.02,0.12-1.46,0.36
		s-0.8,0.61-1.06,1.1c-0.27,0.49-0.4,1.09-0.4,1.79c0,0.71,0.13,1.32,0.39,1.81c0.26,0.49,0.61,0.86,1.05,1.1s0.92,0.36,1.44,0.36
		S147.57,245.69,148.03,245.45z"/>
	<path d="M154.27,246.75c-0.53-0.23-0.96-0.55-1.26-0.96c-0.31-0.41-0.48-0.88-0.51-1.42h1.5c0.04,0.44,0.25,0.79,0.62,1.07
		s0.85,0.42,1.45,0.42c0.55,0,0.99-0.12,1.31-0.37s0.48-0.55,0.48-0.93c0-0.38-0.17-0.67-0.51-0.86c-0.34-0.19-0.87-0.37-1.58-0.55
		c-0.65-0.17-1.18-0.34-1.59-0.52c-0.41-0.18-0.76-0.44-1.06-0.78c-0.29-0.35-0.44-0.8-0.44-1.37c0-0.45,0.13-0.86,0.4-1.23
		c0.27-0.37,0.65-0.67,1.14-0.89s1.05-0.33,1.68-0.33c0.97,0,1.75,0.25,2.35,0.74c0.6,0.49,0.92,1.16,0.96,2.02h-1.46
		c-0.03-0.46-0.22-0.83-0.55-1.1s-0.79-0.42-1.35-0.42c-0.52,0-0.94,0.11-1.25,0.34c-0.31,0.22-0.46,0.52-0.46,0.88
		c0,0.29,0.09,0.53,0.28,0.71s0.42,0.34,0.7,0.45c0.28,0.11,0.67,0.24,1.18,0.38c0.63,0.17,1.14,0.34,1.54,0.5s0.73,0.41,1.02,0.74
		c0.28,0.33,0.43,0.76,0.44,1.3c0,0.48-0.13,0.91-0.4,1.3s-0.64,0.69-1.13,0.9c-0.49,0.22-1.04,0.33-1.67,0.33
		C155.4,247.09,154.8,246.98,154.27,246.75z"/>
	<path d="M165.59,240.17c0.36-0.68,0.86-1.2,1.5-1.58c0.63-0.37,1.34-0.56,2.12-0.56c0.77,0,1.43,0.17,2,0.5
		c0.57,0.33,0.99,0.75,1.26,1.25v-1.6h1.47v8.77h-1.47v-1.63c-0.29,0.51-0.72,0.94-1.29,1.27c-0.57,0.34-1.24,0.5-1.99,0.5
		c-0.78,0-1.48-0.19-2.11-0.58c-0.63-0.38-1.13-0.92-1.49-1.62c-0.36-0.69-0.54-1.48-0.54-2.37
		C165.05,241.64,165.23,240.85,165.59,240.17z M172.07,240.82c-0.27-0.49-0.63-0.87-1.08-1.13s-0.95-0.39-1.5-0.39
		s-1.04,0.13-1.49,0.38c-0.45,0.26-0.81,0.63-1.07,1.12c-0.27,0.49-0.4,1.07-0.4,1.73c0,0.67,0.13,1.26,0.4,1.75
		s0.62,0.88,1.07,1.14c0.45,0.26,0.94,0.39,1.49,0.39s1.04-0.13,1.5-0.39c0.45-0.26,0.81-0.64,1.08-1.14s0.4-1.07,0.4-1.74
		C172.47,241.89,172.34,241.31,172.07,240.82z"/>
	<path d="M177.71,246.75c-0.53-0.23-0.96-0.55-1.26-0.96c-0.31-0.41-0.48-0.88-0.51-1.42h1.5c0.04,0.44,0.25,0.79,0.62,1.07
		s0.85,0.42,1.45,0.42c0.55,0,0.99-0.12,1.31-0.37s0.48-0.55,0.48-0.93c0-0.38-0.17-0.67-0.51-0.86c-0.34-0.19-0.87-0.37-1.58-0.55
		c-0.65-0.17-1.18-0.34-1.59-0.52c-0.41-0.18-0.76-0.44-1.06-0.78c-0.29-0.35-0.44-0.8-0.44-1.37c0-0.45,0.13-0.86,0.4-1.23
		c0.27-0.37,0.65-0.67,1.14-0.89s1.05-0.33,1.68-0.33c0.97,0,1.75,0.25,2.35,0.74c0.6,0.49,0.92,1.16,0.96,2.02h-1.46
		c-0.03-0.46-0.22-0.83-0.55-1.1s-0.79-0.42-1.35-0.42c-0.52,0-0.94,0.11-1.25,0.34c-0.31,0.22-0.46,0.52-0.46,0.88
		c0,0.29,0.09,0.53,0.28,0.71s0.42,0.34,0.7,0.45c0.28,0.11,0.67,0.24,1.18,0.38c0.63,0.17,1.14,0.34,1.54,0.5s0.73,0.41,1.02,0.74
		c0.28,0.33,0.43,0.76,0.44,1.3c0,0.48-0.13,0.91-0.4,1.3s-0.64,0.69-1.13,0.9c-0.49,0.22-1.04,0.33-1.67,0.33
		C178.84,247.09,178.24,246.98,177.71,246.75z"/>
	<path d="M186.35,246.53c-0.67-0.37-1.19-0.9-1.57-1.59c-0.38-0.69-0.57-1.49-0.57-2.39c0-0.9,0.19-1.69,0.58-2.38
		c0.39-0.69,0.92-1.22,1.59-1.58c0.67-0.37,1.42-0.55,2.26-0.55s1.58,0.18,2.26,0.55c0.67,0.37,1.2,0.89,1.59,1.58
		s0.58,1.48,0.58,2.38c0,0.91-0.2,1.7-0.6,2.39c-0.4,0.69-0.94,1.22-1.62,1.59s-1.44,0.56-2.27,0.56
		C187.76,247.09,187.02,246.91,186.35,246.53z M190.06,245.45c0.46-0.25,0.83-0.61,1.11-1.1c0.28-0.49,0.42-1.09,0.42-1.79
		c0-0.7-0.14-1.3-0.42-1.79c-0.28-0.49-0.64-0.86-1.09-1.1c-0.45-0.24-0.93-0.36-1.46-0.36c-0.53,0-1.02,0.12-1.46,0.36
		s-0.8,0.61-1.06,1.1c-0.27,0.49-0.4,1.09-0.4,1.79c0,0.71,0.13,1.32,0.39,1.81c0.26,0.49,0.61,0.86,1.05,1.1s0.92,0.36,1.44,0.36
		S189.6,245.69,190.06,245.45z"/>
	<path d="M195,240.17c0.36-0.68,0.87-1.2,1.51-1.58c0.65-0.37,1.38-0.56,2.22-0.56c1.08,0,1.96,0.26,2.66,0.78
		c0.7,0.52,1.16,1.25,1.38,2.18h-1.57c-0.15-0.53-0.44-0.95-0.87-1.26c-0.43-0.31-0.97-0.46-1.61-0.46c-0.83,0-1.5,0.29-2.02,0.86
		c-0.51,0.57-0.77,1.38-0.77,2.42c0,1.06,0.26,1.87,0.77,2.45c0.51,0.58,1.18,0.86,2.02,0.86c0.64,0,1.17-0.15,1.6-0.45
		s0.72-0.73,0.88-1.28h1.57c-0.23,0.9-0.7,1.61-1.41,2.15c-0.7,0.54-1.58,0.81-2.64,0.81c-0.83,0-1.57-0.19-2.22-0.56
		s-1.15-0.9-1.51-1.58c-0.36-0.68-0.54-1.48-0.54-2.4C194.46,241.64,194.64,240.85,195,240.17z"/>
	<path d="M204.76,236.47c-0.19-0.19-0.29-0.43-0.29-0.7s0.1-0.51,0.29-0.7c0.19-0.19,0.43-0.29,0.7-0.29c0.27,0,0.49,0.1,0.68,0.29
		c0.19,0.19,0.28,0.43,0.28,0.7s-0.09,0.51-0.28,0.7c-0.19,0.19-0.41,0.29-0.68,0.29C205.19,236.76,204.95,236.66,204.76,236.47z
		 M206.17,238.18v8.77h-1.46v-8.77H206.17z"/>
	<path d="M208.65,240.17c0.36-0.68,0.86-1.2,1.5-1.58c0.63-0.37,1.34-0.56,2.12-0.56c0.77,0,1.43,0.17,2,0.5
		c0.57,0.33,0.99,0.75,1.26,1.25v-1.6H217v8.77h-1.47v-1.63c-0.29,0.51-0.72,0.94-1.29,1.27c-0.57,0.34-1.24,0.5-1.99,0.5
		c-0.78,0-1.48-0.19-2.11-0.58c-0.63-0.38-1.13-0.92-1.49-1.62c-0.36-0.69-0.54-1.48-0.54-2.37
		C208.1,241.64,208.29,240.85,208.65,240.17z M215.13,240.82c-0.27-0.49-0.63-0.87-1.08-1.13s-0.95-0.39-1.5-0.39
		s-1.04,0.13-1.49,0.38c-0.45,0.26-0.81,0.63-1.07,1.12c-0.27,0.49-0.4,1.07-0.4,1.73c0,0.67,0.13,1.26,0.4,1.75
		s0.62,0.88,1.07,1.14c0.45,0.26,0.94,0.39,1.49,0.39s1.04-0.13,1.5-0.39c0.45-0.26,0.81-0.64,1.08-1.14s0.4-1.07,0.4-1.74
		C215.53,241.89,215.39,241.31,215.13,240.82z"/>
	<path d="M219.46,240.17c0.36-0.68,0.86-1.2,1.5-1.58c0.63-0.37,1.35-0.56,2.14-0.56c0.68,0,1.32,0.16,1.9,0.47
		c0.59,0.32,1.04,0.73,1.34,1.24v-4.64h1.47v11.84h-1.47v-1.65c-0.29,0.52-0.71,0.95-1.28,1.29s-1.23,0.5-1.98,0.5
		c-0.78,0-1.49-0.19-2.12-0.58c-0.63-0.38-1.13-0.92-1.5-1.62c-0.36-0.69-0.54-1.48-0.54-2.37
		C218.92,241.64,219.1,240.85,219.46,240.17z M225.94,240.82c-0.27-0.49-0.63-0.87-1.08-1.13s-0.95-0.39-1.5-0.39
		s-1.04,0.13-1.49,0.38c-0.45,0.26-0.81,0.63-1.07,1.12c-0.27,0.49-0.4,1.07-0.4,1.73c0,0.67,0.13,1.26,0.4,1.75
		s0.62,0.88,1.07,1.14c0.45,0.26,0.94,0.39,1.49,0.39s1.04-0.13,1.5-0.39c0.45-0.26,0.81-0.64,1.08-1.14s0.4-1.07,0.4-1.74
		C226.34,241.89,226.21,241.31,225.94,240.82z"/>
	<path d="M231.87,246.53c-0.67-0.37-1.19-0.9-1.57-1.59c-0.38-0.69-0.57-1.49-0.57-2.39c0-0.9,0.19-1.69,0.58-2.38
		c0.39-0.69,0.92-1.22,1.59-1.58c0.67-0.37,1.42-0.55,2.26-0.55s1.58,0.18,2.26,0.55c0.67,0.37,1.2,0.89,1.59,1.58
		s0.58,1.48,0.58,2.38c0,0.91-0.2,1.7-0.6,2.39c-0.4,0.69-0.94,1.22-1.62,1.59s-1.44,0.56-2.27,0.56
		C233.28,247.09,232.54,246.91,231.87,246.53z M235.58,245.45c0.46-0.25,0.83-0.61,1.11-1.1c0.28-0.49,0.42-1.09,0.42-1.79
		c0-0.7-0.14-1.3-0.42-1.79c-0.28-0.49-0.64-0.86-1.09-1.1c-0.45-0.24-0.93-0.36-1.46-0.36c-0.53,0-1.02,0.12-1.46,0.36
		s-0.8,0.61-1.06,1.1c-0.27,0.49-0.4,1.09-0.4,1.79c0,0.71,0.13,1.32,0.39,1.81c0.26,0.49,0.61,0.86,1.05,1.1s0.92,0.36,1.44,0.36
		S235.12,245.69,235.58,245.45z"/>
	<path d="M241.82,246.75c-0.53-0.23-0.96-0.55-1.26-0.96c-0.31-0.41-0.48-0.88-0.51-1.42h1.5c0.04,0.44,0.25,0.79,0.62,1.07
		s0.85,0.42,1.45,0.42c0.55,0,0.99-0.12,1.31-0.37s0.48-0.55,0.48-0.93c0-0.38-0.17-0.67-0.51-0.86c-0.34-0.19-0.87-0.37-1.58-0.55
		c-0.65-0.17-1.18-0.34-1.59-0.52c-0.41-0.18-0.76-0.44-1.06-0.78c-0.29-0.35-0.44-0.8-0.44-1.37c0-0.45,0.13-0.86,0.4-1.23
		c0.27-0.37,0.65-0.67,1.14-0.89s1.05-0.33,1.68-0.33c0.97,0,1.75,0.25,2.35,0.74c0.6,0.49,0.92,1.16,0.96,2.02h-1.46
		c-0.03-0.46-0.22-0.83-0.55-1.1s-0.79-0.42-1.35-0.42c-0.52,0-0.94,0.11-1.25,0.34c-0.31,0.22-0.46,0.52-0.46,0.88
		c0,0.29,0.09,0.53,0.28,0.71s0.42,0.34,0.7,0.45c0.28,0.11,0.67,0.24,1.18,0.38c0.63,0.17,1.14,0.34,1.54,0.5s0.73,0.41,1.02,0.74
		c0.28,0.33,0.43,0.76,0.44,1.3c0,0.48-0.13,0.91-0.4,1.3s-0.64,0.69-1.13,0.9c-0.49,0.22-1.04,0.33-1.67,0.33
		C242.95,247.09,242.35,246.98,241.82,246.75z"/>
	<path d="M253.14,240.17c0.36-0.68,0.86-1.2,1.5-1.58c0.63-0.37,1.34-0.56,2.12-0.56c0.77,0,1.43,0.17,2,0.5
		c0.57,0.33,0.99,0.75,1.26,1.25v-1.6h1.47v8.77h-1.47v-1.63c-0.29,0.51-0.72,0.94-1.29,1.27c-0.57,0.34-1.24,0.5-1.99,0.5
		c-0.78,0-1.48-0.19-2.11-0.58c-0.63-0.38-1.13-0.92-1.49-1.62c-0.36-0.69-0.54-1.48-0.54-2.37
		C252.6,241.64,252.78,240.85,253.14,240.17z M259.62,240.82c-0.27-0.49-0.63-0.87-1.08-1.13s-0.95-0.39-1.5-0.39
		s-1.04,0.13-1.49,0.38c-0.45,0.26-0.81,0.63-1.07,1.12c-0.27,0.49-0.4,1.07-0.4,1.73c0,0.67,0.13,1.26,0.4,1.75
		s0.62,0.88,1.07,1.14c0.45,0.26,0.94,0.39,1.49,0.39s1.04-0.13,1.5-0.39c0.45-0.26,0.81-0.64,1.08-1.14s0.4-1.07,0.4-1.74
		C260.02,241.89,259.89,241.31,259.62,240.82z"/>
	<path d="M265.42,235.11v11.84h-1.46v-11.84H265.42z"/>
	<path d="M281.38,235.8l-4.21,11.15h-1.68l-4.21-11.15h1.55l3.5,9.62l3.5-9.62H281.38z"/>
	<path d="M289.49,241.37c-0.63,0.61-1.6,0.92-2.9,0.92h-2.14v4.66h-1.46V235.8h3.6c1.26,0,2.22,0.3,2.87,0.91
		c0.66,0.61,0.98,1.39,0.98,2.35C290.44,239.99,290.12,240.76,289.49,241.37z M288.38,240.57c0.38-0.35,0.58-0.85,0.58-1.5
		c0-1.38-0.79-2.06-2.37-2.06h-2.14v4.1h2.14C287.39,241.09,287.99,240.92,288.38,240.57z"/>
	<path d="M300.84,235.8v11.15h-1.46v-5.06h-5.68v5.06h-1.46V235.8h1.46v4.9h5.68v-4.9H300.84z"/>
	<path d="M315.14,238.18l-5.28,12.9h-1.5l1.73-4.22l-3.54-8.67h1.62l2.75,7.1l2.72-7.1H315.14z"/>
	<path d="M322.46,246.53c-0.67-0.37-1.19-0.9-1.57-1.59c-0.38-0.69-0.57-1.49-0.57-2.39c0-0.9,0.19-1.69,0.58-2.38
		c0.39-0.69,0.92-1.22,1.59-1.58c0.67-0.37,1.42-0.55,2.26-0.55s1.58,0.18,2.26,0.55c0.67,0.37,1.2,0.89,1.59,1.58
		s0.58,1.48,0.58,2.38c0,0.91-0.2,1.7-0.6,2.39c-0.4,0.69-0.94,1.22-1.62,1.59s-1.44,0.56-2.27,0.56
		C323.87,247.09,323.13,246.91,322.46,246.53z M326.17,245.45c0.46-0.25,0.83-0.61,1.11-1.1c0.28-0.49,0.42-1.09,0.42-1.79
		c0-0.7-0.14-1.3-0.42-1.79c-0.28-0.49-0.64-0.86-1.09-1.1c-0.45-0.24-0.93-0.36-1.46-0.36c-0.53,0-1.02,0.12-1.46,0.36
		s-0.8,0.61-1.06,1.1c-0.27,0.49-0.4,1.09-0.4,1.79c0,0.71,0.13,1.32,0.39,1.81c0.26,0.49,0.61,0.86,1.05,1.1s0.92,0.36,1.44,0.36
		S325.71,245.69,326.17,245.45z"/>
	<path d="M332.89,239.38v5.17c0,0.43,0.09,0.73,0.27,0.9c0.18,0.18,0.5,0.26,0.94,0.26h1.07v1.23h-1.31c-0.81,0-1.42-0.19-1.82-0.56
		c-0.41-0.37-0.61-0.99-0.61-1.84v-5.17h-1.14v-1.2h1.14v-2.21h1.46v2.21h2.29v1.2H332.89z"/>
	<path d="M339.49,238.44c0.47-0.28,1.05-0.42,1.74-0.42v1.5h-0.38c-1.63,0-2.45,0.89-2.45,2.66v4.77h-1.46v-8.77h1.46v1.42
		C338.65,239.1,339.01,238.72,339.49,238.44z"/>
	<path d="M344.49,246.53c-0.67-0.37-1.19-0.9-1.57-1.59c-0.38-0.69-0.57-1.49-0.57-2.39c0-0.9,0.19-1.69,0.58-2.38
		c0.39-0.69,0.92-1.22,1.59-1.58c0.67-0.37,1.42-0.55,2.26-0.55s1.58,0.18,2.26,0.55c0.67,0.37,1.2,0.89,1.59,1.58
		s0.58,1.48,0.58,2.38c0,0.91-0.2,1.7-0.6,2.39c-0.4,0.69-0.94,1.22-1.62,1.59s-1.44,0.56-2.27,0.56
		C345.9,247.09,345.16,246.91,344.49,246.53z M348.2,245.45c0.46-0.25,0.83-0.61,1.11-1.1c0.28-0.49,0.42-1.09,0.42-1.79
		c0-0.7-0.14-1.3-0.42-1.79c-0.28-0.49-0.64-0.86-1.09-1.1c-0.45-0.24-0.93-0.36-1.46-0.36c-0.53,0-1.02,0.12-1.46,0.36
		s-0.8,0.61-1.06,1.1c-0.27,0.49-0.4,1.09-0.4,1.79c0,0.71,0.13,1.32,0.39,1.81c0.26,0.49,0.61,0.86,1.05,1.1s0.92,0.36,1.44,0.36
		S347.74,245.69,348.2,245.45z"/>
	<path d="M354.44,246.75c-0.53-0.23-0.96-0.55-1.26-0.96c-0.31-0.41-0.48-0.88-0.51-1.42h1.5c0.04,0.44,0.25,0.79,0.62,1.07
		s0.85,0.42,1.45,0.42c0.55,0,0.99-0.12,1.31-0.37s0.48-0.55,0.48-0.93c0-0.38-0.17-0.67-0.51-0.86c-0.34-0.19-0.87-0.37-1.58-0.55
		c-0.65-0.17-1.18-0.34-1.59-0.52c-0.41-0.18-0.76-0.44-1.06-0.78c-0.29-0.35-0.44-0.8-0.44-1.37c0-0.45,0.13-0.86,0.4-1.23
		c0.27-0.37,0.65-0.67,1.14-0.89s1.05-0.33,1.68-0.33c0.97,0,1.75,0.25,2.35,0.74c0.6,0.49,0.92,1.16,0.96,2.02h-1.46
		c-0.03-0.46-0.22-0.83-0.55-1.1s-0.79-0.42-1.35-0.42c-0.52,0-0.94,0.11-1.25,0.34c-0.31,0.22-0.46,0.52-0.46,0.88
		c0,0.29,0.09,0.53,0.28,0.71s0.42,0.34,0.7,0.45c0.28,0.11,0.67,0.24,1.18,0.38c0.63,0.17,1.14,0.34,1.54,0.5s0.73,0.41,1.02,0.74
		c0.28,0.33,0.43,0.76,0.44,1.3c0,0.48-0.13,0.91-0.4,1.3s-0.64,0.69-1.13,0.9c-0.49,0.22-1.04,0.33-1.67,0.33
		C355.57,247.09,354.97,246.98,354.44,246.75z"/>
</g>
<g>
	<circle class="st5" cx="225" cy="69.25" r="37.5"/>
	<g>
		<defs>
			<path id="SVGID_1_" d="M224.82,31.75c-11.83,0-22.38,5.49-29.25,14.05h-15.83v37.5h10.31c5.56,13.75,19.03,23.45,34.77,23.45
				c20.71,0,37.5-16.79,37.5-37.5h7.94l-0.11-37.5H224.82z"/>
		</defs>
		<clipPath id="SVGID_2_">
			<use xlink:href="#SVGID_1_"  style="overflow:visible;"/>
		</clipPath>
		<g class="st6">
			<path class="st7" d="M233.61,47.94h-46.26c-0.22,0-0.42,0.07-0.58,0.18c-0.11,0.08-0.21,0.17-0.28,0.28
				c-0.05,0.07-0.09,0.15-0.12,0.24c-0.04,0.11-0.06,0.22-0.06,0.35v31.13c0,0.1,0.02,0.19,0.04,0.29c0.04,0.14,0.1,0.26,0.19,0.37
				c0.04,0.05,0.09,0.1,0.14,0.14c0.18,0.15,0.41,0.25,0.67,0.25h62.18c1.18,0,2.29-0.37,3.22-1.02L233.61,47.94z"/>
			<path class="st8" d="M216.43,82.73c0,0-2.15,17.74,0.54,24.02h-13.62c0,0,0.27-20.07,3.67-26.43L216.43,82.73z"/>
			<path class="st8" d="M254.74,77.6l15.09-38.49c0.27-0.69-0.24-1.43-0.97-1.43h-29.03c-0.38,0-0.73,0.21-0.92,0.54l-5.3,9.71
				l19.13,32.2C253.63,79.52,254.33,78.65,254.74,77.6z"/>
			<circle class="st9" cx="243.21" cy="64.55" r="6.38"/>
			<circle class="st8" cx="243.21" cy="64.55" r="2.36"/>
			<g>
				<circle class="st8" cx="204.5" cy="64.55" r="3.36"/>
				<circle class="st8" cx="218.64" cy="64.55" r="3.36"/>
			</g>
			<circle class="st9" cx="211.57" cy="81.16" r="6.38"/>
			<circle class="st8" cx="211.57" cy="81.16" r="2.36"/>
			<path class="st10" d="M250.01,37.68V32.8c0-0.58,0.47-1.05,1.05-1.05h16.3c0.58,0,1.05,0.47,1.05,1.05v4.89"/>
			<path class="st10" d="M180.78,71.61h2.11V57.49h-2.11c-0.58,0-1.05,0.47-1.05,1.05v12.03C179.74,71.14,180.21,71.61,180.78,71.61
				z"/>
			<path class="st9" d="M186.3,78.15h-2.36c-0.58,0-1.05-0.47-1.05-1.05V51.99c0-0.58,0.47-1.05,1.05-1.05h2.36V78.15z"/>
		</g>
	</g>
</g>
</svg>
