<?xml version="1.0" encoding="utf-8"?>
<!-- Generator: Adobe Illustrator 24.1.1, SVG Export Plug-In . SVG Version: 6.00 Build 0)  -->
<svg version="1.1" id="Capa_1" xmlns="http://www.w3.org/2000/svg" xmlns:xlink="http://www.w3.org/1999/xlink" x="0px" y="0px"
	 viewBox="0 0 103.92 67.57" style="enable-background:new 0 0 103.92 67.57;" xml:space="preserve">
<style type="text/css">
	.st0{fill:#D9D9D9;}
	.st1{fill:#D36F62;}
	.st2{fill:#F8C5B0;}
	.st3{fill:#F7A6A9;}
	.st4{fill:#007CC3;}
	.st5{clip-path:url(#SVGID_2_);}
	.st6{fill:#F173AC;}
	.st7{fill:#F5A4C7;}
	.st8{fill:#F4C6DE;}
	.st9{fill:#BFBFBF;}
	.st10{clip-path:url(#SVGID_4_);}
	.st11{fill:#999999;}
	.st12{fill:#1A1A1A;}
	.st13{opacity:0.5;fill:#D36F62;}
	.st14{fill:none;stroke:#F4C6DE;stroke-linecap:round;stroke-linejoin:round;stroke-miterlimit:10;}
</style>
<g>
	<g>
		<path class="st1" d="M51.96,65.47c1.76,0,4,1.33,4,1.33l1.57-12.98l2.55-7.49l4.78-32.98l1.84-4.82l-14.75,3.29V65.47z"/>
		<path class="st1" d="M51.96,65.47c-1.76,0-4,1.33-4,1.33l-1.57-12.98l-2.55-7.49l-4.78-32.98l-1.84-4.82l14.75,3.29V65.47z"/>
	</g>
	<path class="st2" d="M90.71,15.35c0,0-5.81,3.68-5.61,9.22c0.2,5.53,6.39,5.63,10.4,0.86s3.55-8.83,3.55-8.83l-4.11-3.96
		L90.71,15.35z"/>
	<path class="st2" d="M13.21,15.35c0,0,5.81,3.68,5.61,9.22s-6.39,5.63-10.4,0.86s-3.55-8.83-3.55-8.83l4.11-3.96L13.21,15.35z"/>
	<path class="st3" d="M100.63,6.49c-3.1-6.29-8.37-7.36-15.23-5.94c-6.85,1.42-6.9,6.95-15.94,4.67C57.9,2.3,60.28,1.67,51.96,1.67
		V13.6c7.01,0,11.93-1.93,11.93-1.93s-11.01,5.99-11.01,17.21c0,6.64,0.39,12.28,0,15.42c-0.39,3.14,1.43,4.76,2.98,4.76
		c0,0,0,0,0,0c1.54,0,1.7-1.31,2.8-1.2c1.1,0.1-0.21,1.52-1.73,4.08c-0.13,0.21-0.24,0.51-0.34,0.85
		c-0.98,3.32-0.95,12.07-0.92,14.27c0,0.28,0.23,0.51,0.52,0.51c0.27,0,0.5-0.21,0.52-0.48c0.12-1.71,0.6-7.62,1.53-11.64
		c0.07-0.29,0.14-0.58,0.21-0.85c1.26-4.65,2.12-6.93,4.81-15.85c0.01-0.03,0.02-0.06,0.03-0.1c0.07-0.27,0.15-0.53,0.22-0.79
		c2.53-8.98,5.01-14.35,5.06-21.11c0,0,6.65-2.59,10.61-6.55c3.96-3.96,6.85-6.24,11.52-5.28s5.38,4.67-0.61,9.59
		c0,0,0.86,2.13,3.35,0.96c0,0,0.51,3.91,4.21,2.79c0,0-0.96,2.84,2.28,3.45C99.92,21.72,103.73,12.79,100.63,6.49z"/>
	<path class="st3" d="M3.28,6.49c3.1-6.29,8.37-7.36,15.23-5.94c6.85,1.42,6.9,6.95,15.94,4.67c11.58-2.93,9.19-3.56,17.51-3.56
		V13.6c-7.01,0-11.93-1.93-11.93-1.93s11.01,5.99,11.01,17.21c0,6.64-0.39,12.28,0,15.42c0.39,3.14-1.43,4.76-2.98,4.76c0,0,0,0,0,0
		c-1.54,0-1.7-1.31-2.8-1.2c-1.1,0.1,0.21,1.52,1.73,4.08c0.13,0.21,0.24,0.51,0.34,0.85c0.98,3.32,0.95,12.07,0.92,14.27
		c0,0.28-0.23,0.51-0.52,0.51c-0.27,0-0.5-0.21-0.52-0.48c-0.12-1.71-0.6-7.62-1.53-11.64c-0.07-0.29-0.14-0.58-0.21-0.85
		c-1.26-4.65-2.12-6.93-4.81-15.85c-0.01-0.03-0.02-0.06-0.03-0.1c-0.07-0.27-0.15-0.53-0.22-0.79c-2.53-8.98-5.01-14.35-5.06-21.11
		c0,0-6.65-2.59-10.61-6.55c-3.96-3.96-6.85-6.24-11.52-5.28s-5.38,4.67,0.61,9.59c0,0-0.86,2.13-3.35,0.96c0,0-0.51,3.91-4.21,2.79
		c0,0,0.96,2.84-2.28,3.45C3.99,21.72,0.19,12.79,3.28,6.49z"/>
</g>
</svg>
