<?xml version="1.0" encoding="utf-8"?>
<!-- Generator: Adobe Illustrator 24.1.1, SVG Export Plug-In . SVG Version: 6.00 Build 0)  -->
<svg version="1.1" id="Capa_1" xmlns="http://www.w3.org/2000/svg" xmlns:xlink="http://www.w3.org/1999/xlink" x="0px" y="0px"
	 viewBox="0 0 265.3 362" style="enable-background:new 0 0 265.3 362;" xml:space="preserve">
<style type="text/css">
	.st0{fill:#FFFFFF;}
	.st1{fill:none;}
	.st2{enable-background:new    ;}
	.st3{fill:#007CC3;}
	.st4{fill:#808080;}
	.st5{fill:#F173AC;}
	.st6{fill:none;stroke:#D9D9D9;stroke-width:2;stroke-linecap:round;stroke-linejoin:round;stroke-miterlimit:10;}
	.st7{fill:#F5A4C7;}
</style>
<g>
	<rect x="0" y="0" class="st0" width="265.3" height="362"/>
	<g>
		<g>
			<rect x="17.8" y="133.9" class="st1" width="229.8" height="191.9"/>
			<g class="st2">
				<path class="st3" d="M84,151.4v-17.5h11.2v3h-8v4.2h6.4v3h-6.4v4.2h8v3H84z"/>
				<path class="st3" d="M104.3,146.5l3.1,0.3v0.2c0,2.6-1.9,4.6-4.6,4.6H102c-2.7,0-4.6-1.9-4.6-4.6v-4c0-2.6,1.9-4.6,4.6-4.6h0.8
					c2.7,0,4.6,2,4.6,4.6v0.2l-3.1,0.3v-0.6c0-0.8-0.7-1.5-1.5-1.5H102c-0.8,0-1.5,0.7-1.5,1.5v4.2c0,0.8,0.7,1.5,1.5,1.5h0.8
					c0.8,0,1.5-0.7,1.5-1.5V146.5z"/>
				<path class="st3" d="M120.1,147c0,2.6-1.9,4.6-4.6,4.6h-0.8c-2.7,0-4.6-1.9-4.6-4.6v-4c0-2.6,1.9-4.6,4.6-4.6h0.8
					c2.7,0,4.6,2,4.6,4.6V147z M117,142.9c0-0.8-0.7-1.5-1.5-1.5h-0.8c-0.8,0-1.5,0.7-1.5,1.5v4.2c0,0.8,0.7,1.5,1.5,1.5h0.8
					c0.8,0,1.5-0.7,1.5-1.5V142.9z"/>
				<path class="st3" d="M124.1,150c-0.7-0.4-1-1.2-1-2.1c0-0.9,0.3-1.6,0.9-2.1c-0.8-0.8-1.1-1.8-1.1-3v-0.1c0-2.5,1.8-4.3,4.5-4.3
					h0.4c1.3,0,2.3,0.5,3.1,1.4l0.8-1.1h1.4v4.2c0,2.5-1.8,4.3-4.4,4.3h-2.3c-0.4,0-0.7,0.3-0.7,0.7s0.3,0.7,0.7,0.7h2.4
					c2.5,0,4.1,1.7,4.1,3.9s-1.6,3.9-4.1,3.9h-1.2c-2.5,0-4.1-1.7-4.1-3.9C123.3,151.5,123.6,150.7,124.1,150z M130,142.6
					c0-0.9-0.7-1.6-1.6-1.6h-1c-0.9,0-1.6,0.8-1.6,1.6v0.3c0,0.9,0.7,1.6,1.6,1.6h1c0.9,0,1.6-0.7,1.6-1.6V142.6z M129.9,152.4
					c0-0.6-0.5-1.1-1.3-1.1h-1.2c-0.9,0-1.3,0.5-1.3,1.1v0.2c0,0.6,0.4,1.1,1.3,1.1h1.2c0.9,0,1.3-0.5,1.3-1.1V152.4z"/>
				<path class="st3" d="M137.9,140c0.8-1,1.9-1.7,3.2-1.7h1.5v3.1h-2.5c-0.9,0-1.5,0.6-1.5,1.5v8.4h-3.1v-12.7h1.4L137.9,140z"/>
				<path class="st3" d="M152,150c-0.7,1-1.9,1.6-3.4,1.6h-0.1c-2.6,0-4.1-1.5-4.1-3.6v-0.5c0-2.1,1.5-3.5,4.1-3.5h2.7v-1.3
					c0-0.7-0.7-1.3-1.5-1.3h-0.6c-0.8,0-1.5,0.6-1.5,1.3v0.5l-3.1-0.3v-0.1c0-2.5,1.9-4.4,4.6-4.4h0.6c2.7,0,4.6,1.9,4.6,4.4v8.6
					h-1.4L152,150z M147.5,147.6c0,0.7,0.5,1.2,1.3,1.2h1.2c0.7,0,1.3-0.5,1.3-1.2v-1.3h-2.4C148,146.3,147.5,146.8,147.5,147.6
					L147.5,147.6z"/>
				<path class="st3" d="M164.1,133.9v2.9h-1.7c-0.8,0-1.2,0.4-1.2,1.3v0.6h2.7v2.9h-2.7v9.8h-3.1v-9.8h-2.3v-2.9h2.3V138
					c0-2.7,1.4-4.1,4.1-4.1H164.1z"/>
				<path class="st3" d="M167.5,136.9h-2.6l2-3.3h4L167.5,136.9z M165.6,151.4v-12.7h3.1v12.7H165.6z"/>
				<path class="st3" d="M179.3,150c-0.7,1-1.9,1.6-3.4,1.6h-0.1c-2.6,0-4.1-1.5-4.1-3.6v-0.5c0-2.1,1.5-3.5,4.1-3.5h2.7v-1.3
					c0-0.7-0.7-1.3-1.5-1.3h-0.6c-0.8,0-1.5,0.6-1.5,1.3v0.5l-3.1-0.3v-0.1c0-2.5,1.9-4.4,4.6-4.4h0.6c2.7,0,4.6,1.9,4.6,4.4v8.6
					h-1.4L179.3,150z M174.8,147.6c0,0.7,0.5,1.2,1.3,1.2h1.2c0.7,0,1.3-0.5,1.3-1.2v-1.3h-2.4C175.3,146.3,174.8,146.8,174.8,147.6
					L174.8,147.6z"/>
			</g>
			<g class="st2">
				<path class="st3" d="M73,181.4c-2.7,0-4.1-1.4-4.1-4.1v-5.7h-2.2v-2.9h2.2v-3l3.1-0.5v3.5h2.9v2.9H72v5.6c0,0.8,0.4,1.3,1.2,1.3
					h1.7v3H73z"/>
				<path class="st3" d="M80,170c0.8-1,1.9-1.7,3.2-1.7h1.5v3.1h-2.5c-0.9,0-1.5,0.6-1.5,1.5v8.4h-3.1v-12.7h1.4L80,170z"/>
				<path class="st3" d="M94,180c-0.7,1-1.9,1.6-3.4,1.6h-0.1c-2.6,0-4.1-1.5-4.1-3.6v-0.5c0-2.1,1.5-3.5,4.1-3.5h2.7v-1.3
					c0-0.7-0.7-1.3-1.5-1.3h-0.6c-0.8,0-1.5,0.6-1.5,1.3v0.5l-3.1-0.3v-0.1c0-2.5,1.9-4.4,4.6-4.4h0.6c2.7,0,4.6,1.9,4.6,4.4v8.6
					h-1.4L94,180z M89.5,177.6c0,0.7,0.5,1.2,1.3,1.2h1.1c0.7,0,1.3-0.5,1.3-1.2v-1.3h-2.4C90,176.3,89.5,176.8,89.5,177.6
					L89.5,177.6z"/>
				<path class="st3" d="M101.7,170c0.8-1,1.9-1.7,3.2-1.7h0c2.8,0,4.3,1.6,4.3,4.6v8.4h-3.1v-8.5c0-0.9-0.6-1.5-1.5-1.5H104
					c-0.9,0-1.5,0.6-1.5,1.5v8.5h-3.1v-12.7h1.4L101.7,170z"/>
				<path class="st3" d="M122.1,177.8c0,2.2-1.9,3.8-4.5,3.8h-0.7c-2.7,0-4.6-1.8-4.6-4.3v-0.1l3.1-0.3v0.5c0,0.8,0.5,1.3,1.4,1.3
					h1.1c0.7,0,1.2-0.4,1.2-1c0-2.3-6.6-0.3-6.6-5.5c0-2.2,1.9-3.8,4.5-3.8h0.5c2.6,0,4.6,1.8,4.6,4.3v0.1l-3.1,0.3v-0.5
					c0-0.8-0.6-1.3-1.4-1.3h-0.8c-0.7,0-1.3,0.4-1.3,1C115.4,174.5,122.1,172.6,122.1,177.8z"/>
				<path class="st3" d="M127.3,181.4l-3.8-12.7h3.2l2.5,9.5l0.1,0.6l0-0.6l2.5-9.5h3.2l-3.8,12.7H127.3z"/>
				<path class="st3" d="M144.2,180c-0.7,1-1.9,1.6-3.4,1.6h0c-2.6,0-4.1-1.5-4.1-3.6v-0.5c0-2.1,1.5-3.5,4.1-3.5h2.7v-1.3
					c0-0.7-0.7-1.3-1.5-1.3h-0.6c-0.8,0-1.5,0.6-1.5,1.3v0.5l-3.1-0.3v-0.1c0-2.5,1.9-4.4,4.6-4.4h0.6c2.7,0,4.6,1.9,4.6,4.4v8.6
					h-1.4L144.2,180z M139.7,177.6c0,0.7,0.5,1.2,1.3,1.2h1.1c0.7,0,1.3-0.5,1.3-1.2v-1.3H141C140.2,176.3,139.7,176.8,139.7,177.6
					L139.7,177.6z"/>
				<path class="st3" d="M150.7,180c-0.7-0.4-1-1.2-1-2.1c0-0.9,0.3-1.6,0.9-2.1c-0.8-0.8-1.1-1.8-1.1-3v-0.1c0-2.5,1.8-4.3,4.5-4.3
					h0.4c1.3,0,2.3,0.5,3.1,1.4l0.8-1.1h1.4v4.2c0,2.5-1.8,4.3-4.4,4.3h-2.3c-0.4,0-0.7,0.3-0.7,0.7s0.3,0.7,0.7,0.7h2.4
					c2.5,0,4.1,1.7,4.1,3.9s-1.6,3.9-4.1,3.9H154c-2.5,0-4.1-1.7-4.1-3.9C149.9,181.5,150.1,180.7,150.7,180z M156.6,172.6
					c0-0.9-0.7-1.6-1.6-1.6h-1c-0.9,0-1.6,0.8-1.6,1.6v0.3c0,0.9,0.7,1.6,1.6,1.6h1c0.9,0,1.6-0.7,1.6-1.6V172.6z M156.5,182.4
					c0-0.6-0.5-1.1-1.3-1.1H154c-0.9,0-1.3,0.5-1.3,1.1v0.2c0,0.6,0.5,1.1,1.3,1.1h1.2c0.9,0,1.3-0.5,1.3-1.1V182.4z"/>
				<path class="st3" d="M162.2,163.9h3.1v2.6h-3.1V163.9z M162.2,181.4v-12.7h3.1v12.7H162.2z"/>
				<path class="st3" d="M170.8,170c0.8-1,1.9-1.7,3.2-1.7h0c2.8,0,4.3,1.6,4.3,4.6v8.4h-3.1v-8.5c0-0.9-0.6-1.5-1.5-1.5H173
					c-0.9,0-1.5,0.6-1.5,1.5v8.5h-3.1v-12.7h1.4L170.8,170z"/>
				<path class="st3" d="M188.9,180c-0.7,1-1.9,1.6-3.4,1.6h-0.1c-2.6,0-4.1-1.5-4.1-3.6v-0.5c0-2.1,1.5-3.5,4.1-3.5h2.7v-1.3
					c0-0.7-0.7-1.3-1.5-1.3H186c-0.8,0-1.5,0.6-1.5,1.3v0.5l-3.1-0.3v-0.1c0-2.5,1.9-4.4,4.6-4.4h0.6c2.7,0,4.6,1.9,4.6,4.4v8.6
					h-1.4L188.9,180z M184.4,177.6c0,0.7,0.5,1.2,1.3,1.2h1.2c0.7,0,1.3-0.5,1.3-1.2v-1.3h-2.4C184.9,176.3,184.4,176.8,184.4,177.6
					L184.4,177.6z"/>
				<path class="st3" d="M194.3,181.4v-17.5h3.1v17.5H194.3z"/>
			</g>
			<g class="st2">
				<path class="st4" d="M38.3,218.2l-4.2,11.2h-1.7l-4.2-11.2h1.6l3.5,9.6l3.5-9.6H38.3z"/>
				<path class="st4" d="M39.9,218.9c-0.2-0.2-0.3-0.4-0.3-0.7s0.1-0.5,0.3-0.7c0.2-0.2,0.4-0.3,0.7-0.3c0.3,0,0.5,0.1,0.7,0.3
					c0.2,0.2,0.3,0.4,0.3,0.7s-0.1,0.5-0.3,0.7c-0.2,0.2-0.4,0.3-0.7,0.3C40.3,219.2,40.1,219.1,39.9,218.9z M41.3,220.6v8.8h-1.5
					v-8.8H41.3z"/>
				<path class="st4" d="M45.1,229.2c-0.5-0.2-1-0.5-1.3-1c-0.3-0.4-0.5-0.9-0.5-1.4h1.5c0,0.4,0.2,0.8,0.6,1.1s0.9,0.4,1.4,0.4
					c0.6,0,1-0.1,1.3-0.4c0.3-0.2,0.5-0.6,0.5-0.9c0-0.4-0.2-0.7-0.5-0.9c-0.3-0.2-0.9-0.4-1.6-0.6c-0.7-0.2-1.2-0.3-1.6-0.5
					c-0.4-0.2-0.8-0.4-1.1-0.8c-0.3-0.3-0.4-0.8-0.4-1.4c0-0.4,0.1-0.9,0.4-1.2c0.3-0.4,0.6-0.7,1.1-0.9s1.1-0.3,1.7-0.3
					c1,0,1.8,0.2,2.4,0.7c0.6,0.5,0.9,1.2,1,2h-1.5c0-0.5-0.2-0.8-0.6-1.1c-0.3-0.3-0.8-0.4-1.4-0.4c-0.5,0-0.9,0.1-1.2,0.3
					c-0.3,0.2-0.5,0.5-0.5,0.9c0,0.3,0.1,0.5,0.3,0.7c0.2,0.2,0.4,0.3,0.7,0.4c0.3,0.1,0.7,0.2,1.2,0.4c0.6,0.2,1.1,0.3,1.5,0.5
					c0.4,0.2,0.7,0.4,1,0.7c0.3,0.3,0.4,0.8,0.4,1.3c0,0.5-0.1,0.9-0.4,1.3c-0.3,0.4-0.6,0.7-1.1,0.9c-0.5,0.2-1,0.3-1.7,0.3
					C46.2,229.5,45.6,229.4,45.1,229.2z"/>
				<path class="st4" d="M59.9,220.6v8.8h-1.5v-1.3c-0.3,0.4-0.7,0.8-1.2,1c-0.5,0.3-1,0.4-1.6,0.4c-0.7,0-1.3-0.1-1.8-0.4
					s-1-0.7-1.3-1.3c-0.3-0.6-0.5-1.3-0.5-2.1v-5.1h1.4v4.9c0,0.9,0.2,1.5,0.7,2c0.4,0.5,1,0.7,1.8,0.7c0.8,0,1.4-0.2,1.8-0.7
					c0.4-0.5,0.7-1.2,0.7-2.1v-4.8H59.9z"/>
				<path class="st4" d="M62.4,222.6c0.4-0.7,0.9-1.2,1.5-1.6c0.6-0.4,1.3-0.6,2.1-0.6c0.8,0,1.4,0.2,2,0.5c0.6,0.3,1,0.7,1.3,1.2
					v-1.6h1.5v8.8h-1.5v-1.6c-0.3,0.5-0.7,0.9-1.3,1.3c-0.6,0.3-1.2,0.5-2,0.5c-0.8,0-1.5-0.2-2.1-0.6c-0.6-0.4-1.1-0.9-1.5-1.6
					s-0.5-1.5-0.5-2.4C61.8,224,62,223.3,62.4,222.6z M68.9,223.2c-0.3-0.5-0.6-0.9-1.1-1.1c-0.5-0.3-1-0.4-1.5-0.4
					c-0.5,0-1,0.1-1.5,0.4c-0.4,0.3-0.8,0.6-1.1,1.1c-0.3,0.5-0.4,1.1-0.4,1.7c0,0.7,0.1,1.3,0.4,1.8c0.3,0.5,0.6,0.9,1.1,1.1
					c0.4,0.3,0.9,0.4,1.5,0.4c0.5,0,1-0.1,1.5-0.4c0.5-0.3,0.8-0.6,1.1-1.1s0.4-1.1,0.4-1.7C69.3,224.3,69.1,223.7,68.9,223.2z"/>
				<path class="st4" d="M74.7,217.5v11.8h-1.5v-11.8H74.7z"/>
				<path class="st4" d="M77.2,218.9c-0.2-0.2-0.3-0.4-0.3-0.7s0.1-0.5,0.3-0.7c0.2-0.2,0.4-0.3,0.7-0.3c0.3,0,0.5,0.1,0.7,0.3
					c0.2,0.2,0.3,0.4,0.3,0.7s-0.1,0.5-0.3,0.7c-0.2,0.2-0.4,0.3-0.7,0.3C77.6,219.2,77.4,219.1,77.2,218.9z M78.6,220.6v8.8h-1.5
					v-8.8H78.6z"/>
				<path class="st4" d="M82.2,228.2h4.3v1.2h-6v-1.2l4.3-6.4h-4.2v-1.2h5.9v1.2L82.2,228.2z"/>
				<path class="st4" d="M88.4,222.6c0.4-0.7,0.9-1.2,1.5-1.6c0.6-0.4,1.3-0.6,2.1-0.6c0.8,0,1.4,0.2,2,0.5c0.6,0.3,1,0.7,1.3,1.2
					v-1.6h1.5v8.8h-1.5v-1.6c-0.3,0.5-0.7,0.9-1.3,1.3c-0.6,0.3-1.2,0.5-2,0.5c-0.8,0-1.5-0.2-2.1-0.6c-0.6-0.4-1.1-0.9-1.5-1.6
					s-0.5-1.5-0.5-2.4C87.8,224,88,223.3,88.4,222.6z M94.8,223.2c-0.3-0.5-0.6-0.9-1.1-1.1c-0.5-0.3-1-0.4-1.5-0.4
					c-0.5,0-1,0.1-1.5,0.4c-0.4,0.3-0.8,0.6-1.1,1.1c-0.3,0.5-0.4,1.1-0.4,1.7c0,0.7,0.1,1.3,0.4,1.8c0.3,0.5,0.6,0.9,1.1,1.1
					c0.4,0.3,0.9,0.4,1.5,0.4c0.5,0,1-0.1,1.5-0.4c0.5-0.3,0.8-0.6,1.1-1.1s0.4-1.1,0.4-1.7C95.2,224.3,95.1,223.7,94.8,223.2z"/>
				<path class="st4" d="M99.2,222.6c0.4-0.7,0.9-1.2,1.5-1.6c0.6-0.4,1.4-0.6,2.2-0.6c1.1,0,2,0.3,2.7,0.8c0.7,0.5,1.2,1.2,1.4,2.2
					h-1.6c-0.1-0.5-0.4-1-0.9-1.3c-0.4-0.3-1-0.5-1.6-0.5c-0.8,0-1.5,0.3-2,0.9c-0.5,0.6-0.8,1.4-0.8,2.4c0,1.1,0.3,1.9,0.8,2.4
					c0.5,0.6,1.2,0.9,2,0.9c0.6,0,1.2-0.1,1.6-0.4c0.4-0.3,0.7-0.7,0.9-1.3h1.6c-0.2,0.9-0.7,1.6-1.4,2.2c-0.7,0.5-1.6,0.8-2.6,0.8
					c-0.8,0-1.6-0.2-2.2-0.6c-0.6-0.4-1.1-0.9-1.5-1.6s-0.5-1.5-0.5-2.4C98.6,224.1,98.8,223.3,99.2,222.6z"/>
				<path class="st4" d="M108.9,218.9c-0.2-0.2-0.3-0.4-0.3-0.7s0.1-0.5,0.3-0.7c0.2-0.2,0.4-0.3,0.7-0.3c0.3,0,0.5,0.1,0.7,0.3
					c0.2,0.2,0.3,0.4,0.3,0.7s-0.1,0.5-0.3,0.7c-0.2,0.2-0.4,0.3-0.7,0.3C109.4,219.2,109.1,219.1,108.9,218.9z M110.3,220.6v8.8
					h-1.5v-8.8H110.3z"/>
				<path class="st4" d="M114.4,228.9c-0.7-0.4-1.2-0.9-1.6-1.6c-0.4-0.7-0.6-1.5-0.6-2.4c0-0.9,0.2-1.7,0.6-2.4
					c0.4-0.7,0.9-1.2,1.6-1.6c0.7-0.4,1.4-0.6,2.3-0.6s1.6,0.2,2.3,0.6c0.7,0.4,1.2,0.9,1.6,1.6c0.4,0.7,0.6,1.5,0.6,2.4
					c0,0.9-0.2,1.7-0.6,2.4c-0.4,0.7-0.9,1.2-1.6,1.6c-0.7,0.4-1.4,0.6-2.3,0.6C115.8,229.5,115.1,229.3,114.4,228.9z M118.1,227.9
					c0.5-0.2,0.8-0.6,1.1-1.1c0.3-0.5,0.4-1.1,0.4-1.8c0-0.7-0.1-1.3-0.4-1.8c-0.3-0.5-0.6-0.9-1.1-1.1c-0.4-0.2-0.9-0.4-1.5-0.4
					c-0.5,0-1,0.1-1.5,0.4c-0.4,0.2-0.8,0.6-1.1,1.1c-0.3,0.5-0.4,1.1-0.4,1.8c0,0.7,0.1,1.3,0.4,1.8s0.6,0.9,1,1.1
					c0.4,0.2,0.9,0.4,1.4,0.4C117.2,228.2,117.7,228.1,118.1,227.9z M118.3,218l-3.4,1.8v-1.1l3.4-2V218z"/>
				<path class="st4" d="M129.9,221.4c0.7,0.6,1,1.6,1,2.8v5.2h-1.4v-5c0-0.9-0.2-1.5-0.7-2c-0.4-0.5-1-0.7-1.8-0.7
					c-0.8,0-1.4,0.2-1.8,0.7c-0.5,0.5-0.7,1.2-0.7,2.1v4.8h-1.5v-8.8h1.5v1.2c0.3-0.4,0.7-0.8,1.2-1c0.5-0.2,1-0.4,1.6-0.4
					C128.4,220.4,129.3,220.8,129.9,221.4z"/>
				<path class="st4" d="M137.6,222.6c0.4-0.7,0.9-1.2,1.5-1.6c0.6-0.4,1.3-0.6,2.1-0.6c0.7,0,1.3,0.2,1.9,0.5
					c0.6,0.3,1,0.7,1.3,1.2v-4.6h1.5v11.8h-1.5v-1.6c-0.3,0.5-0.7,1-1.3,1.3s-1.2,0.5-2,0.5c-0.8,0-1.5-0.2-2.1-0.6
					c-0.6-0.4-1.1-0.9-1.5-1.6c-0.4-0.7-0.5-1.5-0.5-2.4C137,224,137.2,223.3,137.6,222.6z M144.1,223.2c-0.3-0.5-0.6-0.9-1.1-1.1
					s-1-0.4-1.5-0.4c-0.5,0-1,0.1-1.5,0.4c-0.4,0.3-0.8,0.6-1.1,1.1c-0.3,0.5-0.4,1.1-0.4,1.7c0,0.7,0.1,1.3,0.4,1.8
					s0.6,0.9,1.1,1.1c0.4,0.3,0.9,0.4,1.5,0.4c0.5,0,1-0.1,1.5-0.4c0.5-0.3,0.8-0.6,1.1-1.1s0.4-1.1,0.4-1.7
					C144.5,224.3,144.3,223.7,144.1,223.2z"/>
				<path class="st4" d="M156.3,225.5h-7c0.1,0.9,0.3,1.5,0.9,2c0.5,0.5,1.2,0.7,2,0.7c0.6,0,1.2-0.1,1.6-0.4
					c0.4-0.3,0.7-0.7,0.9-1.2h1.6c-0.2,0.8-0.7,1.5-1.4,2.1c-0.7,0.5-1.6,0.8-2.6,0.8c-0.8,0-1.6-0.2-2.2-0.6s-1.2-0.9-1.5-1.6
					c-0.4-0.7-0.6-1.5-0.6-2.4c0-0.9,0.2-1.7,0.5-2.4s0.9-1.2,1.5-1.6c0.7-0.4,1.4-0.6,2.3-0.6c0.8,0,1.6,0.2,2.2,0.5
					c0.6,0.4,1.1,0.9,1.5,1.5c0.3,0.6,0.5,1.4,0.5,2.2C156.4,224.9,156.4,225.2,156.3,225.5z M154.5,222.9c-0.2-0.4-0.6-0.7-1-0.9
					s-0.9-0.3-1.4-0.3c-0.7,0-1.4,0.2-1.9,0.7c-0.5,0.5-0.8,1.1-0.9,2h5.5C154.9,223.8,154.8,223.3,154.5,222.9z"/>
				<path class="st4" d="M159.8,217.5v11.8h-1.5v-11.8H159.8z"/>
				<path class="st4" d="M174.3,220.6v8.8h-1.5v-1.3c-0.3,0.4-0.7,0.8-1.2,1c-0.5,0.3-1,0.4-1.6,0.4c-0.7,0-1.3-0.1-1.8-0.4
					s-1-0.7-1.3-1.3c-0.3-0.6-0.5-1.3-0.5-2.1v-5.1h1.4v4.9c0,0.9,0.2,1.5,0.7,2c0.4,0.5,1,0.7,1.8,0.7c0.8,0,1.4-0.2,1.8-0.7
					c0.4-0.5,0.7-1.2,0.7-2.1v-4.8H174.3z M172,218.1l-3.4,1.8v-1.1l3.4-2V218.1z"/>
				<path class="st4" d="M178.5,221.8v5.2c0,0.4,0.1,0.7,0.3,0.9s0.5,0.3,0.9,0.3h1.1v1.2h-1.3c-0.8,0-1.4-0.2-1.8-0.6
					c-0.4-0.4-0.6-1-0.6-1.8v-5.2h-1.1v-1.2h1.1v-2.2h1.5v2.2h2.3v1.2H178.5z"/>
				<path class="st4" d="M190.5,225.5h-7c0.1,0.9,0.3,1.5,0.9,2c0.5,0.5,1.2,0.7,2,0.7c0.6,0,1.2-0.1,1.6-0.4
					c0.4-0.3,0.7-0.7,0.9-1.2h1.6c-0.2,0.8-0.7,1.5-1.4,2.1c-0.7,0.5-1.6,0.8-2.6,0.8c-0.8,0-1.6-0.2-2.2-0.6s-1.2-0.9-1.5-1.6
					c-0.4-0.7-0.6-1.5-0.6-2.4c0-0.9,0.2-1.7,0.5-2.4c0.4-0.7,0.9-1.2,1.5-1.6c0.7-0.4,1.4-0.6,2.3-0.6c0.8,0,1.6,0.2,2.2,0.5
					c0.6,0.4,1.1,0.9,1.5,1.5s0.5,1.4,0.5,2.2C190.6,224.9,190.6,225.2,190.5,225.5z M188.7,222.9c-0.2-0.4-0.6-0.7-1-0.9
					c-0.4-0.2-0.9-0.3-1.4-0.3c-0.7,0-1.4,0.2-1.9,0.7c-0.5,0.5-0.8,1.1-0.9,2h5.5C189.1,223.8,189,223.3,188.7,222.9z"/>
				<path class="st4" d="M195.1,220.8c0.5-0.3,1.1-0.4,1.7-0.4v1.5h-0.4c-1.6,0-2.4,0.9-2.4,2.7v4.8h-1.5v-8.8h1.5v1.4
					C194.2,221.5,194.6,221.1,195.1,220.8z"/>
				<path class="st4" d="M200.1,228.9c-0.7-0.4-1.2-0.9-1.6-1.6c-0.4-0.7-0.6-1.5-0.6-2.4c0-0.9,0.2-1.7,0.6-2.4
					c0.4-0.7,0.9-1.2,1.6-1.6c0.7-0.4,1.4-0.6,2.3-0.6s1.6,0.2,2.3,0.6c0.7,0.4,1.2,0.9,1.6,1.6s0.6,1.5,0.6,2.4
					c0,0.9-0.2,1.7-0.6,2.4c-0.4,0.7-0.9,1.2-1.6,1.6c-0.7,0.4-1.4,0.6-2.3,0.6C201.5,229.5,200.7,229.3,200.1,228.9z M203.8,227.9
					c0.5-0.2,0.8-0.6,1.1-1.1c0.3-0.5,0.4-1.1,0.4-1.8c0-0.7-0.1-1.3-0.4-1.8c-0.3-0.5-0.6-0.9-1.1-1.1c-0.4-0.2-0.9-0.4-1.5-0.4
					c-0.5,0-1,0.1-1.5,0.4c-0.4,0.2-0.8,0.6-1.1,1.1c-0.3,0.5-0.4,1.1-0.4,1.8c0,0.7,0.1,1.3,0.4,1.8c0.3,0.5,0.6,0.9,1,1.1
					c0.4,0.2,0.9,0.4,1.4,0.4C202.8,228.2,203.3,228.1,203.8,227.9z"/>
				<path class="st4" d="M210.2,227.3l-1.8,4.3h-1l1.2-4.3H210.2z"/>
				<path class="st4" d="M217.6,217.5v11.8h-1.5v-11.8H217.6z"/>
				<path class="st4" d="M221.7,228.9c-0.7-0.4-1.2-0.9-1.6-1.6c-0.4-0.7-0.6-1.5-0.6-2.4c0-0.9,0.2-1.7,0.6-2.4
					c0.4-0.7,0.9-1.2,1.6-1.6c0.7-0.4,1.4-0.6,2.3-0.6s1.6,0.2,2.3,0.6c0.7,0.4,1.2,0.9,1.6,1.6s0.6,1.5,0.6,2.4
					c0,0.9-0.2,1.7-0.6,2.4c-0.4,0.7-0.9,1.2-1.6,1.6c-0.7,0.4-1.4,0.6-2.3,0.6C223.1,229.5,222.3,229.3,221.7,228.9z M225.4,227.9
					c0.5-0.2,0.8-0.6,1.1-1.1c0.3-0.5,0.4-1.1,0.4-1.8c0-0.7-0.1-1.3-0.4-1.8c-0.3-0.5-0.6-0.9-1.1-1.1c-0.4-0.2-0.9-0.4-1.5-0.4
					c-0.5,0-1,0.1-1.5,0.4c-0.4,0.2-0.8,0.6-1.1,1.1c-0.3,0.5-0.4,1.1-0.4,1.8c0,0.7,0.1,1.3,0.4,1.8c0.3,0.5,0.6,0.9,1,1.1
					c0.4,0.2,0.9,0.4,1.4,0.4C224.4,228.2,224.9,228.1,225.4,227.9z"/>
				<path class="st4" d="M231.6,229.2c-0.5-0.2-1-0.5-1.3-1c-0.3-0.4-0.5-0.9-0.5-1.4h1.5c0,0.4,0.2,0.8,0.6,1.1s0.9,0.4,1.4,0.4
					c0.6,0,1-0.1,1.3-0.4c0.3-0.2,0.5-0.6,0.5-0.9c0-0.4-0.2-0.7-0.5-0.9s-0.9-0.4-1.6-0.6c-0.7-0.2-1.2-0.3-1.6-0.5
					c-0.4-0.2-0.8-0.4-1.1-0.8c-0.3-0.3-0.4-0.8-0.4-1.4c0-0.4,0.1-0.9,0.4-1.2c0.3-0.4,0.6-0.7,1.1-0.9s1.1-0.3,1.7-0.3
					c1,0,1.8,0.2,2.4,0.7s0.9,1.2,1,2h-1.5c0-0.5-0.2-0.8-0.6-1.1c-0.3-0.3-0.8-0.4-1.4-0.4c-0.5,0-0.9,0.1-1.2,0.3
					c-0.3,0.2-0.5,0.5-0.5,0.9c0,0.3,0.1,0.5,0.3,0.7c0.2,0.2,0.4,0.3,0.7,0.4c0.3,0.1,0.7,0.2,1.2,0.4c0.6,0.2,1.1,0.3,1.5,0.5
					s0.7,0.4,1,0.7c0.3,0.3,0.4,0.8,0.4,1.3c0,0.5-0.1,0.9-0.4,1.3c-0.3,0.4-0.6,0.7-1.1,0.9c-0.5,0.2-1,0.3-1.7,0.3
					C232.8,229.5,232.2,229.4,231.6,229.2z"/>
			</g>
			<g class="st2">
				<path class="st4" d="M42,252.9c-0.7-0.4-1.2-0.9-1.6-1.6c-0.4-0.7-0.6-1.5-0.6-2.4c0-0.9,0.2-1.7,0.6-2.4
					c0.4-0.7,0.9-1.2,1.6-1.6c0.7-0.4,1.4-0.6,2.3-0.6s1.6,0.2,2.3,0.6c0.7,0.4,1.2,0.9,1.6,1.6c0.4,0.7,0.6,1.5,0.6,2.4
					c0,0.9-0.2,1.7-0.6,2.4c-0.4,0.7-0.9,1.2-1.6,1.6c-0.7,0.4-1.4,0.6-2.3,0.6C43.4,253.5,42.7,253.3,42,252.9z M45.7,251.9
					c0.5-0.2,0.8-0.6,1.1-1.1c0.3-0.5,0.4-1.1,0.4-1.8c0-0.7-0.1-1.3-0.4-1.8c-0.3-0.5-0.6-0.9-1.1-1.1c-0.4-0.2-0.9-0.4-1.5-0.4
					c-0.5,0-1,0.1-1.5,0.4c-0.4,0.2-0.8,0.6-1.1,1.1c-0.3,0.5-0.4,1.1-0.4,1.8c0,0.7,0.1,1.3,0.4,1.8s0.6,0.9,1,1.1
					c0.4,0.2,0.9,0.4,1.4,0.4C44.8,252.2,45.3,252.1,45.7,251.9z"/>
				<path class="st4" d="M53.9,252l2.7-7.4h1.6l-3.4,8.8h-1.7l-3.4-8.8h1.6L53.9,252z"/>
				<path class="st4" d="M59.7,246.6c0.4-0.7,0.9-1.2,1.5-1.6c0.6-0.4,1.3-0.6,2.1-0.6c0.8,0,1.4,0.2,2,0.5c0.6,0.3,1,0.7,1.3,1.2
					v-1.6H68v8.8h-1.5v-1.6c-0.3,0.5-0.7,0.9-1.3,1.3c-0.6,0.3-1.2,0.5-2,0.5c-0.8,0-1.5-0.2-2.1-0.6c-0.6-0.4-1.1-0.9-1.5-1.6
					s-0.5-1.5-0.5-2.4C59.1,248,59.3,247.3,59.7,246.6z M66.1,247.2c-0.3-0.5-0.6-0.9-1.1-1.1c-0.5-0.3-1-0.4-1.5-0.4
					c-0.5,0-1,0.1-1.5,0.4c-0.4,0.3-0.8,0.6-1.1,1.1c-0.3,0.5-0.4,1.1-0.4,1.7c0,0.7,0.1,1.3,0.4,1.8c0.3,0.5,0.6,0.9,1.1,1.1
					c0.4,0.3,0.9,0.4,1.5,0.4c0.5,0,1-0.1,1.5-0.4c0.5-0.3,0.8-0.6,1.1-1.1s0.4-1.1,0.4-1.7C66.5,248.3,66.4,247.7,66.1,247.2z"/>
				<path class="st4" d="M73,244.8c0.5-0.3,1.1-0.4,1.7-0.4v1.5h-0.4c-1.6,0-2.4,0.9-2.4,2.7v4.8h-1.5v-8.8h1.5v1.4
					C72.2,245.5,72.5,245.1,73,244.8z"/>
				<path class="st4" d="M76.5,242.9c-0.2-0.2-0.3-0.4-0.3-0.7s0.1-0.5,0.3-0.7c0.2-0.2,0.4-0.3,0.7-0.3c0.3,0,0.5,0.1,0.7,0.3
					c0.2,0.2,0.3,0.4,0.3,0.7s-0.1,0.5-0.3,0.7c-0.2,0.2-0.4,0.3-0.7,0.3C76.9,243.2,76.7,243.1,76.5,242.9z M77.9,244.6v8.8h-1.5
					v-8.8H77.9z"/>
				<path class="st4" d="M82,252.9c-0.7-0.4-1.2-0.9-1.6-1.6c-0.4-0.7-0.6-1.5-0.6-2.4c0-0.9,0.2-1.7,0.6-2.4
					c0.4-0.7,0.9-1.2,1.6-1.6c0.7-0.4,1.4-0.6,2.3-0.6s1.6,0.2,2.3,0.6c0.7,0.4,1.2,0.9,1.6,1.6c0.4,0.7,0.6,1.5,0.6,2.4
					c0,0.9-0.2,1.7-0.6,2.4c-0.4,0.7-0.9,1.2-1.6,1.6c-0.7,0.4-1.4,0.6-2.3,0.6C83.4,253.5,82.6,253.3,82,252.9z M85.7,251.9
					c0.5-0.2,0.8-0.6,1.1-1.1c0.3-0.5,0.4-1.1,0.4-1.8c0-0.7-0.1-1.3-0.4-1.8c-0.3-0.5-0.6-0.9-1.1-1.1c-0.4-0.2-0.9-0.4-1.5-0.4
					c-0.5,0-1,0.1-1.5,0.4c-0.4,0.2-0.8,0.6-1.1,1.1c-0.3,0.5-0.4,1.1-0.4,1.8c0,0.7,0.1,1.3,0.4,1.8s0.6,0.9,1,1.1
					c0.4,0.2,0.9,0.4,1.4,0.4C84.7,252.2,85.2,252.1,85.7,251.9z"/>
				<path class="st4" d="M91.9,253.2c-0.5-0.2-1-0.5-1.3-1c-0.3-0.4-0.5-0.9-0.5-1.4h1.5c0,0.4,0.2,0.8,0.6,1.1s0.9,0.4,1.4,0.4
					c0.6,0,1-0.1,1.3-0.4c0.3-0.2,0.5-0.6,0.5-0.9c0-0.4-0.2-0.7-0.5-0.9c-0.3-0.2-0.9-0.4-1.6-0.6c-0.7-0.2-1.2-0.3-1.6-0.5
					c-0.4-0.2-0.8-0.4-1.1-0.8c-0.3-0.3-0.4-0.8-0.4-1.4c0-0.4,0.1-0.9,0.4-1.2c0.3-0.4,0.6-0.7,1.1-0.9s1.1-0.3,1.7-0.3
					c1,0,1.8,0.2,2.4,0.7c0.6,0.5,0.9,1.2,1,2h-1.5c0-0.5-0.2-0.8-0.6-1.1c-0.3-0.3-0.8-0.4-1.4-0.4c-0.5,0-0.9,0.1-1.2,0.3
					c-0.3,0.2-0.5,0.5-0.5,0.9c0,0.3,0.1,0.5,0.3,0.7c0.2,0.2,0.4,0.3,0.7,0.4c0.3,0.1,0.7,0.2,1.2,0.4c0.6,0.2,1.1,0.3,1.5,0.5
					c0.4,0.2,0.7,0.4,1,0.7c0.3,0.3,0.4,0.8,0.4,1.3c0,0.5-0.1,0.9-0.4,1.3c-0.3,0.4-0.6,0.7-1.1,0.9c-0.5,0.2-1,0.3-1.7,0.3
					C93,253.5,92.4,253.4,91.9,253.2z"/>
				<path class="st4" d="M100.5,251.3l-1.8,4.3h-1l1.2-4.3H100.5z"/>
				<path class="st4" d="M107.9,241.5v11.8h-1.5v-11.8H107.9z"/>
				<path class="st4" d="M110.3,246.6c0.4-0.7,0.9-1.2,1.5-1.6c0.6-0.4,1.3-0.6,2.1-0.6c0.8,0,1.4,0.2,2,0.5c0.6,0.3,1,0.7,1.3,1.2
					v-1.6h1.5v8.8h-1.5v-1.6c-0.3,0.5-0.7,0.9-1.3,1.3c-0.6,0.3-1.2,0.5-2,0.5c-0.8,0-1.5-0.2-2.1-0.6c-0.6-0.4-1.1-0.9-1.5-1.6
					s-0.5-1.5-0.5-2.4C109.8,248,110,247.3,110.3,246.6z M116.8,247.2c-0.3-0.5-0.6-0.9-1.1-1.1c-0.5-0.3-1-0.4-1.5-0.4
					c-0.5,0-1,0.1-1.5,0.4c-0.4,0.3-0.8,0.6-1.1,1.1c-0.3,0.5-0.4,1.1-0.4,1.7c0,0.7,0.1,1.3,0.4,1.8c0.3,0.5,0.6,0.9,1.1,1.1
					c0.4,0.3,0.9,0.4,1.5,0.4c0.5,0,1-0.1,1.5-0.4c0.5-0.3,0.8-0.6,1.1-1.1s0.4-1.1,0.4-1.7C117.2,248.3,117.1,247.7,116.8,247.2z"
					/>
				<path class="st4" d="M122.5,253.2c-0.5-0.2-1-0.5-1.3-1c-0.3-0.4-0.5-0.9-0.5-1.4h1.5c0,0.4,0.2,0.8,0.6,1.1s0.9,0.4,1.4,0.4
					c0.6,0,1-0.1,1.3-0.4c0.3-0.2,0.5-0.6,0.5-0.9c0-0.4-0.2-0.7-0.5-0.9c-0.3-0.2-0.9-0.4-1.6-0.6c-0.7-0.2-1.2-0.3-1.6-0.5
					c-0.4-0.2-0.8-0.4-1.1-0.8c-0.3-0.3-0.4-0.8-0.4-1.4c0-0.4,0.1-0.9,0.4-1.2c0.3-0.4,0.6-0.7,1.1-0.9s1.1-0.3,1.7-0.3
					c1,0,1.8,0.2,2.4,0.7c0.6,0.5,0.9,1.2,1,2h-1.5c0-0.5-0.2-0.8-0.6-1.1c-0.3-0.3-0.8-0.4-1.4-0.4c-0.5,0-0.9,0.1-1.2,0.3
					c-0.3,0.2-0.5,0.5-0.5,0.9c0,0.3,0.1,0.5,0.3,0.7c0.2,0.2,0.4,0.3,0.7,0.4c0.3,0.1,0.7,0.2,1.2,0.4c0.6,0.2,1.1,0.3,1.5,0.5
					c0.4,0.2,0.7,0.4,1,0.7c0.3,0.3,0.4,0.8,0.4,1.3c0,0.5-0.1,0.9-0.4,1.3c-0.3,0.4-0.6,0.7-1.1,0.9c-0.5,0.2-1,0.3-1.7,0.3
					C123.6,253.5,123,253.4,122.5,253.2z"/>
				<path class="st4" d="M135.6,245.8v5.2c0,0.4,0.1,0.7,0.3,0.9s0.5,0.3,0.9,0.3h1.1v1.2h-1.3c-0.8,0-1.4-0.2-1.8-0.6
					c-0.4-0.4-0.6-1-0.6-1.8v-5.2H133v-1.2h1.1v-2.2h1.5v2.2h2.3v1.2H135.6z"/>
				<path class="st4" d="M142.2,244.8c0.5-0.3,1.1-0.4,1.7-0.4v1.5h-0.4c-1.6,0-2.4,0.9-2.4,2.7v4.8h-1.5v-8.8h1.5v1.4
					C141.3,245.5,141.7,245.1,142.2,244.8z"/>
				<path class="st4" d="M147.2,252.9c-0.7-0.4-1.2-0.9-1.6-1.6c-0.4-0.7-0.6-1.5-0.6-2.4c0-0.9,0.2-1.7,0.6-2.4
					c0.4-0.7,0.9-1.2,1.6-1.6c0.7-0.4,1.4-0.6,2.3-0.6s1.6,0.2,2.3,0.6c0.7,0.4,1.2,0.9,1.6,1.6s0.6,1.5,0.6,2.4
					c0,0.9-0.2,1.7-0.6,2.4c-0.4,0.7-0.9,1.2-1.6,1.6c-0.7,0.4-1.4,0.6-2.3,0.6C148.6,253.5,147.8,253.3,147.2,252.9z M150.9,251.9
					c0.5-0.2,0.8-0.6,1.1-1.1c0.3-0.5,0.4-1.1,0.4-1.8c0-0.7-0.1-1.3-0.4-1.8c-0.3-0.5-0.6-0.9-1.1-1.1s-0.9-0.4-1.5-0.4
					c-0.5,0-1,0.1-1.5,0.4s-0.8,0.6-1.1,1.1c-0.3,0.5-0.4,1.1-0.4,1.8c0,0.7,0.1,1.3,0.4,1.8c0.3,0.5,0.6,0.9,1,1.1
					c0.4,0.2,0.9,0.4,1.4,0.4S150.4,252.1,150.9,251.9z"/>
				<path class="st4" d="M168.2,244.9c0.5,0.3,1,0.7,1.3,1.3c0.3,0.6,0.5,1.3,0.5,2.1v5.2h-1.4v-5c0-0.9-0.2-1.5-0.6-2
					s-1-0.7-1.8-0.7c-0.8,0-1.4,0.2-1.8,0.7c-0.4,0.5-0.7,1.2-0.7,2.1v4.8h-1.4v-5c0-0.9-0.2-1.5-0.6-2c-0.4-0.5-1-0.7-1.8-0.7
					c-0.8,0-1.4,0.2-1.8,0.7s-0.7,1.2-0.7,2.1v4.8h-1.5v-8.8h1.5v1.3c0.3-0.5,0.7-0.8,1.2-1.1c0.5-0.2,1-0.4,1.6-0.4
					c0.7,0,1.4,0.2,2,0.5c0.6,0.3,1,0.8,1.3,1.5c0.2-0.6,0.7-1.1,1.2-1.4c0.6-0.3,1.2-0.5,1.9-0.5
					C167,244.4,167.6,244.6,168.2,244.9z"/>
				<path class="st4" d="M175,244.9c0.6-0.3,1.2-0.5,2-0.5c0.8,0,1.5,0.2,2.1,0.6c0.6,0.4,1.1,0.9,1.5,1.6c0.4,0.7,0.5,1.5,0.5,2.4
					c0,0.9-0.2,1.7-0.5,2.4s-0.9,1.2-1.5,1.6c-0.6,0.4-1.3,0.6-2.1,0.6c-0.7,0-1.4-0.2-2-0.5s-1-0.8-1.3-1.3v5.8h-1.5v-12.9h1.5v1.6
					C174,245.7,174.5,245.3,175,244.9z M179.3,247.2c-0.3-0.5-0.6-0.9-1.1-1.1s-1-0.4-1.5-0.4c-0.5,0-1,0.1-1.5,0.4
					c-0.5,0.3-0.8,0.6-1.1,1.1c-0.3,0.5-0.4,1.1-0.4,1.7c0,0.7,0.1,1.2,0.4,1.7c0.3,0.5,0.6,0.9,1.1,1.1c0.5,0.3,0.9,0.4,1.5,0.4
					c0.5,0,1-0.1,1.5-0.4c0.5-0.3,0.8-0.6,1.1-1.1s0.4-1.1,0.4-1.8C179.7,248.3,179.6,247.7,179.3,247.2z"/>
				<path class="st4" d="M183.1,246.6c0.4-0.7,0.9-1.2,1.5-1.6c0.6-0.4,1.3-0.6,2.1-0.6c0.8,0,1.4,0.2,2,0.5c0.6,0.3,1,0.7,1.3,1.2
					v-1.6h1.5v8.8H190v-1.6c-0.3,0.5-0.7,0.9-1.3,1.3s-1.2,0.5-2,0.5c-0.8,0-1.5-0.2-2.1-0.6c-0.6-0.4-1.1-0.9-1.5-1.6
					c-0.4-0.7-0.5-1.5-0.5-2.4C182.6,248,182.7,247.3,183.1,246.6z M189.6,247.2c-0.3-0.5-0.6-0.9-1.1-1.1c-0.5-0.3-1-0.4-1.5-0.4
					c-0.5,0-1,0.1-1.5,0.4s-0.8,0.6-1.1,1.1c-0.3,0.5-0.4,1.1-0.4,1.7c0,0.7,0.1,1.3,0.4,1.8s0.6,0.9,1.1,1.1
					c0.4,0.3,0.9,0.4,1.5,0.4c0.5,0,1-0.1,1.5-0.4c0.5-0.3,0.8-0.6,1.1-1.1s0.4-1.1,0.4-1.7C190,248.3,189.9,247.7,189.6,247.2z"/>
				<path class="st4" d="M195.2,253.2c-0.5-0.2-1-0.5-1.3-1c-0.3-0.4-0.5-0.9-0.5-1.4h1.5c0,0.4,0.2,0.8,0.6,1.1s0.9,0.4,1.4,0.4
					c0.6,0,1-0.1,1.3-0.4c0.3-0.2,0.5-0.6,0.5-0.9c0-0.4-0.2-0.7-0.5-0.9c-0.3-0.2-0.9-0.4-1.6-0.6c-0.7-0.2-1.2-0.3-1.6-0.5
					c-0.4-0.2-0.8-0.4-1.1-0.8s-0.4-0.8-0.4-1.4c0-0.4,0.1-0.9,0.4-1.2c0.3-0.4,0.6-0.7,1.1-0.9c0.5-0.2,1.1-0.3,1.7-0.3
					c1,0,1.8,0.2,2.4,0.7s0.9,1.2,1,2h-1.5c0-0.5-0.2-0.8-0.6-1.1s-0.8-0.4-1.4-0.4c-0.5,0-0.9,0.1-1.2,0.3
					c-0.3,0.2-0.5,0.5-0.5,0.9c0,0.3,0.1,0.5,0.3,0.7s0.4,0.3,0.7,0.4c0.3,0.1,0.7,0.2,1.2,0.4c0.6,0.2,1.1,0.3,1.5,0.5
					s0.7,0.4,1,0.7c0.3,0.3,0.4,0.8,0.4,1.3c0,0.5-0.1,0.9-0.4,1.3c-0.3,0.4-0.6,0.7-1.1,0.9c-0.5,0.2-1,0.3-1.7,0.3
					C196.4,253.5,195.8,253.4,195.2,253.2z"/>
				<path class="st4" d="M206.5,246.6c0.4-0.7,0.9-1.2,1.5-1.6c0.6-0.4,1.3-0.6,2.1-0.6c0.7,0,1.3,0.2,1.9,0.5
					c0.6,0.3,1,0.7,1.3,1.2v-4.6h1.5v11.8h-1.5v-1.6c-0.3,0.5-0.7,1-1.3,1.3s-1.2,0.5-2,0.5c-0.8,0-1.5-0.2-2.1-0.6
					c-0.6-0.4-1.1-0.9-1.5-1.6c-0.4-0.7-0.5-1.5-0.5-2.4C206,248,206.2,247.3,206.5,246.6z M213,247.2c-0.3-0.5-0.6-0.9-1.1-1.1
					s-1-0.4-1.5-0.4s-1,0.1-1.5,0.4c-0.4,0.3-0.8,0.6-1.1,1.1c-0.3,0.5-0.4,1.1-0.4,1.7c0,0.7,0.1,1.3,0.4,1.8
					c0.3,0.5,0.6,0.9,1.1,1.1c0.4,0.3,0.9,0.4,1.5,0.4s1-0.1,1.5-0.4c0.5-0.3,0.8-0.6,1.1-1.1s0.4-1.1,0.4-1.7
					C213.4,248.3,213.3,247.7,213,247.2z"/>
				<path class="st4" d="M225.3,249.5h-7c0.1,0.9,0.3,1.5,0.9,2c0.5,0.5,1.2,0.7,2,0.7c0.6,0,1.2-0.1,1.6-0.4
					c0.4-0.3,0.7-0.7,0.9-1.2h1.6c-0.2,0.8-0.7,1.5-1.4,2.1c-0.7,0.5-1.6,0.8-2.6,0.8c-0.8,0-1.6-0.2-2.2-0.6
					c-0.7-0.4-1.2-0.9-1.5-1.6c-0.4-0.7-0.6-1.5-0.6-2.4c0-0.9,0.2-1.7,0.5-2.4c0.4-0.7,0.9-1.2,1.5-1.6c0.7-0.4,1.4-0.6,2.3-0.6
					c0.8,0,1.6,0.2,2.2,0.5c0.6,0.4,1.1,0.9,1.5,1.5s0.5,1.4,0.5,2.2C225.4,248.9,225.3,249.2,225.3,249.5z M223.5,246.9
					c-0.2-0.4-0.6-0.7-1-0.9c-0.4-0.2-0.9-0.3-1.4-0.3c-0.7,0-1.4,0.2-1.9,0.7c-0.5,0.5-0.8,1.1-0.9,2h5.5
					C223.9,247.8,223.7,247.3,223.5,246.9z"/>
			</g>
			<g class="st2">
				<path class="st4" d="M39,266.2v1.2h-4.8v3.8h3.9v1.2h-3.9v5h-1.5v-11.2H39z"/>
				<path class="st4" d="M40.8,270.6c0.4-0.7,0.9-1.2,1.5-1.6c0.6-0.4,1.3-0.6,2.1-0.6c0.8,0,1.4,0.2,2,0.5c0.6,0.3,1,0.7,1.3,1.2
					v-1.6h1.5v8.8h-1.5v-1.6c-0.3,0.5-0.7,0.9-1.3,1.3c-0.6,0.3-1.2,0.5-2,0.5c-0.8,0-1.5-0.2-2.1-0.6c-0.6-0.4-1.1-0.9-1.5-1.6
					s-0.5-1.5-0.5-2.4C40.2,272,40.4,271.3,40.8,270.6z M47.2,271.2c-0.3-0.5-0.6-0.9-1.1-1.1c-0.5-0.3-1-0.4-1.5-0.4
					c-0.5,0-1,0.1-1.5,0.4c-0.4,0.3-0.8,0.6-1.1,1.1c-0.3,0.5-0.4,1.1-0.4,1.7c0,0.7,0.1,1.3,0.4,1.8c0.3,0.5,0.6,0.9,1.1,1.1
					c0.4,0.3,0.9,0.4,1.5,0.4c0.5,0,1-0.1,1.5-0.4c0.5-0.3,0.8-0.6,1.1-1.1s0.4-1.1,0.4-1.7C47.6,272.3,47.5,271.7,47.2,271.2z"/>
				<path class="st4" d="M53,265.5v11.8h-1.5v-11.8H53z"/>
				<path class="st4" d="M57.1,276.9c-0.7-0.4-1.2-0.9-1.6-1.6c-0.4-0.7-0.6-1.5-0.6-2.4c0-0.9,0.2-1.7,0.6-2.4
					c0.4-0.7,0.9-1.2,1.6-1.6c0.7-0.4,1.4-0.6,2.3-0.6s1.6,0.2,2.3,0.6c0.7,0.4,1.2,0.9,1.6,1.6c0.4,0.7,0.6,1.5,0.6,2.4
					c0,0.9-0.2,1.7-0.6,2.4c-0.4,0.7-0.9,1.2-1.6,1.6c-0.7,0.4-1.4,0.6-2.3,0.6C58.5,277.5,57.8,277.3,57.1,276.9z M60.8,275.9
					c0.5-0.2,0.8-0.6,1.1-1.1c0.3-0.5,0.4-1.1,0.4-1.8c0-0.7-0.1-1.3-0.4-1.8c-0.3-0.5-0.6-0.9-1.1-1.1c-0.4-0.2-0.9-0.4-1.5-0.4
					c-0.5,0-1,0.1-1.5,0.4c-0.4,0.2-0.8,0.6-1.1,1.1c-0.3,0.5-0.4,1.1-0.4,1.8c0,0.7,0.1,1.3,0.4,1.8s0.6,0.9,1,1.1
					c0.4,0.2,0.9,0.4,1.4,0.4C59.9,276.2,60.3,276.1,60.8,275.9z"/>
				<path class="st4" d="M68.5,268.9c0.6-0.3,1.2-0.5,2-0.5c0.8,0,1.5,0.2,2.1,0.6c0.6,0.4,1.1,0.9,1.5,1.6c0.4,0.7,0.5,1.5,0.5,2.4
					c0,0.9-0.2,1.7-0.5,2.4c-0.4,0.7-0.9,1.2-1.5,1.6c-0.6,0.4-1.3,0.6-2.1,0.6c-0.7,0-1.4-0.2-2-0.5c-0.6-0.3-1-0.8-1.3-1.3v5.8
					h-1.5v-12.9h1.5v1.6C67.5,269.7,67.9,269.3,68.5,268.9z M72.8,271.2c-0.3-0.5-0.6-0.9-1.1-1.1c-0.5-0.3-1-0.4-1.5-0.4
					c-0.5,0-1,0.1-1.5,0.4c-0.5,0.3-0.8,0.6-1.1,1.1s-0.4,1.1-0.4,1.7c0,0.7,0.1,1.2,0.4,1.7s0.6,0.9,1.1,1.1
					c0.5,0.3,0.9,0.4,1.5,0.4c0.5,0,1-0.1,1.5-0.4c0.5-0.3,0.8-0.6,1.1-1.1c0.3-0.5,0.4-1.1,0.4-1.8C73.2,272.3,73,271.7,72.8,271.2
					z"/>
				<path class="st4" d="M76.6,266.9c-0.2-0.2-0.3-0.4-0.3-0.7s0.1-0.5,0.3-0.7c0.2-0.2,0.4-0.3,0.7-0.3c0.3,0,0.5,0.1,0.7,0.3
					c0.2,0.2,0.3,0.4,0.3,0.7s-0.1,0.5-0.3,0.7c-0.2,0.2-0.4,0.3-0.7,0.3C77,267.2,76.8,267.1,76.6,266.9z M78,268.6v8.8h-1.5v-8.8
					H78z"/>
				<path class="st4" d="M82.1,276.9c-0.7-0.4-1.2-0.9-1.6-1.6c-0.4-0.7-0.6-1.5-0.6-2.4c0-0.9,0.2-1.7,0.6-2.4
					c0.4-0.7,0.9-1.2,1.6-1.6c0.7-0.4,1.4-0.6,2.3-0.6s1.6,0.2,2.3,0.6c0.7,0.4,1.2,0.9,1.6,1.6c0.4,0.7,0.6,1.5,0.6,2.4
					c0,0.9-0.2,1.7-0.6,2.4c-0.4,0.7-0.9,1.2-1.6,1.6c-0.7,0.4-1.4,0.6-2.3,0.6C83.5,277.5,82.8,277.3,82.1,276.9z M85.8,275.9
					c0.5-0.2,0.8-0.6,1.1-1.1c0.3-0.5,0.4-1.1,0.4-1.8c0-0.7-0.1-1.3-0.4-1.8c-0.3-0.5-0.6-0.9-1.1-1.1c-0.4-0.2-0.9-0.4-1.5-0.4
					c-0.5,0-1,0.1-1.5,0.4c-0.4,0.2-0.8,0.6-1.1,1.1c-0.3,0.5-0.4,1.1-0.4,1.8c0,0.7,0.1,1.3,0.4,1.8s0.6,0.9,1,1.1
					c0.4,0.2,0.9,0.4,1.4,0.4C84.8,276.2,85.3,276.1,85.8,275.9z"/>
				<path class="st4" d="M102.6,268.6l-5.3,12.9h-1.5l1.7-4.2l-3.5-8.7h1.6l2.8,7.1l2.7-7.1H102.6z"/>
				<path class="st4" d="M116.2,273.5h-7c0.1,0.9,0.3,1.5,0.9,2c0.5,0.5,1.2,0.7,2,0.7c0.6,0,1.2-0.1,1.6-0.4
					c0.4-0.3,0.7-0.7,0.9-1.2h1.6c-0.2,0.8-0.7,1.5-1.4,2.1c-0.7,0.5-1.6,0.8-2.6,0.8c-0.8,0-1.6-0.2-2.2-0.6
					c-0.7-0.4-1.2-0.9-1.5-1.6c-0.4-0.7-0.6-1.5-0.6-2.4c0-0.9,0.2-1.7,0.5-2.4s0.9-1.2,1.5-1.6c0.7-0.4,1.4-0.6,2.3-0.6
					c0.8,0,1.6,0.2,2.2,0.5c0.6,0.4,1.1,0.9,1.5,1.5s0.5,1.4,0.5,2.2C116.3,272.9,116.3,273.2,116.2,273.5z M114.4,270.9
					c-0.2-0.4-0.6-0.7-1-0.9s-0.9-0.3-1.4-0.3c-0.7,0-1.4,0.2-1.9,0.7c-0.5,0.5-0.8,1.1-0.9,2h5.5
					C114.8,271.8,114.7,271.3,114.4,270.9z"/>
				<path class="st4" d="M119.7,265.5v11.8h-1.5v-11.8H119.7z"/>
				<path class="st4" d="M126.4,270.6c0.4-0.7,0.9-1.2,1.5-1.6c0.6-0.4,1.4-0.6,2.2-0.6c1.1,0,2,0.3,2.7,0.8
					c0.7,0.5,1.2,1.2,1.4,2.2h-1.6c-0.1-0.5-0.4-1-0.9-1.3c-0.4-0.3-1-0.5-1.6-0.5c-0.8,0-1.5,0.3-2,0.9c-0.5,0.6-0.8,1.4-0.8,2.4
					c0,1.1,0.3,1.9,0.8,2.4c0.5,0.6,1.2,0.9,2,0.9c0.6,0,1.2-0.1,1.6-0.4c0.4-0.3,0.7-0.7,0.9-1.3h1.6c-0.2,0.9-0.7,1.6-1.4,2.2
					c-0.7,0.5-1.6,0.8-2.6,0.8c-0.8,0-1.6-0.2-2.2-0.6c-0.6-0.4-1.1-0.9-1.5-1.6s-0.5-1.5-0.5-2.4
					C125.9,272.1,126.1,271.3,126.4,270.6z"/>
				<path class="st4" d="M143.9,268.6v8.8h-1.5v-1.3c-0.3,0.4-0.7,0.8-1.2,1c-0.5,0.3-1,0.4-1.6,0.4c-0.7,0-1.3-0.1-1.8-0.4
					s-1-0.7-1.3-1.3c-0.3-0.6-0.5-1.3-0.5-2.1v-5.1h1.4v4.9c0,0.9,0.2,1.5,0.7,2s1,0.7,1.8,0.7c0.8,0,1.4-0.2,1.8-0.7
					c0.4-0.5,0.7-1.2,0.7-2.1v-4.8H143.9z"/>
				<path class="st4" d="M154.3,273.5h-7c0.1,0.9,0.3,1.5,0.9,2c0.5,0.5,1.2,0.7,2,0.7c0.6,0,1.2-0.1,1.6-0.4
					c0.4-0.3,0.7-0.7,0.9-1.2h1.6c-0.2,0.8-0.7,1.5-1.4,2.1c-0.7,0.5-1.6,0.8-2.6,0.8c-0.8,0-1.6-0.2-2.2-0.6
					c-0.7-0.4-1.2-0.9-1.5-1.6c-0.4-0.7-0.6-1.5-0.6-2.4c0-0.9,0.2-1.7,0.5-2.4c0.4-0.7,0.9-1.2,1.5-1.6c0.7-0.4,1.4-0.6,2.3-0.6
					c0.8,0,1.6,0.2,2.2,0.5c0.6,0.4,1.1,0.9,1.5,1.5s0.5,1.4,0.5,2.2C154.4,272.9,154.4,273.2,154.3,273.5z M152.5,270.9
					c-0.2-0.4-0.6-0.7-1-0.9c-0.4-0.2-0.9-0.3-1.4-0.3c-0.7,0-1.4,0.2-1.9,0.7c-0.5,0.5-0.8,1.1-0.9,2h5.5
					C152.9,271.8,152.7,271.3,152.5,270.9z"/>
				<path class="st4" d="M157.7,265.5v11.8h-1.5v-11.8H157.7z"/>
				<path class="st4" d="M161.7,265.5v11.8h-1.5v-11.8H161.7z"/>
				<path class="st4" d="M165.8,276.9c-0.7-0.4-1.2-0.9-1.6-1.6c-0.4-0.7-0.6-1.5-0.6-2.4c0-0.9,0.2-1.7,0.6-2.4
					c0.4-0.7,0.9-1.2,1.6-1.6c0.7-0.4,1.4-0.6,2.3-0.6s1.6,0.2,2.3,0.6c0.7,0.4,1.2,0.9,1.6,1.6s0.6,1.5,0.6,2.4
					c0,0.9-0.2,1.7-0.6,2.4c-0.4,0.7-0.9,1.2-1.6,1.6c-0.7,0.4-1.4,0.6-2.3,0.6C167.2,277.5,166.4,277.3,165.8,276.9z M169.5,275.9
					c0.5-0.2,0.8-0.6,1.1-1.1c0.3-0.5,0.4-1.1,0.4-1.8c0-0.7-0.1-1.3-0.4-1.8c-0.3-0.5-0.6-0.9-1.1-1.1s-0.9-0.4-1.5-0.4
					c-0.5,0-1,0.1-1.5,0.4s-0.8,0.6-1.1,1.1c-0.3,0.5-0.4,1.1-0.4,1.8c0,0.7,0.1,1.3,0.4,1.8c0.3,0.5,0.6,0.9,1,1.1
					c0.4,0.2,0.9,0.4,1.4,0.4S169,276.1,169.5,275.9z"/>
				<path class="st4" d="M186.4,268.6v8.8H185v-1.3c-0.3,0.4-0.7,0.8-1.2,1c-0.5,0.3-1,0.4-1.6,0.4c-0.7,0-1.3-0.1-1.8-0.4
					s-1-0.7-1.3-1.3c-0.3-0.6-0.5-1.3-0.5-2.1v-5.1h1.4v4.9c0,0.9,0.2,1.5,0.7,2s1,0.7,1.8,0.7c0.8,0,1.4-0.2,1.8-0.7
					c0.4-0.5,0.7-1.2,0.7-2.1v-4.8H186.4z"/>
				<path class="st4" d="M190.7,269.8v5.2c0,0.4,0.1,0.7,0.3,0.9c0.2,0.2,0.5,0.3,0.9,0.3h1.1v1.2h-1.3c-0.8,0-1.4-0.2-1.8-0.6
					c-0.4-0.4-0.6-1-0.6-1.8v-5.2h-1.1v-1.2h1.1v-2.2h1.5v2.2h2.3v1.2H190.7z"/>
				<path class="st4" d="M202.7,273.5h-7c0.1,0.9,0.3,1.5,0.9,2c0.5,0.5,1.2,0.7,2,0.7c0.6,0,1.2-0.1,1.6-0.4
					c0.4-0.3,0.7-0.7,0.9-1.2h1.6c-0.2,0.8-0.7,1.5-1.4,2.1c-0.7,0.5-1.6,0.8-2.6,0.8c-0.8,0-1.6-0.2-2.2-0.6
					c-0.7-0.4-1.2-0.9-1.5-1.6c-0.4-0.7-0.6-1.5-0.6-2.4c0-0.9,0.2-1.7,0.5-2.4c0.4-0.7,0.9-1.2,1.5-1.6c0.7-0.4,1.4-0.6,2.3-0.6
					c0.8,0,1.6,0.2,2.2,0.5c0.6,0.4,1.1,0.9,1.5,1.5s0.5,1.4,0.5,2.2C202.7,272.9,202.7,273.2,202.7,273.5z M200.9,270.9
					c-0.2-0.4-0.6-0.7-1-0.9c-0.4-0.2-0.9-0.3-1.4-0.3c-0.7,0-1.4,0.2-1.9,0.7c-0.5,0.5-0.8,1.1-0.9,2h5.5
					C201.2,271.8,201.1,271.3,200.9,270.9z"/>
				<path class="st4" d="M207.2,268.8c0.5-0.3,1.1-0.4,1.7-0.4v1.5h-0.4c-1.6,0-2.4,0.9-2.4,2.7v4.8h-1.5v-8.8h1.5v1.4
					C206.4,269.5,206.7,269.1,207.2,268.8z"/>
				<path class="st4" d="M210.7,266.9c-0.2-0.2-0.3-0.4-0.3-0.7s0.1-0.5,0.3-0.7c0.2-0.2,0.4-0.3,0.7-0.3c0.3,0,0.5,0.1,0.7,0.3
					c0.2,0.2,0.3,0.4,0.3,0.7s-0.1,0.5-0.3,0.7c-0.2,0.2-0.4,0.3-0.7,0.3C211.1,267.2,210.9,267.1,210.7,266.9z M212.1,268.6v8.8
					h-1.5v-8.8H212.1z"/>
				<path class="st4" d="M221.4,269.4c0.7,0.6,1,1.6,1,2.8v5.2H221v-5c0-0.9-0.2-1.5-0.7-2c-0.4-0.5-1-0.7-1.8-0.7
					c-0.8,0-1.4,0.2-1.8,0.7c-0.5,0.5-0.7,1.2-0.7,2.1v4.8h-1.5v-8.8h1.5v1.2c0.3-0.4,0.7-0.8,1.2-1c0.5-0.2,1-0.4,1.6-0.4
					C219.9,268.4,220.8,268.8,221.4,269.4z"/>
				<path class="st4" d="M226.4,276.9c-0.7-0.4-1.2-0.9-1.6-1.6c-0.4-0.7-0.6-1.5-0.6-2.4c0-0.9,0.2-1.7,0.6-2.4
					c0.4-0.7,0.9-1.2,1.6-1.6c0.7-0.4,1.4-0.6,2.3-0.6s1.6,0.2,2.3,0.6c0.7,0.4,1.2,0.9,1.6,1.6c0.4,0.7,0.6,1.5,0.6,2.4
					c0,0.9-0.2,1.7-0.6,2.4c-0.4,0.7-0.9,1.2-1.6,1.6s-1.4,0.6-2.3,0.6C227.8,277.5,227.1,277.3,226.4,276.9z M230.1,275.9
					c0.5-0.2,0.8-0.6,1.1-1.1c0.3-0.5,0.4-1.1,0.4-1.8c0-0.7-0.1-1.3-0.4-1.8c-0.3-0.5-0.6-0.9-1.1-1.1c-0.4-0.2-0.9-0.4-1.5-0.4
					c-0.5,0-1,0.1-1.5,0.4c-0.4,0.2-0.8,0.6-1.1,1.1c-0.3,0.5-0.4,1.1-0.4,1.8c0,0.7,0.1,1.3,0.4,1.8c0.3,0.5,0.6,0.9,1,1.1
					s0.9,0.4,1.4,0.4C229.1,276.2,229.6,276.1,230.1,275.9z"/>
			</g>
			<g class="st2">
				<path class="st4" d="M35.8,292.9c0.6-0.3,1.2-0.5,2-0.5c0.8,0,1.5,0.2,2.1,0.6c0.6,0.4,1.1,0.9,1.5,1.6c0.4,0.7,0.5,1.5,0.5,2.4
					c0,0.9-0.2,1.7-0.5,2.4c-0.4,0.7-0.9,1.2-1.5,1.6c-0.6,0.4-1.3,0.6-2.1,0.6c-0.7,0-1.4-0.2-2-0.5c-0.6-0.3-1-0.8-1.3-1.3v5.8
					h-1.5v-12.9h1.5v1.6C34.8,293.7,35.3,293.3,35.8,292.9z M40.1,295.2c-0.3-0.5-0.6-0.9-1.1-1.1c-0.5-0.3-1-0.4-1.5-0.4
					c-0.5,0-1,0.1-1.5,0.4c-0.5,0.3-0.8,0.6-1.1,1.1s-0.4,1.1-0.4,1.7c0,0.7,0.1,1.2,0.4,1.7s0.6,0.9,1.1,1.1
					c0.5,0.3,0.9,0.4,1.5,0.4c0.5,0,1-0.1,1.5-0.4c0.5-0.3,0.8-0.6,1.1-1.1c0.3-0.5,0.4-1.1,0.4-1.8
					C40.5,296.3,40.4,295.7,40.1,295.2z"/>
				<path class="st4" d="M43.9,294.6c0.4-0.7,0.9-1.2,1.5-1.6c0.6-0.4,1.3-0.6,2.1-0.6c0.8,0,1.4,0.2,2,0.5c0.6,0.3,1,0.7,1.3,1.2
					v-1.6h1.5v8.8h-1.5v-1.6c-0.3,0.5-0.7,0.9-1.3,1.3c-0.6,0.3-1.2,0.5-2,0.5c-0.8,0-1.5-0.2-2.1-0.6c-0.6-0.4-1.1-0.9-1.5-1.6
					s-0.5-1.5-0.5-2.4C43.4,296,43.5,295.3,43.9,294.6z M50.4,295.2c-0.3-0.5-0.6-0.9-1.1-1.1c-0.5-0.3-1-0.4-1.5-0.4
					c-0.5,0-1,0.1-1.5,0.4c-0.4,0.3-0.8,0.6-1.1,1.1c-0.3,0.5-0.4,1.1-0.4,1.7c0,0.7,0.1,1.3,0.4,1.8c0.3,0.5,0.6,0.9,1.1,1.1
					c0.4,0.3,0.9,0.4,1.5,0.4c0.5,0,1-0.1,1.5-0.4c0.5-0.3,0.8-0.6,1.1-1.1s0.4-1.1,0.4-1.7C50.8,296.3,50.7,295.7,50.4,295.2z"/>
				<path class="st4" d="M57.3,292.8c0.5-0.3,1.1-0.4,1.7-0.4v1.5h-0.4c-1.6,0-2.4,0.9-2.4,2.7v4.8h-1.5v-8.8h1.5v1.4
					C56.4,293.5,56.8,293.1,57.3,292.8z"/>
				<path class="st4" d="M60.7,294.6c0.4-0.7,0.9-1.2,1.5-1.6c0.6-0.4,1.3-0.6,2.1-0.6c0.8,0,1.4,0.2,2,0.5c0.6,0.3,1,0.7,1.3,1.2
					v-1.6H69v8.8h-1.5v-1.6c-0.3,0.5-0.7,0.9-1.3,1.3c-0.6,0.3-1.2,0.5-2,0.5c-0.8,0-1.5-0.2-2.1-0.6c-0.6-0.4-1.1-0.9-1.5-1.6
					s-0.5-1.5-0.5-2.4C60.1,296,60.3,295.3,60.7,294.6z M67.2,295.2c-0.3-0.5-0.6-0.9-1.1-1.1c-0.5-0.3-1-0.4-1.5-0.4
					c-0.5,0-1,0.1-1.5,0.4c-0.4,0.3-0.8,0.6-1.1,1.1c-0.3,0.5-0.4,1.1-0.4,1.7c0,0.7,0.1,1.3,0.4,1.8c0.3,0.5,0.6,0.9,1.1,1.1
					c0.4,0.3,0.9,0.4,1.5,0.4c0.5,0,1-0.1,1.5-0.4c0.5-0.3,0.8-0.6,1.1-1.1s0.4-1.1,0.4-1.7C67.6,296.3,67.4,295.7,67.2,295.2z"/>
				<path class="st4" d="M75.8,294.6c0.4-0.7,0.9-1.2,1.5-1.6c0.6-0.4,1.3-0.6,2.1-0.6c0.7,0,1.3,0.2,1.9,0.5c0.6,0.3,1,0.7,1.3,1.2
					v-4.6h1.5v11.8h-1.5v-1.6c-0.3,0.5-0.7,1-1.3,1.3s-1.2,0.5-2,0.5c-0.8,0-1.5-0.2-2.1-0.6c-0.6-0.4-1.1-0.9-1.5-1.6
					s-0.5-1.5-0.5-2.4C75.2,296,75.4,295.3,75.8,294.6z M82.3,295.2c-0.3-0.5-0.6-0.9-1.1-1.1c-0.5-0.3-1-0.4-1.5-0.4
					c-0.5,0-1,0.1-1.5,0.4c-0.4,0.3-0.8,0.6-1.1,1.1c-0.3,0.5-0.4,1.1-0.4,1.7c0,0.7,0.1,1.3,0.4,1.8c0.3,0.5,0.6,0.9,1.1,1.1
					c0.4,0.3,0.9,0.4,1.5,0.4c0.5,0,1-0.1,1.5-0.4c0.5-0.3,0.8-0.6,1.1-1.1s0.4-1.1,0.4-1.7C82.7,296.3,82.5,295.7,82.3,295.2z"/>
				<path class="st4" d="M94.5,297.5h-7c0.1,0.9,0.3,1.5,0.9,2c0.5,0.5,1.2,0.7,2,0.7c0.6,0,1.2-0.1,1.6-0.4
					c0.4-0.3,0.7-0.7,0.9-1.2h1.6c-0.2,0.8-0.7,1.5-1.4,2.1c-0.7,0.5-1.6,0.8-2.6,0.8c-0.8,0-1.6-0.2-2.2-0.6
					c-0.7-0.4-1.2-0.9-1.5-1.6c-0.4-0.7-0.6-1.5-0.6-2.4c0-0.9,0.2-1.7,0.5-2.4s0.9-1.2,1.5-1.6c0.7-0.4,1.4-0.6,2.3-0.6
					c0.8,0,1.6,0.2,2.2,0.5c0.6,0.4,1.1,0.9,1.5,1.5s0.5,1.4,0.5,2.2C94.6,296.9,94.6,297.2,94.5,297.5z M92.7,294.9
					c-0.2-0.4-0.6-0.7-1-0.9s-0.9-0.3-1.4-0.3c-0.7,0-1.4,0.2-1.9,0.7c-0.5,0.5-0.8,1.1-0.9,2h5.5C93.1,295.8,93,295.3,92.7,294.9z"
					/>
				<path class="st4" d="M98.3,293.8v5.2c0,0.4,0.1,0.7,0.3,0.9c0.2,0.2,0.5,0.3,0.9,0.3h1.1v1.2h-1.3c-0.8,0-1.4-0.2-1.8-0.6
					c-0.4-0.4-0.6-1-0.6-1.8v-5.2h-1.1v-1.2h1.1v-2.2h1.5v2.2h2.3v1.2H98.3z"/>
				<path class="st4" d="M110.3,297.5h-7c0.1,0.9,0.3,1.5,0.9,2c0.5,0.5,1.2,0.7,2,0.7c0.6,0,1.2-0.1,1.6-0.4
					c0.4-0.3,0.7-0.7,0.9-1.2h1.6c-0.2,0.8-0.7,1.5-1.4,2.1c-0.7,0.5-1.6,0.8-2.6,0.8c-0.8,0-1.6-0.2-2.2-0.6
					c-0.7-0.4-1.2-0.9-1.5-1.6c-0.4-0.7-0.6-1.5-0.6-2.4c0-0.9,0.2-1.7,0.5-2.4s0.9-1.2,1.5-1.6c0.7-0.4,1.4-0.6,2.3-0.6
					c0.8,0,1.6,0.2,2.2,0.5c0.6,0.4,1.1,0.9,1.5,1.5s0.5,1.4,0.5,2.2C110.3,296.9,110.3,297.2,110.3,297.5z M108.5,294.9
					c-0.2-0.4-0.6-0.7-1-0.9s-0.9-0.3-1.4-0.3c-0.7,0-1.4,0.2-1.9,0.7c-0.5,0.5-0.8,1.1-0.9,2h5.5
					C108.8,295.8,108.7,295.3,108.5,294.9z"/>
				<path class="st4" d="M112.3,294.6c0.4-0.7,0.9-1.2,1.5-1.6c0.6-0.4,1.4-0.6,2.2-0.6c1.1,0,2,0.3,2.7,0.8
					c0.7,0.5,1.2,1.2,1.4,2.2h-1.6c-0.1-0.5-0.4-1-0.9-1.3c-0.4-0.3-1-0.5-1.6-0.5c-0.8,0-1.5,0.3-2,0.9c-0.5,0.6-0.8,1.4-0.8,2.4
					c0,1.1,0.3,1.9,0.8,2.4c0.5,0.6,1.2,0.9,2,0.9c0.6,0,1.2-0.1,1.6-0.4c0.4-0.3,0.7-0.7,0.9-1.3h1.6c-0.2,0.9-0.7,1.6-1.4,2.2
					c-0.7,0.5-1.6,0.8-2.6,0.8c-0.8,0-1.6-0.2-2.2-0.6c-0.6-0.4-1.1-0.9-1.5-1.6s-0.5-1.5-0.5-2.4
					C111.7,296.1,111.9,295.3,112.3,294.6z"/>
				<path class="st4" d="M123.7,293.8v5.2c0,0.4,0.1,0.7,0.3,0.9c0.2,0.2,0.5,0.3,0.9,0.3h1.1v1.2h-1.3c-0.8,0-1.4-0.2-1.8-0.6
					c-0.4-0.4-0.6-1-0.6-1.8v-5.2h-1.1v-1.2h1.1v-2.2h1.5v2.2h2.3v1.2H123.7z"/>
				<path class="st4" d="M127.8,294.6c0.4-0.7,0.9-1.2,1.5-1.6c0.6-0.4,1.3-0.6,2.1-0.6c0.8,0,1.4,0.2,2,0.5c0.6,0.3,1,0.7,1.3,1.2
					v-1.6h1.5v8.8h-1.5v-1.6c-0.3,0.5-0.7,0.9-1.3,1.3c-0.6,0.3-1.2,0.5-2,0.5c-0.8,0-1.5-0.2-2.1-0.6c-0.6-0.4-1.1-0.9-1.5-1.6
					s-0.5-1.5-0.5-2.4C127.2,296,127.4,295.3,127.8,294.6z M134.3,295.2c-0.3-0.5-0.6-0.9-1.1-1.1c-0.5-0.3-1-0.4-1.5-0.4
					c-0.5,0-1,0.1-1.5,0.4c-0.4,0.3-0.8,0.6-1.1,1.1c-0.3,0.5-0.4,1.1-0.4,1.7c0,0.7,0.1,1.3,0.4,1.8c0.3,0.5,0.6,0.9,1.1,1.1
					c0.4,0.3,0.9,0.4,1.5,0.4c0.5,0,1-0.1,1.5-0.4c0.5-0.3,0.8-0.6,1.1-1.1s0.4-1.1,0.4-1.7C134.7,296.3,134.5,295.7,134.3,295.2z"
					/>
				<path class="st4" d="M141.2,292.8c0.5-0.3,1.1-0.4,1.7-0.4v1.5h-0.4c-1.6,0-2.4,0.9-2.4,2.7v4.8h-1.5v-8.8h1.5v1.4
					C140.3,293.5,140.7,293.1,141.2,292.8z"/>
				<path class="st4" d="M151.6,292.9c0.6-0.3,1.2-0.5,2-0.5c0.8,0,1.5,0.2,2.1,0.6c0.6,0.4,1.1,0.9,1.5,1.6
					c0.4,0.7,0.5,1.5,0.5,2.4c0,0.9-0.2,1.7-0.5,2.4c-0.4,0.7-0.9,1.2-1.5,1.6c-0.6,0.4-1.3,0.6-2.1,0.6c-0.7,0-1.4-0.2-2-0.5
					c-0.6-0.3-1-0.8-1.3-1.3v5.8h-1.5v-12.9h1.5v1.6C150.6,293.7,151,293.3,151.6,292.9z M155.9,295.2c-0.3-0.5-0.6-0.9-1.1-1.1
					c-0.5-0.3-1-0.4-1.5-0.4c-0.5,0-1,0.1-1.5,0.4s-0.8,0.6-1.1,1.1c-0.3,0.5-0.4,1.1-0.4,1.7c0,0.7,0.1,1.2,0.4,1.7
					c0.3,0.5,0.6,0.9,1.1,1.1c0.5,0.3,0.9,0.4,1.5,0.4c0.5,0,1-0.1,1.5-0.4c0.5-0.3,0.8-0.6,1.1-1.1c0.3-0.5,0.4-1.1,0.4-1.8
					C156.3,296.3,156.1,295.7,155.9,295.2z"/>
				<path class="st4" d="M159.7,294.6c0.4-0.7,0.9-1.2,1.5-1.6c0.6-0.4,1.3-0.6,2.1-0.6c0.8,0,1.4,0.2,2,0.5c0.6,0.3,1,0.7,1.3,1.2
					v-1.6h1.5v8.8h-1.5v-1.6c-0.3,0.5-0.7,0.9-1.3,1.3s-1.2,0.5-2,0.5c-0.8,0-1.5-0.2-2.1-0.6c-0.6-0.4-1.1-0.9-1.5-1.6
					c-0.4-0.7-0.5-1.5-0.5-2.4C159.1,296,159.3,295.3,159.7,294.6z M166.1,295.2c-0.3-0.5-0.6-0.9-1.1-1.1c-0.5-0.3-1-0.4-1.5-0.4
					c-0.5,0-1,0.1-1.5,0.4s-0.8,0.6-1.1,1.1c-0.3,0.5-0.4,1.1-0.4,1.7c0,0.7,0.1,1.3,0.4,1.8s0.6,0.9,1.1,1.1
					c0.4,0.3,0.9,0.4,1.5,0.4c0.5,0,1-0.1,1.5-0.4c0.5-0.3,0.8-0.6,1.1-1.1s0.4-1.1,0.4-1.7C166.5,296.3,166.4,295.7,166.1,295.2z"
					/>
				<path class="st4" d="M172.3,293.8v5.2c0,0.4,0.1,0.7,0.3,0.9c0.2,0.2,0.5,0.3,0.9,0.3h1.1v1.2h-1.3c-0.8,0-1.4-0.2-1.8-0.6
					c-0.4-0.4-0.6-1-0.6-1.8v-5.2h-1.1v-1.2h1.1v-2.2h1.5v2.2h2.3v1.2H172.3z"/>
				<path class="st4" d="M177.9,300.9c-0.7-0.4-1.2-0.9-1.6-1.6c-0.4-0.7-0.6-1.5-0.6-2.4c0-0.9,0.2-1.7,0.6-2.4
					c0.4-0.7,0.9-1.2,1.6-1.6c0.7-0.4,1.4-0.6,2.3-0.6s1.6,0.2,2.3,0.6c0.7,0.4,1.2,0.9,1.6,1.6s0.6,1.5,0.6,2.4
					c0,0.9-0.2,1.7-0.6,2.4c-0.4,0.7-0.9,1.2-1.6,1.6c-0.7,0.4-1.4,0.6-2.3,0.6C179.3,301.5,178.6,301.3,177.9,300.9z M181.6,299.9
					c0.5-0.2,0.8-0.6,1.1-1.1c0.3-0.5,0.4-1.1,0.4-1.8c0-0.7-0.1-1.3-0.4-1.8c-0.3-0.5-0.6-0.9-1.1-1.1s-0.9-0.4-1.5-0.4
					c-0.5,0-1,0.1-1.5,0.4s-0.8,0.6-1.1,1.1c-0.3,0.5-0.4,1.1-0.4,1.8c0,0.7,0.1,1.3,0.4,1.8c0.3,0.5,0.6,0.9,1,1.1
					c0.4,0.2,0.9,0.4,1.4,0.4S181.1,300.1,181.6,299.9z"/>
				<path class="st4" d="M188,289.5v11.8h-1.5v-11.8H188z"/>
				<path class="st4" d="M192.1,300.9c-0.7-0.4-1.2-0.9-1.6-1.6c-0.4-0.7-0.6-1.5-0.6-2.4c0-0.9,0.2-1.7,0.6-2.4
					c0.4-0.7,0.9-1.2,1.6-1.6c0.7-0.4,1.4-0.6,2.3-0.6s1.6,0.2,2.3,0.6c0.7,0.4,1.2,0.9,1.6,1.6s0.6,1.5,0.6,2.4
					c0,0.9-0.2,1.7-0.6,2.4c-0.4,0.7-0.9,1.2-1.6,1.6c-0.7,0.4-1.4,0.6-2.3,0.6C193.5,301.5,192.7,301.3,192.1,300.9z M195.8,299.9
					c0.5-0.2,0.8-0.6,1.1-1.1c0.3-0.5,0.4-1.1,0.4-1.8c0-0.7-0.1-1.3-0.4-1.8c-0.3-0.5-0.6-0.9-1.1-1.1s-0.9-0.4-1.5-0.4
					c-0.5,0-1,0.1-1.5,0.4s-0.8,0.6-1.1,1.1c-0.3,0.5-0.4,1.1-0.4,1.8c0,0.7,0.1,1.3,0.4,1.8c0.3,0.5,0.6,0.9,1,1.1
					c0.4,0.2,0.9,0.4,1.4,0.4S195.3,300.1,195.8,299.9z"/>
				<path class="st4" d="M206.3,292.9c0.6,0.3,1,0.7,1.3,1.2v-1.6h1.5v9c0,0.8-0.2,1.5-0.5,2.1c-0.3,0.6-0.8,1.1-1.5,1.5
					s-1.4,0.5-2.2,0.5c-1.2,0-2.1-0.3-2.9-0.8c-0.8-0.5-1.2-1.3-1.4-2.2h1.4c0.2,0.5,0.5,1,1,1.3c0.5,0.3,1.1,0.5,1.8,0.5
					c0.8,0,1.5-0.3,2-0.8c0.5-0.5,0.8-1.2,0.8-2.1v-1.8c-0.3,0.5-0.7,0.9-1.3,1.3c-0.6,0.3-1.2,0.5-2,0.5c-0.8,0-1.5-0.2-2.1-0.6
					c-0.6-0.4-1.1-0.9-1.5-1.6c-0.4-0.7-0.5-1.5-0.5-2.4c0-0.9,0.2-1.7,0.5-2.4c0.4-0.7,0.9-1.2,1.5-1.6c0.6-0.4,1.3-0.6,2.1-0.6
					C205.1,292.4,205.8,292.6,206.3,292.9z M207.2,295.2c-0.3-0.5-0.6-0.9-1.1-1.1c-0.5-0.3-1-0.4-1.5-0.4c-0.5,0-1,0.1-1.5,0.4
					s-0.8,0.6-1.1,1.1c-0.3,0.5-0.4,1.1-0.4,1.7c0,0.7,0.1,1.3,0.4,1.8s0.6,0.9,1.1,1.1c0.4,0.3,0.9,0.4,1.5,0.4
					c0.5,0,1-0.1,1.5-0.4c0.5-0.3,0.8-0.6,1.1-1.1s0.4-1.1,0.4-1.7C207.6,296.3,207.5,295.7,207.2,295.2z"/>
				<path class="st4" d="M213.8,290.1l-3.4,1.8v-1.1l3.4-2V290.1z M213,292.6v8.8h-1.5v-8.8H213z"/>
				<path class="st4" d="M215.5,294.6c0.4-0.7,0.9-1.2,1.5-1.6c0.6-0.4,1.3-0.6,2.1-0.6c0.8,0,1.4,0.2,2,0.5c0.6,0.3,1,0.7,1.3,1.2
					v-1.6h1.5v8.8h-1.5v-1.6c-0.3,0.5-0.7,0.9-1.3,1.3c-0.6,0.3-1.2,0.5-2,0.5c-0.8,0-1.5-0.2-2.1-0.6c-0.6-0.4-1.1-0.9-1.5-1.6
					c-0.4-0.7-0.5-1.5-0.5-2.4C214.9,296,215.1,295.3,215.5,294.6z M222,295.2c-0.3-0.5-0.6-0.9-1.1-1.1s-1-0.4-1.5-0.4
					s-1,0.1-1.5,0.4c-0.4,0.3-0.8,0.6-1.1,1.1c-0.3,0.5-0.4,1.1-0.4,1.7c0,0.7,0.1,1.3,0.4,1.8c0.3,0.5,0.6,0.9,1.1,1.1
					c0.4,0.3,0.9,0.4,1.5,0.4s1-0.1,1.5-0.4c0.5-0.3,0.8-0.6,1.1-1.1s0.4-1.1,0.4-1.7C222.3,296.3,222.2,295.7,222,295.2z"/>
				<path class="st4" d="M227.6,301.2c-0.5-0.2-1-0.5-1.3-1c-0.3-0.4-0.5-0.9-0.5-1.4h1.5c0,0.4,0.2,0.8,0.6,1.1s0.9,0.4,1.4,0.4
					c0.6,0,1-0.1,1.3-0.4s0.5-0.6,0.5-0.9c0-0.4-0.2-0.7-0.5-0.9s-0.9-0.4-1.6-0.6c-0.7-0.2-1.2-0.3-1.6-0.5
					c-0.4-0.2-0.8-0.4-1.1-0.8c-0.3-0.3-0.4-0.8-0.4-1.4c0-0.4,0.1-0.9,0.4-1.2c0.3-0.4,0.6-0.7,1.1-0.9c0.5-0.2,1.1-0.3,1.7-0.3
					c1,0,1.8,0.2,2.4,0.7c0.6,0.5,0.9,1.2,1,2h-1.5c0-0.5-0.2-0.8-0.6-1.1c-0.3-0.3-0.8-0.4-1.4-0.4c-0.5,0-0.9,0.1-1.2,0.3
					c-0.3,0.2-0.5,0.5-0.5,0.9c0,0.3,0.1,0.5,0.3,0.7c0.2,0.2,0.4,0.3,0.7,0.4c0.3,0.1,0.7,0.2,1.2,0.4c0.6,0.2,1.1,0.3,1.5,0.5
					c0.4,0.2,0.7,0.4,1,0.7c0.3,0.3,0.4,0.8,0.4,1.3c0,0.5-0.1,0.9-0.4,1.3s-0.6,0.7-1.1,0.9c-0.5,0.2-1,0.3-1.7,0.3
					C228.7,301.5,228.1,301.4,227.6,301.2z"/>
			</g>
			<g class="st2">
				<path class="st4" d="M83.1,316.9c0.6,0.3,1,0.7,1.3,1.2v-1.6h1.5v9c0,0.8-0.2,1.5-0.5,2.1s-0.8,1.1-1.5,1.5s-1.4,0.5-2.2,0.5
					c-1.2,0-2.1-0.3-2.9-0.8c-0.8-0.5-1.2-1.3-1.4-2.2h1.4c0.2,0.5,0.5,1,1,1.3c0.5,0.3,1.1,0.5,1.8,0.5c0.8,0,1.5-0.3,2-0.8
					c0.5-0.5,0.8-1.2,0.8-2.1v-1.8c-0.3,0.5-0.7,0.9-1.3,1.3c-0.6,0.3-1.2,0.5-2,0.5c-0.8,0-1.5-0.2-2.1-0.6
					c-0.6-0.4-1.1-0.9-1.5-1.6s-0.5-1.5-0.5-2.4c0-0.9,0.2-1.7,0.5-2.4c0.4-0.7,0.9-1.2,1.5-1.6c0.6-0.4,1.3-0.6,2.1-0.6
					C81.9,316.4,82.6,316.6,83.1,316.9z M84,319.2c-0.3-0.5-0.6-0.9-1.1-1.1c-0.5-0.3-1-0.4-1.5-0.4c-0.5,0-1,0.1-1.5,0.4
					c-0.4,0.3-0.8,0.6-1.1,1.1c-0.3,0.5-0.4,1.1-0.4,1.7c0,0.7,0.1,1.3,0.4,1.8c0.3,0.5,0.6,0.9,1.1,1.1c0.4,0.3,0.9,0.4,1.5,0.4
					c0.5,0,1-0.1,1.5-0.4c0.5-0.3,0.8-0.6,1.1-1.1s0.4-1.1,0.4-1.7C84.4,320.3,84.3,319.7,84,319.2z"/>
				<path class="st4" d="M88.4,314.9c-0.2-0.2-0.3-0.4-0.3-0.7s0.1-0.5,0.3-0.7c0.2-0.2,0.4-0.3,0.7-0.3c0.3,0,0.5,0.1,0.7,0.3
					c0.2,0.2,0.3,0.4,0.3,0.7s-0.1,0.5-0.3,0.7c-0.2,0.2-0.4,0.3-0.7,0.3C88.8,315.2,88.6,315.1,88.4,314.9z M89.8,316.6v8.8h-1.5
					v-8.8H89.8z"/>
				<path class="st4" d="M99.1,317.4c0.7,0.6,1,1.6,1,2.8v5.2h-1.4v-5c0-0.9-0.2-1.5-0.7-2c-0.4-0.5-1-0.7-1.8-0.7
					c-0.8,0-1.4,0.2-1.8,0.7c-0.5,0.5-0.7,1.2-0.7,2.1v4.8h-1.5v-8.8h1.5v1.2c0.3-0.4,0.7-0.8,1.2-1c0.5-0.2,1-0.4,1.6-0.4
					C97.6,316.4,98.5,316.8,99.1,317.4z"/>
				<path class="st4" d="M110.5,321.5h-7c0.1,0.9,0.3,1.5,0.9,2c0.5,0.5,1.2,0.7,2,0.7c0.6,0,1.2-0.1,1.6-0.4
					c0.4-0.3,0.7-0.7,0.9-1.2h1.6c-0.2,0.8-0.7,1.5-1.4,2.1c-0.7,0.5-1.6,0.8-2.6,0.8c-0.8,0-1.6-0.2-2.2-0.6
					c-0.7-0.4-1.2-0.9-1.5-1.6c-0.4-0.7-0.6-1.5-0.6-2.4c0-0.9,0.2-1.7,0.5-2.4s0.9-1.2,1.5-1.6c0.7-0.4,1.4-0.6,2.3-0.6
					c0.8,0,1.6,0.2,2.2,0.5c0.6,0.4,1.1,0.9,1.5,1.5s0.5,1.4,0.5,2.2C110.5,320.9,110.5,321.2,110.5,321.5z M108.6,318.9
					c-0.2-0.4-0.6-0.7-1-0.9s-0.9-0.3-1.4-0.3c-0.7,0-1.4,0.2-1.9,0.7c-0.5,0.5-0.8,1.1-0.9,2h5.5
					C109,319.8,108.9,319.3,108.6,318.9z"/>
				<path class="st4" d="M112.4,318.6c0.4-0.7,0.9-1.2,1.5-1.6c0.6-0.4,1.4-0.6,2.2-0.6c1.1,0,2,0.3,2.7,0.8
					c0.7,0.5,1.2,1.2,1.4,2.2h-1.6c-0.1-0.5-0.4-1-0.9-1.3c-0.4-0.3-1-0.5-1.6-0.5c-0.8,0-1.5,0.3-2,0.9c-0.5,0.6-0.8,1.4-0.8,2.4
					c0,1.1,0.3,1.9,0.8,2.4c0.5,0.6,1.2,0.9,2,0.9c0.6,0,1.2-0.1,1.6-0.4c0.4-0.3,0.7-0.7,0.9-1.3h1.6c-0.2,0.9-0.7,1.6-1.4,2.2
					c-0.7,0.5-1.6,0.8-2.6,0.8c-0.8,0-1.6-0.2-2.2-0.6c-0.6-0.4-1.1-0.9-1.5-1.6s-0.5-1.5-0.5-2.4
					C111.9,320.1,112.1,319.3,112.4,318.6z"/>
				<path class="st4" d="M123.7,324.9c-0.7-0.4-1.2-0.9-1.6-1.6c-0.4-0.7-0.6-1.5-0.6-2.4c0-0.9,0.2-1.7,0.6-2.4
					c0.4-0.7,0.9-1.2,1.6-1.6c0.7-0.4,1.4-0.6,2.3-0.6s1.6,0.2,2.3,0.6c0.7,0.4,1.2,0.9,1.6,1.6c0.4,0.7,0.6,1.5,0.6,2.4
					c0,0.9-0.2,1.7-0.6,2.4c-0.4,0.7-0.9,1.2-1.6,1.6c-0.7,0.4-1.4,0.6-2.3,0.6C125.2,325.5,124.4,325.3,123.7,324.9z M127.4,323.9
					c0.5-0.2,0.8-0.6,1.1-1.1c0.3-0.5,0.4-1.1,0.4-1.8c0-0.7-0.1-1.3-0.4-1.8c-0.3-0.5-0.6-0.9-1.1-1.1c-0.4-0.2-0.9-0.4-1.5-0.4
					c-0.5,0-1,0.1-1.5,0.4c-0.4,0.2-0.8,0.6-1.1,1.1c-0.3,0.5-0.4,1.1-0.4,1.8c0,0.7,0.1,1.3,0.4,1.8s0.6,0.9,1,1.1
					c0.4,0.2,0.9,0.4,1.4,0.4C126.5,324.2,127,324.1,127.4,323.9z"/>
				<path class="st4" d="M133.8,313.5v11.8h-1.5v-11.8H133.8z"/>
				<path class="st4" d="M137.9,324.9c-0.7-0.4-1.2-0.9-1.6-1.6c-0.4-0.7-0.6-1.5-0.6-2.4c0-0.9,0.2-1.7,0.6-2.4
					c0.4-0.7,0.9-1.2,1.6-1.6c0.7-0.4,1.4-0.6,2.3-0.6s1.6,0.2,2.3,0.6c0.7,0.4,1.2,0.9,1.6,1.6s0.6,1.5,0.6,2.4
					c0,0.9-0.2,1.7-0.6,2.4c-0.4,0.7-0.9,1.2-1.6,1.6c-0.7,0.4-1.4,0.6-2.3,0.6C139.3,325.5,138.6,325.3,137.9,324.9z M141.6,323.9
					c0.5-0.2,0.8-0.6,1.1-1.1c0.3-0.5,0.4-1.1,0.4-1.8c0-0.7-0.1-1.3-0.4-1.8c-0.3-0.5-0.6-0.9-1.1-1.1c-0.4-0.2-0.9-0.4-1.5-0.4
					c-0.5,0-1,0.1-1.5,0.4c-0.4,0.2-0.8,0.6-1.1,1.1c-0.3,0.5-0.4,1.1-0.4,1.8c0,0.7,0.1,1.3,0.4,1.8c0.3,0.5,0.6,0.9,1,1.1
					c0.4,0.2,0.9,0.4,1.4,0.4C140.7,324.2,141.2,324.1,141.6,323.9z M141.8,314l-3.4,1.8v-1.1l3.4-2V314z"/>
				<path class="st4" d="M152.2,316.9c0.6,0.3,1,0.7,1.3,1.2v-1.6h1.5v9c0,0.8-0.2,1.5-0.5,2.1s-0.8,1.1-1.5,1.5s-1.4,0.5-2.2,0.5
					c-1.2,0-2.1-0.3-2.9-0.8s-1.2-1.3-1.4-2.2h1.4c0.2,0.5,0.5,1,1,1.3c0.5,0.3,1.1,0.5,1.8,0.5c0.8,0,1.5-0.3,2-0.8
					c0.5-0.5,0.8-1.2,0.8-2.1v-1.8c-0.3,0.5-0.7,0.9-1.3,1.3c-0.6,0.3-1.2,0.5-2,0.5c-0.8,0-1.5-0.2-2.1-0.6
					c-0.6-0.4-1.1-0.9-1.5-1.6s-0.5-1.5-0.5-2.4c0-0.9,0.2-1.7,0.5-2.4c0.4-0.7,0.9-1.2,1.5-1.6c0.6-0.4,1.3-0.6,2.1-0.6
					C150.9,316.4,151.6,316.6,152.2,316.9z M153,319.2c-0.3-0.5-0.6-0.9-1.1-1.1c-0.5-0.3-1-0.4-1.5-0.4s-1,0.1-1.5,0.4
					s-0.8,0.6-1.1,1.1c-0.3,0.5-0.4,1.1-0.4,1.7c0,0.7,0.1,1.3,0.4,1.8c0.3,0.5,0.6,0.9,1.1,1.1c0.4,0.3,0.9,0.4,1.5,0.4
					s1-0.1,1.5-0.4c0.5-0.3,0.8-0.6,1.1-1.1c0.3-0.5,0.4-1.1,0.4-1.7C153.4,320.3,153.3,319.7,153,319.2z"/>
				<path class="st4" d="M157.4,314.9c-0.2-0.2-0.3-0.4-0.3-0.7s0.1-0.5,0.3-0.7c0.2-0.2,0.4-0.3,0.7-0.3c0.3,0,0.5,0.1,0.7,0.3
					c0.2,0.2,0.3,0.4,0.3,0.7s-0.1,0.5-0.3,0.7c-0.2,0.2-0.4,0.3-0.7,0.3C157.9,315.2,157.6,315.1,157.4,314.9z M158.8,316.6v8.8
					h-1.5v-8.8H158.8z"/>
				<path class="st4" d="M161.3,318.6c0.4-0.7,0.9-1.2,1.5-1.6c0.6-0.4,1.4-0.6,2.2-0.6c1.1,0,2,0.3,2.7,0.8
					c0.7,0.5,1.2,1.2,1.4,2.2h-1.6c-0.1-0.5-0.4-1-0.9-1.3c-0.4-0.3-1-0.5-1.6-0.5c-0.8,0-1.5,0.3-2,0.9c-0.5,0.6-0.8,1.4-0.8,2.4
					c0,1.1,0.3,1.9,0.8,2.4s1.2,0.9,2,0.9c0.6,0,1.2-0.1,1.6-0.4s0.7-0.7,0.9-1.3h1.6c-0.2,0.9-0.7,1.6-1.4,2.2
					c-0.7,0.5-1.6,0.8-2.6,0.8c-0.8,0-1.6-0.2-2.2-0.6c-0.6-0.4-1.2-0.9-1.5-1.6s-0.5-1.5-0.5-2.4
					C160.8,320.1,161,319.3,161.3,318.6z"/>
				<path class="st4" d="M171,318.6c0.4-0.7,0.9-1.2,1.5-1.6c0.6-0.4,1.3-0.6,2.1-0.6c0.8,0,1.4,0.2,2,0.5c0.6,0.3,1,0.7,1.3,1.2
					v-1.6h1.5v8.8h-1.5v-1.6c-0.3,0.5-0.7,0.9-1.3,1.3s-1.2,0.5-2,0.5c-0.8,0-1.5-0.2-2.1-0.6c-0.6-0.4-1.1-0.9-1.5-1.6
					s-0.5-1.5-0.5-2.4C170.5,320,170.7,319.3,171,318.6z M177.5,319.2c-0.3-0.5-0.6-0.9-1.1-1.1s-1-0.4-1.5-0.4
					c-0.5,0-1,0.1-1.5,0.4c-0.4,0.3-0.8,0.6-1.1,1.1c-0.3,0.5-0.4,1.1-0.4,1.7c0,0.7,0.1,1.3,0.4,1.8s0.6,0.9,1.1,1.1
					c0.4,0.3,0.9,0.4,1.5,0.4c0.5,0,1-0.1,1.5-0.4c0.5-0.3,0.8-0.6,1.1-1.1c0.3-0.5,0.4-1.1,0.4-1.7
					C177.9,320.3,177.8,319.7,177.5,319.2z"/>
				<path class="st4" d="M183.1,325.2c-0.5-0.2-1-0.5-1.3-1c-0.3-0.4-0.5-0.9-0.5-1.4h1.5c0,0.4,0.2,0.8,0.6,1.1s0.9,0.4,1.4,0.4
					c0.6,0,1-0.1,1.3-0.4c0.3-0.2,0.5-0.6,0.5-0.9c0-0.4-0.2-0.7-0.5-0.9s-0.9-0.4-1.6-0.6c-0.7-0.2-1.2-0.3-1.6-0.5
					c-0.4-0.2-0.8-0.4-1.1-0.8c-0.3-0.3-0.4-0.8-0.4-1.4c0-0.4,0.1-0.9,0.4-1.2c0.3-0.4,0.6-0.7,1.1-0.9s1.1-0.3,1.7-0.3
					c1,0,1.8,0.2,2.4,0.7s0.9,1.2,1,2h-1.5c0-0.5-0.2-0.8-0.6-1.1c-0.3-0.3-0.8-0.4-1.4-0.4c-0.5,0-0.9,0.1-1.2,0.3
					c-0.3,0.2-0.5,0.5-0.5,0.9c0,0.3,0.1,0.5,0.3,0.7c0.2,0.2,0.4,0.3,0.7,0.4c0.3,0.1,0.7,0.2,1.2,0.4c0.6,0.2,1.1,0.3,1.5,0.5
					s0.7,0.4,1,0.7c0.3,0.3,0.4,0.8,0.4,1.3c0,0.5-0.1,0.9-0.4,1.3c-0.3,0.4-0.6,0.7-1.1,0.9c-0.5,0.2-1,0.3-1.7,0.3
					C184.3,325.5,183.7,325.4,183.1,325.2z"/>
			</g>
		</g>
	</g>
	<path class="st5" d="M162.8,52.7c-0.4-0.8-1.3-1.2-2.2-0.8c-3.4,1.4-12.4,4.7-22,4.7s-18.6-3.3-22-4.7c-0.8-0.3-1.8,0-2.2,0.8
		L99.6,85.1c-0.8,1.8,0,3.8,1.8,4.6c5.5,2.4,18.1,6.8,37.3,6.8s31.8-4.4,37.3-6.8c1.8-0.8,2.6-2.9,1.8-4.6L162.8,52.7z"/>
	<g>
		<line class="st6" x1="87.3" y1="103.8" x2="87.3" y2="36.2"/>
		<line class="st6" x1="92.8" y1="103.8" x2="87.3" y2="103.8"/>
		<line class="st6" x1="95.3" y1="94.1" x2="87.3" y2="94.1"/>
		<line class="st6" x1="92.8" y1="84.4" x2="87.3" y2="84.4"/>
		<line class="st6" x1="95.3" y1="74.8" x2="87.3" y2="74.8"/>
		<line class="st6" x1="92.8" y1="65.1" x2="87.3" y2="65.1"/>
		<line class="st6" x1="95.3" y1="55.4" x2="87.3" y2="55.4"/>
		<line class="st6" x1="92.8" y1="45.7" x2="87.3" y2="45.7"/>
		<line class="st6" x1="174.2" y1="36.2" x2="87.3" y2="36.2"/>
		<line class="st6" x1="154.9" y1="41.7" x2="154.9" y2="36.2"/>
		<line class="st6" x1="174.2" y1="41.7" x2="174.2" y2="36.2"/>
		<line class="st6" x1="145.2" y1="44.3" x2="145.2" y2="36.2"/>
		<line class="st6" x1="164.6" y1="44.3" x2="164.6" y2="36.2"/>
		<line class="st6" x1="135.5" y1="41.7" x2="135.5" y2="36.2"/>
		<line class="st6" x1="125.8" y1="44.3" x2="125.8" y2="36.2"/>
		<line class="st6" x1="116.1" y1="41.7" x2="116.1" y2="36.2"/>
		<line class="st6" x1="106.5" y1="44.3" x2="106.5" y2="36.2"/>
		<line class="st6" x1="96.8" y1="41.7" x2="96.8" y2="36.2"/>
		<g>
			<line class="st6" x1="161" y1="103.8" x2="177.9" y2="103.8"/>
			<line class="st6" x1="167.6" y1="98.9" x2="177.9" y2="98.9"/>
		</g>
	</g>
	<g>
		<circle class="st7" cx="135.4" cy="79.7" r="9.5"/>
		<circle class="st7" cx="147" cy="68.2" r="4.3"/>
	</g>
</g>
</svg>
