<?xml version="1.0" encoding="utf-8"?>
<!-- Generator: Adobe Illustrator 24.1.1, SVG Export Plug-In . SVG Version: 6.00 Build 0)  -->
<svg version="1.1" id="Capa_1" xmlns="http://www.w3.org/2000/svg" xmlns:xlink="http://www.w3.org/1999/xlink" x="0px" y="0px"
	 viewBox="0 0 103.92 67.57" style="enable-background:new 0 0 103.92 67.57;" xml:space="preserve">
<style type="text/css">
	.st0{fill:#D9D9D9;}
	.st1{fill:#D36F62;}
	.st2{fill:#F8C5B0;}
	.st3{fill:#F7A6A9;}
	.st4{fill:#007CC3;}
	.st5{clip-path:url(#SVGID_2_);}
	.st6{fill:#F173AC;}
	.st7{fill:#F5A4C7;}
	.st8{fill:#F4C6DE;}
	.st9{fill:#BFBFBF;}
	.st10{clip-path:url(#SVGID_4_);}
	.st11{fill:#999999;}
	.st12{fill:#1A1A1A;}
	.st13{opacity:0.5;fill:#D36F62;}
	.st14{fill:none;stroke:#F4C6DE;stroke-linecap:round;stroke-linejoin:round;stroke-miterlimit:10;}
</style>
<g>
	<path class="st7" d="M42.24,41.8c-0.04-0.35-0.09-0.69-0.1-1.05h0.02c-0.02-0.33-0.02-0.65-0.02-0.98v-3.29
		c0-10.81,8.61-19.61,19.34-19.93C59.87,7.15,51.69,0,41.83,0h-1.08H21.02h-1.08C8.93,0,0,8.93,0,19.95v3.29
		c0,0.33,0.01,0.66,0.02,0.98H0c0.02,0.35,0.07,0.7,0.1,1.05c0,0,0,0.01,0,0.01c0.51,5.02,2.88,9.49,6.41,12.7
		c0.13,0.12,0.26,0.23,0.39,0.34c0.33,0.29,0.67,0.57,1.02,0.83c0.24,0.18,0.48,0.36,0.73,0.53c0.26,0.18,0.52,0.35,0.78,0.51
		c0.3,0.19,0.61,0.37,0.92,0.54c0.22,0.12,0.45,0.24,0.68,0.35c0.36,0.18,0.72,0.35,1.1,0.51c0.19,0.08,0.38,0.15,0.58,0.23
		c0.42,0.16,0.84,0.32,1.27,0.45c0.15,0.05,0.31,0.09,0.47,0.13c0.47,0.14,0.95,0.26,1.44,0.36c0.11,0.02,0.23,0.04,0.34,0.06
		c0.54,0.1,1.08,0.18,1.63,0.24c0.06,0.01,0.12,0.01,0.19,0.02c0.6,0.06,1.22,0.09,1.83,0.09c0.01,0,0.02,0,0.03,0h0.02h4.2h3.58
		v6.81c0,0.7,0.67,1.21,1.34,1.01c2.71-0.78,8.57-3.02,8.57-7.82h4.2h0.02c0.01,0,0.02,0,0.03,0c0.19,0,0.37-0.02,0.56-0.03
		c-0.08-0.44-0.15-0.89-0.2-1.34C42.24,41.8,42.24,41.8,42.24,41.8z"/>
	<path class="st8" d="M103.92,36.48c0-11.02-8.93-19.95-19.95-19.95h-1.08H63.16h-1.08c-0.2,0-0.4,0.01-0.6,0.02
		c0.19,1.1,0.29,2.24,0.29,3.4v3.29c0,0.33-0.01,0.66-0.02,0.98h0.02c-0.02,0.35-0.07,0.7-0.1,1.05c0,0,0,0.01,0,0.01
		c-0.51,5.02-2.88,9.49-6.41,12.7c-0.13,0.12-0.26,0.23-0.39,0.34c-0.33,0.29-0.67,0.57-1.02,0.83c-0.24,0.18-0.48,0.36-0.73,0.53
		c-0.26,0.18-0.52,0.35-0.78,0.51c-0.3,0.19-0.61,0.37-0.92,0.54c-0.22,0.12-0.45,0.24-0.68,0.35c-0.36,0.18-0.73,0.35-1.1,0.51
		c-0.19,0.08-0.38,0.15-0.58,0.23c-0.42,0.16-0.84,0.32-1.27,0.45c-0.15,0.05-0.31,0.09-0.47,0.13c-0.48,0.14-0.96,0.26-1.44,0.36
		c-0.11,0.02-0.23,0.04-0.34,0.06c-0.54,0.1-1.08,0.18-1.63,0.24c-0.06,0.01-0.12,0.01-0.19,0.02c-0.42,0.04-0.85,0.05-1.27,0.06
		c0.77,4.47,2.99,8.44,6.21,11.36c0.13,0.12,0.27,0.23,0.4,0.35c0.33,0.29,0.67,0.56,1.02,0.83c0.24,0.18,0.48,0.36,0.73,0.53
		c0.26,0.18,0.52,0.35,0.78,0.51c0.3,0.19,0.61,0.37,0.92,0.54c0.22,0.12,0.45,0.24,0.68,0.35c0.36,0.18,0.73,0.35,1.1,0.51
		c0.19,0.08,0.38,0.15,0.58,0.23c0.42,0.16,0.84,0.32,1.27,0.45c0.15,0.05,0.31,0.09,0.47,0.13c0.48,0.14,0.96,0.26,1.44,0.36
		c0.11,0.02,0.23,0.04,0.34,0.06c0.54,0.1,1.08,0.18,1.63,0.24c0.06,0.01,0.12,0.01,0.19,0.02c0.6,0.06,1.22,0.09,1.83,0.09
		c0.01,0,0.02,0,0.03,0h0.02h4.2c0,4.8,5.86,7.04,8.57,7.82c0.67,0.19,1.34-0.31,1.34-1.01v-6.81h3.58h4.2H84c0.01,0,0.02,0,0.03,0
		c0.62,0,1.23-0.03,1.83-0.09c0.06-0.01,0.12-0.01,0.19-0.02c0.55-0.06,1.09-0.14,1.63-0.24c0.11-0.02,0.23-0.04,0.34-0.06
		c0.49-0.1,0.97-0.22,1.44-0.36c0.16-0.04,0.31-0.09,0.47-0.13c0.43-0.13,0.85-0.29,1.27-0.45c0.19-0.07,0.39-0.15,0.58-0.23
		c0.37-0.16,0.74-0.33,1.1-0.51c0.23-0.11,0.46-0.23,0.68-0.35c0.31-0.17,0.62-0.35,0.92-0.54c0.27-0.16,0.53-0.34,0.78-0.51
		c0.25-0.17,0.49-0.35,0.73-0.53c0.35-0.27,0.69-0.55,1.02-0.83c0.13-0.11,0.27-0.23,0.39-0.34c3.54-3.22,5.9-7.68,6.41-12.7
		c0,0,0-0.01,0-0.01c0.04-0.35,0.09-0.69,0.1-1.05h-0.02c0.02-0.33,0.02-0.65,0.02-0.98V36.48z"/>
	<path class="st6" d="M43.9,43.07c0.55-0.06,1.09-0.14,1.63-0.24c0.11-0.02,0.23-0.04,0.34-0.06c0.49-0.1,0.97-0.22,1.44-0.36
		c0.16-0.04,0.31-0.09,0.47-0.13c0.43-0.13,0.85-0.29,1.27-0.45c0.19-0.07,0.39-0.15,0.58-0.23c0.37-0.16,0.74-0.33,1.1-0.51
		c0.23-0.11,0.45-0.23,0.68-0.35c0.31-0.17,0.62-0.35,0.92-0.54c0.27-0.16,0.53-0.34,0.78-0.51c0.25-0.17,0.49-0.34,0.73-0.53
		c0.35-0.27,0.69-0.55,1.02-0.83c0.13-0.11,0.27-0.23,0.39-0.34c3.54-3.22,5.9-7.68,6.41-12.7c0,0,0-0.01,0-0.01
		c0.04-0.35,0.09-0.69,0.1-1.05h-0.02c0.02-0.33,0.02-0.65,0.02-0.98v-3.29c0-1.16-0.1-2.29-0.29-3.4
		c-10.74,0.32-19.34,9.12-19.34,19.93v3.29c0,0.33,0.01,0.66,0.02,0.98h-0.02c0.02,0.35,0.07,0.7,0.1,1.05c0,0,0,0.01,0,0.01
		c0.05,0.45,0.12,0.9,0.2,1.34c0.43-0.01,0.85-0.02,1.27-0.06C43.78,43.08,43.84,43.08,43.9,43.07z"/>
</g>
</svg>
