<?xml version="1.0" encoding="utf-8"?>
<!-- Generator: Adobe Illustrator 24.1.1, SVG Export Plug-In . SVG Version: 6.00 Build 0)  -->
<svg version="1.1" id="Capa_1" xmlns="http://www.w3.org/2000/svg" xmlns:xlink="http://www.w3.org/1999/xlink" x="0px" y="0px"
	 viewBox="0 0 103.92 67.57" style="enable-background:new 0 0 103.92 67.57;" xml:space="preserve">
<style type="text/css">
	.st0{fill:#D9D9D9;}
	.st1{fill:#D36F62;}
	.st2{fill:#F8C5B0;}
	.st3{fill:#F7A6A9;}
	.st4{fill:#007CC3;}
	.st5{clip-path:url(#SVGID_2_);}
	.st6{fill:#F173AC;}
	.st7{fill:#F5A4C7;}
	.st8{fill:#F4C6DE;}
	.st9{fill:#BFBFBF;}
	.st10{clip-path:url(#SVGID_4_);}
	.st11{fill:#999999;}
	.st12{fill:#1A1A1A;}
	.st13{opacity:0.5;fill:#D36F62;}
	.st14{fill:none;stroke:#F4C6DE;stroke-linecap:round;stroke-linejoin:round;stroke-miterlimit:10;}
</style>
<g>
	<g>
		<path class="st0" d="M7.94,67.57c-0.54,0-0.97-0.43-0.97-0.97V0.97C6.97,0.43,7.4,0,7.94,0s0.97,0.43,0.97,0.97V66.6
			C8.91,67.14,8.47,67.57,7.94,67.57z"/>
	</g>
	<g>
		<path class="st0" d="M13.28,67.57H7.94c-0.54,0-0.97-0.43-0.97-0.97s0.43-0.97,0.97-0.97h5.34c0.54,0,0.97,0.43,0.97,0.97
			S13.82,67.57,13.28,67.57z"/>
	</g>
	<g>
		<path class="st0" d="M15.72,58.17H7.94c-0.54,0-0.97-0.43-0.97-0.97c0-0.54,0.43-0.97,0.97-0.97h7.79c0.54,0,0.97,0.43,0.97,0.97
			C16.69,57.73,16.26,58.17,15.72,58.17z"/>
	</g>
	<g>
		<path class="st0" d="M13.28,48.76H7.94c-0.54,0-0.97-0.43-0.97-0.97s0.43-0.97,0.97-0.97h5.34c0.54,0,0.97,0.43,0.97,0.97
			S13.82,48.76,13.28,48.76z"/>
	</g>
	<g>
		<path class="st0" d="M15.72,39.36H7.94c-0.54,0-0.97-0.43-0.97-0.97c0-0.54,0.43-0.97,0.97-0.97h7.79c0.54,0,0.97,0.43,0.97,0.97
			C16.69,38.92,16.26,39.36,15.72,39.36z"/>
	</g>
	<g>
		<path class="st0" d="M13.28,29.95H7.94c-0.54,0-0.97-0.43-0.97-0.97c0-0.54,0.43-0.97,0.97-0.97h5.34c0.54,0,0.97,0.43,0.97,0.97
			C14.25,29.52,13.82,29.95,13.28,29.95z"/>
	</g>
	<g>
		<path class="st0" d="M15.72,20.55H7.94c-0.54,0-0.97-0.43-0.97-0.97c0-0.54,0.43-0.97,0.97-0.97h7.79c0.54,0,0.97,0.43,0.97,0.97
			C16.69,20.11,16.26,20.55,15.72,20.55z"/>
	</g>
	<g>
		<path class="st0" d="M13.28,11.14H7.94c-0.54,0-0.97-0.43-0.97-0.97c0-0.54,0.43-0.97,0.97-0.97h5.34c0.54,0,0.97,0.43,0.97,0.97
			C14.25,10.71,13.82,11.14,13.28,11.14z"/>
	</g>
	<g>
		<path class="st0" d="M92.37,1.94H7.94c-0.54,0-0.97-0.43-0.97-0.97S7.4,0,7.94,0h84.44c0.54,0,0.97,0.43,0.97,0.97
			S92.91,1.94,92.37,1.94z"/>
	</g>
	<g>
		<path class="st0" d="M73.56,7.28c-0.54,0-0.97-0.43-0.97-0.97V0.97c0-0.54,0.43-0.97,0.97-0.97c0.54,0,0.97,0.43,0.97,0.97v5.34
			C74.54,6.85,74.1,7.28,73.56,7.28z"/>
	</g>
	<g>
		<path class="st0" d="M92.37,7.28c-0.54,0-0.97-0.43-0.97-0.97V0.97C91.4,0.43,91.84,0,92.37,0s0.97,0.43,0.97,0.97v5.34
			C93.34,6.85,92.91,7.28,92.37,7.28z"/>
	</g>
	<g>
		<path class="st0" d="M64.16,9.73c-0.54,0-0.97-0.43-0.97-0.97V0.97c0-0.54,0.43-0.97,0.97-0.97c0.54,0,0.97,0.43,0.97,0.97v7.78
			C65.13,9.29,64.7,9.73,64.16,9.73z"/>
	</g>
	<g>
		<path class="st0" d="M82.97,9.73C82.43,9.73,82,9.29,82,8.76V0.97C82,0.43,82.43,0,82.97,0s0.97,0.43,0.97,0.97v7.78
			C83.94,9.29,83.51,9.73,82.97,9.73z"/>
	</g>
	<g>
		<path class="st0" d="M54.75,7.28c-0.54,0-0.97-0.43-0.97-0.97V0.97c0-0.54,0.43-0.97,0.97-0.97s0.97,0.43,0.97,0.97v5.34
			C55.73,6.85,55.29,7.28,54.75,7.28z"/>
	</g>
	<g>
		<path class="st0" d="M45.35,9.73c-0.54,0-0.97-0.43-0.97-0.97V0.97c0-0.54,0.43-0.97,0.97-0.97s0.97,0.43,0.97,0.97v7.78
			C46.32,9.29,45.89,9.73,45.35,9.73z"/>
	</g>
	<g>
		<path class="st0" d="M35.95,7.28c-0.54,0-0.97-0.43-0.97-0.97V0.97c0-0.54,0.43-0.97,0.97-0.97c0.54,0,0.97,0.43,0.97,0.97v5.34
			C36.92,6.85,36.48,7.28,35.95,7.28z"/>
	</g>
	<g>
		<path class="st0" d="M26.54,9.73c-0.54,0-0.97-0.43-0.97-0.97V0.97C25.57,0.43,26,0,26.54,0s0.97,0.43,0.97,0.97v7.78
			C27.51,9.29,27.08,9.73,26.54,9.73z"/>
	</g>
	<g>
		<path class="st0" d="M17.14,7.28c-0.54,0-0.97-0.43-0.97-0.97V0.97C16.16,0.43,16.6,0,17.14,0c0.54,0,0.97,0.43,0.97,0.97v5.34
			C18.11,6.85,17.67,7.28,17.14,7.28z"/>
	</g>
	<g>
		<g>
			<path class="st0" d="M95.98,67.57H79.55c-0.54,0-0.97-0.43-0.97-0.97s0.43-0.97,0.97-0.97h16.43c0.54,0,0.97,0.43,0.97,0.97
				S96.52,67.57,95.98,67.57z"/>
		</g>
		<g>
			<path class="st0" d="M95.98,62.77H85.92c-0.54,0-0.97-0.43-0.97-0.97c0-0.54,0.43-0.97,0.97-0.97h10.06
				c0.54,0,0.97,0.43,0.97,0.97C96.95,62.34,96.52,62.77,95.98,62.77z"/>
		</g>
	</g>
</g>
<g>
	<path class="st6" d="M82.12,16.46c-0.38-0.82-1.33-1.2-2.16-0.85c-3.45,1.41-12.45,4.67-22.02,4.67c-9.57,0-18.57-3.26-22.02-4.67
		c-0.83-0.34-1.79,0.04-2.16,0.85L18.91,48.87c-0.81,1.76-0.02,3.85,1.75,4.63c5.49,2.43,18.07,6.84,37.28,6.84
		c19.21,0,31.8-4.41,37.28-6.84c1.77-0.79,2.55-2.87,1.75-4.63L82.12,16.46z"/>
	<g>
		<circle class="st7" cx="54.77" cy="43.46" r="9.54"/>
		<circle class="st7" cx="66.32" cy="31.91" r="4.32"/>
	</g>
</g>
</svg>
