<?xml version="1.0" encoding="utf-8"?>
<!-- Generator: Adobe Illustrator 24.1.1, SVG Export Plug-In . SVG Version: 6.00 Build 0)  -->
<svg version="1.1" id="Capa_1" xmlns="http://www.w3.org/2000/svg" xmlns:xlink="http://www.w3.org/1999/xlink" x="0px" y="0px"
	 viewBox="0 0 450 280" style="enable-background:new 0 0 450 280;" xml:space="preserve">
<style type="text/css">
	.st0{fill:#FFFFFF;}
	.st1{fill:#007CC3;}
	.st2{fill:#F5A4C7;}
	.st3{fill:#F173AC;}
	.st4{fill:#D9D9D9;}
</style>
<rect y="0" class="st0" width="450" height="280"/>
<g>
	<path class="st1" d="M118.4,155.8v-17.5h3.2v17.5H118.4z"/>
	<path class="st1" d="M127.4,144.4c0.8-1,1.9-1.7,3.2-1.7h0.1c2.8,0,4.3,1.6,4.3,4.6v8.4h-3.1v-8.5c0-0.9-0.6-1.5-1.5-1.5h-0.8
		c-0.9,0-1.5,0.6-1.5,1.5v8.5h-3.1V143h1.4L127.4,144.4z"/>
	<path class="st1" d="M144.9,138.3v2.9h-1.7c-0.8,0-1.3,0.4-1.3,1.3v0.6h2.7v2.9H142v9.8h-3.1v-9.8h-2.3V143h2.3v-0.6
		c0-2.7,1.4-4.1,4.1-4.1H144.9z"/>
	<path class="st1" d="M156.1,151.4c0,2.6-1.9,4.6-4.6,4.6h-0.8c-2.7,0-4.6-1.9-4.6-4.6v-4.1c0-2.6,1.9-4.6,4.6-4.6h0.8
		c2.7,0,4.6,1.9,4.6,4.6V151.4z M153,147.3c0-0.8-0.7-1.5-1.5-1.5h-0.8c-0.8,0-1.5,0.7-1.5,1.5v4.3c0,0.8,0.7,1.5,1.5,1.5h0.8
		c0.8,0,1.5-0.7,1.5-1.5V147.3z"/>
	<path class="st1" d="M161.4,144.4c0.8-1,1.9-1.7,3.2-1.7h1.5v3.1h-2.5c-0.9,0-1.5,0.6-1.5,1.5v8.4h-3.1V143h1.4L161.4,144.4z"/>
	<path class="st1" d="M170.4,144.4c0.8-1,1.8-1.7,3.1-1.7h0.1c1.6,0,2.7,0.6,3.4,1.6c0.7-1,1.8-1.6,3.1-1.6h0.1
		c2.7,0,4.2,1.6,4.2,4.6v8.4h-3.1v-8.5c0-0.9-0.6-1.5-1.5-1.5h-0.6c-0.8,0-1.4,0.6-1.5,1.4v8.6h-3.1v-8.5c0-0.9-0.6-1.5-1.5-1.5
		h-0.6c-0.9,0-1.5,0.6-1.5,1.5v8.5h-3.1V143h1.4L170.4,144.4z"/>
	<path class="st1" d="M194.1,151.1l3.1,0.3v0c0,2.6-1.9,4.6-4.6,4.6h-0.8c-2.7,0-4.6-1.9-4.6-4.6v-4.1c0-2.6,1.9-4.6,4.6-4.6h0.8
		c2.7,0,4.6,1.9,4.6,4.6v2.6h-6.9v1.6c0,0.8,0.7,1.5,1.5,1.5h0.8c0.8,0,1.5-0.7,1.5-1.5V151.1z M190.3,148h3.8v-0.8
		c0-0.8-0.7-1.5-1.5-1.5h-0.8c-0.8,0-1.5,0.7-1.5,1.5L190.3,148L190.3,148z"/>
	<path class="st1" d="M208.2,144.4c0.8-1,1.8-1.7,3.1-1.7h0.1c1.6,0,2.7,0.6,3.4,1.6c0.7-1,1.8-1.6,3.1-1.6h0.1
		c2.7,0,4.2,1.6,4.2,4.6v8.4h-3.1v-8.5c0-0.9-0.6-1.5-1.5-1.5h-0.6c-0.8,0-1.4,0.6-1.5,1.4v8.6h-3.1v-8.5c0-0.9-0.6-1.5-1.5-1.5
		h-0.6c-0.9,0-1.5,0.6-1.5,1.5v8.5H206V143h1.4L208.2,144.4z"/>
	<path class="st1" d="M231.9,151.1l3.1,0.3v0c0,2.6-1.9,4.6-4.6,4.6h-0.8c-2.7,0-4.6-1.9-4.6-4.6v-4.1c0-2.6,1.9-4.6,4.6-4.6h0.8
		c2.7,0,4.6,1.9,4.6,4.6v2.6h-6.9v1.6c0,0.8,0.7,1.5,1.5,1.5h0.8c0.8,0,1.5-0.7,1.5-1.5V151.1z M228.1,148h3.8v-0.8
		c0-0.8-0.7-1.5-1.5-1.5h-0.8c-0.8,0-1.5,0.7-1.5,1.5L228.1,148L228.1,148z M230.9,141.3h-2.6l2-3.3h4L230.9,141.3z"/>
	<path class="st1" d="M245.3,154.3c-0.8,1.1-1.9,1.7-3.2,1.7h-0.1c-2.8,0-4.3-1.6-4.3-4.6v-4.1c0-2.9,1.6-4.6,4.3-4.6h0.1
		c0.9,0,1.8,0.3,2.5,0.9v-5.4h3.1v17.5h-1.4L245.3,154.3z M244.6,147.2c0-0.9-0.6-1.5-1.5-1.5h-0.8c-0.9,0-1.5,0.6-1.5,1.5v4.3
		c0,0.9,0.6,1.5,1.5,1.5h0.8c0.9,0,1.5-0.6,1.5-1.5V147.2z"/>
	<path class="st1" d="M250.9,138.3h3.1v2.6h-3.1L250.9,138.3L250.9,138.3z M250.9,155.8V143h3.1v12.8H250.9z"/>
	<path class="st1" d="M263.9,150.9l3.1,0.3v0.2c0,2.6-1.9,4.6-4.6,4.6h-0.8c-2.7,0-4.6-1.9-4.6-4.6v-4.1c0-2.6,1.9-4.6,4.6-4.6h0.8
		c2.7,0,4.6,1.9,4.6,4.6v0.2l-3.1,0.3v-0.6c0-0.8-0.7-1.5-1.5-1.5h-0.8c-0.8,0-1.5,0.7-1.5,1.5v4.3c0,0.8,0.7,1.5,1.5,1.5h0.8
		c0.8,0,1.5-0.7,1.5-1.5V150.9z"/>
	<path class="st1" d="M279.6,151.4c0,2.6-1.9,4.6-4.6,4.6h-0.8c-2.7,0-4.6-1.9-4.6-4.6v-4.1c0-2.6,1.9-4.6,4.6-4.6h0.8
		c2.7,0,4.6,1.9,4.6,4.6V151.4z M276.5,147.3c0-0.8-0.7-1.5-1.5-1.5h-0.8c-0.8,0-1.5,0.7-1.5,1.5v4.3c0,0.8,0.7,1.5,1.5,1.5h0.8
		c0.8,0,1.5-0.7,1.5-1.5V147.3z"/>
	<path class="st1" d="M295.1,138.3v2.9h-1.7c-0.8,0-1.3,0.4-1.3,1.3v0.6h2.7v2.9h-2.7v9.8h-3.1v-9.8h-2.3V143h2.3v-0.6
		c0-2.7,1.4-4.1,4.1-4.1H295.1z"/>
	<path class="st1" d="M296.6,138.3h3.1v2.6h-3.1V138.3z M296.6,155.8V143h3.1v12.8H296.6z"/>
	<path class="st1" d="M323.3,154.4c-0.7,1-1.9,1.6-3.4,1.6h0c-2.6,0-4.1-1.5-4.1-3.6v-0.5c0-2.1,1.5-3.5,4.1-3.5h2.7v-1.3
		c0-0.7-0.7-1.3-1.5-1.3h-0.6c-0.8,0-1.5,0.6-1.5,1.3v0.5l-3.1-0.3v-0.1c0-2.5,1.9-4.4,4.6-4.4h0.6c2.7,0,4.6,1.9,4.6,4.4v8.6h-1.4
		L323.3,154.4z M318.8,152c0,0.7,0.5,1.2,1.3,1.2h1.1c0.7,0,1.3-0.5,1.3-1.2v-1.3h-2.4C319.3,150.7,318.8,151.2,318.8,152L318.8,152
		L318.8,152z"/>
	<path class="st1" d="M305,144.4c0.8-1,1.9-1.7,3.2-1.7h0c2.8,0,4.3,1.6,4.3,4.6v8.4h-3.1v-8.5c0-0.9-0.6-1.5-1.5-1.5h-0.8
		c-0.9,0-1.5,0.6-1.5,1.5v8.5h-3.1V143h1.4L305,144.4z"/>
	<path class="st1" d="M328.7,155.8v-17.5h3.1v17.5H328.7z"/>
	<path d="M80,189v3.7H84v1.2H80v3.8h4.5v1.2h-6v-11.2h6v1.2L80,189L80,189z"/>
	<path d="M88.2,187.1V199h-1.5v-11.8H88.2z"/>
	<path d="M95,188.5c-0.2-0.2-0.3-0.4-0.3-0.7s0.1-0.5,0.3-0.7s0.4-0.3,0.7-0.3s0.5,0.1,0.7,0.3c0.2,0.2,0.3,0.4,0.3,0.7
		s-0.1,0.5-0.3,0.7s-0.4,0.3-0.7,0.3C95.4,188.8,95.2,188.7,95,188.5z M96.4,190.2v8.8h-1.5v-8.8H96.4z"/>
	<path d="M105.7,191c0.7,0.6,1,1.6,1,2.8v5.2h-1.4v-5c0-0.9-0.2-1.5-0.7-2s-1-0.7-1.8-0.7c-0.8,0-1.4,0.2-1.8,0.7
		c-0.4,0.5-0.7,1.2-0.7,2.1v4.9h-1.5v-8.8h1.5v1.3c0.3-0.4,0.7-0.8,1.2-1s1-0.4,1.6-0.4C104.2,190,105.1,190.3,105.7,191z"/>
	<path d="M112.7,191.4h-1.8v7.6h-1.5v-7.6h-1.1v-1.2h1.1v-0.6c0-1,0.3-1.7,0.8-2.1s1.3-0.7,2.4-0.7v1.2c-0.6,0-1.1,0.1-1.3,0.4
		s-0.4,0.7-0.4,1.2v0.6h1.8C112.7,190.2,112.7,191.4,112.7,191.4z"/>
	<path d="M116,198.5c-0.7-0.4-1.2-0.9-1.6-1.6s-0.6-1.5-0.6-2.4s0.2-1.7,0.6-2.4s0.9-1.2,1.6-1.6c0.7-0.4,1.4-0.6,2.3-0.6
		s1.6,0.2,2.3,0.6c0.7,0.4,1.2,0.9,1.6,1.6s0.6,1.5,0.6,2.4c0,0.9-0.2,1.7-0.6,2.4s-0.9,1.2-1.6,1.6s-1.4,0.6-2.3,0.6
		C117.4,199.1,116.6,198.9,116,198.5z M119.7,197.5c0.5-0.3,0.8-0.6,1.1-1.1s0.4-1.1,0.4-1.8s-0.1-1.3-0.4-1.8
		c-0.3-0.5-0.6-0.9-1.1-1.1s-0.9-0.4-1.5-0.4s-1,0.1-1.5,0.4s-0.8,0.6-1.1,1.1c-0.3,0.5-0.4,1.1-0.4,1.8c0,0.7,0.1,1.3,0.4,1.8
		c0.3,0.5,0.6,0.9,1.1,1.1s0.9,0.4,1.4,0.4S119.2,197.7,119.7,197.5z"/>
	<path d="M127.2,190.4c0.5-0.3,1.1-0.4,1.7-0.4v1.5h-0.4c-1.6,0-2.4,0.9-2.4,2.7v4.8h-1.5v-8.8h1.5v1.4
		C126.3,191.1,126.7,190.7,127.2,190.4z"/>
	<path d="M142.9,190.5c0.5,0.3,1,0.7,1.3,1.3c0.3,0.6,0.5,1.3,0.5,2.1v5.2h-1.4v-5c0-0.9-0.2-1.5-0.6-2c-0.4-0.5-1-0.7-1.8-0.7
		c-0.8,0-1.4,0.2-1.8,0.7c-0.4,0.5-0.7,1.2-0.7,2.1v4.8h-1.4v-5c0-0.9-0.2-1.5-0.6-2s-1-0.7-1.8-0.7c-0.8,0-1.4,0.2-1.8,0.7
		c-0.4,0.5-0.7,1.2-0.7,2.1v4.8h-1.5v-8.8h1.5v1.3c0.3-0.5,0.7-0.8,1.2-1.1s1-0.4,1.6-0.4c0.7,0,1.4,0.2,1.9,0.5
		c0.6,0.3,1,0.8,1.3,1.5c0.3-0.6,0.6-1.1,1.2-1.4s1.2-0.5,1.9-0.5C141.8,190,142.4,190.2,142.9,190.5z"/>
	<path d="M155,195.1h-7c0.1,0.9,0.4,1.5,0.9,2c0.5,0.5,1.2,0.7,2,0.7c0.6,0,1.1-0.1,1.6-0.4c0.4-0.3,0.7-0.7,0.9-1.2h1.6
		c-0.2,0.8-0.7,1.5-1.4,2.1c-0.7,0.5-1.6,0.8-2.6,0.8c-0.8,0-1.6-0.2-2.2-0.6s-1.2-0.9-1.5-1.6s-0.6-1.5-0.6-2.4
		c0-0.9,0.2-1.7,0.5-2.4c0.4-0.7,0.9-1.2,1.5-1.6s1.4-0.6,2.3-0.6c0.8,0,1.6,0.2,2.2,0.5s1.1,0.9,1.5,1.5s0.5,1.4,0.5,2.1
		C155.1,194.5,155.1,194.8,155,195.1z M153.2,192.5c-0.3-0.4-0.6-0.7-1-0.9s-0.9-0.3-1.4-0.3c-0.7,0-1.4,0.2-1.9,0.7
		s-0.8,1.1-0.9,1.9h5.5C153.6,193.4,153.4,192.9,153.2,192.5z"/>
	<path d="M161.3,192.2c0.4-0.7,0.9-1.2,1.5-1.6c0.6-0.4,1.4-0.6,2.1-0.6c0.7,0,1.3,0.2,1.9,0.5c0.6,0.3,1,0.7,1.3,1.2v-4.6h1.5v11.8
		h-1.5v-1.6c-0.3,0.5-0.7,0.9-1.3,1.3s-1.2,0.5-2,0.5c-0.8,0-1.5-0.2-2.1-0.6c-0.6-0.4-1.1-0.9-1.5-1.6c-0.4-0.7-0.5-1.5-0.5-2.4
		C160.7,193.6,160.9,192.9,161.3,192.2z M167.7,192.8c-0.3-0.5-0.6-0.9-1.1-1.1s-0.9-0.4-1.5-0.4s-1,0.1-1.5,0.4
		c-0.4,0.3-0.8,0.6-1.1,1.1c-0.3,0.5-0.4,1.1-0.4,1.7c0,0.7,0.1,1.3,0.4,1.8s0.6,0.9,1.1,1.1c0.4,0.3,0.9,0.4,1.5,0.4s1-0.1,1.5-0.4
		c0.4-0.3,0.8-0.6,1.1-1.1s0.4-1.1,0.4-1.7C168.1,193.9,168,193.3,167.7,192.8z"/>
	<path d="M180,195.1h-7c0.1,0.9,0.4,1.5,0.9,2c0.5,0.5,1.2,0.7,2,0.7c0.6,0,1.1-0.1,1.6-0.4c0.4-0.3,0.7-0.7,0.9-1.2h1.6
		c-0.2,0.8-0.7,1.5-1.4,2.1c-0.7,0.5-1.6,0.8-2.6,0.8c-0.8,0-1.6-0.2-2.2-0.6s-1.2-0.9-1.5-1.6s-0.6-1.5-0.6-2.4
		c0-0.9,0.2-1.7,0.5-2.4c0.4-0.7,0.9-1.2,1.5-1.6s1.4-0.6,2.3-0.6c0.8,0,1.6,0.2,2.2,0.5s1.1,0.9,1.5,1.5s0.5,1.4,0.5,2.1
		C180.1,194.5,180.1,194.8,180,195.1z M178.2,192.5c-0.3-0.4-0.6-0.7-1-0.9s-0.9-0.3-1.4-0.3c-0.7,0-1.4,0.2-1.9,0.7
		s-0.8,1.1-0.9,1.9h5.5C178.6,193.4,178.4,192.9,178.2,192.5z"/>
	<path d="M188,191.4v5.2c0,0.4,0.1,0.7,0.3,0.9c0.2,0.2,0.5,0.3,0.9,0.3h1.1v1.2H189c-0.8,0-1.4-0.2-1.8-0.6c-0.4-0.4-0.6-1-0.6-1.8
		v-5.2h-1.1v-1.2h1.1V188h1.5v2.2h2.3v1.2L188,191.4L188,191.4z"/>
	<path d="M199.9,190.2v8.8h-1.5v-1.3c-0.3,0.4-0.7,0.8-1.2,1.1s-1,0.4-1.6,0.4c-0.7,0-1.3-0.1-1.8-0.4s-1-0.7-1.3-1.3
		c-0.3-0.6-0.5-1.3-0.5-2.1v-5.1h1.4v4.9c0,0.9,0.2,1.5,0.7,2s1,0.7,1.8,0.7c0.8,0,1.4-0.2,1.8-0.7s0.7-1.2,0.7-2.1v-4.8H199.9z"/>
	<path d="M214.6,195.1h-7c0.1,0.9,0.4,1.5,0.9,2c0.5,0.5,1.2,0.7,2,0.7c0.6,0,1.1-0.1,1.6-0.4c0.4-0.3,0.7-0.7,0.9-1.2h1.6
		c-0.2,0.8-0.7,1.5-1.4,2.1c-0.7,0.5-1.6,0.8-2.6,0.8c-0.8,0-1.6-0.2-2.2-0.6s-1.2-0.9-1.5-1.6s-0.6-1.5-0.6-2.4
		c0-0.9,0.2-1.7,0.5-2.4c0.4-0.7,0.9-1.2,1.5-1.6s1.4-0.6,2.3-0.6c0.8,0,1.6,0.2,2.2,0.5s1.1,0.9,1.5,1.5s0.5,1.4,0.5,2.1
		C214.6,194.5,214.6,194.8,214.6,195.1z M212.7,192.5c-0.3-0.4-0.6-0.7-1-0.9s-0.9-0.3-1.4-0.3c-0.7,0-1.4,0.2-1.9,0.7
		s-0.8,1.1-0.9,1.9h5.5C213.1,193.4,213,192.9,212.7,192.5z"/>
	<path d="M217.8,198.8c-0.5-0.2-1-0.6-1.3-1c-0.3-0.4-0.5-0.9-0.5-1.4h1.5c0,0.4,0.3,0.8,0.6,1.1s0.9,0.4,1.4,0.4
		c0.6,0,1-0.1,1.3-0.4s0.5-0.6,0.5-0.9c0-0.4-0.2-0.7-0.5-0.9s-0.9-0.4-1.6-0.6c-0.6-0.2-1.2-0.3-1.6-0.5c-0.4-0.2-0.8-0.4-1.1-0.8
		c-0.3-0.4-0.4-0.8-0.4-1.4c0-0.4,0.1-0.9,0.4-1.2c0.3-0.4,0.6-0.7,1.1-0.9s1.1-0.3,1.7-0.3c1,0,1.8,0.3,2.4,0.7s0.9,1.2,1,2h-1.5
		c0-0.5-0.2-0.8-0.6-1.1s-0.8-0.4-1.4-0.4c-0.5,0-0.9,0.1-1.3,0.3c-0.3,0.2-0.5,0.5-0.5,0.9c0,0.3,0.1,0.5,0.3,0.7s0.4,0.3,0.7,0.4
		s0.7,0.2,1.2,0.4c0.6,0.2,1.1,0.3,1.5,0.5s0.7,0.4,1,0.7c0.3,0.3,0.4,0.8,0.4,1.3c0,0.5-0.1,0.9-0.4,1.3s-0.6,0.7-1.1,0.9
		c-0.5,0.2-1,0.3-1.7,0.3C218.9,199.1,218.4,199,217.8,198.8z"/>
	<path d="M226.6,191.4v5.2c0,0.4,0.1,0.7,0.3,0.9c0.2,0.2,0.5,0.3,0.9,0.3h1.1v1.2h-1.3c-0.8,0-1.4-0.2-1.8-0.6
		c-0.4-0.4-0.6-1-0.6-1.8v-5.2h-1.1v-1.2h1.1V188h1.5v2.2h2.3v1.2L226.6,191.4L226.6,191.4z"/>
	<path d="M238.5,190.2v8.8H237v-1.3c-0.3,0.4-0.7,0.8-1.2,1.1s-1,0.4-1.6,0.4c-0.7,0-1.3-0.1-1.8-0.4s-1-0.7-1.3-1.3
		c-0.3-0.6-0.5-1.3-0.5-2.1v-5.1h1.4v4.9c0,0.9,0.2,1.5,0.7,2s1,0.7,1.8,0.7c0.8,0,1.4-0.2,1.8-0.7s0.7-1.2,0.7-2.1v-4.8H238.5z"/>
	<path d="M240.9,192.2c0.4-0.7,0.9-1.2,1.5-1.6c0.6-0.4,1.4-0.6,2.1-0.6c0.7,0,1.3,0.2,1.9,0.5c0.6,0.3,1,0.7,1.3,1.2v-4.6h1.5v11.8
		h-1.5v-1.6c-0.3,0.5-0.7,0.9-1.3,1.3s-1.2,0.5-2,0.5c-0.8,0-1.5-0.2-2.1-0.6c-0.6-0.4-1.1-0.9-1.5-1.6c-0.4-0.7-0.5-1.5-0.5-2.4
		C240.4,193.6,240.6,192.9,240.9,192.2z M247.4,192.8c-0.3-0.5-0.6-0.9-1.1-1.1s-0.9-0.4-1.5-0.4s-1,0.1-1.5,0.4
		c-0.4,0.3-0.8,0.6-1.1,1.1c-0.3,0.5-0.4,1.1-0.4,1.7c0,0.7,0.1,1.3,0.4,1.8s0.6,0.9,1.1,1.1c0.4,0.3,0.9,0.4,1.5,0.4s1-0.1,1.5-0.4
		c0.4-0.3,0.8-0.6,1.1-1.1s0.4-1.1,0.4-1.7C247.8,193.9,247.7,193.3,247.4,192.8z"/>
	<path d="M251.8,188.5c-0.2-0.2-0.3-0.4-0.3-0.7s0.1-0.5,0.3-0.7c0.2-0.2,0.4-0.3,0.7-0.3s0.5,0.1,0.7,0.3c0.2,0.2,0.3,0.4,0.3,0.7
		s-0.1,0.5-0.3,0.7s-0.4,0.3-0.7,0.3C252.2,188.8,252,188.7,251.8,188.5z M253.2,190.2v8.8h-1.5v-8.8H253.2z"/>
	<path d="M257.3,198.5c-0.7-0.4-1.2-0.9-1.6-1.6s-0.6-1.5-0.6-2.4s0.2-1.7,0.6-2.4s0.9-1.2,1.6-1.6c0.7-0.4,1.4-0.6,2.3-0.6
		s1.6,0.2,2.3,0.6c0.7,0.4,1.2,0.9,1.6,1.6s0.6,1.5,0.6,2.4c0,0.9-0.2,1.7-0.6,2.4s-0.9,1.2-1.6,1.6s-1.4,0.6-2.3,0.6
		C258.7,199.1,258,198.9,257.3,198.5z M261,197.5c0.5-0.3,0.8-0.6,1.1-1.1s0.4-1.1,0.4-1.8s-0.1-1.3-0.4-1.8
		c-0.3-0.5-0.6-0.9-1.1-1.1c-0.5-0.2-0.9-0.4-1.5-0.4s-1,0.1-1.5,0.4s-0.8,0.6-1.1,1.1c-0.3,0.5-0.4,1.1-0.4,1.8
		c0,0.7,0.1,1.3,0.4,1.8c0.3,0.5,0.6,0.9,1,1.1s0.9,0.4,1.4,0.4S260.5,197.7,261,197.5z"/>
	<path d="M275.8,190.5c0.6,0.3,1,0.8,1.3,1.3v-1.6h1.5v9c0,0.8-0.2,1.5-0.5,2.1c-0.3,0.6-0.8,1.1-1.5,1.5s-1.4,0.5-2.2,0.5
		c-1.1,0-2.1-0.3-2.9-0.8c-0.8-0.5-1.2-1.3-1.4-2.2h1.4c0.2,0.5,0.5,1,1,1.3c0.5,0.3,1.1,0.5,1.8,0.5c0.8,0,1.5-0.3,2-0.8
		c0.5-0.5,0.8-1.2,0.8-2.1v-1.8c-0.3,0.5-0.7,0.9-1.3,1.3s-1.2,0.5-2,0.5c-0.8,0-1.5-0.2-2.1-0.6c-0.6-0.4-1.1-0.9-1.5-1.6
		c-0.4-0.7-0.5-1.5-0.5-2.4c0-0.9,0.2-1.7,0.5-2.4c0.4-0.7,0.9-1.2,1.5-1.6c0.6-0.4,1.3-0.6,2.1-0.6
		C274.6,190,275.2,190.2,275.8,190.5z M276.7,192.8c-0.3-0.5-0.6-0.9-1.1-1.1s-1-0.4-1.5-0.4s-1,0.1-1.5,0.4
		c-0.5,0.3-0.8,0.6-1.1,1.1c-0.3,0.5-0.4,1.1-0.4,1.7c0,0.7,0.1,1.3,0.4,1.8s0.6,0.9,1.1,1.1s0.9,0.4,1.5,0.4s1-0.1,1.5-0.4
		c0.5-0.3,0.8-0.6,1.1-1.1s0.4-1.1,0.4-1.7C277.1,193.9,277,193.3,276.7,192.8z"/>
	<path d="M281.1,188.5c-0.2-0.2-0.3-0.4-0.3-0.7s0.1-0.5,0.3-0.7s0.4-0.3,0.7-0.3c0.3,0,0.5,0.1,0.7,0.3c0.2,0.2,0.3,0.4,0.3,0.7
		s-0.1,0.5-0.3,0.7s-0.4,0.3-0.7,0.3C281.5,188.8,281.3,188.7,281.1,188.5z M282.5,190.2v8.8H281v-8.8H282.5z"/>
	<path d="M291.8,191c0.7,0.6,1,1.6,1,2.8v5.2h-1.4v-5c0-0.9-0.2-1.5-0.7-2s-1-0.7-1.8-0.7c-0.8,0-1.4,0.2-1.8,0.7
		c-0.5,0.5-0.7,1.2-0.7,2.1v4.9H285v-8.8h1.5v1.3c0.3-0.4,0.7-0.8,1.2-1s1-0.4,1.6-0.4C290.3,190,291.1,190.3,291.8,191z"/>
	<path d="M303.1,195.1h-7c0,0.9,0.4,1.5,0.9,2c0.5,0.5,1.2,0.7,2,0.7c0.6,0,1.1-0.1,1.6-0.4c0.4-0.3,0.7-0.7,0.9-1.2h1.6
		c-0.2,0.8-0.7,1.5-1.4,2.1c-0.7,0.5-1.6,0.8-2.6,0.8c-0.8,0-1.6-0.2-2.2-0.6s-1.2-0.9-1.5-1.6s-0.6-1.5-0.6-2.4
		c0-0.9,0.2-1.7,0.5-2.4c0.4-0.7,0.9-1.2,1.5-1.6s1.4-0.6,2.3-0.6c0.8,0,1.6,0.2,2.2,0.5c0.6,0.4,1.1,0.9,1.5,1.5s0.5,1.4,0.5,2.1
		C303.2,194.5,303.2,194.8,303.1,195.1z M301.3,192.5c-0.3-0.4-0.6-0.7-1-0.9s-0.9-0.3-1.4-0.3c-0.7,0-1.4,0.2-1.9,0.7
		c-0.5,0.5-0.8,1.1-0.9,1.9h5.5C301.7,193.4,301.6,192.9,301.3,192.5z"/>
	<path d="M305.1,192.2c0.4-0.7,0.9-1.2,1.5-1.6c0.6-0.4,1.4-0.6,2.2-0.6c1.1,0,2,0.3,2.7,0.8s1.2,1.3,1.4,2.2h-1.6
		c-0.1-0.5-0.4-0.9-0.9-1.3s-1-0.5-1.6-0.5c-0.8,0-1.5,0.3-2,0.9c-0.5,0.6-0.8,1.4-0.8,2.4c0,1.1,0.3,1.9,0.8,2.4
		c0.5,0.6,1.2,0.9,2,0.9c0.6,0,1.2-0.1,1.6-0.4s0.7-0.7,0.9-1.3h1.6c-0.2,0.9-0.7,1.6-1.4,2.1c-0.7,0.5-1.6,0.8-2.6,0.8
		c-0.8,0-1.6-0.2-2.2-0.6s-1.1-0.9-1.5-1.6c-0.4-0.7-0.5-1.5-0.5-2.4C304.6,193.6,304.8,192.9,305.1,192.2z"/>
	<path d="M316.4,198.5c-0.7-0.4-1.2-0.9-1.6-1.6s-0.6-1.5-0.6-2.4s0.2-1.7,0.6-2.4c0.4-0.7,0.9-1.2,1.6-1.6c0.7-0.4,1.4-0.6,2.3-0.6
		s1.6,0.2,2.3,0.6c0.7,0.4,1.2,0.9,1.6,1.6s0.6,1.5,0.6,2.4c0,0.9-0.2,1.7-0.6,2.4s-0.9,1.2-1.6,1.6s-1.4,0.6-2.3,0.6
		C317.8,199.1,317.1,198.9,316.4,198.5z M320.1,197.5c0.5-0.3,0.8-0.6,1.1-1.1s0.4-1.1,0.4-1.8s-0.1-1.3-0.4-1.8
		c-0.3-0.5-0.6-0.9-1.1-1.1c-0.5-0.2-0.9-0.4-1.5-0.4s-1,0.1-1.5,0.4s-0.8,0.6-1.1,1.1c-0.3,0.5-0.4,1.1-0.4,1.8
		c0,0.7,0.1,1.3,0.4,1.8c0.3,0.5,0.6,0.9,1,1.1s0.9,0.4,1.4,0.4S319.7,197.7,320.1,197.5z"/>
	<path d="M326.5,187.1V199h-1.5v-11.8H326.5z"/>
	<path d="M330.6,198.5c-0.7-0.4-1.2-0.9-1.6-1.6s-0.6-1.5-0.6-2.4s0.2-1.7,0.6-2.4c0.4-0.7,0.9-1.2,1.6-1.6c0.7-0.4,1.4-0.6,2.3-0.6
		s1.6,0.2,2.3,0.6c0.7,0.4,1.2,0.9,1.6,1.6s0.6,1.5,0.6,2.4c0,0.9-0.2,1.7-0.6,2.4s-0.9,1.2-1.6,1.6s-1.4,0.6-2.3,0.6
		C332,199.1,331.3,198.9,330.6,198.5z M334.3,197.5c0.5-0.3,0.8-0.6,1.1-1.1s0.4-1.1,0.4-1.8s-0.1-1.3-0.4-1.8
		c-0.3-0.5-0.6-0.9-1.1-1.1c-0.5-0.2-0.9-0.4-1.5-0.4s-1,0.1-1.5,0.4s-0.8,0.6-1.1,1.1c-0.3,0.5-0.4,1.1-0.4,1.8
		c0,0.7,0.1,1.3,0.4,1.8c0.3,0.5,0.6,0.9,1,1.1s0.9,0.4,1.4,0.4S333.8,197.7,334.3,197.5z M334.5,187.6l-3.4,1.8v-1.1l3.4-2V187.6z"
		/>
	<path d="M344.9,190.5c0.6,0.3,1,0.8,1.3,1.3v-1.6h1.5v9c0,0.8-0.2,1.5-0.5,2.1c-0.3,0.6-0.8,1.1-1.5,1.5s-1.4,0.5-2.2,0.5
		c-1.1,0-2.1-0.3-2.9-0.8c-0.8-0.5-1.2-1.3-1.4-2.2h1.4c0.2,0.5,0.5,1,1,1.3c0.5,0.3,1.1,0.5,1.8,0.5c0.8,0,1.5-0.3,2-0.8
		c0.5-0.5,0.8-1.2,0.8-2.1v-1.8c-0.3,0.5-0.7,0.9-1.3,1.3s-1.2,0.5-2,0.5c-0.8,0-1.5-0.2-2.1-0.6c-0.6-0.4-1.1-0.9-1.5-1.6
		c-0.4-0.7-0.5-1.5-0.5-2.4c0-0.9,0.2-1.7,0.5-2.4c0.4-0.7,0.9-1.2,1.5-1.6c0.6-0.4,1.3-0.6,2.1-0.6
		C343.6,190,344.3,190.2,344.9,190.5z M345.7,192.8c-0.3-0.5-0.6-0.9-1.1-1.1s-1-0.4-1.5-0.4s-1,0.1-1.5,0.4
		c-0.5,0.3-0.8,0.6-1.1,1.1c-0.3,0.5-0.4,1.1-0.4,1.7c0,0.7,0.1,1.3,0.4,1.8s0.6,0.9,1.1,1.1s0.9,0.4,1.5,0.4s1-0.1,1.5-0.4
		c0.5-0.3,0.8-0.6,1.1-1.1s0.4-1.1,0.4-1.7C346.1,193.9,346,193.3,345.7,192.8z"/>
	<path d="M350.1,188.5c-0.2-0.2-0.3-0.4-0.3-0.7s0.1-0.5,0.3-0.7s0.4-0.3,0.7-0.3c0.3,0,0.5,0.1,0.7,0.3c0.2,0.2,0.3,0.4,0.3,0.7
		s-0.1,0.5-0.3,0.7s-0.4,0.3-0.7,0.3C350.5,188.8,350.3,188.7,350.1,188.5z M351.5,190.2v8.8h-1.5v-8.8H351.5z"/>
	<path d="M354,192.2c0.4-0.7,0.9-1.2,1.5-1.6c0.6-0.4,1.4-0.6,2.2-0.6c1.1,0,2,0.3,2.7,0.8s1.2,1.3,1.4,2.2h-1.6
		c-0.1-0.5-0.4-0.9-0.9-1.3s-1-0.5-1.6-0.5c-0.8,0-1.5,0.3-2,0.9c-0.5,0.6-0.8,1.4-0.8,2.4c0,1.1,0.3,1.9,0.8,2.4
		c0.5,0.6,1.2,0.9,2,0.9c0.6,0,1.2-0.1,1.6-0.4s0.7-0.7,0.9-1.3h1.6c-0.2,0.9-0.7,1.6-1.4,2.1c-0.7,0.5-1.6,0.8-2.6,0.8
		c-0.8,0-1.6-0.2-2.2-0.6s-1.1-0.9-1.5-1.6c-0.4-0.7-0.5-1.5-0.5-2.4C353.5,193.6,353.6,192.9,354,192.2z"/>
	<path d="M365.3,198.5c-0.7-0.4-1.2-0.9-1.6-1.6s-0.6-1.5-0.6-2.4s0.2-1.7,0.6-2.4c0.4-0.7,0.9-1.2,1.6-1.6c0.7-0.4,1.4-0.6,2.3-0.6
		s1.6,0.2,2.3,0.6c0.7,0.4,1.2,0.9,1.6,1.6s0.6,1.5,0.6,2.4c0,0.9-0.2,1.7-0.6,2.4s-0.9,1.2-1.6,1.6s-1.4,0.6-2.3,0.6
		C366.7,199.1,366,198.9,365.3,198.5z M369,197.5c0.5-0.3,0.8-0.6,1.1-1.1s0.4-1.1,0.4-1.8s-0.1-1.3-0.4-1.8
		c-0.3-0.5-0.6-0.9-1.1-1.1c-0.5-0.2-0.9-0.4-1.5-0.4s-1,0.1-1.5,0.4s-0.8,0.6-1.1,1.1c-0.3,0.5-0.4,1.1-0.4,1.8
		c0,0.7,0.1,1.3,0.4,1.8c0.3,0.5,0.6,0.9,1,1.1s0.9,0.4,1.4,0.4S368.5,197.7,369,197.5z"/>
	<path d="M83.2,212.5c-0.2-0.2-0.3-0.4-0.3-0.7s0.1-0.5,0.3-0.7s0.4-0.3,0.7-0.3s0.5,0.1,0.7,0.3c0.2,0.2,0.3,0.4,0.3,0.7
		s-0.1,0.5-0.3,0.7s-0.4,0.3-0.7,0.3S83.4,212.7,83.2,212.5z M84.6,214.2v8.8h-1.5v-8.8H84.6z"/>
	<path d="M93.9,215c0.7,0.6,1,1.6,1,2.8v5.2h-1.4v-5c0-0.9-0.2-1.5-0.7-2s-1-0.7-1.8-0.7c-0.8,0-1.4,0.2-1.8,0.7
		c-0.4,0.5-0.7,1.2-0.7,2.1v4.9h-1.5v-8.8h1.5v1.3c0.3-0.4,0.7-0.8,1.2-1s1-0.4,1.6-0.4C92.4,214,93.3,214.3,93.9,215z"/>
	<path d="M99.1,215.4v5.2c0,0.4,0.1,0.7,0.3,0.9c0.2,0.2,0.5,0.3,0.9,0.3h1.1v1.2h-1.3c-0.8,0-1.4-0.2-1.8-0.6
		c-0.4-0.4-0.6-1-0.6-1.8v-5.2h-1.1v-1.2h1.1V212h1.5v2.2h2.3v1.2L99.1,215.4L99.1,215.4z"/>
	<path d="M111.1,219.1h-7c0.1,0.9,0.3,1.5,0.9,2c0.5,0.5,1.2,0.7,2,0.7c0.6,0,1.2-0.1,1.6-0.4c0.4-0.3,0.7-0.7,0.9-1.2h1.6
		c-0.2,0.8-0.7,1.5-1.4,2.1c-0.7,0.5-1.6,0.8-2.6,0.8c-0.8,0-1.6-0.2-2.2-0.6s-1.2-0.9-1.5-1.6s-0.6-1.5-0.6-2.4
		c0-0.9,0.2-1.7,0.5-2.4c0.4-0.7,0.9-1.2,1.5-1.6c0.7-0.4,1.4-0.6,2.3-0.6c0.8,0,1.6,0.2,2.2,0.5s1.1,0.9,1.5,1.5s0.5,1.4,0.5,2.1
		C111.2,218.5,111.1,218.8,111.1,219.1z M109.3,216.5c-0.3-0.4-0.6-0.7-1-0.9s-0.9-0.3-1.4-0.3c-0.7,0-1.4,0.2-1.9,0.7
		s-0.8,1.1-0.9,1.9h5.5C109.6,217.4,109.5,216.9,109.3,216.5z"/>
	<path d="M118.7,214.5c0.6,0.3,1,0.8,1.3,1.3v-1.6h1.5v9c0,0.8-0.2,1.5-0.5,2.1c-0.3,0.6-0.8,1.1-1.5,1.5s-1.4,0.5-2.2,0.5
		c-1.2,0-2.1-0.3-2.9-0.8c-0.8-0.5-1.2-1.3-1.4-2.2h1.4c0.2,0.5,0.5,1,1,1.3c0.5,0.3,1.1,0.5,1.8,0.5c0.8,0,1.4-0.3,2-0.8
		s0.8-1.2,0.8-2.1v-1.8c-0.3,0.5-0.7,0.9-1.3,1.3s-1.2,0.5-2,0.5c-0.8,0-1.5-0.2-2.1-0.6c-0.6-0.4-1.1-0.9-1.5-1.6
		c-0.4-0.7-0.5-1.5-0.5-2.4c0-0.9,0.2-1.7,0.5-2.4c0.4-0.7,0.9-1.2,1.5-1.6c0.6-0.4,1.3-0.6,2.1-0.6
		C117.4,214,118.1,214.2,118.7,214.5z M119.5,216.8c-0.3-0.5-0.6-0.9-1.1-1.1s-0.9-0.4-1.5-0.4s-1,0.1-1.5,0.4
		c-0.4,0.3-0.8,0.6-1.1,1.1c-0.3,0.5-0.4,1.1-0.4,1.7c0,0.7,0.1,1.3,0.4,1.8s0.6,0.9,1.1,1.1s0.9,0.4,1.5,0.4s1-0.1,1.5-0.4
		c0.4-0.3,0.8-0.6,1.1-1.1s0.4-1.1,0.4-1.7C119.9,217.9,119.8,217.3,119.5,216.8z"/>
	<path d="M126.4,214.4c0.5-0.3,1.1-0.4,1.7-0.4v1.5h-0.4c-1.6,0-2.4,0.9-2.4,2.7v4.8h-1.5v-8.8h1.5v1.4
		C125.6,215.1,126,214.7,126.4,214.4z"/>
	<path d="M129.9,216.2c0.4-0.7,0.9-1.2,1.5-1.6c0.6-0.4,1.3-0.6,2.1-0.6c0.8,0,1.4,0.2,2,0.5s1,0.8,1.3,1.3v-1.6h1.5v8.8h-1.5v-1.6
		c-0.3,0.5-0.7,0.9-1.3,1.3c-0.6,0.3-1.2,0.5-2,0.5c-0.8,0-1.5-0.2-2.1-0.6c-0.6-0.4-1.1-0.9-1.5-1.6c-0.4-0.7-0.5-1.5-0.5-2.4
		C129.3,217.6,129.5,216.9,129.9,216.2z M136.3,216.8c-0.3-0.5-0.6-0.9-1.1-1.1s-0.9-0.4-1.5-0.4s-1,0.1-1.5,0.4
		c-0.4,0.3-0.8,0.6-1.1,1.1c-0.3,0.5-0.4,1.1-0.4,1.7c0,0.7,0.1,1.3,0.4,1.8s0.6,0.9,1.1,1.1c0.4,0.3,0.9,0.4,1.5,0.4s1-0.1,1.5-0.4
		c0.4-0.3,0.8-0.6,1.1-1.1s0.4-1.1,0.4-1.7C136.7,217.9,136.6,217.3,136.3,216.8z"/>
	<path d="M142.1,211.1V223h-1.5v-11.8H142.1z"/>
	<path d="M150.2,222.8c-0.5-0.2-1-0.6-1.3-1c-0.3-0.4-0.5-0.9-0.5-1.4h1.5c0,0.4,0.3,0.8,0.6,1.1s0.9,0.4,1.4,0.4
		c0.6,0,1-0.1,1.3-0.4s0.5-0.6,0.5-0.9c0-0.4-0.2-0.7-0.5-0.9s-0.9-0.4-1.6-0.6c-0.6-0.2-1.2-0.3-1.6-0.5c-0.4-0.2-0.8-0.4-1.1-0.8
		c-0.3-0.4-0.4-0.8-0.4-1.4c0-0.4,0.1-0.9,0.4-1.2c0.3-0.4,0.6-0.7,1.1-0.9s1.1-0.3,1.7-0.3c1,0,1.8,0.3,2.4,0.7s0.9,1.2,1,2h-1.5
		c0-0.5-0.2-0.8-0.6-1.1s-0.8-0.4-1.4-0.4c-0.5,0-0.9,0.1-1.3,0.3c-0.3,0.2-0.5,0.5-0.5,0.9c0,0.3,0.1,0.5,0.3,0.7s0.4,0.3,0.7,0.4
		s0.7,0.2,1.2,0.4c0.6,0.2,1.1,0.3,1.5,0.5s0.7,0.4,1,0.7c0.3,0.3,0.4,0.8,0.4,1.3c0,0.5-0.1,0.9-0.4,1.3s-0.6,0.7-1.1,0.9
		c-0.5,0.2-1,0.3-1.7,0.3C151.3,223.1,150.7,223,150.2,222.8z"/>
	<path d="M165.2,219.1h-7c0.1,0.9,0.4,1.5,0.9,2c0.5,0.5,1.2,0.7,2,0.7c0.6,0,1.1-0.1,1.6-0.4c0.4-0.3,0.7-0.7,0.9-1.2h1.6
		c-0.2,0.8-0.7,1.5-1.4,2.1c-0.7,0.5-1.6,0.8-2.6,0.8c-0.8,0-1.6-0.2-2.2-0.6s-1.2-0.9-1.5-1.6s-0.6-1.5-0.6-2.4
		c0-0.9,0.2-1.7,0.5-2.4c0.4-0.7,0.9-1.2,1.5-1.6s1.4-0.6,2.3-0.6c0.8,0,1.6,0.2,2.2,0.5s1.1,0.9,1.5,1.5s0.5,1.4,0.5,2.1
		C165.2,218.5,165.2,218.8,165.2,219.1z M163.4,216.5c-0.3-0.4-0.6-0.7-1-0.9s-0.9-0.3-1.4-0.3c-0.7,0-1.4,0.2-1.9,0.7
		s-0.8,1.1-0.9,1.9h5.5C163.7,217.4,163.6,216.9,163.4,216.5z"/>
	<path d="M169.7,214.4c0.5-0.3,1.1-0.4,1.7-0.4v1.5h-0.4c-1.6,0-2.4,0.9-2.4,2.7v4.8h-1.5v-8.8h1.5v1.4
		C168.9,215.1,169.2,214.7,169.7,214.4z"/>
	<path d="M173.1,216.2c0.4-0.7,0.9-1.2,1.5-1.6c0.6-0.4,1.3-0.6,2.1-0.6c0.8,0,1.4,0.2,2,0.5s1,0.8,1.3,1.3v-1.6h1.5v8.8H180v-1.6
		c-0.3,0.5-0.7,0.9-1.3,1.3c-0.6,0.3-1.2,0.5-2,0.5c-0.8,0-1.5-0.2-2.1-0.6c-0.6-0.4-1.1-0.9-1.5-1.6c-0.4-0.7-0.5-1.5-0.5-2.4
		C172.6,217.6,172.8,216.9,173.1,216.2z M179.6,216.8c-0.3-0.5-0.6-0.9-1.1-1.1s-0.9-0.4-1.5-0.4s-1,0.1-1.5,0.4
		c-0.4,0.3-0.8,0.6-1.1,1.1c-0.3,0.5-0.4,1.1-0.4,1.7c0,0.7,0.1,1.3,0.4,1.8s0.6,0.9,1.1,1.1c0.4,0.3,0.9,0.4,1.5,0.4s1-0.1,1.5-0.4
		c0.4-0.3,0.8-0.6,1.1-1.1s0.4-1.1,0.4-1.7C180,217.9,179.9,217.3,179.6,216.8z M178.9,211.7l-3.4,1.8v-1.1l3.4-2V211.7z"/>
	<path d="M196.1,219.1h-7c0.1,0.9,0.4,1.5,0.9,2c0.5,0.5,1.2,0.7,2,0.7c0.6,0,1.1-0.1,1.6-0.4c0.4-0.3,0.7-0.7,0.9-1.2h1.6
		c-0.2,0.8-0.7,1.5-1.4,2.1c-0.7,0.5-1.6,0.8-2.6,0.8c-0.8,0-1.6-0.2-2.2-0.6s-1.2-0.9-1.5-1.6s-0.6-1.5-0.6-2.4
		c0-0.9,0.2-1.7,0.5-2.4c0.4-0.7,0.9-1.2,1.5-1.6s1.4-0.6,2.3-0.6c0.8,0,1.6,0.2,2.2,0.5s1.1,0.9,1.5,1.5s0.5,1.4,0.5,2.1
		C196.2,218.5,196.2,218.8,196.1,219.1z M194.3,216.5c-0.3-0.4-0.6-0.7-1-0.9s-0.9-0.3-1.4-0.3c-0.7,0-1.4,0.2-1.9,0.7
		s-0.8,1.1-0.9,1.9h5.5C194.7,217.4,194.6,216.9,194.3,216.5z"/>
	<path d="M205,215c0.7,0.6,1,1.6,1,2.8v5.2h-1.4v-5c0-0.9-0.2-1.5-0.7-2s-1-0.7-1.8-0.7c-0.8,0-1.4,0.2-1.8,0.7s-0.7,1.2-0.7,2.1
		v4.9h-1.5v-8.8h1.5v1.3c0.3-0.4,0.7-0.8,1.2-1s1-0.4,1.6-0.4C203.5,214,204.3,214.3,205,215z"/>
	<path d="M211.6,221.6l2.7-7.4h1.6l-3.4,8.8h-1.7l-3.4-8.8h1.6L211.6,221.6z"/>
	<path d="M217.4,212.5c-0.2-0.2-0.3-0.4-0.3-0.7s0.1-0.5,0.3-0.7c0.2-0.2,0.4-0.3,0.7-0.3s0.5,0.1,0.7,0.3c0.2,0.2,0.3,0.4,0.3,0.7
		s-0.1,0.5-0.3,0.7s-0.4,0.3-0.7,0.3C217.8,212.8,217.6,212.7,217.4,212.5z M218.8,214.2v8.8h-1.5v-8.8H218.8z"/>
	<path d="M221.3,216.2c0.4-0.7,0.9-1.2,1.5-1.6c0.6-0.4,1.3-0.6,2.1-0.6c0.8,0,1.4,0.2,2,0.5s1,0.8,1.3,1.3v-1.6h1.5v8.8h-1.5v-1.6
		c-0.3,0.5-0.7,0.9-1.3,1.3c-0.6,0.3-1.2,0.5-2,0.5c-0.8,0-1.5-0.2-2.1-0.6c-0.6-0.4-1.1-0.9-1.5-1.6c-0.4-0.7-0.5-1.5-0.5-2.4
		C220.7,217.6,220.9,216.9,221.3,216.2z M227.8,216.8c-0.3-0.5-0.6-0.9-1.1-1.1s-0.9-0.4-1.5-0.4s-1,0.1-1.5,0.4
		c-0.4,0.3-0.8,0.6-1.1,1.1c-0.3,0.5-0.4,1.1-0.4,1.7c0,0.7,0.1,1.3,0.4,1.8s0.6,0.9,1.1,1.1c0.4,0.3,0.9,0.4,1.5,0.4s1-0.1,1.5-0.4
		c0.4-0.3,0.8-0.6,1.1-1.1s0.4-1.1,0.4-1.7C228.1,217.9,228,217.3,227.8,216.8z"/>
	<path d="M232.1,216.2c0.4-0.7,0.9-1.2,1.5-1.6c0.6-0.4,1.4-0.6,2.1-0.6c0.7,0,1.3,0.2,1.9,0.5c0.6,0.3,1,0.7,1.3,1.2v-4.6h1.5v11.8
		H239v-1.6c-0.3,0.5-0.7,0.9-1.3,1.3s-1.2,0.5-2,0.5c-0.8,0-1.5-0.2-2.1-0.6c-0.6-0.4-1.1-0.9-1.5-1.6c-0.4-0.7-0.5-1.5-0.5-2.4
		C231.5,217.6,231.7,216.9,232.1,216.2z M238.6,216.8c-0.3-0.5-0.6-0.9-1.1-1.1s-0.9-0.4-1.5-0.4s-1,0.1-1.5,0.4
		c-0.4,0.3-0.8,0.6-1.1,1.1c-0.3,0.5-0.4,1.1-0.4,1.7c0,0.7,0.1,1.3,0.4,1.8s0.6,0.9,1.1,1.1c0.4,0.3,0.9,0.4,1.5,0.4s1-0.1,1.5-0.4
		c0.4-0.3,0.8-0.6,1.1-1.1s0.4-1.1,0.4-1.7C239,217.9,238.8,217.3,238.6,216.8z"/>
	<path d="M244.5,222.5c-0.7-0.4-1.2-0.9-1.6-1.6s-0.6-1.5-0.6-2.4s0.2-1.7,0.6-2.4s0.9-1.2,1.6-1.6c0.7-0.4,1.4-0.6,2.3-0.6
		s1.6,0.2,2.3,0.6c0.7,0.4,1.2,0.9,1.6,1.6s0.6,1.5,0.6,2.4c0,0.9-0.2,1.7-0.6,2.4c-0.4,0.7-0.9,1.2-1.6,1.6s-1.4,0.6-2.3,0.6
		C245.9,223.1,245.2,222.9,244.5,222.5z M248.2,221.5c0.5-0.3,0.8-0.6,1.1-1.1s0.4-1.1,0.4-1.8s-0.1-1.3-0.4-1.8
		c-0.3-0.5-0.6-0.9-1.1-1.1s-0.9-0.4-1.5-0.4c-0.5,0-1,0.1-1.5,0.4s-0.8,0.6-1.1,1.1c-0.3,0.5-0.4,1.1-0.4,1.8
		c0,0.7,0.1,1.3,0.4,1.8c0.3,0.5,0.6,0.9,1.1,1.1s0.9,0.4,1.4,0.4S247.7,221.7,248.2,221.5z"/>
	<path d="M257.4,216.2c0.4-0.7,0.9-1.2,1.5-1.6c0.6-0.4,1.3-0.6,2.1-0.6c0.8,0,1.4,0.2,2,0.5s1,0.8,1.3,1.3v-1.6h1.5v8.8h-1.5v-1.6
		c-0.3,0.5-0.7,0.9-1.3,1.3c-0.6,0.3-1.2,0.5-2,0.5c-0.8,0-1.5-0.2-2.1-0.6c-0.6-0.4-1.1-0.9-1.5-1.6c-0.4-0.7-0.5-1.5-0.5-2.4
		C256.9,217.6,257,216.9,257.4,216.2z M263.9,216.8c-0.3-0.5-0.6-0.9-1.1-1.1s-1-0.4-1.5-0.4s-1,0.1-1.5,0.4
		c-0.5,0.3-0.8,0.6-1.1,1.1c-0.3,0.5-0.4,1.1-0.4,1.7c0,0.7,0.1,1.3,0.4,1.8s0.6,0.9,1.1,1.1s0.9,0.4,1.5,0.4s1-0.1,1.5-0.4
		c0.5-0.3,0.8-0.6,1.1-1.1s0.4-1.1,0.4-1.7C264.3,217.9,264.2,217.3,263.9,216.8z"/>
	<path d="M274.3,215.4v5.2c0,0.4,0.1,0.7,0.3,0.9c0.2,0.2,0.5,0.3,0.9,0.3h1.1v1.2h-1.3c-0.8,0-1.4-0.2-1.8-0.6
		c-0.4-0.4-0.6-1-0.6-1.8v-5.2h-1.1v-1.2h1.1V212h1.5v2.2h2.3v1.2L274.3,215.4L274.3,215.4z"/>
	<path d="M286.1,214.2v8.8h-1.5v-1.3c-0.3,0.4-0.7,0.8-1.2,1.1s-1,0.4-1.6,0.4c-0.7,0-1.3-0.1-1.8-0.4s-1-0.7-1.3-1.3
		c-0.3-0.6-0.5-1.3-0.5-2.1v-5.1h1.4v4.9c0,0.9,0.2,1.5,0.7,2s1,0.7,1.8,0.7c0.8,0,1.4-0.2,1.8-0.7c0.5-0.5,0.7-1.2,0.7-2.1v-4.8
		H286.1z"/>
	<path d="M292.8,216.2c0.4-0.7,0.9-1.2,1.5-1.6c0.6-0.4,1.4-0.6,2.2-0.6c1.1,0,2,0.3,2.7,0.8s1.2,1.3,1.4,2.2H299
		c-0.1-0.5-0.4-0.9-0.9-1.3s-1-0.5-1.6-0.5c-0.8,0-1.5,0.3-2,0.9c-0.5,0.6-0.8,1.4-0.8,2.4c0,1.1,0.3,1.9,0.8,2.4
		c0.5,0.6,1.2,0.9,2,0.9c0.6,0,1.2-0.1,1.6-0.4s0.7-0.7,0.9-1.3h1.6c-0.2,0.9-0.7,1.6-1.4,2.1c-0.7,0.5-1.6,0.8-2.6,0.8
		c-0.8,0-1.6-0.2-2.2-0.6s-1.1-0.9-1.5-1.6c-0.4-0.7-0.5-1.5-0.5-2.4C292.3,217.6,292.5,216.9,292.8,216.2z"/>
	<path d="M304.1,222.5c-0.7-0.4-1.2-0.9-1.6-1.6s-0.6-1.5-0.6-2.4s0.2-1.7,0.6-2.4c0.4-0.7,0.9-1.2,1.6-1.6c0.7-0.4,1.4-0.6,2.3-0.6
		s1.6,0.2,2.3,0.6c0.7,0.4,1.2,0.9,1.6,1.6s0.6,1.5,0.6,2.4c0,0.9-0.2,1.7-0.6,2.4s-0.9,1.2-1.6,1.6s-1.4,0.6-2.3,0.6
		C305.5,223.1,304.8,222.9,304.1,222.5z M307.8,221.5c0.5-0.3,0.8-0.6,1.1-1.1s0.4-1.1,0.4-1.8s-0.1-1.3-0.4-1.8
		c-0.3-0.5-0.6-0.9-1.1-1.1c-0.5-0.2-0.9-0.4-1.5-0.4s-1,0.1-1.5,0.4s-0.8,0.6-1.1,1.1c-0.3,0.5-0.4,1.1-0.4,1.8
		c0,0.7,0.1,1.3,0.4,1.8c0.3,0.5,0.6,0.9,1,1.1s0.9,0.4,1.4,0.4S307.4,221.7,307.8,221.5z"/>
	<path d="M315.3,214.4c0.5-0.3,1-0.4,1.7-0.4v1.5h-0.4c-1.6,0-2.5,0.9-2.5,2.7v4.8h-1.5v-8.8h1.5v1.4
		C314.5,215.1,314.9,214.7,315.3,214.4z"/>
	<path d="M321.3,214.4c0.5-0.3,1-0.4,1.7-0.4v1.5h-0.4c-1.6,0-2.5,0.9-2.5,2.7v4.8h-1.5v-8.8h1.5v1.4
		C320.5,215.1,320.8,214.7,321.3,214.4z"/>
	<path d="M332.7,219.1h-7c0,0.9,0.4,1.5,0.9,2c0.5,0.5,1.2,0.7,2,0.7c0.6,0,1.1-0.1,1.6-0.4c0.4-0.3,0.7-0.7,0.9-1.2h1.6
		c-0.2,0.8-0.7,1.5-1.4,2.1c-0.7,0.5-1.6,0.8-2.6,0.8c-0.8,0-1.6-0.2-2.2-0.6s-1.2-0.9-1.5-1.6s-0.6-1.5-0.6-2.4
		c0-0.9,0.2-1.7,0.5-2.4c0.4-0.7,0.9-1.2,1.5-1.6s1.4-0.6,2.3-0.6c0.8,0,1.6,0.2,2.2,0.5c0.6,0.4,1.1,0.9,1.5,1.5s0.5,1.4,0.5,2.1
		C332.7,218.5,332.7,218.8,332.7,219.1z M330.9,216.5c-0.3-0.4-0.6-0.7-1-0.9s-0.9-0.3-1.4-0.3c-0.7,0-1.4,0.2-1.9,0.7
		c-0.5,0.5-0.8,1.1-0.9,1.9h5.5C331.2,217.4,331.1,216.9,330.9,216.5z"/>
	<path d="M336.2,222.5c-0.7-0.4-1.2-0.9-1.6-1.6s-0.6-1.5-0.6-2.4s0.2-1.7,0.6-2.4c0.4-0.7,0.9-1.2,1.6-1.6c0.7-0.4,1.4-0.6,2.3-0.6
		s1.6,0.2,2.3,0.6c0.7,0.4,1.2,0.9,1.6,1.6s0.6,1.5,0.6,2.4c0,0.9-0.2,1.7-0.6,2.4s-0.9,1.2-1.6,1.6s-1.4,0.6-2.3,0.6
		C337.6,223.1,336.9,222.9,336.2,222.5z M339.9,221.5c0.5-0.3,0.8-0.6,1.1-1.1s0.4-1.1,0.4-1.8s-0.1-1.3-0.4-1.8
		c-0.3-0.5-0.6-0.9-1.1-1.1c-0.5-0.2-0.9-0.4-1.5-0.4s-1,0.1-1.5,0.4s-0.8,0.6-1.1,1.1c-0.3,0.5-0.4,1.1-0.4,1.8
		c0,0.7,0.1,1.3,0.4,1.8c0.3,0.5,0.6,0.9,1,1.1s0.9,0.4,1.4,0.4S339.5,221.7,339.9,221.5z"/>
	<path d="M357.1,219.1h-7c0,0.9,0.4,1.5,0.9,2c0.5,0.5,1.2,0.7,2,0.7c0.6,0,1.1-0.1,1.6-0.4c0.4-0.3,0.7-0.7,0.9-1.2h1.6
		c-0.2,0.8-0.7,1.5-1.4,2.1c-0.7,0.5-1.6,0.8-2.6,0.8c-0.8,0-1.6-0.2-2.2-0.6s-1.2-0.9-1.5-1.6s-0.6-1.5-0.6-2.4
		c0-0.9,0.2-1.7,0.5-2.4c0.4-0.7,0.9-1.2,1.5-1.6s1.4-0.6,2.3-0.6c0.8,0,1.6,0.2,2.2,0.5c0.6,0.4,1.1,0.9,1.5,1.5s0.5,1.4,0.5,2.1
		C357.2,218.5,357.1,218.8,357.1,219.1z M355.3,216.5c-0.3-0.4-0.6-0.7-1-0.9s-0.9-0.3-1.4-0.3c-0.7,0-1.4,0.2-1.9,0.7
		c-0.5,0.5-0.8,1.1-0.9,1.9h5.5C355.6,217.4,355.5,216.9,355.3,216.5z"/>
	<path d="M365.9,215c0.7,0.6,1,1.6,1,2.8v5.2h-1.4v-5c0-0.9-0.2-1.5-0.7-2s-1-0.7-1.8-0.7c-0.8,0-1.4,0.2-1.8,0.7
		c-0.5,0.5-0.7,1.2-0.7,2.1v4.9h-1.5v-8.8h1.5v1.3c0.3-0.4,0.7-0.8,1.2-1s1-0.4,1.6-0.4C364.4,214,365.3,214.3,365.9,215z"/>
	<path d="M178.5,236.5l-4.4,10.4h-1.5l4.5-10.3h-6.2v-1.3h7.6L178.5,236.5L178.5,236.5z"/>
	<path d="M184.6,240.2c0.4-0.7,0.9-1.2,1.5-1.6c0.6-0.4,1.4-0.6,2.1-0.6c0.7,0,1.3,0.2,1.9,0.5c0.6,0.3,1,0.7,1.3,1.2v-4.6h1.5v11.8
		h-1.5v-1.6c-0.3,0.5-0.7,0.9-1.3,1.3s-1.2,0.5-2,0.5c-0.8,0-1.5-0.2-2.1-0.6c-0.6-0.4-1.1-0.9-1.5-1.6c-0.4-0.7-0.5-1.5-0.5-2.4
		C184.1,241.6,184.3,240.9,184.6,240.2z M191.1,240.8c-0.3-0.5-0.6-0.9-1.1-1.1s-0.9-0.4-1.5-0.4s-1,0.1-1.5,0.4
		c-0.4,0.3-0.8,0.6-1.1,1.1c-0.3,0.5-0.4,1.1-0.4,1.7c0,0.7,0.1,1.3,0.4,1.8s0.6,0.9,1.1,1.1c0.4,0.3,0.9,0.4,1.5,0.4s1-0.1,1.5-0.4
		c0.4-0.3,0.8-0.6,1.1-1.1s0.4-1.1,0.4-1.7C191.5,241.9,191.4,241.3,191.1,240.8z"/>
	<path d="M197.7,235.7l-3.4,1.8v-1.1l3.4-2V235.7z M196.9,238.2v8.8h-1.5v-8.8H196.9z"/>
	<path d="M199.4,240.2c0.4-0.7,0.9-1.2,1.5-1.6c0.6-0.4,1.3-0.6,2.1-0.6c0.8,0,1.4,0.2,2,0.5s1,0.8,1.3,1.3v-1.6h1.5v8.8h-1.5v-1.6
		c-0.3,0.5-0.7,0.9-1.3,1.3c-0.6,0.3-1.2,0.5-2,0.5c-0.8,0-1.5-0.2-2.1-0.6c-0.6-0.4-1.1-0.9-1.5-1.6c-0.4-0.7-0.5-1.5-0.5-2.4
		C198.8,241.6,199,240.9,199.4,240.2z M205.9,240.8c-0.3-0.5-0.6-0.9-1.1-1.1s-0.9-0.4-1.5-0.4s-1,0.1-1.5,0.4
		c-0.4,0.3-0.8,0.6-1.1,1.1c-0.3,0.5-0.4,1.1-0.4,1.7c0,0.7,0.1,1.3,0.4,1.8s0.6,0.9,1.1,1.1c0.4,0.3,0.9,0.4,1.5,0.4s1-0.1,1.5-0.4
		c0.4-0.3,0.8-0.6,1.1-1.1s0.4-1.1,0.4-1.7C206.3,241.9,206.1,241.3,205.9,240.8z"/>
	<path d="M211.5,246.8c-0.5-0.2-1-0.6-1.3-1c-0.3-0.4-0.5-0.9-0.5-1.4h1.5c0,0.4,0.3,0.8,0.6,1.1s0.9,0.4,1.4,0.4
		c0.6,0,1-0.1,1.3-0.4s0.5-0.6,0.5-0.9c0-0.4-0.2-0.7-0.5-0.9s-0.9-0.4-1.6-0.6c-0.6-0.2-1.2-0.3-1.6-0.5c-0.4-0.2-0.8-0.4-1.1-0.8
		c-0.3-0.4-0.4-0.8-0.4-1.4c0-0.4,0.1-0.9,0.4-1.2c0.3-0.4,0.6-0.7,1.1-0.9s1.1-0.3,1.7-0.3c1,0,1.8,0.3,2.4,0.7s0.9,1.2,1,2H215
		c0-0.5-0.2-0.8-0.6-1.1s-0.8-0.4-1.4-0.4c-0.5,0-0.9,0.1-1.3,0.3c-0.3,0.2-0.5,0.5-0.5,0.9c0,0.3,0.1,0.5,0.3,0.7s0.4,0.3,0.7,0.4
		s0.7,0.2,1.2,0.4c0.6,0.2,1.1,0.3,1.5,0.5s0.7,0.4,1,0.7c0.3,0.3,0.4,0.8,0.4,1.3c0,0.5-0.1,0.9-0.4,1.3s-0.6,0.7-1.1,0.9
		c-0.5,0.2-1,0.3-1.7,0.3C212.6,247.1,212,247,211.5,246.8z"/>
	<path d="M229,238.5c0.5,0.3,0.9,0.7,1.3,1.3c0.3,0.6,0.5,1.3,0.5,2.1v5.2h-1.4v-5c0-0.9-0.2-1.5-0.7-2s-1-0.7-1.8-0.7
		c-0.8,0-1.4,0.2-1.8,0.7s-0.7,1.2-0.7,2.1v4.9h-1.5v-11.8h1.5v4.3c0.3-0.4,0.7-0.8,1.2-1c0.5-0.3,1.1-0.4,1.7-0.4
		C227.8,238,228.4,238.2,229,238.5z"/>
	<path d="M233.1,240.2c0.4-0.7,0.9-1.2,1.5-1.6c0.6-0.4,1.3-0.6,2.1-0.6c0.8,0,1.4,0.2,2,0.5s1,0.8,1.3,1.3v-1.6h1.5v8.8h-1.5v-1.6
		c-0.3,0.5-0.7,0.9-1.3,1.3c-0.6,0.3-1.2,0.5-2,0.5c-0.8,0-1.5-0.2-2.1-0.6c-0.6-0.4-1.1-0.9-1.5-1.6c-0.4-0.7-0.5-1.5-0.5-2.4
		C232.5,241.6,232.7,240.9,233.1,240.2z M239.5,240.8c-0.3-0.5-0.6-0.9-1.1-1.1s-0.9-0.4-1.5-0.4s-1,0.1-1.5,0.4
		c-0.4,0.3-0.8,0.6-1.1,1.1c-0.3,0.5-0.4,1.1-0.4,1.7c0,0.7,0.1,1.3,0.4,1.8s0.6,0.9,1.1,1.1c0.4,0.3,0.9,0.4,1.5,0.4s1-0.1,1.5-0.4
		c0.4-0.3,0.8-0.6,1.1-1.1s0.4-1.1,0.4-1.7C239.9,241.9,239.8,241.3,239.5,240.8z M238.8,235.7l-3.4,1.8v-1.1l3.4-2V235.7z"/>
	<path d="M246.6,238.5c0.6-0.3,1.2-0.5,2-0.5c0.8,0,1.5,0.2,2.1,0.6s1.1,0.9,1.5,1.6c0.4,0.7,0.5,1.5,0.5,2.4c0,0.9-0.2,1.7-0.5,2.4
		s-0.9,1.2-1.5,1.6c-0.6,0.4-1.3,0.6-2.1,0.6c-0.8,0-1.4-0.2-2-0.5s-1-0.8-1.3-1.3v1.6h-1.5v-11.8h1.5v4.7
		C245.6,239.3,246.1,238.9,246.6,238.5z M250.9,240.8c-0.3-0.5-0.6-0.9-1.1-1.1s-0.9-0.4-1.5-0.4c-0.5,0-1,0.1-1.5,0.4
		s-0.8,0.6-1.1,1.1c-0.3,0.5-0.4,1.1-0.4,1.7c0,0.7,0.1,1.2,0.4,1.7s0.6,0.9,1.1,1.1c0.4,0.3,0.9,0.4,1.5,0.4c0.5,0,1-0.1,1.5-0.4
		c0.4-0.3,0.8-0.6,1.1-1.1s0.4-1.1,0.4-1.8C251.3,241.9,251.1,241.3,250.9,240.8z"/>
	<path d="M254.7,236.5c-0.2-0.2-0.3-0.4-0.3-0.7s0.1-0.5,0.3-0.7c0.2-0.2,0.4-0.3,0.7-0.3s0.5,0.1,0.7,0.3c0.2,0.2,0.3,0.4,0.3,0.7
		s-0.1,0.5-0.3,0.7s-0.4,0.3-0.7,0.3C255.2,236.8,254.9,236.7,254.7,236.5z M256.1,238.2v8.8h-1.5v-8.8H256.1z"/>
	<path d="M260.1,235.1V247h-1.5v-11.8H260.1z"/>
	<path d="M270.5,243.1h-7c0,0.9,0.4,1.5,0.9,2c0.5,0.5,1.2,0.7,2,0.7c0.6,0,1.1-0.1,1.6-0.4c0.4-0.3,0.7-0.7,0.9-1.2h1.6
		c-0.2,0.8-0.7,1.5-1.4,2.1c-0.7,0.5-1.6,0.8-2.6,0.8c-0.8,0-1.6-0.2-2.2-0.6s-1.2-0.9-1.5-1.6s-0.6-1.5-0.6-2.4
		c0-0.9,0.2-1.7,0.5-2.4c0.4-0.7,0.9-1.2,1.5-1.6s1.4-0.6,2.3-0.6c0.8,0,1.6,0.2,2.2,0.5c0.6,0.4,1.1,0.9,1.5,1.5s0.5,1.4,0.5,2.1
		C270.6,242.5,270.5,242.8,270.5,243.1z M268.7,240.5c-0.3-0.4-0.6-0.7-1-0.9s-0.9-0.3-1.4-0.3c-0.7,0-1.4,0.2-1.9,0.7
		c-0.5,0.5-0.8,1.1-0.9,1.9h5.5C269.1,241.4,268.9,240.9,268.7,240.5z"/>
	<path d="M273.8,246.8c-0.5-0.2-1-0.6-1.3-1c-0.3-0.4-0.5-0.9-0.5-1.4h1.5c0,0.4,0.3,0.8,0.6,1.1s0.9,0.4,1.5,0.4
		c0.5,0,1-0.1,1.3-0.4s0.5-0.6,0.5-0.9c0-0.4-0.2-0.7-0.5-0.9s-0.9-0.4-1.6-0.6c-0.6-0.2-1.2-0.3-1.6-0.5c-0.4-0.2-0.8-0.4-1.1-0.8
		c-0.3-0.4-0.4-0.8-0.4-1.4c0-0.4,0.1-0.9,0.4-1.2s0.6-0.7,1.1-0.9s1-0.3,1.7-0.3c1,0,1.8,0.3,2.4,0.7s0.9,1.2,1,2h-1.5
		c0-0.5-0.2-0.8-0.5-1.1s-0.8-0.4-1.4-0.4c-0.5,0-0.9,0.1-1.3,0.3c-0.3,0.2-0.5,0.5-0.5,0.9c0,0.3,0.1,0.5,0.3,0.7s0.4,0.3,0.7,0.4
		s0.7,0.2,1.2,0.4c0.6,0.2,1.1,0.3,1.5,0.5s0.7,0.4,1,0.7c0.3,0.3,0.4,0.8,0.4,1.3c0,0.5-0.1,0.9-0.4,1.3s-0.6,0.7-1.1,0.9
		c-0.5,0.2-1,0.3-1.7,0.3C274.9,247.1,274.3,247,273.8,246.8z"/>
</g>
<g>
	<path class="st2" d="M263.1,58.9l-16.4-16.5c-12-12.1-31.5-12.1-43.5,0l-16.4,16.5"/>
	<path class="st3" d="M260.7,106.8h-71.4c-1.3,0-2.4-1.1-2.4-2.4V58.9h76.2v45.5C263.1,105.7,262,106.8,260.7,106.8z"/>
	<path class="st4" d="M249.9,102.2h-49.9c-1.3,0-2.4-1.1-2.4-2.4V34.2c0-1.3,1.1-2.4,2.4-2.4h49.9c1.3,0,2.4,1.1,2.4,2.4v65.6
		C252.4,101.1,251.3,102.2,249.9,102.2z"/>
	<path class="st2" d="M225,82.8l37.4,23.5c0.5-0.4,0.8-0.9,0.8-1.6V58.9L225,82.8z"/>
	<path class="st2" d="M225,82.8l-37.4,23.5c-0.5-0.4-0.8-0.9-0.8-1.6V58.9L225,82.8z"/>
	<path class="st3" d="M261.1,106.8c0.5,0,1-0.2,1.4-0.6l-32.5-29c-2.8-2.5-7.3-2.5-10,0l-32.5,29c0.4,0.3,0.9,0.6,1.4,0.6H261.1z"/>
	<g>
		<path class="st1" d="M227.9,50.7c-0.1,0.6,0.2,1.1,0.8,1.1c1.1,0,2.2-1.8,2.2-4.1c0-3-1.7-5.3-5.1-5.3c-3.8,0-6.8,3.3-6.8,7.3
			c0,3.2,1.7,5.3,5.1,5.3c1.2,0,2.2-0.3,2.8-0.7l0.6,1.4c-1.1,0.7-2.5,1-3.6,1c-4.3,0-6.8-2.8-6.8-6.8c0-5,3.9-9.3,8.9-9.3
			c4.2,0,6.8,2.9,6.8,6.7c0,2.7-1.4,6.1-4.4,6.1c-1.2,0-2-0.7-2.4-1.4c-0.6,0.8-1.5,1.2-2.4,1.2h0c-1.9,0-2.9-1.2-2.6-3.2l0.4-2.7
			c0.3-2,1.5-3.2,3.5-3.2h0c0.9,0,1.7,0.5,2.1,1.2l0.8-1h1L227.9,50.7z M226.3,47.4c0.1-0.6-0.3-1-0.9-1h-0.6c-0.6,0-1.1,0.4-1.2,1
			l-0.4,2.8c-0.1,0.6,0.3,1,0.9,1h0.6c0.6,0,1.1-0.4,1.2-1L226.3,47.4z"/>
	</g>
</g>
</svg>
