<?xml version="1.0" encoding="utf-8"?>
<!-- Generator: Adobe Illustrator 24.1.1, SVG Export Plug-In . SVG Version: 6.00 Build 0)  -->
<svg version="1.1" id="Capa_1" xmlns="http://www.w3.org/2000/svg" xmlns:xlink="http://www.w3.org/1999/xlink" x="0px" y="0px"
	 viewBox="0 0 450 280" style="enable-background:new 0 0 450 280;" xml:space="preserve">
<style type="text/css">
	.st0{fill:#FFFFFF;}
	.st1{fill:#007CC3;}
	.st2{fill:#D36F62;}
	.st3{fill:#F8C5B0;}
	.st4{fill:#F7A6A9;}
	.st5{fill:#F173AC;}
	.st6{clip-path:url(#SVGID_2_);}
	.st7{fill:#D9D9D9;}
	.st8{fill:#BFBFBF;}
	.st9{fill:#999999;}
	.st10{fill:#1A1A1A;}
	.st11{fill:#F5A4C7;}
	.st12{fill:#F4C6DE;}
	.st13{opacity:0.5;fill:#D36F62;enable-background:new    ;}
</style>
<rect class="st0" width="450" height="280"/>
<g>
	<path class="st1" d="M104.3,155.75v-17.5h11.17v3h-8.02v4.25h6.45v3h-6.45v4.25h8.02v3H104.3z"/>
	<path class="st1" d="M124.57,150.9l3.07,0.3v0.2c0,2.65-1.9,4.6-4.57,4.6h-0.78c-2.67,0-4.57-1.95-4.57-4.6v-4.05
		c0-2.65,1.9-4.6,4.57-4.6h0.78c2.67,0,4.57,1.95,4.57,4.6v0.2l-3.07,0.3v-0.6c0-0.82-0.67-1.5-1.5-1.5h-0.78
		c-0.82,0-1.5,0.67-1.5,1.5v4.25c0,0.83,0.67,1.5,1.5,1.5h0.78c0.82,0,1.5-0.67,1.5-1.5V150.9z"/>
	<path class="st1" d="M140.32,151.4c0,2.65-1.9,4.6-4.57,4.6h-0.78c-2.67,0-4.57-1.95-4.57-4.6v-4.05c0-2.65,1.9-4.6,4.57-4.6h0.78
		c2.67,0,4.57,1.95,4.57,4.6V151.4z M137.25,147.25c0-0.82-0.67-1.5-1.5-1.5h-0.78c-0.82,0-1.5,0.67-1.5,1.5v4.25
		c0,0.83,0.67,1.5,1.5,1.5h0.78c0.82,0,1.5-0.67,1.5-1.5V147.25z"/>
	<path class="st1" d="M144.38,154.4c-0.68-0.42-1.05-1.17-1.05-2.15c0-0.88,0.3-1.58,0.87-2.07c-0.75-0.78-1.12-1.78-1.12-3v-0.07
		c0-2.5,1.82-4.35,4.5-4.35h0.4c1.33,0,2.35,0.48,3.1,1.4l0.75-1.15h1.42v4.17c0,2.5-1.8,4.35-4.45,4.35h-2.27
		c-0.42,0-0.73,0.3-0.73,0.72s0.3,0.7,0.73,0.7h2.37c2.52,0,4.1,1.7,4.1,3.9s-1.57,3.9-4.1,3.9h-1.22c-2.52,0-4.1-1.7-4.1-3.9
		C143.58,155.9,143.85,155.08,144.38,154.4z M150.3,147c0-0.9-0.72-1.65-1.62-1.65h-1.03c-0.92,0-1.62,0.75-1.62,1.65v0.28
		c0,0.92,0.7,1.65,1.62,1.65h1.03c0.9,0,1.62-0.67,1.62-1.65V147z M150.2,156.75c0-0.6-0.45-1.1-1.33-1.1h-1.17
		c-0.88,0-1.33,0.5-1.33,1.1v0.2c0,0.62,0.45,1.1,1.33,1.1h1.17c0.88,0,1.33-0.48,1.33-1.1V156.75z"/>
	<path class="st1" d="M158.2,144.43c0.77-1.02,1.9-1.67,3.22-1.67h1.47v3.12h-2.47c-0.88,0-1.47,0.6-1.47,1.48v8.4h-3.07V143h1.42
		L158.2,144.43z"/>
	<path class="st1" d="M172.22,154.38c-0.67,1-1.9,1.63-3.4,1.63h-0.05c-2.58,0-4.12-1.47-4.12-3.57v-0.5c0-2.1,1.55-3.52,4.12-3.52
		h2.67v-1.32c0-0.72-0.67-1.32-1.5-1.32h-0.6c-0.82,0-1.5,0.6-1.5,1.32v0.47l-3.07-0.3v-0.08c0-2.5,1.9-4.42,4.57-4.42h0.6
		c2.67,0,4.57,1.92,4.57,4.42v8.57h-1.42L172.22,154.38z M167.72,151.95c0,0.67,0.52,1.2,1.3,1.2h1.15c0.67,0,1.27-0.5,1.27-1.17
		v-1.3h-2.42c-0.78,0-1.3,0.53-1.3,1.2V151.95z"/>
	<path class="st1" d="M184.4,138.25v2.92h-1.67c-0.82,0-1.25,0.42-1.25,1.25V143h2.67v2.92h-2.67v9.82h-3.07v-9.82h-2.25V143h2.25
		v-0.65c0-2.67,1.4-4.1,4.07-4.1H184.4z"/>
	<path class="st1" d="M187.77,141.25h-2.62l2-3.25h4L187.77,141.25z M185.9,155.75V143h3.07v12.75H185.9z"/>
	<path class="st1" d="M199.55,154.38c-0.67,1-1.9,1.63-3.4,1.63h-0.05c-2.58,0-4.12-1.47-4.12-3.57v-0.5c0-2.1,1.55-3.52,4.12-3.52
		h2.67v-1.32c0-0.72-0.67-1.32-1.5-1.32h-0.6c-0.82,0-1.5,0.6-1.5,1.32v0.47l-3.07-0.3v-0.08c0-2.5,1.9-4.42,4.57-4.42h0.6
		c2.67,0,4.57,1.92,4.57,4.42v8.57h-1.42L199.55,154.38z M195.05,151.95c0,0.67,0.52,1.2,1.3,1.2h1.15c0.67,0,1.27-0.5,1.27-1.17
		v-1.3h-2.42c-0.78,0-1.3,0.53-1.3,1.2V151.95z"/>
	<path class="st1" d="M215.8,155.75c-2.67,0-4.07-1.42-4.07-4.1v-5.72h-2.25V143h2.25v-3l3.07-0.5v3.5h2.92v2.92h-2.92v5.57
		c0,0.83,0.42,1.25,1.25,1.25h1.67v3H215.8z"/>
	<path class="st1" d="M222.8,144.43c0.77-1.02,1.9-1.67,3.22-1.67h1.47v3.12h-2.47c-0.88,0-1.47,0.6-1.47,1.48v8.4h-3.07V143h1.42
		L222.8,144.43z"/>
	<path class="st1" d="M236.82,154.38c-0.67,1-1.9,1.63-3.4,1.63h-0.05c-2.58,0-4.12-1.47-4.12-3.57v-0.5c0-2.1,1.55-3.52,4.12-3.52
		h2.67v-1.32c0-0.72-0.67-1.32-1.5-1.32h-0.6c-0.82,0-1.5,0.6-1.5,1.32v0.47l-3.07-0.3v-0.08c0-2.5,1.9-4.42,4.57-4.42h0.6
		c2.67,0,4.57,1.92,4.57,4.42v8.57h-1.42L236.82,154.38z M232.32,151.95c0,0.67,0.52,1.2,1.3,1.2h1.15c0.67,0,1.27-0.5,1.27-1.17
		v-1.3h-2.42c-0.78,0-1.3,0.53-1.3,1.2V151.95z"/>
	<path class="st1" d="M244.57,144.43c0.77-1.02,1.9-1.67,3.22-1.67h0.05c2.77,0,4.32,1.65,4.32,4.57v8.42h-3.07v-8.52
		c0-0.88-0.6-1.47-1.47-1.47h-0.82c-0.88,0-1.47,0.6-1.47,1.47v8.52h-3.07V143h1.42L244.57,144.43z"/>
	<path class="st1" d="M264.92,152.18c0,2.2-1.87,3.82-4.52,3.82h-0.75c-2.67,0-4.62-1.85-4.62-4.35v-0.08l3.07-0.25v0.47
		c0,0.78,0.55,1.33,1.38,1.33h1.15c0.7,0,1.2-0.42,1.2-1c0-2.3-6.65-0.33-6.65-5.55c0-2.2,1.87-3.82,4.52-3.82h0.45
		c2.65,0,4.62,1.8,4.62,4.3v0.08l-3.07,0.3v-0.47c0-0.77-0.58-1.32-1.38-1.32h-0.83c-0.72,0-1.25,0.45-1.25,1.05
		C258.25,148.88,264.92,146.98,264.92,152.18z"/>
	<path class="st1" d="M275.85,155.75l-3.8-12.75h3.22l2.55,9.55l0.05,0.65l0.05-0.65l2.55-9.55h3.22l-3.8,12.75H275.85z"/>
	<path class="st1" d="M292.77,154.38c-0.67,1-1.9,1.63-3.4,1.63h-0.05c-2.58,0-4.12-1.47-4.12-3.57v-0.5c0-2.1,1.55-3.52,4.12-3.52
		H292v-1.32c0-0.72-0.67-1.32-1.5-1.32h-0.6c-0.82,0-1.5,0.6-1.5,1.32v0.47l-3.07-0.3v-0.08c0-2.5,1.9-4.42,4.57-4.42h0.6
		c2.67,0,4.57,1.92,4.57,4.42v8.57h-1.42L292.77,154.38z M288.27,151.95c0,0.67,0.52,1.2,1.3,1.2h1.15c0.67,0,1.27-0.5,1.27-1.17
		v-1.3h-2.42c-0.78,0-1.3,0.53-1.3,1.2V151.95z"/>
	<path class="st1" d="M299.25,154.4c-0.67-0.42-1.05-1.17-1.05-2.15c0-0.88,0.3-1.58,0.87-2.07c-0.75-0.78-1.12-1.78-1.12-3v-0.07
		c0-2.5,1.82-4.35,4.5-4.35h0.4c1.32,0,2.35,0.48,3.1,1.4l0.75-1.15h1.42v4.17c0,2.5-1.8,4.35-4.45,4.35h-2.27
		c-0.43,0-0.73,0.3-0.73,0.72s0.3,0.7,0.73,0.7h2.37c2.52,0,4.1,1.7,4.1,3.9s-1.57,3.9-4.1,3.9h-1.22c-2.52,0-4.1-1.7-4.1-3.9
		C298.45,155.9,298.72,155.08,299.25,154.4z M305.17,147c0-0.9-0.72-1.65-1.62-1.65h-1.03c-0.92,0-1.62,0.75-1.62,1.65v0.28
		c0,0.92,0.7,1.65,1.62,1.65h1.03c0.9,0,1.62-0.67,1.62-1.65V147z M305.07,156.75c0-0.6-0.45-1.1-1.33-1.1h-1.17
		c-0.87,0-1.32,0.5-1.32,1.1v0.2c0,0.62,0.45,1.1,1.32,1.1h1.17c0.88,0,1.33-0.48,1.33-1.1V156.75z"/>
	<path class="st1" d="M310.75,138.25h3.07v2.58h-3.07V138.25z M310.75,155.75V143h3.07v12.75H310.75z"/>
	<path class="st1" d="M319.4,144.43c0.77-1.02,1.9-1.67,3.22-1.67h0.05c2.77,0,4.32,1.65,4.32,4.57v8.42h-3.07v-8.52
		c0-0.88-0.6-1.47-1.47-1.47h-0.82c-0.88,0-1.47,0.6-1.47,1.47v8.52h-3.07V143h1.42L319.4,144.43z"/>
	<path class="st1" d="M337.45,154.38c-0.67,1-1.9,1.63-3.4,1.63H334c-2.58,0-4.12-1.47-4.12-3.57v-0.5c0-2.1,1.55-3.52,4.12-3.52
		h2.67v-1.32c0-0.72-0.67-1.32-1.5-1.32h-0.6c-0.82,0-1.5,0.6-1.5,1.32v0.47l-3.07-0.3v-0.08c0-2.5,1.9-4.42,4.57-4.42h0.6
		c2.67,0,4.57,1.92,4.57,4.42v8.57h-1.42L337.45,154.38z M332.95,151.95c0,0.67,0.52,1.2,1.3,1.2h1.15c0.67,0,1.27-0.5,1.27-1.17
		v-1.3h-2.42c-0.78,0-1.3,0.53-1.3,1.2V151.95z"/>
	<path class="st1" d="M342.88,155.75v-17.5h3.07v17.5H342.88z"/>
	<path d="M49.7,187.8l-4.21,11.15h-1.68L39.6,187.8h1.55l3.5,9.62l3.5-9.62H49.7z"/>
	<path d="M51.35,188.47c-0.19-0.19-0.29-0.43-0.29-0.7s0.1-0.51,0.29-0.7c0.19-0.19,0.43-0.29,0.7-0.29c0.27,0,0.49,0.1,0.68,0.29
		c0.19,0.19,0.28,0.43,0.28,0.7s-0.09,0.51-0.28,0.7c-0.19,0.19-0.41,0.29-0.68,0.29C51.77,188.76,51.54,188.66,51.35,188.47z
		 M52.75,190.18v8.77H51.3v-8.77H52.75z"/>
	<path d="M56.53,198.75c-0.53-0.23-0.96-0.55-1.26-0.96c-0.31-0.41-0.48-0.88-0.51-1.42h1.5c0.04,0.44,0.25,0.79,0.62,1.07
		s0.85,0.42,1.45,0.42c0.55,0,0.99-0.12,1.31-0.37s0.48-0.55,0.48-0.93c0-0.38-0.17-0.67-0.51-0.86c-0.34-0.19-0.87-0.37-1.58-0.55
		c-0.65-0.17-1.18-0.34-1.59-0.52c-0.41-0.18-0.76-0.44-1.06-0.78c-0.29-0.35-0.44-0.8-0.44-1.37c0-0.45,0.13-0.86,0.4-1.23
		c0.27-0.37,0.65-0.67,1.14-0.89s1.05-0.33,1.68-0.33c0.97,0,1.75,0.25,2.35,0.74c0.6,0.49,0.92,1.16,0.96,2.02H60
		c-0.03-0.46-0.22-0.83-0.55-1.1s-0.79-0.42-1.35-0.42c-0.52,0-0.94,0.11-1.25,0.34c-0.31,0.22-0.46,0.52-0.46,0.88
		c0,0.29,0.09,0.53,0.28,0.71s0.42,0.34,0.7,0.45c0.28,0.11,0.67,0.24,1.18,0.38c0.63,0.17,1.14,0.34,1.54,0.5s0.73,0.41,1.02,0.74
		c0.28,0.33,0.43,0.76,0.44,1.3c0,0.48-0.13,0.91-0.4,1.3s-0.64,0.69-1.13,0.9c-0.49,0.22-1.04,0.33-1.67,0.33
		C57.67,199.09,57.06,198.98,56.53,198.75z"/>
	<path d="M71.36,190.18v8.77H69.9v-1.3c-0.28,0.45-0.66,0.8-1.16,1.05c-0.5,0.25-1.04,0.38-1.64,0.38c-0.68,0-1.3-0.14-1.84-0.42
		s-0.97-0.71-1.29-1.27c-0.31-0.56-0.47-1.25-0.47-2.06v-5.14h1.44v4.94c0,0.86,0.22,1.53,0.66,1.99s1.03,0.7,1.79,0.7
		c0.78,0,1.39-0.24,1.84-0.72c0.45-0.48,0.67-1.18,0.67-2.1v-4.82H71.36z"/>
	<path d="M73.83,192.17c0.36-0.68,0.86-1.2,1.5-1.58c0.63-0.37,1.34-0.56,2.12-0.56c0.77,0,1.43,0.17,2,0.5
		c0.57,0.33,0.99,0.75,1.26,1.25v-1.6h1.47v8.77h-1.47v-1.63c-0.29,0.51-0.72,0.94-1.29,1.27c-0.57,0.34-1.24,0.5-1.99,0.5
		c-0.78,0-1.48-0.19-2.11-0.58c-0.63-0.38-1.13-0.92-1.49-1.62c-0.36-0.69-0.54-1.48-0.54-2.37
		C73.28,193.64,73.46,192.85,73.83,192.17z M80.3,192.82c-0.27-0.49-0.63-0.87-1.08-1.13s-0.95-0.39-1.5-0.39s-1.04,0.13-1.49,0.38
		c-0.45,0.26-0.81,0.63-1.07,1.12c-0.27,0.49-0.4,1.07-0.4,1.73c0,0.67,0.13,1.26,0.4,1.75s0.62,0.88,1.07,1.14
		c0.45,0.26,0.94,0.39,1.49,0.39s1.04-0.13,1.5-0.39c0.45-0.26,0.81-0.64,1.08-1.14s0.4-1.07,0.4-1.74
		C80.71,193.89,80.57,193.31,80.3,192.82z"/>
	<path d="M86.1,187.11v11.84h-1.46v-11.84H86.1z"/>
	<path d="M88.63,188.47c-0.19-0.19-0.29-0.43-0.29-0.7s0.1-0.51,0.29-0.7c0.19-0.19,0.43-0.29,0.7-0.29c0.27,0,0.49,0.1,0.68,0.29
		c0.19,0.19,0.28,0.43,0.28,0.7s-0.09,0.51-0.28,0.7c-0.19,0.19-0.41,0.29-0.68,0.29C89.05,188.76,88.82,188.66,88.63,188.47z
		 M90.03,190.18v8.77h-1.46v-8.77H90.03z"/>
	<path d="M93.6,197.75h4.3v1.2h-5.97v-1.2l4.26-6.38h-4.22v-1.18h5.9v1.18L93.6,197.75z"/>
	<path d="M99.79,192.17c0.36-0.68,0.86-1.2,1.5-1.58c0.63-0.37,1.34-0.56,2.12-0.56c0.77,0,1.43,0.17,2,0.5
		c0.57,0.33,0.99,0.75,1.26,1.25v-1.6h1.47v8.77h-1.47v-1.63c-0.29,0.51-0.72,0.94-1.29,1.27c-0.57,0.34-1.24,0.5-1.99,0.5
		c-0.78,0-1.48-0.19-2.11-0.58c-0.63-0.38-1.13-0.92-1.49-1.62c-0.36-0.69-0.54-1.48-0.54-2.37
		C99.25,193.64,99.43,192.85,99.79,192.17z M106.27,192.82c-0.27-0.49-0.63-0.87-1.08-1.13s-0.95-0.39-1.5-0.39
		s-1.04,0.13-1.49,0.38c-0.45,0.26-0.81,0.63-1.07,1.12c-0.27,0.49-0.4,1.07-0.4,1.73c0,0.67,0.13,1.26,0.4,1.75
		s0.62,0.88,1.07,1.14c0.45,0.26,0.94,0.39,1.49,0.39s1.04-0.13,1.5-0.39c0.45-0.26,0.81-0.64,1.08-1.14s0.4-1.07,0.4-1.74
		C106.67,193.89,106.54,193.31,106.27,192.82z"/>
	<path d="M110.61,192.17c0.36-0.68,0.87-1.2,1.51-1.58c0.65-0.37,1.38-0.56,2.22-0.56c1.08,0,1.96,0.26,2.66,0.78
		c0.7,0.52,1.16,1.25,1.38,2.18h-1.57c-0.15-0.53-0.44-0.95-0.87-1.26c-0.43-0.31-0.97-0.46-1.61-0.46c-0.83,0-1.5,0.29-2.02,0.86
		c-0.51,0.57-0.77,1.38-0.77,2.42c0,1.06,0.26,1.87,0.77,2.45c0.51,0.58,1.18,0.86,2.02,0.86c0.64,0,1.17-0.15,1.6-0.45
		s0.72-0.73,0.88-1.28h1.57c-0.23,0.9-0.7,1.61-1.41,2.15c-0.7,0.54-1.58,0.81-2.64,0.81c-0.83,0-1.57-0.19-2.22-0.56
		s-1.15-0.9-1.51-1.58c-0.36-0.68-0.54-1.48-0.54-2.4C110.06,193.64,110.25,192.85,110.61,192.17z"/>
	<path d="M120.37,188.47c-0.19-0.19-0.29-0.43-0.29-0.7s0.1-0.51,0.29-0.7c0.19-0.19,0.43-0.29,0.7-0.29c0.27,0,0.49,0.1,0.68,0.29
		c0.19,0.19,0.28,0.43,0.28,0.7s-0.09,0.51-0.28,0.7c-0.19,0.19-0.41,0.29-0.68,0.29C120.79,188.76,120.56,188.66,120.37,188.47z
		 M121.78,190.18v8.77h-1.46v-8.77H121.78z"/>
	<path d="M125.85,198.53c-0.67-0.37-1.19-0.9-1.57-1.59c-0.38-0.69-0.57-1.49-0.57-2.39c0-0.9,0.19-1.69,0.58-2.38
		c0.39-0.69,0.92-1.22,1.59-1.58c0.67-0.37,1.42-0.55,2.26-0.55s1.58,0.18,2.26,0.55c0.67,0.37,1.2,0.89,1.59,1.58
		s0.58,1.48,0.58,2.38c0,0.91-0.2,1.7-0.6,2.39c-0.4,0.69-0.94,1.22-1.62,1.59s-1.44,0.56-2.27,0.56
		C127.26,199.09,126.51,198.91,125.85,198.53z M129.55,197.45c0.46-0.25,0.83-0.61,1.11-1.1c0.28-0.49,0.42-1.09,0.42-1.79
		c0-0.7-0.14-1.3-0.42-1.79c-0.28-0.49-0.64-0.86-1.09-1.1c-0.45-0.24-0.93-0.36-1.46-0.36c-0.53,0-1.02,0.12-1.46,0.36
		s-0.8,0.61-1.06,1.1c-0.27,0.49-0.4,1.09-0.4,1.79c0,0.71,0.13,1.32,0.39,1.81c0.26,0.49,0.61,0.86,1.05,1.1s0.92,0.36,1.44,0.36
		S129.09,197.69,129.55,197.45z M129.71,187.59l-3.41,1.82v-1.09l3.41-2V187.59z"/>
	<path d="M141.36,190.99c0.66,0.65,0.99,1.58,0.99,2.79v5.17h-1.44v-4.96c0-0.88-0.22-1.54-0.66-2.01s-1.04-0.7-1.79-0.7
		c-0.77,0-1.38,0.24-1.83,0.72c-0.45,0.48-0.68,1.18-0.68,2.1v4.85h-1.46v-8.77h1.46v1.25c0.29-0.45,0.68-0.79,1.18-1.04
		c0.5-0.25,1.04-0.37,1.64-0.37C139.83,190.02,140.7,190.34,141.36,190.99z"/>
	<path d="M149.01,192.17c0.36-0.68,0.86-1.2,1.5-1.58c0.63-0.37,1.35-0.56,2.14-0.56c0.68,0,1.32,0.16,1.9,0.47
		c0.59,0.32,1.04,0.73,1.34,1.24v-4.64h1.47v11.84h-1.47v-1.65c-0.29,0.52-0.71,0.95-1.28,1.29s-1.23,0.5-1.98,0.5
		c-0.78,0-1.49-0.19-2.12-0.58c-0.63-0.38-1.13-0.92-1.5-1.62c-0.36-0.69-0.54-1.48-0.54-2.37
		C148.46,193.64,148.65,192.85,149.01,192.17z M155.49,192.82c-0.27-0.49-0.63-0.87-1.08-1.13s-0.95-0.39-1.5-0.39
		s-1.04,0.13-1.49,0.38c-0.45,0.26-0.81,0.63-1.07,1.12c-0.27,0.49-0.4,1.07-0.4,1.73c0,0.67,0.13,1.26,0.4,1.75
		s0.62,0.88,1.07,1.14c0.45,0.26,0.94,0.39,1.49,0.39s1.04-0.13,1.5-0.39c0.45-0.26,0.81-0.64,1.08-1.14s0.4-1.07,0.4-1.74
		C155.89,193.89,155.75,193.31,155.49,192.82z"/>
	<path d="M167.78,195.11h-7.01c0.05,0.86,0.35,1.54,0.89,2.02c0.54,0.49,1.19,0.73,1.96,0.73c0.63,0,1.15-0.15,1.58-0.44
		c0.42-0.29,0.72-0.68,0.89-1.18h1.57c-0.23,0.84-0.7,1.53-1.41,2.06c-0.7,0.53-1.58,0.79-2.62,0.79c-0.83,0-1.58-0.19-2.23-0.56
		s-1.17-0.9-1.54-1.59c-0.37-0.69-0.56-1.49-0.56-2.39c0-0.91,0.18-1.7,0.54-2.38c0.36-0.68,0.87-1.21,1.53-1.58
		c0.66-0.37,1.41-0.55,2.26-0.55c0.83,0,1.57,0.18,2.21,0.54c0.64,0.36,1.13,0.86,1.48,1.5s0.52,1.35,0.52,2.15
		C167.83,194.51,167.81,194.8,167.78,195.11z M165.95,192.49c-0.25-0.4-0.58-0.7-1-0.91c-0.42-0.21-0.89-0.31-1.4-0.31
		c-0.74,0-1.36,0.23-1.88,0.7c-0.52,0.47-0.81,1.12-0.89,1.95h5.54C166.32,193.37,166.2,192.89,165.95,192.49z"/>
	<path d="M171.2,187.11v11.84h-1.46v-11.84H171.2z"/>
	<path d="M185.73,190.18v8.77h-1.46v-1.3c-0.28,0.45-0.66,0.8-1.16,1.05c-0.5,0.25-1.04,0.38-1.64,0.38c-0.68,0-1.3-0.14-1.84-0.42
		s-0.97-0.71-1.29-1.27c-0.31-0.56-0.47-1.25-0.47-2.06v-5.14h1.44v4.94c0,0.86,0.22,1.53,0.66,1.99s1.03,0.7,1.79,0.7
		c0.78,0,1.39-0.24,1.84-0.72c0.45-0.48,0.67-1.18,0.67-2.1v-4.82H185.73z M183.41,187.7l-3.41,1.82v-1.09l3.41-2V187.7z"/>
	<path d="M189.97,191.38v5.17c0,0.43,0.09,0.73,0.27,0.9c0.18,0.18,0.5,0.26,0.94,0.26h1.07v1.23h-1.31c-0.81,0-1.42-0.19-1.82-0.56
		c-0.41-0.37-0.61-0.99-0.61-1.84v-5.17h-1.14v-1.2h1.14v-2.21h1.46v2.21h2.29v1.2H189.97z"/>
	<path d="M201.97,195.11h-7.01c0.05,0.86,0.35,1.54,0.89,2.02c0.54,0.49,1.19,0.73,1.96,0.73c0.63,0,1.15-0.15,1.58-0.44
		c0.42-0.29,0.72-0.68,0.89-1.18h1.57c-0.23,0.84-0.7,1.53-1.41,2.06c-0.7,0.53-1.58,0.79-2.62,0.79c-0.83,0-1.58-0.19-2.23-0.56
		s-1.17-0.9-1.54-1.59c-0.37-0.69-0.56-1.49-0.56-2.39c0-0.91,0.18-1.7,0.54-2.38c0.36-0.68,0.87-1.21,1.53-1.58
		c0.66-0.37,1.41-0.55,2.26-0.55c0.83,0,1.57,0.18,2.21,0.54c0.64,0.36,1.13,0.86,1.48,1.5s0.52,1.35,0.52,2.15
		C202.02,194.51,202,194.8,201.97,195.11z M200.14,192.49c-0.25-0.4-0.58-0.7-1-0.91c-0.42-0.21-0.89-0.31-1.4-0.31
		c-0.74,0-1.36,0.23-1.88,0.7c-0.52,0.47-0.81,1.12-0.89,1.95h5.54C200.51,193.37,200.39,192.89,200.14,192.49z"/>
	<path d="M206.49,190.44c0.47-0.28,1.05-0.42,1.74-0.42v1.5h-0.38c-1.63,0-2.45,0.89-2.45,2.66v4.77h-1.46v-8.77h1.46v1.42
		C205.65,191.1,206.01,190.72,206.49,190.44z"/>
	<path d="M211.5,198.53c-0.67-0.37-1.19-0.9-1.57-1.59c-0.38-0.69-0.57-1.49-0.57-2.39c0-0.9,0.19-1.69,0.58-2.38
		c0.39-0.69,0.92-1.22,1.59-1.58c0.67-0.37,1.42-0.55,2.26-0.55s1.58,0.18,2.26,0.55c0.67,0.37,1.2,0.89,1.59,1.58
		s0.58,1.48,0.58,2.38c0,0.91-0.2,1.7-0.6,2.39c-0.4,0.69-0.94,1.22-1.62,1.59s-1.44,0.56-2.27,0.56
		C212.91,199.09,212.16,198.91,211.5,198.53z M215.2,197.45c0.46-0.25,0.83-0.61,1.11-1.1c0.28-0.49,0.42-1.09,0.42-1.79
		c0-0.7-0.14-1.3-0.42-1.79c-0.28-0.49-0.64-0.86-1.09-1.1c-0.45-0.24-0.93-0.36-1.46-0.36c-0.53,0-1.02,0.12-1.46,0.36
		s-0.8,0.61-1.06,1.1c-0.27,0.49-0.4,1.09-0.4,1.79c0,0.71,0.13,1.32,0.39,1.81c0.26,0.49,0.61,0.86,1.05,1.1s0.92,0.36,1.44,0.36
		S214.74,197.69,215.2,197.45z"/>
	<path d="M231.97,190.18l-5.28,12.9h-1.5l1.73-4.22l-3.54-8.67h1.62l2.75,7.1l2.72-7.1H231.97z"/>
	<path d="M239.29,198.53c-0.67-0.37-1.19-0.9-1.57-1.59c-0.38-0.69-0.57-1.49-0.57-2.39c0-0.9,0.19-1.69,0.58-2.38
		c0.39-0.69,0.92-1.22,1.59-1.58c0.67-0.37,1.42-0.55,2.26-0.55s1.58,0.18,2.26,0.55c0.67,0.37,1.2,0.89,1.59,1.58
		s0.58,1.48,0.58,2.38c0,0.91-0.2,1.7-0.6,2.39c-0.4,0.69-0.94,1.22-1.62,1.59s-1.44,0.56-2.27,0.56
		C240.7,199.09,239.95,198.91,239.29,198.53z M242.99,197.45c0.46-0.25,0.83-0.61,1.11-1.1c0.28-0.49,0.42-1.09,0.42-1.79
		c0-0.7-0.14-1.3-0.42-1.79c-0.28-0.49-0.64-0.86-1.09-1.1c-0.45-0.24-0.93-0.36-1.46-0.36c-0.53,0-1.02,0.12-1.46,0.36
		s-0.8,0.61-1.06,1.1c-0.27,0.49-0.4,1.09-0.4,1.79c0,0.71,0.13,1.32,0.39,1.81c0.26,0.49,0.61,0.86,1.05,1.1s0.92,0.36,1.44,0.36
		S242.53,197.69,242.99,197.45z"/>
	<path d="M251.2,197.61l2.72-7.42h1.55l-3.44,8.77h-1.7l-3.44-8.77h1.57L251.2,197.61z"/>
	<path d="M256.91,192.17c0.36-0.68,0.86-1.2,1.5-1.58c0.63-0.37,1.34-0.56,2.12-0.56c0.77,0,1.43,0.17,2,0.5
		c0.57,0.33,0.99,0.75,1.26,1.25v-1.6h1.47v8.77h-1.47v-1.63c-0.29,0.51-0.72,0.94-1.29,1.27c-0.57,0.34-1.24,0.5-1.99,0.5
		c-0.78,0-1.48-0.19-2.11-0.58c-0.63-0.38-1.13-0.92-1.49-1.62c-0.36-0.69-0.54-1.48-0.54-2.37
		C256.37,193.64,256.55,192.85,256.91,192.17z M263.39,192.82c-0.27-0.49-0.63-0.87-1.08-1.13s-0.95-0.39-1.5-0.39
		s-1.04,0.13-1.49,0.38c-0.45,0.26-0.81,0.63-1.07,1.12c-0.27,0.49-0.4,1.07-0.4,1.73c0,0.67,0.13,1.26,0.4,1.75
		s0.62,0.88,1.07,1.14c0.45,0.26,0.94,0.39,1.49,0.39s1.04-0.13,1.5-0.39c0.45-0.26,0.81-0.64,1.08-1.14s0.4-1.07,0.4-1.74
		C263.79,193.89,263.66,193.31,263.39,192.82z"/>
	<path d="M270.28,190.44c0.47-0.28,1.05-0.42,1.74-0.42v1.5h-0.38c-1.63,0-2.45,0.89-2.45,2.66v4.77h-1.46v-8.77h1.46v1.42
		C269.44,191.1,269.8,190.72,270.28,190.44z"/>
	<path d="M273.74,188.47c-0.19-0.19-0.29-0.43-0.29-0.7s0.1-0.51,0.29-0.7c0.19-0.19,0.43-0.29,0.7-0.29c0.27,0,0.49,0.1,0.68,0.29
		c0.19,0.19,0.28,0.43,0.28,0.7s-0.09,0.51-0.28,0.7c-0.19,0.19-0.41,0.29-0.68,0.29C274.17,188.76,273.93,188.66,273.74,188.47z
		 M275.15,190.18v8.77h-1.46v-8.77H275.15z"/>
	<path d="M279.22,198.53c-0.67-0.37-1.19-0.9-1.57-1.59c-0.38-0.69-0.57-1.49-0.57-2.39c0-0.9,0.19-1.69,0.58-2.38
		c0.39-0.69,0.92-1.22,1.59-1.58c0.67-0.37,1.42-0.55,2.26-0.55s1.58,0.18,2.26,0.55c0.67,0.37,1.2,0.89,1.59,1.58
		s0.58,1.48,0.58,2.38c0,0.91-0.2,1.7-0.6,2.39c-0.4,0.69-0.94,1.22-1.62,1.59s-1.44,0.56-2.27,0.56
		C280.63,199.09,279.89,198.91,279.22,198.53z M282.93,197.45c0.46-0.25,0.83-0.61,1.11-1.1c0.28-0.49,0.42-1.09,0.42-1.79
		c0-0.7-0.14-1.3-0.42-1.79c-0.28-0.49-0.64-0.86-1.09-1.1c-0.45-0.24-0.93-0.36-1.46-0.36c-0.53,0-1.02,0.12-1.46,0.36
		s-0.8,0.61-1.06,1.1c-0.27,0.49-0.4,1.09-0.4,1.79c0,0.71,0.13,1.32,0.39,1.81c0.26,0.49,0.61,0.86,1.05,1.1s0.92,0.36,1.44,0.36
		S282.47,197.69,282.93,197.45z"/>
	<path d="M289.17,198.75c-0.53-0.23-0.96-0.55-1.26-0.96c-0.31-0.41-0.48-0.88-0.51-1.42h1.5c0.04,0.44,0.25,0.79,0.62,1.07
		s0.85,0.42,1.45,0.42c0.55,0,0.99-0.12,1.31-0.37s0.48-0.55,0.48-0.93c0-0.38-0.17-0.67-0.51-0.86c-0.34-0.19-0.87-0.37-1.58-0.55
		c-0.65-0.17-1.18-0.34-1.59-0.52c-0.41-0.18-0.76-0.44-1.06-0.78c-0.29-0.35-0.44-0.8-0.44-1.37c0-0.45,0.13-0.86,0.4-1.23
		c0.27-0.37,0.65-0.67,1.14-0.89s1.05-0.33,1.68-0.33c0.97,0,1.75,0.25,2.35,0.74c0.6,0.49,0.92,1.16,0.96,2.02h-1.46
		c-0.03-0.46-0.22-0.83-0.55-1.1s-0.79-0.42-1.35-0.42c-0.52,0-0.94,0.11-1.25,0.34c-0.31,0.22-0.46,0.52-0.46,0.88
		c0,0.29,0.09,0.53,0.28,0.71s0.42,0.34,0.7,0.45c0.28,0.11,0.67,0.24,1.18,0.38c0.63,0.17,1.14,0.34,1.54,0.5s0.73,0.41,1.02,0.74
		c0.28,0.33,0.43,0.76,0.44,1.3c0,0.48-0.13,0.91-0.4,1.3s-0.64,0.69-1.13,0.9c-0.49,0.22-1.04,0.33-1.67,0.33
		C290.3,199.09,289.7,198.98,289.17,198.75z"/>
	<path d="M303.24,190.54c0.57-0.34,1.24-0.5,1.99-0.5c0.78,0,1.49,0.19,2.12,0.56c0.63,0.37,1.13,0.9,1.5,1.58
		c0.36,0.68,0.54,1.46,0.54,2.36c0,0.89-0.18,1.67-0.54,2.37s-0.86,1.23-1.5,1.62c-0.63,0.38-1.34,0.58-2.12,0.58
		c-0.75,0-1.41-0.17-1.98-0.5c-0.57-0.34-1.01-0.75-1.3-1.26v5.78h-1.46v-12.93h1.46v1.62C302.24,191.3,302.67,190.88,303.24,190.54
		z M307.5,192.81c-0.27-0.49-0.63-0.86-1.08-1.12c-0.45-0.26-0.95-0.38-1.5-0.38c-0.53,0-1.03,0.13-1.48,0.39
		c-0.45,0.26-0.82,0.64-1.09,1.14c-0.27,0.5-0.41,1.07-0.41,1.72c0,0.66,0.14,1.24,0.41,1.74c0.27,0.5,0.63,0.88,1.09,1.14
		c0.45,0.26,0.95,0.39,1.48,0.39c0.54,0,1.04-0.13,1.5-0.39c0.45-0.26,0.81-0.64,1.08-1.14s0.4-1.08,0.4-1.75
		C307.9,193.87,307.77,193.3,307.5,192.81z"/>
	<path d="M311.31,192.17c0.36-0.68,0.86-1.2,1.5-1.58c0.63-0.37,1.34-0.56,2.12-0.56c0.77,0,1.43,0.17,2,0.5
		c0.57,0.33,0.99,0.75,1.26,1.25v-1.6h1.47v8.77h-1.47v-1.63c-0.29,0.51-0.72,0.94-1.29,1.27c-0.57,0.34-1.24,0.5-1.99,0.5
		c-0.78,0-1.48-0.19-2.11-0.58c-0.63-0.38-1.13-0.92-1.49-1.62c-0.36-0.69-0.54-1.48-0.54-2.37
		C310.77,193.64,310.95,192.85,311.31,192.17z M317.79,192.82c-0.27-0.49-0.63-0.87-1.08-1.13s-0.95-0.39-1.5-0.39
		s-1.04,0.13-1.49,0.38c-0.45,0.26-0.81,0.63-1.07,1.12c-0.27,0.49-0.4,1.07-0.4,1.73c0,0.67,0.13,1.26,0.4,1.75
		s0.62,0.88,1.07,1.14c0.45,0.26,0.94,0.39,1.49,0.39s1.04-0.13,1.5-0.39c0.45-0.26,0.81-0.64,1.08-1.14s0.4-1.07,0.4-1.74
		C318.19,193.89,318.06,193.31,317.79,192.82z"/>
	<path d="M324.68,190.44c0.47-0.28,1.05-0.42,1.74-0.42v1.5h-0.38c-1.63,0-2.45,0.89-2.45,2.66v4.77h-1.46v-8.77h1.46v1.42
		C323.84,191.1,324.21,190.72,324.68,190.44z"/>
	<path d="M328.1,192.17c0.36-0.68,0.86-1.2,1.5-1.58c0.63-0.37,1.34-0.56,2.12-0.56c0.77,0,1.43,0.17,2,0.5
		c0.57,0.33,0.99,0.75,1.26,1.25v-1.6h1.47v8.77h-1.47v-1.63c-0.29,0.51-0.72,0.94-1.29,1.27c-0.57,0.34-1.24,0.5-1.99,0.5
		c-0.78,0-1.48-0.19-2.11-0.58c-0.63-0.38-1.13-0.92-1.49-1.62c-0.36-0.69-0.54-1.48-0.54-2.37
		C327.55,193.64,327.73,192.85,328.1,192.17z M334.58,192.82c-0.27-0.49-0.63-0.87-1.08-1.13s-0.95-0.39-1.5-0.39
		s-1.04,0.13-1.49,0.38c-0.45,0.26-0.81,0.63-1.07,1.12c-0.27,0.49-0.4,1.07-0.4,1.73c0,0.67,0.13,1.26,0.4,1.75
		s0.62,0.88,1.07,1.14c0.45,0.26,0.94,0.39,1.49,0.39s1.04-0.13,1.5-0.39c0.45-0.26,0.81-0.64,1.08-1.14s0.4-1.07,0.4-1.74
		C334.98,193.89,334.84,193.31,334.58,192.82z"/>
	<path d="M343.18,192.17c0.36-0.68,0.86-1.2,1.5-1.58c0.63-0.37,1.35-0.56,2.14-0.56c0.68,0,1.32,0.16,1.9,0.47
		c0.59,0.32,1.04,0.73,1.34,1.24v-4.64h1.47v11.84h-1.47v-1.65c-0.29,0.52-0.71,0.95-1.28,1.29s-1.23,0.5-1.98,0.5
		c-0.78,0-1.49-0.19-2.12-0.58c-0.63-0.38-1.13-0.92-1.5-1.62c-0.36-0.69-0.54-1.48-0.54-2.37
		C342.64,193.64,342.82,192.85,343.18,192.17z M349.66,192.82c-0.27-0.49-0.63-0.87-1.08-1.13s-0.95-0.39-1.5-0.39
		s-1.04,0.13-1.49,0.38c-0.45,0.26-0.81,0.63-1.07,1.12c-0.27,0.49-0.4,1.07-0.4,1.73c0,0.67,0.13,1.26,0.4,1.75
		s0.62,0.88,1.07,1.14c0.45,0.26,0.94,0.39,1.49,0.39s1.04-0.13,1.5-0.39c0.45-0.26,0.81-0.64,1.08-1.14s0.4-1.07,0.4-1.74
		C350.06,193.89,349.93,193.31,349.66,192.82z"/>
	<path d="M361.95,195.11h-7.01c0.05,0.86,0.35,1.54,0.89,2.02c0.54,0.49,1.19,0.73,1.96,0.73c0.63,0,1.15-0.15,1.58-0.44
		c0.42-0.29,0.72-0.68,0.89-1.18h1.57c-0.23,0.84-0.7,1.53-1.41,2.06c-0.7,0.53-1.58,0.79-2.62,0.79c-0.83,0-1.58-0.19-2.23-0.56
		s-1.17-0.9-1.54-1.59c-0.37-0.69-0.56-1.49-0.56-2.39c0-0.91,0.18-1.7,0.54-2.38c0.36-0.68,0.87-1.21,1.53-1.58
		c0.66-0.37,1.41-0.55,2.26-0.55c0.83,0,1.57,0.18,2.21,0.54c0.64,0.36,1.13,0.86,1.48,1.5s0.52,1.35,0.52,2.15
		C362,194.51,361.98,194.8,361.95,195.11z M360.13,192.49c-0.25-0.4-0.58-0.7-1-0.91c-0.42-0.21-0.89-0.31-1.4-0.31
		c-0.74,0-1.36,0.23-1.88,0.7c-0.52,0.47-0.81,1.12-0.89,1.95h5.54C360.49,193.37,360.37,192.89,360.13,192.49z"/>
	<path d="M365.69,191.38v5.17c0,0.43,0.09,0.73,0.27,0.9c0.18,0.18,0.5,0.26,0.94,0.26h1.07v1.23h-1.31c-0.81,0-1.42-0.19-1.82-0.56
		c-0.41-0.37-0.61-0.99-0.61-1.84v-5.17h-1.14v-1.2h1.14v-2.21h1.46v2.21h2.29v1.2H365.69z"/>
	<path d="M377.69,195.11h-7.01c0.05,0.86,0.35,1.54,0.89,2.02c0.54,0.49,1.19,0.73,1.96,0.73c0.63,0,1.15-0.15,1.58-0.44
		c0.42-0.29,0.72-0.68,0.89-1.18h1.57c-0.23,0.84-0.7,1.53-1.41,2.06c-0.7,0.53-1.58,0.79-2.62,0.79c-0.83,0-1.58-0.19-2.23-0.56
		s-1.17-0.9-1.54-1.59c-0.37-0.69-0.56-1.49-0.56-2.39c0-0.91,0.18-1.7,0.54-2.38c0.36-0.68,0.87-1.21,1.53-1.58
		c0.66-0.37,1.41-0.55,2.26-0.55c0.83,0,1.57,0.18,2.21,0.54c0.64,0.36,1.13,0.86,1.48,1.5s0.52,1.35,0.52,2.15
		C377.74,194.51,377.73,194.8,377.69,195.11z M375.87,192.49c-0.25-0.4-0.58-0.7-1-0.91c-0.42-0.21-0.89-0.31-1.4-0.31
		c-0.74,0-1.36,0.23-1.88,0.7c-0.52,0.47-0.81,1.12-0.89,1.95h5.54C376.24,193.37,376.12,192.89,375.87,192.49z"/>
	<path d="M379.66,192.17c0.36-0.68,0.87-1.2,1.51-1.58c0.65-0.37,1.38-0.56,2.22-0.56c1.08,0,1.96,0.26,2.66,0.78
		c0.7,0.52,1.16,1.25,1.38,2.18h-1.57c-0.15-0.53-0.44-0.95-0.87-1.26c-0.43-0.31-0.97-0.46-1.61-0.46c-0.83,0-1.5,0.29-2.02,0.86
		c-0.51,0.57-0.77,1.38-0.77,2.42c0,1.06,0.26,1.87,0.77,2.45c0.51,0.58,1.18,0.86,2.02,0.86c0.64,0,1.17-0.15,1.6-0.45
		s0.72-0.73,0.88-1.28h1.57c-0.23,0.9-0.7,1.61-1.41,2.15c-0.7,0.54-1.58,0.81-2.64,0.81c-0.83,0-1.57-0.19-2.22-0.56
		s-1.15-0.9-1.51-1.58c-0.36-0.68-0.54-1.48-0.54-2.4C379.12,193.64,379.3,192.85,379.66,192.17z"/>
	<path d="M391.15,191.38v5.17c0,0.43,0.09,0.73,0.27,0.9c0.18,0.18,0.5,0.26,0.94,0.26h1.07v1.23h-1.31c-0.81,0-1.42-0.19-1.82-0.56
		c-0.41-0.37-0.61-0.99-0.61-1.84v-5.17h-1.14v-1.2h1.14v-2.21h1.46v2.21h2.29v1.2H391.15z"/>
	<path d="M395.2,192.17c0.36-0.68,0.86-1.2,1.5-1.58c0.63-0.37,1.34-0.56,2.12-0.56c0.77,0,1.43,0.17,2,0.5
		c0.57,0.33,0.99,0.75,1.26,1.25v-1.6h1.47v8.77h-1.47v-1.63c-0.29,0.51-0.72,0.94-1.29,1.27c-0.57,0.34-1.24,0.5-1.99,0.5
		c-0.78,0-1.48-0.19-2.11-0.58c-0.63-0.38-1.13-0.92-1.49-1.62c-0.36-0.69-0.54-1.48-0.54-2.37
		C394.66,193.64,394.84,192.85,395.2,192.17z M401.68,192.82c-0.27-0.49-0.63-0.87-1.08-1.13s-0.95-0.39-1.5-0.39
		s-1.04,0.13-1.49,0.38c-0.45,0.26-0.81,0.63-1.07,1.12c-0.27,0.49-0.4,1.07-0.4,1.73c0,0.67,0.13,1.26,0.4,1.75
		s0.62,0.88,1.07,1.14c0.45,0.26,0.94,0.39,1.49,0.39s1.04-0.13,1.5-0.39c0.45-0.26,0.81-0.64,1.08-1.14s0.4-1.07,0.4-1.74
		C402.08,193.89,401.95,193.31,401.68,192.82z"/>
	<path d="M408.57,190.44c0.47-0.28,1.05-0.42,1.74-0.42v1.5h-0.38c-1.63,0-2.45,0.89-2.45,2.66v4.77h-1.46v-8.77h1.46v1.42
		C407.73,191.1,408.09,190.72,408.57,190.44z"/>
	<path d="M25.95,216.17c0.36-0.68,0.86-1.2,1.5-1.58c0.63-0.37,1.34-0.56,2.12-0.56c0.77,0,1.43,0.17,2,0.5
		c0.57,0.33,0.99,0.75,1.26,1.25v-1.6h1.47v8.77h-1.47v-1.63c-0.29,0.51-0.72,0.94-1.29,1.27c-0.57,0.34-1.24,0.5-1.99,0.5
		c-0.78,0-1.48-0.19-2.11-0.58c-0.63-0.38-1.13-0.92-1.49-1.62c-0.36-0.69-0.54-1.48-0.54-2.37
		C25.4,217.64,25.58,216.85,25.95,216.17z M32.43,216.82c-0.27-0.49-0.63-0.87-1.08-1.13s-0.95-0.39-1.5-0.39s-1.04,0.13-1.49,0.38
		c-0.45,0.26-0.81,0.63-1.07,1.12c-0.27,0.49-0.4,1.07-0.4,1.73c0,0.67,0.13,1.26,0.4,1.75s0.62,0.88,1.07,1.14
		c0.45,0.26,0.94,0.39,1.49,0.39s1.04-0.13,1.5-0.39c0.45-0.26,0.81-0.64,1.08-1.14s0.4-1.07,0.4-1.74
		C32.83,217.89,32.69,217.31,32.43,216.82z"/>
	<path d="M38.22,211.11v11.84h-1.46v-11.84H38.22z"/>
	<path d="M42.47,215.38v5.17c0,0.43,0.09,0.73,0.27,0.9c0.18,0.18,0.5,0.26,0.94,0.26h1.07v1.23h-1.31c-0.81,0-1.42-0.19-1.82-0.56
		c-0.41-0.37-0.61-0.99-0.61-1.84v-5.17h-1.14v-1.2h1.14v-2.21h1.46v2.21h2.29v1.2H42.47z"/>
	<path d="M54.47,219.11h-7.01c0.05,0.86,0.35,1.54,0.89,2.02c0.54,0.49,1.19,0.73,1.96,0.73c0.63,0,1.15-0.15,1.58-0.44
		c0.42-0.29,0.72-0.68,0.89-1.18h1.57c-0.23,0.84-0.7,1.53-1.41,2.06c-0.7,0.53-1.58,0.79-2.62,0.79c-0.83,0-1.58-0.19-2.23-0.56
		s-1.17-0.9-1.54-1.59c-0.37-0.69-0.56-1.49-0.56-2.39c0-0.91,0.18-1.7,0.54-2.38c0.36-0.68,0.87-1.21,1.53-1.58
		c0.66-0.37,1.41-0.55,2.26-0.55c0.83,0,1.57,0.18,2.21,0.54c0.64,0.36,1.13,0.86,1.48,1.5s0.52,1.35,0.52,2.15
		C54.52,218.51,54.51,218.8,54.47,219.11z M52.65,216.49c-0.25-0.4-0.58-0.7-1-0.91c-0.42-0.21-0.89-0.31-1.4-0.31
		c-0.74,0-1.36,0.23-1.88,0.7c-0.52,0.47-0.81,1.12-0.89,1.95h5.54C53.02,217.37,52.9,216.89,52.65,216.49z"/>
	<path d="M58.99,214.44c0.47-0.28,1.05-0.42,1.74-0.42v1.5h-0.38c-1.63,0-2.45,0.89-2.45,2.66v4.77h-1.46v-8.77h1.46v1.42
		C58.15,215.1,58.52,214.72,58.99,214.44z"/>
	<path d="M62.41,216.17c0.36-0.68,0.86-1.2,1.5-1.58c0.63-0.37,1.34-0.56,2.12-0.56c0.77,0,1.43,0.17,2,0.5
		c0.57,0.33,0.99,0.75,1.26,1.25v-1.6h1.47v8.77h-1.47v-1.63c-0.29,0.51-0.72,0.94-1.29,1.27c-0.57,0.34-1.24,0.5-1.99,0.5
		c-0.78,0-1.48-0.19-2.11-0.58c-0.63-0.38-1.13-0.92-1.49-1.62c-0.36-0.69-0.54-1.48-0.54-2.37
		C61.87,217.64,62.05,216.85,62.41,216.17z M68.89,216.82c-0.27-0.49-0.63-0.87-1.08-1.13s-0.95-0.39-1.5-0.39s-1.04,0.13-1.49,0.38
		c-0.45,0.26-0.81,0.63-1.07,1.12c-0.27,0.49-0.4,1.07-0.4,1.73c0,0.67,0.13,1.26,0.4,1.75s0.62,0.88,1.07,1.14
		c0.45,0.26,0.94,0.39,1.49,0.39s1.04-0.13,1.5-0.39c0.45-0.26,0.81-0.64,1.08-1.14s0.4-1.07,0.4-1.74
		C69.29,217.89,69.16,217.31,68.89,216.82z"/>
	<path d="M73.23,216.17c0.36-0.68,0.87-1.2,1.51-1.58c0.65-0.37,1.38-0.56,2.22-0.56c1.08,0,1.96,0.26,2.66,0.78
		c0.7,0.52,1.16,1.25,1.38,2.18h-1.57c-0.15-0.53-0.44-0.95-0.87-1.26c-0.43-0.31-0.97-0.46-1.61-0.46c-0.83,0-1.5,0.29-2.02,0.86
		c-0.51,0.57-0.77,1.38-0.77,2.42c0,1.06,0.26,1.87,0.77,2.45c0.51,0.58,1.18,0.86,2.02,0.86c0.64,0,1.17-0.15,1.6-0.45
		s0.72-0.73,0.88-1.28H81c-0.23,0.9-0.7,1.61-1.41,2.15c-0.7,0.54-1.58,0.81-2.64,0.81c-0.83,0-1.57-0.19-2.22-0.56
		s-1.15-0.9-1.51-1.58c-0.36-0.68-0.54-1.48-0.54-2.4C72.68,217.64,72.86,216.85,73.23,216.17z"/>
	<path d="M82.99,212.47c-0.19-0.19-0.29-0.43-0.29-0.7s0.1-0.51,0.29-0.7c0.19-0.19,0.43-0.29,0.7-0.29c0.27,0,0.49,0.1,0.68,0.29
		c0.19,0.19,0.28,0.43,0.28,0.7s-0.09,0.51-0.28,0.7c-0.19,0.19-0.41,0.29-0.68,0.29C83.41,212.76,83.18,212.66,82.99,212.47z
		 M84.39,214.18v8.77h-1.46v-8.77H84.39z"/>
	<path d="M88.46,222.53c-0.67-0.37-1.19-0.9-1.57-1.59c-0.38-0.69-0.57-1.49-0.57-2.39c0-0.9,0.19-1.69,0.58-2.38
		c0.39-0.69,0.92-1.22,1.59-1.58c0.67-0.37,1.42-0.55,2.26-0.55s1.58,0.18,2.26,0.55c0.67,0.37,1.2,0.89,1.59,1.58
		s0.58,1.48,0.58,2.38c0,0.91-0.2,1.7-0.6,2.39c-0.4,0.69-0.94,1.22-1.62,1.59s-1.44,0.56-2.27,0.56
		C89.88,223.09,89.13,222.91,88.46,222.53z M92.17,221.45c0.46-0.25,0.83-0.61,1.11-1.1c0.28-0.49,0.42-1.09,0.42-1.79
		c0-0.7-0.14-1.3-0.42-1.79c-0.28-0.49-0.64-0.86-1.09-1.1c-0.45-0.24-0.93-0.36-1.46-0.36c-0.53,0-1.02,0.12-1.46,0.36
		s-0.8,0.61-1.06,1.1c-0.27,0.49-0.4,1.09-0.4,1.79c0,0.71,0.13,1.32,0.39,1.81c0.26,0.49,0.61,0.86,1.05,1.1s0.92,0.36,1.44,0.36
		S91.71,221.69,92.17,221.45z"/>
	<path d="M103.98,214.99c0.66,0.65,0.99,1.58,0.99,2.79v5.17h-1.44v-4.96c0-0.88-0.22-1.54-0.66-2.01s-1.04-0.7-1.79-0.7
		c-0.77,0-1.38,0.24-1.83,0.72c-0.45,0.48-0.68,1.18-0.68,2.1v4.85h-1.46v-8.77h1.46v1.25c0.29-0.45,0.68-0.79,1.18-1.04
		c0.5-0.25,1.04-0.37,1.64-0.37C102.45,214.02,103.32,214.34,103.98,214.99z"/>
	<path d="M115.3,219.11h-7.01c0.05,0.86,0.35,1.54,0.89,2.02c0.54,0.49,1.19,0.73,1.96,0.73c0.63,0,1.15-0.15,1.58-0.44
		c0.42-0.29,0.72-0.68,0.89-1.18h1.57c-0.23,0.84-0.7,1.53-1.41,2.06c-0.7,0.53-1.58,0.79-2.62,0.79c-0.83,0-1.58-0.19-2.23-0.56
		s-1.17-0.9-1.54-1.59c-0.37-0.69-0.56-1.49-0.56-2.39c0-0.91,0.18-1.7,0.54-2.38c0.36-0.68,0.87-1.21,1.53-1.58
		c0.66-0.37,1.41-0.55,2.26-0.55c0.83,0,1.57,0.18,2.21,0.54c0.64,0.36,1.13,0.86,1.48,1.5s0.52,1.35,0.52,2.15
		C115.35,218.51,115.34,218.8,115.3,219.11z M113.48,216.49c-0.25-0.4-0.58-0.7-1-0.91c-0.42-0.21-0.89-0.31-1.4-0.31
		c-0.74,0-1.36,0.23-1.88,0.7c-0.52,0.47-0.81,1.12-0.89,1.95h5.54C113.85,217.37,113.73,216.89,113.48,216.49z"/>
	<path d="M118.57,222.75c-0.53-0.23-0.96-0.55-1.26-0.96c-0.31-0.41-0.48-0.88-0.51-1.42h1.5c0.04,0.44,0.25,0.79,0.62,1.07
		s0.85,0.42,1.45,0.42c0.55,0,0.99-0.12,1.31-0.37s0.48-0.55,0.48-0.93c0-0.38-0.17-0.67-0.51-0.86c-0.34-0.19-0.87-0.37-1.58-0.55
		c-0.65-0.17-1.18-0.34-1.59-0.52c-0.41-0.18-0.76-0.44-1.06-0.78c-0.29-0.35-0.44-0.8-0.44-1.37c0-0.45,0.13-0.86,0.4-1.23
		c0.27-0.37,0.65-0.67,1.14-0.89s1.05-0.33,1.68-0.33c0.97,0,1.75,0.25,2.35,0.74c0.6,0.49,0.92,1.16,0.96,2.02h-1.46
		c-0.03-0.46-0.22-0.83-0.55-1.1s-0.79-0.42-1.35-0.42c-0.52,0-0.94,0.11-1.25,0.34c-0.31,0.22-0.46,0.52-0.46,0.88
		c0,0.29,0.09,0.53,0.28,0.71s0.42,0.34,0.7,0.45c0.28,0.11,0.67,0.24,1.18,0.38c0.63,0.17,1.14,0.34,1.54,0.5s0.73,0.41,1.02,0.74
		c0.28,0.33,0.43,0.76,0.44,1.3c0,0.48-0.13,0.91-0.4,1.3s-0.64,0.69-1.13,0.9c-0.49,0.22-1.04,0.33-1.67,0.33
		C119.71,223.09,119.1,222.98,118.57,222.75z"/>
	<path d="M125.38,222.76c-0.19-0.19-0.29-0.43-0.29-0.7c0-0.28,0.1-0.51,0.29-0.7c0.19-0.19,0.43-0.29,0.7-0.29
		c0.27,0,0.49,0.1,0.68,0.29c0.19,0.19,0.28,0.43,0.28,0.7c0,0.28-0.09,0.51-0.28,0.7c-0.19,0.19-0.41,0.29-0.68,0.29
		C125.81,223.05,125.58,222.95,125.38,222.76z"/>
	<path d="M134.71,221.77h3.9v1.18h-5.36V211.8h1.46V221.77z"/>
	<path d="M140.17,216.17c0.36-0.68,0.86-1.2,1.5-1.58c0.63-0.37,1.34-0.56,2.12-0.56c0.77,0,1.43,0.17,2,0.5
		c0.57,0.33,0.99,0.75,1.26,1.25v-1.6h1.47v8.77h-1.47v-1.63c-0.29,0.51-0.72,0.94-1.29,1.27c-0.57,0.34-1.24,0.5-1.99,0.5
		c-0.78,0-1.48-0.19-2.11-0.58c-0.63-0.38-1.13-0.92-1.49-1.62c-0.36-0.69-0.54-1.48-0.54-2.37
		C139.63,217.64,139.81,216.85,140.17,216.17z M146.65,216.82c-0.27-0.49-0.63-0.87-1.08-1.13s-0.95-0.39-1.5-0.39
		s-1.04,0.13-1.49,0.38c-0.45,0.26-0.81,0.63-1.07,1.12c-0.27,0.49-0.4,1.07-0.4,1.73c0,0.67,0.13,1.26,0.4,1.75
		s0.62,0.88,1.07,1.14c0.45,0.26,0.94,0.39,1.49,0.39s1.04-0.13,1.5-0.39c0.45-0.26,0.81-0.64,1.08-1.14s0.4-1.07,0.4-1.74
		C147.05,217.89,146.92,217.31,146.65,216.82z"/>
	<path d="M163.21,219.11h-7.01c0.05,0.86,0.35,1.54,0.89,2.02c0.54,0.49,1.19,0.73,1.96,0.73c0.63,0,1.15-0.15,1.58-0.44
		c0.42-0.29,0.72-0.68,0.89-1.18h1.57c-0.23,0.84-0.7,1.53-1.41,2.06c-0.7,0.53-1.58,0.79-2.62,0.79c-0.83,0-1.58-0.19-2.23-0.56
		s-1.17-0.9-1.54-1.59c-0.37-0.69-0.56-1.49-0.56-2.39c0-0.91,0.18-1.7,0.54-2.38c0.36-0.68,0.87-1.21,1.53-1.58
		c0.66-0.37,1.41-0.55,2.26-0.55c0.83,0,1.57,0.18,2.21,0.54c0.64,0.36,1.13,0.86,1.48,1.5s0.52,1.35,0.52,2.15
		C163.26,218.51,163.24,218.8,163.21,219.11z M161.38,216.49c-0.25-0.4-0.58-0.7-1-0.91c-0.42-0.21-0.89-0.31-1.4-0.31
		c-0.74,0-1.36,0.23-1.88,0.7c-0.52,0.47-0.81,1.12-0.89,1.95h5.54C161.75,217.37,161.63,216.89,161.38,216.49z"/>
	<path d="M165.18,216.17c0.36-0.68,0.87-1.2,1.51-1.58c0.65-0.37,1.38-0.56,2.22-0.56c1.08,0,1.96,0.26,2.66,0.78
		c0.7,0.52,1.16,1.25,1.38,2.18h-1.57c-0.15-0.53-0.44-0.95-0.87-1.26c-0.43-0.31-0.97-0.46-1.61-0.46c-0.83,0-1.5,0.29-2.02,0.86
		c-0.51,0.57-0.77,1.38-0.77,2.42c0,1.06,0.26,1.87,0.77,2.45c0.51,0.58,1.18,0.86,2.02,0.86c0.64,0,1.17-0.15,1.6-0.45
		s0.72-0.73,0.88-1.28h1.57c-0.23,0.9-0.7,1.61-1.41,2.15c-0.7,0.54-1.58,0.81-2.64,0.81c-0.83,0-1.57-0.19-2.22-0.56
		s-1.15-0.9-1.51-1.58c-0.36-0.68-0.54-1.48-0.54-2.4C164.63,217.64,164.81,216.85,165.18,216.17z"/>
	<path d="M176.48,222.53c-0.67-0.37-1.19-0.9-1.57-1.59c-0.38-0.69-0.57-1.49-0.57-2.39c0-0.9,0.19-1.69,0.58-2.38
		c0.39-0.69,0.92-1.22,1.59-1.58c0.67-0.37,1.42-0.55,2.26-0.55s1.58,0.18,2.26,0.55c0.67,0.37,1.2,0.89,1.59,1.58
		s0.58,1.48,0.58,2.38c0,0.91-0.2,1.7-0.6,2.39c-0.4,0.69-0.94,1.22-1.62,1.59s-1.44,0.56-2.27,0.56
		C177.89,223.09,177.15,222.91,176.48,222.53z M180.18,221.45c0.46-0.25,0.83-0.61,1.11-1.1c0.28-0.49,0.42-1.09,0.42-1.79
		c0-0.7-0.14-1.3-0.42-1.79c-0.28-0.49-0.64-0.86-1.09-1.1c-0.45-0.24-0.93-0.36-1.46-0.36c-0.53,0-1.02,0.12-1.46,0.36
		s-0.8,0.61-1.06,1.1c-0.27,0.49-0.4,1.09-0.4,1.79c0,0.71,0.13,1.32,0.39,1.81c0.26,0.49,0.61,0.86,1.05,1.1s0.92,0.36,1.44,0.36
		S179.73,221.69,180.18,221.45z"/>
	<path d="M190.74,214.53c0.57,0.33,1,0.75,1.27,1.25v-1.6h1.47v8.96c0,0.8-0.17,1.51-0.51,2.14c-0.34,0.62-0.83,1.11-1.46,1.46
		c-0.63,0.35-1.37,0.53-2.22,0.53c-1.15,0-2.11-0.27-2.88-0.82c-0.77-0.54-1.22-1.29-1.36-2.22h1.44c0.16,0.53,0.49,0.96,0.99,1.29
		c0.5,0.33,1.1,0.49,1.81,0.49c0.8,0,1.45-0.25,1.96-0.75c0.51-0.5,0.76-1.21,0.76-2.11v-1.84c-0.29,0.51-0.71,0.94-1.28,1.28
		c-0.57,0.34-1.23,0.51-1.98,0.51c-0.78,0-1.49-0.19-2.12-0.58c-0.63-0.38-1.13-0.92-1.5-1.62c-0.36-0.69-0.54-1.48-0.54-2.37
		c0-0.9,0.18-1.68,0.54-2.36c0.36-0.68,0.86-1.2,1.5-1.58c0.63-0.37,1.34-0.56,2.12-0.56C189.5,214.04,190.17,214.2,190.74,214.53z
		 M191.61,216.82c-0.27-0.49-0.63-0.87-1.08-1.13s-0.95-0.39-1.5-0.39s-1.04,0.13-1.49,0.38c-0.45,0.26-0.81,0.63-1.07,1.12
		c-0.27,0.49-0.4,1.07-0.4,1.73c0,0.67,0.13,1.26,0.4,1.75s0.62,0.88,1.07,1.14c0.45,0.26,0.94,0.39,1.49,0.39s1.04-0.13,1.5-0.39
		c0.45-0.26,0.81-0.64,1.08-1.14s0.4-1.07,0.4-1.74C192.01,217.89,191.88,217.31,191.61,216.82z"/>
	<path d="M198.5,214.44c0.47-0.28,1.05-0.42,1.74-0.42v1.5h-0.38c-1.63,0-2.45,0.89-2.45,2.66v4.77h-1.46v-8.77h1.46v1.42
		C197.66,215.1,198.02,214.72,198.5,214.44z"/>
	<path d="M201.91,216.17c0.36-0.68,0.86-1.2,1.5-1.58c0.63-0.37,1.34-0.56,2.12-0.56c0.77,0,1.43,0.17,2,0.5
		c0.57,0.33,0.99,0.75,1.26,1.25v-1.6h1.47v8.77h-1.47v-1.63c-0.29,0.51-0.72,0.94-1.29,1.27c-0.57,0.34-1.24,0.5-1.99,0.5
		c-0.78,0-1.48-0.19-2.11-0.58c-0.63-0.38-1.13-0.92-1.49-1.62c-0.36-0.69-0.54-1.48-0.54-2.37
		C201.37,217.64,201.55,216.85,201.91,216.17z M208.39,216.82c-0.27-0.49-0.63-0.87-1.08-1.13s-0.95-0.39-1.5-0.39
		s-1.04,0.13-1.49,0.38c-0.45,0.26-0.81,0.63-1.07,1.12c-0.27,0.49-0.4,1.07-0.4,1.73c0,0.67,0.13,1.26,0.4,1.75
		s0.62,0.88,1.07,1.14c0.45,0.26,0.94,0.39,1.49,0.39s1.04-0.13,1.5-0.39c0.45-0.26,0.81-0.64,1.08-1.14s0.4-1.07,0.4-1.74
		C208.79,217.89,208.66,217.31,208.39,216.82z"/>
	<path d="M216.29,215.38h-1.84v7.57H213v-7.57h-1.14v-1.2H213v-0.62c0-0.98,0.25-1.7,0.76-2.15s1.32-0.68,2.44-0.68v1.22
		c-0.64,0-1.09,0.13-1.35,0.38c-0.26,0.25-0.39,0.66-0.39,1.24v0.62h1.84V215.38z"/>
	<path d="M220.28,211.7l-3.41,1.82v-1.09l3.41-2V211.7z M219.45,214.18v8.77h-1.46v-8.77H219.45z"/>
	<path d="M221.93,216.17c0.36-0.68,0.86-1.2,1.5-1.58c0.63-0.37,1.34-0.56,2.12-0.56c0.77,0,1.43,0.17,2,0.5
		c0.57,0.33,0.99,0.75,1.26,1.25v-1.6h1.47v8.77h-1.47v-1.63c-0.29,0.51-0.72,0.94-1.29,1.27c-0.57,0.34-1.24,0.5-1.99,0.5
		c-0.78,0-1.48-0.19-2.11-0.58c-0.63-0.38-1.13-0.92-1.49-1.62c-0.36-0.69-0.54-1.48-0.54-2.37
		C221.38,217.64,221.56,216.85,221.93,216.17z M228.41,216.82c-0.27-0.49-0.63-0.87-1.08-1.13s-0.95-0.39-1.5-0.39
		s-1.04,0.13-1.49,0.38c-0.45,0.26-0.81,0.63-1.07,1.12c-0.27,0.49-0.4,1.07-0.4,1.73c0,0.67,0.13,1.26,0.4,1.75
		s0.62,0.88,1.07,1.14c0.45,0.26,0.94,0.39,1.49,0.39s1.04-0.13,1.5-0.39c0.45-0.26,0.81-0.64,1.08-1.14s0.4-1.07,0.4-1.74
		C228.81,217.89,228.67,217.31,228.41,216.82z"/>
	<path d="M243.65,212.48c0.89,0.45,1.57,1.1,2.05,1.94c0.47,0.84,0.71,1.83,0.71,2.98s-0.24,2.13-0.71,2.97
		c-0.47,0.84-1.16,1.48-2.05,1.92s-1.94,0.66-3.16,0.66h-3.47V211.8h3.47C241.7,211.8,242.76,212.03,243.65,212.48z M243.78,220.61
		c0.76-0.76,1.14-1.83,1.14-3.21c0-1.39-0.38-2.47-1.14-3.25s-1.86-1.17-3.29-1.17h-2.02v8.77h2.02
		C241.93,221.75,243.02,221.37,243.78,220.61z"/>
	<path d="M249.92,222.53c-0.67-0.37-1.19-0.9-1.57-1.59c-0.38-0.69-0.57-1.49-0.57-2.39c0-0.9,0.19-1.69,0.58-2.38
		c0.39-0.69,0.92-1.22,1.59-1.58c0.67-0.37,1.42-0.55,2.26-0.55s1.58,0.18,2.26,0.55c0.67,0.37,1.2,0.89,1.59,1.58
		s0.58,1.48,0.58,2.38c0,0.91-0.2,1.7-0.6,2.39c-0.4,0.69-0.94,1.22-1.62,1.59s-1.44,0.56-2.27,0.56
		C251.33,223.09,250.58,222.91,249.92,222.53z M253.62,221.45c0.46-0.25,0.83-0.61,1.11-1.1c0.28-0.49,0.42-1.09,0.42-1.79
		c0-0.7-0.14-1.3-0.42-1.79c-0.28-0.49-0.64-0.86-1.09-1.1c-0.45-0.24-0.93-0.36-1.46-0.36c-0.53,0-1.02,0.12-1.46,0.36
		s-0.8,0.61-1.06,1.1c-0.27,0.49-0.4,1.09-0.4,1.79c0,0.71,0.13,1.32,0.39,1.81c0.26,0.49,0.61,0.86,1.05,1.1s0.92,0.36,1.44,0.36
		S253.16,221.69,253.62,221.45z"/>
	<path d="M261.31,214.54c0.57-0.34,1.24-0.5,1.99-0.5c0.78,0,1.49,0.19,2.12,0.56c0.63,0.37,1.13,0.9,1.5,1.58
		c0.36,0.68,0.54,1.46,0.54,2.36c0,0.89-0.18,1.67-0.54,2.37s-0.86,1.23-1.5,1.62c-0.63,0.38-1.34,0.58-2.12,0.58
		c-0.75,0-1.41-0.17-1.98-0.5c-0.57-0.34-1.01-0.75-1.3-1.26v5.78h-1.46v-12.93h1.46v1.62C260.31,215.3,260.74,214.88,261.31,214.54
		z M265.57,216.81c-0.27-0.49-0.63-0.86-1.08-1.12c-0.45-0.26-0.95-0.38-1.5-0.38c-0.53,0-1.03,0.13-1.48,0.39
		c-0.45,0.26-0.82,0.64-1.09,1.14c-0.27,0.5-0.41,1.07-0.41,1.72c0,0.66,0.14,1.24,0.41,1.74c0.27,0.5,0.63,0.88,1.09,1.14
		c0.45,0.26,0.95,0.39,1.48,0.39c0.54,0,1.04-0.13,1.5-0.39c0.45-0.26,0.81-0.64,1.08-1.14s0.4-1.08,0.4-1.75
		C265.97,217.87,265.84,217.3,265.57,216.81z"/>
	<path d="M272.13,214.54c0.57-0.34,1.24-0.5,1.99-0.5c0.78,0,1.49,0.19,2.12,0.56c0.63,0.37,1.13,0.9,1.5,1.58
		c0.36,0.68,0.54,1.46,0.54,2.36c0,0.89-0.18,1.67-0.54,2.37s-0.86,1.23-1.5,1.62c-0.63,0.38-1.34,0.58-2.12,0.58
		c-0.75,0-1.41-0.17-1.98-0.5c-0.57-0.34-1.01-0.75-1.3-1.26v5.78h-1.46v-12.93h1.46v1.62C271.13,215.3,271.55,214.88,272.13,214.54
		z M276.39,216.81c-0.27-0.49-0.63-0.86-1.08-1.12c-0.45-0.26-0.95-0.38-1.5-0.38c-0.53,0-1.03,0.13-1.48,0.39
		c-0.45,0.26-0.82,0.64-1.09,1.14c-0.27,0.5-0.41,1.07-0.41,1.72c0,0.66,0.14,1.24,0.41,1.74c0.27,0.5,0.63,0.88,1.09,1.14
		c0.45,0.26,0.95,0.39,1.48,0.39c0.54,0,1.04-0.13,1.5-0.39c0.45-0.26,0.81-0.64,1.08-1.14s0.4-1.08,0.4-1.75
		C276.79,217.87,276.66,217.3,276.39,216.81z"/>
	<path d="M281.65,211.11v11.84h-1.46v-11.84H281.65z"/>
	<path d="M292.08,219.11h-7.01c0.05,0.86,0.35,1.54,0.89,2.02c0.54,0.49,1.19,0.73,1.96,0.73c0.63,0,1.15-0.15,1.58-0.44
		c0.42-0.29,0.72-0.68,0.89-1.18h1.57c-0.23,0.84-0.7,1.53-1.41,2.06c-0.7,0.53-1.58,0.79-2.62,0.79c-0.83,0-1.58-0.19-2.23-0.56
		s-1.17-0.9-1.54-1.59c-0.37-0.69-0.56-1.49-0.56-2.39c0-0.91,0.18-1.7,0.54-2.38c0.36-0.68,0.87-1.21,1.53-1.58
		c0.66-0.37,1.41-0.55,2.26-0.55c0.83,0,1.57,0.18,2.21,0.54c0.64,0.36,1.13,0.86,1.48,1.5s0.52,1.35,0.52,2.15
		C292.13,218.51,292.12,218.8,292.08,219.11z M290.26,216.49c-0.25-0.4-0.58-0.7-1-0.91c-0.42-0.21-0.89-0.31-1.4-0.31
		c-0.74,0-1.36,0.23-1.88,0.7c-0.52,0.47-0.81,1.12-0.89,1.95h5.54C290.63,217.37,290.51,216.89,290.26,216.49z"/>
	<path d="M296.61,214.44c0.47-0.28,1.05-0.42,1.74-0.42v1.5h-0.38c-1.63,0-2.45,0.89-2.45,2.66v4.77h-1.46v-8.77h1.46v1.42
		C295.77,215.1,296.13,214.72,296.61,214.44z"/>
	<path d="M304.49,214.43c0.49-0.87,1.16-1.55,2.01-2.04c0.85-0.49,1.79-0.74,2.82-0.74c1.22,0,2.28,0.29,3.18,0.88
		c0.91,0.59,1.57,1.42,1.98,2.5h-1.74c-0.31-0.67-0.75-1.19-1.34-1.55c-0.58-0.36-1.28-0.54-2.09-0.54c-0.78,0-1.48,0.18-2.1,0.54
		c-0.62,0.36-1.1,0.88-1.46,1.54c-0.35,0.67-0.53,1.45-0.53,2.34c0,0.89,0.18,1.66,0.53,2.33c0.35,0.67,0.84,1.18,1.46,1.54
		c0.62,0.36,1.32,0.54,2.1,0.54c0.81,0,1.51-0.18,2.09-0.54s1.03-0.87,1.34-1.54h1.74c-0.42,1.07-1.08,1.89-1.98,2.47
		c-0.91,0.58-1.97,0.87-3.18,0.87c-1.03,0-1.98-0.24-2.82-0.73c-0.85-0.49-1.52-1.16-2.01-2.02c-0.49-0.86-0.74-1.84-0.74-2.93
		S304,215.3,304.49,214.43z"/>
	<path d="M318.24,222.53c-0.67-0.37-1.19-0.9-1.57-1.59c-0.38-0.69-0.57-1.49-0.57-2.39c0-0.9,0.19-1.69,0.58-2.38
		c0.39-0.69,0.92-1.22,1.59-1.58c0.67-0.37,1.42-0.55,2.26-0.55s1.58,0.18,2.26,0.55c0.67,0.37,1.2,0.89,1.59,1.58
		s0.58,1.48,0.58,2.38c0,0.91-0.2,1.7-0.6,2.39c-0.4,0.69-0.94,1.22-1.62,1.59s-1.44,0.56-2.27,0.56
		C319.65,223.09,318.9,222.91,318.24,222.53z M321.94,221.45c0.46-0.25,0.83-0.61,1.11-1.1c0.28-0.49,0.42-1.09,0.42-1.79
		c0-0.7-0.14-1.3-0.42-1.79c-0.28-0.49-0.64-0.86-1.09-1.1c-0.45-0.24-0.93-0.36-1.46-0.36c-0.53,0-1.02,0.12-1.46,0.36
		s-0.8,0.61-1.06,1.1c-0.27,0.49-0.4,1.09-0.4,1.79c0,0.71,0.13,1.32,0.39,1.81c0.26,0.49,0.61,0.86,1.05,1.1s0.92,0.36,1.44,0.36
		S321.48,221.69,321.94,221.45z"/>
	<path d="M328.34,211.11v11.84h-1.46v-11.84H328.34z"/>
	<path d="M332.41,222.53c-0.67-0.37-1.19-0.9-1.57-1.59c-0.38-0.69-0.57-1.49-0.57-2.39c0-0.9,0.19-1.69,0.58-2.38
		c0.39-0.69,0.92-1.22,1.59-1.58c0.67-0.37,1.42-0.55,2.26-0.55s1.58,0.18,2.26,0.55c0.67,0.37,1.2,0.89,1.59,1.58
		s0.58,1.48,0.58,2.38c0,0.91-0.2,1.7-0.6,2.39c-0.4,0.69-0.94,1.22-1.62,1.59s-1.44,0.56-2.27,0.56
		C333.82,223.09,333.08,222.91,332.41,222.53z M336.12,221.45c0.46-0.25,0.83-0.61,1.11-1.1c0.28-0.49,0.42-1.09,0.42-1.79
		c0-0.7-0.14-1.3-0.42-1.79c-0.28-0.49-0.64-0.86-1.09-1.1c-0.45-0.24-0.93-0.36-1.46-0.36c-0.53,0-1.02,0.12-1.46,0.36
		s-0.8,0.61-1.06,1.1c-0.27,0.49-0.4,1.09-0.4,1.79c0,0.71,0.13,1.32,0.39,1.81c0.26,0.49,0.61,0.86,1.05,1.1s0.92,0.36,1.44,0.36
		S335.66,221.69,336.12,221.45z"/>
	<path d="M343.61,214.44c0.47-0.28,1.05-0.42,1.74-0.42v1.5h-0.38c-1.63,0-2.45,0.89-2.45,2.66v4.77h-1.46v-8.77h1.46v1.42
		C342.77,215.1,343.14,214.72,343.61,214.44z"/>
	<path d="M352.6,222.75c-0.53-0.23-0.96-0.55-1.26-0.96c-0.31-0.41-0.48-0.88-0.51-1.42h1.5c0.04,0.44,0.25,0.79,0.62,1.07
		s0.85,0.42,1.45,0.42c0.55,0,0.99-0.12,1.31-0.37s0.48-0.55,0.48-0.93c0-0.38-0.17-0.67-0.51-0.86c-0.34-0.19-0.87-0.37-1.58-0.55
		c-0.65-0.17-1.18-0.34-1.59-0.52c-0.41-0.18-0.76-0.44-1.06-0.78c-0.29-0.35-0.44-0.8-0.44-1.37c0-0.45,0.13-0.86,0.4-1.23
		c0.27-0.37,0.65-0.67,1.14-0.89s1.05-0.33,1.68-0.33c0.97,0,1.75,0.25,2.35,0.74c0.6,0.49,0.92,1.16,0.96,2.02h-1.46
		c-0.03-0.46-0.22-0.83-0.55-1.1s-0.79-0.42-1.35-0.42c-0.52,0-0.94,0.11-1.25,0.34c-0.31,0.22-0.46,0.52-0.46,0.88
		c0,0.29,0.09,0.53,0.28,0.71s0.42,0.34,0.7,0.45c0.28,0.11,0.67,0.24,1.18,0.38c0.63,0.17,1.14,0.34,1.54,0.5s0.73,0.41,1.02,0.74
		c0.28,0.33,0.43,0.76,0.44,1.3c0,0.48-0.13,0.91-0.4,1.3s-0.64,0.69-1.13,0.9c-0.49,0.22-1.04,0.33-1.67,0.33
		C353.73,223.09,353.13,222.98,352.6,222.75z"/>
	<path d="M367.6,219.11h-7.01c0.05,0.86,0.35,1.54,0.89,2.02c0.54,0.49,1.19,0.73,1.96,0.73c0.63,0,1.15-0.15,1.58-0.44
		c0.42-0.29,0.72-0.68,0.89-1.18h1.57c-0.23,0.84-0.7,1.53-1.41,2.06c-0.7,0.53-1.58,0.79-2.62,0.79c-0.83,0-1.58-0.19-2.23-0.56
		s-1.17-0.9-1.54-1.59c-0.37-0.69-0.56-1.49-0.56-2.39c0-0.91,0.18-1.7,0.54-2.38c0.36-0.68,0.87-1.21,1.53-1.58
		c0.66-0.37,1.41-0.55,2.26-0.55c0.83,0,1.57,0.18,2.21,0.54c0.64,0.36,1.13,0.86,1.48,1.5s0.52,1.35,0.52,2.15
		C367.65,218.51,367.64,218.8,367.6,219.11z M365.78,216.49c-0.25-0.4-0.58-0.7-1-0.91c-0.42-0.21-0.89-0.31-1.4-0.31
		c-0.74,0-1.36,0.23-1.88,0.7c-0.52,0.47-0.81,1.12-0.89,1.95h5.54C366.15,217.37,366.03,216.89,365.78,216.49z"/>
	<path d="M376.4,214.44c0.47-0.28,1.05-0.42,1.74-0.42v1.5h-0.38c-1.63,0-2.45,0.89-2.45,2.66v4.77h-1.46v-8.77h1.46v1.42
		C375.56,215.1,375.92,214.72,376.4,214.44z"/>
	<path d="M387.76,219.11h-7.01c0.05,0.86,0.35,1.54,0.89,2.02c0.54,0.49,1.19,0.73,1.96,0.73c0.63,0,1.15-0.15,1.58-0.44
		c0.42-0.29,0.72-0.68,0.89-1.18h1.57c-0.23,0.84-0.7,1.53-1.41,2.06c-0.7,0.53-1.58,0.79-2.62,0.79c-0.83,0-1.58-0.19-2.23-0.56
		s-1.17-0.9-1.54-1.59c-0.37-0.69-0.56-1.49-0.56-2.39c0-0.91,0.18-1.7,0.54-2.38c0.36-0.68,0.87-1.21,1.53-1.58
		c0.66-0.37,1.41-0.55,2.26-0.55c0.83,0,1.57,0.18,2.21,0.54c0.64,0.36,1.13,0.86,1.48,1.5s0.52,1.35,0.52,2.15
		C387.81,218.51,387.8,218.8,387.76,219.11z M385.94,216.49c-0.25-0.4-0.58-0.7-1-0.91c-0.42-0.21-0.89-0.31-1.4-0.31
		c-0.74,0-1.36,0.23-1.88,0.7c-0.52,0.47-0.81,1.12-0.89,1.95h5.54C386.31,217.37,386.19,216.89,385.94,216.49z"/>
	<path d="M389.73,216.17c0.36-0.68,0.86-1.2,1.5-1.58c0.63-0.37,1.34-0.56,2.12-0.56c0.77,0,1.43,0.17,2,0.5
		c0.57,0.33,0.99,0.75,1.26,1.25v-1.6h1.47v8.77h-1.47v-1.63c-0.29,0.51-0.72,0.94-1.29,1.27c-0.57,0.34-1.24,0.5-1.99,0.5
		c-0.78,0-1.48-0.19-2.11-0.58c-0.63-0.38-1.13-0.92-1.49-1.62c-0.36-0.69-0.54-1.48-0.54-2.37
		C389.19,217.64,389.37,216.85,389.73,216.17z M396.21,216.82c-0.27-0.49-0.63-0.87-1.08-1.13s-0.95-0.39-1.5-0.39
		s-1.04,0.13-1.49,0.38c-0.45,0.26-0.81,0.63-1.07,1.12c-0.27,0.49-0.4,1.07-0.4,1.73c0,0.67,0.13,1.26,0.4,1.75
		s0.62,0.88,1.07,1.14c0.45,0.26,0.94,0.39,1.49,0.39s1.04-0.13,1.5-0.39c0.45-0.26,0.81-0.64,1.08-1.14s0.4-1.07,0.4-1.74
		C396.61,217.89,396.48,217.31,396.21,216.82z"/>
	<path d="M402,211.11v11.84h-1.46v-11.84H402z"/>
	<path d="M404.53,212.47c-0.19-0.19-0.29-0.43-0.29-0.7s0.1-0.51,0.29-0.7c0.19-0.19,0.43-0.29,0.7-0.29c0.27,0,0.49,0.1,0.68,0.29
		c0.19,0.19,0.28,0.43,0.28,0.7s-0.09,0.51-0.28,0.7c-0.19,0.19-0.41,0.29-0.68,0.29C404.96,212.76,404.72,212.66,404.53,212.47z
		 M405.94,214.18v8.77h-1.46v-8.77H405.94z"/>
	<path d="M409.51,221.75h4.3v1.2h-5.97v-1.2l4.26-6.38h-4.22v-1.18h5.9v1.18L409.51,221.75z"/>
	<path d="M415.7,216.17c0.36-0.68,0.86-1.2,1.5-1.58c0.63-0.37,1.34-0.56,2.12-0.56c0.77,0,1.43,0.17,2,0.5
		c0.57,0.33,0.99,0.75,1.26,1.25v-1.6h1.47v8.77h-1.47v-1.63c-0.29,0.51-0.72,0.94-1.29,1.27c-0.57,0.34-1.24,0.5-1.99,0.5
		c-0.78,0-1.48-0.19-2.11-0.58c-0.63-0.38-1.13-0.92-1.49-1.62c-0.36-0.69-0.54-1.48-0.54-2.37
		C415.15,217.64,415.33,216.85,415.7,216.17z M422.18,216.82c-0.27-0.49-0.63-0.87-1.08-1.13s-0.95-0.39-1.5-0.39
		s-1.04,0.13-1.49,0.38c-0.45,0.26-0.81,0.63-1.07,1.12c-0.27,0.49-0.4,1.07-0.4,1.73c0,0.67,0.13,1.26,0.4,1.75
		s0.62,0.88,1.07,1.14c0.45,0.26,0.94,0.39,1.49,0.39s1.04-0.13,1.5-0.39c0.45-0.26,0.81-0.64,1.08-1.14s0.4-1.07,0.4-1.74
		C422.58,217.89,422.44,217.31,422.18,216.82z"/>
	<path d="M53.08,246.75c-0.53-0.23-0.96-0.55-1.26-0.96c-0.31-0.41-0.48-0.88-0.51-1.42h1.5c0.04,0.44,0.25,0.79,0.62,1.07
		s0.85,0.42,1.45,0.42c0.55,0,0.99-0.12,1.31-0.37s0.48-0.55,0.48-0.93c0-0.38-0.17-0.67-0.51-0.86c-0.34-0.19-0.87-0.37-1.58-0.55
		c-0.65-0.17-1.18-0.34-1.59-0.52c-0.41-0.18-0.76-0.44-1.06-0.78c-0.29-0.35-0.44-0.8-0.44-1.37c0-0.45,0.13-0.86,0.4-1.23
		c0.27-0.37,0.65-0.67,1.14-0.89s1.05-0.33,1.68-0.33c0.97,0,1.75,0.25,2.35,0.74c0.6,0.49,0.92,1.16,0.96,2.02h-1.46
		c-0.03-0.46-0.22-0.83-0.55-1.1s-0.79-0.42-1.35-0.42c-0.52,0-0.94,0.11-1.25,0.34c-0.31,0.22-0.46,0.52-0.46,0.88
		c0,0.29,0.09,0.53,0.28,0.71s0.42,0.34,0.7,0.45c0.28,0.11,0.67,0.24,1.18,0.38c0.63,0.17,1.14,0.34,1.54,0.5s0.73,0.41,1.02,0.74
		c0.28,0.33,0.43,0.76,0.44,1.3c0,0.48-0.13,0.91-0.4,1.3s-0.64,0.69-1.13,0.9c-0.49,0.22-1.04,0.33-1.67,0.33
		C54.22,247.09,53.62,246.98,53.08,246.75z"/>
	<path d="M60.19,236.47c-0.19-0.19-0.29-0.43-0.29-0.7s0.1-0.51,0.29-0.7c0.19-0.19,0.43-0.29,0.7-0.29c0.27,0,0.49,0.1,0.68,0.29
		c0.19,0.19,0.28,0.43,0.28,0.7s-0.09,0.51-0.28,0.7c-0.19,0.19-0.41,0.29-0.68,0.29C60.61,236.76,60.38,236.66,60.19,236.47z
		 M61.59,238.18v8.77h-1.46v-8.77H61.59z"/>
	<path d="M74.49,238.45c0.53,0.28,0.95,0.71,1.26,1.27c0.3,0.57,0.46,1.25,0.46,2.06v5.17h-1.44v-4.96c0-0.88-0.22-1.54-0.66-2.01
		s-1.04-0.7-1.79-0.7c-0.77,0-1.38,0.24-1.83,0.72c-0.45,0.48-0.68,1.18-0.68,2.1v4.85h-1.46v-11.84h1.46v4.32
		c0.29-0.45,0.68-0.79,1.19-1.04c0.51-0.25,1.07-0.37,1.7-0.37C73.36,238.02,73.96,238.16,74.49,238.45z"/>
	<path d="M78.58,240.17c0.36-0.68,0.86-1.2,1.5-1.58c0.63-0.37,1.34-0.56,2.12-0.56c0.77,0,1.43,0.17,2,0.5
		c0.57,0.33,0.99,0.75,1.26,1.25v-1.6h1.47v8.77h-1.47v-1.63c-0.29,0.51-0.72,0.94-1.29,1.27c-0.57,0.34-1.24,0.5-1.99,0.5
		c-0.78,0-1.48-0.19-2.11-0.58c-0.63-0.38-1.13-0.92-1.49-1.62c-0.36-0.69-0.54-1.48-0.54-2.37
		C78.04,241.64,78.22,240.85,78.58,240.17z M85.06,240.82c-0.27-0.49-0.63-0.87-1.08-1.13s-0.95-0.39-1.5-0.39s-1.04,0.13-1.49,0.38
		c-0.45,0.26-0.81,0.63-1.07,1.12c-0.27,0.49-0.4,1.07-0.4,1.73c0,0.67,0.13,1.26,0.4,1.75s0.62,0.88,1.07,1.14
		c0.45,0.26,0.94,0.39,1.49,0.39s1.04-0.13,1.5-0.39c0.45-0.26,0.81-0.64,1.08-1.14s0.4-1.07,0.4-1.74
		C85.46,241.89,85.33,241.31,85.06,240.82z"/>
	<path d="M96.95,238.18l-5.28,12.9h-1.5l1.73-4.22l-3.54-8.67h1.62l2.75,7.1l2.72-7.1H96.95z"/>
	<path d="M104.46,239.38v5.17c0,0.43,0.09,0.73,0.27,0.9c0.18,0.18,0.5,0.26,0.94,0.26h1.07v1.23h-1.31c-0.81,0-1.42-0.19-1.82-0.56
		c-0.41-0.37-0.61-0.99-0.61-1.84v-5.17h-1.14v-1.2H103v-2.21h1.46v2.21h2.29v1.2H104.46z"/>
	<path d="M116.28,238.18v8.77h-1.46v-1.3c-0.28,0.45-0.66,0.8-1.16,1.05c-0.5,0.25-1.04,0.38-1.64,0.38c-0.68,0-1.3-0.14-1.84-0.42
		s-0.97-0.71-1.29-1.27c-0.31-0.56-0.47-1.25-0.47-2.06v-5.14h1.44v4.94c0,0.86,0.22,1.53,0.66,1.99s1.03,0.7,1.79,0.7
		c0.78,0,1.39-0.24,1.84-0.72c0.45-0.48,0.67-1.18,0.67-2.1v-4.82H116.28z"/>
	<path d="M131.11,238.45c0.53,0.28,0.96,0.71,1.26,1.27c0.31,0.57,0.46,1.25,0.46,2.06v5.17h-1.44v-4.96c0-0.88-0.22-1.54-0.65-2.01
		c-0.43-0.46-1.02-0.7-1.75-0.7c-0.76,0-1.36,0.24-1.81,0.73c-0.45,0.49-0.67,1.19-0.67,2.1v4.83h-1.44v-4.96
		c0-0.88-0.22-1.54-0.65-2.01s-1.02-0.7-1.75-0.7c-0.76,0-1.36,0.24-1.81,0.73c-0.45,0.49-0.67,1.19-0.67,2.1v4.83h-1.46v-8.77h1.46
		v1.26c0.29-0.46,0.67-0.81,1.16-1.06c0.49-0.25,1.02-0.37,1.61-0.37c0.74,0,1.39,0.17,1.95,0.5c0.57,0.33,0.99,0.82,1.26,1.46
		c0.25-0.62,0.65-1.1,1.22-1.44c0.57-0.34,1.19-0.51,1.89-0.51C129.97,238.02,130.58,238.16,131.11,238.45z"/>
	<path d="M136.82,246.53c-0.67-0.37-1.19-0.9-1.57-1.59c-0.38-0.69-0.57-1.49-0.57-2.39c0-0.9,0.19-1.69,0.58-2.38
		c0.39-0.69,0.92-1.22,1.59-1.58c0.67-0.37,1.42-0.55,2.26-0.55s1.58,0.18,2.26,0.55c0.67,0.37,1.2,0.89,1.59,1.58
		s0.58,1.48,0.58,2.38c0,0.91-0.2,1.7-0.6,2.39c-0.4,0.69-0.94,1.22-1.62,1.59s-1.44,0.56-2.27,0.56
		C138.23,247.09,137.48,246.91,136.82,246.53z M140.52,245.45c0.46-0.25,0.83-0.61,1.11-1.1c0.28-0.49,0.42-1.09,0.42-1.79
		c0-0.7-0.14-1.3-0.42-1.79c-0.28-0.49-0.64-0.86-1.09-1.1c-0.45-0.24-0.93-0.36-1.46-0.36c-0.53,0-1.02,0.12-1.46,0.36
		s-0.8,0.61-1.06,1.1c-0.27,0.49-0.4,1.09-0.4,1.79c0,0.71,0.13,1.32,0.39,1.81c0.26,0.49,0.61,0.86,1.05,1.1s0.92,0.36,1.44,0.36
		S140.06,245.69,140.52,245.45z"/>
	<path d="M148.02,238.44c0.47-0.28,1.05-0.42,1.74-0.42v1.5h-0.38c-1.63,0-2.45,0.89-2.45,2.66v4.77h-1.46v-8.77h1.46v1.42
		C147.18,239.1,147.54,238.72,148.02,238.44z"/>
	<path d="M159.38,243.11h-7.01c0.05,0.86,0.35,1.54,0.89,2.02c0.54,0.49,1.19,0.73,1.96,0.73c0.63,0,1.15-0.15,1.58-0.44
		c0.42-0.29,0.72-0.68,0.89-1.18h1.57c-0.23,0.84-0.7,1.53-1.41,2.06c-0.7,0.53-1.58,0.79-2.62,0.79c-0.83,0-1.58-0.19-2.23-0.56
		s-1.17-0.9-1.54-1.59c-0.37-0.69-0.56-1.49-0.56-2.39c0-0.91,0.18-1.7,0.54-2.38c0.36-0.68,0.87-1.21,1.53-1.58
		c0.66-0.37,1.41-0.55,2.26-0.55c0.83,0,1.57,0.18,2.21,0.54c0.64,0.36,1.13,0.86,1.48,1.5s0.52,1.35,0.52,2.15
		C159.43,242.51,159.42,242.8,159.38,243.11z M157.56,240.49c-0.25-0.4-0.58-0.7-1-0.91c-0.42-0.21-0.89-0.31-1.4-0.31
		c-0.74,0-1.36,0.23-1.88,0.7c-0.52,0.47-0.81,1.12-0.89,1.95h5.54C157.93,241.37,157.81,240.89,157.56,240.49z"/>
	<path d="M162.65,246.75c-0.53-0.23-0.96-0.55-1.26-0.96c-0.31-0.41-0.48-0.88-0.51-1.42h1.5c0.04,0.44,0.25,0.79,0.62,1.07
		s0.85,0.42,1.45,0.42c0.55,0,0.99-0.12,1.31-0.37s0.48-0.55,0.48-0.93c0-0.38-0.17-0.67-0.51-0.86c-0.34-0.19-0.87-0.37-1.58-0.55
		c-0.65-0.17-1.18-0.34-1.59-0.52c-0.41-0.18-0.76-0.44-1.06-0.78c-0.29-0.35-0.44-0.8-0.44-1.37c0-0.45,0.13-0.86,0.4-1.23
		c0.27-0.37,0.65-0.67,1.14-0.89s1.05-0.33,1.68-0.33c0.97,0,1.75,0.25,2.35,0.74c0.6,0.49,0.92,1.16,0.96,2.02h-1.46
		c-0.03-0.46-0.22-0.83-0.55-1.1s-0.79-0.42-1.35-0.42c-0.52,0-0.94,0.11-1.25,0.34c-0.31,0.22-0.46,0.52-0.46,0.88
		c0,0.29,0.09,0.53,0.28,0.71s0.42,0.34,0.7,0.45c0.28,0.11,0.67,0.24,1.18,0.38c0.63,0.17,1.14,0.34,1.54,0.5s0.73,0.41,1.02,0.74
		c0.28,0.33,0.43,0.76,0.44,1.3c0,0.48-0.13,0.91-0.4,1.3s-0.64,0.69-1.13,0.9c-0.49,0.22-1.04,0.33-1.67,0.33
		C163.79,247.09,163.18,246.98,162.65,246.75z"/>
	<path d="M175.27,246.75c-0.53-0.23-0.96-0.55-1.26-0.96c-0.31-0.41-0.48-0.88-0.51-1.42h1.5c0.04,0.44,0.25,0.79,0.62,1.07
		s0.85,0.42,1.45,0.42c0.55,0,0.99-0.12,1.31-0.37s0.48-0.55,0.48-0.93c0-0.38-0.17-0.67-0.51-0.86c-0.34-0.19-0.87-0.37-1.58-0.55
		c-0.65-0.17-1.18-0.34-1.59-0.52c-0.41-0.18-0.76-0.44-1.06-0.78c-0.29-0.35-0.44-0.8-0.44-1.37c0-0.45,0.13-0.86,0.4-1.23
		c0.27-0.37,0.65-0.67,1.14-0.89s1.05-0.33,1.68-0.33c0.97,0,1.75,0.25,2.35,0.74c0.6,0.49,0.92,1.16,0.96,2.02h-1.46
		c-0.03-0.46-0.22-0.83-0.55-1.1s-0.79-0.42-1.35-0.42c-0.52,0-0.94,0.11-1.25,0.34c-0.31,0.22-0.46,0.52-0.46,0.88
		c0,0.29,0.09,0.53,0.28,0.71s0.42,0.34,0.7,0.45c0.28,0.11,0.67,0.24,1.18,0.38c0.63,0.17,1.14,0.34,1.54,0.5s0.73,0.41,1.02,0.74
		c0.28,0.33,0.43,0.76,0.44,1.3c0,0.48-0.13,0.91-0.4,1.3s-0.64,0.69-1.13,0.9c-0.49,0.22-1.04,0.33-1.67,0.33
		C176.41,247.09,175.81,246.98,175.27,246.75z"/>
	<path d="M183.92,246.53c-0.67-0.37-1.19-0.9-1.57-1.59c-0.38-0.69-0.57-1.49-0.57-2.39c0-0.9,0.19-1.69,0.58-2.38
		c0.39-0.69,0.92-1.22,1.59-1.58c0.67-0.37,1.42-0.55,2.26-0.55s1.58,0.18,2.26,0.55c0.67,0.37,1.2,0.89,1.59,1.58
		s0.58,1.48,0.58,2.38c0,0.91-0.2,1.7-0.6,2.39c-0.4,0.69-0.94,1.22-1.62,1.59s-1.44,0.56-2.27,0.56
		C185.33,247.09,184.59,246.91,183.92,246.53z M187.63,245.45c0.46-0.25,0.83-0.61,1.11-1.1c0.28-0.49,0.42-1.09,0.42-1.79
		c0-0.7-0.14-1.3-0.42-1.79c-0.28-0.49-0.64-0.86-1.09-1.1c-0.45-0.24-0.93-0.36-1.46-0.36c-0.53,0-1.02,0.12-1.46,0.36
		s-0.8,0.61-1.06,1.1c-0.27,0.49-0.4,1.09-0.4,1.79c0,0.71,0.13,1.32,0.39,1.81c0.26,0.49,0.61,0.86,1.05,1.1s0.92,0.36,1.44,0.36
		S187.17,245.69,187.63,245.45z"/>
	<path d="M193.87,246.75c-0.53-0.23-0.96-0.55-1.26-0.96c-0.31-0.41-0.48-0.88-0.51-1.42h1.5c0.04,0.44,0.25,0.79,0.62,1.07
		s0.85,0.42,1.45,0.42c0.55,0,0.99-0.12,1.31-0.37s0.48-0.55,0.48-0.93c0-0.38-0.17-0.67-0.51-0.86c-0.34-0.19-0.87-0.37-1.58-0.55
		c-0.65-0.17-1.18-0.34-1.59-0.52c-0.41-0.18-0.76-0.44-1.06-0.78c-0.29-0.35-0.44-0.8-0.44-1.37c0-0.45,0.13-0.86,0.4-1.23
		c0.27-0.37,0.65-0.67,1.14-0.89s1.05-0.33,1.68-0.33c0.97,0,1.75,0.25,2.35,0.74c0.6,0.49,0.92,1.16,0.96,2.02h-1.46
		c-0.03-0.46-0.22-0.83-0.55-1.1s-0.79-0.42-1.35-0.42c-0.52,0-0.94,0.11-1.25,0.34c-0.31,0.22-0.46,0.52-0.46,0.88
		c0,0.29,0.09,0.53,0.28,0.71s0.42,0.34,0.7,0.45c0.28,0.11,0.67,0.24,1.18,0.38c0.63,0.17,1.14,0.34,1.54,0.5s0.73,0.41,1.02,0.74
		c0.28,0.33,0.43,0.76,0.44,1.3c0,0.48-0.13,0.91-0.4,1.3s-0.64,0.69-1.13,0.9c-0.49,0.22-1.04,0.33-1.67,0.33
		C195,247.09,194.4,246.98,193.87,246.75z"/>
	<path d="M203.66,238.54c0.57-0.34,1.24-0.5,1.99-0.5c0.78,0,1.49,0.19,2.12,0.56c0.63,0.37,1.13,0.9,1.5,1.58
		c0.36,0.68,0.54,1.46,0.54,2.36c0,0.89-0.18,1.67-0.54,2.37s-0.86,1.23-1.5,1.62c-0.63,0.38-1.34,0.58-2.12,0.58
		c-0.75,0-1.41-0.17-1.98-0.5c-0.57-0.34-1.01-0.75-1.3-1.26v5.78h-1.46v-12.93h1.46v1.62C202.66,239.3,203.09,238.88,203.66,238.54
		z M207.93,240.81c-0.27-0.49-0.63-0.86-1.08-1.12c-0.45-0.26-0.95-0.38-1.5-0.38c-0.53,0-1.03,0.13-1.48,0.39
		c-0.45,0.26-0.82,0.64-1.09,1.14c-0.27,0.5-0.41,1.07-0.41,1.72c0,0.66,0.14,1.24,0.41,1.74c0.27,0.5,0.63,0.88,1.09,1.14
		c0.45,0.26,0.95,0.39,1.48,0.39c0.54,0,1.04-0.13,1.5-0.39c0.45-0.26,0.81-0.64,1.08-1.14s0.4-1.08,0.4-1.75
		C208.33,241.87,208.2,241.3,207.93,240.81z"/>
	<path d="M219.69,243.11h-7.01c0.05,0.86,0.35,1.54,0.89,2.02c0.54,0.49,1.19,0.73,1.96,0.73c0.63,0,1.15-0.15,1.58-0.44
		c0.42-0.29,0.72-0.68,0.89-1.18h1.57c-0.23,0.84-0.7,1.53-1.41,2.06c-0.7,0.53-1.58,0.79-2.62,0.79c-0.83,0-1.58-0.19-2.23-0.56
		s-1.17-0.9-1.54-1.59c-0.37-0.69-0.56-1.49-0.56-2.39c0-0.91,0.18-1.7,0.54-2.38c0.36-0.68,0.87-1.21,1.53-1.58
		c0.66-0.37,1.41-0.55,2.26-0.55c0.83,0,1.57,0.18,2.21,0.54c0.64,0.36,1.13,0.86,1.48,1.5s0.52,1.35,0.52,2.15
		C219.74,242.51,219.72,242.8,219.69,243.11z M217.87,240.49c-0.25-0.4-0.58-0.7-1-0.91c-0.42-0.21-0.89-0.31-1.4-0.31
		c-0.74,0-1.36,0.23-1.88,0.7c-0.52,0.47-0.81,1.12-0.89,1.95h5.54C218.23,241.37,218.11,240.89,217.87,240.49z"/>
	<path d="M221.66,240.17c0.36-0.68,0.87-1.2,1.51-1.58c0.65-0.37,1.38-0.56,2.22-0.56c1.08,0,1.96,0.26,2.66,0.78
		c0.7,0.52,1.16,1.25,1.38,2.18h-1.57c-0.15-0.53-0.44-0.95-0.87-1.26c-0.43-0.31-0.97-0.46-1.61-0.46c-0.83,0-1.5,0.29-2.02,0.86
		c-0.51,0.57-0.77,1.38-0.77,2.42c0,1.06,0.26,1.87,0.77,2.45c0.51,0.58,1.18,0.86,2.02,0.86c0.64,0,1.17-0.15,1.6-0.45
		s0.72-0.73,0.88-1.28h1.57c-0.23,0.9-0.7,1.61-1.41,2.15c-0.7,0.54-1.58,0.81-2.64,0.81c-0.83,0-1.57-0.19-2.22-0.56
		s-1.15-0.9-1.51-1.58c-0.36-0.68-0.54-1.48-0.54-2.4C221.11,241.64,221.29,240.85,221.66,240.17z"/>
	<path d="M237.51,238.45c0.53,0.28,0.95,0.71,1.26,1.27c0.3,0.57,0.46,1.25,0.46,2.06v5.17h-1.44v-4.96c0-0.88-0.22-1.54-0.66-2.01
		s-1.04-0.7-1.79-0.7c-0.77,0-1.38,0.24-1.83,0.72c-0.45,0.48-0.68,1.18-0.68,2.1v4.85h-1.46v-11.84h1.46v4.32
		c0.29-0.45,0.68-0.79,1.19-1.04c0.51-0.25,1.07-0.37,1.7-0.37C236.38,238.02,236.98,238.16,237.51,238.45z"/>
	<path d="M243.2,246.53c-0.67-0.37-1.19-0.9-1.57-1.59c-0.38-0.69-0.57-1.49-0.57-2.39c0-0.9,0.19-1.69,0.58-2.38
		c0.39-0.69,0.92-1.22,1.59-1.58c0.67-0.37,1.42-0.55,2.26-0.55s1.58,0.18,2.26,0.55c0.67,0.37,1.2,0.89,1.59,1.58
		s0.58,1.48,0.58,2.38c0,0.91-0.2,1.7-0.6,2.39c-0.4,0.69-0.94,1.22-1.62,1.59s-1.44,0.56-2.27,0.56
		C244.61,247.09,243.87,246.91,243.2,246.53z M246.91,245.45c0.46-0.25,0.83-0.61,1.11-1.1c0.28-0.49,0.42-1.09,0.42-1.79
		c0-0.7-0.14-1.3-0.42-1.79c-0.28-0.49-0.64-0.86-1.09-1.1c-0.45-0.24-0.93-0.36-1.46-0.36c-0.53,0-1.02,0.12-1.46,0.36
		s-0.8,0.61-1.06,1.1c-0.27,0.49-0.4,1.09-0.4,1.79c0,0.71,0.13,1.32,0.39,1.81c0.26,0.49,0.61,0.86,1.05,1.1s0.92,0.36,1.44,0.36
		S246.45,245.69,246.91,245.45z"/>
	<path d="M253.15,246.75c-0.53-0.23-0.96-0.55-1.26-0.96c-0.31-0.41-0.48-0.88-0.51-1.42h1.5c0.04,0.44,0.25,0.79,0.62,1.07
		s0.85,0.42,1.45,0.42c0.55,0,0.99-0.12,1.31-0.37s0.48-0.55,0.48-0.93c0-0.38-0.17-0.67-0.51-0.86c-0.34-0.19-0.87-0.37-1.58-0.55
		c-0.65-0.17-1.18-0.34-1.59-0.52c-0.41-0.18-0.76-0.44-1.06-0.78c-0.29-0.35-0.44-0.8-0.44-1.37c0-0.45,0.13-0.86,0.4-1.23
		c0.27-0.37,0.65-0.67,1.14-0.89s1.05-0.33,1.68-0.33c0.97,0,1.75,0.25,2.35,0.74c0.6,0.49,0.92,1.16,0.96,2.02h-1.46
		c-0.03-0.46-0.22-0.83-0.55-1.1s-0.79-0.42-1.35-0.42c-0.52,0-0.94,0.11-1.25,0.34c-0.31,0.22-0.46,0.52-0.46,0.88
		c0,0.29,0.09,0.53,0.28,0.71s0.42,0.34,0.7,0.45c0.28,0.11,0.67,0.24,1.18,0.38c0.63,0.17,1.14,0.34,1.54,0.5s0.73,0.41,1.02,0.74
		c0.28,0.33,0.43,0.76,0.44,1.3c0,0.48-0.13,0.91-0.4,1.3s-0.64,0.69-1.13,0.9c-0.49,0.22-1.04,0.33-1.67,0.33
		C254.28,247.09,253.68,246.98,253.15,246.75z"/>
	<path d="M261.79,246.53c-0.67-0.37-1.19-0.9-1.57-1.59c-0.38-0.69-0.57-1.49-0.57-2.39c0-0.9,0.19-1.69,0.58-2.38
		c0.39-0.69,0.92-1.22,1.59-1.58c0.67-0.37,1.42-0.55,2.26-0.55s1.58,0.18,2.26,0.55c0.67,0.37,1.2,0.89,1.59,1.58
		s0.58,1.48,0.58,2.38c0,0.91-0.2,1.7-0.6,2.39c-0.4,0.69-0.94,1.22-1.62,1.59s-1.44,0.56-2.27,0.56
		C263.2,247.09,262.46,246.91,261.79,246.53z M265.5,245.45c0.46-0.25,0.83-0.61,1.11-1.1c0.28-0.49,0.42-1.09,0.42-1.79
		c0-0.7-0.14-1.3-0.42-1.79c-0.28-0.49-0.64-0.86-1.09-1.1c-0.45-0.24-0.93-0.36-1.46-0.36c-0.53,0-1.02,0.12-1.46,0.36
		s-0.8,0.61-1.06,1.1c-0.27,0.49-0.4,1.09-0.4,1.79c0,0.71,0.13,1.32,0.39,1.81c0.26,0.49,0.61,0.86,1.05,1.1s0.92,0.36,1.44,0.36
		S265.04,245.69,265.5,245.45z"/>
	<path d="M271.74,246.75c-0.53-0.23-0.96-0.55-1.26-0.96c-0.31-0.41-0.48-0.88-0.51-1.42h1.5c0.04,0.44,0.25,0.79,0.62,1.07
		s0.85,0.42,1.45,0.42c0.55,0,0.99-0.12,1.31-0.37s0.48-0.55,0.48-0.93c0-0.38-0.17-0.67-0.51-0.86c-0.34-0.19-0.87-0.37-1.58-0.55
		c-0.65-0.17-1.18-0.34-1.59-0.52c-0.41-0.18-0.76-0.44-1.06-0.78c-0.29-0.35-0.44-0.8-0.44-1.37c0-0.45,0.13-0.86,0.4-1.23
		c0.27-0.37,0.65-0.67,1.14-0.89s1.05-0.33,1.68-0.33c0.97,0,1.75,0.25,2.35,0.74c0.6,0.49,0.92,1.16,0.96,2.02h-1.46
		c-0.03-0.46-0.22-0.83-0.55-1.1s-0.79-0.42-1.35-0.42c-0.52,0-0.94,0.11-1.25,0.34c-0.31,0.22-0.46,0.52-0.46,0.88
		c0,0.29,0.09,0.53,0.28,0.71s0.42,0.34,0.7,0.45c0.28,0.11,0.67,0.24,1.18,0.38c0.63,0.17,1.14,0.34,1.54,0.5s0.73,0.41,1.02,0.74
		c0.28,0.33,0.43,0.76,0.44,1.3c0,0.48-0.13,0.91-0.4,1.3s-0.64,0.69-1.13,0.9c-0.49,0.22-1.04,0.33-1.67,0.33
		C272.87,247.09,272.27,246.98,271.74,246.75z"/>
	<path d="M283.07,240.17c0.36-0.68,0.86-1.2,1.5-1.58c0.63-0.37,1.35-0.56,2.14-0.56c0.68,0,1.32,0.16,1.9,0.47
		c0.59,0.32,1.04,0.73,1.34,1.24v-4.64h1.47v11.84h-1.47v-1.65c-0.29,0.52-0.71,0.95-1.28,1.29s-1.23,0.5-1.98,0.5
		c-0.78,0-1.49-0.19-2.12-0.58c-0.63-0.38-1.13-0.92-1.5-1.62c-0.36-0.69-0.54-1.48-0.54-2.37
		C282.52,241.64,282.7,240.85,283.07,240.17z M289.54,240.82c-0.27-0.49-0.63-0.87-1.08-1.13s-0.95-0.39-1.5-0.39
		s-1.04,0.13-1.49,0.38c-0.45,0.26-0.81,0.63-1.07,1.12c-0.27,0.49-0.4,1.07-0.4,1.73c0,0.67,0.13,1.26,0.4,1.75
		s0.62,0.88,1.07,1.14c0.45,0.26,0.94,0.39,1.49,0.39s1.04-0.13,1.5-0.39c0.45-0.26,0.81-0.64,1.08-1.14s0.4-1.07,0.4-1.74
		C289.95,241.89,289.81,241.31,289.54,240.82z"/>
	<path d="M301.83,243.11h-7.01c0.05,0.86,0.35,1.54,0.89,2.02c0.54,0.49,1.19,0.73,1.96,0.73c0.63,0,1.15-0.15,1.58-0.44
		c0.42-0.29,0.72-0.68,0.89-1.18h1.57c-0.23,0.84-0.7,1.53-1.41,2.06c-0.7,0.53-1.58,0.79-2.62,0.79c-0.83,0-1.58-0.19-2.23-0.56
		s-1.17-0.9-1.54-1.59c-0.37-0.69-0.56-1.49-0.56-2.39c0-0.91,0.18-1.7,0.54-2.38c0.36-0.68,0.87-1.21,1.53-1.58
		c0.66-0.37,1.41-0.55,2.26-0.55c0.83,0,1.57,0.18,2.21,0.54c0.64,0.36,1.13,0.86,1.48,1.5s0.52,1.35,0.52,2.15
		C301.88,242.51,301.87,242.8,301.83,243.11z M300.01,240.49c-0.25-0.4-0.58-0.7-1-0.91c-0.42-0.21-0.89-0.31-1.4-0.31
		c-0.74,0-1.36,0.23-1.88,0.7c-0.52,0.47-0.81,1.12-0.89,1.95h5.54C300.38,241.37,300.25,240.89,300.01,240.49z"/>
	<path d="M320.44,238.45c0.53,0.28,0.96,0.71,1.26,1.27c0.31,0.57,0.46,1.25,0.46,2.06v5.17h-1.44v-4.96c0-0.88-0.22-1.54-0.65-2.01
		c-0.43-0.46-1.02-0.7-1.75-0.7c-0.76,0-1.36,0.24-1.81,0.73c-0.45,0.49-0.67,1.19-0.67,2.1v4.83h-1.44v-4.96
		c0-0.88-0.22-1.54-0.65-2.01s-1.02-0.7-1.75-0.7c-0.76,0-1.36,0.24-1.81,0.73c-0.45,0.49-0.67,1.19-0.67,2.1v4.83h-1.46v-8.77h1.46
		v1.26c0.29-0.46,0.67-0.81,1.16-1.06c0.49-0.25,1.02-0.37,1.61-0.37c0.74,0,1.39,0.17,1.95,0.5c0.57,0.33,0.99,0.82,1.26,1.46
		c0.25-0.62,0.65-1.1,1.22-1.44c0.57-0.34,1.19-0.51,1.89-0.51C319.3,238.02,319.91,238.16,320.44,238.45z"/>
	<path d="M324.55,240.17c0.36-0.68,0.86-1.2,1.5-1.58c0.63-0.37,1.34-0.56,2.12-0.56c0.77,0,1.43,0.17,2,0.5
		c0.57,0.33,0.99,0.75,1.26,1.25v-1.6h1.47v8.77h-1.47v-1.63c-0.29,0.51-0.72,0.94-1.29,1.27c-0.57,0.34-1.24,0.5-1.99,0.5
		c-0.78,0-1.48-0.19-2.11-0.58c-0.63-0.38-1.13-0.92-1.49-1.62c-0.36-0.69-0.54-1.48-0.54-2.37
		C324.01,241.64,324.19,240.85,324.55,240.17z M331.03,240.82c-0.27-0.49-0.63-0.87-1.08-1.13s-0.95-0.39-1.5-0.39
		s-1.04,0.13-1.49,0.38c-0.45,0.26-0.81,0.63-1.07,1.12c-0.27,0.49-0.4,1.07-0.4,1.73c0,0.67,0.13,1.26,0.4,1.75
		s0.62,0.88,1.07,1.14c0.45,0.26,0.94,0.39,1.49,0.39s1.04-0.13,1.5-0.39c0.45-0.26,0.81-0.64,1.08-1.14s0.4-1.07,0.4-1.74
		C331.43,241.89,331.3,241.31,331.03,240.82z"/>
	<path d="M336.83,235.11v11.84h-1.46v-11.84H336.83z"/>
	<path d="M339.35,236.47c-0.19-0.19-0.29-0.43-0.29-0.7s0.1-0.51,0.29-0.7c0.19-0.19,0.43-0.29,0.7-0.29c0.27,0,0.49,0.1,0.68,0.29
		c0.19,0.19,0.28,0.43,0.28,0.7s-0.09,0.51-0.28,0.7c-0.19,0.19-0.41,0.29-0.68,0.29C339.78,236.76,339.54,236.66,339.35,236.47z
		 M340.76,238.18v8.77h-1.46v-8.77H340.76z"/>
	<path d="M348.85,238.53c0.57,0.33,1,0.75,1.27,1.25v-1.6h1.47v8.96c0,0.8-0.17,1.51-0.51,2.14c-0.34,0.62-0.83,1.11-1.46,1.46
		c-0.63,0.35-1.37,0.53-2.22,0.53c-1.15,0-2.11-0.27-2.88-0.82c-0.77-0.54-1.22-1.29-1.36-2.22h1.44c0.16,0.53,0.49,0.96,0.99,1.29
		c0.5,0.33,1.1,0.49,1.81,0.49c0.8,0,1.45-0.25,1.96-0.75c0.51-0.5,0.76-1.21,0.76-2.11v-1.84c-0.29,0.51-0.71,0.94-1.28,1.28
		c-0.57,0.34-1.23,0.51-1.98,0.51c-0.78,0-1.49-0.19-2.12-0.58c-0.63-0.38-1.13-0.92-1.5-1.62c-0.36-0.69-0.54-1.48-0.54-2.37
		c0-0.9,0.18-1.68,0.54-2.36c0.36-0.68,0.86-1.2,1.5-1.58c0.63-0.37,1.34-0.56,2.12-0.56C347.61,238.04,348.28,238.2,348.85,238.53z
		 M349.72,240.82c-0.27-0.49-0.63-0.87-1.08-1.13s-0.95-0.39-1.5-0.39s-1.04,0.13-1.49,0.38c-0.45,0.26-0.81,0.63-1.07,1.12
		c-0.27,0.49-0.4,1.07-0.4,1.73c0,0.67,0.13,1.26,0.4,1.75s0.62,0.88,1.07,1.14c0.45,0.26,0.94,0.39,1.49,0.39s1.04-0.13,1.5-0.39
		c0.45-0.26,0.81-0.64,1.08-1.14s0.4-1.07,0.4-1.74C350.12,241.89,349.99,241.31,349.72,240.82z"/>
	<path d="M360.92,238.99c0.66,0.65,0.99,1.58,0.99,2.79v5.17h-1.44v-4.96c0-0.88-0.22-1.54-0.66-2.01s-1.04-0.7-1.79-0.7
		c-0.77,0-1.38,0.24-1.83,0.72c-0.45,0.48-0.68,1.18-0.68,2.1v4.85h-1.46v-8.77h1.46v1.25c0.29-0.45,0.68-0.79,1.18-1.04
		c0.5-0.25,1.04-0.37,1.64-0.37C359.4,238.02,360.26,238.34,360.92,238.99z"/>
	<path d="M364.35,236.47c-0.19-0.19-0.29-0.43-0.29-0.7s0.1-0.51,0.29-0.7c0.19-0.19,0.43-0.29,0.7-0.29c0.27,0,0.49,0.1,0.68,0.29
		c0.19,0.19,0.28,0.43,0.28,0.7s-0.09,0.51-0.28,0.7c-0.19,0.19-0.41,0.29-0.68,0.29C364.77,236.76,364.54,236.66,364.35,236.47z
		 M365.75,238.18v8.77h-1.46v-8.77H365.75z"/>
	<path d="M368.23,240.17c0.36-0.68,0.86-1.2,1.5-1.58c0.63-0.37,1.35-0.56,2.14-0.56c0.68,0,1.32,0.16,1.9,0.47
		c0.59,0.32,1.04,0.73,1.34,1.24v-4.64h1.47v11.84h-1.47v-1.65c-0.29,0.52-0.71,0.95-1.28,1.29s-1.23,0.5-1.98,0.5
		c-0.78,0-1.49-0.19-2.12-0.58c-0.63-0.38-1.13-0.92-1.5-1.62c-0.36-0.69-0.54-1.48-0.54-2.37
		C367.69,241.64,367.87,240.85,368.23,240.17z M374.71,240.82c-0.27-0.49-0.63-0.87-1.08-1.13s-0.95-0.39-1.5-0.39
		s-1.04,0.13-1.49,0.38c-0.45,0.26-0.81,0.63-1.07,1.12c-0.27,0.49-0.4,1.07-0.4,1.73c0,0.67,0.13,1.26,0.4,1.75
		s0.62,0.88,1.07,1.14c0.45,0.26,0.94,0.39,1.49,0.39s1.04-0.13,1.5-0.39c0.45-0.26,0.81-0.64,1.08-1.14s0.4-1.07,0.4-1.74
		C375.11,241.89,374.98,241.31,374.71,240.82z"/>
	<path d="M379.05,240.17c0.36-0.68,0.86-1.2,1.5-1.58c0.63-0.37,1.34-0.56,2.12-0.56c0.77,0,1.43,0.17,2,0.5
		c0.57,0.33,0.99,0.75,1.26,1.25v-1.6h1.47v8.77h-1.47v-1.63c-0.29,0.51-0.72,0.94-1.29,1.27c-0.57,0.34-1.24,0.5-1.99,0.5
		c-0.78,0-1.48-0.19-2.11-0.58c-0.63-0.38-1.13-0.92-1.49-1.62c-0.36-0.69-0.54-1.48-0.54-2.37
		C378.51,241.64,378.69,240.85,379.05,240.17z M385.53,240.82c-0.27-0.49-0.63-0.87-1.08-1.13s-0.95-0.39-1.5-0.39
		s-1.04,0.13-1.49,0.38c-0.45,0.26-0.81,0.63-1.07,1.12c-0.27,0.49-0.4,1.07-0.4,1.73c0,0.67,0.13,1.26,0.4,1.75
		s0.62,0.88,1.07,1.14c0.45,0.26,0.94,0.39,1.49,0.39s1.04-0.13,1.5-0.39c0.45-0.26,0.81-0.64,1.08-1.14s0.4-1.07,0.4-1.74
		C385.93,241.89,385.8,241.31,385.53,240.82z"/>
	<path d="M389.87,240.17c0.36-0.68,0.86-1.2,1.5-1.58c0.63-0.37,1.35-0.56,2.14-0.56c0.68,0,1.32,0.16,1.9,0.47
		c0.59,0.32,1.04,0.73,1.34,1.24v-4.64h1.47v11.84h-1.47v-1.65c-0.29,0.52-0.71,0.95-1.28,1.29s-1.23,0.5-1.98,0.5
		c-0.78,0-1.49-0.19-2.12-0.58c-0.63-0.38-1.13-0.92-1.5-1.62c-0.36-0.69-0.54-1.48-0.54-2.37
		C389.32,241.64,389.5,240.85,389.87,240.17z M396.35,240.82c-0.27-0.49-0.63-0.87-1.08-1.13s-0.95-0.39-1.5-0.39
		s-1.04,0.13-1.49,0.38c-0.45,0.26-0.81,0.63-1.07,1.12c-0.27,0.49-0.4,1.07-0.4,1.73c0,0.67,0.13,1.26,0.4,1.75
		s0.62,0.88,1.07,1.14c0.45,0.26,0.94,0.39,1.49,0.39s1.04-0.13,1.5-0.39c0.45-0.26,0.81-0.64,1.08-1.14s0.4-1.07,0.4-1.74
		C396.75,241.89,396.61,241.31,396.35,240.82z"/>
</g>
<g>
	<path class="st5" d="M258.48,50.02c-0.42-0.91-1.48-1.33-2.4-0.95c-3.83,1.56-13.82,5.18-24.44,5.18
		c-10.62,0-20.62-3.62-24.44-5.18c-0.93-0.38-1.99,0.04-2.4,0.95l-16.48,35.97c-0.9,1.96-0.03,4.27,1.94,5.14
		c6.09,2.7,20.06,7.59,41.38,7.59c21.32,0,35.29-4.89,41.38-7.59c1.97-0.87,2.83-3.19,1.94-5.14L258.48,50.02z"/>
	<g>
		<g>
			<path class="st7" d="M174.69,107.75c-0.55,0-1-0.45-1-1v-75c0-0.55,0.45-1,1-1s1,0.45,1,1v75
				C175.69,107.3,175.24,107.75,174.69,107.75z"/>
		</g>
		<g>
			<path class="st7" d="M180.8,107.75h-6.1c-0.55,0-1-0.45-1-1s0.45-1,1-1h6.1c0.55,0,1,0.45,1,1S181.35,107.75,180.8,107.75z"/>
		</g>
		<g>
			<path class="st7" d="M183.59,97h-8.9c-0.55,0-1-0.45-1-1s0.45-1,1-1h8.9c0.55,0,1,0.45,1,1S184.14,97,183.59,97z"/>
		</g>
		<g>
			<path class="st7" d="M180.8,86.25h-6.1c-0.55,0-1-0.45-1-1s0.45-1,1-1h6.1c0.55,0,1,0.45,1,1S181.35,86.25,180.8,86.25z"/>
		</g>
		<g>
			<path class="st7" d="M183.59,75.51h-8.9c-0.55,0-1-0.45-1-1s0.45-1,1-1h8.9c0.55,0,1,0.45,1,1S184.14,75.51,183.59,75.51z"/>
		</g>
		<g>
			<path class="st7" d="M180.8,64.76h-6.1c-0.55,0-1-0.45-1-1s0.45-1,1-1h6.1c0.55,0,1,0.45,1,1S181.35,64.76,180.8,64.76z"/>
		</g>
		<g>
			<path class="st7" d="M183.59,54.01h-8.9c-0.55,0-1-0.45-1-1s0.45-1,1-1h8.9c0.55,0,1,0.45,1,1S184.14,54.01,183.59,54.01z"/>
		</g>
		<g>
			<path class="st7" d="M180.8,43.26h-6.1c-0.55,0-1-0.45-1-1s0.45-1,1-1h6.1c0.55,0,1,0.45,1,1S181.35,43.26,180.8,43.26z"/>
		</g>
		<g>
			<path class="st7" d="M271.19,32.75h-96.5c-0.55,0-1-0.45-1-1s0.45-1,1-1h96.5c0.55,0,1,0.45,1,1S271.74,32.75,271.19,32.75z"/>
		</g>
		<g>
			<path class="st7" d="M249.69,38.85c-0.55,0-1-0.45-1-1v-6.1c0-0.55,0.45-1,1-1s1,0.45,1,1v6.1
				C250.69,38.41,250.24,38.85,249.69,38.85z"/>
		</g>
		<g>
			<path class="st7" d="M271.19,38.85c-0.55,0-1-0.45-1-1v-6.1c0-0.55,0.45-1,1-1s1,0.45,1,1v6.1
				C272.19,38.41,271.74,38.85,271.19,38.85z"/>
		</g>
		<g>
			<path class="st7" d="M238.94,41.65c-0.55,0-1-0.45-1-1v-8.9c0-0.55,0.45-1,1-1s1,0.45,1,1v8.9
				C239.94,41.2,239.5,41.65,238.94,41.65z"/>
		</g>
		<g>
			<path class="st7" d="M260.44,41.65c-0.55,0-1-0.45-1-1v-8.9c0-0.55,0.45-1,1-1s1,0.45,1,1v8.9
				C261.44,41.2,260.99,41.65,260.44,41.65z"/>
		</g>
		<g>
			<path class="st7" d="M228.2,38.85c-0.55,0-1-0.45-1-1v-6.1c0-0.55,0.45-1,1-1s1,0.45,1,1v6.1
				C229.2,38.41,228.75,38.85,228.2,38.85z"/>
		</g>
		<g>
			<path class="st7" d="M217.45,41.65c-0.55,0-1-0.45-1-1v-8.9c0-0.55,0.45-1,1-1s1,0.45,1,1v8.9
				C218.45,41.2,218,41.65,217.45,41.65z"/>
		</g>
		<g>
			<path class="st7" d="M206.7,38.85c-0.55,0-1-0.45-1-1v-6.1c0-0.55,0.45-1,1-1s1,0.45,1,1v6.1
				C207.7,38.41,207.25,38.85,206.7,38.85z"/>
		</g>
		<g>
			<path class="st7" d="M195.95,41.65c-0.55,0-1-0.45-1-1v-8.9c0-0.55,0.45-1,1-1s1,0.45,1,1v8.9
				C196.95,41.2,196.5,41.65,195.95,41.65z"/>
		</g>
		<g>
			<path class="st7" d="M185.2,38.85c-0.55,0-1-0.45-1-1v-6.1c0-0.55,0.45-1,1-1s1,0.45,1,1v6.1
				C186.2,38.41,185.76,38.85,185.2,38.85z"/>
		</g>
		<g>
			<g>
				<path class="st7" d="M275.31,107.75h-18.77c-0.55,0-1-0.45-1-1s0.45-1,1-1h18.77c0.55,0,1,0.45,1,1S275.86,107.75,275.31,107.75
					z"/>
			</g>
			<g>
				<path class="st7" d="M275.31,102.27h-11.5c-0.55,0-1-0.45-1-1s0.45-1,1-1h11.5c0.55,0,1,0.45,1,1S275.86,102.27,275.31,102.27z"
					/>
			</g>
		</g>
	</g>
	<g>
		<circle class="st11" cx="228.12" cy="79.99" r="10.59"/>
		<circle class="st11" cx="240.94" cy="67.17" r="4.79"/>
	</g>
</g>
</svg>
