<?xml version="1.0" encoding="utf-8"?>
<!-- Generator: Adobe Illustrator 24.1.1, SVG Export Plug-In . SVG Version: 6.00 Build 0)  -->
<svg version="1.1" id="Capa_1" xmlns="http://www.w3.org/2000/svg" xmlns:xlink="http://www.w3.org/1999/xlink" x="0px" y="0px"
	 viewBox="0 0 265.3 362" style="enable-background:new 0 0 265.3 362;" xml:space="preserve">
<style type="text/css">
	.st0{fill:#FFFFFF;}
	.st1{fill:none;}
	.st2{enable-background:new    ;}
	.st3{fill:#007CC3;}
	.st4{fill:#808080;}
	.st5{fill:#F8C5B0;}
	.st6{fill:#D36F62;}
	.st7{opacity:0.5;fill:#D36F62;enable-background:new    ;}
</style>
<g>
	<rect x="0" y="0" class="st0" width="265.3" height="362"/>
	<g>
		<g>
			<g>
				<rect x="30.1" y="149" class="st1" width="205.1" height="161.7"/>
				<g class="st2">
					<path class="st3" d="M35,166.5V149h11.2v3h-8v4.2h6.4v3h-6.4v4.2h8v3H35z"/>
					<path class="st3" d="M55.2,161.6l3.1,0.3v0.2c0,2.6-1.9,4.6-4.6,4.6H53c-2.7,0-4.6-1.9-4.6-4.6v-4c0-2.6,1.9-4.6,4.6-4.6h0.8
						c2.7,0,4.6,2,4.6,4.6v0.2l-3.1,0.3V158c0-0.8-0.7-1.5-1.5-1.5H53c-0.8,0-1.5,0.7-1.5,1.5v4.2c0,0.8,0.7,1.5,1.5,1.5h0.8
						c0.8,0,1.5-0.7,1.5-1.5V161.6z"/>
					<path class="st3" d="M71,162.1c0,2.6-1.9,4.6-4.6,4.6h-0.8c-2.7,0-4.6-1.9-4.6-4.6v-4c0-2.6,1.9-4.6,4.6-4.6h0.8
						c2.7,0,4.6,2,4.6,4.6V162.1z M67.9,158c0-0.8-0.7-1.5-1.5-1.5h-0.8c-0.8,0-1.5,0.7-1.5,1.5v4.2c0,0.8,0.7,1.5,1.5,1.5h0.8
						c0.8,0,1.5-0.7,1.5-1.5V158z"/>
					<path class="st3" d="M75,165.1c-0.7-0.4-1-1.2-1-2.1c0-0.9,0.3-1.6,0.9-2.1c-0.8-0.8-1.1-1.8-1.1-3v-0.1c0-2.5,1.8-4.3,4.5-4.3
						h0.4c1.3,0,2.3,0.5,3.1,1.4l0.8-1.1h1.4v4.2c0,2.5-1.8,4.3-4.4,4.3h-2.3c-0.4,0-0.7,0.3-0.7,0.7s0.3,0.7,0.7,0.7h2.4
						c2.5,0,4.1,1.7,4.1,3.9s-1.6,3.9-4.1,3.9h-1.2c-2.5,0-4.1-1.7-4.1-3.9C74.2,166.6,74.5,165.8,75,165.1z M81,157.7
						c0-0.9-0.7-1.6-1.6-1.6h-1c-0.9,0-1.6,0.8-1.6,1.6v0.3c0,0.9,0.7,1.6,1.6,1.6h1c0.9,0,1.6-0.7,1.6-1.6V157.7z M80.9,167.5
						c0-0.6-0.5-1.1-1.3-1.1h-1.2c-0.9,0-1.3,0.5-1.3,1.1v0.2c0,0.6,0.4,1.1,1.3,1.1h1.2c0.9,0,1.3-0.5,1.3-1.1V167.5z"/>
					<path class="st3" d="M88.9,155.1c0.8-1,1.9-1.7,3.2-1.7h1.5v3.1h-2.5c-0.9,0-1.5,0.6-1.5,1.5v8.4h-3.1v-12.7H88L88.9,155.1z"/>
					<path class="st3" d="M102.9,165.1c-0.7,1-1.9,1.6-3.4,1.6h-0.1c-2.6,0-4.1-1.5-4.1-3.6v-0.5c0-2.1,1.5-3.5,4.1-3.5h2.7v-1.3
						c0-0.7-0.7-1.3-1.5-1.3H100c-0.8,0-1.5,0.6-1.5,1.3v0.5l-3.1-0.3v-0.1c0-2.5,1.9-4.4,4.6-4.4h0.6c2.7,0,4.6,1.9,4.6,4.4v8.6
						h-1.4L102.9,165.1z M98.4,162.7c0,0.7,0.5,1.2,1.3,1.2h1.1c0.7,0,1.3-0.5,1.3-1.2v-1.3h-2.4C98.9,161.4,98.4,161.9,98.4,162.7
						L98.4,162.7z"/>
					<path class="st3" d="M115.1,149v2.9h-1.7c-0.8,0-1.2,0.4-1.2,1.3v0.6h2.7v2.9h-2.7v9.8h-3.1v-9.8h-2.2v-2.9h2.2v-0.6
						c0-2.7,1.4-4.1,4.1-4.1H115.1z"/>
					<path class="st3" d="M118.4,152h-2.6l2-3.3h4L118.4,152z M116.6,166.5v-12.7h3.1v12.7H116.6z"/>
					<path class="st3" d="M130.2,165.1c-0.7,1-1.9,1.6-3.4,1.6h-0.1c-2.6,0-4.1-1.5-4.1-3.6v-0.5c0-2.1,1.5-3.5,4.1-3.5h2.7v-1.3
						c0-0.7-0.7-1.3-1.5-1.3h-0.6c-0.8,0-1.5,0.6-1.5,1.3v0.5l-3.1-0.3v-0.1c0-2.5,1.9-4.4,4.6-4.4h0.6c2.7,0,4.6,1.9,4.6,4.4v8.6
						h-1.4L130.2,165.1z M125.7,162.7c0,0.7,0.5,1.2,1.3,1.2h1.1c0.7,0,1.3-0.5,1.3-1.2v-1.3H127
						C126.2,161.4,125.7,161.9,125.7,162.7L125.7,162.7z"/>
					<path class="st3" d="M143.7,155.1c0.8-1,1.8-1.7,3.1-1.7h0c1.6,0,2.7,0.5,3.4,1.6c0.7-1,1.8-1.6,3.1-1.6h0.1
						c2.7,0,4.2,1.6,4.2,4.6v8.4h-3.1v-8.5c0-0.9-0.6-1.5-1.5-1.5h-0.6c-0.8,0-1.4,0.6-1.5,1.4v8.6H148v-8.5c0-0.9-0.6-1.5-1.5-1.5
						h-0.6c-0.9,0-1.5,0.6-1.5,1.5v8.5h-3.1v-12.7h1.4L143.7,155.1z"/>
					<path class="st3" d="M168.1,165.1c-0.7,1-1.9,1.6-3.4,1.6h-0.1c-2.6,0-4.1-1.5-4.1-3.6v-0.5c0-2.1,1.5-3.5,4.1-3.5h2.7v-1.3
						c0-0.7-0.7-1.3-1.5-1.3h-0.6c-0.8,0-1.5,0.6-1.5,1.3v0.5l-3.1-0.3v-0.1c0-2.5,1.9-4.4,4.6-4.4h0.6c2.7,0,4.6,1.9,4.6,4.4v8.6
						H169L168.1,165.1z M163.6,162.7c0,0.7,0.5,1.2,1.3,1.2h1.2c0.7,0,1.3-0.5,1.3-1.2v-1.3h-2.4
						C164.1,161.4,163.6,161.9,163.6,162.7L163.6,162.7z"/>
					<path class="st3" d="M175.8,155.1c0.8-1,1.8-1.7,3.1-1.7h0c1.6,0,2.7,0.5,3.4,1.6c0.7-1,1.8-1.6,3.1-1.6h0
						c2.7,0,4.2,1.6,4.2,4.6v8.4h-3.1v-8.5c0-0.9-0.6-1.5-1.5-1.5h-0.6c-0.8,0-1.4,0.6-1.5,1.4v8.6h-3.1v-8.5c0-0.9-0.6-1.5-1.5-1.5
						h-0.6c-0.9,0-1.5,0.6-1.5,1.5v8.5h-3.1v-12.7h1.4L175.8,155.1z"/>
					<path class="st3" d="M200.3,165.1c-0.7,1-1.9,1.6-3.4,1.6h-0.1c-2.6,0-4.1-1.5-4.1-3.6v-0.5c0-2.1,1.5-3.5,4.1-3.5h2.7v-1.3
						c0-0.7-0.7-1.3-1.5-1.3h-0.6c-0.8,0-1.5,0.6-1.5,1.3v0.5l-3.1-0.3v-0.1c0-2.5,1.9-4.4,4.6-4.4h0.6c2.7,0,4.6,1.9,4.6,4.4v8.6
						h-1.4L200.3,165.1z M195.8,162.7c0,0.7,0.5,1.2,1.3,1.2h1.2c0.7,0,1.3-0.5,1.3-1.2v-1.3h-2.4
						C196.3,161.4,195.8,161.9,195.8,162.7L195.8,162.7z"/>
					<path class="st3" d="M208,155.1c0.8-1,1.9-1.7,3.2-1.7h1.5v3.1h-2.5c-0.9,0-1.5,0.6-1.5,1.5v8.4h-3.1v-12.7h1.4L208,155.1z"/>
					<path class="st3" d="M214.7,149h3.1v2.6h-3.1V149z M214.7,166.5v-12.7h3.1v12.7H214.7z"/>
					<path class="st3" d="M228.4,165.1c-0.7,1-1.9,1.6-3.4,1.6h-0.1c-2.6,0-4.1-1.5-4.1-3.6v-0.5c0-2.1,1.5-3.5,4.1-3.5h2.7v-1.3
						c0-0.7-0.7-1.3-1.5-1.3h-0.6c-0.8,0-1.5,0.6-1.5,1.3v0.5l-3.1-0.3v-0.1c0-2.5,1.9-4.4,4.6-4.4h0.6c2.7,0,4.6,1.9,4.6,4.4v8.6
						h-1.4L228.4,165.1z M223.9,162.7c0,0.7,0.5,1.2,1.3,1.2h1.2c0.7,0,1.3-0.5,1.3-1.2v-1.3h-2.4
						C224.4,161.4,223.9,161.9,223.9,162.7L223.9,162.7z"/>
				</g>
				<g class="st2">
					<path class="st4" d="M51.7,203.3l-4.2,11.2h-1.7l-4.2-11.2h1.6l3.5,9.6l3.5-9.6H51.7z"/>
					<path class="st4" d="M53.3,204c-0.2-0.2-0.3-0.4-0.3-0.7s0.1-0.5,0.3-0.7c0.2-0.2,0.4-0.3,0.7-0.3c0.3,0,0.5,0.1,0.7,0.3
						c0.2,0.2,0.3,0.4,0.3,0.7s-0.1,0.5-0.3,0.7c-0.2,0.2-0.4,0.3-0.7,0.3C53.7,204.3,53.5,204.2,53.3,204z M54.7,205.7v8.8h-1.5
						v-8.8H54.7z"/>
					<path class="st4" d="M58.5,214.3c-0.5-0.2-1-0.5-1.3-1c-0.3-0.4-0.5-0.9-0.5-1.4h1.5c0,0.4,0.2,0.8,0.6,1.1s0.9,0.4,1.4,0.4
						c0.6,0,1-0.1,1.3-0.4c0.3-0.2,0.5-0.6,0.5-0.9c0-0.4-0.2-0.7-0.5-0.9c-0.3-0.2-0.9-0.4-1.6-0.6c-0.7-0.2-1.2-0.3-1.6-0.5
						c-0.4-0.2-0.8-0.4-1.1-0.8c-0.3-0.3-0.4-0.8-0.4-1.4c0-0.4,0.1-0.9,0.4-1.2c0.3-0.4,0.6-0.7,1.1-0.9s1.1-0.3,1.7-0.3
						c1,0,1.8,0.2,2.4,0.7c0.6,0.5,0.9,1.2,1,2H62c0-0.5-0.2-0.8-0.6-1.1c-0.3-0.3-0.8-0.4-1.4-0.4c-0.5,0-0.9,0.1-1.2,0.3
						c-0.3,0.2-0.5,0.5-0.5,0.9c0,0.3,0.1,0.5,0.3,0.7c0.2,0.2,0.4,0.3,0.7,0.4c0.3,0.1,0.7,0.2,1.2,0.4c0.6,0.2,1.1,0.3,1.5,0.5
						c0.4,0.2,0.7,0.4,1,0.7c0.3,0.3,0.4,0.8,0.4,1.3c0,0.5-0.1,0.9-0.4,1.3c-0.3,0.4-0.6,0.7-1.1,0.9c-0.5,0.2-1,0.3-1.7,0.3
						C59.6,214.6,59,214.5,58.5,214.3z"/>
					<path class="st4" d="M73.3,205.7v8.8h-1.5v-1.3c-0.3,0.4-0.7,0.8-1.2,1c-0.5,0.3-1,0.4-1.6,0.4c-0.7,0-1.3-0.1-1.8-0.4
						s-1-0.7-1.3-1.3c-0.3-0.6-0.5-1.3-0.5-2.1v-5.1h1.4v4.9c0,0.9,0.2,1.5,0.7,2c0.4,0.5,1,0.7,1.8,0.7c0.8,0,1.4-0.2,1.8-0.7
						c0.4-0.5,0.7-1.2,0.7-2.1v-4.8H73.3z"/>
					<path class="st4" d="M75.8,207.7c0.4-0.7,0.9-1.2,1.5-1.6c0.6-0.4,1.3-0.6,2.1-0.6c0.8,0,1.4,0.2,2,0.5c0.6,0.3,1,0.7,1.3,1.2
						v-1.6h1.5v8.8h-1.5v-1.6c-0.3,0.5-0.7,0.9-1.3,1.3c-0.6,0.3-1.2,0.5-2,0.5c-0.8,0-1.5-0.2-2.1-0.6c-0.6-0.4-1.1-0.9-1.5-1.6
						s-0.5-1.5-0.5-2.4C75.2,209.2,75.4,208.4,75.8,207.7z M82.3,208.3c-0.3-0.5-0.6-0.9-1.1-1.1c-0.5-0.3-1-0.4-1.5-0.4
						c-0.5,0-1,0.1-1.5,0.4c-0.4,0.3-0.8,0.6-1.1,1.1c-0.3,0.5-0.4,1.1-0.4,1.7c0,0.7,0.1,1.3,0.4,1.8c0.3,0.5,0.6,0.9,1.1,1.1
						c0.4,0.3,0.9,0.4,1.5,0.4c0.5,0,1-0.1,1.5-0.4c0.5-0.3,0.8-0.6,1.1-1.1s0.4-1.1,0.4-1.7C82.7,209.4,82.5,208.8,82.3,208.3z"/>
					<path class="st4" d="M88.1,202.6v11.8h-1.5v-11.8H88.1z"/>
					<path class="st4" d="M90.6,204c-0.2-0.2-0.3-0.4-0.3-0.7s0.1-0.5,0.3-0.7c0.2-0.2,0.4-0.3,0.7-0.3c0.3,0,0.5,0.1,0.7,0.3
						c0.2,0.2,0.3,0.4,0.3,0.7s-0.1,0.5-0.3,0.7c-0.2,0.2-0.4,0.3-0.7,0.3C91,204.3,90.8,204.2,90.6,204z M92,205.7v8.8h-1.5v-8.8
						H92z"/>
					<path class="st4" d="M95.6,213.3h4.3v1.2h-6v-1.2l4.3-6.4h-4.2v-1.2h5.9v1.2L95.6,213.3z"/>
					<path class="st4" d="M101.8,207.7c0.4-0.7,0.9-1.2,1.5-1.6c0.6-0.4,1.3-0.6,2.1-0.6c0.8,0,1.4,0.2,2,0.5c0.6,0.3,1,0.7,1.3,1.2
						v-1.6h1.5v8.8h-1.5v-1.6c-0.3,0.5-0.7,0.9-1.3,1.3c-0.6,0.3-1.2,0.5-2,0.5c-0.8,0-1.5-0.2-2.1-0.6c-0.6-0.4-1.1-0.9-1.5-1.6
						s-0.5-1.5-0.5-2.4C101.2,209.2,101.4,208.4,101.8,207.7z M108.2,208.3c-0.3-0.5-0.6-0.9-1.1-1.1c-0.5-0.3-1-0.4-1.5-0.4
						c-0.5,0-1,0.1-1.5,0.4c-0.4,0.3-0.8,0.6-1.1,1.1c-0.3,0.5-0.4,1.1-0.4,1.7c0,0.7,0.1,1.3,0.4,1.8c0.3,0.5,0.6,0.9,1.1,1.1
						c0.4,0.3,0.9,0.4,1.5,0.4c0.5,0,1-0.1,1.5-0.4c0.5-0.3,0.8-0.6,1.1-1.1s0.4-1.1,0.4-1.7C108.6,209.4,108.5,208.8,108.2,208.3z"
						/>
					<path class="st4" d="M112.6,207.7c0.4-0.7,0.9-1.2,1.5-1.6c0.6-0.4,1.4-0.6,2.2-0.6c1.1,0,2,0.3,2.7,0.8
						c0.7,0.5,1.2,1.2,1.4,2.2h-1.6c-0.1-0.5-0.4-1-0.9-1.3c-0.4-0.3-1-0.5-1.6-0.5c-0.8,0-1.5,0.3-2,0.9c-0.5,0.6-0.8,1.4-0.8,2.4
						c0,1.1,0.3,1.9,0.8,2.4c0.5,0.6,1.2,0.9,2,0.9c0.6,0,1.2-0.1,1.6-0.4c0.4-0.3,0.7-0.7,0.9-1.3h1.6c-0.2,0.9-0.7,1.6-1.4,2.2
						c-0.7,0.5-1.6,0.8-2.6,0.8c-0.8,0-1.6-0.2-2.2-0.6c-0.6-0.4-1.1-0.9-1.5-1.6s-0.5-1.5-0.5-2.4
						C112,209.2,112.2,208.4,112.6,207.7z"/>
					<path class="st4" d="M122.3,204c-0.2-0.2-0.3-0.4-0.3-0.7s0.1-0.5,0.3-0.7c0.2-0.2,0.4-0.3,0.7-0.3c0.3,0,0.5,0.1,0.7,0.3
						c0.2,0.2,0.3,0.4,0.3,0.7s-0.1,0.5-0.3,0.7c-0.2,0.2-0.4,0.3-0.7,0.3C122.8,204.3,122.5,204.2,122.3,204z M123.7,205.7v8.8
						h-1.5v-8.8H123.7z"/>
					<path class="st4" d="M127.8,214c-0.7-0.4-1.2-0.9-1.6-1.6c-0.4-0.7-0.6-1.5-0.6-2.4c0-0.9,0.2-1.7,0.6-2.4
						c0.4-0.7,0.9-1.2,1.6-1.6c0.7-0.4,1.4-0.6,2.3-0.6s1.6,0.2,2.3,0.6c0.7,0.4,1.2,0.9,1.6,1.6c0.4,0.7,0.6,1.5,0.6,2.4
						c0,0.9-0.2,1.7-0.6,2.4c-0.4,0.7-0.9,1.2-1.6,1.6c-0.7,0.4-1.4,0.6-2.3,0.6C129.2,214.6,128.5,214.4,127.8,214z M131.5,213
						c0.5-0.2,0.8-0.6,1.1-1.1c0.3-0.5,0.4-1.1,0.4-1.8c0-0.7-0.1-1.3-0.4-1.8c-0.3-0.5-0.6-0.9-1.1-1.1c-0.4-0.2-0.9-0.4-1.5-0.4
						c-0.5,0-1,0.1-1.5,0.4c-0.4,0.2-0.8,0.6-1.1,1.1c-0.3,0.5-0.4,1.1-0.4,1.8c0,0.7,0.1,1.3,0.4,1.8s0.6,0.9,1,1.1
						c0.4,0.2,0.9,0.4,1.4,0.4C130.6,213.3,131.1,213.2,131.5,213z M131.7,203.1l-3.4,1.8v-1.1l3.4-2V203.1z"/>
					<path class="st4" d="M143.3,206.5c0.7,0.6,1,1.6,1,2.8v5.2h-1.4v-5c0-0.9-0.2-1.5-0.7-2s-1-0.7-1.8-0.7c-0.8,0-1.4,0.2-1.8,0.7
						c-0.5,0.5-0.7,1.2-0.7,2.1v4.8h-1.5v-8.8h1.5v1.2c0.3-0.4,0.7-0.8,1.2-1c0.5-0.2,1-0.4,1.6-0.4
						C141.8,205.5,142.7,205.9,143.3,206.5z"/>
					<path class="st4" d="M151,207.7c0.4-0.7,0.9-1.2,1.5-1.6c0.6-0.4,1.3-0.6,2.1-0.6c0.7,0,1.3,0.2,1.9,0.5c0.6,0.3,1,0.7,1.3,1.2
						v-4.6h1.5v11.8h-1.5v-1.6c-0.3,0.5-0.7,1-1.3,1.3s-1.2,0.5-2,0.5c-0.8,0-1.5-0.2-2.1-0.6c-0.6-0.4-1.1-0.9-1.5-1.6
						c-0.4-0.7-0.5-1.5-0.5-2.4C150.4,209.2,150.6,208.4,151,207.7z M157.5,208.3c-0.3-0.5-0.6-0.9-1.1-1.1c-0.5-0.3-1-0.4-1.5-0.4
						c-0.5,0-1,0.1-1.5,0.4s-0.8,0.6-1.1,1.1c-0.3,0.5-0.4,1.1-0.4,1.7c0,0.7,0.1,1.3,0.4,1.8s0.6,0.9,1.1,1.1
						c0.4,0.3,0.9,0.4,1.5,0.4c0.5,0,1-0.1,1.5-0.4c0.5-0.3,0.8-0.6,1.1-1.1s0.4-1.1,0.4-1.7C157.9,209.4,157.7,208.8,157.5,208.3z"
						/>
					<path class="st4" d="M169.7,210.6h-7c0.1,0.9,0.3,1.5,0.9,2c0.5,0.5,1.2,0.7,2,0.7c0.6,0,1.2-0.1,1.6-0.4
						c0.4-0.3,0.7-0.7,0.9-1.2h1.6c-0.2,0.8-0.7,1.5-1.4,2.1c-0.7,0.5-1.6,0.8-2.6,0.8c-0.8,0-1.6-0.2-2.2-0.6s-1.2-0.9-1.5-1.6
						c-0.4-0.7-0.6-1.5-0.6-2.4c0-0.9,0.2-1.7,0.5-2.4c0.4-0.7,0.9-1.2,1.5-1.6c0.7-0.4,1.4-0.6,2.3-0.6c0.8,0,1.6,0.2,2.2,0.5
						c0.6,0.4,1.1,0.9,1.5,1.5s0.5,1.4,0.5,2.2C169.8,210,169.8,210.3,169.7,210.6z M167.9,208c-0.2-0.4-0.6-0.7-1-0.9
						c-0.4-0.2-0.9-0.3-1.4-0.3c-0.7,0-1.4,0.2-1.9,0.7c-0.5,0.5-0.8,1.1-0.9,2h5.5C168.3,208.9,168.2,208.4,167.9,208z"/>
					<path class="st4" d="M173.2,202.6v11.8h-1.5v-11.8H173.2z"/>
					<path class="st4" d="M187.7,205.7v8.8h-1.5v-1.3c-0.3,0.4-0.7,0.8-1.2,1c-0.5,0.3-1,0.4-1.6,0.4c-0.7,0-1.3-0.1-1.8-0.4
						s-1-0.7-1.3-1.3c-0.3-0.6-0.5-1.3-0.5-2.1v-5.1h1.4v4.9c0,0.9,0.2,1.5,0.7,2s1,0.7,1.8,0.7c0.8,0,1.4-0.2,1.8-0.7
						c0.4-0.5,0.7-1.2,0.7-2.1v-4.8H187.7z M185.4,203.2L182,205V204l3.4-2V203.2z"/>
					<path class="st4" d="M191.9,206.9v5.2c0,0.4,0.1,0.7,0.3,0.9s0.5,0.3,0.9,0.3h1.1v1.2h-1.3c-0.8,0-1.4-0.2-1.8-0.6
						c-0.4-0.4-0.6-1-0.6-1.8v-5.2h-1.1v-1.2h1.1v-2.2h1.5v2.2h2.3v1.2H191.9z"/>
					<path class="st4" d="M203.9,210.6h-7c0.1,0.9,0.3,1.5,0.9,2c0.5,0.5,1.2,0.7,2,0.7c0.6,0,1.2-0.1,1.6-0.4
						c0.4-0.3,0.7-0.7,0.9-1.2h1.6c-0.2,0.8-0.7,1.5-1.4,2.1c-0.7,0.5-1.6,0.8-2.6,0.8c-0.8,0-1.6-0.2-2.2-0.6
						c-0.7-0.4-1.2-0.9-1.5-1.6c-0.4-0.7-0.6-1.5-0.6-2.4c0-0.9,0.2-1.7,0.5-2.4c0.4-0.7,0.9-1.2,1.5-1.6c0.7-0.4,1.4-0.6,2.3-0.6
						c0.8,0,1.6,0.2,2.2,0.5c0.6,0.4,1.1,0.9,1.5,1.5s0.5,1.4,0.5,2.2C204,210,204,210.3,203.9,210.6z M202.1,208
						c-0.2-0.4-0.6-0.7-1-0.9c-0.4-0.2-0.9-0.3-1.4-0.3c-0.7,0-1.4,0.2-1.9,0.7c-0.5,0.5-0.8,1.1-0.9,2h5.5
						C202.5,208.9,202.4,208.4,202.1,208z"/>
					<path class="st4" d="M208.5,206c0.5-0.3,1.1-0.4,1.7-0.4v1.5h-0.4c-1.6,0-2.4,0.9-2.4,2.7v4.8h-1.5v-8.8h1.5v1.4
						C207.6,206.6,208,206.2,208.5,206z"/>
					<path class="st4" d="M213.5,214c-0.7-0.4-1.2-0.9-1.6-1.6c-0.4-0.7-0.6-1.5-0.6-2.4c0-0.9,0.2-1.7,0.6-2.4
						c0.4-0.7,0.9-1.2,1.6-1.6c0.7-0.4,1.4-0.6,2.3-0.6s1.6,0.2,2.3,0.6c0.7,0.4,1.2,0.9,1.6,1.6c0.4,0.7,0.6,1.5,0.6,2.4
						c0,0.9-0.2,1.7-0.6,2.4c-0.4,0.7-0.9,1.2-1.6,1.6s-1.4,0.6-2.3,0.6C214.9,214.6,214.1,214.4,213.5,214z M217.2,213
						c0.5-0.2,0.8-0.6,1.1-1.1c0.3-0.5,0.4-1.1,0.4-1.8c0-0.7-0.1-1.3-0.4-1.8c-0.3-0.5-0.6-0.9-1.1-1.1c-0.4-0.2-0.9-0.4-1.5-0.4
						c-0.5,0-1,0.1-1.5,0.4c-0.4,0.2-0.8,0.6-1.1,1.1c-0.3,0.5-0.4,1.1-0.4,1.8c0,0.7,0.1,1.3,0.4,1.8c0.3,0.5,0.6,0.9,1,1.1
						s0.9,0.4,1.4,0.4C216.2,213.3,216.7,213.2,217.2,213z"/>
					<path class="st4" d="M223.6,212.5l-1.8,4.3h-1l1.2-4.3H223.6z"/>
				</g>
				<g class="st2">
					<path class="st4" d="M41,226.6v11.8h-1.5v-11.8H41z"/>
					<path class="st4" d="M45.1,238c-0.7-0.4-1.2-0.9-1.6-1.6c-0.4-0.7-0.6-1.5-0.6-2.4c0-0.9,0.2-1.7,0.6-2.4
						c0.4-0.7,0.9-1.2,1.6-1.6c0.7-0.4,1.4-0.6,2.3-0.6s1.6,0.2,2.3,0.6c0.7,0.4,1.2,0.9,1.6,1.6c0.4,0.7,0.6,1.5,0.6,2.4
						c0,0.9-0.2,1.7-0.6,2.4c-0.4,0.7-0.9,1.2-1.6,1.6c-0.7,0.4-1.4,0.6-2.3,0.6C46.5,238.6,45.7,238.4,45.1,238z M48.8,237
						c0.5-0.2,0.8-0.6,1.1-1.1c0.3-0.5,0.4-1.1,0.4-1.8c0-0.7-0.1-1.3-0.4-1.8c-0.3-0.5-0.6-0.9-1.1-1.1c-0.4-0.2-0.9-0.4-1.5-0.4
						c-0.5,0-1,0.1-1.5,0.4c-0.4,0.2-0.8,0.6-1.1,1.1c-0.3,0.5-0.4,1.1-0.4,1.8c0,0.7,0.1,1.3,0.4,1.8s0.6,0.9,1,1.1
						c0.4,0.2,0.9,0.4,1.4,0.4C47.8,237.3,48.3,237.2,48.8,237z"/>
					<path class="st4" d="M55,238.3c-0.5-0.2-1-0.5-1.3-1c-0.3-0.4-0.5-0.9-0.5-1.4h1.5c0,0.4,0.2,0.8,0.6,1.1s0.9,0.4,1.4,0.4
						c0.6,0,1-0.1,1.3-0.4c0.3-0.2,0.5-0.6,0.5-0.9c0-0.4-0.2-0.7-0.5-0.9c-0.3-0.2-0.9-0.4-1.6-0.6c-0.7-0.2-1.2-0.3-1.6-0.5
						c-0.4-0.2-0.8-0.4-1.1-0.8c-0.3-0.3-0.4-0.8-0.4-1.4c0-0.4,0.1-0.9,0.4-1.2c0.3-0.4,0.6-0.7,1.1-0.9s1.1-0.3,1.7-0.3
						c1,0,1.8,0.2,2.4,0.7c0.6,0.5,0.9,1.2,1,2h-1.5c0-0.5-0.2-0.8-0.6-1.1c-0.3-0.3-0.8-0.4-1.4-0.4c-0.5,0-0.9,0.1-1.2,0.3
						c-0.3,0.2-0.5,0.5-0.5,0.9c0,0.3,0.1,0.5,0.3,0.7c0.2,0.2,0.4,0.3,0.7,0.4c0.3,0.1,0.7,0.2,1.2,0.4c0.6,0.2,1.1,0.3,1.5,0.5
						c0.4,0.2,0.7,0.4,1,0.7c0.3,0.3,0.4,0.8,0.4,1.3c0,0.5-0.1,0.9-0.4,1.3c-0.3,0.4-0.6,0.7-1.1,0.9c-0.5,0.2-1,0.3-1.7,0.3
						C56.2,238.6,55.5,238.5,55,238.3z"/>
					<path class="st4" d="M67.9,238c-0.7-0.4-1.2-0.9-1.6-1.6c-0.4-0.7-0.6-1.5-0.6-2.4c0-0.9,0.2-1.7,0.6-2.4
						c0.4-0.7,0.9-1.2,1.6-1.6c0.7-0.4,1.4-0.6,2.3-0.6s1.6,0.2,2.3,0.6c0.7,0.4,1.2,0.9,1.6,1.6c0.4,0.7,0.6,1.5,0.6,2.4
						c0,0.9-0.2,1.7-0.6,2.4c-0.4,0.7-0.9,1.2-1.6,1.6c-0.7,0.4-1.4,0.6-2.3,0.6C69.3,238.6,68.6,238.4,67.9,238z M71.6,237
						c0.5-0.2,0.8-0.6,1.1-1.1c0.3-0.5,0.4-1.1,0.4-1.8c0-0.7-0.1-1.3-0.4-1.8c-0.3-0.5-0.6-0.9-1.1-1.1c-0.4-0.2-0.9-0.4-1.5-0.4
						c-0.5,0-1,0.1-1.5,0.4c-0.4,0.2-0.8,0.6-1.1,1.1c-0.3,0.5-0.4,1.1-0.4,1.8c0,0.7,0.1,1.3,0.4,1.8s0.6,0.9,1,1.1
						c0.4,0.2,0.9,0.4,1.4,0.4C70.7,237.3,71.2,237.2,71.6,237z"/>
					<path class="st4" d="M79.8,237.1l2.7-7.4h1.6l-3.4,8.8H79l-3.4-8.8h1.6L79.8,237.1z"/>
					<path class="st4" d="M85.6,231.7c0.4-0.7,0.9-1.2,1.5-1.6c0.6-0.4,1.3-0.6,2.1-0.6c0.8,0,1.4,0.2,2,0.5c0.6,0.3,1,0.7,1.3,1.2
						v-1.6h1.5v8.8h-1.5v-1.6c-0.3,0.5-0.7,0.9-1.3,1.3c-0.6,0.3-1.2,0.5-2,0.5c-0.8,0-1.5-0.2-2.1-0.6c-0.6-0.4-1.1-0.9-1.5-1.6
						S85,234.9,85,234C85,233.2,85.2,232.4,85.6,231.7z M92,232.3c-0.3-0.5-0.6-0.9-1.1-1.1c-0.5-0.3-1-0.4-1.5-0.4
						c-0.5,0-1,0.1-1.5,0.4c-0.4,0.3-0.8,0.6-1.1,1.1c-0.3,0.5-0.4,1.1-0.4,1.7c0,0.7,0.1,1.3,0.4,1.8c0.3,0.5,0.6,0.9,1.1,1.1
						c0.4,0.3,0.9,0.4,1.5,0.4c0.5,0,1-0.1,1.5-0.4c0.5-0.3,0.8-0.6,1.1-1.1s0.4-1.1,0.4-1.7C92.4,233.4,92.3,232.8,92,232.3z"/>
					<path class="st4" d="M98.9,230c0.5-0.3,1.1-0.4,1.7-0.4v1.5h-0.4c-1.6,0-2.4,0.9-2.4,2.7v4.8h-1.5v-8.8h1.5v1.4
						C98.1,230.6,98.5,230.2,98.9,230z"/>
					<path class="st4" d="M102.4,228c-0.2-0.2-0.3-0.4-0.3-0.7s0.1-0.5,0.3-0.7c0.2-0.2,0.4-0.3,0.7-0.3c0.3,0,0.5,0.1,0.7,0.3
						c0.2,0.2,0.3,0.4,0.3,0.7s-0.1,0.5-0.3,0.7c-0.2,0.2-0.4,0.3-0.7,0.3C102.8,228.3,102.6,228.2,102.4,228z M103.8,229.7v8.8
						h-1.5v-8.8H103.8z"/>
					<path class="st4" d="M107.9,238c-0.7-0.4-1.2-0.9-1.6-1.6c-0.4-0.7-0.6-1.5-0.6-2.4c0-0.9,0.2-1.7,0.6-2.4
						c0.4-0.7,0.9-1.2,1.6-1.6c0.7-0.4,1.4-0.6,2.3-0.6s1.6,0.2,2.3,0.6c0.7,0.4,1.2,0.9,1.6,1.6c0.4,0.7,0.6,1.5,0.6,2.4
						c0,0.9-0.2,1.7-0.6,2.4c-0.4,0.7-0.9,1.2-1.6,1.6c-0.7,0.4-1.4,0.6-2.3,0.6C109.3,238.6,108.5,238.4,107.9,238z M111.6,237
						c0.5-0.2,0.8-0.6,1.1-1.1c0.3-0.5,0.4-1.1,0.4-1.8c0-0.7-0.1-1.3-0.4-1.8c-0.3-0.5-0.6-0.9-1.1-1.1c-0.4-0.2-0.9-0.4-1.5-0.4
						c-0.5,0-1,0.1-1.5,0.4c-0.4,0.2-0.8,0.6-1.1,1.1c-0.3,0.5-0.4,1.1-0.4,1.8c0,0.7,0.1,1.3,0.4,1.8s0.6,0.9,1,1.1
						c0.4,0.2,0.9,0.4,1.4,0.4C110.6,237.3,111.1,237.2,111.6,237z"/>
					<path class="st4" d="M117.8,238.3c-0.5-0.2-1-0.5-1.3-1c-0.3-0.4-0.5-0.9-0.5-1.4h1.5c0,0.4,0.2,0.8,0.6,1.1s0.9,0.4,1.4,0.4
						c0.6,0,1-0.1,1.3-0.4c0.3-0.2,0.5-0.6,0.5-0.9c0-0.4-0.2-0.7-0.5-0.9c-0.3-0.2-0.9-0.4-1.6-0.6c-0.7-0.2-1.2-0.3-1.6-0.5
						c-0.4-0.2-0.8-0.4-1.1-0.8c-0.3-0.3-0.4-0.8-0.4-1.4c0-0.4,0.1-0.9,0.4-1.2c0.3-0.4,0.6-0.7,1.1-0.9s1.1-0.3,1.7-0.3
						c1,0,1.8,0.2,2.4,0.7c0.6,0.5,0.9,1.2,1,2h-1.5c0-0.5-0.2-0.8-0.6-1.1c-0.3-0.3-0.8-0.4-1.4-0.4c-0.5,0-0.9,0.1-1.2,0.3
						c-0.3,0.2-0.5,0.5-0.5,0.9c0,0.3,0.1,0.5,0.3,0.7c0.2,0.2,0.4,0.3,0.7,0.4c0.3,0.1,0.7,0.2,1.2,0.4c0.6,0.2,1.1,0.3,1.5,0.5
						c0.4,0.2,0.7,0.4,1,0.7c0.3,0.3,0.4,0.8,0.4,1.3c0,0.5-0.1,0.9-0.4,1.3c-0.3,0.4-0.6,0.7-1.1,0.9c-0.5,0.2-1,0.3-1.7,0.3
						C119,238.6,118.3,238.5,117.8,238.3z"/>
					<path class="st4" d="M126.4,236.5l-1.8,4.3h-1l1.2-4.3H126.4z"/>
					<path class="st4" d="M133.8,226.6v11.8h-1.5v-11.8H133.8z"/>
					<path class="st4" d="M136.2,231.7c0.4-0.7,0.9-1.2,1.5-1.6c0.6-0.4,1.3-0.6,2.1-0.6c0.8,0,1.4,0.2,2,0.5c0.6,0.3,1,0.7,1.3,1.2
						v-1.6h1.5v8.8h-1.5v-1.6c-0.3,0.5-0.7,0.9-1.3,1.3s-1.2,0.5-2,0.5c-0.8,0-1.5-0.2-2.1-0.6c-0.6-0.4-1.1-0.9-1.5-1.6
						s-0.5-1.5-0.5-2.4C135.7,233.2,135.9,232.4,136.2,231.7z M142.7,232.3c-0.3-0.5-0.6-0.9-1.1-1.1s-1-0.4-1.5-0.4
						c-0.5,0-1,0.1-1.5,0.4c-0.4,0.3-0.8,0.6-1.1,1.1c-0.3,0.5-0.4,1.1-0.4,1.7c0,0.7,0.1,1.3,0.4,1.8s0.6,0.9,1.1,1.1
						c0.4,0.3,0.9,0.4,1.5,0.4c0.5,0,1-0.1,1.5-0.4c0.5-0.3,0.8-0.6,1.1-1.1c0.3-0.5,0.4-1.1,0.4-1.7
						C143.1,233.4,143,232.8,142.7,232.3z"/>
					<path class="st4" d="M148.4,238.3c-0.5-0.2-1-0.5-1.3-1c-0.3-0.4-0.5-0.9-0.5-1.4h1.5c0,0.4,0.2,0.8,0.6,1.1
						c0.4,0.3,0.8,0.4,1.4,0.4c0.6,0,1-0.1,1.3-0.4s0.5-0.6,0.5-0.9c0-0.4-0.2-0.7-0.5-0.9c-0.3-0.2-0.9-0.4-1.6-0.6
						c-0.7-0.2-1.2-0.3-1.6-0.5c-0.4-0.2-0.8-0.4-1.1-0.8c-0.3-0.3-0.4-0.8-0.4-1.4c0-0.4,0.1-0.9,0.4-1.2c0.3-0.4,0.6-0.7,1.1-0.9
						c0.5-0.2,1.1-0.3,1.7-0.3c1,0,1.8,0.2,2.4,0.7s0.9,1.2,1,2h-1.5c0-0.5-0.2-0.8-0.6-1.1c-0.3-0.3-0.8-0.4-1.4-0.4
						c-0.5,0-0.9,0.1-1.2,0.3c-0.3,0.2-0.5,0.5-0.5,0.9c0,0.3,0.1,0.5,0.3,0.7c0.2,0.2,0.4,0.3,0.7,0.4c0.3,0.1,0.7,0.2,1.2,0.4
						c0.6,0.2,1.1,0.3,1.5,0.5s0.7,0.4,1,0.7c0.3,0.3,0.4,0.8,0.4,1.3c0,0.5-0.1,0.9-0.4,1.3c-0.3,0.4-0.6,0.7-1.1,0.9
						c-0.5,0.2-1,0.3-1.7,0.3C149.5,238.6,148.9,238.5,148.4,238.3z"/>
					<path class="st4" d="M161.5,230.9v5.2c0,0.4,0.1,0.7,0.3,0.9s0.5,0.3,0.9,0.3h1.1v1.2h-1.3c-0.8,0-1.4-0.2-1.8-0.6
						c-0.4-0.4-0.6-1-0.6-1.8v-5.2h-1.1v-1.2h1.1v-2.2h1.5v2.2h2.3v1.2H161.5z"/>
					<path class="st4" d="M168.1,230c0.5-0.3,1.1-0.4,1.7-0.4v1.5h-0.4c-1.6,0-2.4,0.9-2.4,2.7v4.8h-1.5v-8.8h1.5v1.4
						C167.2,230.6,167.6,230.2,168.1,230z"/>
					<path class="st4" d="M173.1,238c-0.7-0.4-1.2-0.9-1.6-1.6c-0.4-0.7-0.6-1.5-0.6-2.4c0-0.9,0.2-1.7,0.6-2.4
						c0.4-0.7,0.9-1.2,1.6-1.6c0.7-0.4,1.4-0.6,2.3-0.6s1.6,0.2,2.3,0.6c0.7,0.4,1.2,0.9,1.6,1.6c0.4,0.7,0.6,1.5,0.6,2.4
						c0,0.9-0.2,1.7-0.6,2.4c-0.4,0.7-0.9,1.2-1.6,1.6c-0.7,0.4-1.4,0.6-2.3,0.6C174.5,238.6,173.7,238.4,173.1,238z M176.8,237
						c0.5-0.2,0.8-0.6,1.1-1.1c0.3-0.5,0.4-1.1,0.4-1.8c0-0.7-0.1-1.3-0.4-1.8c-0.3-0.5-0.6-0.9-1.1-1.1s-0.9-0.4-1.5-0.4
						c-0.5,0-1,0.1-1.5,0.4s-0.8,0.6-1.1,1.1c-0.3,0.5-0.4,1.1-0.4,1.8c0,0.7,0.1,1.3,0.4,1.8s0.6,0.9,1,1.1s0.9,0.4,1.4,0.4
						S176.3,237.2,176.8,237z"/>
					<path class="st4" d="M194.1,230c0.5,0.3,1,0.7,1.3,1.3c0.3,0.6,0.5,1.3,0.5,2.1v5.2h-1.4v-5c0-0.9-0.2-1.5-0.6-2
						c-0.4-0.5-1-0.7-1.8-0.7c-0.8,0-1.4,0.2-1.8,0.7c-0.4,0.5-0.7,1.2-0.7,2.1v4.8h-1.4v-5c0-0.9-0.2-1.5-0.6-2
						c-0.4-0.5-1-0.7-1.8-0.7c-0.8,0-1.4,0.2-1.8,0.7c-0.4,0.5-0.7,1.2-0.7,2.1v4.8h-1.5v-8.8h1.5v1.3c0.3-0.5,0.7-0.8,1.2-1.1
						c0.5-0.2,1-0.4,1.6-0.4c0.7,0,1.4,0.2,2,0.5c0.6,0.3,1,0.8,1.3,1.5c0.2-0.6,0.7-1.1,1.2-1.4c0.6-0.3,1.2-0.5,1.9-0.5
						C192.9,229.5,193.6,229.7,194.1,230z"/>
					<path class="st4" d="M200.9,230.1c0.6-0.3,1.2-0.5,2-0.5c0.8,0,1.5,0.2,2.1,0.6c0.6,0.4,1.1,0.9,1.5,1.6
						c0.4,0.7,0.5,1.5,0.5,2.4c0,0.9-0.2,1.7-0.5,2.4s-0.9,1.2-1.5,1.6c-0.6,0.4-1.3,0.6-2.1,0.6c-0.7,0-1.4-0.2-2-0.5
						c-0.6-0.3-1-0.8-1.3-1.3v5.8h-1.5v-12.9h1.5v1.6C199.9,230.8,200.4,230.4,200.9,230.1z M205.2,232.3c-0.3-0.5-0.6-0.9-1.1-1.1
						c-0.5-0.3-1-0.4-1.5-0.4c-0.5,0-1,0.1-1.5,0.4c-0.5,0.3-0.8,0.6-1.1,1.1c-0.3,0.5-0.4,1.1-0.4,1.7c0,0.7,0.1,1.2,0.4,1.7
						c0.3,0.5,0.6,0.9,1.1,1.1c0.5,0.3,0.9,0.4,1.5,0.4c0.5,0,1-0.1,1.5-0.4c0.5-0.3,0.8-0.6,1.1-1.1s0.4-1.1,0.4-1.8
						C205.6,233.4,205.5,232.8,205.2,232.3z"/>
					<path class="st4" d="M209,231.7c0.4-0.7,0.9-1.2,1.5-1.6c0.6-0.4,1.3-0.6,2.1-0.6c0.8,0,1.4,0.2,2,0.5c0.6,0.3,1,0.7,1.3,1.2
						v-1.6h1.5v8.8h-1.5v-1.6c-0.3,0.5-0.7,0.9-1.3,1.3s-1.2,0.5-2,0.5c-0.8,0-1.5-0.2-2.1-0.6c-0.6-0.4-1.1-0.9-1.5-1.6
						s-0.5-1.5-0.5-2.4C208.5,233.2,208.7,232.4,209,231.7z M215.5,232.3c-0.3-0.5-0.6-0.9-1.1-1.1s-1-0.4-1.5-0.4
						c-0.5,0-1,0.1-1.5,0.4c-0.4,0.3-0.8,0.6-1.1,1.1c-0.3,0.5-0.4,1.1-0.4,1.7c0,0.7,0.1,1.3,0.4,1.8s0.6,0.9,1.1,1.1
						c0.4,0.3,0.9,0.4,1.5,0.4c0.5,0,1-0.1,1.5-0.4c0.5-0.3,0.8-0.6,1.1-1.1c0.3-0.5,0.4-1.1,0.4-1.7
						C215.9,233.4,215.8,232.8,215.5,232.3z"/>
					<path class="st4" d="M221.1,238.3c-0.5-0.2-1-0.5-1.3-1c-0.3-0.4-0.5-0.9-0.5-1.4h1.5c0,0.4,0.2,0.8,0.6,1.1s0.9,0.4,1.4,0.4
						c0.6,0,1-0.1,1.3-0.4c0.3-0.2,0.5-0.6,0.5-0.9c0-0.4-0.2-0.7-0.5-0.9s-0.9-0.4-1.6-0.6c-0.7-0.2-1.2-0.3-1.6-0.5
						c-0.4-0.2-0.8-0.4-1.1-0.8c-0.3-0.3-0.4-0.8-0.4-1.4c0-0.4,0.1-0.9,0.4-1.2c0.3-0.4,0.6-0.7,1.1-0.9s1.1-0.3,1.7-0.3
						c1,0,1.8,0.2,2.4,0.7s0.9,1.2,1,2h-1.5c0-0.5-0.2-0.8-0.6-1.1c-0.3-0.3-0.8-0.4-1.4-0.4c-0.5,0-0.9,0.1-1.2,0.3
						c-0.3,0.2-0.5,0.5-0.5,0.9c0,0.3,0.1,0.5,0.3,0.7c0.2,0.2,0.4,0.3,0.7,0.4c0.3,0.1,0.7,0.2,1.2,0.4c0.6,0.2,1.1,0.3,1.5,0.5
						s0.7,0.4,1,0.7c0.3,0.3,0.4,0.8,0.4,1.3c0,0.5-0.1,0.9-0.4,1.3c-0.3,0.4-0.6,0.7-1.1,0.9c-0.5,0.2-1,0.3-1.7,0.3
						C222.3,238.6,221.7,238.5,221.1,238.3z"/>
				</g>
				<g class="st2">
					<path class="st4" d="M51.9,255.7c0.4-0.7,0.9-1.2,1.5-1.6c0.6-0.4,1.3-0.6,2.1-0.6c0.7,0,1.3,0.2,1.9,0.5
						c0.6,0.3,1,0.7,1.3,1.2v-4.6h1.5v11.8h-1.5v-1.6c-0.3,0.5-0.7,1-1.3,1.3s-1.2,0.5-2,0.5c-0.8,0-1.5-0.2-2.1-0.6
						c-0.6-0.4-1.1-0.9-1.5-1.6s-0.5-1.5-0.5-2.4C51.4,257.2,51.5,256.4,51.9,255.7z M58.4,256.3c-0.3-0.5-0.6-0.9-1.1-1.1
						c-0.5-0.3-1-0.4-1.5-0.4c-0.5,0-1,0.1-1.5,0.4c-0.4,0.3-0.8,0.6-1.1,1.1c-0.3,0.5-0.4,1.1-0.4,1.7c0,0.7,0.1,1.3,0.4,1.8
						c0.3,0.5,0.6,0.9,1.1,1.1c0.4,0.3,0.9,0.4,1.5,0.4c0.5,0,1-0.1,1.5-0.4c0.5-0.3,0.8-0.6,1.1-1.1s0.4-1.1,0.4-1.7
						C58.8,257.4,58.7,256.8,58.4,256.3z"/>
					<path class="st4" d="M70.7,258.6h-7c0.1,0.9,0.3,1.5,0.9,2c0.5,0.5,1.2,0.7,2,0.7c0.6,0,1.2-0.1,1.6-0.4
						c0.4-0.3,0.7-0.7,0.9-1.2h1.6c-0.2,0.8-0.7,1.5-1.4,2.1c-0.7,0.5-1.6,0.8-2.6,0.8c-0.8,0-1.6-0.2-2.2-0.6
						c-0.7-0.4-1.2-0.9-1.5-1.6c-0.4-0.7-0.6-1.5-0.6-2.4c0-0.9,0.2-1.7,0.5-2.4s0.9-1.2,1.5-1.6c0.7-0.4,1.4-0.6,2.3-0.6
						c0.8,0,1.6,0.2,2.2,0.5c0.6,0.4,1.1,0.9,1.5,1.5s0.5,1.4,0.5,2.2C70.7,258,70.7,258.3,70.7,258.6z M68.8,256
						c-0.2-0.4-0.6-0.7-1-0.9s-0.9-0.3-1.4-0.3c-0.7,0-1.4,0.2-1.9,0.7c-0.5,0.5-0.8,1.1-0.9,2h5.5C69.2,256.9,69.1,256.4,68.8,256z
						"/>
					<path class="st4" d="M80.5,254.9h-1.8v7.6h-1.5v-7.6H76v-1.2h1.1v-0.6c0-1,0.3-1.7,0.8-2.2c0.5-0.5,1.3-0.7,2.4-0.7v1.2
						c-0.6,0-1.1,0.1-1.4,0.4c-0.3,0.3-0.4,0.7-0.4,1.2v0.6h1.8V254.9z"/>
					<path class="st4" d="M82.2,255.7c0.4-0.7,0.9-1.2,1.5-1.6c0.6-0.4,1.3-0.6,2.1-0.6c0.8,0,1.4,0.2,2,0.5c0.6,0.3,1,0.7,1.3,1.2
						v-1.6h1.5v8.8h-1.5v-1.6c-0.3,0.5-0.7,0.9-1.3,1.3c-0.6,0.3-1.2,0.5-2,0.5c-0.8,0-1.5-0.2-2.1-0.6c-0.6-0.4-1.1-0.9-1.5-1.6
						s-0.5-1.5-0.5-2.4C81.6,257.2,81.8,256.4,82.2,255.7z M88.7,256.3c-0.3-0.5-0.6-0.9-1.1-1.1c-0.5-0.3-1-0.4-1.5-0.4
						c-0.5,0-1,0.1-1.5,0.4c-0.4,0.3-0.8,0.6-1.1,1.1c-0.3,0.5-0.4,1.1-0.4,1.7c0,0.7,0.1,1.3,0.4,1.8c0.3,0.5,0.6,0.9,1.1,1.1
						c0.4,0.3,0.9,0.4,1.5,0.4c0.5,0,1-0.1,1.5-0.4c0.5-0.3,0.8-0.6,1.1-1.1s0.4-1.1,0.4-1.7C89.1,257.4,88.9,256.8,88.7,256.3z"/>
					<path class="st4" d="M94.4,250.6v11.8H93v-11.8H94.4z"/>
					<path class="st4" d="M98.5,262c-0.7-0.4-1.2-0.9-1.6-1.6c-0.4-0.7-0.6-1.5-0.6-2.4c0-0.9,0.2-1.7,0.6-2.4
						c0.4-0.7,0.9-1.2,1.6-1.6c0.7-0.4,1.4-0.6,2.3-0.6s1.6,0.2,2.3,0.6c0.7,0.4,1.2,0.9,1.6,1.6c0.4,0.7,0.6,1.5,0.6,2.4
						c0,0.9-0.2,1.7-0.6,2.4c-0.4,0.7-0.9,1.2-1.6,1.6c-0.7,0.4-1.4,0.6-2.3,0.6C99.9,262.6,99.2,262.4,98.5,262z M102.2,261
						c0.5-0.2,0.8-0.6,1.1-1.1c0.3-0.5,0.4-1.1,0.4-1.8c0-0.7-0.1-1.3-0.4-1.8c-0.3-0.5-0.6-0.9-1.1-1.1c-0.4-0.2-0.9-0.4-1.5-0.4
						c-0.5,0-1,0.1-1.5,0.4c-0.4,0.2-0.8,0.6-1.1,1.1c-0.3,0.5-0.4,1.1-0.4,1.8c0,0.7,0.1,1.3,0.4,1.8s0.6,0.9,1,1.1
						c0.4,0.2,0.9,0.4,1.4,0.4C101.3,261.3,101.8,261.2,102.2,261z"/>
					<path class="st4" d="M109.9,254.1c0.6-0.3,1.2-0.5,2-0.5c0.8,0,1.5,0.2,2.1,0.6c0.6,0.4,1.1,0.9,1.5,1.6
						c0.4,0.7,0.5,1.5,0.5,2.4c0,0.9-0.2,1.7-0.5,2.4c-0.4,0.7-0.9,1.2-1.5,1.6c-0.6,0.4-1.3,0.6-2.1,0.6c-0.7,0-1.4-0.2-2-0.5
						c-0.6-0.3-1-0.8-1.3-1.3v5.8h-1.5v-12.9h1.5v1.6C108.9,254.8,109.3,254.4,109.9,254.1z M114.2,256.3c-0.3-0.5-0.6-0.9-1.1-1.1
						c-0.5-0.3-1-0.4-1.5-0.4c-0.5,0-1,0.1-1.5,0.4c-0.5,0.3-0.8,0.6-1.1,1.1s-0.4,1.1-0.4,1.7c0,0.7,0.1,1.2,0.4,1.7
						s0.6,0.9,1.1,1.1c0.5,0.3,0.9,0.4,1.5,0.4c0.5,0,1-0.1,1.5-0.4c0.5-0.3,0.8-0.6,1.1-1.1c0.3-0.5,0.4-1.1,0.4-1.8
						C114.6,257.4,114.4,256.8,114.2,256.3z"/>
					<path class="st4" d="M118,252c-0.2-0.2-0.3-0.4-0.3-0.7s0.1-0.5,0.3-0.7c0.2-0.2,0.4-0.3,0.7-0.3c0.3,0,0.5,0.1,0.7,0.3
						c0.2,0.2,0.3,0.4,0.3,0.7s-0.1,0.5-0.3,0.7c-0.2,0.2-0.4,0.3-0.7,0.3C118.5,252.3,118.2,252.2,118,252z M119.4,253.7v8.8H118
						v-8.8H119.4z"/>
					<path class="st4" d="M123.5,262c-0.7-0.4-1.2-0.9-1.6-1.6c-0.4-0.7-0.6-1.5-0.6-2.4c0-0.9,0.2-1.7,0.6-2.4
						c0.4-0.7,0.9-1.2,1.6-1.6c0.7-0.4,1.4-0.6,2.3-0.6s1.6,0.2,2.3,0.6c0.7,0.4,1.2,0.9,1.6,1.6c0.4,0.7,0.6,1.5,0.6,2.4
						c0,0.9-0.2,1.7-0.6,2.4c-0.4,0.7-0.9,1.2-1.6,1.6c-0.7,0.4-1.4,0.6-2.3,0.6C124.9,262.6,124.2,262.4,123.5,262z M127.2,261
						c0.5-0.2,0.8-0.6,1.1-1.1c0.3-0.5,0.4-1.1,0.4-1.8c0-0.7-0.1-1.3-0.4-1.8c-0.3-0.5-0.6-0.9-1.1-1.1c-0.4-0.2-0.9-0.4-1.5-0.4
						c-0.5,0-1,0.1-1.5,0.4c-0.4,0.2-0.8,0.6-1.1,1.1c-0.3,0.5-0.4,1.1-0.4,1.8c0,0.7,0.1,1.3,0.4,1.8s0.6,0.9,1,1.1
						c0.4,0.2,0.9,0.4,1.4,0.4C126.3,261.3,126.8,261.2,127.2,261z"/>
					<path class="st4" d="M144,253.7l-5.3,12.9h-1.5l1.7-4.2l-3.5-8.7h1.6l2.8,7.1l2.7-7.1H144z"/>
					<path class="st4" d="M157.7,258.6h-7c0.1,0.9,0.3,1.5,0.9,2c0.5,0.5,1.2,0.7,2,0.7c0.6,0,1.2-0.1,1.6-0.4
						c0.4-0.3,0.7-0.7,0.9-1.2h1.6c-0.2,0.8-0.7,1.5-1.4,2.1c-0.7,0.5-1.6,0.8-2.6,0.8c-0.8,0-1.6-0.2-2.2-0.6
						c-0.7-0.4-1.2-0.9-1.5-1.6c-0.4-0.7-0.6-1.5-0.6-2.4c0-0.9,0.2-1.7,0.5-2.4c0.4-0.7,0.9-1.2,1.5-1.6c0.7-0.4,1.4-0.6,2.3-0.6
						c0.8,0,1.6,0.2,2.2,0.5c0.6,0.4,1.1,0.9,1.5,1.5s0.5,1.4,0.5,2.2C157.7,258,157.7,258.3,157.7,258.6z M155.8,256
						c-0.2-0.4-0.6-0.7-1-0.9c-0.4-0.2-0.9-0.3-1.4-0.3c-0.7,0-1.4,0.2-1.9,0.7c-0.5,0.5-0.8,1.1-0.9,2h5.5
						C156.2,256.9,156.1,256.4,155.8,256z"/>
					<path class="st4" d="M161.1,250.6v11.8h-1.5v-11.8H161.1z"/>
					<path class="st4" d="M167.8,255.7c0.4-0.7,0.9-1.2,1.5-1.6c0.6-0.4,1.4-0.6,2.2-0.6c1.1,0,2,0.3,2.7,0.8s1.2,1.2,1.4,2.2H174
						c-0.1-0.5-0.4-1-0.9-1.3s-1-0.5-1.6-0.5c-0.8,0-1.5,0.3-2,0.9c-0.5,0.6-0.8,1.4-0.8,2.4c0,1.1,0.3,1.9,0.8,2.4s1.2,0.9,2,0.9
						c0.6,0,1.2-0.1,1.6-0.4c0.4-0.3,0.7-0.7,0.9-1.3h1.6c-0.2,0.9-0.7,1.6-1.4,2.2c-0.7,0.5-1.6,0.8-2.6,0.8
						c-0.8,0-1.6-0.2-2.2-0.6s-1.1-0.9-1.5-1.6c-0.4-0.7-0.5-1.5-0.5-2.4C167.3,257.2,167.5,256.4,167.8,255.7z"/>
					<path class="st4" d="M185.3,253.7v8.8h-1.5v-1.3c-0.3,0.4-0.7,0.8-1.2,1c-0.5,0.3-1,0.4-1.6,0.4c-0.7,0-1.3-0.1-1.8-0.4
						s-1-0.7-1.3-1.3c-0.3-0.6-0.5-1.3-0.5-2.1v-5.1h1.4v4.9c0,0.9,0.2,1.5,0.7,2s1,0.7,1.8,0.7c0.8,0,1.4-0.2,1.8-0.7
						c0.4-0.5,0.7-1.2,0.7-2.1v-4.8H185.3z"/>
					<path class="st4" d="M195.7,258.6h-7c0.1,0.9,0.3,1.5,0.9,2c0.5,0.5,1.2,0.7,2,0.7c0.6,0,1.2-0.1,1.6-0.4
						c0.4-0.3,0.7-0.7,0.9-1.2h1.6c-0.2,0.8-0.7,1.5-1.4,2.1c-0.7,0.5-1.6,0.8-2.6,0.8c-0.8,0-1.6-0.2-2.2-0.6
						c-0.7-0.4-1.2-0.9-1.5-1.6c-0.4-0.7-0.6-1.5-0.6-2.4c0-0.9,0.2-1.7,0.5-2.4c0.4-0.7,0.9-1.2,1.5-1.6c0.7-0.4,1.4-0.6,2.3-0.6
						c0.8,0,1.6,0.2,2.2,0.5c0.6,0.4,1.1,0.9,1.5,1.5s0.5,1.4,0.5,2.2C195.8,258,195.8,258.3,195.7,258.6z M193.9,256
						c-0.2-0.4-0.6-0.7-1-0.9c-0.4-0.2-0.9-0.3-1.4-0.3c-0.7,0-1.4,0.2-1.9,0.7c-0.5,0.5-0.8,1.1-0.9,2h5.5
						C194.3,256.9,194.2,256.4,193.9,256z"/>
					<path class="st4" d="M199.2,250.6v11.8h-1.5v-11.8H199.2z"/>
					<path class="st4" d="M203.1,250.6v11.8h-1.5v-11.8H203.1z"/>
					<path class="st4" d="M207.2,262c-0.7-0.4-1.2-0.9-1.6-1.6c-0.4-0.7-0.6-1.5-0.6-2.4c0-0.9,0.2-1.7,0.6-2.4
						c0.4-0.7,0.9-1.2,1.6-1.6c0.7-0.4,1.4-0.6,2.3-0.6s1.6,0.2,2.3,0.6c0.7,0.4,1.2,0.9,1.6,1.6c0.4,0.7,0.6,1.5,0.6,2.4
						c0,0.9-0.2,1.7-0.6,2.4c-0.4,0.7-0.9,1.2-1.6,1.6s-1.4,0.6-2.3,0.6C208.6,262.6,207.8,262.4,207.2,262z M210.9,261
						c0.5-0.2,0.8-0.6,1.1-1.1c0.3-0.5,0.4-1.1,0.4-1.8c0-0.7-0.1-1.3-0.4-1.8c-0.3-0.5-0.6-0.9-1.1-1.1c-0.4-0.2-0.9-0.4-1.5-0.4
						c-0.5,0-1,0.1-1.5,0.4c-0.4,0.2-0.8,0.6-1.1,1.1c-0.3,0.5-0.4,1.1-0.4,1.8c0,0.7,0.1,1.3,0.4,1.8c0.3,0.5,0.6,0.9,1,1.1
						s0.9,0.4,1.4,0.4C209.9,261.3,210.4,261.2,210.9,261z"/>
				</g>
				<g class="st2">
					<path class="st4" d="M55.6,277.7v8.8h-1.5v-1.3c-0.3,0.4-0.7,0.8-1.2,1c-0.5,0.3-1,0.4-1.6,0.4c-0.7,0-1.3-0.1-1.8-0.4
						s-1-0.7-1.3-1.3c-0.3-0.6-0.5-1.3-0.5-2.1v-5.1h1.4v4.9c0,0.9,0.2,1.5,0.7,2c0.4,0.5,1,0.7,1.8,0.7c0.8,0,1.4-0.2,1.8-0.7
						c0.4-0.5,0.7-1.2,0.7-2.1v-4.8H55.6z"/>
					<path class="st4" d="M59.8,278.9v5.2c0,0.4,0.1,0.7,0.3,0.9c0.2,0.2,0.5,0.3,0.9,0.3h1.1v1.2h-1.3c-0.8,0-1.4-0.2-1.8-0.6
						c-0.4-0.4-0.6-1-0.6-1.8v-5.2h-1.1v-1.2h1.1v-2.2h1.5v2.2h2.3v1.2H59.8z"/>
					<path class="st4" d="M71.8,282.6h-7c0.1,0.9,0.3,1.5,0.9,2c0.5,0.5,1.2,0.7,2,0.7c0.6,0,1.2-0.1,1.6-0.4
						c0.4-0.3,0.7-0.7,0.9-1.2h1.6c-0.2,0.8-0.7,1.5-1.4,2.1c-0.7,0.5-1.6,0.8-2.6,0.8c-0.8,0-1.6-0.2-2.2-0.6
						c-0.7-0.4-1.2-0.9-1.5-1.6c-0.4-0.7-0.6-1.5-0.6-2.4c0-0.9,0.2-1.7,0.5-2.4s0.9-1.2,1.5-1.6c0.7-0.4,1.4-0.6,2.3-0.6
						c0.8,0,1.6,0.2,2.2,0.5c0.6,0.4,1.1,0.9,1.5,1.5s0.5,1.4,0.5,2.2C71.9,282,71.8,282.3,71.8,282.6z M70,280
						c-0.2-0.4-0.6-0.7-1-0.9s-0.9-0.3-1.4-0.3c-0.7,0-1.4,0.2-1.9,0.7c-0.5,0.5-0.8,1.1-0.9,2h5.5C70.4,280.9,70.2,280.4,70,280z"
						/>
					<path class="st4" d="M76.3,278c0.5-0.3,1.1-0.4,1.7-0.4v1.5h-0.4c-1.6,0-2.4,0.9-2.4,2.7v4.8h-1.5v-8.8h1.5v1.4
						C75.5,278.6,75.9,278.2,76.3,278z"/>
					<path class="st4" d="M79.8,276c-0.2-0.2-0.3-0.4-0.3-0.7s0.1-0.5,0.3-0.7c0.2-0.2,0.4-0.3,0.7-0.3c0.3,0,0.5,0.1,0.7,0.3
						c0.2,0.2,0.3,0.4,0.3,0.7s-0.1,0.5-0.3,0.7c-0.2,0.2-0.4,0.3-0.7,0.3C80.2,276.3,80,276.2,79.8,276z M81.2,277.7v8.8h-1.5v-8.8
						H81.2z"/>
					<path class="st4" d="M90.5,278.5c0.7,0.6,1,1.6,1,2.8v5.2h-1.4v-5c0-0.9-0.2-1.5-0.7-2c-0.4-0.5-1-0.7-1.8-0.7
						c-0.8,0-1.4,0.2-1.8,0.7c-0.5,0.5-0.7,1.2-0.7,2.1v4.8h-1.5v-8.8h1.5v1.2c0.3-0.4,0.7-0.8,1.2-1c0.5-0.2,1-0.4,1.6-0.4
						C89,277.5,89.9,277.9,90.5,278.5z"/>
					<path class="st4" d="M95.5,286c-0.7-0.4-1.2-0.9-1.6-1.6c-0.4-0.7-0.6-1.5-0.6-2.4c0-0.9,0.2-1.7,0.6-2.4
						c0.4-0.7,0.9-1.2,1.6-1.6c0.7-0.4,1.4-0.6,2.3-0.6s1.6,0.2,2.3,0.6c0.7,0.4,1.2,0.9,1.6,1.6c0.4,0.7,0.6,1.5,0.6,2.4
						c0,0.9-0.2,1.7-0.6,2.4c-0.4,0.7-0.9,1.2-1.6,1.6c-0.7,0.4-1.4,0.6-2.3,0.6C96.9,286.6,96.2,286.4,95.5,286z M99.2,285
						c0.5-0.2,0.8-0.6,1.1-1.1c0.3-0.5,0.4-1.1,0.4-1.8c0-0.7-0.1-1.3-0.4-1.8c-0.3-0.5-0.6-0.9-1.1-1.1c-0.4-0.2-0.9-0.4-1.5-0.4
						c-0.5,0-1,0.1-1.5,0.4c-0.4,0.2-0.8,0.6-1.1,1.1c-0.3,0.5-0.4,1.1-0.4,1.8c0,0.7,0.1,1.3,0.4,1.8s0.6,0.9,1,1.1
						c0.4,0.2,0.9,0.4,1.4,0.4C98.3,285.3,98.8,285.2,99.2,285z"/>
					<path class="st4" d="M111.2,278.1c0.6-0.3,1.2-0.5,2-0.5c0.8,0,1.5,0.2,2.1,0.6c0.6,0.4,1.1,0.9,1.5,1.6
						c0.4,0.7,0.5,1.5,0.5,2.4c0,0.9-0.2,1.7-0.5,2.4c-0.4,0.7-0.9,1.2-1.5,1.6c-0.6,0.4-1.3,0.6-2.1,0.6c-0.7,0-1.4-0.2-2-0.5
						c-0.6-0.3-1-0.8-1.3-1.3v5.8h-1.5v-12.9h1.5v1.6C110.2,278.8,110.6,278.4,111.2,278.1z M115.4,280.3c-0.3-0.5-0.6-0.9-1.1-1.1
						c-0.5-0.3-1-0.4-1.5-0.4c-0.5,0-1,0.1-1.5,0.4c-0.5,0.3-0.8,0.6-1.1,1.1s-0.4,1.1-0.4,1.7c0,0.7,0.1,1.2,0.4,1.7
						s0.6,0.9,1.1,1.1c0.5,0.3,0.9,0.4,1.5,0.4c0.5,0,1-0.1,1.5-0.4c0.5-0.3,0.8-0.6,1.1-1.1c0.3-0.5,0.4-1.1,0.4-1.8
						C115.8,281.4,115.7,280.8,115.4,280.3z"/>
					<path class="st4" d="M119.2,279.7c0.4-0.7,0.9-1.2,1.5-1.6c0.6-0.4,1.3-0.6,2.1-0.6c0.8,0,1.4,0.2,2,0.5c0.6,0.3,1,0.7,1.3,1.2
						v-1.6h1.5v8.8h-1.5v-1.6c-0.3,0.5-0.7,0.9-1.3,1.3c-0.6,0.3-1.2,0.5-2,0.5c-0.8,0-1.5-0.2-2.1-0.6c-0.6-0.4-1.1-0.9-1.5-1.6
						s-0.5-1.5-0.5-2.4C118.7,281.2,118.9,280.4,119.2,279.7z M125.7,280.3c-0.3-0.5-0.6-0.9-1.1-1.1c-0.5-0.3-1-0.4-1.5-0.4
						c-0.5,0-1,0.1-1.5,0.4c-0.4,0.3-0.8,0.6-1.1,1.1c-0.3,0.5-0.4,1.1-0.4,1.7c0,0.7,0.1,1.3,0.4,1.8c0.3,0.5,0.6,0.9,1.1,1.1
						c0.4,0.3,0.9,0.4,1.5,0.4c0.5,0,1-0.1,1.5-0.4c0.5-0.3,0.8-0.6,1.1-1.1s0.4-1.1,0.4-1.7C126.1,281.4,126,280.8,125.7,280.3z"/>
					<path class="st4" d="M132.6,278c0.5-0.3,1.1-0.4,1.7-0.4v1.5H134c-1.6,0-2.4,0.9-2.4,2.7v4.8h-1.5v-8.8h1.5v1.4
						C131.8,278.6,132.1,278.2,132.6,278z"/>
					<path class="st4" d="M136,279.7c0.4-0.7,0.9-1.2,1.5-1.6c0.6-0.4,1.3-0.6,2.1-0.6c0.8,0,1.4,0.2,2,0.5c0.6,0.3,1,0.7,1.3,1.2
						v-1.6h1.5v8.8h-1.5v-1.6c-0.3,0.5-0.7,0.9-1.3,1.3s-1.2,0.5-2,0.5c-0.8,0-1.5-0.2-2.1-0.6c-0.6-0.4-1.1-0.9-1.5-1.6
						s-0.5-1.5-0.5-2.4C135.5,281.2,135.7,280.4,136,279.7z M142.5,280.3c-0.3-0.5-0.6-0.9-1.1-1.1s-1-0.4-1.5-0.4
						c-0.5,0-1,0.1-1.5,0.4c-0.4,0.3-0.8,0.6-1.1,1.1c-0.3,0.5-0.4,1.1-0.4,1.7c0,0.7,0.1,1.3,0.4,1.8s0.6,0.9,1.1,1.1
						c0.4,0.3,0.9,0.4,1.5,0.4c0.5,0,1-0.1,1.5-0.4c0.5-0.3,0.8-0.6,1.1-1.1c0.3-0.5,0.4-1.1,0.4-1.7
						C142.9,281.4,142.8,280.8,142.5,280.3z"/>
					<path class="st4" d="M151.1,279.7c0.4-0.7,0.9-1.2,1.5-1.6c0.6-0.4,1.3-0.6,2.1-0.6c0.7,0,1.3,0.2,1.9,0.5
						c0.6,0.3,1,0.7,1.3,1.2v-4.6h1.5v11.8H158v-1.6c-0.3,0.5-0.7,1-1.3,1.3c-0.6,0.3-1.2,0.5-2,0.5c-0.8,0-1.5-0.2-2.1-0.6
						c-0.6-0.4-1.1-0.9-1.5-1.6s-0.5-1.5-0.5-2.4C150.6,281.2,150.8,280.4,151.1,279.7z M157.6,280.3c-0.3-0.5-0.6-0.9-1.1-1.1
						s-1-0.4-1.5-0.4c-0.5,0-1,0.1-1.5,0.4c-0.4,0.3-0.8,0.6-1.1,1.1c-0.3,0.5-0.4,1.1-0.4,1.7c0,0.7,0.1,1.3,0.4,1.8
						s0.6,0.9,1.1,1.1c0.4,0.3,0.9,0.4,1.5,0.4c0.5,0,1-0.1,1.5-0.4c0.5-0.3,0.8-0.6,1.1-1.1c0.3-0.5,0.4-1.1,0.4-1.7
						C158,281.4,157.9,280.8,157.6,280.3z"/>
					<path class="st4" d="M169.9,282.6h-7c0.1,0.9,0.3,1.5,0.9,2c0.5,0.5,1.2,0.7,2,0.7c0.6,0,1.2-0.1,1.6-0.4
						c0.4-0.3,0.7-0.7,0.9-1.2h1.6c-0.2,0.8-0.7,1.5-1.4,2.1c-0.7,0.5-1.6,0.8-2.6,0.8c-0.8,0-1.6-0.2-2.2-0.6
						c-0.7-0.4-1.2-0.9-1.5-1.6c-0.4-0.7-0.6-1.5-0.6-2.4c0-0.9,0.2-1.7,0.5-2.4s0.9-1.2,1.5-1.6c0.7-0.4,1.4-0.6,2.3-0.6
						c0.8,0,1.6,0.2,2.2,0.5c0.6,0.4,1.1,0.9,1.5,1.5c0.3,0.6,0.5,1.4,0.5,2.2C169.9,282,169.9,282.3,169.9,282.6z M168.1,280
						c-0.2-0.4-0.6-0.7-1-0.9s-0.9-0.3-1.4-0.3c-0.7,0-1.4,0.2-1.9,0.7c-0.5,0.5-0.8,1.1-0.9,2h5.5
						C168.4,280.9,168.3,280.4,168.1,280z"/>
					<path class="st4" d="M173.6,278.9v5.2c0,0.4,0.1,0.7,0.3,0.9s0.5,0.3,0.9,0.3h1.1v1.2h-1.3c-0.8,0-1.4-0.2-1.8-0.6
						c-0.4-0.4-0.6-1-0.6-1.8v-5.2H171v-1.2h1.1v-2.2h1.5v2.2h2.3v1.2H173.6z"/>
					<path class="st4" d="M185.6,282.6h-7c0.1,0.9,0.3,1.5,0.9,2c0.5,0.5,1.2,0.7,2,0.7c0.6,0,1.2-0.1,1.6-0.4
						c0.4-0.3,0.7-0.7,0.9-1.2h1.6c-0.2,0.8-0.7,1.5-1.4,2.1c-0.7,0.5-1.6,0.8-2.6,0.8c-0.8,0-1.6-0.2-2.2-0.6
						c-0.7-0.4-1.2-0.9-1.5-1.6c-0.4-0.7-0.6-1.5-0.6-2.4c0-0.9,0.2-1.7,0.5-2.4s0.9-1.2,1.5-1.6c0.7-0.4,1.4-0.6,2.3-0.6
						c0.8,0,1.6,0.2,2.2,0.5c0.6,0.4,1.1,0.9,1.5,1.5c0.3,0.6,0.5,1.4,0.5,2.2C185.7,282,185.7,282.3,185.6,282.6z M183.8,280
						c-0.2-0.4-0.6-0.7-1-0.9s-0.9-0.3-1.4-0.3c-0.7,0-1.4,0.2-1.9,0.7c-0.5,0.5-0.8,1.1-0.9,2h5.5
						C184.2,280.9,184.1,280.4,183.8,280z"/>
					<path class="st4" d="M187.6,279.7c0.4-0.7,0.9-1.2,1.5-1.6c0.6-0.4,1.4-0.6,2.2-0.6c1.1,0,2,0.3,2.7,0.8
						c0.7,0.5,1.2,1.2,1.4,2.2h-1.6c-0.1-0.5-0.4-1-0.9-1.3c-0.4-0.3-1-0.5-1.6-0.5c-0.8,0-1.5,0.3-2,0.9c-0.5,0.6-0.8,1.4-0.8,2.4
						c0,1.1,0.3,1.9,0.8,2.4s1.2,0.9,2,0.9c0.6,0,1.2-0.1,1.6-0.4s0.7-0.7,0.9-1.3h1.6c-0.2,0.9-0.7,1.6-1.4,2.2
						c-0.7,0.5-1.6,0.8-2.6,0.8c-0.8,0-1.6-0.2-2.2-0.6c-0.6-0.4-1.2-0.9-1.5-1.6s-0.5-1.5-0.5-2.4
						C187.1,281.2,187.2,280.4,187.6,279.7z"/>
					<path class="st4" d="M199.1,278.9v5.2c0,0.4,0.1,0.7,0.3,0.9c0.2,0.2,0.5,0.3,0.9,0.3h1.1v1.2h-1.3c-0.8,0-1.4-0.2-1.8-0.6
						c-0.4-0.4-0.6-1-0.6-1.8v-5.2h-1.1v-1.2h1.1v-2.2h1.5v2.2h2.3v1.2H199.1z"/>
					<path class="st4" d="M203.1,279.7c0.4-0.7,0.9-1.2,1.5-1.6c0.6-0.4,1.3-0.6,2.1-0.6c0.8,0,1.4,0.2,2,0.5c0.6,0.3,1,0.7,1.3,1.2
						v-1.6h1.5v8.8H210v-1.6c-0.3,0.5-0.7,0.9-1.3,1.3s-1.2,0.5-2,0.5c-0.8,0-1.5-0.2-2.1-0.6c-0.6-0.4-1.1-0.9-1.5-1.6
						s-0.5-1.5-0.5-2.4C202.6,281.2,202.8,280.4,203.1,279.7z M209.6,280.3c-0.3-0.5-0.6-0.9-1.1-1.1s-1-0.4-1.5-0.4
						c-0.5,0-1,0.1-1.5,0.4c-0.4,0.3-0.8,0.6-1.1,1.1c-0.3,0.5-0.4,1.1-0.4,1.7c0,0.7,0.1,1.3,0.4,1.8s0.6,0.9,1.1,1.1
						c0.4,0.3,0.9,0.4,1.5,0.4c0.5,0,1-0.1,1.5-0.4c0.5-0.3,0.8-0.6,1.1-1.1c0.3-0.5,0.4-1.1,0.4-1.7
						C210,281.4,209.9,280.8,209.6,280.3z"/>
					<path class="st4" d="M216.5,278c0.5-0.3,1.1-0.4,1.7-0.4v1.5h-0.4c-1.6,0-2.4,0.9-2.4,2.7v4.8H214v-8.8h1.5v1.4
						C215.7,278.6,216,278.2,216.5,278z"/>
				</g>
				<g class="st2">
					<path class="st4" d="M35.2,302.1c0.6-0.3,1.2-0.5,2-0.5c0.8,0,1.5,0.2,2.1,0.6c0.6,0.4,1.1,0.9,1.5,1.6
						c0.4,0.7,0.5,1.5,0.5,2.4c0,0.9-0.2,1.7-0.5,2.4c-0.4,0.7-0.9,1.2-1.5,1.6c-0.6,0.4-1.3,0.6-2.1,0.6c-0.7,0-1.4-0.2-2-0.5
						c-0.6-0.3-1-0.8-1.3-1.3v5.8h-1.5v-12.9H34v1.6C34.2,302.8,34.7,302.4,35.2,302.1z M39.5,304.3c-0.3-0.5-0.6-0.9-1.1-1.1
						c-0.5-0.3-1-0.4-1.5-0.4c-0.5,0-1,0.1-1.5,0.4c-0.5,0.3-0.8,0.6-1.1,1.1s-0.4,1.1-0.4,1.7c0,0.7,0.1,1.2,0.4,1.7
						s0.6,0.9,1.1,1.1c0.5,0.3,0.9,0.4,1.5,0.4c0.5,0,1-0.1,1.5-0.4c0.5-0.3,0.8-0.6,1.1-1.1c0.3-0.5,0.4-1.1,0.4-1.8
						C39.9,305.4,39.8,304.8,39.5,304.3z"/>
					<path class="st4" d="M43.3,303.7c0.4-0.7,0.9-1.2,1.5-1.6c0.6-0.4,1.3-0.6,2.1-0.6c0.8,0,1.4,0.2,2,0.5c0.6,0.3,1,0.7,1.3,1.2
						v-1.6h1.5v8.8h-1.5v-1.6c-0.3,0.5-0.7,0.9-1.3,1.3c-0.6,0.3-1.2,0.5-2,0.5c-0.8,0-1.5-0.2-2.1-0.6c-0.6-0.4-1.1-0.9-1.5-1.6
						s-0.5-1.5-0.5-2.4C42.8,305.2,42.9,304.4,43.3,303.7z M49.8,304.3c-0.3-0.5-0.6-0.9-1.1-1.1c-0.5-0.3-1-0.4-1.5-0.4
						c-0.5,0-1,0.1-1.5,0.4c-0.4,0.3-0.8,0.6-1.1,1.1c-0.3,0.5-0.4,1.1-0.4,1.7c0,0.7,0.1,1.3,0.4,1.8c0.3,0.5,0.6,0.9,1.1,1.1
						c0.4,0.3,0.9,0.4,1.5,0.4c0.5,0,1-0.1,1.5-0.4c0.5-0.3,0.8-0.6,1.1-1.1s0.4-1.1,0.4-1.7C50.2,305.4,50.1,304.8,49.8,304.3z"/>
					<path class="st4" d="M55.9,302.9v5.2c0,0.4,0.1,0.7,0.3,0.9c0.2,0.2,0.5,0.3,0.9,0.3h1.1v1.2h-1.3c-0.8,0-1.4-0.2-1.8-0.6
						c-0.4-0.4-0.6-1-0.6-1.8v-5.2h-1.1v-1.2h1.1v-2.2h1.5v2.2h2.3v1.2H55.9z"/>
					<path class="st4" d="M61.5,310c-0.7-0.4-1.2-0.9-1.6-1.6c-0.4-0.7-0.6-1.5-0.6-2.4c0-0.9,0.2-1.7,0.6-2.4
						c0.4-0.7,0.9-1.2,1.6-1.6c0.7-0.4,1.4-0.6,2.3-0.6s1.6,0.2,2.3,0.6c0.7,0.4,1.2,0.9,1.6,1.6c0.4,0.7,0.6,1.5,0.6,2.4
						c0,0.9-0.2,1.7-0.6,2.4c-0.4,0.7-0.9,1.2-1.6,1.6c-0.7,0.4-1.4,0.6-2.3,0.6C63,310.6,62.2,310.4,61.5,310z M65.2,309
						c0.5-0.2,0.8-0.6,1.1-1.1c0.3-0.5,0.4-1.1,0.4-1.8c0-0.7-0.1-1.3-0.4-1.8c-0.3-0.5-0.6-0.9-1.1-1.1c-0.4-0.2-0.9-0.4-1.5-0.4
						c-0.5,0-1,0.1-1.5,0.4c-0.4,0.2-0.8,0.6-1.1,1.1c-0.3,0.5-0.4,1.1-0.4,1.8c0,0.7,0.1,1.3,0.4,1.8s0.6,0.9,1,1.1
						c0.4,0.2,0.9,0.4,1.4,0.4C64.3,309.3,64.8,309.2,65.2,309z"/>
					<path class="st4" d="M71.6,298.6v11.8h-1.5v-11.8H71.6z"/>
					<path class="st4" d="M75.7,310c-0.7-0.4-1.2-0.9-1.6-1.6c-0.4-0.7-0.6-1.5-0.6-2.4c0-0.9,0.2-1.7,0.6-2.4
						c0.4-0.7,0.9-1.2,1.6-1.6c0.7-0.4,1.4-0.6,2.3-0.6s1.6,0.2,2.3,0.6c0.7,0.4,1.2,0.9,1.6,1.6c0.4,0.7,0.6,1.5,0.6,2.4
						c0,0.9-0.2,1.7-0.6,2.4c-0.4,0.7-0.9,1.2-1.6,1.6c-0.7,0.4-1.4,0.6-2.3,0.6C77.1,310.6,76.4,310.4,75.7,310z M79.4,309
						c0.5-0.2,0.8-0.6,1.1-1.1c0.3-0.5,0.4-1.1,0.4-1.8c0-0.7-0.1-1.3-0.4-1.8c-0.3-0.5-0.6-0.9-1.1-1.1c-0.4-0.2-0.9-0.4-1.5-0.4
						c-0.5,0-1,0.1-1.5,0.4c-0.4,0.2-0.8,0.6-1.1,1.1c-0.3,0.5-0.4,1.1-0.4,1.8c0,0.7,0.1,1.3,0.4,1.8s0.6,0.9,1,1.1
						c0.4,0.2,0.9,0.4,1.4,0.4C78.5,309.3,79,309.2,79.4,309z"/>
					<path class="st4" d="M90,302c0.6,0.3,1,0.7,1.3,1.2v-1.6h1.5v9c0,0.8-0.2,1.5-0.5,2.1s-0.8,1.1-1.5,1.5s-1.4,0.5-2.2,0.5
						c-1.2,0-2.1-0.3-2.9-0.8c-0.8-0.5-1.2-1.3-1.4-2.2h1.4c0.2,0.5,0.5,1,1,1.3c0.5,0.3,1.1,0.5,1.8,0.5c0.8,0,1.5-0.3,2-0.8
						c0.5-0.5,0.8-1.2,0.8-2.1v-1.8c-0.3,0.5-0.7,0.9-1.3,1.3c-0.6,0.3-1.2,0.5-2,0.5c-0.8,0-1.5-0.2-2.1-0.6
						c-0.6-0.4-1.1-0.9-1.5-1.6s-0.5-1.5-0.5-2.4c0-0.9,0.2-1.7,0.5-2.4c0.4-0.7,0.9-1.2,1.5-1.6c0.6-0.4,1.3-0.6,2.1-0.6
						C88.7,301.6,89.4,301.7,90,302z M90.8,304.3c-0.3-0.5-0.6-0.9-1.1-1.1c-0.5-0.3-1-0.4-1.5-0.4c-0.5,0-1,0.1-1.5,0.4
						c-0.4,0.3-0.8,0.6-1.1,1.1c-0.3,0.5-0.4,1.1-0.4,1.7c0,0.7,0.1,1.3,0.4,1.8c0.3,0.5,0.6,0.9,1.1,1.1c0.4,0.3,0.9,0.4,1.5,0.4
						c0.5,0,1-0.1,1.5-0.4c0.5-0.3,0.8-0.6,1.1-1.1s0.4-1.1,0.4-1.7C91.2,305.4,91.1,304.8,90.8,304.3z"/>
					<path class="st4" d="M97.5,299.2l-3.4,1.8V300l3.4-2V299.2z M96.6,301.7v8.8h-1.5v-8.8H96.6z"/>
					<path class="st4" d="M99.1,303.7c0.4-0.7,0.9-1.2,1.5-1.6c0.6-0.4,1.3-0.6,2.1-0.6c0.8,0,1.4,0.2,2,0.5c0.6,0.3,1,0.7,1.3,1.2
						v-1.6h1.5v8.8H106v-1.6c-0.3,0.5-0.7,0.9-1.3,1.3c-0.6,0.3-1.2,0.5-2,0.5c-0.8,0-1.5-0.2-2.1-0.6c-0.6-0.4-1.1-0.9-1.5-1.6
						s-0.5-1.5-0.5-2.4C98.6,305.2,98.8,304.4,99.1,303.7z M105.6,304.3c-0.3-0.5-0.6-0.9-1.1-1.1c-0.5-0.3-1-0.4-1.5-0.4
						c-0.5,0-1,0.1-1.5,0.4c-0.4,0.3-0.8,0.6-1.1,1.1c-0.3,0.5-0.4,1.1-0.4,1.7c0,0.7,0.1,1.3,0.4,1.8c0.3,0.5,0.6,0.9,1.1,1.1
						c0.4,0.3,0.9,0.4,1.5,0.4c0.5,0,1-0.1,1.5-0.4c0.5-0.3,0.8-0.6,1.1-1.1s0.4-1.1,0.4-1.7C106,305.4,105.9,304.8,105.6,304.3z"/>
					<path class="st4" d="M111.2,310.3c-0.5-0.2-1-0.5-1.3-1c-0.3-0.4-0.5-0.9-0.5-1.4h1.5c0,0.4,0.2,0.8,0.6,1.1s0.9,0.4,1.4,0.4
						c0.6,0,1-0.1,1.3-0.4c0.3-0.2,0.5-0.6,0.5-0.9c0-0.4-0.2-0.7-0.5-0.9c-0.3-0.2-0.9-0.4-1.6-0.6c-0.7-0.2-1.2-0.3-1.6-0.5
						c-0.4-0.2-0.8-0.4-1.1-0.8c-0.3-0.3-0.4-0.8-0.4-1.4c0-0.4,0.1-0.9,0.4-1.2c0.3-0.4,0.6-0.7,1.1-0.9s1.1-0.3,1.7-0.3
						c1,0,1.8,0.2,2.4,0.7c0.6,0.5,0.9,1.2,1,2h-1.5c0-0.5-0.2-0.8-0.6-1.1c-0.3-0.3-0.8-0.4-1.4-0.4c-0.5,0-0.9,0.1-1.2,0.3
						c-0.3,0.2-0.5,0.5-0.5,0.9c0,0.3,0.1,0.5,0.3,0.7c0.2,0.2,0.4,0.3,0.7,0.4c0.3,0.1,0.7,0.2,1.2,0.4c0.6,0.2,1.1,0.3,1.5,0.5
						c0.4,0.2,0.7,0.4,1,0.7c0.3,0.3,0.4,0.8,0.4,1.3c0,0.5-0.1,0.9-0.4,1.3c-0.3,0.4-0.6,0.7-1.1,0.9c-0.5,0.2-1,0.3-1.7,0.3
						C112.4,310.6,111.8,310.5,111.2,310.3z"/>
					<path class="st4" d="M128.2,302c0.6,0.3,1,0.7,1.3,1.2v-1.6h1.5v9c0,0.8-0.2,1.5-0.5,2.1s-0.8,1.1-1.5,1.5s-1.4,0.5-2.2,0.5
						c-1.2,0-2.1-0.3-2.9-0.8c-0.8-0.5-1.2-1.3-1.4-2.2h1.4c0.2,0.5,0.5,1,1,1.3c0.5,0.3,1.1,0.5,1.8,0.5c0.8,0,1.5-0.3,2-0.8
						c0.5-0.5,0.8-1.2,0.8-2.1v-1.8c-0.3,0.5-0.7,0.9-1.3,1.3c-0.6,0.3-1.2,0.5-2,0.5c-0.8,0-1.5-0.2-2.1-0.6
						c-0.6-0.4-1.1-0.9-1.5-1.6s-0.5-1.5-0.5-2.4c0-0.9,0.2-1.7,0.5-2.4c0.4-0.7,0.9-1.2,1.5-1.6c0.6-0.4,1.3-0.6,2.1-0.6
						C126.9,301.6,127.6,301.7,128.2,302z M129,304.3c-0.3-0.5-0.6-0.9-1.1-1.1c-0.5-0.3-1-0.4-1.5-0.4c-0.5,0-1,0.1-1.5,0.4
						c-0.4,0.3-0.8,0.6-1.1,1.1c-0.3,0.5-0.4,1.1-0.4,1.7c0,0.7,0.1,1.3,0.4,1.8c0.3,0.5,0.6,0.9,1.1,1.1c0.4,0.3,0.9,0.4,1.5,0.4
						c0.5,0,1-0.1,1.5-0.4c0.5-0.3,0.8-0.6,1.1-1.1s0.4-1.1,0.4-1.7C129.4,305.4,129.3,304.8,129,304.3z"/>
					<path class="st4" d="M133.4,300c-0.2-0.2-0.3-0.4-0.3-0.7s0.1-0.5,0.3-0.7c0.2-0.2,0.4-0.3,0.7-0.3c0.3,0,0.5,0.1,0.7,0.3
						c0.2,0.2,0.3,0.4,0.3,0.7s-0.1,0.5-0.3,0.7c-0.2,0.2-0.4,0.3-0.7,0.3C133.8,300.3,133.6,300.2,133.4,300z M134.8,301.7v8.8
						h-1.5v-8.8H134.8z"/>
					<path class="st4" d="M144.2,302.5c0.7,0.6,1,1.6,1,2.8v5.2h-1.4v-5c0-0.9-0.2-1.5-0.7-2s-1-0.7-1.8-0.7c-0.8,0-1.4,0.2-1.8,0.7
						c-0.5,0.5-0.7,1.2-0.7,2.1v4.8h-1.5v-8.8h1.5v1.2c0.3-0.4,0.7-0.8,1.2-1c0.5-0.2,1-0.4,1.6-0.4
						C142.6,301.5,143.5,301.9,144.2,302.5z"/>
					<path class="st4" d="M155.5,306.6h-7c0.1,0.9,0.3,1.5,0.9,2c0.5,0.5,1.2,0.7,2,0.7c0.6,0,1.2-0.1,1.6-0.4
						c0.4-0.3,0.7-0.7,0.9-1.2h1.6c-0.2,0.8-0.7,1.5-1.4,2.1c-0.7,0.5-1.6,0.8-2.6,0.8c-0.8,0-1.6-0.2-2.2-0.6
						c-0.7-0.4-1.2-0.9-1.5-1.6c-0.4-0.7-0.6-1.5-0.6-2.4c0-0.9,0.2-1.7,0.5-2.4c0.4-0.7,0.9-1.2,1.5-1.6c0.7-0.4,1.4-0.6,2.3-0.6
						c0.8,0,1.6,0.2,2.2,0.5c0.6,0.4,1.1,0.9,1.5,1.5s0.5,1.4,0.5,2.2C155.5,306,155.5,306.3,155.5,306.6z M153.7,304
						c-0.2-0.4-0.6-0.7-1-0.9c-0.4-0.2-0.9-0.3-1.4-0.3c-0.7,0-1.4,0.2-1.9,0.7c-0.5,0.5-0.8,1.1-0.9,2h5.5
						C154,304.9,153.9,304.4,153.7,304z"/>
					<path class="st4" d="M157.5,303.7c0.4-0.7,0.9-1.2,1.5-1.6c0.6-0.4,1.4-0.6,2.2-0.6c1.1,0,2,0.3,2.7,0.8s1.2,1.2,1.4,2.2h-1.6
						c-0.1-0.5-0.4-1-0.9-1.3s-1-0.5-1.6-0.5c-0.8,0-1.5,0.3-2,0.9c-0.5,0.6-0.8,1.4-0.8,2.4c0,1.1,0.3,1.9,0.8,2.4s1.2,0.9,2,0.9
						c0.6,0,1.2-0.1,1.6-0.4c0.4-0.3,0.7-0.7,0.9-1.3h1.6c-0.2,0.9-0.7,1.6-1.4,2.2c-0.7,0.5-1.6,0.8-2.6,0.8
						c-0.8,0-1.6-0.2-2.2-0.6s-1.1-0.9-1.5-1.6c-0.4-0.7-0.5-1.5-0.5-2.4C156.9,305.2,157.1,304.4,157.5,303.7z"/>
					<path class="st4" d="M168.8,310c-0.7-0.4-1.2-0.9-1.6-1.6c-0.4-0.7-0.6-1.5-0.6-2.4c0-0.9,0.2-1.7,0.6-2.4
						c0.4-0.7,0.9-1.2,1.6-1.6c0.7-0.4,1.4-0.6,2.3-0.6s1.6,0.2,2.3,0.6c0.7,0.4,1.2,0.9,1.6,1.6c0.4,0.7,0.6,1.5,0.6,2.4
						c0,0.9-0.2,1.7-0.6,2.4c-0.4,0.7-0.9,1.2-1.6,1.6s-1.4,0.6-2.3,0.6C170.2,310.6,169.4,310.4,168.8,310z M172.5,309
						c0.5-0.2,0.8-0.6,1.1-1.1c0.3-0.5,0.4-1.1,0.4-1.8c0-0.7-0.1-1.3-0.4-1.8c-0.3-0.5-0.6-0.9-1.1-1.1c-0.4-0.2-0.9-0.4-1.5-0.4
						c-0.5,0-1,0.1-1.5,0.4c-0.4,0.2-0.8,0.6-1.1,1.1c-0.3,0.5-0.4,1.1-0.4,1.8c0,0.7,0.1,1.3,0.4,1.8c0.3,0.5,0.6,0.9,1,1.1
						s0.9,0.4,1.4,0.4C171.5,309.3,172,309.2,172.5,309z"/>
					<path class="st4" d="M178.9,298.6v11.8h-1.5v-11.8H178.9z"/>
					<path class="st4" d="M182.9,310c-0.7-0.4-1.2-0.9-1.6-1.6c-0.4-0.7-0.6-1.5-0.6-2.4c0-0.9,0.2-1.7,0.6-2.4
						c0.4-0.7,0.9-1.2,1.6-1.6c0.7-0.4,1.4-0.6,2.3-0.6s1.6,0.2,2.3,0.6c0.7,0.4,1.2,0.9,1.6,1.6c0.4,0.7,0.6,1.5,0.6,2.4
						c0,0.9-0.2,1.7-0.6,2.4c-0.4,0.7-0.9,1.2-1.6,1.6s-1.4,0.6-2.3,0.6C184.4,310.6,183.6,310.4,182.9,310z M186.7,309
						c0.5-0.2,0.8-0.6,1.1-1.1c0.3-0.5,0.4-1.1,0.4-1.8c0-0.7-0.1-1.3-0.4-1.8c-0.3-0.5-0.6-0.9-1.1-1.1c-0.4-0.2-0.9-0.4-1.5-0.4
						c-0.5,0-1,0.1-1.5,0.4c-0.4,0.2-0.8,0.6-1.1,1.1c-0.3,0.5-0.4,1.1-0.4,1.8c0,0.7,0.1,1.3,0.4,1.8c0.3,0.5,0.6,0.9,1,1.1
						s0.9,0.4,1.4,0.4C185.7,309.3,186.2,309.2,186.7,309z M186.8,299.1l-3.4,1.8v-1.1l3.4-2V299.1z"/>
					<path class="st4" d="M197.2,302c0.6,0.3,1,0.7,1.3,1.2v-1.6h1.5v9c0,0.8-0.2,1.5-0.5,2.1c-0.3,0.6-0.8,1.1-1.5,1.5
						s-1.4,0.5-2.2,0.5c-1.2,0-2.1-0.3-2.9-0.8c-0.8-0.5-1.2-1.3-1.4-2.2h1.4c0.2,0.5,0.5,1,1,1.3c0.5,0.3,1.1,0.5,1.8,0.5
						c0.8,0,1.5-0.3,2-0.8c0.5-0.5,0.8-1.2,0.8-2.1v-1.8c-0.3,0.5-0.7,0.9-1.3,1.3c-0.6,0.3-1.2,0.5-2,0.5c-0.8,0-1.5-0.2-2.1-0.6
						c-0.6-0.4-1.1-0.9-1.5-1.6c-0.4-0.7-0.5-1.5-0.5-2.4c0-0.9,0.2-1.7,0.5-2.4c0.4-0.7,0.9-1.2,1.5-1.6c0.6-0.4,1.3-0.6,2.1-0.6
						C196,301.6,196.6,301.7,197.2,302z M198.1,304.3c-0.3-0.5-0.6-0.9-1.1-1.1c-0.5-0.3-1-0.4-1.5-0.4c-0.5,0-1,0.1-1.5,0.4
						s-0.8,0.6-1.1,1.1c-0.3,0.5-0.4,1.1-0.4,1.7c0,0.7,0.1,1.3,0.4,1.8s0.6,0.9,1.1,1.1c0.4,0.3,0.9,0.4,1.5,0.4
						c0.5,0,1-0.1,1.5-0.4c0.5-0.3,0.8-0.6,1.1-1.1s0.4-1.1,0.4-1.7C198.5,305.4,198.3,304.8,198.1,304.3z"/>
					<path class="st4" d="M202.5,300c-0.2-0.2-0.3-0.4-0.3-0.7s0.1-0.5,0.3-0.7c0.2-0.2,0.4-0.3,0.7-0.3c0.3,0,0.5,0.1,0.7,0.3
						c0.2,0.2,0.3,0.4,0.3,0.7s-0.1,0.5-0.3,0.7c-0.2,0.2-0.4,0.3-0.7,0.3C202.9,300.3,202.7,300.2,202.5,300z M203.9,301.7v8.8
						h-1.5v-8.8H203.9z"/>
					<path class="st4" d="M206.3,303.7c0.4-0.7,0.9-1.2,1.5-1.6c0.6-0.4,1.4-0.6,2.2-0.6c1.1,0,2,0.3,2.7,0.8
						c0.7,0.5,1.2,1.2,1.4,2.2h-1.6c-0.1-0.5-0.4-1-0.9-1.3c-0.4-0.3-1-0.5-1.6-0.5c-0.8,0-1.5,0.3-2,0.9c-0.5,0.6-0.8,1.4-0.8,2.4
						c0,1.1,0.3,1.9,0.8,2.4c0.5,0.6,1.2,0.9,2,0.9c0.6,0,1.2-0.1,1.6-0.4s0.7-0.7,0.9-1.3h1.6c-0.2,0.9-0.7,1.6-1.4,2.2
						c-0.7,0.5-1.6,0.8-2.6,0.8c-0.8,0-1.6-0.2-2.2-0.6c-0.6-0.4-1.1-0.9-1.5-1.6c-0.4-0.7-0.5-1.5-0.5-2.4
						C205.8,305.2,206,304.4,206.3,303.7z"/>
					<path class="st4" d="M216.1,303.7c0.4-0.7,0.9-1.2,1.5-1.6c0.6-0.4,1.3-0.6,2.1-0.6c0.8,0,1.4,0.2,2,0.5c0.6,0.3,1,0.7,1.3,1.2
						v-1.6h1.5v8.8h-1.5v-1.6c-0.3,0.5-0.7,0.9-1.3,1.3c-0.6,0.3-1.2,0.5-2,0.5c-0.8,0-1.5-0.2-2.1-0.6c-0.6-0.4-1.1-0.9-1.5-1.6
						c-0.4-0.7-0.5-1.5-0.5-2.4C215.5,305.2,215.7,304.4,216.1,303.7z M222.5,304.3c-0.3-0.5-0.6-0.9-1.1-1.1s-1-0.4-1.5-0.4
						s-1,0.1-1.5,0.4c-0.4,0.3-0.8,0.6-1.1,1.1c-0.3,0.5-0.4,1.1-0.4,1.7c0,0.7,0.1,1.3,0.4,1.8c0.3,0.5,0.6,0.9,1.1,1.1
						c0.4,0.3,0.9,0.4,1.5,0.4s1-0.1,1.5-0.4c0.5-0.3,0.8-0.6,1.1-1.1s0.4-1.1,0.4-1.7C222.9,305.4,222.8,304.8,222.5,304.3z"/>
					<path class="st4" d="M228.2,310.3c-0.5-0.2-1-0.5-1.3-1c-0.3-0.4-0.5-0.9-0.5-1.4h1.5c0,0.4,0.2,0.8,0.6,1.1s0.9,0.4,1.4,0.4
						c0.6,0,1-0.1,1.3-0.4c0.3-0.2,0.5-0.6,0.5-0.9c0-0.4-0.2-0.7-0.5-0.9c-0.3-0.2-0.9-0.4-1.6-0.6c-0.7-0.2-1.2-0.3-1.6-0.5
						c-0.4-0.2-0.8-0.4-1.1-0.8s-0.4-0.8-0.4-1.4c0-0.4,0.1-0.9,0.4-1.2c0.3-0.4,0.6-0.7,1.1-0.9c0.5-0.2,1.1-0.3,1.7-0.3
						c1,0,1.8,0.2,2.4,0.7s0.9,1.2,1,2h-1.5c0-0.5-0.2-0.8-0.6-1.1s-0.8-0.4-1.4-0.4c-0.5,0-0.9,0.1-1.2,0.3
						c-0.3,0.2-0.5,0.5-0.5,0.9c0,0.3,0.1,0.5,0.3,0.7s0.4,0.3,0.7,0.4c0.3,0.1,0.7,0.2,1.2,0.4c0.6,0.2,1.1,0.3,1.5,0.5
						s0.7,0.4,1,0.7c0.3,0.3,0.4,0.8,0.4,1.3c0,0.5-0.1,0.9-0.4,1.3c-0.3,0.4-0.6,0.7-1.1,0.9c-0.5,0.2-1,0.3-1.7,0.3
						C229.3,310.6,228.7,310.5,228.2,310.3z"/>
				</g>
			</g>
		</g>
		<g>
			<path class="st5" d="M116.6,51.3c1.8,0,3.5,0.7,4.8,1.9c1.8,1.8,5.3,5,11.5,10.5c11.1,9.9,22.7,20.1,26.2,26.6
				c0,0-1.9,28.3-24.1,28.5c-10.5,0-15.5-3.4-15.5-3.4v0.6c0,1.5-1.2,2.8-2.8,2.8h-9c-1.5,0-2.8-1.2-2.8-2.8V54.1
				c0-1.5,1.2-2.8,2.8-2.8H116.6z"/>
			<path class="st6" d="M153,82.6c0,0-2.5,11.2,4,17.5c1.7-5.3,2-9.7,2-9.7C157.8,88.2,155.7,85.5,153,82.6z"/>
			<path class="st6" d="M156.9,87.2c0,0-1.1,4.7,1.6,7.4c0,0,2.5-1.6,1.8-4.2C159.5,87.6,157.7,87.4,156.9,87.2z"/>
			<path class="st7" d="M156.9,87.2c0,0-1.1,4.7,1.6,7.4c0,0,2.5-1.6,1.8-4.2C159.5,87.6,157.7,87.4,156.9,87.2z"/>
		</g>
	</g>
</g>
</svg>
