<svg width="58" height="58" viewBox="0 0 58 58" fill="none" xmlns="http://www.w3.org/2000/svg">
<g clip-path="url(#clip0_1324_182)">
<path d="M28.7734 14.3154C30.1891 14.3154 31.5729 13.8956 32.75 13.1091C33.9271 12.3226 34.8445 11.2047 35.3862 9.89681C35.9279 8.58891 36.0697 7.14975 35.7935 5.76129C35.5173 4.37284 34.8356 3.09747 33.8346 2.09645C32.8336 1.09543 31.5582 0.413729 30.1698 0.137543C28.7813 -0.138644 27.3421 0.00309346 26.0342 0.54483C24.7263 1.08657 23.6085 2.00397 22.8219 3.18104C22.0354 4.3581 21.6156 5.74195 21.6156 7.15761C21.6177 9.05533 22.3725 10.8747 23.7144 12.2166C25.0563 13.5585 26.8757 14.3133 28.7734 14.3154ZM28.7734 1.39577C29.913 1.39579 31.027 1.73375 31.9746 2.3669C32.9221 3.00005 33.6606 3.89996 34.0967 4.95283C34.5328 6.00569 34.6469 7.16423 34.4245 8.28194C34.2022 9.39964 33.6534 10.4263 32.8475 11.2321C32.0417 12.0379 31.015 12.5867 29.8973 12.809C28.7796 13.0313 27.6211 12.9172 26.5682 12.481C25.5154 12.0449 24.6155 11.3064 23.9824 10.3588C23.3492 9.41124 23.0113 8.29722 23.0114 7.15761C23.0131 5.62997 23.6208 4.16541 24.701 3.08523C25.7812 2.00505 27.2458 1.39747 28.7734 1.39577Z" fill="white"/>
<path d="M52.0961 33.5326H47.6678C47.1867 31.7013 44.8236 30.2768 41.5353 29.29C41.5291 29.1697 41.5242 29.0525 41.517 28.9298C41.2663 24.6532 38.6947 15.1404 28.7735 15.1404C18.8523 15.1404 16.2807 24.6461 16.03 28.9298C16.0222 29.0586 16.0168 29.1818 16.0102 29.308C12.7533 30.2941 10.4168 31.7126 9.93856 33.5326H5.41712C5.23203 33.5326 5.05452 33.6062 4.92364 33.737C4.79276 33.8679 4.71924 34.0454 4.71924 34.2305C4.71924 34.4156 4.79276 34.5931 4.92364 34.724C5.05452 34.8549 5.23203 34.9284 5.41712 34.9284H9.93856C10.697 37.8149 16.1319 39.6908 22.4894 40.4346C22.4878 40.5557 22.4861 40.6771 22.4845 40.7973C22.4796 41.1631 22.4747 41.5241 22.47 41.8805C22.458 42.7703 22.4466 43.6257 22.436 44.427L22.4312 44.7916C15.5863 45.5962 9.81297 47.7132 9.81297 50.9924C9.81297 55.2583 19.581 57.56 28.7721 57.56C37.9631 57.56 47.7316 55.2583 47.7316 50.9924C47.7316 47.7132 41.9581 45.5962 35.113 44.7916C35.0953 43.4721 35.0755 41.9918 35.0546 40.442C41.439 39.7033 46.907 37.8244 47.6678 34.9284H52.0961C52.2812 34.9284 52.4587 34.8549 52.5896 34.724C52.7205 34.5931 52.794 34.4156 52.794 34.2305C52.794 34.0454 52.7205 33.8679 52.5896 33.7371C52.4587 33.6062 52.2812 33.5326 52.0961 33.5326L52.0961 33.5326ZM17.4233 29.0113C17.6081 26.2388 18.473 23.5544 19.9416 21.1955C21.9742 18.1038 24.9457 16.5361 28.7735 16.5361C32.6008 16.5361 35.5722 18.1046 37.6053 21.198C39.0735 23.5562 39.9384 26.2397 40.1236 29.0114C40.194 30.2104 40.3807 33.3954 39.5258 34.3019C39.4423 34.3904 39.2204 34.6257 38.5084 34.6257C38.3438 34.6407 38.1788 34.6009 38.0391 34.5125C37.6629 34.1048 37.7917 32.5065 37.8609 31.6479C37.8986 31.1793 37.9343 30.7366 37.9343 30.3338C37.9343 25.6007 36.0508 22.851 35.9706 22.7363C35.7996 22.4915 35.5546 22.3081 35.2716 22.2129C34.9886 22.1177 34.6826 22.1157 34.3984 22.2073C34.1142 22.2989 33.8669 22.4791 33.6928 22.7217C33.5186 22.9642 33.4268 23.2561 33.4309 23.5547C33.4309 23.5547 33.5432 31.8512 33.642 39.1927C32.665 39.2794 31.6472 39.3398 30.5885 39.3741C30.5716 37.7037 30.5561 36.8186 30.5559 36.8041C30.5494 36.4383 30.3995 36.0896 30.1385 35.8332C29.8774 35.5768 29.5262 35.4332 29.1603 35.4332H28.3795C28.0136 35.4332 27.6624 35.5768 27.4014 35.8332C27.1404 36.0896 26.9905 36.4383 26.984 36.8041C26.9837 36.8185 26.9684 37.7028 26.953 39.3725C25.8955 39.3385 24.8783 39.2747 23.9021 39.1869C24.0005 31.9093 24.1142 23.6975 24.1161 23.5623C24.1203 23.2637 24.0286 22.9716 23.8545 22.729C23.6804 22.4864 23.4331 22.306 23.1488 22.2144C22.8646 22.1228 22.5585 22.1247 22.2755 22.2199C21.9925 22.3151 21.7474 22.4986 21.5764 22.7434C21.4963 22.8581 19.6127 25.6078 19.6127 30.3409C19.6127 30.7405 19.6478 31.1803 19.685 31.6459C19.7538 32.5072 19.8818 34.1105 19.5034 34.5204C19.3651 34.6082 19.2017 34.6477 19.0386 34.6328C18.3294 34.6328 18.1046 34.394 18.0199 34.3041C17.1593 33.3901 17.351 30.2107 17.4233 29.0113ZM34.8265 23.5358C35.6792 24.9562 36.2135 26.5448 36.3926 28.1918C35.8974 28.1204 35.3955 28.0562 34.8868 27.9992C34.8508 25.3356 34.8265 23.5358 34.8265 23.5358ZM29.2248 43.8182C29.2259 44.0349 29.2278 44.2351 29.2301 44.4283C29.0774 44.4271 28.9245 44.4248 28.7721 44.4248C28.6206 44.4248 28.4687 44.4271 28.3169 44.4283C28.3192 44.2372 28.3211 44.0393 28.3222 43.8254C28.3231 43.5389 28.3241 43.2608 28.3252 42.9913C28.3285 42.1813 28.3325 41.449 28.3372 40.7945C28.4926 40.7958 28.6482 40.7981 28.8034 40.7981C28.9373 40.7981 29.0716 40.796 29.2056 40.795C29.2127 41.6648 29.2191 42.6726 29.2248 43.8182ZM28.3485 39.3986C28.3511 39.1138 28.3537 38.8461 28.3562 38.608C28.3578 38.461 28.3593 38.323 28.3608 38.1939C28.3653 37.8067 28.3692 37.5012 28.3726 37.2774C28.3768 36.9797 28.3795 36.8289 28.3795 36.8289H29.1603C29.1603 36.8289 29.1759 37.7077 29.193 39.3992C29.0629 39.4 28.9345 39.4024 28.8034 39.4024C28.6503 39.4024 28.5002 39.3998 28.3485 39.3986ZM22.6589 28.0065C22.1514 28.0641 21.6488 28.1281 21.1543 28.2C21.1275 28.3954 21.1021 28.5937 21.0821 28.8004C21.1453 28.1395 21.2534 27.4837 21.4056 26.8375C21.5274 26.3199 21.6806 25.8103 21.8645 25.3114C21.9715 25.0224 22.0785 24.7674 22.1788 24.5474C22.3316 24.1983 22.5127 23.8623 22.7205 23.5429V23.543C22.7205 23.5433 22.6956 25.3431 22.6589 28.0065ZM11.2396 34.2305C11.2396 33.0314 12.9762 31.766 15.9627 30.7866C15.9374 34.0014 16.5525 36.0286 19.0386 36.0286C21.9755 36.0286 21.0085 32.2105 21.0085 30.3409C21.0085 30.0943 21.0155 29.8556 21.0259 29.6212C21.5474 29.541 22.0853 29.4686 22.6397 29.4039C22.6314 30.0089 22.6227 30.6431 22.6137 31.3006C22.6113 31.4753 22.6088 31.6514 22.6064 31.829C22.5797 33.7825 22.5506 35.9058 22.5224 37.993C22.5176 38.3444 22.5129 38.6945 22.5082 39.043C15.6441 38.2241 11.2396 36.142 11.2396 34.2305ZM26.9417 40.7661C26.9355 41.645 26.9305 42.6624 26.9265 43.8182C26.9176 45.5273 26.8696 46.439 26.8141 47.4945C26.7815 48.1136 26.7446 48.8152 26.7123 49.7528C26.6972 50.1401 26.5302 50.5059 26.2474 50.7709C25.9647 51.036 25.5889 51.1791 25.2015 51.1691C24.814 51.1592 24.4461 50.9971 24.1773 50.7179C23.9085 50.4387 23.7604 50.0649 23.7652 49.6774C23.7801 48.3226 23.8278 44.7045 23.8834 40.5785C24.8921 40.6687 25.9159 40.7318 26.9417 40.7661ZM35.1775 49.6548C35.1688 48.9803 35.1525 47.7538 35.1316 46.1881C41.9584 47.0124 46.3358 49.0869 46.3358 50.9924C46.3358 53.4386 39.1226 56.1643 28.7721 56.1643C18.4215 56.1643 11.2087 53.4386 11.2087 50.9924C11.2087 49.0869 15.586 47.0123 22.4129 46.188C22.3924 47.7571 22.377 48.9865 22.3695 49.6619C22.3613 50.4167 22.6507 51.1443 23.1751 51.6871C23.6995 52.23 24.4166 52.5444 25.1712 52.5623C25.9258 52.5802 26.657 52.3002 27.2066 51.7828C27.7561 51.2654 28.0797 50.5523 28.1073 49.798C28.118 49.4865 28.1292 49.2026 28.1406 48.9391C28.1862 47.885 28.2348 47.1558 28.2706 46.273C28.2764 46.1291 28.2817 45.9786 28.2868 45.8245C28.4485 45.8232 28.6087 45.8205 28.7721 45.8205C28.9364 45.8205 29.0977 45.8232 29.2605 45.8245C29.2616 45.8576 29.2625 45.8926 29.2636 45.9252C29.2797 46.3889 29.2996 46.7993 29.3212 47.2164C29.3266 47.3208 29.3321 47.4255 29.3377 47.5315C29.36 47.9558 29.3836 48.4018 29.4063 48.9299C29.4177 49.1939 29.4289 49.4784 29.4397 49.7909C29.4433 49.8871 29.4515 49.9821 29.4644 50.0757C29.5518 50.714 29.852 51.3042 30.3163 51.7509C30.4457 51.8758 30.5864 51.9884 30.7367 52.0871C31.1718 52.372 31.6761 52.5332 32.1957 52.5536C32.7153 52.5741 33.2307 52.4529 33.6868 52.2031C34.1428 51.9533 34.5225 51.5842 34.785 51.1354C35.0476 50.6865 35.1833 50.1747 35.1775 49.6548L35.1775 49.6548ZM33.7818 49.6672C33.7867 50.0548 33.6387 50.4288 33.3699 50.7081C33.101 50.9874 32.733 51.1496 32.3455 51.1595C31.958 51.1695 31.5822 51.0264 31.2994 50.7612C31.0166 50.4961 30.8496 50.1303 30.8346 49.7429C30.8023 48.8028 30.7653 48.0994 30.7326 47.4788C30.6772 46.4263 30.6293 45.5173 30.6205 43.8117C30.6151 42.6606 30.6087 41.6462 30.6011 40.7685C31.6272 40.7354 32.6512 40.673 33.6606 40.5838C33.716 44.6991 33.7643 48.3076 33.7818 49.6672H33.7818ZM35.0359 39.0499C34.9912 35.7321 34.944 32.2322 34.9057 29.3971C35.4602 29.4609 35.9986 29.5327 36.521 29.6124C36.5315 29.8473 36.5385 30.0865 36.5385 30.3338C36.5385 32.2106 35.5643 36.0214 38.5084 36.0214H38.5196C38.6126 36.0214 38.6956 36.0104 38.7834 36.0048C38.8666 35.9994 38.9547 35.9994 39.0333 35.989C39.1226 35.9773 39.2023 35.9548 39.2859 35.9367C39.3551 35.9217 39.4292 35.9121 39.4946 35.8928C39.5742 35.8665 39.6525 35.8361 39.729 35.8018C39.7857 35.7787 39.8472 35.7611 39.9007 35.7345C39.9754 35.6942 40.0476 35.6497 40.1172 35.6012C40.1623 35.572 40.2121 35.5481 40.2547 35.516C40.3241 35.4602 40.3901 35.4004 40.4524 35.3369C40.4873 35.3035 40.5265 35.2752 40.5595 35.2394C40.6244 35.1653 40.6849 35.0875 40.7408 35.0064C40.7656 34.9721 40.7944 34.9427 40.818 34.9068C40.8782 34.8113 40.9332 34.7125 40.9827 34.6111C40.9987 34.5796 41.018 34.5524 41.0333 34.52C41.0871 34.4058 41.1337 34.2821 41.1785 34.1561C41.1878 34.1301 41.1995 34.1074 41.2083 34.081C41.2532 33.9472 41.2915 33.8044 41.3275 33.6583C41.3331 33.6353 41.3407 33.615 41.3462 33.5917C41.3824 33.4369 41.4126 33.2735 41.4398 33.1058C41.4427 33.0881 41.4469 33.0722 41.4497 33.0543C41.4779 32.8729 41.5009 32.6837 41.5197 32.4881L41.5218 32.4708C41.5389 32.2912 41.5509 32.1036 41.5608 31.9125C41.5621 31.8885 41.5646 31.8666 41.5657 31.8424C41.5817 31.5021 41.5849 31.1397 41.5819 30.766C44.6068 31.7481 46.3668 33.023 46.3668 34.2305C46.3668 36.1478 41.9353 38.2362 35.0359 39.0499H35.0359Z" fill="white"/>
</g>
<defs>
<clipPath id="clip0_1324_182">
<rect width="57.5131" height="57.56" fill="white"/>
</clipPath>
</defs>
</svg>
