<svg width="39" height="58" viewBox="0 0 39 58" fill="none" xmlns="http://www.w3.org/2000/svg">
<g clip-path="url(#clip0_1324_185)">
<path d="M8.8125 33.8438C8.20062 33.8438 7.60247 34.0252 7.09371 34.3651C6.58494 34.7051 6.18841 35.1883 5.95425 35.7536C5.72009 36.3189 5.65882 36.9409 5.7782 37.5411C5.89757 38.1412 6.19222 38.6924 6.62489 39.1251C7.05756 39.5578 7.60881 39.8524 8.20894 39.9718C8.80907 40.0912 9.43112 40.0299 9.99643 39.7958C10.5617 39.5616 11.0449 39.1651 11.3849 38.6563C11.7248 38.1475 11.9063 37.5494 11.9063 36.9375C11.8991 36.1192 11.5708 35.3365 10.9922 34.7578C10.4135 34.1792 9.6308 33.8509 8.8125 33.8438ZM8.8125 38.625C8.47875 38.625 8.15249 38.526 7.87498 38.3406C7.59747 38.1552 7.38118 37.8916 7.25346 37.5833C7.12573 37.2749 7.09231 36.9356 7.15743 36.6083C7.22254 36.2809 7.38326 35.9803 7.61926 35.7443C7.85526 35.5083 8.15595 35.3475 8.48329 35.2824C8.81063 35.2173 9.14993 35.2507 9.45828 35.3785C9.76663 35.5062 10.0302 35.7225 10.2156 36C10.401 36.2775 10.5 36.6037 10.5 36.9375C10.5009 37.1594 10.4579 37.3792 10.3734 37.5844C10.289 37.7895 10.1647 37.9759 10.0078 38.1328C9.85094 38.2897 9.66454 38.414 9.45938 38.4984C9.25422 38.5829 9.03437 38.6259 8.8125 38.625Z" fill="white"/>
<path d="M8.8125 44.9062C8.20062 44.9062 7.60247 45.0877 7.09371 45.4276C6.58494 45.7676 6.18841 46.2508 5.95425 46.8161C5.72009 47.3814 5.65882 48.0034 5.7782 48.6036C5.89757 49.2037 6.19222 49.7549 6.62489 50.1876C7.05756 50.6203 7.60881 50.9149 8.20894 51.0343C8.80907 51.1537 9.43112 51.0924 9.99643 50.8583C10.5617 50.6241 11.0449 50.2276 11.3849 49.7188C11.7248 49.21 11.9063 48.6119 11.9063 48C11.8991 47.1817 11.5708 46.399 10.9922 45.8203C10.4135 45.2417 9.6308 44.9134 8.8125 44.9062ZM8.8125 49.6406C8.47875 49.6406 8.15249 49.5417 7.87498 49.3562C7.59747 49.1708 7.38118 48.9073 7.25346 48.5989C7.12573 48.2906 7.09231 47.9513 7.15743 47.6239C7.22254 47.2966 7.38326 46.9959 7.61926 46.7599C7.85526 46.5239 8.15595 46.3632 8.48329 46.298C8.81063 46.2329 9.14993 46.2664 9.45828 46.3941C9.76663 46.5218 10.0302 46.7381 10.2156 47.0156C10.401 47.2931 10.5 47.6194 10.5 47.9531C10.5009 48.175 10.4579 48.3948 10.3734 48.6C10.289 48.8052 10.1647 48.9916 10.0078 49.1484C9.85094 49.3053 9.66454 49.4296 9.45938 49.5141C9.25422 49.5985 9.03437 49.6416 8.8125 49.6406Z" fill="white"/>
<path d="M8.8125 22.8281C8.20062 22.8281 7.60247 23.0096 7.09371 23.3495C6.58494 23.6895 6.18841 24.1726 5.95425 24.7379C5.72009 25.3033 5.65882 25.9253 5.7782 26.5254C5.89757 27.1256 6.19222 27.6768 6.62489 28.1095C7.05756 28.5422 7.60881 28.8368 8.20894 28.9562C8.80907 29.0756 9.43112 29.0143 9.99643 28.7801C10.5617 28.546 11.0449 28.1494 11.3849 27.6407C11.7248 27.1319 11.9063 26.5338 11.9063 25.9219C11.9067 25.5155 11.8269 25.113 11.6716 24.7375C11.5162 24.362 11.2884 24.0207 11.001 23.7334C10.7136 23.446 10.3724 23.2181 9.9969 23.0628C9.62137 22.9075 9.21889 22.8277 8.8125 22.8281ZM8.8125 27.6094C8.47875 27.6094 8.15249 27.5104 7.87498 27.325C7.59747 27.1396 7.38118 26.876 7.25346 26.5677C7.12573 26.2593 7.09231 25.92 7.15743 25.5927C7.22254 25.2653 7.38326 24.9646 7.61926 24.7286C7.85526 24.4926 8.15595 24.3319 8.48329 24.2668C8.81063 24.2017 9.14993 24.2351 9.45828 24.3628C9.76663 24.4906 10.0302 24.7068 10.2156 24.9844C10.401 25.2619 10.5 25.5881 10.5 25.9219C10.5009 26.1437 10.4579 26.3636 10.3734 26.5688C10.289 26.7739 10.1647 26.9603 10.0078 27.1172C9.85094 27.2741 9.66454 27.3983 9.45938 27.4828C9.25422 27.5673 9.03437 27.6103 8.8125 27.6094Z" fill="white"/>
<path d="M32.5313 23.1094H13.3594C13.1729 23.1094 12.9941 23.1835 12.8622 23.3153C12.7303 23.4472 12.6562 23.626 12.6562 23.8125C12.6562 23.999 12.7303 24.1778 12.8622 24.3097C12.9941 24.4415 13.1729 24.5156 13.3594 24.5156H32.5313C32.6241 24.5174 32.7163 24.5004 32.8024 24.4656C32.8885 24.4309 32.9667 24.3792 33.0323 24.3136C33.098 24.2479 33.1497 24.1697 33.1844 24.0836C33.2191 23.9975 33.2361 23.9053 33.2344 23.8125C33.2299 23.6274 33.1543 23.4512 33.0234 23.3203C32.8925 23.1894 32.7163 23.1139 32.5313 23.1094Z" fill="white"/>
<path d="M32.5313 27.2812H13.3594C13.1729 27.2812 12.9941 27.3553 12.8622 27.4872C12.7303 27.6191 12.6562 27.7979 12.6562 27.9844C12.6562 28.1709 12.7303 28.3497 12.8622 28.4816C12.9941 28.6134 13.1729 28.6875 13.3594 28.6875H32.5313C32.6241 28.6892 32.7163 28.6722 32.8024 28.6375C32.8885 28.6028 32.9667 28.5511 33.0323 28.4854C33.098 28.4198 33.1497 28.3416 33.1844 28.2555C33.2191 28.1694 33.2361 28.0772 33.2344 27.9844C33.2299 27.7993 33.1543 27.6231 33.0235 27.4922C32.8926 27.3613 32.7163 27.2858 32.5313 27.2812Z" fill="white"/>
<path d="M32.5313 34.1719H13.3594C13.1729 34.1719 12.9941 34.246 12.8622 34.3778C12.7303 34.5097 12.6562 34.6885 12.6562 34.875C12.6562 35.0615 12.7303 35.2403 12.8622 35.3722C12.9941 35.504 13.1729 35.5781 13.3594 35.5781H32.5313C32.6241 35.5799 32.7163 35.5629 32.8024 35.5282C32.8885 35.4934 32.9667 35.4417 33.0323 35.3761C33.098 35.3104 33.1497 35.2322 33.1844 35.1461C33.2191 35.06 33.2361 34.9678 33.2344 34.875C33.2299 34.6899 33.1543 34.5137 33.0234 34.3828C32.8925 34.2519 32.7163 34.1764 32.5313 34.1719Z" fill="white"/>
<path d="M32.5313 38.3438H13.3594C13.1729 38.3438 12.9941 38.4178 12.8622 38.5497C12.7303 38.6816 12.6562 38.8604 12.6562 39.0469C12.6562 39.2334 12.7303 39.4122 12.8622 39.5441C12.9941 39.6759 13.1729 39.75 13.3594 39.75H32.5313C32.6241 39.7517 32.7163 39.7347 32.8024 39.7C32.8885 39.6653 32.9667 39.6136 33.0323 39.5479C33.098 39.4823 33.1497 39.4041 33.1844 39.318C33.2191 39.2319 33.2361 39.1397 33.2344 39.0469C33.2299 38.8618 33.1543 38.6856 33.0234 38.5547C32.8925 38.4238 32.7163 38.3483 32.5313 38.3438Z" fill="white"/>
<path d="M32.5313 45.1875H13.3594C13.1729 45.1875 12.9941 45.2616 12.8622 45.3934C12.7303 45.5253 12.6562 45.7041 12.6562 45.8906C12.6562 46.0771 12.7303 46.2559 12.8622 46.3878C12.9941 46.5197 13.1729 46.5938 13.3594 46.5938H32.5313C32.6241 46.5955 32.7163 46.5785 32.8024 46.5438C32.8885 46.5091 32.9667 46.4573 33.0323 46.3917C33.098 46.326 33.1497 46.2478 33.1844 46.1617C33.2191 46.0757 33.2361 45.9834 33.2344 45.8906C33.2299 45.7056 33.1543 45.5293 33.0234 45.3984C32.8925 45.2675 32.7163 45.192 32.5313 45.1875Z" fill="white"/>
<path d="M32.5313 49.3594H13.3594C13.1729 49.3594 12.9941 49.4335 12.8622 49.5653C12.7303 49.6972 12.6562 49.876 12.6562 50.0625C12.6562 50.249 12.7303 50.4278 12.8622 50.5597C12.9941 50.6915 13.1729 50.7656 13.3594 50.7656H32.5313C32.6241 50.7674 32.7163 50.7504 32.8024 50.7156C32.8885 50.6809 32.9667 50.6292 33.0323 50.5636C33.098 50.4979 33.1497 50.4197 33.1844 50.3336C33.2191 50.2475 33.2361 50.1553 33.2344 50.0625C33.2299 49.8774 33.1543 49.7012 33.0234 49.5703C32.8925 49.4394 32.7163 49.3639 32.5313 49.3594Z" fill="white"/>
<path d="M35.5313 6.32813H27.9846C27.4408 4.50006 26.3211 2.89652 24.7923 1.75626C23.2635 0.615992 21.4072 0 19.5 0C17.5928 0 15.7366 0.615992 14.2077 1.75626C12.6789 2.89652 11.5593 4.50006 11.0155 6.32813H3.46876C3.01295 6.32709 2.56142 6.41611 2.1401 6.59007C1.71879 6.76402 1.33599 7.01949 1.01368 7.3418C0.691368 7.66411 0.4359 8.04691 0.261946 8.46822C0.0879907 8.88954 -0.00102511 9.34107 8.90598e-06 9.79688V54.0938C0.0348001 55.0188 0.424153 55.895 1.08738 56.5408C1.75061 57.1866 2.63688 57.5524 3.56251 57.5625H35.4375C36.3632 57.5524 37.2494 57.1866 37.9127 56.5408C38.5759 55.895 38.9652 55.0188 39 54.0938V9.79688C39.0011 9.34107 38.912 8.88954 38.7381 8.46822C38.5641 8.04691 38.3087 7.66411 37.9864 7.3418C37.6641 7.01949 37.2812 6.76402 36.8599 6.59007C36.4386 6.41611 35.9871 6.32709 35.5313 6.32813ZM19.5 1.40625C20.9741 1.40625 22.4151 1.84337 23.6408 2.66233C24.8664 3.48129 25.8217 4.64531 26.3858 6.00719C26.9499 7.36907 27.0975 8.86765 26.8099 10.3134C26.5224 11.7592 25.8125 13.0872 24.7702 14.1295C23.7278 15.1719 22.3998 15.8817 20.9541 16.1693C19.5083 16.4569 18.0097 16.3093 16.6478 15.7452C15.286 15.1811 14.1219 14.2258 13.303 13.0001C12.484 11.7745 12.0469 10.3335 12.0469 8.85938C12.0519 6.88422 12.8387 4.99137 14.2354 3.59472C15.632 2.19806 17.5249 1.41123 19.5 1.40625ZM37.4532 54.0469C37.4547 54.3182 37.4025 54.5871 37.2994 54.8381C37.1963 55.089 37.0444 55.317 36.8526 55.5089C36.6608 55.7007 36.4328 55.8526 36.1818 55.9556C35.9309 56.0587 35.6619 56.111 35.3907 56.1094H3.60939C3.33809 56.111 3.06918 56.0587 2.81823 55.9556C2.56728 55.8526 2.33928 55.7007 2.14744 55.5089C1.9556 55.317 1.80374 55.089 1.70065 54.8381C1.59756 54.5871 1.5453 54.3182 1.54688 54.0469V9.79688C1.5453 9.52558 1.59756 9.25667 1.70065 9.00572C1.80374 8.75477 1.9556 8.52677 2.14744 8.33493C2.33928 8.1431 2.56728 7.99123 2.81823 7.88814C3.06918 7.78506 3.33809 7.73279 3.60939 7.73438H10.7207C10.67 8.10728 10.6433 8.48305 10.6406 8.85938C10.6406 8.86731 10.6418 8.87498 10.6418 8.8829C10.6418 8.8904 10.6407 8.89881 10.6407 8.90627C10.6452 11.253 11.5806 13.502 13.2415 15.1598C14.9025 16.8175 17.1533 17.7486 19.5 17.7486C21.8467 17.7486 24.0976 16.8175 25.7585 15.1598C27.4195 13.502 28.3549 11.2529 28.3594 8.90625C28.3594 8.89879 28.3583 8.8904 28.3582 8.88288C28.3583 8.87496 28.3594 8.86729 28.3594 8.85936C28.3568 8.48304 28.33 8.10727 28.2794 7.73436H35.3907C35.6619 7.73277 35.9309 7.78504 36.1818 7.88813C36.4328 7.99121 36.6608 8.14308 36.8526 8.33491C37.0444 8.52675 37.1963 8.75475 37.2994 9.0057C37.4025 9.25665 37.4547 9.52557 37.4532 9.79686V54.0469Z" fill="white"/>
<path d="M18.1168 11.9768C18.0245 11.977 17.933 11.9588 17.8477 11.9235C17.7624 11.8881 17.6849 11.8362 17.6197 11.7708L15.5575 9.70885C15.4256 9.577 15.3516 9.39818 15.3516 9.21172C15.3516 9.02526 15.4256 8.84643 15.5575 8.71458C15.6893 8.58274 15.8682 8.50866 16.0546 8.50866C16.2411 8.50866 16.4199 8.58274 16.5517 8.71458L18.1168 10.2795L22.4482 5.94786C22.5134 5.88237 22.591 5.83038 22.6763 5.79488C22.7617 5.75938 22.8532 5.74106 22.9456 5.74097C23.0381 5.74088 23.1296 5.75902 23.215 5.79435C23.3005 5.82969 23.3781 5.88152 23.4434 5.94689C23.5088 6.01225 23.5606 6.08987 23.596 6.17529C23.6313 6.26071 23.6494 6.35226 23.6494 6.44471C23.6493 6.53715 23.6309 6.62866 23.5954 6.71402C23.5599 6.79937 23.508 6.87688 23.4425 6.94212L18.614 11.7708C18.5488 11.8362 18.4713 11.8881 18.386 11.9235C18.3006 11.9588 18.2092 11.977 18.1168 11.9768Z" fill="white"/>
</g>
<defs>
<clipPath id="clip0_1324_185">
<rect width="39" height="57.5625" fill="white"/>
</clipPath>
</defs>
</svg>
