<svg id="Capa_1" data-name="Capa 1" xmlns="http://www.w3.org/2000/svg" viewBox="0 0 200 200"><defs><style>.cls-1{fill:#f8c5b0;}.cls-2{fill:#f7a6a9;}.cls-3{fill:#d36f62;}</style></defs><title>morf-c-slider-2</title><circle class="cls-1" cx="100" cy="100" r="100"/><path class="cls-2" d="M597.05,1342.46c-12.57,3.58-13.31,9.52-14.64,20.31-.94,7.64-2,16.29-8,24.8-5.28,7.43-13.07,11.23-22.82,11.23a44.9,44.9,0,0,1-9.21-1,67.08,67.08,0,0,1-17.88-6.71l5.85-10.15c.25.14,24.57,13.84,34.51-.14,4.33-6.09,5.13-12.58,6-19.44,1.42-11.46,3-24.45,23.07-30.15l1-.26a6.19,6.19,0,0,0,2.08-11.06,88.93,88.93,0,1,0-50.72,162c49.06,0,89.42-40.88,88.88-89.93a89.07,89.07,0,0,0-2.53-20.14C626.59,1350.25,610.09,1338.72,597.05,1342.46Z" transform="translate(-446.13 -1292.89)"/><path class="cls-1" d="M533.64,1388.09a20.64,20.64,0,1,0-27.5-19.47c0,11.47,3.61,8,3.61,17s-8.25,20.17,6.42,36.53,28.89,18.19,36.23,12.53,10.93-11,13.52-11c5.28,0,7.27,4.89,14,4.89a6,6,0,0,0,2.91-11.46c-5.74-3.14-13.84-9.33-18.81-9.33-7.26,0-12.53,7.87-14.75,7.87s-2-3.47-3.82-8.17c-1.76-4.44-9.63-15.44-11.38-17S533.64,1388.09,533.64,1388.09Z" transform="translate(-446.13 -1292.89)"/><circle class="cls-3" cx="104.89" cy="35.5" r="11.01"/><circle class="cls-3" cx="37.36" cy="94.34" r="11.01"/><circle class="cls-3" cx="124.13" cy="158.93" r="8.15"/><circle class="cls-3" cx="159.88" cy="122.66" r="5.91"/><circle class="cls-3" cx="67.89" cy="156.69" r="5.91"/><circle class="cls-3" cx="159.88" cy="87.59" r="12.41"/><path class="cls-3" d="M609,1330a87,87,0,0,0-11.68-9.73c-.15-.12-.25-.27-.41-.38-.81-.57-1.67-1.07-2.5-1.61l-.77-.49a88.47,88.47,0,0,0-28.41-11.52c13.82,10.74,18.53,20,13.66,33.15l0,.07c-4.86,13.23,3.9,20.7,3.9,20.7h0c1.21-9.16,2.79-14.43,14.31-17.71,12.84-3.68,29,7.48,35.17,28.35l.06,0A88.44,88.44,0,0,0,609,1330Z" transform="translate(-446.13 -1292.89)"/></svg>