<svg id="Capa_1" data-name="Capa 1" xmlns="http://www.w3.org/2000/svg" viewBox="0 0 274.23 205.92"><defs><style>.cls-1{fill:#f173ac;}.cls-2{fill:none;stroke:#d9d9d9;stroke-linecap:round;stroke-linejoin:round;stroke-width:5.92px;}.cls-3{fill:#f8c5b0;}</style></defs><title>morf-m-c-1</title><path class="cls-1" d="M635.41,1369.78a5,5,0,0,0-6.4-2.53c-10.21,4.17-36.85,13.81-65.18,13.81s-55-9.64-65.18-13.81a5,5,0,0,0-6.41,2.53l-43.93,95.92a10.29,10.29,0,0,0,5.17,13.71c16.23,7.2,53.49,20.24,110.35,20.24s94.11-13,110.35-20.24a10.31,10.31,0,0,0,5.17-13.71Z" transform="translate(-409.01 -1318.11)"/><line class="cls-2" x1="2.96" y1="202.96" x2="2.96" y2="2.96"/><line class="cls-2" x1="19.24" y1="202.96" x2="2.96" y2="202.96"/><line class="cls-2" x1="26.68" y1="174.3" x2="2.96" y2="174.3"/><line class="cls-2" x1="19.24" y1="145.64" x2="2.96" y2="145.64"/><line class="cls-2" x1="26.68" y1="116.98" x2="2.96" y2="116.98"/><line class="cls-2" x1="19.24" y1="88.32" x2="2.96" y2="88.32"/><line class="cls-2" x1="26.68" y1="59.66" x2="2.96" y2="59.66"/><line class="cls-2" x1="19.24" y1="30.99" x2="2.96" y2="30.99"/><line class="cls-2" x1="260.28" y1="2.96" x2="2.96" y2="2.96"/><line class="cls-2" x1="202.96" y1="19.24" x2="202.96" y2="2.96"/><line class="cls-2" x1="260.28" y1="19.24" x2="260.28" y2="2.96"/><line class="cls-2" x1="174.3" y1="26.68" x2="174.3" y2="2.96"/><line class="cls-2" x1="231.62" y1="26.68" x2="231.62" y2="2.96"/><line class="cls-2" x1="145.64" y1="19.24" x2="145.64" y2="2.96"/><line class="cls-2" x1="116.98" y1="26.68" x2="116.98" y2="2.96"/><line class="cls-2" x1="88.32" y1="19.24" x2="88.32" y2="2.96"/><line class="cls-2" x1="59.66" y1="26.68" x2="59.66" y2="2.96"/><line class="cls-2" x1="30.99" y1="19.24" x2="30.99" y2="2.96"/><line class="cls-2" x1="221.21" y1="202.96" x2="271.27" y2="202.96"/><line class="cls-2" x1="240.61" y1="188.34" x2="271.27" y2="188.34"/><path class="cls-3" d="M552.05,1436.94a20.22,20.22,0,1,0-32.53,5.56c7.94,7.94,8,3,14.25,9.25s8.26,19.7,29.75,20.86,32.61-7.41,33.78-16.41-.06-15.19,1.74-17c3.66-3.66,8.42-1.64,13.08-6.3a5.92,5.92,0,0,0-5.93-10c-6.14,1.8-16,3.13-19.48,6.57-5,5-3.23,14.13-4.77,15.67s-3.76-1-8.31-3c-4.29-1.85-17.36-4-19.64-3.86S552.05,1436.94,552.05,1436.94Z" transform="translate(-409.01 -1318.11)"/></svg>