<svg id="Capa_1" data-name="Capa 1" xmlns="http://www.w3.org/2000/svg" viewBox="0 0 200 200"><defs><style>.cls-1{fill:#007cc3;}.cls-2{fill:#f45b6a;}</style></defs><title>morf-m-c3</title><rect class="cls-1" x="118.53" width="29.3" height="200" rx="6.14"/><rect class="cls-2" x="53.73" width="29.3" height="200" rx="6.14"/><path class="cls-2" d="M646.13,1331.34a4.83,4.83,0,0,1-5,4.81c-18.1-.76-30.92-5.59-46.79-11.58-5-1.89-10.17-3.84-16-5.88-26-9-46.79-10-61.9-2.68l-4.23-8.8c8.34-4,18-6,28.81-5.84,11.9.15,25.54,2.88,40.53,8.1,6,2.08,11.22,4,16.27,6,15.61,5.89,27.25,10.28,43.78,11a4.79,4.79,0,0,1,4.6,4.79Z" transform="translate(-446.13 -1292.89)"/><path class="cls-2" d="M641,1358.86c-21.71-1.57-34.8-13.37-37.06-33.63l9.71-1.09c1.74,15.6,10.9,23.8,28,25a4.81,4.81,0,0,1,4.51,4.78v.14A4.81,4.81,0,0,1,641,1358.86Z" transform="translate(-446.13 -1292.89)"/><path class="cls-2" d="M613.61,1325.49l-9.63-1.61c1.36-8.13,6.3-14.53,14.3-18.53,5.9-2.94,13.55-4.65,22.79-5.1a4.83,4.83,0,0,1,5.06,4.82v.13a4.84,4.84,0,0,1-4.64,4.81C629,1310.63,615.53,1314,613.61,1325.49Z" transform="translate(-446.13 -1292.89)"/><path class="cls-1" d="M581.48,1474.59l-3.21-9.22c5.87-2,11-4,16-5.88,15.87-6,28.69-10.83,46.79-11.59a4.83,4.83,0,0,1,5,4.82v.14a4.81,4.81,0,0,1-4.6,4.8c-16.53.68-28.17,5.07-43.78,11C592.7,1470.53,587.47,1472.5,581.48,1474.59Z" transform="translate(-446.13 -1292.89)"/><path class="cls-1" d="M646.13,1479a4.83,4.83,0,0,1-5.06,4.82c-9.24-.45-16.89-2.16-22.79-5.1-8-4-12.94-10.4-14.3-18.52l9.63-1.61c1.92,11.45,15.34,14.86,27.88,15.47a4.84,4.84,0,0,1,4.64,4.81Z" transform="translate(-446.13 -1292.89)"/><path class="cls-2" d="M478.65,1396.06c-1.92-11.45-15.34-14.86-27.88-15.48a4.84,4.84,0,0,1-4.64-4.81v-.13a4.84,4.84,0,0,1,5.06-4.82c9.24.45,16.89,2.16,22.79,5.11,8,4,12.94,10.39,14.3,18.52Z" transform="translate(-446.13 -1292.89)"/><path class="cls-2" d="M446.13,1404.32v-.15a4.84,4.84,0,0,1,4.64-4.8c15.89-.69,23.76-5,31.39-9.12,8-4.36,16.34-8.88,32.1-8.88v9.76c-13.28,0-19.84,3.57-27.44,7.7-8.24,4.49-17.49,9.52-35.67,10.3A4.82,4.82,0,0,1,446.13,1404.32Z" transform="translate(-446.13 -1292.89)"/><path class="cls-1" d="M552.36,1357.82h-1.05c-11.9-.15-25.54-2.88-40.53-8.1-6-2.08-11.22-4-16.27-6-15.61-5.89-27.25-10.28-43.78-11a4.8,4.8,0,0,1-4.6-4.79v-.15a4.83,4.83,0,0,1,5-4.81c18.1.75,30.92,5.59,46.79,11.58,5,1.89,10.17,3.84,16,5.88,26,9,46.79,9.94,61.9,2.68l4.23,8.8A63.56,63.56,0,0,1,552.36,1357.82Z" transform="translate(-446.13 -1292.89)"/><path class="cls-1" d="M478.61,1335c-1.74-15.6-10.9-23.8-28-25a4.82,4.82,0,0,1-4.51-4.79v-.13a4.82,4.82,0,0,1,5.13-4.82c21.71,1.58,34.8,13.38,37.06,33.64Z" transform="translate(-446.13 -1292.89)"/><path class="cls-1" d="M446.13,1354.11V1354a4.84,4.84,0,0,1,4.64-4.81c12.54-.62,26-4,27.88-15.48l9.63,1.61c-1.36,8.13-6.3,14.53-14.3,18.52-5.9,3-13.55,4.66-22.79,5.11A4.84,4.84,0,0,1,446.13,1354.11Z" transform="translate(-446.13 -1292.89)"/><path class="cls-1" d="M552.36,1476.83h-1.05c-11.9-.16-25.54-2.88-40.53-8.1-6-2.09-11.22-4.06-16.27-6-15.61-5.89-27.25-10.28-43.78-11a4.81,4.81,0,0,1-4.6-4.8v-.14a4.83,4.83,0,0,1,5-4.82c18.1.76,30.92,5.6,46.79,11.59,5,1.88,10.17,3.83,16,5.88,26,9,46.79,9.94,61.9,2.68l4.23,8.8C572.05,1474.87,562.72,1476.83,552.36,1476.83Z" transform="translate(-446.13 -1292.89)"/><path class="cls-1" d="M478.61,1454.05c-1.74-15.59-10.9-23.8-28-25a4.83,4.83,0,0,1-4.51-4.79v-.13a4.82,4.82,0,0,1,5.13-4.82c21.71,1.57,34.8,13.38,37.06,33.64Z" transform="translate(-446.13 -1292.89)"/><path class="cls-1" d="M446.13,1473.12V1473a4.82,4.82,0,0,1,4.64-4.8c12.54-.62,26-4,27.88-15.48l9.63,1.61c-1.36,8.12-6.3,14.53-14.3,18.52-5.9,2.94-13.55,4.65-22.79,5.1A4.83,4.83,0,0,1,446.13,1473.12Z" transform="translate(-446.13 -1292.89)"/><path class="cls-1" d="M641,1436.08c-21.71-1.58-34.8-13.38-37.06-33.64l9.71-1.09c1.74,15.6,10.9,23.8,28,25a4.82,4.82,0,0,1,4.51,4.79v.13A4.82,4.82,0,0,1,641,1436.08Z" transform="translate(-446.13 -1292.89)"/><path class="cls-1" d="M613.61,1402.7l-9.63-1.61c1.36-8.13,6.3-14.53,14.3-18.52,5.9-3,13.55-4.66,22.79-5.1a4.83,4.83,0,0,1,5.06,4.81v.13a4.84,4.84,0,0,1-4.64,4.81C629,1387.84,615.53,1391.25,613.61,1402.7Z" transform="translate(-446.13 -1292.89)"/><path class="cls-1" d="M646.13,1411a4.82,4.82,0,0,1-5,4.81c-18.17-.78-27.43-5.81-35.67-10.3-7.6-4.13-14.16-7.7-27.44-7.7V1388c15.76,0,24.07,4.52,32.1,8.88,7.63,4.15,15.5,8.43,31.39,9.12a4.84,4.84,0,0,1,4.64,4.81Z" transform="translate(-446.13 -1292.89)"/></svg>