<svg width="125" height="55" viewBox="0 0 125 55" fill="none" xmlns="http://www.w3.org/2000/svg">
<g clip-path="url(#clip0_800_216)">
<path d="M122.924 55C123.737 55 124.396 54.3408 124.396 53.5278C124.396 52.7147 123.737 52.0555 122.924 52.0555C122.111 52.0555 121.452 52.7147 121.452 53.5278C121.452 54.3408 122.111 55 122.924 55Z" fill="#007CC3"/>
<path d="M105.572 55C106.385 55 107.044 54.3408 107.044 53.5278C107.044 52.7147 106.385 52.0555 105.572 52.0555C104.759 52.0555 104.1 52.7147 104.1 53.5278C104.1 54.3408 104.759 55 105.572 55Z" fill="#007CC3"/>
<path d="M88.2315 55C89.0446 55 89.7037 54.3408 89.7037 53.5278C89.7037 52.7147 89.0446 52.0555 88.2315 52.0555C87.4184 52.0555 86.7593 52.7147 86.7593 53.5278C86.7593 54.3408 87.4184 55 88.2315 55Z" fill="#007CC3"/>
<path d="M70.8797 55C71.6928 55 72.3519 54.3408 72.3519 53.5278C72.3519 52.7147 71.6928 52.0555 70.8797 52.0555C70.0666 52.0555 69.4075 52.7147 69.4075 53.5278C69.4075 54.3408 70.0666 55 70.8797 55Z" fill="#007CC3"/>
<path d="M53.5279 55C54.341 55 55.0001 54.3408 55.0001 53.5278C55.0001 52.7147 54.341 52.0555 53.5279 52.0555C52.7148 52.0555 52.0557 52.7147 52.0557 53.5278C52.0557 54.3408 52.7148 55 53.5279 55Z" fill="#007CC3"/>
<path d="M36.1758 55C36.9889 55 37.648 54.3408 37.648 53.5278C37.648 52.7147 36.9889 52.0555 36.1758 52.0555C35.3627 52.0555 34.7036 52.7147 34.7036 53.5278C34.7036 54.3408 35.3627 55 36.1758 55Z" fill="#007CC3"/>
<path d="M18.824 55C19.6371 55 20.2962 54.3408 20.2962 53.5278C20.2962 52.7147 19.6371 52.0555 18.824 52.0555C18.0109 52.0555 17.3518 52.7147 17.3518 53.5278C17.3518 54.3408 18.0109 55 18.824 55Z" fill="#007CC3"/>
<path d="M1.47221 55C2.28529 55 2.94442 54.3408 2.94442 53.5278C2.94442 52.7147 2.28529 52.0555 1.47221 52.0555C0.659131 52.0555 0 52.7147 0 53.5278C0 54.3408 0.659131 55 1.47221 55Z" fill="#007CC3"/>
<path d="M122.924 37.6482C123.737 37.6482 124.396 36.989 124.396 36.1759C124.396 35.3629 123.737 34.7037 122.924 34.7037C122.111 34.7037 121.452 35.3629 121.452 36.1759C121.452 36.989 122.111 37.6482 122.924 37.6482Z" fill="#007CC3"/>
<path d="M105.572 37.6482C106.385 37.6482 107.044 36.989 107.044 36.1759C107.044 35.3629 106.385 34.7037 105.572 34.7037C104.759 34.7037 104.1 35.3629 104.1 36.1759C104.1 36.989 104.759 37.6482 105.572 37.6482Z" fill="#007CC3"/>
<path d="M88.2315 37.6482C89.0446 37.6482 89.7037 36.989 89.7037 36.1759C89.7037 35.3629 89.0446 34.7037 88.2315 34.7037C87.4184 34.7037 86.7593 35.3629 86.7593 36.1759C86.7593 36.989 87.4184 37.6482 88.2315 37.6482Z" fill="#007CC3"/>
<path d="M70.8797 37.6482C71.6928 37.6482 72.3519 36.989 72.3519 36.1759C72.3519 35.3629 71.6928 34.7037 70.8797 34.7037C70.0666 34.7037 69.4075 35.3629 69.4075 36.1759C69.4075 36.989 70.0666 37.6482 70.8797 37.6482Z" fill="#007CC3"/>
<path d="M53.5279 37.6482C54.341 37.6482 55.0001 36.989 55.0001 36.1759C55.0001 35.3629 54.341 34.7037 53.5279 34.7037C52.7148 34.7037 52.0557 35.3629 52.0557 36.1759C52.0557 36.989 52.7148 37.6482 53.5279 37.6482Z" fill="#007CC3"/>
<path d="M36.1758 37.6482C36.9889 37.6482 37.648 36.989 37.648 36.1759C37.648 35.3629 36.9889 34.7037 36.1758 34.7037C35.3627 34.7037 34.7036 35.3629 34.7036 36.1759C34.7036 36.989 35.3627 37.6482 36.1758 37.6482Z" fill="#007CC3"/>
<path d="M18.824 37.6482C19.6371 37.6482 20.2962 36.989 20.2962 36.1759C20.2962 35.3629 19.6371 34.7037 18.824 34.7037C18.0109 34.7037 17.3518 35.3629 17.3518 36.1759C17.3518 36.989 18.0109 37.6482 18.824 37.6482Z" fill="#007CC3"/>
<path d="M1.47221 37.6482C2.28529 37.6482 2.94442 36.989 2.94442 36.1759C2.94442 35.3629 2.28529 34.7037 1.47221 34.7037C0.659131 34.7037 0 35.3629 0 36.1759C0 36.989 0.659131 37.6482 1.47221 37.6482Z" fill="#007CC3"/>
<path d="M122.924 20.2962C123.737 20.2962 124.396 19.6371 124.396 18.824C124.396 18.0109 123.737 17.3518 122.924 17.3518C122.111 17.3518 121.452 18.0109 121.452 18.824C121.452 19.6371 122.111 20.2962 122.924 20.2962Z" fill="white"/>
<path d="M105.572 20.2962C106.385 20.2962 107.044 19.6371 107.044 18.824C107.044 18.0109 106.385 17.3518 105.572 17.3518C104.759 17.3518 104.1 18.0109 104.1 18.824C104.1 19.6371 104.759 20.2962 105.572 20.2962Z" fill="white"/>
<path d="M88.2315 20.2962C89.0446 20.2962 89.7037 19.6371 89.7037 18.824C89.7037 18.0109 89.0446 17.3518 88.2315 17.3518C87.4184 17.3518 86.7593 18.0109 86.7593 18.824C86.7593 19.6371 87.4184 20.2962 88.2315 20.2962Z" fill="white"/>
<path d="M70.8797 20.2962C71.6928 20.2962 72.3519 19.6371 72.3519 18.824C72.3519 18.0109 71.6928 17.3518 70.8797 17.3518C70.0666 17.3518 69.4075 18.0109 69.4075 18.824C69.4075 19.6371 70.0666 20.2962 70.8797 20.2962Z" fill="white"/>
<path d="M53.5279 20.2962C54.341 20.2962 55.0001 19.6371 55.0001 18.824C55.0001 18.0109 54.341 17.3518 53.5279 17.3518C52.7148 17.3518 52.0557 18.0109 52.0557 18.824C52.0557 19.6371 52.7148 20.2962 53.5279 20.2962Z" fill="white"/>
<path d="M36.1758 20.2962C36.9889 20.2962 37.648 19.6371 37.648 18.824C37.648 18.0109 36.9889 17.3518 36.1758 17.3518C35.3627 17.3518 34.7036 18.0109 34.7036 18.824C34.7036 19.6371 35.3627 20.2962 36.1758 20.2962Z" fill="white"/>
<path d="M18.824 20.2962C19.6371 20.2962 20.2962 19.6371 20.2962 18.824C20.2962 18.0109 19.6371 17.3518 18.824 17.3518C18.0109 17.3518 17.3518 18.0109 17.3518 18.824C17.3518 19.6371 18.0109 20.2962 18.824 20.2962Z" fill="white"/>
<path d="M1.47221 20.2962C2.28529 20.2962 2.94442 19.6371 2.94442 18.824C2.94442 18.0109 2.28529 17.3518 1.47221 17.3518C0.659131 17.3518 0 18.0109 0 18.824C0 19.6371 0.659131 20.2962 1.47221 20.2962Z" fill="white"/>
<path d="M122.924 2.94442C123.737 2.94442 124.396 2.28529 124.396 1.47221C124.396 0.659131 123.737 0 122.924 0C122.111 0 121.452 0.659131 121.452 1.47221C121.452 2.28529 122.111 2.94442 122.924 2.94442Z" fill="white"/>
<path d="M105.572 2.94442C106.385 2.94442 107.044 2.28529 107.044 1.47221C107.044 0.659131 106.385 0 105.572 0C104.759 0 104.1 0.659131 104.1 1.47221C104.1 2.28529 104.759 2.94442 105.572 2.94442Z" fill="white"/>
<path d="M88.2315 2.94442C89.0446 2.94442 89.7037 2.28529 89.7037 1.47221C89.7037 0.659131 89.0446 0 88.2315 0C87.4184 0 86.7593 0.659131 86.7593 1.47221C86.7593 2.28529 87.4184 2.94442 88.2315 2.94442Z" fill="white"/>
<path d="M70.8797 2.94442C71.6928 2.94442 72.3519 2.28529 72.3519 1.47221C72.3519 0.659131 71.6928 0 70.8797 0C70.0666 0 69.4075 0.659131 69.4075 1.47221C69.4075 2.28529 70.0666 2.94442 70.8797 2.94442Z" fill="white"/>
<path d="M53.5279 2.94442C54.341 2.94442 55.0001 2.28529 55.0001 1.47221C55.0001 0.659131 54.341 0 53.5279 0C52.7148 0 52.0557 0.659131 52.0557 1.47221C52.0557 2.28529 52.7148 2.94442 53.5279 2.94442Z" fill="white"/>
<path d="M36.1758 2.94442C36.9889 2.94442 37.648 2.28529 37.648 1.47221C37.648 0.659131 36.9889 0 36.1758 0C35.3627 0 34.7036 0.659131 34.7036 1.47221C34.7036 2.28529 35.3627 2.94442 36.1758 2.94442Z" fill="white"/>
<path d="M18.824 2.94442C19.6371 2.94442 20.2962 2.28529 20.2962 1.47221C20.2962 0.659131 19.6371 0 18.824 0C18.0109 0 17.3518 0.659131 17.3518 1.47221C17.3518 2.28529 18.0109 2.94442 18.824 2.94442Z" fill="white"/>
<path d="M1.47221 2.94442C2.28529 2.94442 2.94442 2.28529 2.94442 1.47221C2.94442 0.659131 2.28529 0 1.47221 0C0.659131 0 0 0.659131 0 1.47221C0 2.28529 0.659131 2.94442 1.47221 2.94442Z" fill="white"/>
</g>
<defs>
<clipPath id="clip0_800_216">
<rect width="124.407" height="55" fill="white"/>
</clipPath>
</defs>
</svg>
