<svg id="Capa_1" data-name="Capa 1" xmlns="http://www.w3.org/2000/svg" viewBox="0 0 270.68 202.37"><defs><style>.cls-1{fill:#f173ac;}.cls-2{fill:none;stroke:#d9d9d9;stroke-linecap:round;stroke-linejoin:round;stroke-width:2.37px;}.cls-3{fill:#f8c5b0;}</style></defs><title>pre-m-c-1</title><path class="cls-1" d="M635.39,1294.77a5,5,0,0,0-6.4-2.53c-10.21,4.17-36.85,13.81-65.18,13.81s-55-9.64-65.18-13.81a5,5,0,0,0-6.41,2.53l-43.93,95.92a10.29,10.29,0,0,0,5.17,13.71c16.23,7.2,53.49,20.24,110.35,20.24s94.11-13,110.35-20.24a10.31,10.31,0,0,0,5.17-13.71Z" transform="translate(-410.77 -1244.87)"/><line class="cls-2" x1="1.18" y1="201.18" x2="1.18" y2="1.18"/><line class="cls-2" x1="17.46" y1="201.18" x2="1.18" y2="201.18"/><line class="cls-2" x1="24.91" y1="172.52" x2="1.18" y2="172.52"/><line class="cls-2" x1="17.46" y1="143.86" x2="1.18" y2="143.86"/><line class="cls-2" x1="24.91" y1="115.2" x2="1.18" y2="115.2"/><line class="cls-2" x1="17.46" y1="86.54" x2="1.18" y2="86.54"/><line class="cls-2" x1="24.91" y1="57.88" x2="1.18" y2="57.88"/><line class="cls-2" x1="17.46" y1="29.22" x2="1.18" y2="29.22"/><line class="cls-2" x1="258.51" y1="1.18" x2="1.18" y2="1.18"/><line class="cls-2" x1="201.18" y1="17.46" x2="201.18" y2="1.18"/><line class="cls-2" x1="258.51" y1="17.46" x2="258.51" y2="1.18"/><line class="cls-2" x1="172.52" y1="24.91" x2="172.52" y2="1.18"/><line class="cls-2" x1="229.84" y1="24.91" x2="229.84" y2="1.18"/><line class="cls-2" x1="143.86" y1="17.46" x2="143.86" y2="1.18"/><line class="cls-2" x1="115.2" y1="24.91" x2="115.2" y2="1.18"/><line class="cls-2" x1="86.54" y1="17.46" x2="86.54" y2="1.18"/><line class="cls-2" x1="57.88" y1="24.91" x2="57.88" y2="1.18"/><line class="cls-2" x1="29.22" y1="17.46" x2="29.22" y2="1.18"/><line class="cls-2" x1="219.44" y1="201.18" x2="269.5" y2="201.18"/><line class="cls-2" x1="238.83" y1="186.57" x2="269.5" y2="186.57"/><path class="cls-3" d="M552,1361.93a20.22,20.22,0,1,0-32.53,5.56c7.94,7.94,8,3,14.25,9.25s8.26,19.7,29.75,20.86,32.61-7.41,33.78-16.41,0-15.19,1.75-17c3.65-3.66,8.41-1.64,13.07-6.3a5.92,5.92,0,0,0-5.93-10c-6.14,1.8-16,3.13-19.48,6.57-5,5-3.23,14.13-4.76,15.67s-3.77-1-8.32-3c-4.28-1.85-17.36-4-19.64-3.86S552,1361.93,552,1361.93Z" transform="translate(-410.77 -1244.87)"/></svg>