<svg id="Capa_1" data-name="Capa 1" xmlns="http://www.w3.org/2000/svg" viewBox="0 0 200 200"><defs><style>.cls-1{fill:#f8c5b0;}.cls-2{fill:#f7a6a9;}.cls-3{fill:#d36f62;}</style></defs><title>pre-m-c-3</title><circle class="cls-1" cx="100" cy="100" r="100"/><path class="cls-2" d="M597,1295.62c-12.58,3.58-13.32,9.52-14.65,20.31-.94,7.64-2,16.3-8,24.81-5.28,7.42-13.07,11.22-22.81,11.22a44.88,44.88,0,0,1-9.22-1,67.3,67.3,0,0,1-17.88-6.72l5.85-10.15c.25.14,24.57,13.85,34.51-.13,4.33-6.1,5.13-12.58,6-19.45,1.42-11.46,3-24.45,23.07-30.15l1-.26a6.19,6.19,0,0,0,2.08-11.06,88.93,88.93,0,1,0-50.72,162c49.06,0,89.42-40.87,88.88-89.92a88.59,88.59,0,0,0-2.53-20.15C626.57,1303.42,610.07,1291.89,597,1295.62Z" transform="translate(-446.11 -1246.06)"/><path class="cls-1" d="M533.62,1341.25a20.64,20.64,0,1,0-27.5-19.46c0,11.46,3.61,7.94,3.61,17s-8.25,20.18,6.42,36.53,28.89,18.19,36.23,12.54,10.93-11,13.53-11c5.27,0,7.26,4.89,14,4.89a6,6,0,0,0,2.91-11.46c-5.74-3.13-13.84-9.32-18.81-9.32-7.26,0-12.53,7.87-14.75,7.87s-2-3.48-3.82-8.18c-1.75-4.43-9.63-15.44-11.38-17S533.62,1341.25,533.62,1341.25Z" transform="translate(-446.11 -1246.06)"/><circle class="cls-3" cx="104.89" cy="35.5" r="11.01"/><circle class="cls-3" cx="37.36" cy="94.34" r="11.01"/><circle class="cls-3" cx="124.13" cy="158.93" r="8.15"/><circle class="cls-3" cx="159.88" cy="122.66" r="5.91"/><circle class="cls-3" cx="67.89" cy="156.69" r="5.91"/><circle class="cls-3" cx="159.88" cy="87.59" r="12.41"/></svg>