<svg id="Capa_1" data-name="Capa 1" xmlns="http://www.w3.org/2000/svg" viewBox="0 0 155.32 200"><defs><style>.cls-1{fill:#d9d9d9;}.cls-2{fill:#007cc3;}.cls-3{fill:#fff;}.cls-4{fill:#bfbfbf;}.cls-5{fill:#f173ac;}</style></defs><title>pre-m-c-2</title><rect class="cls-1" y="11.72" width="155.32" height="188.28" rx="2.67"/><circle class="cls-2" cx="77.66" cy="22.8" r="22.8"/><path class="cls-3" d="M535,1266.4h8.64v-8.63h4.87v8.63h8.67v4.88h-8.67V1280h-4.87v-8.67H535Z" transform="translate(-468.45 -1246.06)"/><circle class="cls-4" cx="25.62" cy="99.03" r="10.78"/><rect class="cls-4" x="46.04" y="82.37" width="94.44" height="12.64" rx="2.53"/><rect class="cls-4" x="46.04" y="101.11" width="94.44" height="12.64" rx="2.53"/><circle class="cls-4" cx="25.62" cy="148.52" r="10.78"/><rect class="cls-4" x="46.04" y="131.86" width="49.17" height="12.64" rx="2.53"/><rect class="cls-4" x="46.04" y="150.6" width="49.17" height="12.64" rx="2.53"/><path class="cls-5" d="M573.64,1385.78a9.22,9.22,0,0,1,4.39-6.46l.34-.2a9.45,9.45,0,0,1,9.14,0,7.56,7.56,0,0,1,.93.58,9.87,9.87,0,0,1,2.78,3.06,10,10,0,0,1,2.77-3.06,9.48,9.48,0,0,1,14.8,6.12,11.49,11.49,0,0,1-1.36,7.33,30.66,30.66,0,0,1-5.4,7c-2.91,3-6.15,5.64-9.32,8.35l-.66.57a1.29,1.29,0,0,1-1.67,0l-.66-.57c-3.16-2.71-6.41-5.34-9.32-8.35-.69-.72-1.37-1.44-2-2.19l-.34-.42a25.52,25.52,0,0,1-2.33-3.14c-.25-.39-.48-.8-.7-1.21A11.49,11.49,0,0,1,573.64,1385.78Z" transform="translate(-468.45 -1246.06)"/></svg>