<svg id="Capa_1" data-name="Capa 1" xmlns="http://www.w3.org/2000/svg" viewBox="0 0 267.15 203.15"><defs><style>.cls-1{fill:#f173ac;}.cls-2{fill:#d9d9d9;}.cls-3{fill:none;stroke:#d9d9d9;stroke-linecap:round;stroke-linejoin:round;stroke-width:6.3px;}.cls-4{fill:#f8c5b0;}</style></defs><title>prueba-9</title><path class="cls-1" d="M626.28,1300.86a5.57,5.57,0,0,0-7.17-2.83c-11.43,4.67-41.27,15.47-73,15.47s-61.57-10.8-73-15.47a5.58,5.58,0,0,0-7.18,2.83l-49.2,107.43a11.53,11.53,0,0,0,5.79,15.35c18.18,8.06,59.9,22.67,123.58,22.67s105.4-14.61,123.58-22.67a11.52,11.52,0,0,0,5.79-15.35Z" transform="translate(-412.53 -1243.16)"/><path class="cls-2" d="M676.54,1249.46H416.32a3.15,3.15,0,0,1,0-6.3H676.54a3.15,3.15,0,1,1,0,6.3Z" transform="translate(-412.53 -1243.16)"/><line class="cls-3" x1="206.04" y1="21.38" x2="206.04" y2="3.15"/><line class="cls-3" x1="264" y1="21.38" x2="264" y2="3.15"/><line class="cls-3" x1="177.05" y1="29.72" x2="177.05" y2="3.15"/><line class="cls-3" x1="235.02" y1="29.72" x2="235.02" y2="3.15"/><line class="cls-3" x1="148.07" y1="21.38" x2="148.07" y2="3.15"/><line class="cls-3" x1="119.08" y1="29.72" x2="119.08" y2="3.15"/><line class="cls-3" x1="90.1" y1="21.38" x2="90.1" y2="3.15"/><line class="cls-3" x1="61.12" y1="29.72" x2="61.12" y2="3.15"/><line class="cls-3" x1="3.15" y1="29.72" x2="3.15" y2="3.15"/><line class="cls-3" x1="32.13" y1="21.38" x2="32.13" y2="3.15"/><path class="cls-4" d="M532.92,1376.08a22.64,22.64,0,1,0-36.43,6.23c8.89,8.89,9,3.36,16,10.36s9.25,22,33.32,23.36,36.52-8.3,37.83-18.38-.06-17,1.95-19c4.09-4.09,9.43-1.84,14.65-7.06a6.63,6.63,0,0,0-6.64-11.15c-6.88,2-18,3.5-21.82,7.36-5.63,5.63-3.62,15.83-5.34,17.55s-4.21-1.18-9.31-3.38c-4.8-2.08-19.44-4.51-22-4.33S532.92,1376.08,532.92,1376.08Z" transform="translate(-412.53 -1243.16)"/></svg>