<svg id="Capa_1" data-name="Capa 1" xmlns="http://www.w3.org/2000/svg" viewBox="0 0 200 200"><defs><style>.cls-1{fill:#f8c5b0;}.cls-2{fill:#f7a6a9;}.cls-3{fill:#d36f62;}</style></defs><title>pre_m-slider-1</title><path class="cls-1" d="M546.11,1446.06a100,100,0,1,0-100-100,100,100,0,0,0,100,100" transform="translate(-446.11 -1246.06)"/><path class="cls-2" d="M634.94,1345.55c0-.16,0-.33,0-.49,0-.46,0-.91-.05-1.36,0-1-.06-2.09-.12-3.12,0-.61-.09-1.21-.14-1.82-.09-1-.19-2.1-.31-3.15-.06-.54-.13-1.08-.21-1.61-.15-1.14-.33-2.27-.52-3.39-.08-.43-.15-.87-.24-1.3-.24-1.27-.51-2.52-.8-3.77,0-.21-.09-.42-.14-.63,0,0,0-.08,0-.12-6-21.41-22.41-32.89-35.42-29.17-12.58,3.58-13.31,9.52-14.64,20.31-.71,5.78-1.51,12.13-4.46,18.56l-8.35-12.18c.52-2.55.85-5.15,1.18-7.81,1.41-11.46,3-24.45,23.06-30.15l1-.26a6.18,6.18,0,0,0,2.19-11s-.06-.07-.1-.1l-.36-.23q-2.4-1.65-4.9-3.14l-.92-.53c-1.49-.87-3-1.7-4.57-2.48l-.93-.48q-2.61-1.28-5.33-2.39l-1.16-.46c-1.64-.64-3.3-1.25-5-1.8-.27-.09-.54-.19-.82-.27-1.88-.6-3.79-1.12-5.71-1.59l-1.35-.3c-1.82-.42-3.66-.79-5.52-1.09-.18,0-.35-.06-.53-.09-2-.31-4-.53-6.05-.7l-1.46-.11c-2.06-.14-4.12-.24-6.22-.24h0a88.7,88.7,0,0,0-88.45,80.72c0,.22,0,.44-.05.65-.11,1.19-.19,2.39-.24,3.59,0,.66,0,1.32-.05,2s0,1.32,0,2c0,.16,0,.33,0,.5s0,.33,0,.49c0,.46,0,.91.06,1.36q0,1.58.12,3.12c0,.61.09,1.22.14,1.82.09,1.05.18,2.11.31,3.15.06.54.13,1.08.2,1.61.16,1.14.33,2.27.53,3.39.08.44.15.87.23,1.3.25,1.27.52,2.52.81,3.77.05.21.09.42.14.63a.56.56,0,0,0,0,.12c6,21.41,22.41,32.9,35.42,29.17,12.58-3.58,13.31-9.52,14.64-20.31.94-7.64,2-16.3,8.06-24.81.46-.64.94-1.26,1.44-1.85l3.37,20c-.56,2.63-.9,5.32-1.24,8.08-1.41,11.46-3,24.45-23.06,30.15l-1,.26a6.18,6.18,0,0,0-2.2,11c.05,0,.07.07.11.1l.36.23q2.4,1.65,4.89,3.14c.31.19.62.36.92.53q2.25,1.3,4.57,2.48l.93.48q2.63,1.27,5.34,2.39l1.15.46c1.64.64,3.31,1.25,5,1.8l.81.27c1.88.6,3.79,1.12,5.72,1.59l1.34.31c1.83.41,3.67.78,5.54,1.08l.51.09c2,.31,4,.53,6.06.7.48,0,1,.08,1.46.11,2,.15,4.12.24,6.21.24h.05a88.7,88.7,0,0,0,88.45-80.72c0-.22,0-.43.05-.64.1-1.2.19-2.39.24-3.6,0-.66,0-1.32,0-2s.05-1.32.05-2C635,1345.89,634.94,1345.72,634.94,1345.55Z" transform="translate(-446.11 -1246.06)"/><circle class="cls-3" cx="90.69" cy="31.2" r="11.01"/><circle class="cls-3" cx="28.97" cy="94.34" r="11.01"/><circle class="cls-3" cx="124.13" cy="165.94" r="8.15"/><circle class="cls-3" cx="165.79" cy="126.76" r="5.91"/><circle class="cls-3" cx="72.98" cy="169.19" r="5.91"/><circle class="cls-3" cx="168.61" cy="86.99" r="12.41"/><path class="cls-1" d="M571.65,1337.73a20.64,20.64,0,1,0,27.5,19.47c0-11.47-3.61-8-3.61-17s8.26-20.18-6.42-36.53-28.89-18.19-36.22-12.54-10.93,11-13.53,11c-5.28,0-7.26-4.89-14-4.89a6,6,0,0,0-2.9,11.46c5.73,3.14,13.83,9.33,18.8,9.33,7.26,0,12.53-7.88,14.75-7.88s2,3.48,3.82,8.18c1.76,4.43,9.63,15.44,11.39,17S571.65,1337.73,571.65,1337.73Z" transform="translate(-446.11 -1246.06)"/><path class="cls-1" d="M520.57,1354.38a20.64,20.64,0,1,0-27.5-19.47c0,11.47,3.61,7.95,3.61,17s-8.25,20.18,6.42,36.53S532,1406.6,539.33,1401s10.93-11,13.52-11c5.28,0,7.26,4.89,14,4.89a6,6,0,0,0,2.9-11.46c-5.73-3.13-13.83-9.32-18.8-9.32-7.26,0-12.53,7.87-14.75,7.87s-2-3.48-3.82-8.18c-1.76-4.43-9.63-15.44-11.39-17S520.57,1354.38,520.57,1354.38Z" transform="translate(-446.11 -1246.06)"/></svg>