<?xml version="1.0" encoding="utf-8"?>
<!-- Generator: Adobe Illustrator 24.1.1, SVG Export Plug-In . SVG Version: 6.00 Build 0)  -->
<svg version="1.1" id="Capa_1" xmlns="http://www.w3.org/2000/svg" xmlns:xlink="http://www.w3.org/1999/xlink" x="0px" y="0px"
	 viewBox="0 0 121.11 121.11" style="enable-background:new 0 0 121.11 121.11;" xml:space="preserve">
<style type="text/css">
	.st0{fill:#BFBFBF;}
	.st1{fill:#D9D9D9;}
	.st2{fill:#F45B6A;}
	.st3{fill:#FFFFFF;}
</style>
<g>
	<g>
		<g>
			<g>
				<path class="st0" d="M31.96,31.96l6.56-6.56c0.99-0.99,2.46-1.35,3.8-0.91l16.4,5.38l-7.69,15.58L29.87,58.72l-5.38-16.4
					c-0.44-1.34-0.09-2.81,0.91-3.8L31.96,31.96"/>
			</g>
			<g>
				<path class="st0" d="M89.16,89.16l6.56-6.56c0.99-0.99,1.35-2.46,0.91-3.8l-5.38-16.4l-19.84,9.01L62.4,91.25l16.4,5.38
					c1.34,0.44,2.81,0.09,3.8-0.91L89.16,89.16"/>
			</g>
			<path class="st1" d="M76.49,76.49c0,0-3.19,3.19-8.96,8.96c-10.77,10.77-11.11,19.01-19.36,27.26
				c-8.25,8.25-25.72,13.86-39.67-0.1C-5.46,98.66,0.16,81.19,8.4,72.94c8.25-8.25,16.48-8.58,27.26-19.36
				c5.77-5.77,8.96-8.96,8.96-8.96s3.19-3.19,8.96-8.96C64.36,24.89,64.69,16.65,72.94,8.4s25.72-13.86,39.67,0.1
				c13.96,13.96,8.34,31.43,0.1,39.67s-16.48,8.58-27.26,19.36C79.68,73.3,76.49,76.49,76.49,76.49z"/>
			<g>
				<path class="st0" d="M17.32,103.79c5.18,5.18,13.49,5.38,18.91,0.59c0.35-0.31,0.37-0.85,0.03-1.18l-3.76-3.76
					c-0.29-0.29-0.75-0.33-1.07-0.07c-2.7,2.2-6.7,2.04-9.21-0.48c-2.52-2.52-2.68-6.51-0.48-9.21c0.26-0.32,0.22-0.78-0.07-1.07
					l-3.76-3.76c-0.33-0.33-0.87-0.32-1.18,0.03C11.94,90.3,12.14,98.61,17.32,103.79z"/>
			</g>
			<g>
				<path class="st0" d="M84.85,17.91l3.76,3.76c0.29,0.29,0.75,0.33,1.07,0.07c2.7-2.2,6.7-2.04,9.21,0.48s2.68,6.51,0.48,9.21
					c-0.26,0.32-0.22,0.78,0.07,1.07l3.76,3.76c0.33,0.33,0.87,0.32,1.18-0.03c4.79-5.42,4.59-13.73-0.59-18.91
					c-5.18-5.18-13.49-5.38-18.91-0.59C84.53,17.04,84.51,17.58,84.85,17.91z"/>
			</g>
		</g>
		<g>
			<path class="st2" d="M72.18,48.94c-0.44,12.25-4.49,21.62-9.75,23.81c-3.88,1.62-7.07,0.81-7.07,0.81
				c-2.48-0.63-4.11-2.11-4.88-2.93c-0.81-0.77-2.3-2.4-2.93-4.88c0,0-0.81-3.19,0.81-7.07C50.56,53.43,59.93,49.38,72.18,48.94z"/>
		</g>
	</g>
	<g>
		<g>
			<circle class="st3" cx="60.56" cy="60.56" r="19.04"/>
		</g>
		<g>
			<circle class="st2" cx="60.56" cy="60.56" r="16.9"/>
		</g>
		<g>
			<g>
				<path class="st3" d="M58.69,52.01h3.74l-0.66,11.19h-2.42L58.69,52.01z M62.3,69.11h-3.49v-3.49h3.49V69.11z"/>
			</g>
		</g>
	</g>
</g>
</svg>
