<svg width="68" height="65" viewBox="0 0 68 65" fill="none" xmlns="http://www.w3.org/2000/svg">
<path d="M34.5648 64.0545C34.128 64.0545 33.7457 63.7437 33.7457 63.2776C33.7457 62.8633 34.0733 62.5007 34.5648 62.5007C35.2747 62.5007 35.9845 62.4489 36.6944 62.3971C37.1312 62.3453 37.5681 62.6561 37.5681 63.0704C37.6227 63.4848 37.295 63.8991 36.8582 63.8991C36.0391 64.0027 35.3293 64.0545 34.5648 64.0545ZM30.1964 63.8991C30.1418 63.8991 30.1418 63.8991 30.0872 63.8991C29.3227 63.8473 28.6129 63.7437 27.8484 63.5883C27.4116 63.5365 27.0839 63.1222 27.1932 62.7079C27.2478 62.2935 27.6846 61.9828 28.1214 62.0864C28.8313 62.19 29.5412 62.2935 30.251 62.3453C30.6879 62.3971 31.0155 62.7597 30.9609 63.174C30.9609 63.5883 30.5786 63.8991 30.1964 63.8991ZM41.0081 63.2258C40.6259 63.2258 40.2983 62.9668 40.1891 62.6043C40.0799 62.19 40.3529 61.7756 40.7897 61.672C41.4996 61.5167 42.1549 61.3613 42.8647 61.1541C43.3015 61.0505 43.7384 61.2577 43.9022 61.672C44.066 62.0864 43.793 62.5007 43.3562 62.6561C42.6463 62.8633 41.9364 63.0704 41.172 63.2258C41.172 63.2258 41.0628 63.2258 41.0081 63.2258ZM23.7531 62.6561C23.6985 62.6561 23.5892 62.6561 23.5346 62.6043C22.8248 62.3971 22.1149 62.1382 21.4051 61.8792C20.9682 61.7238 20.7498 61.2577 20.9136 60.8952C21.0774 60.4808 21.5689 60.2737 21.9511 60.429C22.6064 60.688 23.2616 60.8952 23.9715 61.1023C24.4083 61.2059 24.6267 61.672 24.5175 62.0864C24.4629 62.4489 24.1353 62.6561 23.7531 62.6561ZM47.2331 61.2577C46.9055 61.2577 46.6324 61.1023 46.4686 60.7916C46.3048 60.3772 46.4686 59.9629 46.8509 59.7557C47.5061 59.4968 48.1068 59.186 48.762 58.8235C49.1443 58.6163 49.6357 58.7717 49.8541 59.1342C50.0725 59.4968 49.9087 59.9629 49.5265 60.1701C48.8712 60.5326 48.216 60.8434 47.5061 61.1023C47.4515 61.2059 47.3423 61.2577 47.2331 61.2577ZM17.7465 60.2219C17.6373 60.2219 17.4735 60.1701 17.3643 60.1183C16.709 59.7557 16.0538 59.3932 15.4531 59.0307C15.0709 58.8235 14.9617 58.3056 15.1801 57.943C15.3985 57.5805 15.9446 57.4769 16.3268 57.6841C16.9275 58.0466 17.5281 58.4092 18.1288 58.7199C18.511 58.9271 18.6748 59.3932 18.4564 59.7557C18.3472 60.0665 18.0742 60.2219 17.7465 60.2219ZM52.8574 58.0984C52.5844 58.0984 52.3659 57.9948 52.2021 57.7877C51.9291 57.4251 52.0383 56.959 52.3659 56.7C52.912 56.2857 53.5126 55.8714 54.0587 55.457C54.3863 55.1981 54.9324 55.1981 55.2054 55.5606C55.4784 55.8714 55.4784 56.3893 55.0962 56.6482C54.5501 57.1144 53.9495 57.5287 53.3488 57.943C53.185 58.0466 53.0212 58.0984 52.8574 58.0984ZM12.3953 56.7C12.2315 56.7 12.013 56.6482 11.8492 56.4929C11.3032 56.0267 10.7025 55.5606 10.2111 55.0427C9.88346 54.7319 9.88346 54.2658 10.2111 53.9551C10.5387 53.6443 11.0302 53.6443 11.3578 53.9551C11.8492 54.4212 12.3953 54.8873 12.9413 55.3017C13.2689 55.5606 13.3236 56.0785 13.0505 56.3893C12.8321 56.5965 12.6137 56.7 12.3953 56.7ZM57.7172 53.9551C57.4988 53.9551 57.335 53.9033 57.1711 53.7479C56.8435 53.4372 56.7889 52.971 57.1165 52.6603C57.608 52.1424 58.0448 51.6244 58.4817 51.1065C58.7547 50.7958 59.3007 50.6922 59.6284 51.0029C59.956 51.2619 60.0652 51.7798 59.7376 52.0906C59.3007 52.6603 58.8093 53.1782 58.2632 53.6961C58.154 53.8515 57.9356 53.9551 57.7172 53.9551ZM7.86308 52.2459C7.64466 52.2459 7.37164 52.1424 7.20782 51.9352C6.77099 51.3655 6.27954 50.7958 5.89731 50.2261C5.62429 49.8635 5.7335 49.3974 6.11573 49.1384C6.49796 48.8795 6.98941 48.9831 7.26243 49.3456C7.64466 49.9153 8.0815 50.4332 8.51834 50.9512C8.79136 51.3137 8.73676 51.7798 8.40913 52.0388C8.19071 52.1942 8.02689 52.2459 7.86308 52.2459ZM61.5941 48.9831C61.4303 48.9831 61.3211 48.9313 61.1573 48.8795C60.7751 48.6723 60.6659 48.2062 60.8843 47.7919C61.2665 47.2221 61.5941 46.6006 61.9218 46.0309C62.1402 45.6684 62.6316 45.513 63.0139 45.6684C63.3961 45.8756 63.5599 46.3417 63.3961 46.7042C63.0685 47.3257 62.6862 47.9472 62.304 48.5687C62.1948 48.8277 61.9218 48.9831 61.5941 48.9831ZM4.31377 47.015C4.04075 47.015 3.71312 46.8596 3.60391 46.6006C3.27628 45.9791 2.94866 45.3059 2.67563 44.6844C2.51182 44.27 2.67563 43.8557 3.11247 43.6485C3.54931 43.4931 3.98615 43.6485 4.20456 44.0629C4.47759 44.6843 4.80522 45.3059 5.07824 45.8756C5.29666 46.2381 5.13284 46.7042 4.69601 46.9114C4.5868 47.015 4.42298 47.015 4.31377 47.015ZM64.379 43.3378C64.2698 43.3378 64.2152 43.3378 64.1059 43.286C63.6691 43.1306 63.4507 42.7163 63.6145 42.3019C63.8329 41.6804 64.0513 41.0071 64.2698 40.3856C64.379 39.9713 64.8704 39.7123 65.2526 39.8677C65.6895 39.9713 65.9625 40.3856 65.7987 40.8C65.5803 41.4733 65.3619 42.1466 65.1434 42.8199C65.0342 43.1306 64.7612 43.3378 64.379 43.3378ZM1.96577 41.2143C1.58354 41.2143 1.25591 41.0071 1.2013 40.6446C0.982885 39.9713 0.819071 39.298 0.709861 38.5729C0.600652 38.1586 0.92828 37.7443 1.36512 37.6407C1.74735 37.5889 2.18419 37.8478 2.2934 38.2622C2.45721 38.9355 2.62103 39.557 2.78484 40.2303C2.89405 40.6446 2.62103 41.0589 2.18419 41.1625C2.12958 41.2143 2.02037 41.2143 1.96577 41.2143ZM65.9625 37.3299C65.9079 37.3299 65.9079 37.3299 65.8533 37.3299C65.4165 37.2781 65.0888 36.8638 65.1434 36.4495C65.2526 35.7762 65.3073 35.1029 65.3619 34.4296C65.4165 34.0153 65.7987 33.6527 66.2355 33.7045C66.6724 33.7563 67 34.1188 67 34.5332C66.9454 35.2583 66.8908 35.9315 66.7816 36.6566C66.6724 37.0192 66.3447 37.3299 65.9625 37.3299ZM0.873676 35.1029C0.436838 35.1029 0.109209 34.7921 0.0546047 34.3778C0 33.7045 0 32.9794 0 32.2543C0 31.84 0.382233 31.4775 0.819071 31.4775C1.25591 31.4775 1.63814 31.84 1.63814 32.2543C1.63814 32.9276 1.63814 33.6009 1.69275 34.2742C1.74735 34.6885 1.36512 35.0511 0.92828 35.1029C0.92828 35.1029 0.92828 35.1029 0.873676 35.1029ZM66.1809 31.1149C65.7441 31.1149 65.4165 30.8042 65.3619 30.3898C65.3073 29.7165 65.2526 29.0432 65.1434 28.37C65.0888 27.9556 65.4165 27.5413 65.8533 27.4895C66.2901 27.4377 66.727 27.7485 66.7816 28.1628C66.8908 28.8879 66.9454 29.5612 67 30.2862C67.0546 30.7006 66.6724 31.1149 66.1809 31.1149C66.2355 31.1149 66.1809 31.1149 66.1809 31.1149ZM65.1434 25.0035C64.7612 25.0035 64.4336 24.7963 64.379 24.4338C64.2152 23.8123 63.9967 23.139 63.7783 22.5175C63.6145 22.1032 63.8875 21.6888 64.2698 21.5334C64.7066 21.3781 65.1434 21.637 65.3073 21.9996C65.5257 22.6729 65.7441 23.3462 65.9625 24.0195C66.0717 24.4338 65.7987 24.8481 65.3619 24.9517C65.3073 25.0035 65.198 25.0035 65.1434 25.0035ZM62.7954 19.2028C62.4678 19.2028 62.1948 19.0474 62.0856 18.7885C61.7579 18.167 61.4303 17.5973 61.0481 17.0276C60.8297 16.665 60.9389 16.1989 61.3211 15.9399C61.7033 15.7328 62.1948 15.8364 62.4678 16.1989C62.85 16.8204 63.1777 17.4419 63.5599 18.0634C63.7783 18.4259 63.6145 18.8921 63.1777 19.0992C63.0685 19.151 62.9593 19.2028 62.7954 19.2028ZM59.3007 13.9201C59.0823 13.9201 58.8093 13.8165 58.6455 13.6093C58.2086 13.0914 57.7718 12.5735 57.2804 12.0556C56.9527 11.7448 57.0073 11.2269 57.335 10.9679C57.6626 10.6572 58.2086 10.709 58.4817 11.0197C58.9731 11.5376 59.4645 12.1074 59.9014 12.6253C60.1744 12.9878 60.1198 13.4539 59.7376 13.7129C59.683 13.8683 59.5191 13.9201 59.3007 13.9201Z" fill="white"/>
<path d="M20.2584 30.3381L17.3097 29.7684C17.8011 26.7127 19.3847 25.2107 22.1695 25.2107C23.6438 25.2107 24.7905 25.625 25.555 26.4019C26.3195 27.1788 26.7017 28.1628 26.7017 29.3022C26.7017 30.4935 26.2649 31.6329 25.3912 32.7205C24.5175 33.8599 22.934 35.1547 20.5314 36.6567H26.8655L26.7017 39.298H17.3097V36.6049C19.9853 34.4296 21.6781 32.8759 22.3333 31.9954C22.9886 31.115 23.3162 30.2345 23.3162 29.4576C23.3162 28.3182 22.8794 27.7485 21.9511 27.7485C21.4051 27.7485 21.0228 27.9557 20.7498 28.4218C20.4768 28.8879 20.313 29.4576 20.2584 30.3381Z" fill="white"/>
<path d="M34.0733 25.2107H37.5681V33.7045H39.2062V36.087H37.5681V39.298H34.3464V36.0352H29.0497V33.6527L34.0733 25.2107ZM34.6194 33.8599V28.1628L31.3431 33.8599H34.6194Z" fill="white"/>
<path d="M41.3358 25.3142H44.339V30.0273C44.8851 29.1468 45.7588 28.7325 47.0147 28.7325C47.7245 28.7325 48.3252 28.8878 48.762 29.1986C49.1989 29.5093 49.4719 29.9237 49.5811 30.4416C49.6903 30.9595 49.7449 31.6846 49.7449 32.6168V39.1944H46.7417V32.6168C46.7417 31.9436 46.687 31.4774 46.5232 31.2703C46.414 31.0631 46.141 30.9595 45.7042 30.9595C45.3219 30.9595 44.9943 31.0631 44.7213 31.2703C44.5029 31.4774 44.339 31.9436 44.339 32.7204V39.2462H41.3358V25.3142Z" fill="white"/>
<path d="M1.31051 27.7485C1.25591 27.7485 1.2013 27.7485 1.1467 27.7485C0.709861 27.6967 0.382233 27.2823 0.491442 26.868C3.22168 11.7448 17.4189 0.454224 33.5273 0.454224C33.7457 0.454224 33.9095 0.454224 34.128 0.454224C41.172 0.557807 47.8883 2.73306 53.5672 6.77282C53.9495 7.03177 54.0041 7.4979 53.7311 7.86044C53.458 8.22298 52.9666 8.27478 52.5844 8.01582C47.2331 4.18323 40.8443 2.11156 34.128 2.00798C33.9641 2.00798 33.7457 2.00798 33.5819 2.00798C18.1834 2.00798 4.75061 12.7289 2.12958 27.127C2.02037 27.4895 1.69275 27.7485 1.31051 27.7485Z" fill="white"/>
<path d="M47.9976 8.99989C47.6153 8.99989 47.2331 8.74093 47.1785 8.3266C47.1239 7.91226 47.3969 7.49793 47.8337 7.44614L52.1475 6.77284L51.4377 2.6813C51.3831 2.26696 51.6561 1.85263 52.0929 1.80084C52.5298 1.69725 52.9666 2.008 53.0758 2.42234L53.9495 7.23897C54.0041 7.6533 53.7311 8.06764 53.2942 8.11943L48.216 8.9481C48.1068 8.99989 48.0522 8.99989 47.9976 8.99989Z" fill="white"/>
</svg>
