<svg width="68" height="61" viewBox="0 0 68 61" fill="none" xmlns="http://www.w3.org/2000/svg">
<g clip-path="url(#clip0_393_356)">
<path d="M37.6897 60.7344C37.3023 60.7344 36.9056 60.7224 36.4975 60.6995C25.4643 60.0716 18.9866 54.8624 12.1114 46.6606C10.6244 44.8877 9.52456 42.8235 8.88243 40.6005C8.24031 38.3774 8.0701 36.0447 8.38272 33.752C8.66932 31.6805 8.31374 29.7297 7.40761 28.3995C7.08835 27.9763 6.71975 27.5925 6.30964 27.2565C5.97942 26.972 5.66567 26.6688 5.36993 26.3486C0.473553 20.8603 -0.774362 16.7664 0.424096 10.1247C1.22792 5.66822 5.74399 2.13143 9.78969 0.94104C21.5004 -2.50543 27.937 4.3396 29.2195 8.19424C29.4192 8.79503 29.5631 9.19043 29.6686 9.47989C29.9654 10.2081 30.1036 10.9913 30.0741 11.7771L30.0838 11.9635C30.1223 13.2647 29.9531 14.5637 29.5827 15.8116C29.5469 15.909 29.541 16.0149 29.5657 16.1157C29.5903 16.2164 29.6445 16.3076 29.7211 16.3775L29.8047 16.4236C31.0799 17.1251 31.7825 17.5117 31.7726 18.9507C31.7444 19.3138 31.6297 19.6649 31.4381 19.9746C31.2466 20.2844 30.9837 20.5439 30.6715 20.7314C30.8659 22.2209 31.0289 26.2242 27.7928 28.9795C28.1669 29.1388 28.5414 29.3012 28.9009 29.4691C29.7862 27.155 31.4493 24.7342 32.7029 22.9094C32.882 22.6488 33.0533 22.3997 33.2129 22.1644C32.9267 21.5337 32.7706 20.8517 32.754 20.1593C32.6994 19.6798 32.6033 19.206 32.4668 18.7432L32.4507 18.6828C32.3001 18.1536 32.3604 17.5866 32.6189 17.1009C32.7125 16.9494 32.8365 16.8188 32.983 16.7176C33.1296 16.6163 33.2955 16.5464 33.4703 16.5124C33.7472 16.4514 34.0353 16.4652 34.305 16.5523C34.5748 16.6395 34.8165 16.7968 35.0053 17.0082C35.5796 15.6185 36.6266 14.4765 37.9614 13.7841C38.4562 13.5366 39.0019 13.4076 39.5552 13.4075C40.1085 13.4074 40.6542 13.536 41.1491 13.7833C43.5232 14.9981 45.0308 18.0026 43.0468 21.9767C42.6797 22.6805 42.1546 23.2898 41.5127 23.7567C40.8708 24.2237 40.1294 24.5356 39.3468 24.668C39.2596 26.6959 39.0608 28.7174 38.7512 30.7233C38.733 30.8373 38.7142 30.9523 38.6949 31.0682C39.2684 29.644 40.1775 28.3795 41.3449 27.3823C43.8069 25.058 48.3466 26.2189 49.6794 26.6297C52.3668 27.4585 55.7154 29.9299 59.6377 33.9784C61.1333 33.2384 62.6971 32.6449 64.3071 32.2062C64.6375 32.0742 64.9937 32.0192 65.3486 32.0453C65.7034 32.0715 66.0477 32.1781 66.3552 32.3572C66.5928 32.5419 66.7779 32.7855 66.8922 33.0639C67.0064 33.3423 67.0458 33.6457 67.0065 33.944C67.004 33.9957 66.9965 34.0469 66.9841 34.0971C66.7706 34.8289 66.4395 35.5212 66.0038 36.1467C65.636 36.6676 65.2343 37.1636 64.8012 37.6315C64.0651 38.3764 63.467 39.2459 63.0347 40.1997L62.9894 40.3085C62.7027 41.0346 62.3738 41.7434 62.0044 42.4311C61.7702 42.8002 61.4647 43.1189 61.1058 43.3685C60.7469 43.6181 60.3417 43.7936 59.9142 43.8847C58.8848 44.1331 57.7991 43.9689 56.8894 43.4271C56.0362 42.7985 55.3115 42.0123 54.7543 41.1109C54.4201 40.975 54.0541 40.8365 53.6725 40.6918C52.6204 40.318 51.5933 39.877 50.5978 39.3715C50.9095 40.6818 51.1255 42.013 51.2438 43.3547C51.3755 47.7987 51.2116 51.8105 47.8593 55.9119C45.1282 59.2537 42.0394 60.7338 37.6897 60.7344ZM15.9537 1.58971C14.0169 1.60983 12.0931 1.90807 10.2411 2.4753C6.75372 3.50142 2.67966 6.63083 1.99791 10.4087C0.889266 16.553 1.99869 20.1673 6.56318 25.2839C6.8192 25.5588 7.09034 25.8193 7.37534 26.0641C7.88442 26.4844 8.33928 26.9663 8.72945 27.4989C10.272 29.7633 10.1669 32.5259 9.96698 33.9706C9.68478 36.0421 9.8388 38.1496 10.4191 40.158C10.9995 42.1664 11.9933 44.0313 13.3369 45.6329C19.938 53.5072 26.1302 58.5072 36.588 59.1022C41.0731 59.3605 43.9735 58.1391 46.6213 54.8998C49.6289 51.2196 49.7716 47.6659 49.6456 43.4016C49.4341 41.6082 49.1091 39.83 48.6725 38.0778C48.6148 37.8242 48.5794 37.6618 48.5736 37.6264C48.5467 37.4576 48.5745 37.2847 48.653 37.1329C48.7315 36.9811 48.8566 36.8585 49.0099 36.783C49.1632 36.7075 49.3366 36.6831 49.5048 36.7133C49.673 36.7436 49.8271 36.8269 49.9444 36.9511C50.8524 37.9117 52.7308 38.6239 54.2395 39.196C54.7289 39.3819 55.1932 39.5584 55.603 39.7312C55.7532 39.7952 55.8804 39.9034 55.9674 40.0415C56.4237 40.8233 57.0237 41.5117 57.7359 42.0704C58.2828 42.3852 58.9297 42.4778 59.543 42.3291C59.7642 42.2862 59.9747 42.1999 60.1624 42.0752C60.35 41.9504 60.5111 41.7897 60.6363 41.6023C60.9626 40.9816 61.2555 40.3438 61.5135 39.6917L61.5593 39.5823C62.0566 38.4643 62.7494 37.444 63.6053 36.5695C63.9922 36.153 64.3515 35.7116 64.6809 35.2482C64.9919 34.7968 65.2376 34.3038 65.4108 33.7837C65.4131 33.7286 65.4049 33.6735 65.3869 33.6213C65.1941 33.6256 65.0031 33.6593 64.8204 33.7213C64.796 33.7301 64.7658 33.7395 64.7403 33.7462C63.0485 34.2079 61.4119 34.8522 59.8595 35.6678C59.705 35.752 59.527 35.7829 59.3531 35.7556C59.1792 35.7283 59.0192 35.6444 58.8979 35.5169C55.0412 31.468 51.6905 28.9235 49.2077 28.1582C46.8926 27.4434 43.8985 27.1701 42.4424 28.5453C40.704 30.1871 39.921 31.2889 39.1708 35.6454C38.7949 37.8253 38.5497 39.6271 38.5471 39.6453C38.5292 39.7766 38.4789 39.9014 38.4008 40.0085C38.3227 40.1155 38.2193 40.2015 38.0997 40.2587C37.9802 40.3159 37.8483 40.3425 37.7159 40.3361C37.5836 40.3297 37.4549 40.2906 37.3414 40.2222C36.4663 39.7192 35.5309 39.3294 34.5577 39.0622C34.4142 39.0282 34.2829 38.9551 34.1783 38.8511C34.0738 38.7471 34 38.6162 33.9652 38.4729C33.9304 38.3295 33.9359 38.1794 33.9811 38.039C34.0263 37.8986 34.1095 37.7735 34.2213 37.6774C34.6958 37.2705 35.1006 36.7888 35.4198 36.2515C36.4574 34.5027 36.8687 32.3495 37.1727 30.468C37.5021 28.3039 37.7036 26.1223 37.7761 23.9345C37.7834 23.731 37.8682 23.5379 38.013 23.3946C38.1578 23.2514 38.3518 23.1688 38.5554 23.1637C39.1846 23.131 39.7953 22.9394 40.3305 22.607C40.8656 22.2745 41.3079 21.812 41.6161 21.2625C43.2134 18.062 41.9707 16.0004 40.4203 15.2072C40.1413 15.0731 39.8351 15.0057 39.5256 15.0103C39.2161 15.0149 38.912 15.0914 38.6372 15.2338C37.3736 15.8223 36.3418 17.3834 35.8758 19.4099C35.8404 19.5639 35.7601 19.704 35.6451 19.8125C35.5301 19.9209 35.3856 19.9929 35.2297 20.0192C35.0738 20.0456 34.9137 20.0252 34.7694 19.9605C34.6251 19.8959 34.5033 19.79 34.4192 19.6561C34.3585 19.56 34.3035 19.4604 34.2546 19.3578C34.297 19.5702 34.3274 19.7847 34.3458 20.0005C34.3341 20.6164 34.4975 21.223 34.8169 21.7497C34.9055 21.8809 34.9532 22.0354 34.9538 22.1937C34.9545 22.3519 34.9081 22.5068 34.8206 22.6387C34.5852 22.9943 34.3135 23.3894 34.0214 23.8153C32.6644 25.79 30.8061 28.4948 30.1306 30.8207C30.0971 30.9359 30.0381 31.0422 29.9579 31.1315C29.8778 31.2209 29.7786 31.291 29.6676 31.3368C29.5566 31.3826 29.4368 31.4028 29.317 31.396C29.1971 31.3891 29.0804 31.3554 28.9754 31.2973C28.2711 30.9291 27.5488 30.5965 26.8112 30.3006C26.4918 30.1655 26.1706 30.0294 25.8543 29.8904C25.7202 29.8314 25.605 29.7367 25.5211 29.6167C25.4372 29.4966 25.3878 29.3559 25.3784 29.2097C25.369 29.0636 25.3999 28.9177 25.4678 28.7879C25.5356 28.6581 25.6378 28.5495 25.7632 28.4738C30.2254 25.7791 29.0303 20.5719 29.0175 20.5196C28.9759 20.3466 28.9932 20.1647 29.0665 20.0027C29.1399 19.8407 29.2652 19.7077 29.4226 19.6248C29.9518 19.346 30.1728 19.0412 30.1733 18.94C30.1767 18.4535 30.1767 18.4535 29.0337 17.8246L28.9493 17.7782C28.554 17.5367 28.2502 17.1706 28.0857 16.7374C27.9213 16.3043 27.9056 15.8288 28.0411 15.3858C28.3653 14.3033 28.5156 13.1763 28.4865 12.0468L28.4769 11.8599C28.5088 11.2335 28.4026 10.6078 28.1658 10.0271C28.057 9.72799 27.9084 9.31957 27.7019 8.699C27.1069 6.91066 23.587 1.58973 15.9538 1.58973L15.9537 1.58971ZM36.2048 37.919C36.5006 38.0319 36.8135 38.1621 37.1243 38.3058C37.2325 37.5806 37.3898 36.5664 37.5814 35.4502C37.3626 36.0092 37.0997 36.5499 36.7952 37.0672C36.6188 37.3647 36.4215 37.6494 36.2049 37.919L36.2048 37.919Z" fill="white"/>
<path d="M16.7719 30.9653C16.6309 30.9652 16.4924 30.9277 16.3705 30.8567C16.2487 30.7858 16.1477 30.6838 16.0779 30.5613C16.0082 30.4387 15.972 30.2999 15.9732 30.1589C15.9744 30.0179 16.0129 29.8797 16.0847 29.7583C16.4592 29.0762 16.9711 28.4791 17.588 28.0049C18.205 27.5307 18.9136 27.1896 19.6691 27.0032C22.9412 26.2126 26.4546 28.3885 26.6021 28.4815C26.7817 28.5943 26.909 28.7739 26.9562 28.9806C27.0033 29.1873 26.9664 29.4043 26.8536 29.5839C26.7977 29.6728 26.7249 29.7498 26.6392 29.8105C26.5536 29.8713 26.4568 29.9146 26.3545 29.9379C26.1477 29.9851 25.9307 29.9482 25.7512 29.8353C25.6916 29.7984 22.6377 27.9257 20.0398 28.559C19.493 28.6959 18.9811 28.9459 18.5368 29.2928C18.0926 29.6396 17.726 30.0758 17.4607 30.573C17.3899 30.6927 17.2892 30.7918 17.1684 30.8606C17.0476 30.9294 16.9109 30.9655 16.7719 30.9653Z" fill="white"/>
<path d="M28.8663 41.2451C23.5001 41.2451 17.7431 38.1412 17.3969 37.9517C17.2113 37.8497 17.0737 37.6782 17.0144 37.4749C16.9551 37.2715 16.9789 37.053 17.0806 36.8671C17.1822 36.6813 17.3535 36.5434 17.5567 36.4837C17.7599 36.424 17.9785 36.4474 18.1645 36.5487C18.277 36.6101 29.4335 42.6222 34.1677 37.7279C34.3153 37.5759 34.5171 37.4888 34.7289 37.4855C34.9407 37.4822 35.1451 37.563 35.2973 37.7103C35.4496 37.8576 35.5372 38.0592 35.5409 38.271C35.5446 38.4828 35.4642 38.6874 35.3172 38.8399C33.5922 40.6235 31.2681 41.2451 28.8663 41.2451Z" fill="white"/>
<path d="M38.7658 47.5232C38.5996 47.5232 38.4375 47.4714 38.3022 47.375C38.1668 47.2786 38.0648 47.1425 38.0104 46.9855C36.9935 43.698 36.7684 40.2167 37.3534 36.8257C37.3876 36.6163 37.5036 36.4292 37.6758 36.3054C37.8481 36.1816 38.0624 36.1313 38.2717 36.1655C38.4811 36.1998 38.6682 36.3158 38.792 36.488C38.9158 36.6602 38.9661 36.8746 38.9319 37.0839C38.3873 40.2126 38.5892 43.4258 39.5212 46.4617C39.5629 46.5822 39.5752 46.7109 39.5571 46.8371C39.539 46.9632 39.4909 47.0833 39.417 47.1871C39.3431 47.291 39.2454 47.3757 39.1322 47.4342C39.0189 47.4926 38.8933 47.5232 38.7658 47.5232Z" fill="white"/>
<path d="M43.3826 27.9018C43.213 27.9018 43.0478 27.848 42.9108 27.7481C42.7739 27.6481 42.6722 27.5072 42.6205 27.3457C42.5688 27.1842 42.5698 27.0105 42.6233 26.8496C42.6768 26.6887 42.7801 26.5489 42.9182 26.4506C42.9755 26.4094 48.6575 22.2867 47.1367 17.2003C45.4343 11.5058 44.4811 5.49688 52.9504 0.126484C53.1295 0.0136068 53.346 -0.0236676 53.5525 0.0228314C53.759 0.0693303 53.9387 0.195809 54.0521 0.374544C54.1655 0.553279 54.2034 0.769689 54.1576 0.976337C54.1117 1.18298 53.9857 1.36301 53.8073 1.47696C46.2652 6.25932 47.018 11.2197 48.6694 16.7422C50.5197 22.9328 44.1177 27.5603 43.8444 27.7544C43.7095 27.8503 43.5481 27.9018 43.3826 27.9018Z" fill="white"/>
</g>
<defs>
<clipPath id="clip0_393_356">
<rect width="67.01" height="60.7344" fill="white"/>
</clipPath>
</defs>
</svg>
