<svg width="47" height="64" viewBox="0 0 47 64" fill="none" xmlns="http://www.w3.org/2000/svg">
<path d="M42.0929 63.6003H4.96171C2.72292 63.6003 0.920959 61.8912 0.920959 59.7677V10.8245C0.920959 8.70107 2.72292 6.99194 4.96171 6.99194H14.2991C14.5721 6.99194 14.7906 7.09553 14.9544 7.30269C15.1182 7.50986 15.1728 7.71703 15.1182 7.97599C14.9544 8.59749 14.8998 9.21899 14.8998 9.84049C14.8998 14.3982 18.7767 18.0754 23.5819 18.0754C28.3871 18.0754 32.2641 14.3982 32.2641 9.84049C32.2641 9.21899 32.2095 8.59749 32.0457 7.97599C31.991 7.76882 32.0457 7.50986 32.2095 7.30269C32.3733 7.09553 32.5917 6.99194 32.8647 6.99194H42.2021C44.4409 6.99194 46.2429 8.70107 46.2429 10.8245V59.7677C46.1337 61.8912 44.3317 63.6003 42.0929 63.6003ZM4.9071 8.4939C3.54199 8.4939 2.5045 9.52974 2.5045 10.7727V59.7159C2.5045 61.0107 3.59659 61.9948 4.9071 61.9948H42.0383C43.4034 61.9948 44.4409 60.9589 44.4409 59.7159V10.8245C44.4409 9.52974 43.3488 8.5457 42.0383 8.5457H33.7384C33.793 8.96003 33.8476 9.42615 33.8476 9.84049C33.8476 15.2268 29.2062 19.6291 23.5273 19.6291C17.8484 19.6291 13.207 15.2268 13.207 9.84049C13.207 9.42615 13.2616 9.01182 13.3162 8.5457H4.9071V8.4939Z" fill="white"/>
<path d="M23.5273 19.5773C17.8484 19.5773 13.207 15.175 13.207 9.78864C13.207 4.4023 17.7938 0 23.5273 0C29.2062 0 33.8476 4.4023 33.8476 9.78864C33.8476 15.175 29.2062 19.5773 23.5273 19.5773ZM23.5273 1.55375C18.7221 1.55375 14.8452 5.23097 14.8452 9.78864C14.8452 14.3463 18.7221 18.0235 23.5273 18.0235C28.3325 18.0235 32.2095 14.3463 32.2095 9.78864C32.2095 5.23097 28.2779 1.55375 23.5273 1.55375Z" fill="white"/>
<path d="M24.1826 11.8086L24.8924 4.76489H22.1076L22.8175 11.8086H24.1826Z" fill="white"/>
<path d="M24.6194 12.5854H22.4352V14.8118H24.6194V12.5854Z" fill="white"/>
<path d="M11.0774 44.2301C9.05706 44.2301 7.47353 42.6763 7.47353 40.8118C7.47353 38.9473 9.11167 37.3936 11.0774 37.3936C13.0978 37.3936 14.6814 38.9473 14.6814 40.8118C14.6814 42.6763 13.0978 44.2301 11.0774 44.2301ZM11.0774 38.9473C9.98534 38.9473 9.11167 39.776 9.11167 40.8118C9.11167 41.8476 9.98534 42.6763 11.0774 42.6763C12.1695 42.6763 13.0432 41.8476 13.0432 40.8118C13.0432 39.776 12.1695 38.9473 11.0774 38.9473Z" fill="white"/>
<path d="M11.0774 56.453C9.05706 56.453 7.47353 54.8992 7.47353 53.0347C7.47353 51.1702 9.11167 49.6165 11.0774 49.6165C13.0978 49.6165 14.6814 51.1702 14.6814 53.0347C14.6814 54.8992 13.0978 56.453 11.0774 56.453ZM11.0774 51.1184C9.98534 51.1184 9.11167 51.9471 9.11167 52.9829C9.11167 54.0188 9.98534 54.8474 11.0774 54.8474C12.1695 54.8474 13.0432 54.0188 13.0432 52.9829C13.0432 51.9471 12.1695 51.1184 11.0774 51.1184Z" fill="white"/>
<path d="M11.0774 32.059C9.05706 32.059 7.47353 30.5053 7.47353 28.6408C7.47353 26.7245 9.11167 25.2225 11.0774 25.2225C13.0978 25.2225 14.6814 26.7763 14.6814 28.6408C14.6814 30.5053 13.0978 32.059 11.0774 32.059ZM11.0774 26.7763C9.98534 26.7763 9.11167 27.605 9.11167 28.6408C9.11167 29.6766 9.98534 30.5053 11.0774 30.5053C12.1695 30.5053 13.0432 29.6766 13.0432 28.6408C13.0432 27.605 12.1695 26.7763 11.0774 26.7763Z" fill="white"/>
<path d="M38.7074 27.0866H16.3741C15.9373 27.0866 15.555 26.7241 15.555 26.3099C15.555 25.8957 15.9373 25.5333 16.3741 25.5333H38.7074C39.1443 25.5333 39.5265 25.8957 39.5265 26.3099C39.5265 26.7241 39.1989 27.0866 38.7074 27.0866Z" fill="white"/>
<path d="M38.7074 31.6961H16.3741C15.9373 31.6961 15.555 31.3336 15.555 30.9194C15.555 30.5052 15.9373 30.1428 16.3741 30.1428H38.7074C39.1443 30.1428 39.5265 30.5052 39.5265 30.9194C39.5265 31.3336 39.1989 31.6961 38.7074 31.6961Z" fill="white"/>
<path d="M38.7074 39.3093H16.3741C15.9373 39.3093 15.555 38.9469 15.555 38.5327C15.555 38.1185 15.9373 37.7561 16.3741 37.7561H38.7074C39.1443 37.7561 39.5265 38.1185 39.5265 38.5327C39.5265 38.9469 39.1989 39.3093 38.7074 39.3093Z" fill="white"/>
<path d="M38.7074 43.9188H16.3741C15.9373 43.9188 15.555 43.5564 15.555 43.1422C15.555 42.728 15.9373 42.3656 16.3741 42.3656H38.7074C39.1443 42.3656 39.5265 42.728 39.5265 43.1422C39.5265 43.5564 39.1989 43.9188 38.7074 43.9188Z" fill="white"/>
<path d="M38.7074 51.4805H16.3741C15.9373 51.4805 15.555 51.1181 15.555 50.7039C15.555 50.2897 15.9373 49.9272 16.3741 49.9272H38.7074C39.1443 49.9272 39.5265 50.2897 39.5265 50.7039C39.5265 51.1181 39.1989 51.4805 38.7074 51.4805Z" fill="white"/>
<path d="M38.7074 56.09H16.3741C15.9373 56.09 15.555 55.7276 15.555 55.3134C15.555 54.8992 15.9373 54.5367 16.3741 54.5367H38.7074C39.1443 54.5367 39.5265 54.8992 39.5265 55.3134C39.5265 55.7276 39.1989 56.09 38.7074 56.09Z" fill="white"/>
</svg>
