<svg width="85" height="85" viewBox="0 0 85 85" fill="none" xmlns="http://www.w3.org/2000/svg">
<path d="M69.7022 10.8576L10.9694 69.6071L15.4577 74.0941L74.1906 15.3447L69.7022 10.8576Z" fill="#F45B6A"/>
<path d="M42.5 6.34667C62.4467 6.34667 78.6533 22.5533 78.6533 42.5C78.6533 62.4467 62.4467 78.6533 42.5 78.6533C22.5533 78.6533 6.34667 62.4467 6.34667 42.5C6.34667 22.5533 22.5533 6.34667 42.5 6.34667ZM42.5 0C19.04 0 0 19.04 0 42.5C0 65.96 19.04 85 42.5 85C65.96 85 85 65.96 85 42.5C85 19.04 65.96 0 42.5 0Z" fill="#F45B6A"/>
<path d="M12.8067 44.54C13.26 44.2 14.0533 45.3333 14.0533 45.3333C14.0533 45.3333 16.2067 45.9 18.2467 46.92C20.2867 44.88 24.0267 41.3666 26.9733 40.5733C28.9 40.0066 31.7333 39.6666 33.2067 41.0266C34.68 42.5 35.4733 43.52 36.04 47.26C36.38 49.0733 36.6067 50.5466 36.6067 50.5466C37.4 50.0933 38.08 49.8666 38.6467 49.64C38.1933 49.3 37.8533 48.8466 37.5133 48.28C36.6067 46.8066 36.2667 44.9933 36.04 43.2933C35.8133 41.5933 35.5867 39.5533 35.5867 37.8533C35.2467 37.6266 35.02 37.4 34.7933 36.9466C34.5667 36.38 34.1133 35.9266 33.5467 35.8133C33.32 35.7 32.98 35.5866 32.7533 35.36C32.5267 35.1333 32.4133 34.7933 32.5267 34.68C32.64 34.34 33.2067 34.4533 33.5467 34.68C33.7733 34.7933 34.5667 35.1333 34.68 35.1333C34.7933 35.02 34 34.34 33.66 34.1133C33.32 33.8866 33.0933 33.5466 33.32 33.2066C33.5467 32.8666 33.7733 32.7533 34.34 33.2066C34.5667 33.4333 35.36 34.1133 35.4733 34.1133C35.5867 34 35.02 33.0933 34.7933 32.7533C34.5667 32.4133 34.34 32.0733 34.68 31.7333C34.9067 31.5066 35.4733 31.8466 35.7 32.0733C35.8133 32.1866 36.4933 33.32 36.6067 33.32C36.72 33.2066 36.38 32.1866 36.38 31.96C36.2667 31.62 36.04 31.28 36.4933 30.94C36.8333 30.7133 37.1733 31.1666 37.4 31.3933C37.74 31.8466 37.8533 32.4133 38.1933 33.0933C38.42 33.66 38.6467 34 38.6467 34C38.8733 33.66 38.8733 33.4333 38.8733 33.2066C39.1 32.4133 39.44 32.3 39.78 32.4133C40.12 32.5266 40.2333 32.98 40.12 33.4333C40.12 33.5466 39.8933 34.2266 39.8933 34.68C39.8933 35.2466 39.78 35.8133 39.44 36.38C40.5733 38.08 42.7267 40.8 43.4067 43.2933C44.2 42.84 45.1067 42.5 46.0133 42.16C44.4267 41.48 43.18 40.46 42.9533 38.1933C42.2733 36.8333 43.52 36.8333 43.2933 36.72C42.3867 36.1533 43.0667 34.9066 43.0667 34.9066C42.6133 34.68 42.0467 34.2266 42.0467 33.7733C42.0467 32.98 42.2733 32.8666 43.4067 32.1866C43.86 31.96 43.9733 31.3933 43.86 30.94C43.6333 30.26 43.4067 29.1266 43.52 27.9933C43.6333 26.4066 43.52 26.9733 44.2 25.0466C44.9933 22.5533 49.8667 16.66 59.3867 19.4933C62.56 20.4 66.0733 23.2333 66.64 26.52C67.66 31.8466 66.5267 35.02 62.7867 39.3266C62.22 39.8933 61.54 40.3466 61.0867 41.0266C60.18 42.3866 59.9533 44.3133 60.18 45.9C60.6333 49.5266 59.6133 53.1533 57.2333 55.9866C51.5667 62.6733 46.3533 66.7533 37.6267 67.32C34 67.5466 31.28 66.64 28.7867 63.58C26.0667 60.2933 26.0667 57.12 26.18 53.72C26.18 52.4733 27.0867 49.0733 27.0867 48.8466C25.9533 49.98 23.6867 50.66 22.2133 51.34C21.9867 51.68 21.3067 52.7 20.5133 53.2666C19.4933 53.9466 17.9067 53.72 17.2267 52.7C17 52.2466 16.66 51.34 16.4333 51C15.7533 49.4133 14.7333 48.7333 13.94 47.6C13.3733 46.8066 13.26 46.1266 13.26 46.1266C12.24 45.56 12.24 44.88 12.8067 44.54Z" fill="#F8C5B0"/>
<g opacity="0.3">
<path d="M51.9066 49.2999C52.0199 49.1866 52.2466 49.1866 52.36 49.0732C52.36 49.0732 52.2466 49.1866 51.9066 49.2999Z" fill="#F8C5B0"/>
<path d="M38.42 49.6399C37.9667 49.2999 37.6267 48.8466 37.2867 48.2799C36.38 46.8066 36.04 44.9933 35.8133 43.2933C35.5867 41.5933 35.36 39.5533 35.36 37.8533C37.6267 54.0599 49.5267 50.2066 52.02 49.2999C48.1667 50.8866 45.22 51.2266 42.5 51.2266C39.5533 51.1133 38.42 49.6399 38.42 49.6399Z" fill="#F8C5B0"/>
</g>
<path d="M52.36 49.0732C52.36 49.0732 51.5667 49.4132 50.32 49.7532C49.0733 50.0932 47.26 50.5466 45.3333 50.8866C43.4067 51.2266 41.48 51.1132 40.3467 50.6599C39.1 50.2066 38.5333 49.6399 38.5333 49.6399C38.42 49.6399 38.9867 50.4332 40.2333 50.8866C41.48 51.4532 43.4067 51.5666 45.4467 51.2266C47.4867 50.8866 49.3 50.4332 50.5467 49.9799C51.7933 49.6399 52.4733 49.1866 52.36 49.0732Z" fill="#C76668"/>
<path d="M42.9534 43.2933C42.9534 43.4066 43.6334 43.0666 44.54 42.7266C45.4467 42.2733 46.6934 41.5933 48.28 41.3666C49.7534 41.0266 51.2267 41.3666 52.02 41.9333C52.9267 42.5 53.1534 43.0666 53.2667 42.9533C53.2667 42.9533 53.1534 42.2733 52.2467 41.5933C51.7934 41.2533 51.2267 41.0266 50.5467 40.8C49.8667 40.6866 49.0734 40.6866 48.28 40.8C46.6934 41.14 45.4467 41.82 44.54 42.2733C43.52 42.9533 42.9534 43.2933 42.9534 43.2933Z" fill="#C76668"/>
<path d="M35.5867 56.44C35.7001 56.44 36.2667 55.08 36.4934 53.1533C36.7201 51.34 36.4934 49.7533 36.3801 49.7533C36.2667 49.7533 36.2667 51.2266 36.0401 53.04C35.8134 54.9666 35.4734 56.44 35.5867 56.44Z" fill="#C76668"/>
<path opacity="0.3" d="M33.32 61.5399C40.6866 64.5999 49.64 62.8999 57.46 55.0799C57.2333 55.4199 56.8933 55.8733 56.6666 56.2133C51 62.8999 45.7866 66.9799 37.06 67.5466C33.4333 67.7733 30.7133 66.8666 28.22 63.8066C25.5 60.5199 25.5 57.3466 25.6133 53.9466C25.6133 52.6999 26.52 49.2999 26.52 49.0733C26.4066 48.9599 25.9533 58.4799 33.32 61.5399Z" fill="#F8C5B0"/>
<path opacity="0.3" d="M58.8201 19.6067C61.9934 20.5134 65.5067 23.3467 66.0734 26.6334C67.0934 31.96 65.9601 35.1334 62.2201 39.44C61.6534 40.0067 60.9734 40.46 60.5201 41.14C66.8667 29.58 62.6734 23.12 58.8201 19.6067Z" fill="#F8C5B0"/>
</svg>
