<svg width="130" height="95" viewBox="0 0 130 95" fill="none" xmlns="http://www.w3.org/2000/svg">
<g clip-path="url(#clip0_741_258)">
<path d="M124.4 30C124.4 29.9 124.4 29.8 124.4 29.7C124.5 27 134.1 15.9 126.7 11C119 6.00002 112.3 11.9 107 17.3C101.7 22.7 93.5 13.8 93.5 13.8C78.8 -0.0999794 65.2 2.01194e-05 64.8 2.01194e-05C64.5 2.01194e-05 50.8 -0.0999794 36 13.8C36 13.8 27.8 22.7 22.5 17.3C17.2 11.9 10.5 6.00002 2.79998 11C-4.70002 16 5.39998 27.4 4.69998 29.6C4.39998 31.4 4.79998 36.4 6.29998 39.5C7.99998 42.9 11.7 43.7 11.7 43.7C11.7 43.7 13.7 44.3 11.6 43.3C9.49998 42.3 9.69998 40.1 9.69998 40.1C9.79998 37.6 9.09998 35.6 8.59998 34.6C10.3 37.5 12.9 38.2 14.1 38.2C15.5 38.2 18.4 38.9 18.4 38.9C18.4 38.9 16.4 38 15.4 35.7C14.4 33.4 11.9 31.3 11.9 31.3C17.9 35.4 22 31.7 22 31.7C22 31.7 21 32.1 18.9 30.2C16.8 28.4 12.9 27.9 12.9 27.9C15.2 28.3 17.6 26.1 18.3 24.2C19 22.3 20.2 21.8 20.2 21.8C16.3 20.7 13.4 23.3 11.4 24.7C10.5 25.3 9.59998 25.3 8.79998 25.1C7.29998 24.3 5.99998 23 5.49998 20.9C3.69998 14.4 7.89998 13.4 8.09998 13.4C8.49998 13.3 11.7 12.4 20.7 19.2C30.5 26.5 36.4 13.5 39.6 15.6C42.4 17.4 38.2 19.2 42.2 31.4C46.2 43.6 51.3 41 51.3 47.3C51.3 53.6 46.4 62.1 47.3 69.4C48.3 76.7 59.9 85.9 59.9 95.1H69C69 85.8 80.7 76.7 81.6 69.4C82.6 62.1 77.6 53.5 77.6 47.3C77.6 41 82.8 43.6 86.7 31.4C90.7 19.2 86.5 17.4 89.3 15.6C92.5 13.6 98.5 26.6 108.2 19.2C117.2 12.4 120.5 13.3 120.8 13.4C121 13.4 125.2 14.5 123.4 20.9C123 22.5 122.1 23.6 121.1 24.4C121.1 24.4 119 26 117.1 24.7C115.2 23.3 112.2 20.7 108.3 21.8C108.3 21.8 109.5 22.2 110.2 24.2C110.9 26.1 113.4 28.3 115.6 27.9C115.6 27.9 111.7 28.3 109.6 30.2C107.5 32 106.5 31.7 106.5 31.7C106.5 31.7 110.7 35.3 116.6 31.3C116.6 31.3 114.1 33.3 113.1 35.7C112.1 38 110.1 38.9 110.1 38.9C110.1 38.9 113.1 38.2 114.4 38.2C115.7 38.2 118.2 37.5 119.9 34.6C119.4 35.6 118.6 37.6 118.8 40.1C118.8 40.1 119 42.2 116.9 43.3C114.8 44.3 116.8 43.7 116.8 43.7C116.8 43.7 120.6 42.9 122.2 39.5C124.2 36.6 124.6 32.1 124.4 30Z" fill="#F7A6A9"/>
<path d="M40.7 18.8C39.4 19 34.6 20.4 27.6 27.4C27.6 27.4 24.5 23 18.7 23.5C18.6 23.7 18.5 23.9001 18.4 24.2001C17.7 26.1001 15.2 28.3 13 27.9C13 27.9 16.9 28.3001 19 30.2001C21.1 32.0001 22.1 31.7001 22.1 31.7001C22.1 31.7001 17.9 35.3 12 31.3C12 31.3 14.5 33.3001 15.5 35.7001C16.5 38 18.5 38.9001 18.5 38.9001C18.5 38.9001 15.5 38.2001 14.2 38.2001C12.9 38.2001 10.4 37.5 8.69995 34.6C8.89995 35.1 9.29995 35.8 9.49995 36.8C11.9 39.1 16 40.2 19.7 39.1C27.9 36.5 28.1 30 28.1 30C28.1 30 35.9 20.5 40.7 20.4C40.6 19.7 40.7 19.2 40.7 18.8Z" fill="#C76668"/>
<path d="M120.5 34.5001C118.8 37.4001 116.2 38.1001 115 38.1001C113.6 38.1001 110.7 38.8001 110.7 38.8001C110.7 38.8001 112.7 37.9001 113.7 35.6001C114.7 33.3001 117.2 31.2001 117.2 31.2001C111.2 35.3001 107.1 31.6001 107.1 31.6001C107.1 31.6001 108.1 32.0001 110.2 30.1001C112.3 28.3001 116.2 27.8001 116.2 27.8001C113.9 28.2001 111.5 26.0001 110.8 24.1001C110.7 23.8001 110.6 23.6001 110.5 23.4001C105 23.2001 102.1 27.3001 102.1 27.3001C95.1 20.3001 90.3 18.9001 89 18.7001C89 19.1001 89.1 19.6001 89.1 20.2001C93.9 20.3001 101.7 29.8001 101.7 29.8001C101.7 29.8001 101.9 36.4001 110.1 38.9001C113.5 40.0001 117.3 39.1001 119.8 37.1001C119.8 36.0001 120.2 35.1001 120.5 34.5001Z" fill="#C76668"/>
<path d="M68.4 67.9001C65.8 69.5001 65.7 57.4001 65.5 51.0001C65.2999 44.6001 65.2 39.5001 69.9 36.5001C74.6 33.5001 75.7 27.5001 77 21.2001C77.9 17.1001 81.5 14.9001 83.8 13.9001C83.8 13.9001 83.7999 13.8001 83.6999 13.8001C81.1999 14.6001 75.2999 15.9001 64.6999 15.7001C54.9999 15.6001 48.7999 14.4001 45.7999 13.7001C45.7999 13.8001 45.8 13.8001 45.7 13.9001C48.1 14.9001 51.6 17.0001 52.4 21.1001C53.7 27.4001 54.8 33.4001 59.5 36.4001C64.2 39.4001 64.1 44.6001 63.9 50.9001C63.7 57.3001 63.6 69.4001 61 67.8001C58.4 66.2001 50.9999 59.7001 50.2999 63.2001C49.5999 66.7001 51.6999 75.3001 55.5999 78.9001C59.4999 82.5001 62.1999 87.6001 61.7999 94.8001H67C66.6 88.4001 69.9 82.5001 73.8 78.9001C77.7 75.3001 79.7999 66.7001 79.0999 63.2001C78.5 59.9001 71 66.3001 68.4 67.9001Z" fill="#F8C5B0"/>
<g opacity="0.5">
<path d="M54.7 68.4001C54.8 68.3001 55.7 69.2001 57.4 70.1001C59.1 71.0001 61.7 71.9001 64.6 71.8001C67.6 71.8001 70.1 71.0001 71.8 70.1001C73.5 69.2001 74.4 68.3001 74.5 68.4001C74.6 68.5001 74 69.7001 72.3 70.9001C71.4 71.5001 70.3 72.1001 69 72.5001C67.7 72.9001 66.2 73.2001 64.6 73.2001C63 73.2001 61.5 73.0001 60.2 72.5001C58.9 72.1001 57.8 71.5001 56.9 70.9001C55.2 69.7001 54.6 68.5001 54.7 68.4001Z" fill="#DAA28B"/>
</g>
<g opacity="0.5">
<path d="M56.4 73.7C56.5 73.6 57.3 74.3 58.7 75C60.1 75.8 62.2 76.4 64.7 76.4C67.1 76.4 69.3 75.7 70.7 75C72.1 74.3 72.9 73.5 73 73.7C73.1 73.8 72.6 74.8 71.2 75.8C70.5 76.3 69.6 76.8 68.4 77.2C67.3 77.6 66 77.8 64.7 77.8C63.4 77.8 62.1 77.6 61 77.2C59.9 76.8 59 76.3 58.2 75.8C56.8 74.8 56.3 73.8 56.4 73.7Z" fill="#DAA28B"/>
</g>
<g opacity="0.5">
<path d="M58.1999 78.6001C58.2999 78.5001 58.8999 79.0001 60.0999 79.6001C61.1999 80.2001 62.8999 80.7001 64.7999 80.6001C66.6999 80.6001 68.2999 80.1001 69.4999 79.6001C70.5999 79.0001 71.1999 78.5001 71.3999 78.6001C71.4999 78.7001 71.1999 79.5001 69.9999 80.4001C68.8999 81.2001 66.9999 82.0001 64.8999 82.0001C62.7999 82.0001 60.8999 81.3001 59.7999 80.4001C58.3999 79.5001 57.9999 78.7001 58.1999 78.6001Z" fill="#DAA28B"/>
</g>
<g opacity="0.5">
<path d="M61.7998 84C61.8998 83.9 62.2998 84.1 62.7998 84.2C63.2998 84.4 63.9998 84.5 64.7998 84.5C65.5998 84.5 66.2998 84.3 66.7998 84.2C67.2998 84 67.5998 83.9 67.7998 84C67.8998 84.1 67.7998 84.5 67.2998 85C66.7998 85.5 65.8998 85.9 64.8998 85.8C63.8998 85.8 62.9998 85.4 62.4998 85C61.6998 84.5 61.5998 84.1 61.7998 84Z" fill="#DAA28B"/>
</g>
<g opacity="0.5">
<path d="M63.1998 92.2001C63.2998 92.1001 63.5998 92.1001 63.7998 92.1001C64.0998 92.1001 64.2998 92.1001 64.6998 92.1001C64.9998 92.1001 65.2998 92.1001 65.5998 92.1001C65.7998 92.1001 66.0998 92.1001 66.1998 92.2001C66.2998 92.3001 66.2998 92.6001 66.0998 92.9001C65.8998 93.2001 65.2998 93.5001 64.7998 93.5001C64.1998 93.5001 63.6998 93.2001 63.4998 92.9001C63.0998 92.5001 63.0998 92.3001 63.1998 92.2001Z" fill="#DAA28B"/>
</g>
<g opacity="0.5">
<path d="M63.1998 88.5C63.2998 88.4 63.5998 88.4 63.7998 88.4C64.0998 88.4 64.2998 88.4 64.6998 88.4C64.9998 88.4 65.2998 88.4 65.5998 88.4C65.7998 88.4 66.0998 88.4 66.1998 88.5C66.2998 88.6 66.2998 88.9 66.0998 89.2C65.8998 89.5 65.2998 89.8 64.7998 89.8C64.1998 89.8 63.6998 89.5 63.4998 89.2C63.0998 88.9 63.0998 88.6 63.1998 88.5Z" fill="#DAA28B"/>
</g>
</g>
<defs>
<clipPath id="clip0_741_258">
<rect width="129.5" height="95" fill="white"/>
</clipPath>
</defs>
</svg>
