<svg width="168" height="159" viewBox="0 0 168 159" fill="none" xmlns="http://www.w3.org/2000/svg">
<g clip-path="url(#clip0_610_592)">
<path d="M128.8 12.488H154.56C161.952 12.488 168 18.5091 168 25.8681V145.62C168 152.979 161.952 159 154.56 159H13.44C6.048 159 0 152.979 0 145.62V25.8681C0 18.5091 6.048 12.488 13.44 12.488H39.2H128.8Z" fill="#D9D9D9"/>
<path d="M135.296 159H154.56C161.952 159 168 152.979 168 145.62V126.442" fill="#999999"/>
<path d="M168 126.442H148.736C141.344 126.442 135.296 132.463 135.296 139.822V159" fill="#BFBFBF"/>
<path d="M26.88 83.8485C22.848 83.8485 19.488 80.5034 19.488 76.4894C19.488 72.4754 22.848 69.1304 26.88 69.1304C30.912 69.1304 34.272 72.4754 34.272 76.4894C34.272 80.7264 31.136 83.8485 26.88 83.8485Z" fill="#007CC3"/>
<path d="M26.88 112.616C22.848 112.616 19.488 109.271 19.488 105.257C19.488 101.243 22.848 97.8976 26.88 97.8976C30.912 97.8976 34.272 101.243 34.272 105.257C34.272 109.271 31.136 112.616 26.88 112.616Z" fill="#007CC3"/>
<path d="M26.88 141.16C22.848 141.16 19.488 137.815 19.488 133.801C19.488 129.787 22.848 126.442 26.88 126.442C30.912 126.442 34.272 129.787 34.272 133.801C34.272 137.815 31.136 141.16 26.88 141.16Z" fill="#007CC3"/>
<path d="M83.552 141.16C79.52 141.16 76.16 137.815 76.16 133.801C76.16 129.787 79.52 126.442 83.552 126.442C87.584 126.442 90.944 129.787 90.944 133.801C90.944 137.815 87.584 141.16 83.552 141.16Z" fill="white"/>
<path d="M112.224 141.16C108.192 141.16 104.832 137.815 104.832 133.801C104.832 129.787 108.192 126.442 112.224 126.442C116.256 126.442 119.616 129.787 119.616 133.801C119.84 137.815 116.48 141.16 112.224 141.16Z" fill="white"/>
<path d="M112.224 112.616C108.192 112.616 104.832 109.271 104.832 105.257C104.832 101.243 108.192 97.8976 112.224 97.8976C116.256 97.8976 119.616 101.243 119.616 105.257C119.84 109.271 116.48 112.616 112.224 112.616Z" fill="white"/>
<path d="M141.12 112.616C137.088 112.616 133.728 109.271 133.728 105.257C133.728 101.243 137.088 97.8976 141.12 97.8976C145.152 97.8976 148.512 101.243 148.512 105.257C148.512 109.271 145.152 112.616 141.12 112.616Z" fill="white"/>
<path d="M54.88 83.8485C50.848 83.8485 47.488 80.5034 47.488 76.4894C47.488 72.4754 50.848 69.1304 54.88 69.1304C58.912 69.1304 62.272 72.4754 62.272 76.4894C62.272 80.7264 58.912 83.8485 54.88 83.8485Z" fill="white"/>
<path d="M83.552 83.8485C79.52 83.8485 76.16 80.5034 76.16 76.4894C76.16 72.4754 79.52 69.1304 83.552 69.1304C87.584 69.1304 90.944 72.4754 90.944 76.4894C90.944 80.7264 87.584 83.8485 83.552 83.8485Z" fill="white"/>
<path d="M112.224 83.8485C108.192 83.8485 104.832 80.5034 104.832 76.4894C104.832 72.4754 108.192 69.1304 112.224 69.1304C116.256 69.1304 119.616 72.4754 119.616 76.4894C119.84 80.7264 116.48 83.8485 112.224 83.8485Z" fill="white"/>
<path d="M141.12 83.8485C137.088 83.8485 133.728 80.5034 133.728 76.4894C133.728 72.4754 137.088 69.1304 141.12 69.1304C145.152 69.1304 148.512 72.4754 148.512 76.4894C148.512 80.7264 145.152 83.8485 141.12 83.8485Z" fill="white"/>
<path d="M54.88 112.616C50.848 112.616 47.488 109.271 47.488 105.257C47.488 101.243 50.848 97.8976 54.88 97.8976C58.912 97.8976 62.272 101.243 62.272 105.257C62.272 109.271 58.912 112.616 54.88 112.616Z" fill="white"/>
<path d="M83.552 112.616C79.52 112.616 76.16 109.271 76.16 105.257C76.16 101.243 79.52 97.8976 83.552 97.8976C87.584 97.8976 90.944 101.243 90.944 105.257C90.944 109.271 87.584 112.616 83.552 112.616Z" fill="white"/>
<path d="M54.88 141.16C50.848 141.16 47.488 137.815 47.488 133.801C47.488 129.787 50.848 126.442 54.88 126.442C58.912 126.442 62.272 129.787 62.272 133.801C62.272 137.815 58.912 141.16 54.88 141.16Z" fill="white"/>
<path d="M154.56 12.488H128.8H39.2H13.44C6.048 12.488 0 18.5091 0 25.8681V51.2903H168V25.8681C168 18.5091 161.952 12.488 154.56 12.488Z" fill="#F173AC"/>
<path d="M47.264 31.8892C43.008 31.8892 39.424 28.3212 39.424 24.0842V7.80505C39.424 3.56802 43.008 0 47.264 0C51.5199 0 55.104 3.56802 55.104 7.80505V23.8612C55.104 28.3212 51.5199 31.8892 47.264 31.8892Z" fill="#F4C6DE"/>
<path d="M120.736 31.8892C116.48 31.8892 112.896 28.3212 112.896 24.0842V7.80505C112.896 3.56802 116.48 0 120.736 0C124.992 0 128.576 3.56802 128.576 7.80505V23.8612C128.8 28.3212 125.216 31.8892 120.736 31.8892Z" fill="#F4C6DE"/>
</g>
<defs>
<clipPath id="clip0_610_592">
<rect width="168" height="159" fill="white"/>
</clipPath>
</defs>
</svg>
