<?xml version="1.0" encoding="utf-8"?>
<!-- Generator: Adobe Illustrator 24.1.1, SVG Export Plug-In . SVG Version: 6.00 Build 0)  -->
<svg version="1.1" id="Capa_1" xmlns="http://www.w3.org/2000/svg" xmlns:xlink="http://www.w3.org/1999/xlink" x="0px" y="0px"
	 viewBox="0 0 79.08 114.82" style="enable-background:new 0 0 79.08 114.82;" xml:space="preserve">
<style type="text/css">
	.st0{fill:#F173AC;}
	.st1{fill:#999999;}
	.st2{fill:#FFFFFF;}
	.st3{fill:#F8C5B0;}
	.st4{fill:#D36F62;}
	.st5{opacity:0.5;fill:#D36F62;}
	.st6{fill:#BFBFBF;}
	.st7{opacity:0.5;}
	.st8{fill:#D9D9D9;}
	.st9{fill:#007CC3;}
	.st10{fill:#F5A4C7;}
</style>
<g>
	<g>
		<path class="st0" d="M30.62,25.47c-5.65,0-10.96-2.63-14.94-7.42c-0.35-0.42-0.3-1.06,0.13-1.41c0.43-0.35,1.06-0.3,1.41,0.13
			c3.59,4.32,8.35,6.7,13.4,6.7c5.05,0,9.81-2.38,13.4-6.7c0.35-0.42,0.98-0.48,1.41-0.13c0.42,0.35,0.48,0.98,0.13,1.41
			C41.58,22.83,36.28,25.47,30.62,25.47z"/>
	</g>
	<g>
		<path class="st0" d="M30.62,21.43c-4.76,0-9.22-2.21-12.56-6.24c-0.35-0.42-0.3-1.06,0.13-1.41c0.43-0.35,1.06-0.29,1.41,0.13
			c2.96,3.56,6.87,5.52,11.03,5.52c4.15,0,8.07-1.96,11.03-5.52c0.35-0.42,0.98-0.48,1.41-0.13c0.42,0.35,0.48,0.98,0.13,1.41
			C39.84,19.22,35.38,21.43,30.62,21.43z"/>
	</g>
	<g>
		<path class="st0" d="M30.62,17.16c-4.01,0-7.77-1.87-10.59-5.25c-0.35-0.42-0.3-1.06,0.13-1.41c0.43-0.35,1.06-0.29,1.41,0.13
			c2.43,2.92,5.65,4.53,9.05,4.53s6.62-1.61,9.05-4.53c0.35-0.42,0.98-0.48,1.41-0.13c0.42,0.35,0.48,0.98,0.13,1.41
			C38.4,15.29,34.63,17.16,30.62,17.16z"/>
	</g>
</g>
<circle class="st1" cx="30.62" cy="7.62" r="3.53"/>
<path class="st2" d="M68.7,40.72H23.14c-1.78,0-3.23-1.45-3.23-3.23V30.6c0-1.78,1.45-3.23,3.23-3.23H68.7V40.72z"/>
<path class="st3" d="M0,27.77c0-2.62,3.12-3.98,5.04-2.2c2.44,2.26,5.96,5.48,11.01,9.95C29.34,47.31,43.13,59.59,47.4,67.37
	c0,0-2.26,33.86-28.84,34.11c-8.65,0-14.19-1.91-16.8-3.09C0.68,97.9,0,96.83,0,95.65L0,27.77z"/>
<path class="st4" d="M40.17,58.1c-0.01,0.03-2.98,13.35,4.83,20.88c2.04-6.38,2.4-11.62,2.4-11.62
	C45.95,64.73,43.41,61.58,40.17,58.1z"/>
<path class="st4" d="M44.84,63.54c0,0-1.34,5.56,1.85,8.81c0,0,3.02-1.88,2.13-5.07C47.93,64.09,45.84,63.82,44.84,63.54z"/>
<path class="st5" d="M44.84,63.54c0,0-1.34,5.56,1.85,8.81c0,0,3.02-1.88,2.13-5.07C47.93,64.09,45.84,63.82,44.84,63.54z"/>
<path class="st6" d="M72.41,114.82H3.4c-1.88,0-3.4-1.52-3.4-3.4v-6.55c0-1.88,1.52-3.4,3.4-3.4h69.01V114.82z"/>
<path class="st1" d="M79.08,108.15V3.23c0-1.78-1.45-3.23-3.23-3.23l-6.88,0c-1.78,0-3.23,1.45-3.23,3.23v104.92H79.08z"/>
<path class="st1" d="M65.74,34.04H44.57c-1.78,0-3.23-1.45-3.23-3.23v0c0-5.59,4.53-10.11,10.11-10.11h14.29V34.04z"/>
<circle class="st1" cx="72.41" cy="108.15" r="6.67"/>
<circle class="st6" cx="72.41" cy="108.15" r="2.46"/>
<path class="st6" d="M38.27,3.81L38.27,3.81c0-2.11-1.71-3.81-3.81-3.81l-7.67,0c-2.11,0-3.81,1.71-3.81,3.81v0
	c0,2.11,1.71,3.81,3.81,3.81h7.67C36.56,7.62,38.27,5.92,38.27,3.81z"/>
</svg>
