<?xml version="1.0" encoding="utf-8"?>
<!-- Generator: Adobe Illustrator 24.1.1, SVG Export Plug-In . SVG Version: 6.00 Build 0)  -->
<svg version="1.1" id="Capa_1" xmlns="http://www.w3.org/2000/svg" xmlns:xlink="http://www.w3.org/1999/xlink" x="0px" y="0px"
	 viewBox="0 0 103.7 83.84" style="enable-background:new 0 0 103.7 83.84;" xml:space="preserve">
<style type="text/css">
	.st0{fill:#F173AC;}
	.st1{fill:#999999;}
	.st2{fill:#FFFFFF;}
	.st3{fill:#F8C5B0;}
	.st4{fill:#D36F62;}
	.st5{opacity:0.5;fill:#D36F62;}
	.st6{fill:#BFBFBF;}
	.st7{opacity:0.5;}
	.st8{fill:#D9D9D9;}
	.st9{fill:#007CC3;}
	.st10{fill:#F5A4C7;}
</style>
<g>
	<path class="st2" d="M101.27,80.13H2.42C1.09,80.13,0,79.05,0,77.71V6.13c0-1.34,1.09-2.42,2.42-2.42h98.85
		c1.34,0,2.42,1.09,2.42,2.42v71.58C103.7,79.05,102.61,80.13,101.27,80.13z"/>
	<g class="st7">
		<g>
			<path class="st8" d="M6.52,74.14c-0.55,0-1-0.45-1-1V10.69c0-0.55,0.45-1,1-1s1,0.45,1,1v62.45C7.52,73.7,7.08,74.14,6.52,74.14z
				"/>
		</g>
		<g>
			<path class="st8" d="M12.26,74.14H6.52c-0.55,0-1-0.45-1-1s0.45-1,1-1h5.73c0.55,0,1,0.45,1,1S12.81,74.14,12.26,74.14z"/>
		</g>
		<g>
			<path class="st8" d="M14.88,65.19H6.52c-0.55,0-1-0.45-1-1s0.45-1,1-1h8.36c0.55,0,1,0.45,1,1S15.43,65.19,14.88,65.19z"/>
		</g>
		<g>
			<path class="st8" d="M12.26,56.25H6.52c-0.55,0-1-0.45-1-1s0.45-1,1-1h5.73c0.55,0,1,0.45,1,1S12.81,56.25,12.26,56.25z"/>
		</g>
		<g>
			<path class="st8" d="M14.88,47.3H6.52c-0.55,0-1-0.45-1-1s0.45-1,1-1h8.36c0.55,0,1,0.45,1,1S15.43,47.3,14.88,47.3z"/>
		</g>
		<g>
			<path class="st8" d="M12.26,38.35H6.52c-0.55,0-1-0.45-1-1s0.45-1,1-1h5.73c0.55,0,1,0.45,1,1S12.81,38.35,12.26,38.35z"/>
		</g>
		<g>
			<path class="st8" d="M14.88,29.4H6.52c-0.55,0-1-0.45-1-1s0.45-1,1-1h8.36c0.55,0,1,0.45,1,1S15.43,29.4,14.88,29.4z"/>
		</g>
		<g>
			<path class="st8" d="M12.26,20.45H6.52c-0.55,0-1-0.45-1-1s0.45-1,1-1h5.73c0.55,0,1,0.45,1,1S12.81,20.45,12.26,20.45z"/>
		</g>
		<g>
			<path class="st8" d="M97.17,11.69H6.52c-0.55,0-1-0.45-1-1s0.45-1,1-1h90.65c0.55,0,1,0.45,1,1S97.73,11.69,97.17,11.69z"/>
		</g>
		<g>
			<path class="st8" d="M76.98,16.78c-0.55,0-1-0.45-1-1v-5.08c0-0.55,0.45-1,1-1s1,0.45,1,1v5.08
				C77.98,16.33,77.53,16.78,76.98,16.78z"/>
		</g>
		<g>
			<path class="st8" d="M97.17,16.78c-0.55,0-1-0.45-1-1v-5.08c0-0.55,0.45-1,1-1s1,0.45,1,1v5.08
				C98.17,16.33,97.73,16.78,97.17,16.78z"/>
		</g>
		<g>
			<path class="st8" d="M66.88,19.1c-0.55,0-1-0.45-1-1v-7.41c0-0.55,0.45-1,1-1s1,0.45,1,1v7.41C67.88,18.65,67.44,19.1,66.88,19.1
				z"/>
		</g>
		<g>
			<path class="st8" d="M87.08,19.1c-0.55,0-1-0.45-1-1v-7.41c0-0.55,0.45-1,1-1s1,0.45,1,1v7.41C88.08,18.65,87.63,19.1,87.08,19.1
				z"/>
		</g>
		<g>
			<path class="st8" d="M56.79,16.78c-0.55,0-1-0.45-1-1v-5.08c0-0.55,0.45-1,1-1s1,0.45,1,1v5.08
				C57.79,16.33,57.34,16.78,56.79,16.78z"/>
		</g>
		<g>
			<path class="st8" d="M46.69,19.1c-0.55,0-1-0.45-1-1v-7.41c0-0.55,0.45-1,1-1s1,0.45,1,1v7.41C47.69,18.65,47.24,19.1,46.69,19.1
				z"/>
		</g>
		<g>
			<path class="st8" d="M36.59,16.78c-0.55,0-1-0.45-1-1v-5.08c0-0.55,0.45-1,1-1s1,0.45,1,1v5.08
				C37.59,16.33,37.14,16.78,36.59,16.78z"/>
		</g>
		<g>
			<path class="st8" d="M26.5,19.1c-0.55,0-1-0.45-1-1v-7.41c0-0.55,0.45-1,1-1s1,0.45,1,1v7.41C27.5,18.65,27.05,19.1,26.5,19.1z"
				/>
		</g>
		<g>
			<path class="st8" d="M16.4,16.78c-0.55,0-1-0.45-1-1v-5.08c0-0.55,0.45-1,1-1s1,0.45,1,1v5.08C17.4,16.33,16.95,16.78,16.4,16.78
				z"/>
		</g>
	</g>
	<path class="st9" d="M99.23,57.51c-10.03,0-18.16,8.13-18.16,18.16c0,1.54,0.21,3.04,0.58,4.47h19.62c1.34,0,2.42-1.09,2.42-2.42
		V58.09C102.26,57.72,100.77,57.51,99.23,57.51z"/>
	<g>
		<path class="st2" d="M90.32,65.7c0.34-0.34,0.77-0.5,1.3-0.5c0.53,0,0.96,0.17,1.3,0.5c0.34,0.34,0.51,0.78,0.51,1.35
			c0,0.57-0.17,1.02-0.51,1.36c-0.34,0.34-0.77,0.5-1.3,0.5c-0.53,0-0.96-0.17-1.3-0.5c-0.34-0.34-0.51-0.79-0.51-1.36
			C89.81,66.48,89.98,66.03,90.32,65.7z M90.96,66.18c-0.16,0.19-0.24,0.48-0.24,0.86c0,0.38,0.08,0.67,0.24,0.87
			c0.16,0.2,0.38,0.3,0.66,0.3c0.28,0,0.5-0.1,0.67-0.3c0.17-0.2,0.25-0.49,0.25-0.86c0-0.38-0.08-0.67-0.25-0.86
			c-0.17-0.19-0.39-0.29-0.67-0.29C91.34,65.89,91.12,65.99,90.96,66.18z M97.06,65.33L92.03,74h-1.12l5.03-8.66H97.06z
			 M95.07,70.92c0.34-0.34,0.77-0.5,1.3-0.5c0.53,0,0.96,0.17,1.3,0.5c0.34,0.34,0.5,0.79,0.5,1.36c0,0.56-0.17,1.01-0.5,1.35
			c-0.34,0.34-0.77,0.51-1.3,0.51c-0.53,0-0.96-0.17-1.3-0.5c-0.34-0.34-0.51-0.79-0.51-1.36C94.56,71.71,94.73,71.26,95.07,70.92z
			 M95.69,71.42c-0.17,0.19-0.25,0.48-0.25,0.86c0,0.37,0.08,0.66,0.25,0.85c0.17,0.19,0.39,0.29,0.67,0.29
			c0.28,0,0.5-0.1,0.67-0.29c0.17-0.19,0.25-0.48,0.25-0.85c0-0.38-0.08-0.67-0.25-0.86c-0.17-0.19-0.39-0.29-0.67-0.29
			C96.08,71.13,95.86,71.23,95.69,71.42z"/>
	</g>
	<path class="st0" d="M69.64,35.77c-0.35-5.97-3.94-19.25-17.79-19.25S34.41,29.79,34.06,35.77c-0.36,5.97,0.1,9.91,4.2,9.91
		c4.1,0,2.75-5.33,2.75-7.94c0-6.07,2.39-9.49,2.39-9.49s-0.32,25.77-0.32,32.2c0,4.44-0.11,13.92-0.17,19.35
		c-0.03,2.23,1.77,4.05,4.01,4.05c2.16,0,3.93-1.7,4-3.86c0.12-3.48,0.28-8.64,0.3-12.5C51.24,61.09,51.3,52,51.3,52h0.55h0.54
		c0,0,0.06,9.09,0.09,15.48c0.02,3.86,0.18,9.01,0.3,12.5c0.08,2.15,1.85,3.86,4,3.86c2.23,0,4.03-1.81,4.01-4.05
		c-0.07-5.43-0.17-14.91-0.17-19.35c0-6.43-0.32-32.2-0.32-32.2s2.39,3.42,2.39,9.49c0,2.62-1.36,7.94,2.75,7.94
		C69.54,45.68,69.99,41.74,69.64,35.77z"/>
	<circle class="st10" cx="51.85" cy="7.18" r="7.18"/>
	<path class="st0" d="M59.03,7.18c0-3.97-3.22-7.18-7.18-7.18v14.37C55.82,14.37,59.03,11.15,59.03,7.18z"/>
	<path class="st10" d="M52.39,52c0,0,0.06,9.09,0.09,15.48c0.02,3.86,0.18,9.01,0.3,12.5c0.08,2.15,1.85,3.86,4,3.86
		c2.23,0,4.03-1.81,4.01-4.05c-0.07-5.43-0.17-14.91-0.17-19.35c0-6.43-0.32-32.2-0.32-32.2s2.39,3.42,2.39,9.49
		c0,2.62-1.36,7.94,2.75,7.94c4.1,0,4.55-3.94,4.2-9.91c-0.35-5.97-3.94-19.25-17.79-19.25V52H52.39z"/>
</g>
</svg>
