<?xml version="1.0" encoding="utf-8"?>
<!-- Generator: Adobe Illustrator 24.1.1, SVG Export Plug-In . SVG Version: 6.00 Build 0)  -->
<svg version="1.1" id="Capa_1" xmlns="http://www.w3.org/2000/svg" xmlns:xlink="http://www.w3.org/1999/xlink" x="0px" y="0px"
	 viewBox="0 0 101.2 83.84" style="enable-background:new 0 0 101.2 83.84;" xml:space="preserve">
<style type="text/css">
	.st0{fill:#F8C5B0;}
	.st1{fill:#D36F62;}
	.st2{opacity:0.5;fill:#D36F62;}
	.st3{fill:none;}
	.st4{fill:#BFBFBF;}
	.st5{fill:#999999;}
	.st6{fill:#F45B6A;}
	.st7{fill:#F173AC;}
	.st8{fill:#F5A4C7;}
	.st9{fill:#F4C6DE;}
	.st10{fill:#007CC3;}
	.st11{fill:#FFFFFF;}
</style>
<g>
	<g>
		<path class="st7" d="M11.18,0L11.18,0C6.84,0,3.33,3.52,3.33,7.85v68.13c0,4.34,3.52,7.85,7.85,7.85h0c4.34,0,7.85-3.52,7.85-7.85
			V7.85C19.03,3.52,15.51,0,11.18,0z"/>
		<path class="st8" d="M37.46,15.71L37.46,15.71c-4.34,0-7.85,3.52-7.85,7.85v52.43c0,4.34,3.52,7.85,7.85,7.85h0
			c4.34,0,7.85-3.52,7.85-7.85V23.56C45.31,19.22,41.8,15.71,37.46,15.71z"/>
		<path class="st9" d="M63.74,31.16L63.74,31.16c-4.34,0-7.85,3.52-7.85,7.85v36.97c0,4.34,3.52,7.85,7.85,7.85h0
			c4.34,0,7.85-3.52,7.85-7.85V39.02C71.59,34.68,68.08,31.16,63.74,31.16z"/>
		<path class="st8" d="M90.02,46.87L90.02,46.87c-4.34,0-7.85,3.52-7.85,7.85v21.26c0,4.34,3.52,7.85,7.85,7.85h0
			c4.34,0,7.85-3.52,7.85-7.85V54.72C97.87,50.39,94.36,46.87,90.02,46.87z"/>
	</g>
	<g>
		<circle class="st10" cx="83.18" cy="14.69" r="14.69"/>
		<g>
			<path class="st11" d="M76.56,7.53c0.61-0.6,1.39-0.91,2.35-0.91c0.95,0,1.74,0.3,2.35,0.91c0.61,0.6,0.92,1.41,0.92,2.43
				c0,1.03-0.31,1.85-0.92,2.45c-0.61,0.6-1.4,0.91-2.35,0.91c-0.95,0-1.74-0.3-2.35-0.91c-0.61-0.6-0.92-1.42-0.92-2.45
				C75.64,8.95,75.95,8.14,76.56,7.53z M77.71,8.4c-0.29,0.35-0.44,0.87-0.44,1.56c0,0.69,0.15,1.21,0.44,1.57
				c0.29,0.36,0.69,0.54,1.2,0.54c0.51,0,0.91-0.18,1.21-0.55c0.3-0.37,0.45-0.88,0.45-1.56c0-0.69-0.15-1.2-0.45-1.56
				c-0.3-0.35-0.7-0.53-1.21-0.53C78.4,7.88,78,8.05,77.71,8.4z M88.71,6.87l-9.06,15.62h-2.01L86.7,6.87H88.71z M85.13,16.95
				c0.61-0.6,1.39-0.91,2.35-0.91c0.95,0,1.73,0.3,2.34,0.91c0.6,0.6,0.91,1.42,0.91,2.45c0,1.01-0.3,1.83-0.91,2.44
				c-0.6,0.61-1.38,0.92-2.34,0.92c-0.96,0-1.74-0.3-2.35-0.91c-0.61-0.6-0.92-1.42-0.92-2.45C84.21,18.37,84.52,17.56,85.13,16.95z
				 M86.25,17.85c-0.3,0.35-0.45,0.87-0.45,1.56c0,0.67,0.15,1.18,0.45,1.53c0.3,0.35,0.7,0.53,1.21,0.53
				c0.51,0,0.91-0.18,1.21-0.53c0.3-0.35,0.45-0.86,0.45-1.53c0-0.69-0.15-1.2-0.45-1.56c-0.3-0.35-0.7-0.53-1.21-0.53
				C86.95,17.32,86.55,17.5,86.25,17.85z"/>
		</g>
	</g>
</g>
</svg>
