<?xml version="1.0" encoding="utf-8"?>
<!-- Generator: Adobe Illustrator 24.1.1, SVG Export Plug-In . SVG Version: 6.00 Build 0)  -->
<svg version="1.1" id="Capa_1" xmlns="http://www.w3.org/2000/svg" xmlns:xlink="http://www.w3.org/1999/xlink" x="0px" y="0px"
	 viewBox="0 0 79.1 114.8" style="enable-background:new 0 0 79.1 114.8;" xml:space="preserve">
<style type="text/css">
	.st0{fill:#F173AC;}
	.st1{fill:#999999;}
	.st2{fill:#FFFFFF;}
	.st3{fill:#F8C5B0;}
	.st4{fill:#D36F62;}
	.st5{fill:#BFBFBF;}
	.st6{opacity:0.5;fill:#D36F62;enable-background:new    ;}
</style>
<g>
	<g>
		<path class="st0" d="M30.6,25.5c-5.6,0-11-2.6-14.9-7.4c-0.4-0.4-0.3-1.1,0.1-1.4s1.1-0.3,1.4,0.1c3.6,4.3,8.4,6.7,13.4,6.7
			s9.8-2.4,13.4-6.7c0.3-0.4,1-0.5,1.4-0.1c0.4,0.4,0.5,1,0.1,1.4C41.6,22.8,36.3,25.5,30.6,25.5z"/>
	</g>
	<g>
		<path class="st0" d="M30.6,21.4c-4.8,0-9.2-2.2-12.6-6.2c-0.4-0.4-0.3-1.1,0.1-1.4c0.4-0.4,1.1-0.3,1.4,0.1c3,3.6,6.9,5.5,11,5.5
			c4.2,0,8.1-2,11-5.5c0.3-0.4,1-0.5,1.4-0.1c0.4,0.4,0.5,1,0.1,1.4C39.8,19.2,35.4,21.4,30.6,21.4z"/>
	</g>
	<g>
		<path class="st0" d="M30.6,17.2c-4,0-7.8-1.9-10.6-5.3c-0.4-0.4-0.3-1.1,0.1-1.4c0.4-0.4,1.1-0.3,1.4,0.1c2.4,2.9,5.6,4.5,9,4.5
			s6.6-1.6,9-4.5c0.3-0.4,1-0.5,1.4-0.1c0.4,0.4,0.5,1,0.1,1.4C38.4,15.3,34.6,17.2,30.6,17.2z"/>
	</g>
</g>
<circle class="st1" cx="30.6" cy="7.6" r="3.5"/>
<path class="st2" d="M68.7,40.7H23.1c-1.8,0-3.2-1.5-3.2-3.2v-6.9c0-1.8,1.5-3.2,3.2-3.2h45.6V40.7z"/>
<path class="st3" d="M0,27.8c0-2.6,3.1-4,5-2.2c2.4,2.3,6,5.5,11,10c13.3,11.8,27.1,24.1,31.4,31.9c0,0-2.3,33.9-28.8,34.1
	c-8.6,0-14.2-1.9-16.8-3.1C0.7,97.9,0,96.8,0,95.7V27.8z"/>
<path class="st4" d="M40.2,58.1c0,0-3,13.3,4.8,20.9c2-6.4,2.4-11.6,2.4-11.6C46,64.7,43.4,61.6,40.2,58.1z"/>
<path class="st4" d="M44.8,63.5c0,0-1.3,5.6,1.8,8.8c0,0,3-1.9,2.1-5.1S45.8,63.8,44.8,63.5z"/>
<path class="st5" d="M72.4,114.8h-69c-1.9,0-3.4-1.5-3.4-3.4v-6.6c0-1.9,1.5-3.4,3.4-3.4h69V114.8z"/>
<path class="st1" d="M79.1,108.2V3.2c0-1.8-1.4-3.2-3.2-3.2H69c-1.8,0-3.2,1.5-3.2,3.2v104.9H79.1z"/>
<path class="st1" d="M65.7,34H44.6c-1.8,0-3.2-1.5-3.2-3.2l0,0c0-5.6,4.5-10.1,10.1-10.1h14.3V34z"/>
<circle class="st1" cx="72.4" cy="108.2" r="6.7"/>
<circle class="st5" cx="72.4" cy="108.2" r="2.5"/>
<path class="st5" d="M38.3,3.8L38.3,3.8c0-2.1-1.7-3.8-3.8-3.8h-7.7C24.7,0,23,1.7,23,3.8l0,0c0,2.1,1.7,3.8,3.8,3.8h7.7
	C36.6,7.6,38.3,5.9,38.3,3.8z"/>
<path class="st6" d="M44.8,63.5c0,0-1.3,5.6,1.8,8.8c0,0,3-1.9,2.1-5.1S45.8,63.8,44.8,63.5z"/>
</svg>
