<svg width="134" height="115" viewBox="0 0 134 115" fill="none" xmlns="http://www.w3.org/2000/svg">
<g clip-path="url(#clip0_324_654)">
<path opacity="0.5" d="M120.455 24.4421H48.9575C46.7763 24.4421 45.0797 22.7311 45.0797 20.5314V12.0988C45.0797 9.89906 46.7763 8.18811 48.9575 8.18811H120.334L120.455 24.4421Z" fill="#D9D9D9"/>
<path d="M16.8443 0C19.3891 0 21.8128 0.977683 23.7517 2.81084C26.4177 5.37726 31.3861 10.1435 40.4748 18.0871C56.592 32.508 73.3151 47.5399 78.4048 56.9501C78.4048 56.9501 75.6176 98.3794 43.5043 98.6238C28.3566 98.6238 20.9645 93.7354 20.9645 93.7354V111.089C20.9645 113.289 19.2679 115 17.0867 115H3.87782C1.69655 115 0 113.289 0 111.089V3.91073C0 1.71095 1.69655 0 3.87782 0H16.8443Z" fill="#F8C5B0"/>
<path d="M69.6797 45.7067C69.6797 45.7067 66.0442 62.0829 75.4964 71.2487C77.92 63.4272 78.4048 57.0723 78.4048 57.0723C76.7082 53.7726 73.5575 49.9841 69.6797 45.7067Z" fill="#D36F62"/>
<path d="M75.254 52.3061C75.254 52.3061 73.6787 59.1498 77.4353 63.0606C77.4353 63.0606 81.0708 60.7386 79.9801 56.8278C79.0107 53.0393 76.4659 52.6727 75.254 52.3061Z" fill="#D36F62"/>
<g style="mix-blend-mode:multiply" opacity="0.5">
<path d="M75.254 52.3061C75.254 52.3061 73.6787 59.1498 77.4353 63.0606C77.4353 63.0606 81.0708 60.7386 79.9801 56.8278C79.0107 53.0393 76.4659 52.6727 75.254 52.3061Z" fill="#D36F62"/>
</g>
<path d="M124.939 115H27.9931C25.8118 115 24.1152 113.289 24.1152 111.089V102.657C24.1152 100.457 25.8118 98.746 27.9931 98.746H124.817L124.939 115Z" fill="#BFBFBF"/>
<path d="M132.937 106.812V3.91073C132.937 1.71095 131.24 0 129.059 0H116.819V106.812H132.937Z" fill="#999999"/>
<path d="M116.819 16.254H75.0117C72.8304 16.254 71.1339 14.543 71.1339 12.3433C71.1339 5.49947 76.587 0 83.3732 0H116.819V16.254Z" fill="#999999"/>
<path d="M124.939 115C129.423 115 133.058 111.334 133.058 106.812C133.058 102.29 129.423 98.6238 124.939 98.6238C120.455 98.6238 116.819 102.29 116.819 106.812C116.819 111.334 120.455 115 124.939 115Z" fill="#999999"/>
<path d="M124.939 109.867C126.612 109.867 127.968 108.499 127.968 106.812C127.968 105.125 126.612 103.757 124.939 103.757C123.265 103.757 121.909 105.125 121.909 106.812C121.909 108.499 123.265 109.867 124.939 109.867Z" fill="#BFBFBF"/>
</g>
<defs>
<clipPath id="clip0_324_654">
<rect width="133.058" height="115" fill="white"/>
</clipPath>
</defs>
</svg>
