<svg width="75" height="75" viewBox="0 0 75 75" fill="none" xmlns="http://www.w3.org/2000/svg">
<path d="M58.5 40.5C58.5 34.2 66.8 30.1 73.9 28.6C69.9 12.1 55.1 0 37.5 0C16.8 0 0 16.8 0 37.5C0 43.1 1.2 48.4 3.4 53.1C4.6 52.6 5.8 52.1 6.9 51.8C13.8 49.9 22.3 50.6 23.8 56.4C25.3 61.8 22.1 66.2 17.9 69.4C23.6 73 30.3 75 37.5 75C53.9 75 67.8 64.5 72.9 49.8C66.5 49.7 58.5 48.4 58.5 40.5Z" fill="#F8C5B0"/>
<path d="M73.9 28.5C66.8 30.1 58.5 34.1 58.5 40.4C58.5 48.4 66.6 49.6 72.9 49.8C74.2 45.9 75 41.8 75 37.5C75 34.4 74.6 31.4 73.9 28.5Z" fill="#F45B6A"/>
<path d="M23.8 56.5001C22.2 50.7001 13.7 50.1001 6.90002 51.9001C5.90002 52.2001 4.70002 52.6001 3.40002 53.2001C6.50002 60.0001 11.6 65.7001 17.9 69.5001C22.1 66.3001 25.3 61.8001 23.8 56.5001Z" fill="#F45B6A"/>
<path d="M35.9 15.5C35.9 24.2 45.5 24.9 52.1 24.9C58.7 24.9 72.6 21.8 72.6 11.7C72.6 5.70005 64.6 2.80005 57.5 2.80005C50.4 2.80005 35.9 7.10005 35.9 15.5Z" fill="#F45B6A"/>
<path d="M1.89996 18.0001C-1.60004 26.0001 6.89996 30.5001 12.8 33.2001C18.7 35.9001 32.8 38.7001 36.9 29.4001C39.3 23.9001 33.2 18.0001 26.7 15.2001C20.2 12.4001 5.29996 10.3001 1.89996 18.0001Z" fill="#F45B6A"/>
<path d="M27.6 40.3001C20.6 45.5001 25.8 53.6001 29.8 58.9001C33.8 64.2001 44.6 73.5001 52.7 67.4001C57.5 63.8001 55 55.7001 50.7 50.0001C46.4 44.3001 34.3 35.3001 27.6 40.3001Z" fill="#F45B6A"/>
<path d="M73.9 28.5C66.8 30.1 58.5 34.1 58.5 40.4C58.5 48.4 66.6 49.6 72.9 49.8C74.2 45.9 75 41.8 75 37.5C75 34.4 74.6 31.4 73.9 28.5Z" fill="#F45B6A"/>
<path d="M23.8 56.5001C22.2 50.7001 13.7 50.1001 6.90002 51.9001C5.90002 52.2001 4.70002 52.6001 3.40002 53.2001C6.50002 60.0001 11.6 65.7001 17.9 69.5001C22.1 66.3001 25.3 61.8001 23.8 56.5001Z" fill="#F45B6A"/>
<path d="M35.9 15.5C35.9 24.2 45.5 24.9 52.1 24.9C58.7 24.9 72.6 21.8 72.6 11.7C72.6 5.70005 64.6 2.80005 57.5 2.80005C50.4 2.80005 35.9 7.10005 35.9 15.5Z" fill="#F45B6A"/>
<path opacity="0.25" d="M19.2 55.9001C18.5 52.5001 14.6 51.1 10.4 51.2C9.20002 51.4 8.00002 51.6001 6.90002 51.9001C5.90002 52.2001 4.70002 52.6 3.40002 53.2C5.70002 58.2 9.00003 62.5 13.1 66C16.8 63.8 20 60.4001 19.2 55.9001Z" fill="#C1272D"/>
<path opacity="0.25" d="M62.2 37.9C62.2 44.5 68.9999 45.3 74.1999 45.4C74.6999 42.9 75 40.2 75 37.5C75 34.4 74.6 31.4 73.9 28.5C73.6 28.6 73.3 28.6 73 28.7C67.8 30.2 62.2 33.3 62.2 37.9Z" fill="#C1272D"/>
<path opacity="0.25" d="M41.1 11.9C41.1 18.2 48 18.7 52.7 18.7C57.4 18.7 67.4 16.5 67.4 9.20005C67.4 4.90005 61.6 2.80005 56.5 2.80005C51.4 2.80005 41.1 5.90005 41.1 11.9Z" fill="#C1272D"/>
<path opacity="0.25" d="M8.30005 16.6999C5.80005 22.2999 11.8 25.4999 16 27.3999C20.2 29.2999 30.1 31.2999 33.1 24.6999C34.8 20.7999 30.5 16.6999 25.9 14.5999C21.3 12.4999 10.7 11.3999 8.30005 16.6999Z" fill="#C1272D"/>
<path d="M27.6 40.3001C20.6 45.5001 25.8 53.6001 29.8 58.9001C33.8 64.2001 44.6 73.5001 52.7 67.4001C57.5 63.8001 55 55.7001 50.7 50.0001C46.4 44.3001 34.3 35.3001 27.6 40.3001Z" fill="#F45B6A"/>
<path opacity="0.25" d="M32.4 41.9001C27 45.9001 31 52.2001 34.1 56.2001C37.2 60.2001 45.5 67.5001 51.8 62.8001C55.5 60.0001 53.6 53.7001 50.3 49.3001C46.9 44.9001 37.6 38.0001 32.4 41.9001Z" fill="#C1272D"/>
</svg>
