<?xml version="1.0" encoding="utf-8"?>
<!-- Generator: Adobe Illustrator 24.1.1, SVG Export Plug-In . SVG Version: 6.00 Build 0)  -->
<svg version="1.1" id="Capa_1" xmlns="http://www.w3.org/2000/svg" xmlns:xlink="http://www.w3.org/1999/xlink" x="0px" y="0px"
	 viewBox="0 0 101.2 83.84" style="enable-background:new 0 0 101.2 83.84;" xml:space="preserve">
<style type="text/css">
	.st0{fill:#F8C5B0;}
	.st1{fill:#D36F62;}
	.st2{opacity:0.5;fill:#D36F62;}
	.st3{fill:none;}
	.st4{fill:#BFBFBF;}
	.st5{fill:#999999;}
	.st6{fill:#F45B6A;}
	.st7{fill:#F173AC;}
	.st8{fill:#F5A4C7;}
	.st9{fill:#F4C6DE;}
	.st10{fill:#007CC3;}
	.st11{fill:#FFFFFF;}
</style>
<g>
	<path class="st3" d="M35.36,66.05c-1.03-0.1-2.06-0.04-2.87,0.24c-0.3,0.02-0.57,0.09-0.81,0.2c0.24-0.11,0.51-0.18,0.81-0.2
		C33.29,66.01,34.33,65.94,35.36,66.05z"/>
	<path class="st3" d="M65.84,66.05c1.03-0.1,2.06-0.04,2.87,0.24c0.3,0.02,0.57,0.09,0.81,0.2c-0.24-0.11-0.51-0.18-0.81-0.2
		C67.91,66.01,66.87,65.94,65.84,66.05z"/>
	<path class="st4" d="M64.32,25.07c-0.06-0.16-0.1-0.32-0.15-0.49c-0.71-0.83-1.44-1.63-2.43-2.03c-0.33-0.13-0.69-0.22-1.08-0.26
		c-1.15-0.44-2.34-0.09-3.51-0.2c-2.18,0-4.37,0-6.55,0c-2.18,0-4.37,0-6.55,0c-1.17,0.11-2.36-0.24-3.51,0.2
		c-0.4,0.03-0.75,0.12-1.08,0.26c-0.99,0.4-1.72,1.2-2.43,2.03c-0.05,0.16-0.09,0.33-0.15,0.49c-1.66,4.3-2.56,8.64-0.66,13.12
		c0.94,1.21,2.14,2.06,3.46,2.83c2.46,1.44,4.05,3.72,5.63,6.03c1.05,1.53,2.54,2.63,4.39,3.03c0.31,0.07,0.62,0.1,0.91,0.11
		c0.29-0.01,0.6-0.04,0.91-0.11c1.84-0.39,3.34-1.49,4.39-3.03c1.58-2.31,3.17-4.59,5.63-6.03c1.32-0.77,2.53-1.62,3.46-2.83
		C66.89,33.71,65.99,29.37,64.32,25.07z M55.13,40.02c-0.75,0.28-1.54,0.45-2.31,0.67c-0.74,0-1.48,0.02-2.22,0.01
		c-0.74,0.01-1.48-0.01-2.22-0.01c-0.77-0.22-1.56-0.39-2.31-0.67c-1.58-0.58-2.31-2.01-1.82-3.46c0.54-0.69,0.98-1.09,1.49-1.22
		c0.5-0.13,1.07-0.01,1.88,0.34c1,0.43,1.99,0.65,2.98,0.66c0.99-0.01,1.98-0.23,2.98-0.66c0.8-0.35,1.37-0.47,1.88-0.34
		c0.5,0.13,0.94,0.53,1.49,1.22C57.43,38.01,56.71,39.43,55.13,40.02z M55.99,30.72c-1.6,1.1-3.46,1.19-5.12,1.3
		c-0.09,0-0.18-0.01-0.27-0.01c-0.09,0-0.18,0.01-0.27,0.01c-1.67-0.11-3.52-0.2-5.12-1.3c-0.78-0.54-1.27-1.3-1.13-2.28
		c0.13-0.9,0.68-1.53,1.57-1.88c0.58-0.23,1.1-0.07,1.59,0.15c1.12,0.51,2.24,0.77,3.37,0.78c1.12-0.01,2.24-0.26,3.37-0.78
		c0.49-0.22,1-0.38,1.59-0.15c0.89,0.35,1.44,0.98,1.57,1.88C57.26,29.41,56.77,30.18,55.99,30.72z"/>
	<g>
		<path class="st4" d="M41.76,6.61c0.75,0.02,1.5,0.01,2.26,0.02c0,0,0,0,0,0c0,0,0,0,0,0c1.53,0,3.06-0.01,4.58-0.01
			c0.67,0,1.33,0,2,0c0.67,0,1.33,0,2,0c1.53,0,3.06,0.01,4.58,0.01c0,0,0,0,0,0c0,0,0,0,0,0c0.75,0,1.5,0,2.26-0.02
			c1.27-0.03,2.04-0.8,2.06-2.05c0.03-1.29-0.73-2.19-1.97-2.28c-0.2-0.01-0.39-0.02-0.59-0.03c-0.59-0.01-1.18,0.01-1.77,0
			c-1.45,0-2.91,0-4.36,0c-0.74,0-1.47,0-2.21,0c-0.74,0-1.47,0-2.21,0c-1.45,0-2.91,0-4.36,0c-0.59,0-1.18-0.01-1.77,0
			c-0.2,0-0.39,0.01-0.59,0.03c-1.24,0.08-2,0.99-1.97,2.28C39.73,5.81,40.49,6.58,41.76,6.61z"/>
		<path class="st4" d="M59.33,11.14c-0.72-0.01-1.44-0.01-2.15-0.01c-1.6,0-3.19,0.01-4.79,0.01c-0.6,0-1.19,0-1.79,0
			c-0.6,0-1.19,0-1.79,0c-1.6,0-3.19-0.01-4.79-0.01c-0.72,0-1.44,0-2.15,0.01c-1.35,0.02-2.14,0.77-2.16,2.05
			c-0.03,1.37,0.8,2.24,2.18,2.29c0.72,0.02,1.44,0.01,2.15,0.01c2.19,0,4.38,0,6.57-0.01c2.19,0,4.38,0,6.57,0.01
			c0.72,0,1.44,0.01,2.15-0.01c1.38-0.04,2.21-0.92,2.18-2.29C61.47,11.91,60.69,11.16,59.33,11.14z"/>
	</g>
	<g>
		<path class="st5" d="M44.03,15.5c0,2.2,0.01,4.4,0.01,6.6c2.18,0,4.37,0,6.55,0c2.18,0,4.37,0,6.55,0c0-2.2,0.01-4.4,0.01-6.6
			c-2.19,0-4.38,0-6.57-0.01C48.41,15.49,46.22,15.49,44.03,15.5z"/>
		<path class="st5" d="M50.6,2.25c0.74,0,1.47,0,2.21,0c1.45,0,2.91,0,4.36,0c-0.03-1.41-0.04-1.94-0.59-2.14
			c-0.11-0.04-0.24-0.07-0.4-0.08C55.86,0,55.44,0,54.89,0c-0.69,0-1.37,0-2.06,0.01c-0.74,0-1.48,0-2.22,0c-0.74,0-1.48,0-2.22,0
			C47.69,0,47,0,46.31,0c-0.56,0-0.98,0-1.29,0.03c-0.16,0.02-0.29,0.04-0.4,0.08c-0.55,0.2-0.56,0.73-0.59,2.14
			c1.45,0,2.91,0,4.36,0C49.13,2.26,49.86,2.26,50.6,2.25z"/>
		<path class="st5" d="M52.6,6.62c-0.67,0-1.33,0-2,0c-0.67,0-1.33,0-2,0c-1.53,0-3.06,0.01-4.58,0.01c0,0,0,0,0,0
			c0,0.77,0,1.55,0,2.32c0,0.73,0,1.45,0,2.18c1.6,0,3.19,0.01,4.79,0.01c0.6,0,1.19,0,1.79,0c0.6,0,1.19,0,1.79,0
			c1.6,0,3.19-0.01,4.79-0.01c0-0.73,0-1.45,0-2.18c0-0.77,0-1.55,0-2.32c0,0,0,0,0,0C55.65,6.62,54.13,6.62,52.6,6.62z"/>
	</g>
	<g>
		<path class="st5" d="M45.21,30.72c1.6,1.1,3.46,1.19,5.12,1.3c0.09,0,0.18-0.01,0.27-0.01c0.09,0,0.18,0.01,0.27,0.01
			c1.67-0.11,3.52-0.2,5.12-1.3c0.78-0.54,1.27-1.3,1.13-2.28c-0.13-0.9-0.68-1.53-1.57-1.88c-0.58-0.23-1.1-0.07-1.59,0.15
			c-1.12,0.51-2.24,0.77-3.37,0.78c-1.12-0.01-2.24-0.26-3.37-0.78c-0.49-0.22-1-0.38-1.59-0.15c-0.89,0.35-1.44,0.98-1.57,1.88
			C43.94,29.41,44.43,30.18,45.21,30.72z"/>
		<path class="st5" d="M55.46,35.34c-0.5-0.13-1.07-0.01-1.88,0.34c-1,0.43-1.99,0.65-2.98,0.66c-0.99-0.01-1.98-0.23-2.98-0.66
			c-0.8-0.35-1.37-0.47-1.88-0.34c-0.5,0.13-0.94,0.53-1.49,1.22c-0.49,1.45,0.23,2.88,1.82,3.46c0.75,0.28,1.54,0.45,2.31,0.67
			c0.74,0,1.48,0.02,2.22,0.01c0.74,0.01,1.48-0.01,2.22-0.01c0.77-0.22,1.56-0.39,2.31-0.67c1.58-0.58,2.31-2.01,1.82-3.46
			C56.4,35.87,55.96,35.47,55.46,35.34z"/>
	</g>
	<path class="st5" d="M98.12,22c-0.97-1.3-2.09-2.44-3.37-3.42c-2.71-3.19-6.58-4.01-10.35-4.91c-3.58-0.85-7.2-0.71-10.72,0.48
		c-4.03,1.36-6.76,4.15-8.5,7.97c-0.09,0.2-0.18,0.41-0.27,0.61c-0.26,0.62-0.49,1.24-0.74,1.86c0.05,0.16,0.09,0.33,0.15,0.49
		c1.66,4.3,2.56,8.64,0.66,13.12c2.13,0.48,3.49,1.94,4.62,3.66c1.25,1.91,1.91,4.09,2.72,6.2c1.06,2.75,0.53,5.11-1.52,7.15
		c-1.65,1.65-3.75,2.59-5.79,3.67c-3.58,1.89-7.44,2.48-11.4,2.65c-1.01,0.04-2.01,0.05-3.02,0.05c-1.01,0.01-2.02,0-3.02-0.05
		c-3.96-0.17-7.82-0.76-11.4-2.65c-2.03-1.07-4.14-2.02-5.79-3.67c-2.05-2.04-2.58-4.4-1.52-7.15c0.81-2.11,1.47-4.29,2.72-6.2
		c1.13-1.73,2.49-3.19,4.62-3.66c-1.9-4.48-1-8.82,0.66-13.12c0.06-0.16,0.1-0.32,0.15-0.49c-0.25-0.62-0.48-1.24-0.74-1.86
		c-0.09-0.21-0.17-0.41-0.27-0.61c-1.74-3.82-4.47-6.61-8.5-7.97c-3.52-1.19-7.14-1.33-10.72-0.48c-3.77,0.9-7.64,1.72-10.35,4.91
		C5.17,19.57,4.05,20.7,3.08,22c-2.3,3.07-3.28,6.49-3.05,10.33c0.24,4,1.21,7.73,3.64,10.95c1.25,1.66,2.79,2.99,5.13,3.04
		c1.46,0.03,2.86,0.5,4.16,1.31c2.4,1.51,3.64,4.55,2.67,6.92c-0.83,2.03-1.2,4.08-0.95,6.31c0.39,3.44,1.91,6.25,4.57,8.34
		c1.79,1.4,2.51,3.11,2.47,5.24c-0.03,1.63,0.12,3.23,0.67,4.76c0.83,2.31,2.21,4.04,4.85,4.5c1.84,0.32,3.63,0.06,5.4-0.29
		c0.65-0.13,1.27-0.3,1.87-0.51c0.4-0.14,0.78-0.31,1.15-0.49c0.56-0.27,1.09-0.58,1.59-0.94c1.35-0.94,2.51-2.16,3.5-3.6
		c0,0,0,0,0,0c0,0,0,0,0,0c0.07-0.07,0.14-0.14,0.21-0.21c0.64-0.44,1.2-0.97,1.74-1.51c0,0,0.01-0.01,0.01-0.01
		c0.41-0.4,0.82-0.81,1.26-1.18c0.15-0.12,0.3-0.24,0.45-0.36c1.86-1.37,3.97-1.73,6.17-1.73c2.2,0,4.32,0.36,6.17,1.73
		c0.15,0.11,0.3,0.23,0.45,0.36c0.44,0.37,0.84,0.77,1.26,1.18c0,0,0.01,0.01,0.01,0.01c0.55,0.54,1.1,1.07,1.74,1.51
		c0.07,0.07,0.14,0.14,0.21,0.21c0,0,0,0,0,0c0,0,0,0,0,0c0.99,1.45,2.15,2.66,3.5,3.6c0.5,0.35,1.04,0.67,1.59,0.94
		c0.37,0.18,0.76,0.34,1.15,0.49c0.59,0.22,1.22,0.39,1.87,0.51c1.76,0.34,3.55,0.61,5.4,0.29c2.64-0.46,4.02-2.19,4.85-4.5
		c0.55-1.53,0.69-3.13,0.67-4.76c-0.04-2.13,0.68-3.84,2.47-5.24c2.66-2.09,4.18-4.89,4.57-8.34c0.25-2.22-0.12-4.28-0.95-6.31
		c-0.97-2.37,0.27-5.41,2.67-6.92c1.3-0.82,2.69-1.28,4.16-1.31c2.34-0.05,3.87-1.38,5.13-3.04c2.43-3.22,3.4-6.95,3.64-10.95
		C101.4,28.49,100.42,25.07,98.12,22z M38.64,70.52c-1.29,1.52-2.8,2.82-4.46,3.93c-1.47,0.97-2.71,0.6-3.39-1.03
		c-0.77-1.84-0.73-3.74-0.19-5.63c0.1-0.33,0.25-0.62,0.46-0.84c0.17-0.19,0.38-0.34,0.62-0.45c0.06-0.03,0.12-0.05,0.19-0.07
		c0.19-0.07,0.4-0.11,0.63-0.13c0.81-0.28,1.84-0.35,2.87-0.24c1.03,0.1,2.06,0.37,2.88,0.77c0.27,0.13,0.52,0.28,0.73,0.43
		c0.21,0.16,0.39,0.33,0.53,0.5C40.01,68.92,39.28,69.76,38.64,70.52z M70.41,73.41c-0.69,1.63-1.92,2-3.39,1.03
		c-1.67-1.1-3.18-2.41-4.46-3.93c-0.64-0.75-1.37-1.6-0.86-2.77c0.14-0.18,0.32-0.35,0.53-0.5c0.21-0.16,0.46-0.3,0.73-0.43
		c0.81-0.39,1.84-0.66,2.88-0.77c1.03-0.1,2.06-0.04,2.87,0.24c0.23,0.02,0.43,0.06,0.63,0.13c0.06,0.02,0.13,0.05,0.19,0.07
		c0.24,0.11,0.45,0.26,0.62,0.45c0.21,0.23,0.36,0.51,0.46,0.84C71.15,69.67,71.19,71.57,70.41,73.41z"/>
</g>
</svg>
