<?xml version="1.0" encoding="utf-8"?>
<!-- Generator: Adobe Illustrator 24.1.1, SVG Export Plug-In . SVG Version: 6.00 Build 0)  -->
<svg version="1.1" id="Capa_1" xmlns="http://www.w3.org/2000/svg" xmlns:xlink="http://www.w3.org/1999/xlink" x="0px" y="0px"
	 viewBox="0 0 101.2 83.84" style="enable-background:new 0 0 101.2 83.84;" xml:space="preserve">
<style type="text/css">
	.st0{fill:#F8C5B0;}
	.st1{fill:#D36F62;}
	.st2{opacity:0.5;fill:#D36F62;}
	.st3{fill:none;}
	.st4{fill:#BFBFBF;}
	.st5{fill:#999999;}
	.st6{fill:#F45B6A;}
	.st7{fill:#F173AC;}
	.st8{fill:#F5A4C7;}
	.st9{fill:#F4C6DE;}
	.st10{fill:#007CC3;}
	.st11{fill:#FFFFFF;}
</style>
<g>
	<path class="st0" d="M74.05,45.23c0-7.07,9.3-11.58,17.26-13.35C86.81,13.58,70.29,0,50.6,0C27.45,0,8.68,18.77,8.68,41.92
		c0,6.23,1.36,12.15,3.8,17.47c1.4-0.61,2.72-1.09,3.89-1.41c7.66-2.07,17.17-1.36,18.92,5.13c1.63,6.02-1.93,10.98-6.63,14.53
		c6.38,3.93,13.89,6.19,21.93,6.19c18.32,0,33.89-11.75,39.59-28.12C83.06,55.54,74.05,54.14,74.05,45.23z"/>
	<path class="st6" d="M91.31,31.88c-7.95,1.77-17.26,6.28-17.26,13.35c0,8.91,9.01,10.31,16.14,10.49c1.51-4.32,2.33-8.96,2.33-13.8
		C92.52,38.46,92.1,35.1,91.31,31.88z"/>
	<path class="st6" d="M35.3,63.11c-1.76-6.5-11.27-7.21-18.92-5.13c-1.17,0.32-2.49,0.79-3.89,1.41
		c3.48,7.57,9.14,13.93,16.18,18.26C33.37,74.09,36.93,69.13,35.3,63.11z"/>
	<path class="st6" d="M48.81,17.29c0,9.74,10.76,10.51,18.07,10.51S89.81,24.34,89.81,13c0-6.73-8.99-9.9-16.93-9.9
		S48.81,7.98,48.81,17.29z"/>
	<path class="st6" d="M10.78,20.07c-3.96,8.9,5.56,13.98,12.23,16.95c6.67,2.97,22.36,6.17,26.98-4.19
		c2.74-6.15-4.19-12.7-11.44-15.93S14.57,11.57,10.78,20.07z"/>
	<path class="st6" d="M39.52,45.02c-7.79,5.84-1.96,14.91,2.42,20.76s16.52,16.29,25.6,9.49c5.39-4.03,2.53-13.13-2.22-19.48
		S46.98,39.44,39.52,45.02z"/>
</g>
</svg>
