<?xml version="1.0" encoding="utf-8"?>
<!-- Generator: Adobe Illustrator 24.1.1, SVG Export Plug-In . SVG Version: 6.00 Build 0)  -->
<svg version="1.1" id="Capa_1" xmlns="http://www.w3.org/2000/svg" xmlns:xlink="http://www.w3.org/1999/xlink" x="0px" y="0px"
	 viewBox="0 0 94.74 94.74" style="enable-background:new 0 0 94.74 94.74;" xml:space="preserve">
<style type="text/css">
	.st0{fill:#F173AC;}
	.st1{fill:#FFFFFF;}
</style>
<path class="st0" d="M48.45,2.52l9.37-2.39c1.47-0.37,3.03,0.04,4.12,1.1l6.92,6.75c0.52,0.51,1.16,0.88,1.86,1.08l9.31,2.62
	c1.46,0.41,2.61,1.55,3.02,3.02l2.62,9.31c0.2,0.7,0.57,1.34,1.08,1.86l6.75,6.92c1.06,1.09,1.48,2.65,1.1,4.12l-2.39,9.37
	c-0.18,0.71-0.18,1.45,0,2.15l2.39,9.37c0.37,1.47-0.04,3.03-1.1,4.12l-6.75,6.92c-0.51,0.52-0.88,1.16-1.08,1.86l-2.62,9.31
	c-0.41,1.46-1.55,2.61-3.02,3.02l-9.31,2.62c-0.7,0.2-1.34,0.57-1.86,1.08l-6.92,6.75c-1.09,1.06-2.65,1.48-4.12,1.1l-9.37-2.39
	c-0.71-0.18-1.45-0.18-2.15,0l-9.37,2.39c-1.47,0.37-3.03-0.04-4.12-1.1l-6.92-6.75c-0.52-0.51-1.16-0.88-1.86-1.08l-9.31-2.62
	c-1.46-0.41-2.61-1.55-3.02-3.02l-2.62-9.31c-0.2-0.7-0.57-1.34-1.08-1.86l-6.75-6.92c-1.06-1.09-1.48-2.65-1.1-4.12l2.39-9.37
	c0.18-0.71,0.18-1.45,0-2.15l-2.39-9.37c-0.37-1.47,0.04-3.03,1.1-4.12l6.75-6.92c0.51-0.52,0.88-1.16,1.08-1.86l2.62-9.31
	c0.41-1.46,1.55-2.61,3.02-3.02l9.31-2.62c0.7-0.2,1.34-0.57,1.86-1.08l6.92-6.75c1.09-1.06,2.65-1.48,4.12-1.1l9.37,2.39
	C47,2.7,47.74,2.7,48.45,2.52z"/>
<g>
	<path class="st1" d="M29.95,28.54c1.61-1.59,3.67-2.38,6.18-2.38c2.51,0,4.57,0.79,6.18,2.38c1.61,1.59,2.41,3.72,2.41,6.38
		c0,2.71-0.8,4.85-2.41,6.44c-1.61,1.59-3.67,2.38-6.18,2.38c-2.51,0-4.57-0.79-6.18-2.38c-1.61-1.59-2.41-3.74-2.41-6.44
		C27.54,32.26,28.34,30.13,29.95,28.54z M32.98,30.84c-0.76,0.92-1.15,2.29-1.15,4.09c0,1.8,0.38,3.18,1.15,4.12
		c0.77,0.94,1.81,1.41,3.15,1.41c1.33,0,2.39-0.48,3.18-1.44c0.78-0.96,1.18-2.32,1.18-4.09c0-1.8-0.39-3.17-1.18-4.09
		c-0.78-0.92-1.84-1.38-3.18-1.38C34.8,29.45,33.75,29.91,32.98,30.84z M61.91,26.8L38.07,67.88h-5.3L56.61,26.8H61.91z
		 M52.49,53.31c1.61-1.59,3.67-2.38,6.18-2.38c2.51,0,4.56,0.79,6.15,2.38c1.59,1.59,2.38,3.74,2.38,6.44
		c0,2.67-0.79,4.81-2.38,6.41c-1.59,1.61-3.64,2.41-6.15,2.41c-2.51,0-4.57-0.79-6.18-2.38c-1.61-1.59-2.41-3.74-2.41-6.44
		S50.88,54.9,52.49,53.31z M55.43,55.67c-0.79,0.92-1.18,2.29-1.18,4.09c0,1.77,0.39,3.11,1.18,4.03c0.78,0.92,1.84,1.38,3.18,1.38
		c1.33,0,2.39-0.46,3.18-1.38c0.78-0.92,1.18-2.27,1.18-4.03c0-1.8-0.39-3.17-1.18-4.09c-0.79-0.92-1.84-1.38-3.18-1.38
		C57.28,54.28,56.22,54.75,55.43,55.67z"/>
</g>
</svg>
