<?xml version="1.0" encoding="utf-8"?>
<!-- Generator: Adobe Illustrator 24.1.1, SVG Export Plug-In . SVG Version: 6.00 Build 0)  -->
<svg version="1.1" id="Capa_1" xmlns="http://www.w3.org/2000/svg" xmlns:xlink="http://www.w3.org/1999/xlink" x="0px" y="0px"
	 viewBox="0 0 109.41 109.41" style="enable-background:new 0 0 109.41 109.41;" xml:space="preserve">
<style type="text/css">
	.st0{fill:#FFFFFF;}
	.st1{fill:#007CC3;}
	.st2{fill:#F4C6DE;}
	.st3{fill:#D9D9D9;}
	.st4{fill:#F173AC;}
</style>
<circle class="st0" cx="54.7" cy="54.7" r="54.7"/>
<g>
	<g>
		<g>
			<path class="st1" d="M36.23,48.23L36,50.96H25.7V48.3c0.34-0.26,0.89-0.65,1.66-1.2c1.88-1.34,3.25-2.44,4.11-3.31
				c0.86-0.87,1.29-1.66,1.29-2.39c0-0.53-0.17-0.97-0.51-1.31c-0.34-0.35-0.8-0.52-1.38-0.52c-1.34,0-2.12,0.87-2.33,2.62
				l-2.84-0.63c0.64-3.02,2.4-4.53,5.3-4.53c1.62,0,2.87,0.43,3.74,1.28c0.87,0.85,1.3,1.87,1.3,3.05c0,1.22-0.45,2.31-1.36,3.27
				c-0.91,0.96-2.58,2.16-5.01,3.61H36.23z"/>
			<path class="st1" d="M43.14,51.17c-1.68,0-2.99-0.67-3.93-2c-0.94-1.33-1.4-3.02-1.4-5.06c0-2,0.46-3.68,1.37-5.04
				s2.24-2.05,3.98-2.05c1.73,0,3.06,0.68,3.98,2.05c0.93,1.36,1.39,3.03,1.39,5c0,2.02-0.46,3.71-1.39,5.06
				C46.21,50.49,44.87,51.17,43.14,51.17z M43.18,39.33c-0.76,0-1.29,0.35-1.58,1.05c-0.3,0.7-0.45,1.93-0.45,3.69
				c0,1.77,0.16,3,0.47,3.69c0.31,0.69,0.83,1.04,1.55,1.04c0.72,0,1.24-0.34,1.56-1.02c0.32-0.68,0.48-1.87,0.48-3.58
				c0-1.88-0.16-3.16-0.47-3.84C44.42,39.67,43.9,39.33,43.18,39.33z"/>
			<path class="st1" d="M51.61,50.96h-1.66l7.97-13.94h1.64L51.61,50.96z"/>
			<path class="st1" d="M64.23,42.67h1.45c0.82,0,1.38-0.17,1.68-0.51c0.3-0.34,0.44-0.71,0.44-1.1c0-0.44-0.16-0.82-0.49-1.16
				c-0.33-0.34-0.78-0.51-1.36-0.51c-1.11,0-1.81,0.59-2.1,1.76L61,40.7c0.23-1.06,0.8-1.94,1.7-2.63c0.9-0.69,2.01-1.04,3.33-1.04
				c1.38,0,2.54,0.33,3.48,0.99c0.94,0.66,1.41,1.56,1.41,2.7c0,1.5-0.78,2.52-2.35,3.07c1.84,0.49,2.76,1.57,2.76,3.26
				c0,1.21-0.47,2.2-1.41,2.97c-0.94,0.78-2.24,1.17-3.9,1.17c-1.59,0-2.85-0.4-3.78-1.2c-0.93-0.8-1.49-1.79-1.67-2.97l2.92-0.42
				c0.28,1.41,1.1,2.12,2.45,2.12c0.63,0,1.14-0.17,1.53-0.5c0.39-0.33,0.59-0.78,0.59-1.34c0-0.6-0.18-1.04-0.54-1.33
				c-0.36-0.29-1.04-0.44-2.06-0.44h-1.26V42.67z"/>
			<path class="st1" d="M78.31,51.17c-1.68,0-2.99-0.67-3.93-2c-0.94-1.33-1.4-3.02-1.4-5.06c0-2,0.46-3.68,1.37-5.04
				c0.91-1.36,2.24-2.05,3.98-2.05c1.73,0,3.06,0.68,3.98,2.05s1.39,3.03,1.39,5c0,2.02-0.46,3.71-1.39,5.06
				C81.38,50.49,80.05,51.17,78.31,51.17z M78.35,39.33c-0.76,0-1.29,0.35-1.58,1.05c-0.3,0.7-0.45,1.93-0.45,3.69
				c0,1.77,0.16,3,0.47,3.69c0.31,0.69,0.83,1.04,1.55,1.04c0.72,0,1.24-0.34,1.56-1.02c0.32-0.68,0.48-1.87,0.48-3.58
				c0-1.88-0.16-3.16-0.47-3.84C79.6,39.67,79.08,39.33,78.35,39.33z"/>
			<path class="st1" d="M53.59,72.38h-3v-5.62c0-0.79-0.02-1.3-0.07-1.54c-0.05-0.24-0.17-0.44-0.37-0.59
				c-0.2-0.16-0.47-0.24-0.82-0.24c-0.33,0-0.66,0.12-1.01,0.35c-0.34,0.23-0.51,0.91-0.51,2.02v5.62h-3v-5.62
				c0-0.81-0.04-1.34-0.11-1.57c-0.07-0.24-0.21-0.43-0.42-0.58c-0.21-0.15-0.46-0.22-0.78-0.22c-0.52,0-0.9,0.16-1.15,0.49
				c-0.25,0.33-0.38,0.95-0.38,1.88v5.62h-2.91V62.22h2.82v1.55c0.48-1.17,1.43-1.76,2.86-1.76c1.3,0,2.23,0.59,2.81,1.76
				c0.56-1.17,1.55-1.76,2.95-1.76c0.67,0,1.25,0.14,1.73,0.41c0.48,0.28,0.83,0.63,1.04,1.08c0.21,0.44,0.31,1.2,0.31,2.28V72.38z"
				/>
			<path class="st1" d="M59.05,58.37v3h-3v-3H59.05z M59.05,62.22v10.16h-3V62.22H59.05z"/>
			<path class="st1" d="M70.34,72.38h-3v-5.7c0-0.69-0.03-1.16-0.08-1.42c-0.05-0.26-0.19-0.47-0.39-0.65
				c-0.21-0.18-0.47-0.27-0.78-0.27c-1.05,0-1.58,0.78-1.58,2.33v5.7h-3V62.22h2.79v1.72c0.46-0.82,0.92-1.34,1.37-1.58
				c0.45-0.23,0.93-0.35,1.46-0.35c0.97,0,1.74,0.26,2.33,0.78c0.59,0.52,0.88,1.54,0.88,3.06V72.38z"/>
		</g>
	</g>
	<g>
		<path class="st2" d="M100.11,53.04c2.01-0.03,2.01-0.03,2.01,1.97c0,0.21-0.01,0.43,0,0.64c0.04,0.44-0.12,0.62-0.59,0.61
			c-2.06-0.06-4.12-0.13-6.18-0.33c-0.11-0.01-0.25,0.03-0.32-0.03c-0.63-0.53-0.17-1.24-0.28-1.86c-0.05-0.28-0.13-0.68,0.38-0.72
			c0.37-0.03,0.74-0.1,1.12-0.12C97.54,53.15,98.83,53.1,100.11,53.04z"/>
		<path class="st2" d="M95.58,51.72c-0.93,0.02-0.93,0.02-1-1.21c-0.08-1.32-0.08-1.34,1.24-1.57c1.79-0.31,3.59-0.58,5.38-0.87
			c0.29-0.05,0.45,0,0.48,0.34c0.08,0.82,0.2,1.64,0.3,2.46c0.05,0.39-0.13,0.51-0.5,0.52C99.6,51.49,97.73,51.6,95.58,51.72z"/>
		<path class="st2" d="M63.32,8.03c0.79,0.18,1.68,0.37,2.56,0.58c0.27,0.06,0.28,0.26,0.21,0.5c-0.56,2.07-1.11,4.13-1.65,6.2
			c-0.08,0.32-0.21,0.48-0.56,0.33c-0.12-0.05-0.26-0.05-0.39-0.08c-1.8-0.42-1.78-0.41-1.45-2.25c0.28-1.58,0.52-3.16,0.77-4.75
			C62.84,8.29,62.8,7.99,63.32,8.03z"/>
		<path class="st2" d="M88.87,21.86c0.11,0.09,0.25,0.17,0.35,0.29c0.51,0.55,1,1.12,1.52,1.66c0.28,0.29,0.23,0.44-0.08,0.69
			c-1.65,1.32-3.29,2.66-4.91,4.02c-0.31,0.26-0.43,0.21-0.69-0.06c-1.49-1.56-1.5-1.55,0.04-3.09c1-1.01,2.01-2.01,3.02-3.01
			C88.32,22.14,88.53,21.93,88.87,21.86z"/>
		<path class="st2" d="M75.78,20.52c-0.16,0.01-1.96-1.09-2.01-1.26c-0.07-0.23,0.07-0.42,0.16-0.6c0.92-1.79,1.84-3.59,2.76-5.38
			c0.14-0.26,0.24-0.55,0.65-0.29c0.68,0.43,1.38,0.83,2.08,1.23c0.31,0.17,0.35,0.35,0.16,0.64c-1.17,1.8-2.33,3.61-3.49,5.41
			C76.02,20.38,75.97,20.52,75.78,20.52z"/>
		<path class="st2" d="M67.97,16.84c-0.58-0.19-1.24-0.41-1.9-0.64c-0.25-0.09-0.17-0.28-0.12-0.47c0.56-2.07,1.12-4.13,1.67-6.2
			c0.09-0.35,0.24-0.44,0.57-0.33c0.76,0.26,1.52,0.51,2.29,0.75c0.32,0.1,0.41,0.29,0.29,0.61c-0.77,2-1.53,4-2.29,6
			C68.4,16.76,68.29,16.9,67.97,16.84z"/>
		<path class="st2" d="M85.14,18.39c0.09,0.02,0.15,0.02,0.19,0.05c0.71,0.65,1.43,1.29,2.11,1.97c0.18,0.18-0.05,0.42-0.19,0.56
			c-1.46,1.49-2.85,3.08-4.45,4.4c-0.78,0.64-1.17-0.65-1.78-1.01c-0.37-0.22-0.38-0.49-0.08-0.85c1.34-1.6,2.64-3.23,3.96-4.85
			C84.97,18.57,85.06,18.48,85.14,18.39z"/>
		<path class="st2" d="M57.66,13.56c0.1-1.9,0.21-3.79,0.29-5.69c0.02-0.39,0.16-0.54,0.54-0.49c0.82,0.1,1.64,0.22,2.47,0.3
			c0.35,0.04,0.37,0.22,0.33,0.5c-0.32,2.03-0.64,4.06-0.96,6.1c-0.08,0.52-0.31,0.77-0.87,0.59c-0.23-0.07-0.47-0.08-0.71-0.09
			C57.61,14.72,57.61,14.72,57.66,13.56z"/>
		<path class="st2" d="M96.48,32.26c-0.04,0.27-0.25,0.31-0.41,0.4c-1.81,0.94-3.63,1.85-5.43,2.8c-0.42,0.22-0.65,0.15-0.91-0.25
			c-1.08-1.66-1.09-1.64,0.53-2.69c1.33-0.86,2.66-1.71,3.96-2.6c0.52-0.36,0.82-0.32,1.1,0.28c0.28,0.61,0.65,1.17,0.98,1.75
			C96.37,32.06,96.44,32.17,96.48,32.26z"/>
		<path class="st2" d="M72,18.48c-0.66-0.3-1.32-0.59-1.97-0.92c-0.26-0.13-0.1-0.38-0.02-0.57c0.74-1.93,1.5-3.85,2.23-5.78
			c0.14-0.38,0.28-0.52,0.69-0.31c0.67,0.33,1.37,0.62,2.06,0.9c0.39,0.16,0.46,0.38,0.27,0.75c-0.93,1.82-1.84,3.64-2.77,5.46
			C72.39,18.2,72.32,18.47,72,18.48z"/>
		<path class="st2" d="M94.4,47.55c-0.61-0.5-0.39-1.41-0.68-2.1c-0.19-0.45,0.15-0.49,0.43-0.57c2.02-0.54,4.04-1.05,6.05-1.61
			c0.41-0.11,0.55,0.05,0.62,0.37c0.17,0.76,0.32,1.52,0.49,2.27c0.08,0.34-0.05,0.53-0.37,0.58C98.83,46.84,96.72,47.18,94.4,47.55
			z"/>
		<path class="st2" d="M92.08,39.44c-0.18,0.02-0.29-0.07-0.35-0.19c-0.28-0.61-0.56-1.22-0.83-1.83c-0.12-0.29,0.13-0.37,0.32-0.46
			c1.86-0.95,3.73-1.9,5.59-2.86c0.38-0.2,0.59-0.1,0.75,0.28c0.29,0.69,0.59,1.38,0.9,2.07c0.12,0.27,0.22,0.47-0.17,0.62
			c-2.01,0.76-4,1.54-6,2.31C92.2,39.4,92.13,39.42,92.08,39.44z"/>
		<path class="st2" d="M100.19,41.3c0.03,0.34-0.23,0.38-0.46,0.44c-2.04,0.55-4.09,1.1-6.13,1.67c-0.26,0.07-0.41,0.04-0.48-0.23
			c-0.01-0.05-0.03-0.1-0.05-0.15c-0.77-1.96-0.77-1.96,1.18-2.71c1.38-0.53,2.77-1.02,4.13-1.6c0.72-0.31,1.01-0.13,1.18,0.59
			C99.71,39.98,99.97,40.63,100.19,41.3z"/>
		<path class="st2" d="M83.76,17.44c-0.07,0.11-0.16,0.27-0.28,0.41c-1.25,1.54-2.51,3.07-3.73,4.63c-0.31,0.39-0.53,0.41-0.92,0.16
			c-1.7-1.08-1.7-1.07-0.58-2.78c0.88-1.34,1.77-2.68,2.63-4.04c0.25-0.4,0.45-0.44,0.81-0.15c0.59,0.47,1.21,0.89,1.81,1.34
			C83.63,17.1,83.77,17.18,83.76,17.44z"/>
		<path class="st2" d="M93.9,28c0.02,0.3-0.19,0.35-0.34,0.45c-1.7,1.12-3.42,2.22-5.11,3.35c-0.44,0.29-0.67,0.2-0.97-0.2
			c-1.12-1.55-1.13-1.54,0.37-2.75c1.19-0.96,2.38-1.91,3.55-2.89c0.45-0.37,0.77-0.49,1.13,0.13c0.32,0.55,0.75,1.05,1.12,1.57
			C93.75,27.77,93.84,27.91,93.9,28z"/>
		<path class="st2" d="M101.12,61.18c-2.23-0.36-4.18-0.68-6.13-0.99c-0.45-0.07-0.7-0.22-0.5-0.74c0.08-0.22,0.07-0.47,0.08-0.71
			c0.02-1.17,0.09-1.28,1.25-1.18c1.87,0.16,3.73,0.32,5.61,0.31c0.46,0,0.66,0.15,0.5,0.63c-0.2,0.62-0.11,1.27-0.2,1.91
			C101.63,61.05,101.51,61.34,101.12,61.18z"/>
		<path class="st2" d="M93.66,65.89c0.98,0.28,1.95,0.57,2.93,0.83c1.03,0.28,2.07,0.55,3.1,0.81c0.33,0.08,0.59,0.18,0.46,0.58
			c-0.23,0.71-0.48,1.42-0.72,2.12c-0.13,0.38-0.31,0.57-0.77,0.38c-1.92-0.75-3.84-1.48-5.77-2.2c-0.35-0.13-0.47-0.27-0.31-0.64
			c0.2-0.47,0.34-0.96,0.49-1.45C93.16,66.02,93.33,65.87,93.66,65.89z"/>
		<path class="st2" d="M94.5,61.75c1.52,0.24,2.94,0.46,4.36,0.7c0.45,0.07,0.89,0.18,1.34,0.25c1.21,0.18,1.21,0.18,0.94,1.37
			c-0.14,0.62-0.12,1.44-0.52,1.81c-0.46,0.44-1.18-0.15-1.78-0.29c-1.59-0.37-3.15-0.85-4.72-1.26c-0.26-0.07-0.39-0.19-0.35-0.44
			c0.11-0.63,0.23-1.26,0.37-1.88C94.19,61.8,94.39,61.75,94.5,61.75z"/>
		<path class="st2" d="M90.26,73.71c0.1,0.05,0.27,0.12,0.43,0.21c1.68,0.84,3.34,1.7,5.03,2.51c0.65,0.31,0.75,0.67,0.38,1.26
			c-0.33,0.52-0.66,1.04-0.93,1.59c-0.23,0.46-0.51,0.39-0.84,0.18c-1.67-1.1-3.34-2.21-5.02-3.3c-0.38-0.24-0.47-0.47-0.24-0.85
			c0.26-0.44,0.5-0.88,0.75-1.33C89.91,73.83,89.98,73.68,90.26,73.71z"/>
		<path class="st3" d="M54.68,7.36c1.65,0,1.69,0,1.63,1.65c-0.06,1.73-0.09,3.48-0.36,5.18c-0.14,0.92-1.12,0.28-1.7,0.41
			c-0.3,0.07-0.8,0.21-0.83-0.42c-0.05-0.8-0.17-1.6-0.14-2.39c0.04-1.18-0.14-2.35-0.2-3.52c-0.04-0.78,0.25-1.01,0.96-0.91
			C54.25,7.38,54.47,7.36,54.68,7.36z"/>
		<path class="st2" d="M92.11,69.88c0.78,0.29,1.59,0.59,2.38,0.9c1.2,0.47,2.38,0.97,3.59,1.4c0.44,0.16,0.55,0.32,0.34,0.75
			c-0.33,0.65-0.63,1.3-0.9,1.98c-0.17,0.43-0.38,0.44-0.73,0.26c-1.79-0.92-3.58-1.85-5.39-2.73c-0.49-0.24-0.55-0.5-0.34-0.92
			c0.22-0.46,0.45-0.92,0.68-1.37C91.81,70,91.87,69.83,92.11,69.88z"/>
		<g>
			<path class="st4" d="M53.1,100.17c0.33-1.42,0-3.23,0.32-5c0.01-0.08-0.02-0.19,0.02-0.24c0.61-0.59,1.35-0.16,2.03-0.27
				c0.36-0.06,0.49,0.12,0.55,0.49c0.12,0.66,0.18,1.33,0.14,1.99c-0.09,1.37,0.2,2.72,0.18,4.08c-0.01,0.45-0.11,0.67-0.59,0.76
				c-0.35,0.06-0.69,0.08-1.03,0.08C53.1,102.08,53.1,102.07,53.1,100.17z"/>
			<path class="st4" d="M57.63,95.37c-0.15-0.54,0.18-0.71,0.66-0.82c0.53-0.12,1.06-0.01,1.59-0.17c0.36-0.11,0.32,0.29,0.35,0.49
				c0.26,1.49,0.53,2.99,0.76,4.49c0.11,0.7,0.46,1.65,0.14,2.06c-0.32,0.43-1.32,0.34-2.04,0.33c-0.18,0-0.36,0.09-0.55,0.12
				c-0.39,0.07-0.61-0.03-0.61-0.49C57.94,99.4,57.77,97.4,57.63,95.37z"/>
			<path class="st4" d="M93.9,81.3c-0.24,0.32-0.49,0.66-0.75,0.99c-1.11,1.43-1.13,1.45-2.53,0.37c-1.22-0.94-2.4-1.95-3.61-2.91
				c-0.51-0.4-0.51-0.75-0.1-1.25c1.13-1.39,1.09-1.38,2.59-0.32c1.31,0.92,2.68,1.76,4.02,2.63C93.68,80.92,93.93,80.97,93.9,81.3z
				"/>
			<path class="st4" d="M63.84,93.68c0.37-0.06,0.54,0.13,0.63,0.47c0.54,2.01,1.08,4.03,1.64,6.03c0.12,0.42-0.17,0.46-0.42,0.52
				c-0.78,0.19-1.56,0.35-2.34,0.52c-0.48,0.1-0.47-0.32-0.51-0.55c-0.26-1.39-0.47-2.79-0.7-4.18c-0.09-0.58-0.16-1.16-0.28-1.74
				c-0.08-0.43-0.08-0.72,0.49-0.76C62.85,93.95,63.34,93.78,63.84,93.68z"/>
			<path class="st4" d="M75.62,88.86c0.34,0,0.45,0.15,0.55,0.31c1.11,1.7,2.23,3.39,3.35,5.09c0.22,0.33,0.27,0.6-0.18,0.84
				c-0.66,0.34-1.3,0.74-1.93,1.15c-0.34,0.22-0.52,0.16-0.69-0.18c-0.94-1.89-1.88-3.78-2.84-5.67c-0.17-0.34-0.11-0.53,0.23-0.7
				C74.66,89.43,75.19,89.11,75.62,88.86z"/>
			<path class="st4" d="M66,93.55c-0.02-0.27,0.08-0.42,0.36-0.54c1.81-0.84,1.88-0.82,2.59,1.05c0.56,1.48,1.12,2.95,1.71,4.42
				c0.21,0.52,0.08,0.76-0.47,0.9c-0.64,0.17-1.26,0.43-1.89,0.67c-0.34,0.13-0.57,0.08-0.67-0.3c-0.53-1.96-1.07-3.92-1.6-5.88
				C66.01,93.76,66.02,93.65,66,93.55z"/>
			<path class="st4" d="M79.18,86.46c0.3,0.03,0.45,0.25,0.59,0.42c1.24,1.5,2.48,3.02,3.71,4.53c0.24,0.3,0.36,0.6-0.04,0.88
				c-0.57,0.4-1.14,0.8-1.69,1.23c-0.38,0.29-0.62,0.29-0.9-0.14c-1.08-1.69-2.19-3.36-3.3-5.03c-0.26-0.4-0.22-0.63,0.21-0.89
				C78.26,87.16,78.66,86.71,79.18,86.46z"/>
			<path class="st4" d="M72.05,90.84c0.22-0.03,0.27,0.14,0.34,0.28c0.96,1.92,1.92,3.84,2.88,5.76c0.14,0.27,0.08,0.42-0.23,0.54
				c-0.72,0.29-1.43,0.62-2.12,0.96c-0.38,0.18-0.51,0.04-0.64-0.31c-0.73-1.95-1.49-3.9-2.24-5.85c-0.06-0.14-0.21-0.33-0.03-0.43
				C70.66,91.42,71.32,91.06,72.05,90.84z"/>
			<path class="st4" d="M85.22,90.76c-0.35-0.13-0.6-0.47-0.85-0.77c-1.12-1.36-2.21-2.74-3.32-4.1c-0.32-0.39-0.39-0.67,0.03-1.08
				c1.32-1.3,1.3-1.31,2.57-0.04c1.14,1.14,2.26,2.29,3.42,3.4c0.45,0.43,0.51,0.76,0,1.17c-0.48,0.39-0.92,0.81-1.38,1.21
				C85.56,90.66,85.44,90.78,85.22,90.76z"/>
			<path class="st4" d="M90.86,85.3c-0.1,0.12-0.2,0.28-0.33,0.41c-0.35,0.37-0.78,0.69-1.04,1.11c-0.42,0.67-0.75,0.68-1.28,0.12
				c-1.3-1.35-2.63-2.67-3.98-3.98c-0.39-0.38-0.5-0.61-0.06-1.09c1.15-1.26,1.14-1.31,2.51-0.27c1.27,0.97,2.5,2,3.74,3.01
				C90.61,84.77,90.83,84.95,90.86,85.3z"/>
		</g>
		<g>
			<path class="st3" d="M11.43,56.09c-1-0.15-2.18,0.23-3.39,0.18c-0.54-0.03-0.79-0.18-0.77-0.75c0.03-0.64,0.02-1.29,0-1.93
				C7.26,53.16,7.43,53,7.84,53.02c2.11,0.13,4.22,0.09,6.32,0.31c0.43,0.04,0.56,0.22,0.53,0.6c-0.01,0.19,0,0.38,0,0.56
				c0,1.55,0,1.56-1.6,1.59C12.61,56.1,12.13,56.09,11.43,56.09z"/>
			<path class="st3" d="M11.17,57.7c0.97,0.15,1.92-0.17,2.88-0.17c0.56,0,0.78,0.24,0.8,0.76c0.02,0.48-0.06,0.96,0.11,1.44
				c0.12,0.35-0.17,0.38-0.42,0.42c-1.18,0.2-2.36,0.48-3.55,0.6c-0.91,0.09-1.77,0.39-2.7,0.4c-0.46,0-0.46-0.11-0.58-0.46
				c-0.25-0.79,0.02-1.61-0.25-2.39c-0.11-0.3,0.13-0.44,0.42-0.42C8.99,57.95,10.07,57.56,11.17,57.7z"/>
			<path class="st3" d="M51.81,95.46c-0.16,2.04-0.32,3.99-0.33,5.95c0,0.25-0.03,0.58-0.36,0.48c-0.86-0.25-1.77-0.01-2.63-0.27
				c-0.36-0.11-0.4-0.26-0.35-0.57c0.32-2,0.62-4.01,0.95-6.01c0.07-0.45,0.21-0.83,0.84-0.58c0.28,0.11,0.64,0.01,0.96,0.05
				C51.49,94.58,52.02,94.75,51.81,95.46z"/>
			<path class="st3" d="M14.74,79.62c-0.32,0.03-0.37-0.17-0.47-0.33c-0.4-0.66-0.79-1.33-1.2-1.99c-0.2-0.31-0.13-0.48,0.17-0.63
				c1.92-0.96,3.83-1.91,5.75-2.88c0.32-0.16,0.5-0.07,0.64,0.23c0.12,0.24,0.24,0.48,0.39,0.7c0.68,1.07,0.72,1.13-0.34,1.76
				c-1.49,0.9-2.93,1.85-4.35,2.85C15.13,79.46,14.9,79.54,14.74,79.62z"/>
			<path class="st3" d="M32.32,96.41c-0.64-0.38-1.26-0.74-1.88-1.1c-0.89-0.53-0.91-0.4-0.24-1.41c1-1.51,1.96-3.04,2.91-4.58
				c0.26-0.42,0.51-0.53,0.98-0.31c1.74,0.81,1.79,0.91,0.93,2.58c-0.74,1.45-1.5,2.89-2.25,4.34
				C32.67,96.13,32.62,96.41,32.32,96.41z"/>
			<path class="st3" d="M8.36,48.11c2.19,0.35,4.11,0.66,6.03,0.97c0.47,0.07,0.77,0.22,0.53,0.79c-0.08,0.19-0.06,0.42-0.07,0.63
				c-0.03,1.24-0.13,1.35-1.36,1.23c-1.81-0.18-3.62-0.32-5.45-0.31c-0.49,0-0.72-0.13-0.54-0.66c0.2-0.59,0.09-1.22,0.19-1.83
				C7.81,48.29,7.82,47.83,8.36,48.11z"/>
			<path class="st3" d="M22.89,79.14c-0.04,0.27-0.25,0.42-0.43,0.56c-1.5,1.24-3.01,2.47-4.52,3.7c-0.35,0.28-0.66,0.31-0.95-0.09
				c-0.44-0.61-0.88-1.21-1.33-1.81c-0.21-0.28-0.18-0.44,0.12-0.64c1.65-1.08,3.3-2.16,4.94-3.27c0.62-0.42,1.05-0.37,1.38,0.34
				C22.31,78.37,22.76,78.66,22.89,79.14z"/>
			<path class="st3" d="M50.06,14.79c-0.53,0.2-0.9,0.05-0.97-0.67c-0.19-1.99-0.69-3.93-0.87-5.92c-0.04-0.42,0.03-0.49,0.41-0.52
				c0.74-0.06,1.48-0.17,2.21-0.29c0.43-0.07,0.64,0.04,0.65,0.53c0.03,1.52,0.1,3.04,0.16,4.57c0.01,0.19-0.01,0.38,0.01,0.56
				C51.88,14.73,51.88,14.73,50.06,14.79z"/>
			<path class="st3" d="M22.88,30.04c0.01,0.26-1.19,1.95-1.34,1.95c-0.53-0.03-0.91-0.42-1.33-0.69c-1.44-0.91-2.84-1.9-4.28-2.81
				c-0.45-0.28-0.47-0.48-0.16-0.86c0.42-0.52,0.79-1.07,1.18-1.61c0.29-0.4,0.6-0.47,1-0.14c1.5,1.24,3.01,2.46,4.51,3.7
				C22.64,29.72,22.77,29.92,22.88,30.04z"/>
			<path class="st3" d="M15.56,43.31c-1.03-0.28-2.24-0.61-3.45-0.94c-0.8-0.22-1.6-0.44-2.4-0.64c-0.34-0.08-0.57-0.2-0.44-0.59
				c0.25-0.73,0.5-1.47,0.76-2.2c0.12-0.33,0.3-0.45,0.67-0.3c1.94,0.76,3.9,1.49,5.85,2.23c0.1,0.04,0.27,0.07,0.28,0.12
				c0.11,0.72-0.33,1.31-0.48,1.97C16.27,43.31,16.05,43.38,15.56,43.31z"/>
			<path class="st3" d="M16.92,68.03c0.03,0.29-0.19,0.31-0.36,0.37c-1.95,0.74-3.9,1.47-5.85,2.23c-0.36,0.14-0.55,0.06-0.68-0.28
				c-0.26-0.76-0.54-1.51-0.79-2.27c-0.09-0.29,0.09-0.44,0.37-0.51c1.99-0.53,3.97-1.08,5.96-1.6c0.42-0.11,0.71,0.03,0.83,0.49
				C16.56,66.99,16.76,67.52,16.92,68.03z"/>
			<path class="st3" d="M33.66,20.42c-0.22-0.01-0.31-0.17-0.42-0.33c-1.1-1.68-2.2-3.35-3.31-5.02c-0.23-0.35-0.34-0.64,0.17-0.9
				c0.67-0.34,1.3-0.74,1.93-1.15c0.36-0.24,0.52-0.12,0.68,0.21c0.94,1.89,1.89,3.78,2.83,5.67c0.07,0.14,0.16,0.29,0.07,0.45
				C35.53,19.51,33.86,20.43,33.66,20.42z"/>
			<path class="st3" d="M32.07,21.31c0.04,0.21-0.1,0.29-0.22,0.4c-1.51,1.32-1.53,1.35-2.84-0.13c-1.06-1.2-2.04-2.47-3.06-3.7
				c-0.33-0.4-0.25-0.72,0.15-1c0.59-0.42,1.17-0.84,1.75-1.27c0.23-0.17,0.41-0.23,0.6,0.06c1.16,1.79,2.33,3.58,3.49,5.37
				C31.99,21.11,32.03,21.22,32.07,21.31z"/>
			<path class="st3" d="M15.68,45.52c-0.12,0.55-0.23,1.1-0.35,1.64c-0.08,0.34-0.32,0.4-0.62,0.35c-1.97-0.32-3.95-0.63-5.92-0.96
				c-0.45-0.07-0.82-0.19-0.58-0.83c0.2-0.52,0.29-1.09,0.34-1.64c0.07-0.77,0.4-0.89,1.09-0.68c1.84,0.54,3.7,1.05,5.56,1.53
				C15.55,45.02,15.73,45.14,15.68,45.52z"/>
			<path class="st3" d="M15.66,63.67c0.02,0.39-0.02,0.57-0.34,0.66c-2.04,0.53-4.08,1.07-6.12,1.64c-0.39,0.11-0.48-0.05-0.54-0.34
				c-0.18-0.78-0.35-1.56-0.52-2.34c-0.12-0.53,0.36-0.49,0.61-0.54c1.39-0.25,2.79-0.46,4.19-0.68c0.55-0.09,1.11-0.16,1.66-0.27
				c0.41-0.08,0.68-0.04,0.76,0.44C15.44,62.76,15.57,63.28,15.66,63.67z"/>
			<path class="st3" d="M45.55,15.61c-0.33,0.03-0.49-0.12-0.57-0.43c-0.52-2.02-1.04-4.03-1.59-6.04c-0.1-0.38,0.02-0.48,0.33-0.55
				c0.78-0.17,1.56-0.34,2.34-0.52c0.54-0.13,0.5,0.34,0.55,0.59c0.21,1.02,0.35,2.05,0.52,3.07c0.15,0.95,0.3,1.89,0.45,2.84
				c0.06,0.39,0.07,0.67-0.46,0.72C46.59,15.33,46.07,15.5,45.55,15.61z"/>
			<path class="st3" d="M45.52,93.68c0.6,0.12,1.21,0.23,1.81,0.35c0.34,0.07,0.3,0.34,0.26,0.58c-0.32,2-0.64,4-0.97,6
				c-0.08,0.48-0.24,0.76-0.86,0.55c-0.6-0.21-1.25-0.26-1.88-0.38c-0.41-0.08-0.63-0.22-0.49-0.75c0.54-1.93,1.03-3.87,1.54-5.8
				C45.02,93.92,45.11,93.61,45.52,93.68z"/>
			<path class="st3" d="M20.49,33.58c0.01,0.16-0.93,1.89-1.07,1.96c-0.2,0.1-0.36-0.02-0.53-0.1c-1.79-0.9-3.58-1.8-5.38-2.69
				c-0.48-0.24-0.52-0.57-0.28-0.98c0.33-0.58,0.71-1.14,1.01-1.74c0.22-0.44,0.48-0.44,0.83-0.21c1.67,1.1,3.35,2.21,5.02,3.31
				C20.27,33.24,20.48,33.32,20.49,33.58z"/>
			<path class="st3" d="M43.39,93.79c-0.05,0.18-0.18,0.59-0.29,1c-0.44,1.65-0.88,3.3-1.31,4.96c-0.09,0.33-0.27,0.44-0.6,0.33
				c-0.73-0.26-1.46-0.52-2.19-0.77c-0.37-0.12-0.41-0.33-0.28-0.67c0.75-1.95,1.49-3.9,2.23-5.85c0.04-0.1,0.08-0.27,0.13-0.28
				c0.72-0.07,1.31,0.35,1.97,0.51C43.37,93.08,43.45,93.27,43.39,93.79z"/>
			<path class="st3" d="M43.43,15.78c0.02,0.19-0.04,0.4-0.38,0.5c-0.52,0.14-1.02,0.32-1.52,0.51c-0.27,0.1-0.43,0.09-0.55-0.23
				c-0.74-2.01-1.5-4.01-2.27-6.01c-0.12-0.31-0.02-0.45,0.25-0.55c0.75-0.27,1.51-0.54,2.26-0.8c0.28-0.1,0.48,0,0.56,0.28
				c0.55,2.01,1.09,4.02,1.63,6.03C43.42,15.56,43.41,15.62,43.43,15.78z"/>
			<path class="st3" d="M32.08,87.95c-0.09,0.18-0.17,0.41-0.3,0.61c-1.05,1.58-2.13,3.14-3.15,4.74c-0.32,0.5-0.56,0.54-1,0.19
				c-0.52-0.42-1.07-0.8-1.62-1.18c-0.4-0.28-0.31-0.58-0.06-0.88c1.23-1.51,2.48-3.02,3.7-4.54c0.36-0.45,0.7-0.51,1.14-0.12
				c0.32,0.28,0.67,0.53,1.02,0.78C31.92,87.64,32.08,87.71,32.08,87.95z"/>
			<path class="st3" d="M28.72,23.97c-0.25,0.45-0.66,0.72-0.99,1.07c-0.56,0.58-0.98,0.52-1.54-0.09c-1.22-1.32-2.5-2.58-3.81-3.81
				c-0.55-0.52-0.47-0.89,0.07-1.28c0.5-0.36,0.96-0.77,1.37-1.23c0.29-0.32,0.53-0.31,0.77,0.04c1.17,1.69,2.57,3.2,3.85,4.81
				C28.57,23.62,28.63,23.8,28.72,23.97z"/>
			<path class="st3" d="M39.51,91.92c-0.11,0.28-0.2,0.53-0.3,0.78c-0.68,1.77-1.39,3.53-2.04,5.31c-0.19,0.53-0.4,0.52-0.82,0.31
				c-0.57-0.29-1.15-0.59-1.76-0.78c-0.61-0.2-0.55-0.48-0.31-0.94c0.89-1.74,1.78-3.48,2.62-5.25c0.22-0.46,0.46-0.59,0.91-0.37
				c0.46,0.22,0.92,0.43,1.39,0.63C39.37,91.68,39.48,91.77,39.51,91.92z"/>
			<path class="st3" d="M39.54,17.39c-0.46,0.43-1.11,0.58-1.68,0.87c-0.2,0.1-0.52,0.4-0.76-0.01c-0.07-0.11-0.13-0.24-0.19-0.36
				c-0.88-1.75-1.73-3.51-2.64-5.24c-0.27-0.52-0.17-0.73,0.36-0.92c0.63-0.22,1.23-0.53,1.83-0.82c0.32-0.15,0.52-0.17,0.67,0.23
				c0.75,2,1.53,3.99,2.29,5.98C39.45,17.18,39.47,17.23,39.54,17.39z"/>
			<path class="st3" d="M18.51,71.96c0.05,0.32-0.26,0.34-0.45,0.44c-1.81,0.94-3.63,1.86-5.45,2.79c-0.31,0.16-0.53,0.16-0.68-0.24
				c-0.29-0.72-0.62-1.43-0.96-2.13c-0.16-0.33-0.05-0.48,0.27-0.6c1.95-0.75,3.9-1.51,5.85-2.26c0.15-0.06,0.37-0.24,0.5,0
				C17.93,70.59,18.29,71.23,18.51,71.96z"/>
			<path class="st3" d="M18.51,37.32c-0.23,0.74-0.57,1.38-0.94,2c-0.15,0.25-0.41,0.03-0.58-0.03c-1.9-0.73-3.79-1.49-5.69-2.21
				c-0.41-0.16-0.49-0.32-0.3-0.71c0.32-0.65,0.63-1.31,0.9-1.98c0.16-0.4,0.34-0.5,0.72-0.3c1.81,0.93,3.64,1.85,5.45,2.79
				C18.25,36.98,18.56,37.01,18.51,37.32z"/>
			<path class="st3" d="M20.58,21.9c0.23,0.02,0.35,0.17,0.49,0.3c1.43,1.42,2.85,2.85,4.28,4.27c0.28,0.27,0.34,0.45,0.05,0.79
				c-1.25,1.47-1.25,1.5-2.76,0.34c-1.33-1.03-2.63-2.11-3.95-3.16c-0.24-0.19-0.3-0.35-0.07-0.59c0.6-0.62,1.18-1.24,1.78-1.86
				C20.44,21.94,20.53,21.92,20.58,21.9z"/>
			<path class="st3" d="M24.19,90.75c-0.14-0.09-0.29-0.19-0.45-0.29c-2.02-1.37-2.05-1.6-0.39-3.26c1.06-1.06,2.13-2.11,3.18-3.19
				c0.31-0.32,0.53-0.36,0.85-0.01c0.29,0.31,0.63,0.57,0.97,0.83c0.42,0.32,0.38,0.64,0.07,1.01c-1.2,1.46-2.39,2.94-3.6,4.4
				C24.66,90.44,24.5,90.67,24.19,90.75z"/>
			<path class="st3" d="M20.62,87.42c-0.1-0.07-0.2-0.12-0.26-0.2c-0.42-0.59-0.99-1.05-1.45-1.61c-0.41-0.49-0.24-0.73,0.13-1.03
				c1.51-1.23,3.01-2.47,4.52-3.7c0.3-0.25,0.6-0.33,0.89,0.04c0.33,0.42,0.69,0.82,1.05,1.21c0.19,0.21,0.13,0.38-0.05,0.55
				c-1.5,1.5-3,2.99-4.5,4.49C20.87,87.27,20.75,87.33,20.62,87.42z"/>
		</g>
	</g>
</g>
</svg>
