<?xml version="1.0" encoding="utf-8"?>
<!-- Generator: Adobe Illustrator 24.1.1, SVG Export Plug-In . SVG Version: 6.00 Build 0)  -->
<svg version="1.1" id="Capa_1" xmlns="http://www.w3.org/2000/svg" xmlns:xlink="http://www.w3.org/1999/xlink" x="0px" y="0px"
	 viewBox="0 0 94.86 94.74" style="enable-background:new 0 0 94.86 94.74;" xml:space="preserve">
<style type="text/css">
	.st0{fill:#F4C6DE;}
	.st1{fill:#F173AC;}
	.st2{fill:#D9D9D9;}
	.st3{fill:#007CC3;}
</style>
<g>
	<g>
		<path class="st0" d="M2.02,45.71c-2.01-0.03-2.01-0.03-2.01,1.97c0,0.21,0.01,0.43,0,0.64c-0.04,0.44,0.12,0.62,0.59,0.61
			c2.06-0.06,4.12-0.13,6.18-0.33c0.11-0.01,0.25,0.03,0.32-0.03c0.63-0.53,0.17-1.24,0.28-1.86c0.05-0.28,0.13-0.68-0.38-0.72
			c-0.37-0.03-0.74-0.1-1.12-0.12C4.59,45.82,3.31,45.76,2.02,45.71z"/>
		<path class="st0" d="M6.55,44.39c0.93,0.02,0.93,0.02,1-1.21c0.08-1.32,0.08-1.34-1.24-1.57c-1.79-0.31-3.59-0.58-5.38-0.87
			c-0.29-0.05-0.45,0-0.48,0.34c-0.08,0.82-0.2,1.64-0.3,2.46c-0.05,0.39,0.13,0.51,0.5,0.52C2.53,44.16,4.4,44.27,6.55,44.39z"/>
		<path class="st0" d="M38.82,0.69c-0.79,0.18-1.68,0.37-2.56,0.58c-0.27,0.06-0.28,0.26-0.21,0.5c0.56,2.07,1.11,4.13,1.65,6.2
			c0.08,0.32,0.21,0.48,0.56,0.33c0.12-0.05,0.26-0.05,0.39-0.08c1.8-0.42,1.78-0.41,1.45-2.25c-0.28-1.58-0.52-3.16-0.77-4.75
			C39.29,0.96,39.33,0.65,38.82,0.69z"/>
		<path class="st0" d="M13.27,14.53c-0.11,0.09-0.25,0.17-0.35,0.29c-0.51,0.55-1,1.12-1.52,1.66c-0.28,0.29-0.23,0.44,0.08,0.69
			c1.65,1.32,3.29,2.66,4.91,4.02c0.31,0.26,0.43,0.21,0.69-0.06c1.49-1.56,1.5-1.55-0.04-3.09c-1-1.01-2.01-2.01-3.02-3.01
			C13.82,14.81,13.61,14.6,13.27,14.53z"/>
		<path class="st0" d="M26.36,13.19c0.16,0.01,1.96-1.09,2.01-1.26c0.07-0.23-0.07-0.42-0.16-0.6c-0.92-1.79-1.84-3.59-2.76-5.38
			c-0.14-0.26-0.24-0.55-0.65-0.29c-0.68,0.43-1.38,0.83-2.08,1.23c-0.31,0.17-0.35,0.35-0.16,0.64c1.17,1.8,2.33,3.61,3.49,5.41
			C26.11,13.05,26.16,13.19,26.36,13.19z"/>
		<path class="st0" d="M34.16,9.5c0.58-0.19,1.24-0.41,1.9-0.64c0.25-0.09,0.17-0.28,0.12-0.47c-0.56-2.07-1.12-4.13-1.67-6.2
			c-0.09-0.35-0.24-0.44-0.57-0.33c-0.76,0.26-1.52,0.51-2.29,0.75c-0.32,0.1-0.41,0.29-0.29,0.61c0.77,2,1.53,4,2.29,6
			C33.73,9.43,33.84,9.56,34.16,9.5z"/>
		<path class="st0" d="M17,11.06c-0.09,0.02-0.15,0.02-0.19,0.05c-0.71,0.65-1.43,1.29-2.11,1.97c-0.18,0.18,0.05,0.42,0.19,0.56
			c1.46,1.49,2.85,3.08,4.45,4.4c0.78,0.64,1.17-0.65,1.78-1.01c0.37-0.22,0.38-0.49,0.08-0.85c-1.34-1.6-2.64-3.23-3.96-4.85
			C17.16,11.24,17.07,11.14,17,11.06z"/>
		<path class="st0" d="M44.48,6.22c-0.1-1.9-0.21-3.79-0.29-5.69C44.17,0.15,44.02,0,43.65,0.05c-0.82,0.1-1.64,0.22-2.47,0.3
			c-0.35,0.04-0.37,0.22-0.33,0.5c0.32,2.03,0.64,4.06,0.96,6.1c0.08,0.52,0.31,0.77,0.87,0.59c0.23-0.07,0.47-0.08,0.71-0.09
			C44.52,7.38,44.52,7.39,44.48,6.22z"/>
		<path class="st0" d="M5.65,24.93c0.04,0.27,0.25,0.31,0.41,0.4c1.81,0.94,3.63,1.85,5.43,2.8c0.42,0.22,0.65,0.15,0.91-0.25
			c1.08-1.66,1.09-1.64-0.53-2.69c-1.33-0.86-2.66-1.71-3.96-2.6c-0.52-0.36-0.82-0.32-1.1,0.28c-0.28,0.61-0.65,1.17-0.98,1.75
			C5.76,24.72,5.7,24.84,5.65,24.93z"/>
		<path class="st0" d="M30.13,11.14c0.66-0.3,1.32-0.59,1.97-0.92c0.26-0.13,0.1-0.38,0.02-0.57c-0.74-1.93-1.5-3.85-2.23-5.78
			c-0.14-0.38-0.28-0.52-0.69-0.31c-0.67,0.33-1.37,0.62-2.06,0.9c-0.39,0.16-0.46,0.38-0.27,0.75c0.93,1.82,1.84,3.64,2.77,5.46
			C29.74,10.86,29.82,11.14,30.13,11.14z"/>
		<path class="st0" d="M7.73,40.22c0.61-0.5,0.39-1.41,0.68-2.1c0.19-0.45-0.15-0.49-0.43-0.57c-2.02-0.54-4.04-1.05-6.05-1.61
			c-0.41-0.11-0.55,0.05-0.62,0.37C1.15,37.07,1,37.84,0.83,38.59c-0.08,0.34,0.05,0.53,0.37,0.58C3.3,39.51,5.41,39.85,7.73,40.22z
			"/>
		<path class="st0" d="M10.06,32.11c0.18,0.02,0.29-0.07,0.35-0.19c0.28-0.61,0.56-1.22,0.83-1.83c0.12-0.29-0.13-0.37-0.32-0.46
			c-1.86-0.95-3.73-1.9-5.59-2.86c-0.38-0.2-0.59-0.1-0.75,0.28c-0.29,0.69-0.59,1.38-0.9,2.07c-0.12,0.27-0.22,0.47,0.17,0.62
			c2.01,0.76,4,1.54,6,2.31C9.93,32.07,10.01,32.09,10.06,32.11z"/>
		<path class="st0" d="M1.95,33.97c-0.03,0.34,0.23,0.38,0.46,0.44c2.04,0.55,4.09,1.1,6.13,1.67c0.26,0.07,0.41,0.04,0.48-0.23
			c0.01-0.05,0.03-0.1,0.05-0.15c0.77-1.96,0.77-1.96-1.18-2.71c-1.38-0.53-2.77-1.02-4.13-1.6c-0.72-0.31-1.01-0.13-1.18,0.59
			C2.42,32.65,2.16,33.3,1.95,33.97z"/>
		<path class="st0" d="M18.37,10.11c0.07,0.11,0.16,0.27,0.28,0.41c1.25,1.54,2.51,3.07,3.73,4.63c0.31,0.39,0.53,0.41,0.92,0.16
			c1.7-1.08,1.7-1.07,0.58-2.78c-0.88-1.34-1.77-2.68-2.63-4.04c-0.25-0.4-0.45-0.44-0.81-0.15c-0.59,0.47-1.21,0.89-1.81,1.34
			C18.51,9.77,18.36,9.85,18.37,10.11z"/>
		<path class="st0" d="M8.23,20.67c-0.02,0.3,0.19,0.35,0.34,0.45c1.7,1.12,3.42,2.22,5.11,3.35c0.44,0.29,0.67,0.2,0.97-0.2
			c1.12-1.55,1.13-1.54-0.37-2.75c-1.19-0.96-2.38-1.91-3.55-2.89c-0.45-0.37-0.77-0.49-1.13,0.13c-0.32,0.55-0.75,1.05-1.12,1.57
			C8.38,20.44,8.3,20.57,8.23,20.67z"/>
		<path class="st0" d="M1.01,53.85c2.23-0.36,4.18-0.68,6.13-0.99c0.45-0.07,0.7-0.22,0.5-0.74c-0.08-0.22-0.07-0.47-0.08-0.71
			c-0.02-1.17-0.09-1.28-1.25-1.18c-1.87,0.16-3.73,0.32-5.61,0.31c-0.46,0-0.66,0.15-0.5,0.63c0.2,0.62,0.11,1.27,0.2,1.91
			C0.5,53.72,0.62,54,1.01,53.85z"/>
		<path class="st0" d="M8.47,58.56c-0.98,0.28-1.95,0.57-2.93,0.83c-1.03,0.28-2.07,0.55-3.1,0.81c-0.33,0.08-0.59,0.18-0.46,0.58
			C2.2,61.49,2.46,62.2,2.7,62.9c0.13,0.38,0.31,0.57,0.77,0.38c1.92-0.75,3.84-1.48,5.77-2.2c0.35-0.13,0.47-0.27,0.31-0.64
			c-0.2-0.47-0.34-0.96-0.49-1.45C8.98,58.69,8.81,58.54,8.47,58.56z"/>
		<path class="st0" d="M7.64,54.42c-1.52,0.24-2.94,0.46-4.36,0.7c-0.45,0.07-0.89,0.18-1.34,0.25C0.73,55.55,0.73,55.54,1,56.73
			c0.14,0.62,0.12,1.44,0.52,1.81c0.46,0.44,1.18-0.15,1.78-0.29c1.59-0.37,3.15-0.85,4.72-1.26c0.26-0.07,0.39-0.19,0.35-0.44
			c-0.11-0.63-0.23-1.26-0.37-1.88C7.94,54.47,7.74,54.42,7.64,54.42z"/>
		<path class="st0" d="M11.87,66.38c-0.1,0.05-0.27,0.12-0.43,0.21c-1.68,0.84-3.34,1.7-5.03,2.51c-0.65,0.31-0.75,0.67-0.38,1.26
			c0.33,0.52,0.66,1.04,0.93,1.59c0.23,0.46,0.51,0.39,0.84,0.18c1.67-1.1,3.34-2.21,5.02-3.3c0.38-0.24,0.47-0.47,0.24-0.85
			c-0.26-0.44-0.5-0.88-0.75-1.33C12.23,66.5,12.16,66.35,11.87,66.38z"/>
		<path class="st0" d="M10.02,62.54c-0.78,0.29-1.59,0.59-2.38,0.9c-1.2,0.47-2.38,0.97-3.59,1.4C3.6,65.01,3.5,65.17,3.71,65.6
			c0.33,0.65,0.63,1.3,0.9,1.98c0.17,0.43,0.38,0.44,0.73,0.26c1.79-0.92,3.58-1.85,5.39-2.73c0.49-0.24,0.55-0.5,0.34-0.92
			c-0.22-0.46-0.45-0.92-0.68-1.37C10.32,62.67,10.26,62.49,10.02,62.54z"/>
		<g>
			<path class="st1" d="M49.03,92.84c-0.33-1.42,0-3.23-0.32-5c-0.01-0.08,0.02-0.19-0.02-0.24c-0.61-0.59-1.35-0.16-2.03-0.27
				c-0.36-0.06-0.49,0.12-0.55,0.49c-0.12,0.66-0.18,1.33-0.14,1.99c0.09,1.37-0.2,2.72-0.18,4.08c0.01,0.45,0.11,0.67,0.59,0.76
				c0.35,0.06,0.69,0.08,1.03,0.08C49.04,94.74,49.04,94.74,49.03,92.84z"/>
			<path class="st1" d="M44.51,88.04c0.15-0.54-0.18-0.71-0.66-0.82c-0.53-0.12-1.06-0.01-1.59-0.17c-0.36-0.11-0.32,0.29-0.35,0.49
				c-0.26,1.49-0.53,2.99-0.76,4.49c-0.11,0.7-0.46,1.65-0.14,2.06c0.32,0.43,1.32,0.34,2.04,0.33c0.18,0,0.36,0.09,0.55,0.12
				c0.39,0.07,0.61-0.03,0.61-0.49C44.19,92.06,44.36,90.07,44.51,88.04z"/>
			<path class="st1" d="M8.23,73.96c0.24,0.32,0.49,0.66,0.75,0.99c1.11,1.43,1.13,1.45,2.53,0.37c1.22-0.94,2.4-1.95,3.61-2.91
				c0.51-0.4,0.51-0.75,0.1-1.25c-1.13-1.39-1.09-1.38-2.59-0.32c-1.31,0.92-2.68,1.76-4.02,2.63C8.45,73.59,8.21,73.64,8.23,73.96z
				"/>
			<path class="st1" d="M38.3,86.34c-0.37-0.06-0.54,0.13-0.63,0.47c-0.54,2.01-1.08,4.03-1.64,6.03c-0.12,0.42,0.17,0.46,0.42,0.52
				c0.78,0.19,1.56,0.35,2.34,0.52c0.48,0.1,0.47-0.32,0.51-0.55c0.26-1.39,0.47-2.79,0.7-4.18c0.09-0.58,0.16-1.16,0.28-1.74
				c0.08-0.43,0.08-0.72-0.49-0.76C39.28,86.62,38.79,86.45,38.3,86.34z"/>
			<path class="st1" d="M26.51,81.53c-0.34,0-0.45,0.15-0.55,0.31c-1.11,1.7-2.23,3.39-3.35,5.09c-0.22,0.33-0.27,0.6,0.18,0.84
				c0.66,0.34,1.3,0.74,1.93,1.15c0.34,0.22,0.52,0.16,0.69-0.18c0.94-1.89,1.88-3.78,2.84-5.67c0.17-0.34,0.11-0.53-0.23-0.7
				C27.48,82.1,26.95,81.78,26.51,81.53z"/>
			<path class="st1" d="M36.13,86.21c0.02-0.27-0.08-0.42-0.36-0.54c-1.81-0.84-1.88-0.82-2.59,1.05c-0.56,1.48-1.12,2.95-1.71,4.42
				c-0.21,0.52-0.08,0.76,0.47,0.9c0.64,0.17,1.26,0.43,1.89,0.67c0.34,0.13,0.57,0.08,0.67-0.3c0.53-1.96,1.07-3.92,1.6-5.88
				C36.12,86.43,36.12,86.32,36.13,86.21z"/>
			<path class="st1" d="M22.95,79.13c-0.3,0.03-0.45,0.25-0.59,0.42c-1.24,1.5-2.48,3.02-3.71,4.53c-0.24,0.3-0.36,0.6,0.04,0.88
				c0.57,0.4,1.14,0.8,1.69,1.23c0.38,0.29,0.62,0.29,0.9-0.14c1.08-1.69,2.19-3.36,3.3-5.03c0.26-0.4,0.22-0.63-0.21-0.89
				C23.88,79.82,23.47,79.38,22.95,79.13z"/>
			<path class="st1" d="M30.09,83.51c-0.22-0.03-0.27,0.14-0.34,0.28c-0.96,1.92-1.92,3.84-2.88,5.76
				c-0.14,0.27-0.08,0.42,0.23,0.54c0.72,0.29,1.43,0.62,2.12,0.96c0.38,0.18,0.51,0.04,0.64-0.31c0.73-1.95,1.49-3.9,2.24-5.85
				c0.06-0.14,0.21-0.33,0.03-0.43C31.47,84.09,30.81,83.73,30.09,83.51z"/>
			<path class="st1" d="M16.92,83.43c0.35-0.13,0.6-0.47,0.85-0.77c1.12-1.36,2.21-2.74,3.32-4.1c0.32-0.39,0.39-0.67-0.03-1.08
				c-1.32-1.3-1.3-1.31-2.57-0.04c-1.14,1.14-2.26,2.29-3.42,3.4c-0.45,0.43-0.51,0.76,0,1.17c0.48,0.39,0.92,0.81,1.38,1.21
				C16.58,83.33,16.69,83.44,16.92,83.43z"/>
			<path class="st1" d="M11.28,77.96c0.1,0.12,0.2,0.28,0.33,0.41c0.35,0.37,0.78,0.69,1.04,1.11c0.42,0.67,0.75,0.68,1.28,0.12
				c1.3-1.35,2.63-2.67,3.98-3.98c0.39-0.38,0.5-0.61,0.06-1.09c-1.15-1.26-1.14-1.31-2.51-0.27c-1.27,0.97-2.5,2-3.74,3.01
				C11.53,77.44,11.3,77.61,11.28,77.96z"/>
		</g>
		<g>
			<path class="st2" d="M47.45,0.03c-1.65,0-1.69,0-1.63,1.65c0.06,1.73,0.09,3.48,0.36,5.18c0.14,0.92,1.12,0.28,1.7,0.41
				c0.3,0.07,0.8,0.21,0.83-0.42c0.05-0.8,0.17-1.6,0.14-2.39C48.81,3.27,49,2.1,49.05,0.93c0.04-0.78-0.25-1.01-0.96-0.91
				C47.88,0.05,47.67,0.03,47.45,0.03z"/>
			<g>
				<path class="st2" d="M90.7,48.76c1-0.15,2.18,0.23,3.39,0.18c0.54-0.03,0.79-0.18,0.77-0.75c-0.03-0.64-0.02-1.29,0-1.93
					c0.01-0.42-0.15-0.59-0.57-0.56c-2.11,0.13-4.22,0.09-6.32,0.31c-0.43,0.04-0.56,0.22-0.53,0.6c0.01,0.19,0,0.38,0,0.56
					c0,1.55,0,1.56,1.6,1.59C89.52,48.77,90.01,48.76,90.7,48.76z"/>
				<path class="st2" d="M90.96,50.37c-0.97,0.15-1.92-0.17-2.88-0.17c-0.56,0-0.78,0.24-0.8,0.76c-0.02,0.48,0.06,0.96-0.11,1.44
					c-0.12,0.35,0.17,0.38,0.42,0.42c1.18,0.2,2.36,0.48,3.55,0.6c0.91,0.09,1.77,0.39,2.7,0.4c0.46,0,0.46-0.11,0.58-0.46
					c0.25-0.79-0.02-1.61,0.25-2.39c0.11-0.3-0.13-0.44-0.42-0.42C93.15,50.62,92.07,50.23,90.96,50.37z"/>
				<path class="st2" d="M50.32,88.13c0.16,2.04,0.32,3.99,0.33,5.95c0,0.25,0.03,0.58,0.36,0.48c0.86-0.25,1.77-0.01,2.63-0.27
					c0.36-0.11,0.4-0.26,0.35-0.57c-0.32-2-0.62-4.01-0.95-6.01c-0.07-0.45-0.21-0.83-0.84-0.58c-0.28,0.11-0.64,0.01-0.96,0.05
					C50.64,87.25,50.11,87.42,50.32,88.13z"/>
				<path class="st2" d="M87.39,72.28c0.32,0.03,0.37-0.17,0.47-0.33c0.4-0.66,0.79-1.33,1.2-1.99c0.2-0.31,0.13-0.48-0.17-0.63
					c-1.92-0.96-3.83-1.91-5.75-2.88c-0.32-0.16-0.5-0.07-0.64,0.23c-0.12,0.24-0.24,0.48-0.39,0.7c-0.68,1.07-0.72,1.13,0.34,1.76
					c1.49,0.9,2.93,1.85,4.35,2.85C87,72.13,87.24,72.21,87.39,72.28z"/>
				<path class="st2" d="M69.81,89.08c0.64-0.38,1.26-0.74,1.88-1.1c0.89-0.53,0.91-0.4,0.24-1.41c-1-1.51-1.96-3.04-2.91-4.58
					c-0.26-0.42-0.51-0.53-0.98-0.31c-1.74,0.81-1.79,0.91-0.93,2.58c0.74,1.45,1.5,2.89,2.25,4.34
					C69.47,88.8,69.52,89.07,69.81,89.08z"/>
				<path class="st2" d="M93.77,40.78c-2.19,0.35-4.11,0.66-6.03,0.97c-0.47,0.07-0.77,0.22-0.53,0.79
					c0.08,0.19,0.06,0.42,0.07,0.63c0.03,1.24,0.13,1.35,1.36,1.23c1.81-0.18,3.62-0.32,5.45-0.31c0.49,0,0.72-0.13,0.54-0.66
					c-0.2-0.59-0.09-1.22-0.19-1.83C94.32,40.96,94.31,40.5,93.77,40.78z"/>
				<path class="st2" d="M79.25,71.81c0.04,0.27,0.25,0.42,0.43,0.56c1.5,1.24,3.01,2.47,4.52,3.7c0.35,0.28,0.66,0.31,0.95-0.09
					c0.44-0.61,0.88-1.21,1.33-1.81c0.21-0.28,0.18-0.44-0.12-0.64c-1.65-1.08-3.3-2.16-4.94-3.27c-0.62-0.42-1.05-0.37-1.38,0.34
					C79.82,71.04,79.38,71.33,79.25,71.81z"/>
				<path class="st2" d="M52.08,7.46c0.53,0.2,0.9,0.05,0.97-0.67c0.19-1.99,0.69-3.93,0.87-5.92c0.04-0.42-0.03-0.49-0.41-0.52
					c-0.74-0.06-1.48-0.17-2.21-0.29c-0.43-0.07-0.64,0.04-0.65,0.53c-0.03,1.52-0.1,3.04-0.16,4.57c-0.01,0.19,0.01,0.38-0.01,0.56
					C50.26,7.4,50.25,7.4,52.08,7.46z"/>
				<path class="st2" d="M79.25,22.71c-0.01,0.26,1.19,1.95,1.34,1.95c0.53-0.03,0.91-0.42,1.33-0.69c1.44-0.91,2.84-1.9,4.28-2.81
					c0.45-0.28,0.47-0.48,0.16-0.86c-0.42-0.52-0.79-1.07-1.18-1.61c-0.29-0.4-0.6-0.47-1-0.14c-1.5,1.24-3.01,2.46-4.51,3.7
					C79.49,22.39,79.36,22.59,79.25,22.71z"/>
				<path class="st2" d="M86.57,35.98c1.03-0.28,2.24-0.61,3.45-0.94c0.8-0.22,1.6-0.44,2.4-0.64c0.34-0.08,0.57-0.2,0.44-0.59
					c-0.25-0.73-0.5-1.47-0.76-2.2c-0.12-0.33-0.3-0.45-0.67-0.3c-1.94,0.76-3.9,1.49-5.85,2.23c-0.1,0.04-0.27,0.07-0.28,0.12
					c-0.11,0.72,0.33,1.31,0.48,1.97C85.86,35.98,86.08,36.05,86.57,35.98z"/>
				<path class="st2" d="M85.21,60.69c-0.03,0.29,0.19,0.31,0.36,0.37c1.95,0.74,3.9,1.47,5.85,2.23c0.36,0.14,0.55,0.06,0.68-0.28
					c0.26-0.76,0.54-1.51,0.79-2.27c0.09-0.29-0.09-0.44-0.37-0.51c-1.99-0.53-3.97-1.08-5.96-1.6c-0.42-0.11-0.71,0.03-0.83,0.49
					C85.58,59.66,85.38,60.19,85.21,60.69z"/>
				<path class="st2" d="M68.48,13.08c0.22-0.01,0.31-0.17,0.42-0.33c1.1-1.68,2.2-3.35,3.31-5.02c0.23-0.35,0.34-0.64-0.17-0.9
					c-0.67-0.34-1.3-0.74-1.93-1.15c-0.36-0.24-0.52-0.12-0.68,0.21c-0.94,1.89-1.89,3.78-2.83,5.67c-0.07,0.14-0.16,0.29-0.07,0.45
					C66.6,12.18,68.27,13.1,68.48,13.08z"/>
				<path class="st2" d="M70.07,13.97c-0.04,0.21,0.1,0.29,0.22,0.4c1.51,1.32,1.53,1.35,2.84-0.13c1.06-1.2,2.04-2.47,3.06-3.7
					c0.33-0.4,0.25-0.72-0.15-1c-0.59-0.42-1.17-0.84-1.75-1.27c-0.23-0.17-0.41-0.23-0.6,0.06c-1.16,1.79-2.33,3.58-3.49,5.37
					C70.14,13.78,70.11,13.89,70.07,13.97z"/>
				<path class="st2" d="M86.46,38.19c0.12,0.55,0.23,1.1,0.35,1.64c0.08,0.34,0.32,0.4,0.62,0.35c1.97-0.32,3.95-0.63,5.92-0.96
					c0.45-0.07,0.82-0.19,0.58-0.83c-0.2-0.52-0.29-1.09-0.34-1.64c-0.07-0.77-0.4-0.89-1.09-0.68c-1.84,0.54-3.7,1.05-5.56,1.53
					C86.58,37.68,86.4,37.81,86.46,38.19z"/>
				<path class="st2" d="M86.48,56.34c-0.02,0.39,0.02,0.57,0.34,0.66c2.04,0.53,4.08,1.07,6.12,1.64c0.39,0.11,0.48-0.05,0.54-0.34
					c0.18-0.78,0.35-1.56,0.52-2.34c0.12-0.53-0.36-0.49-0.61-0.54c-1.39-0.25-2.79-0.46-4.19-0.68c-0.55-0.09-1.11-0.16-1.66-0.27
					c-0.41-0.08-0.68-0.04-0.76,0.44C86.69,55.43,86.56,55.95,86.48,56.34z"/>
				<path class="st2" d="M56.58,8.28c0.33,0.03,0.49-0.12,0.57-0.43c0.52-2.02,1.04-4.03,1.59-6.04c0.1-0.38-0.02-0.48-0.33-0.55
					c-0.78-0.17-1.56-0.34-2.34-0.52c-0.54-0.13-0.5,0.34-0.55,0.59c-0.21,1.02-0.35,2.05-0.52,3.07c-0.15,0.95-0.3,1.89-0.45,2.84
					c-0.06,0.39-0.07,0.67,0.46,0.72C55.54,8,56.06,8.16,56.58,8.28z"/>
				<path class="st2" d="M56.61,86.34c-0.6,0.12-1.21,0.23-1.81,0.35c-0.34,0.07-0.3,0.34-0.26,0.58c0.32,2,0.64,4,0.97,6
					c0.08,0.48,0.24,0.76,0.86,0.55c0.6-0.21,1.25-0.26,1.88-0.38c0.41-0.08,0.63-0.22,0.49-0.75c-0.54-1.93-1.03-3.87-1.54-5.8
					C57.11,86.58,57.03,86.28,56.61,86.34z"/>
				<path class="st2" d="M81.64,26.25c-0.01,0.16,0.93,1.89,1.07,1.96c0.2,0.1,0.36-0.02,0.53-0.1c1.79-0.9,3.58-1.8,5.38-2.69
					c0.48-0.24,0.52-0.57,0.28-0.98c-0.33-0.58-0.71-1.14-1.01-1.74c-0.22-0.44-0.48-0.44-0.83-0.21c-1.67,1.1-3.35,2.21-5.02,3.31
					C81.87,25.91,81.66,25.99,81.64,26.25z"/>
				<path class="st2" d="M58.74,86.46c0.05,0.18,0.18,0.59,0.29,1c0.44,1.65,0.88,3.3,1.31,4.96c0.09,0.33,0.27,0.44,0.6,0.33
					c0.73-0.26,1.46-0.52,2.19-0.77c0.37-0.12,0.41-0.33,0.28-0.67c-0.75-1.95-1.49-3.9-2.23-5.85c-0.04-0.1-0.08-0.27-0.13-0.28
					c-0.72-0.07-1.31,0.35-1.97,0.51C58.77,85.75,58.69,85.94,58.74,86.46z"/>
				<path class="st2" d="M58.71,8.45c-0.02,0.19,0.04,0.4,0.38,0.5c0.52,0.14,1.02,0.32,1.52,0.51c0.27,0.1,0.43,0.09,0.55-0.23
					c0.74-2.01,1.5-4.01,2.27-6.01c0.12-0.31,0.02-0.45-0.25-0.55c-0.75-0.27-1.51-0.54-2.26-0.8c-0.28-0.1-0.48,0-0.56,0.28
					c-0.55,2.01-1.09,4.02-1.63,6.03C58.72,8.23,58.72,8.29,58.71,8.45z"/>
				<path class="st2" d="M70.05,80.62c0.09,0.18,0.17,0.41,0.3,0.61c1.05,1.58,2.13,3.14,3.15,4.74c0.32,0.5,0.56,0.54,1,0.19
					c0.52-0.42,1.07-0.8,1.62-1.18c0.4-0.28,0.31-0.58,0.06-0.88c-1.23-1.51-2.48-3.02-3.7-4.54c-0.36-0.45-0.7-0.51-1.14-0.12
					c-0.32,0.28-0.67,0.53-1.02,0.78C70.21,80.31,70.06,80.38,70.05,80.62z"/>
				<path class="st2" d="M73.41,16.64c0.25,0.45,0.66,0.72,0.99,1.07c0.56,0.58,0.98,0.52,1.54-0.09c1.22-1.32,2.5-2.58,3.81-3.81
					c0.55-0.52,0.47-0.89-0.07-1.28c-0.5-0.36-0.96-0.77-1.37-1.23c-0.29-0.32-0.53-0.31-0.77,0.04c-1.17,1.69-2.57,3.2-3.85,4.81
					C73.57,16.29,73.5,16.47,73.41,16.64z"/>
				<path class="st2" d="M62.62,84.58c0.11,0.28,0.2,0.53,0.3,0.78c0.68,1.77,1.39,3.53,2.04,5.31c0.19,0.53,0.4,0.52,0.82,0.31
					c0.57-0.29,1.15-0.59,1.76-0.78c0.61-0.2,0.55-0.48,0.31-0.94c-0.89-1.74-1.78-3.48-2.62-5.25c-0.22-0.46-0.46-0.59-0.91-0.37
					c-0.46,0.22-0.92,0.43-1.39,0.63C62.76,84.34,62.66,84.44,62.62,84.58z"/>
				<path class="st2" d="M62.59,10.06c0.46,0.43,1.11,0.58,1.68,0.87c0.2,0.1,0.52,0.4,0.76-0.01c0.07-0.11,0.13-0.24,0.19-0.36
					c0.88-1.75,1.73-3.51,2.64-5.24c0.27-0.52,0.17-0.73-0.36-0.92c-0.63-0.22-1.23-0.53-1.83-0.82C65.35,3.43,65.15,3.42,65,3.82
					c-0.75,2-1.53,3.99-2.29,5.98C62.69,9.85,62.66,9.9,62.59,10.06z"/>
				<path class="st2" d="M83.63,64.63c-0.05,0.32,0.26,0.34,0.45,0.44c1.81,0.94,3.63,1.86,5.45,2.79c0.31,0.16,0.53,0.16,0.68-0.24
					c0.29-0.72,0.62-1.43,0.96-2.13c0.16-0.33,0.05-0.48-0.27-0.6c-1.95-0.75-3.9-1.51-5.85-2.26c-0.15-0.06-0.37-0.24-0.5,0
					C84.2,63.26,83.85,63.9,83.63,64.63z"/>
				<path class="st2" d="M83.63,29.99c0.23,0.74,0.57,1.38,0.94,2c0.15,0.25,0.41,0.03,0.58-0.03c1.9-0.73,3.79-1.49,5.69-2.21
					c0.41-0.16,0.49-0.32,0.3-0.71c-0.32-0.65-0.63-1.31-0.9-1.98c-0.16-0.4-0.34-0.5-0.72-0.3c-1.81,0.93-3.64,1.85-5.45,2.79
					C83.88,29.65,83.57,29.67,83.63,29.99z"/>
				<path class="st2" d="M81.55,14.56c-0.23,0.02-0.35,0.17-0.49,0.3c-1.43,1.42-2.85,2.85-4.28,4.27
					c-0.28,0.27-0.34,0.45-0.05,0.79c1.25,1.47,1.25,1.5,2.76,0.34c1.33-1.03,2.63-2.11,3.95-3.16c0.24-0.19,0.3-0.35,0.07-0.59
					c-0.6-0.62-1.18-1.24-1.78-1.86C81.69,14.61,81.61,14.59,81.55,14.56z"/>
				<path class="st2" d="M77.95,83.42c0.14-0.09,0.29-0.19,0.45-0.29c2.02-1.37,2.05-1.6,0.39-3.26c-1.06-1.06-2.13-2.11-3.18-3.19
					c-0.31-0.32-0.53-0.36-0.85-0.01c-0.29,0.31-0.63,0.57-0.97,0.83c-0.42,0.32-0.38,0.64-0.07,1.01c1.2,1.46,2.39,2.94,3.6,4.4
					C77.47,83.11,77.63,83.34,77.95,83.42z"/>
				<path class="st2" d="M81.52,80.09c0.1-0.07,0.2-0.12,0.26-0.2c0.42-0.59,0.99-1.05,1.45-1.61c0.41-0.49,0.24-0.73-0.13-1.03
					c-1.51-1.23-3.01-2.47-4.52-3.7c-0.3-0.25-0.6-0.33-0.89,0.04c-0.33,0.42-0.69,0.82-1.05,1.21c-0.19,0.21-0.13,0.38,0.05,0.55
					c1.5,1.5,3,2.99,4.5,4.49C81.27,79.94,81.39,80,81.52,80.09z"/>
			</g>
		</g>
	</g>
	<g>
		<g>
			<path class="st3" d="M28.96,40.89l-0.23,2.74h-10.3v-2.66c0.34-0.26,0.89-0.65,1.66-1.2c1.88-1.34,3.25-2.44,4.11-3.31
				c0.86-0.87,1.29-1.66,1.29-2.39c0-0.53-0.17-0.97-0.51-1.31c-0.34-0.35-0.8-0.52-1.38-0.52c-1.34,0-2.12,0.87-2.33,2.62
				l-2.84-0.63c0.64-3.02,2.4-4.53,5.3-4.53c1.62,0,2.87,0.43,3.74,1.28c0.87,0.85,1.3,1.87,1.3,3.05c0,1.22-0.45,2.31-1.36,3.27
				c-0.91,0.96-2.58,2.16-5.01,3.61H28.96z"/>
			<path class="st3" d="M35.87,43.84c-1.68,0-2.99-0.67-3.93-2c-0.94-1.33-1.4-3.02-1.4-5.06c0-2,0.46-3.68,1.37-5.04
				c0.91-1.36,2.24-2.05,3.98-2.05c1.73,0,3.06,0.68,3.98,2.05s1.39,3.03,1.39,5c0,2.02-0.46,3.71-1.39,5.06
				C38.94,43.16,37.6,43.84,35.87,43.84z M35.91,32c-0.76,0-1.29,0.35-1.58,1.05s-0.45,1.93-0.45,3.69c0,1.77,0.16,3,0.47,3.69
				c0.31,0.69,0.83,1.04,1.55,1.04c0.72,0,1.24-0.34,1.56-1.02c0.32-0.68,0.48-1.87,0.48-3.58c0-1.88-0.16-3.16-0.47-3.84
				C37.15,32.34,36.63,32,35.91,32z"/>
			<path class="st3" d="M44.34,43.63h-1.66l7.97-13.94h1.64L44.34,43.63z"/>
			<path class="st3" d="M71.04,43.84c-1.68,0-2.99-0.67-3.93-2c-0.94-1.33-1.4-3.02-1.4-5.06c0-2,0.46-3.68,1.37-5.04
				c0.91-1.36,2.24-2.05,3.98-2.05c1.73,0,3.06,0.68,3.98,2.05c0.93,1.36,1.39,3.03,1.39,5c0,2.02-0.46,3.71-1.39,5.06
				C74.11,43.16,72.78,43.84,71.04,43.84z M71.08,32c-0.76,0-1.29,0.35-1.58,1.05c-0.3,0.7-0.45,1.93-0.45,3.69
				c0,1.77,0.16,3,0.47,3.69c0.31,0.69,0.83,1.04,1.55,1.04c0.72,0,1.24-0.34,1.56-1.02c0.32-0.68,0.48-1.87,0.48-3.58
				c0-1.88-0.16-3.16-0.47-3.84C72.33,32.34,71.81,32,71.08,32z"/>
			<path class="st3" d="M46.32,65.05h-3v-5.62c0-0.79-0.02-1.3-0.07-1.54c-0.05-0.24-0.17-0.44-0.37-0.59
				c-0.2-0.16-0.47-0.24-0.82-0.24c-0.33,0-0.66,0.12-1.01,0.35c-0.34,0.23-0.51,0.91-0.51,2.02v5.62h-3v-5.62
				c0-0.81-0.04-1.34-0.11-1.57c-0.07-0.24-0.21-0.43-0.42-0.58c-0.21-0.15-0.46-0.22-0.78-0.22c-0.52,0-0.9,0.16-1.15,0.49
				c-0.25,0.33-0.38,0.95-0.38,1.88v5.62h-2.91V54.89h2.82v1.55c0.48-1.17,1.43-1.76,2.86-1.76c1.3,0,2.23,0.59,2.81,1.76
				c0.56-1.17,1.55-1.76,2.95-1.76c0.67,0,1.25,0.14,1.73,0.41c0.48,0.28,0.83,0.63,1.04,1.08c0.21,0.44,0.31,1.2,0.31,2.28V65.05z"
				/>
			<path class="st3" d="M51.78,51.04v3h-3v-3H51.78z M51.78,54.89v10.16h-3V54.89H51.78z"/>
			<path class="st3" d="M63.07,65.05h-3v-5.7c0-0.69-0.03-1.16-0.08-1.42c-0.05-0.26-0.19-0.47-0.39-0.65s-0.47-0.27-0.78-0.27
				c-1.05,0-1.58,0.78-1.58,2.33v5.7h-3V54.89h2.79v1.72c0.46-0.82,0.92-1.34,1.37-1.58c0.45-0.23,0.93-0.35,1.46-0.35
				c0.97,0,1.74,0.26,2.33,0.78c0.59,0.52,0.88,1.54,0.88,3.06V65.05z"/>
			<g>
				<path class="st3" d="M63.73,33.36l-2.77,0.74C60.7,32.7,60.02,32,58.92,32c-1.61,0-2.41,1.53-2.41,4.59
					c0.65-1.05,1.68-1.58,3.08-1.58c1.28,0,2.33,0.42,3.14,1.25c0.81,0.83,1.22,1.82,1.22,2.96c0,1.21-0.45,2.29-1.34,3.22
					c-0.89,0.93-2.09,1.4-3.58,1.4c-1.47,0-2.64-0.38-3.49-1.14c-0.85-0.76-1.43-1.66-1.74-2.7c-0.31-1.05-0.46-2.06-0.46-3.05
					c0-2.11,0.47-3.84,1.42-5.21c0.95-1.37,2.35-2.05,4.22-2.05c1.35,0,2.43,0.35,3.25,1.06C63.02,31.46,63.53,32.33,63.73,33.36z
					 M58.72,41.54c0.58,0,1.07-0.2,1.46-0.59c0.39-0.39,0.58-0.94,0.58-1.66c0-0.64-0.21-1.14-0.63-1.51
					c-0.42-0.37-0.89-0.56-1.4-0.56c-0.54,0-1.02,0.2-1.44,0.6c-0.42,0.4-0.63,0.93-0.63,1.58c0,0.61,0.19,1.12,0.58,1.52
					C57.63,41.33,58.13,41.54,58.72,41.54z"/>
			</g>
		</g>
	</g>
</g>
</svg>
