<svg width="95" height="94" viewBox="0 0 95 94" fill="none" xmlns="http://www.w3.org/2000/svg">
<g clip-path="url(#clip0_1240_874)">
<path d="M92.1322 45.3531C94.1269 45.3233 94.1269 45.3233 94.1269 47.308C94.1269 47.5164 94.1169 47.7347 94.1269 47.9431C94.1666 48.3798 94.0078 48.5584 93.5414 48.5485C91.4971 48.4889 89.4528 48.4195 87.4086 48.221C87.2994 48.2111 87.1605 48.2508 87.091 48.1912C86.4658 47.6653 86.9223 46.9607 86.8131 46.3454C86.7635 46.0676 86.6841 45.6706 87.1902 45.6309C87.5574 45.6012 87.9246 45.5317 88.3017 45.5118C89.5818 45.4622 90.8521 45.4027 92.1322 45.3531Z" fill="#F5A4C7"/>
<path d="M87.6367 44.0431C86.7138 44.0629 86.7138 44.0629 86.6444 42.8423C86.565 41.5324 86.565 41.5125 87.8749 41.2843C89.6512 40.9766 91.4375 40.7087 93.2138 40.4209C93.5016 40.3713 93.6604 40.4209 93.6901 40.7583C93.7695 41.5721 93.8886 42.3858 93.9878 43.1995C94.0375 43.5866 93.8588 43.7056 93.4917 43.7156C91.626 43.8148 89.7703 43.924 87.6367 44.0431Z" fill="#F5A4C7"/>
<path d="M55.6231 0.67682C56.4071 0.855446 57.2903 1.04399 58.1636 1.25239C58.4315 1.31193 58.4415 1.51041 58.372 1.74857C57.8163 3.80277 57.2705 5.84704 56.7346 7.90123C56.6552 8.21878 56.5262 8.37756 56.1789 8.22871C56.0522 8.19179 55.9228 8.16524 55.7918 8.14932C54.0056 7.73253 54.0254 7.74245 54.3529 5.9165C54.6308 4.34857 54.8689 2.78063 55.117 1.20277C55.1468 0.944758 55.1071 0.637126 55.6231 0.67682Z" fill="#F5A4C7"/>
<path d="M80.968 14.4111C81.0928 14.4956 81.2092 14.5919 81.3153 14.6989C81.8214 15.2447 82.3077 15.8104 82.8237 16.3462C83.1016 16.634 83.052 16.7829 82.7443 17.031C81.1069 18.3409 79.4828 19.6707 77.8718 21.0203C77.5642 21.2783 77.4451 21.2287 77.1871 20.9607C75.7085 19.4126 75.6986 19.4226 77.2268 17.8943C78.2192 16.892 79.2181 15.8964 80.2237 14.9073C80.4109 14.665 80.6724 14.4908 80.968 14.4111Z" fill="#F5A4C7"/>
<path d="M67.988 13.0813C67.2705 12.7551 66.5997 12.3346 65.9933 11.8309C65.9787 11.7261 65.9852 11.6194 66.0125 11.5172C66.0398 11.4149 66.0872 11.3191 66.1521 11.2355C67.0651 9.45919 67.978 7.67294 68.891 5.89661C69.03 5.63859 69.1292 5.35081 69.5361 5.60882C70.2109 6.03554 70.9055 6.43248 71.6002 6.82943C71.9078 6.99813 71.9475 7.17675 71.759 7.46454C70.5979 9.25079 69.4467 11.047 68.2956 12.8332C68.2261 12.9424 68.1765 13.0813 67.988 13.0813Z" fill="#F5A4C7"/>
<path d="M60.2376 9.41947C59.662 9.23092 59.0071 9.0126 58.3521 8.78435C58.104 8.69504 58.1834 8.50649 58.233 8.31794C58.7888 6.26375 59.3445 4.21948 59.8903 2.16529C59.9796 1.81796 60.1284 1.72865 60.4559 1.83781C61.2101 2.09582 61.9643 2.34391 62.7284 2.58208C63.046 2.68132 63.1353 2.86986 63.0162 3.18742C62.2521 5.17215 61.4946 7.15688 60.7437 9.1416C60.7323 9.1952 60.7095 9.24571 60.6768 9.28969C60.6441 9.33366 60.6023 9.37008 60.5543 9.39645C60.5063 9.42282 60.4531 9.43853 60.3985 9.4425C60.3438 9.44647 60.2889 9.43861 60.2376 9.41947Z" fill="#F5A4C7"/>
<path d="M77.2665 10.9675C77.3318 10.9729 77.3956 10.9897 77.4551 11.0171C78.1596 11.6622 78.8741 12.2973 79.5489 12.9721C79.7276 13.1507 79.4993 13.3889 79.3604 13.5278C77.9659 15.0597 76.4919 16.5172 74.9444 17.8942C74.1703 18.5293 73.7833 17.2492 73.178 16.8919C72.8108 16.6736 72.8009 16.4057 73.0986 16.0484C74.4284 14.4606 75.7184 12.8431 77.0283 11.2355C77.1077 11.1462 77.197 11.0469 77.2665 10.9675Z" fill="#F5A4C7"/>
<path d="M50.0063 6.1645C50.1055 4.27901 50.2147 2.40344 50.2941 0.517946C50.3139 0.130925 50.4529 -0.01793 50.83 0.0316882C51.6437 0.130925 52.4574 0.250008 53.2811 0.329397C53.6284 0.369092 53.6483 0.547717 53.6086 0.825579C53.291 2.84008 52.9735 4.85788 52.6559 6.879C52.5765 7.39503 52.3483 7.64312 51.7926 7.46449C51.5624 7.40492 51.3257 7.37491 51.088 7.37518C49.9567 7.31564 49.9567 7.32556 50.0063 6.1645Z" fill="#F5A4C7"/>
<path d="M88.5298 24.7316C88.4901 24.9996 88.2817 25.0393 88.123 25.1286C86.3268 26.0614 84.5207 26.9644 82.7344 27.9072C82.3176 28.1255 82.0894 28.056 81.8314 27.6591C80.7596 26.0118 80.7497 26.0316 82.3573 24.9896C83.6772 24.1362 84.997 23.2927 86.2871 22.4095C86.8031 22.0522 87.1008 22.0919 87.3787 22.6874C87.6566 23.2927 88.0237 23.8484 88.3512 24.424C88.4196 24.5211 88.4794 24.624 88.5298 24.7316Z" fill="#F5A4C7"/>
<path d="M64.2368 11.0471C63.5819 10.7493 62.9269 10.4616 62.2819 10.1341C62.0239 10.0051 62.1826 9.75698 62.262 9.56843C62.9964 7.65317 63.7506 5.74783 64.475 3.83257C64.6139 3.45547 64.7529 3.31654 65.1597 3.52493C65.8246 3.85241 66.5193 4.1402 67.204 4.41806C67.591 4.57684 67.6605 4.79516 67.4719 5.16234C66.549 6.96844 65.646 8.77454 64.7231 10.5806C64.6239 10.7692 64.5544 11.0471 64.2368 11.0471Z" fill="#F5A4C7"/>
<path d="M86.4657 39.905C85.8604 39.4088 86.0787 38.5057 85.7909 37.821C85.6024 37.3744 85.9398 37.3347 86.2176 37.2553C88.2222 36.7195 90.2268 36.2134 92.2214 35.6576C92.6283 35.5485 92.7672 35.7073 92.8367 36.0248C93.0054 36.779 93.1543 37.5332 93.323 38.2775C93.4023 38.6149 93.2733 38.8034 92.9558 38.853C90.8619 39.2004 88.768 39.5378 86.4657 39.905Z" fill="#F5A4C7"/>
<path d="M84.1635 31.857C84.0929 31.8684 84.0205 31.8561 83.9577 31.8219C83.8949 31.7878 83.8451 31.7338 83.8162 31.6684C83.5383 31.0631 83.2605 30.4577 82.9925 29.8524C82.8734 29.5646 83.1215 29.4852 83.3101 29.3959C85.1559 28.4532 87.0116 27.5104 88.8574 26.5577C89.2345 26.3593 89.4429 26.4585 89.6017 26.8356C89.8895 27.5203 90.1872 28.2051 90.4948 28.8898C90.6139 29.1577 90.7131 29.3562 90.3261 29.5051C88.3314 30.2593 86.3566 31.0333 84.3719 31.7974C84.301 31.8119 84.2314 31.8318 84.1635 31.857Z" fill="#F5A4C7"/>
<path d="M92.2115 33.7028C92.2413 34.0402 91.9833 34.0799 91.755 34.1394C89.7306 34.6852 87.6962 35.231 85.6718 35.7967C85.4138 35.8661 85.265 35.8364 85.1955 35.5684C85.1834 35.5174 85.1668 35.4676 85.1459 35.4196C84.3818 33.4745 84.3818 33.4745 86.3169 32.7303C87.6863 32.2043 89.0657 31.7181 90.4153 31.1425C91.1298 30.8348 91.4176 31.0135 91.5863 31.728C91.7352 32.3929 91.9932 33.0379 92.2115 33.7028Z" fill="#F5A4C7"/>
<path d="M75.907 10.0248C75.8246 10.1671 75.7317 10.3031 75.6291 10.4316C74.3887 11.9599 73.1383 13.4782 71.9276 15.0263C71.62 15.4133 71.4017 15.4331 71.0146 15.1851C69.3276 14.1133 69.3276 14.1232 70.4391 12.4263C71.3124 11.0965 72.1956 9.76675 73.049 8.41713C73.2971 8.02019 73.4956 7.98049 73.8528 8.26828C74.4284 8.72477 75.0436 9.15148 75.649 9.58812C75.7681 9.68736 75.9169 9.76675 75.907 10.0248Z" fill="#F5A4C7"/>
<path d="M85.9696 20.5041C85.9895 20.8018 85.7811 20.8515 85.6322 20.9507C83.9452 22.0621 82.2383 23.1537 80.5612 24.2751C80.1246 24.5629 79.8963 24.4736 79.5986 24.0766C78.4872 22.5385 78.4773 22.5484 79.9658 21.3476C81.1467 20.395 82.3276 19.4522 83.4887 18.4797C83.9353 18.1125 84.2528 17.9934 84.6101 18.6087C84.9276 19.1545 85.3543 19.6507 85.7215 20.1667C85.8146 20.2712 85.8976 20.3841 85.9696 20.5041Z" fill="#F5A4C7"/>
<path d="M47.049 0.0218467C48.6864 0.0218467 48.7261 0.0218466 48.6666 1.65925C48.6523 3.37841 48.533 5.09509 48.3093 6.79969C48.1704 7.71267 47.1979 7.07755 46.6223 7.20656C46.3246 7.27603 45.8284 7.41496 45.7986 6.78977C45.749 5.99588 45.6299 5.20199 45.6597 4.41802C45.6994 3.24703 45.5208 2.08596 45.4612 0.924898C45.4215 0.150854 45.7093 -0.0773897 46.4139 0.0218467C46.6223 0.0416939 46.8406 0.0218467 47.049 0.0218467Z" fill="#D9D9D9"/>
<path d="M93.1344 53.4308C90.9214 53.0736 88.9863 52.756 87.0512 52.4484C86.6046 52.3789 86.3565 52.2301 86.555 51.7141C86.6167 51.4845 86.6435 51.247 86.6344 51.0095C86.6542 49.8484 86.7237 49.7393 87.8749 49.8385C89.7306 49.9973 91.5764 50.156 93.442 50.1461C93.8985 50.1461 94.097 50.295 93.9382 50.7713C93.8171 51.3962 93.7507 52.0304 93.7397 52.6667C93.6405 53.3018 93.5214 53.5797 93.1344 53.4308Z" fill="#F173AC"/>
<path d="M85.7313 58.1049C86.7039 58.3828 87.6664 58.6706 88.639 58.9286C89.6611 59.2065 90.6932 59.4744 91.7153 59.7324C92.0428 59.8118 92.3008 59.911 92.1718 60.308C91.9435 61.0126 91.6954 61.7171 91.4573 62.4118C91.3283 62.7889 91.1496 62.9774 90.6932 62.7889C88.7878 62.0446 86.8792 61.3169 84.9672 60.6057C84.6199 60.4767 84.5008 60.3377 84.6596 59.9706C84.8468 59.4998 85.0091 59.0195 85.1458 58.5316C85.156 58.465 85.1792 58.4011 85.2142 58.3435C85.2491 58.286 85.2952 58.2359 85.3496 58.1962C85.4041 58.1565 85.4658 58.128 85.5313 58.1124C85.5969 58.0967 85.6648 58.0942 85.7313 58.1049Z" fill="#F173AC"/>
<path d="M86.565 53.9966C88.0734 54.2347 89.4825 54.453 90.8917 54.6912C91.3383 54.7607 91.7749 54.8698 92.2215 54.9393C93.4222 55.1179 93.4222 55.1179 93.1543 56.2988C93.0154 56.9141 93.0352 57.7278 92.6383 58.095C92.1818 58.5317 91.4673 57.9462 90.8719 57.8072C89.294 57.4401 87.7459 56.9637 86.1879 56.5569C85.9299 56.4874 85.8009 56.3683 85.8406 56.1202C85.9497 55.495 86.0688 54.8698 86.2077 54.2546C86.229 54.1773 86.276 54.1096 86.341 54.0627C86.4059 54.0158 86.485 53.9925 86.565 53.9966Z" fill="#F173AC"/>
<path d="M82.3574 65.8652C82.4566 65.9148 82.6253 65.9842 82.7841 66.0736C84.4513 66.9071 86.0986 67.7606 87.7757 68.5644C88.4207 68.872 88.5199 69.2293 88.1528 69.8148C87.8167 70.3236 87.5086 70.8503 87.2299 71.3926C87.0016 71.8491 86.7238 71.7796 86.3963 71.5713C84.739 70.4797 83.0818 69.3781 81.4146 68.2965C81.0375 68.0583 80.9482 67.83 81.1765 67.4529C81.4345 67.0163 81.6726 66.5797 81.9207 66.1331C82.01 65.9842 82.0795 65.8354 82.3574 65.8652Z" fill="#F173AC"/>
<path d="M84.1932 62.0546C84.9673 62.3424 85.7711 62.6401 86.5551 62.9477C87.7459 63.4142 88.9169 63.9103 90.1177 64.337C90.5543 64.4958 90.6635 64.6546 90.4551 65.0813C90.1276 65.7264 89.8299 66.3714 89.5619 67.0462C89.3932 67.4729 89.1848 67.4828 88.8375 67.3042C87.0612 66.3912 85.2848 65.4683 83.4887 64.5951C83.0024 64.3569 82.9429 64.0989 83.1513 63.6821C83.3696 63.2256 83.5978 62.7691 83.8261 62.3226C83.8955 62.1836 83.9551 62.005 84.1932 62.0546Z" fill="#F173AC"/>
<path d="M45.4811 92.1231C45.8086 90.7139 45.4811 88.9178 45.7986 87.1613C45.8086 87.0819 45.7788 86.9727 45.8185 86.9231C46.4238 86.3376 47.1582 86.7643 47.833 86.6552C48.1902 86.5956 48.3192 86.7742 48.3788 87.1414C48.5039 87.7918 48.5506 88.4548 48.5177 89.1162C48.4284 90.4758 48.7162 91.8155 48.6963 93.1651C48.6864 93.6116 48.5872 93.83 48.1108 93.9193C47.773 93.9749 47.4311 94.0015 47.0887 93.9987C45.4811 94.0086 45.4811 94.0086 45.4811 92.1231Z" fill="#D9D9D9"/>
<path d="M49.9766 87.3597C49.8277 86.8239 50.1552 86.6552 50.6315 86.546C51.1575 86.4269 51.6834 86.5361 52.2094 86.3773C52.5666 86.2681 52.5269 86.6651 52.5567 86.8636C52.8147 88.3422 53.0827 89.8307 53.3109 91.3193C53.4201 92.0139 53.7674 92.9567 53.4498 93.3635C53.1323 93.7903 52.1399 93.7009 51.4254 93.691C51.2408 93.7175 51.0584 93.7573 50.8796 93.8101C50.4926 93.8796 50.2743 93.7803 50.2743 93.3238C50.2842 91.349 50.1155 89.3742 49.9766 87.3597Z" fill="#D9D9D9"/>
<path d="M85.9695 73.3872C85.7314 73.7048 85.4833 74.0422 85.2252 74.3697C84.1237 75.7887 84.1039 75.8086 82.7146 74.7368C81.5039 73.804 80.3329 72.8017 79.1321 71.8491C78.626 71.4521 78.626 71.1048 79.0329 70.6086C80.1543 69.2292 80.1146 69.2391 81.6031 70.291C82.9031 71.204 84.2627 72.0376 85.5924 72.901C85.7512 73.02 85.9894 73.0697 85.9695 73.3872Z" fill="#D9D9D9"/>
<path d="M56.1391 85.6728C56.5063 85.6132 56.675 85.8018 56.7643 86.1392C57.3002 88.1338 57.836 90.1384 58.3918 92.1231C58.5108 92.5399 58.2231 92.5796 57.975 92.6392C57.2009 92.8277 56.4269 92.9865 55.6528 93.1552C55.1765 93.2544 55.1864 92.8376 55.1467 92.6094C54.8887 91.23 54.6803 89.8407 54.4521 88.4613C54.3628 87.8857 54.2933 87.3102 54.1742 86.7346C54.0948 86.3079 54.0948 86.0201 54.6605 85.9804C55.1605 85.9161 55.6549 85.8132 56.1391 85.6728Z" fill="#D9D9D9"/>
<path d="M67.8291 80.8996C67.9406 80.8892 68.0525 80.9132 68.1501 80.9681C68.2476 81.0231 68.326 81.1065 68.3749 81.2072C69.4764 82.8942 70.5879 84.5713 71.6993 86.2583C71.9176 86.5858 71.9673 86.8537 71.5207 87.0919C70.8635 87.4399 70.2243 87.8208 69.6054 88.2331C69.268 88.4515 69.0894 88.3919 68.9207 88.0545C67.9879 86.1789 67.0551 84.3034 66.1024 82.4278C65.9337 82.0904 65.9932 81.9019 66.3306 81.7332C66.8764 81.4652 67.3925 81.1477 67.8291 80.8996Z" fill="#D9D9D9"/>
<path d="M58.2826 85.5437C58.2651 85.4259 58.2919 85.3059 58.3579 85.2069C58.424 85.1079 58.5244 85.0369 58.6398 85.0078C60.436 84.1742 60.5055 84.194 61.21 86.0498C61.7658 87.5185 62.3215 88.9772 62.907 90.436C63.1154 90.952 62.9864 91.1902 62.4406 91.3291C61.8043 91.5182 61.1783 91.7401 60.565 91.994C60.2276 92.123 59.9994 92.0734 59.9001 91.6963C59.3742 89.7513 58.8383 87.8062 58.3123 85.8612C58.297 85.7559 58.2871 85.6499 58.2826 85.5437Z" fill="#D9D9D9"/>
<path d="M71.362 78.5178C71.4835 78.5419 71.5986 78.5915 71.6995 78.6634C71.8004 78.7352 71.885 78.8277 71.9475 78.9346C73.178 80.4232 74.4086 81.9316 75.6292 83.43C75.8673 83.7277 75.9864 84.0254 75.5895 84.3033C75.0238 84.7003 74.4582 85.0972 73.9124 85.5239C73.5353 85.8117 73.2971 85.8117 73.0192 85.385C71.9475 83.7079 70.846 82.0506 69.7444 80.3934C69.4864 79.9964 69.5261 79.7682 69.9528 79.5102C70.4049 79.1551 70.8753 78.8238 71.362 78.5178Z" fill="#D9D9D9"/>
<path d="M64.2864 82.8643C64.5047 82.8345 64.5543 83.0032 64.6238 83.1422L67.4818 88.8582C67.6207 89.1261 67.5612 89.275 67.2535 89.394C66.539 89.6818 65.8345 90.0093 65.1497 90.3467C64.7726 90.5253 64.6436 90.3864 64.5146 90.0391C63.7902 88.104 63.036 86.1689 62.2917 84.2338C62.2322 84.0948 62.0833 83.9063 62.262 83.807C62.899 83.4174 63.5782 83.1012 64.2864 82.8643Z" fill="#D9D9D9"/>
<path d="M77.3459 82.7849C77.0048 82.6054 76.7147 82.3425 76.5024 82.0208C75.3909 80.6712 74.3092 79.3017 73.2077 77.9521C72.8902 77.5651 72.8207 77.2873 73.2375 76.8804C74.5474 75.5903 74.5276 75.5804 75.7879 76.8407C76.9192 77.972 78.0306 79.1132 79.1817 80.2147C79.6283 80.6414 79.6879 80.9689 79.1817 81.3758C78.7054 81.7628 78.2688 82.1796 77.8123 82.5765C77.755 82.6438 77.6833 82.6974 77.6027 82.7335C77.522 82.7696 77.4342 82.7871 77.3459 82.7849Z" fill="#D9D9D9"/>
<path d="M82.9428 77.3568C82.8436 77.4759 82.7444 77.6347 82.6153 77.7637C82.236 78.0961 81.8903 78.4651 81.5833 78.8652C81.1665 79.5301 80.839 79.54 80.3131 78.9843C79.023 77.6446 77.7031 76.3347 76.3635 75.0347C75.9764 74.6576 75.8673 74.4293 76.3039 73.953C77.4451 72.7026 77.4352 72.653 78.7947 73.6851C80.0551 74.6477 81.2757 75.6698 82.5062 76.6721C82.6257 76.7461 82.7271 76.8461 82.8027 76.9646C82.8783 77.0832 82.9262 77.2172 82.9428 77.3568Z" fill="#D9D9D9"/>
<path d="M4.12933 48.3797C3.13697 48.2309 1.96598 48.608 0.765222 48.5583C0.229345 48.5286 -0.0187457 48.3698 0.00110162 47.8041C0.0308725 47.169 0.0209489 46.524 0.00110162 45.8889C-0.00882202 45.4721 0.149956 45.3034 0.566749 45.3332C2.66064 45.4721 4.75452 45.4225 6.84841 45.6408C7.27513 45.6805 7.40414 45.8591 7.37436 46.2362C7.36444 46.4248 7.37436 46.6133 7.37436 46.7919C7.37436 48.3301 7.37436 48.34 5.78658 48.3698C5.30032 48.3896 4.82399 48.3797 4.12933 48.3797Z" fill="#D9D9D9"/>
<path d="M3.87129 49.9775C4.8269 49.9959 5.78248 49.9394 6.7293 49.8088C7.28502 49.8088 7.50334 50.047 7.52319 50.563C7.48536 51.0421 7.52218 51.5242 7.63235 51.992C7.75143 52.3394 7.46365 52.3691 7.21555 52.4088C6.04457 52.6073 4.87358 52.8852 3.69266 53.0042C2.78961 53.0936 1.93618 53.3913 1.01328 53.4012C0.556794 53.4012 0.556794 53.292 0.43771 52.9447C0.189619 52.1607 0.457557 51.347 0.189619 50.573C0.0804589 50.2752 0.318626 50.1363 0.606412 50.1562C1.70794 50.2256 2.77969 49.8386 3.87129 49.9775Z" fill="#D9D9D9"/>
<path d="M44.201 87.4492C44.0422 89.4736 43.8834 91.4087 43.8735 93.3537C43.8735 93.6018 43.8437 93.9293 43.5162 93.8301C42.6628 93.582 41.7597 93.8202 40.9063 93.5621C40.5491 93.453 40.5094 93.3041 40.559 92.9965C40.8765 91.0118 41.1742 89.0171 41.5017 87.0324C41.5712 86.5858 41.7101 86.2087 42.3353 86.4568C42.65 86.509 42.9696 86.5256 43.288 86.5064C43.8834 86.5759 44.4094 86.7446 44.201 87.4492Z" fill="#D9D9D9"/>
<path d="M7.41402 71.7202C7.09647 71.7599 7.04685 71.5515 6.94761 71.3927C6.55067 70.7378 6.16365 70.0729 5.75678 69.4179C5.5583 69.1103 5.62777 68.9416 5.92548 68.7928C7.83082 67.8401 9.72623 66.8973 11.6316 65.9347C11.9491 65.776 12.1278 65.8653 12.2667 66.163C12.38 66.403 12.5093 66.635 12.6537 66.8576C13.3285 67.9195 13.3682 67.979 12.3163 68.6042C10.8377 69.5073 9.40868 70.45 7.99952 71.4424C7.81165 71.5496 7.61593 71.6425 7.41402 71.7202Z" fill="#D9D9D9"/>
<path d="M24.8598 88.3918C24.2247 88.0147 23.6095 87.6574 22.9942 87.3002C22.111 86.7742 22.0911 86.9032 22.756 85.9009C23.7484 84.4025 24.7011 82.8841 25.6438 81.3559C25.6777 81.2634 25.7323 81.1799 25.8035 81.1118C25.8747 81.0437 25.9605 80.9928 26.0545 80.9631C26.1484 80.9334 26.2479 80.9256 26.3453 80.9404C26.4427 80.9551 26.5354 80.9921 26.6163 81.0483C28.343 81.8521 28.3926 81.9513 27.5392 83.6086C26.8049 85.0475 26.0507 86.4765 25.3064 87.9154C25.1972 88.1139 25.1575 88.3818 24.8598 88.3918Z" fill="#D9D9D9"/>
<path d="M1.08275 40.4608C3.25603 40.8081 5.16136 41.1157 7.0667 41.4234C7.53311 41.4928 7.83082 41.6417 7.59266 42.2073C7.53426 42.4103 7.51077 42.6217 7.52319 42.8325C7.49342 44.0631 7.39418 44.1722 6.17358 44.0531C4.3774 43.8561 2.57213 43.7534 0.765193 43.7455C0.278935 43.7455 0.0506912 43.6165 0.229317 43.0905C0.342168 42.4914 0.405233 41.884 0.417866 41.2745C0.536949 40.6394 0.546873 40.1829 1.08275 40.4608Z" fill="#D9D9D9"/>
<path d="M15.5018 71.2538C15.4713 71.3702 15.4179 71.4793 15.3446 71.5748C15.2713 71.6702 15.1797 71.75 15.0751 71.8095C13.5865 73.0401 12.0914 74.264 10.5896 75.4813C10.2423 75.7591 9.93462 75.7889 9.64683 75.392C9.21019 74.7866 8.77355 74.1912 8.32699 73.5958C8.11859 73.3179 8.14837 73.1591 8.44607 72.9607C10.0835 71.8889 11.7209 70.8172 13.3484 69.7156C13.9636 69.2988 14.3903 69.3485 14.7178 70.053C14.9262 70.4897 15.3628 70.7775 15.5018 71.2538Z" fill="#D9D9D9"/>
<path d="M42.4643 7.3952C41.9384 7.59368 41.5712 7.44482 41.5018 6.73032C41.3132 4.75552 40.817 2.83033 40.6384 0.855527C40.5987 0.438734 40.6682 0.369268 41.0453 0.339497C41.7796 0.279956 42.514 0.170796 43.2384 0.051712C43.6651 -0.0177535 43.8735 0.0914065 43.8834 0.577665C43.9132 2.08606 43.9827 3.59445 44.0422 5.11277C44.0521 5.30132 44.0323 5.48987 44.0521 5.66849C44.2704 7.33566 44.2704 7.33566 42.4643 7.3952Z" fill="#D9D9D9"/>
<path d="M15.4919 22.5287C15.1664 23.2472 14.7162 23.9024 14.1621 24.4638C13.6696 24.3557 13.2143 24.1195 12.8423 23.7791C11.4133 22.876 10.024 21.8936 8.59496 20.9905C8.1484 20.7127 8.12855 20.5142 8.43618 20.1371C8.85297 19.6211 9.22015 19.0753 9.60717 18.5394C9.64868 18.4486 9.71241 18.3697 9.79247 18.31C9.87254 18.2503 9.96636 18.2117 10.0653 18.1979C10.1642 18.184 10.265 18.1953 10.3583 18.2307C10.4517 18.2662 10.5347 18.3245 10.5995 18.4005C12.0881 19.631 13.5865 20.8417 15.0751 22.0722C15.2278 22.2112 15.3673 22.364 15.4919 22.5287Z" fill="#D9D9D9"/>
<path d="M8.22774 35.6972C7.20561 35.4194 6.00485 35.0919 4.80409 34.7644C4.0102 34.5461 3.21631 34.3278 2.42242 34.1293C2.08501 34.0499 1.85677 33.9308 1.98578 33.5438C2.23387 32.8194 2.48196 32.085 2.73997 31.3606C2.85906 31.0331 3.03768 30.914 3.40486 31.0629C5.33004 31.8171 7.27507 32.5415 9.21018 33.2758C9.30942 33.3155 9.47812 33.3453 9.48805 33.3949C9.59721 34.1094 9.16057 34.6949 9.01171 35.3499C8.93232 35.6972 8.714 35.7667 8.22774 35.6972Z" fill="#D9D9D9"/>
<path d="M9.57739 60.2188C9.60716 60.5065 9.38884 60.5264 9.22014 60.5859C7.28503 61.3203 5.34992 62.0447 3.41481 62.7989C3.05756 62.9378 2.86901 62.8584 2.74001 62.521C2.48199 61.7668 2.20413 61.0226 1.95604 60.2684C1.86673 59.9806 2.04535 59.8317 2.32321 59.7623C4.29802 59.2363 6.2629 58.6905 8.2377 58.1745C8.32339 58.1387 8.41623 58.1234 8.50886 58.1298C8.60149 58.1362 8.69135 58.1641 8.77131 58.2113C8.85126 58.2586 8.91911 58.3237 8.96946 58.4018C9.01981 58.4798 9.05128 58.5684 9.06136 58.6607C9.21022 59.1966 9.41861 59.7226 9.57739 60.2188Z" fill="#D9D9D9"/>
<path d="M26.1896 12.9722C25.9713 12.9623 25.882 12.8035 25.7728 12.6447C24.6812 10.9775 23.5863 9.31697 22.4881 7.66303C22.2599 7.3157 22.1507 7.02792 22.6568 6.7699C23.3153 6.42413 23.9546 6.04317 24.5721 5.62868C24.9293 5.39052 25.0881 5.5096 25.2469 5.83708C26.1797 7.71265 27.1225 9.58822 28.0553 11.4638C28.1247 11.6027 28.2141 11.7516 28.1247 11.9103C27.5369 12.3598 26.8845 12.7178 26.1896 12.9722Z" fill="#D9D9D9"/>
<path d="M24.6118 13.8555C24.6515 14.0639 24.5125 14.1433 24.3935 14.2524C22.895 15.5624 22.8751 15.5921 21.5751 14.1234C20.5232 12.9326 19.5507 11.6723 18.5385 10.4517C18.463 10.386 18.4054 10.3024 18.3708 10.2085C18.3362 10.1147 18.3258 10.0136 18.3407 9.91468C18.3555 9.81575 18.3951 9.72216 18.4557 9.64257C18.5163 9.56298 18.596 9.49996 18.6874 9.45933C19.2729 9.04254 19.8484 8.62575 20.424 8.19903C20.6522 8.03033 20.8309 7.97079 21.0194 8.25857C22.1706 10.0349 23.3316 11.8112 24.4828 13.5876C24.5324 13.667 24.5721 13.7761 24.6118 13.8555Z" fill="#D9D9D9"/>
<path d="M8.33698 37.8904C8.2179 38.4362 8.10874 38.982 7.98966 39.5179C7.91027 39.8553 7.6721 39.9148 7.37439 39.8652C5.41944 39.5477 3.45456 39.24 1.4996 38.9126C1.05303 38.8431 0.68586 38.724 0.924028 38.0889C1.11029 37.5644 1.22381 37.0168 1.26143 36.4614C1.3309 35.6973 1.65838 35.5782 2.34311 35.7866C4.16906 36.3225 6.01485 36.8286 7.86065 37.3049C8.2179 37.3843 8.39653 37.5133 8.33698 37.8904Z" fill="#D9D9D9"/>
<path d="M8.32706 55.9019C8.33699 56.2889 8.30722 56.4675 7.98966 56.5568C5.95532 57.0828 3.93089 57.6186 1.91639 58.1843C1.52937 58.2935 1.44006 58.1347 1.38052 57.8469C1.20189 57.0728 1.03319 56.2988 0.864489 55.5248C0.745405 54.9988 1.22174 55.0385 1.46983 54.9889C2.84922 54.7408 4.23853 54.5324 5.62784 54.3141C6.17364 54.2248 6.72936 54.1553 7.27516 54.0461C7.66218 53.9568 7.94004 54.0064 8.01943 54.4729C8.10874 54.9988 8.23775 55.5148 8.32706 55.9019Z" fill="#D9D9D9"/>
<path d="M37.9887 8.2089C37.9232 8.22139 37.8557 8.22001 37.7907 8.20486C37.7257 8.1897 37.6646 8.16111 37.6113 8.12091C37.558 8.08072 37.5138 8.02981 37.4813 7.97148C37.4489 7.91314 37.4291 7.84866 37.4231 7.78219C36.9071 5.77761 36.391 3.78296 35.8452 1.78831C35.746 1.41121 35.8651 1.31197 36.1727 1.24251C36.9467 1.07381 37.7208 0.905105 38.4948 0.72648C39.0307 0.597472 38.991 1.06388 39.0406 1.31197C39.249 2.32419 39.388 3.34632 39.5567 4.35853C39.7055 5.30128 39.8544 6.2341 40.0032 7.17684C40.0628 7.56387 40.0727 7.84173 39.5467 7.89135C39.0202 7.95797 38.4994 8.06412 37.9887 8.2089Z" fill="#D9D9D9"/>
<path d="M37.9591 85.6727C38.5545 85.7918 39.1598 85.9009 39.7552 86.02C40.0926 86.0895 40.0529 86.3574 40.0133 86.5956C39.6957 88.5803 39.3748 90.565 39.0507 92.5498C38.9713 93.0261 38.8125 93.304 38.1972 93.0956C37.5854 92.9243 36.9619 92.7982 36.3316 92.7185C35.9247 92.6391 35.7064 92.5002 35.8453 91.9742C36.3812 90.0589 36.8675 88.1338 37.3736 86.2185C37.4629 85.9109 37.5522 85.6132 37.9591 85.6727Z" fill="#D9D9D9"/>
<path d="M13.1202 26.0416C12.8436 26.7292 12.4872 27.3821 12.0583 27.9866C11.8599 28.0859 11.7011 27.9668 11.5324 27.8874C9.75607 26.9943 7.97643 26.1044 6.19348 25.2179C6.0973 25.1886 6.00999 25.1356 5.93951 25.0639C5.86904 24.9922 5.81765 24.9039 5.79002 24.8072C5.7624 24.7106 5.75942 24.6085 5.78135 24.5103C5.80329 24.4122 5.84945 24.3211 5.91562 24.2454C6.2431 23.6698 6.6202 23.1141 6.91791 22.5187C7.13623 22.0821 7.39424 22.0821 7.74157 22.3103C9.39881 23.4019 11.066 24.5034 12.7232 25.595C12.9019 25.7042 13.1103 25.7836 13.1202 26.0416Z" fill="#D9D9D9"/>
<path d="M35.8453 85.792C35.7957 85.9706 35.6667 86.3774 35.5575 86.7843C35.1209 88.4217 34.6875 90.0624 34.2575 91.7064C34.1682 92.0339 33.9896 92.1431 33.6621 92.0339C32.9377 91.7759 32.2132 91.5179 31.4888 91.2698C31.1216 91.1507 31.0819 90.9423 31.2109 90.6049C31.9552 88.6698 32.6929 86.7347 33.4239 84.7996C33.4636 84.7004 33.5033 84.5317 33.5529 84.5217C34.2291 84.575 34.8908 84.7463 35.5079 85.0278C35.8155 85.0874 35.8949 85.2759 35.8453 85.792Z" fill="#D9D9D9"/>
<path d="M35.885 8.37752C35.9048 8.56607 35.8453 8.77447 35.5079 8.8737C34.9969 9.01701 34.4935 9.18592 33.9995 9.37981C33.7315 9.47905 33.5728 9.46912 33.4537 9.15156C32.7193 7.15691 31.9684 5.16888 31.201 3.18746C31.0819 2.87983 31.1812 2.7409 31.4491 2.64166C32.1934 2.37372 32.9476 2.10578 33.6919 1.84777C33.7456 1.81936 33.8053 1.80418 33.866 1.80349C33.9268 1.8028 33.9868 1.81661 34.0412 1.84378C34.0955 1.87096 34.1426 1.9107 34.1785 1.95972C34.2144 2.00874 34.2381 2.06562 34.2476 2.12563C34.7934 4.12028 35.3326 6.11493 35.8651 8.10958C35.8751 8.1592 35.8651 8.21874 35.885 8.37752Z" fill="#D9D9D9"/>
<path d="M24.6216 79.9965C24.5345 80.204 24.4351 80.4062 24.3239 80.6018C23.2819 82.1697 22.2102 83.7178 21.198 85.3056C20.8804 85.8018 20.6422 85.8415 20.2056 85.4942C19.6896 85.0774 19.1438 84.7003 18.598 84.3232C18.201 84.0453 18.2903 83.7476 18.5384 83.4499C19.759 81.9514 20.9995 80.453 22.2102 78.9446C22.5674 78.498 22.9048 78.4385 23.3415 78.8255C23.659 79.1033 24.0063 79.3514 24.3537 79.5995C24.4628 79.6888 24.6117 79.7583 24.6216 79.9965Z" fill="#D9D9D9"/>
<path d="M21.2873 16.5051C21.0073 16.9002 20.6771 17.2572 20.3048 17.567C19.7491 18.1425 19.3323 18.083 18.7766 17.4776C17.5659 16.1677 16.2957 14.9173 15.0056 13.6967C14.4598 13.1807 14.5392 12.8135 15.0751 12.4265C15.5715 12.0705 16.0274 11.6612 16.4346 11.2059C16.7224 10.8883 16.9606 10.8983 17.1987 11.2456C18.3598 12.9227 19.7491 14.4212 21.0193 16.0189C21.1261 16.1707 21.216 16.3338 21.2873 16.5051Z" fill="#D9D9D9"/>
<path d="M31.9949 83.9263C31.8857 84.2041 31.7964 84.4522 31.6972 84.7003C31.0223 86.4568 30.3178 88.2033 29.6727 89.9698C29.4842 90.4957 29.2758 90.4858 28.859 90.2774C28.2995 89.971 27.7152 89.7121 27.1124 89.5033C26.5071 89.3049 26.5666 89.027 26.8048 88.5705C27.688 86.8438 28.5712 85.1171 29.4048 83.3606C29.6231 82.9041 29.8613 82.7751 30.3078 82.9934C30.7643 83.2118 31.2208 83.4202 31.6872 83.6186C31.7602 83.64 31.8266 83.6793 31.8804 83.7331C31.9341 83.7869 31.9735 83.8533 31.9949 83.9263Z" fill="#D9D9D9"/>
<path d="M32.0246 9.97518C31.5115 10.3387 30.9504 10.6292 30.3575 10.8385C30.159 10.9378 29.8414 11.2355 29.6033 10.8286C29.5338 10.7194 29.4743 10.5904 29.4147 10.4714C28.5414 8.74465 27.6979 6.99809 26.7949 5.2813C26.5269 4.76527 26.6262 4.55687 27.1521 4.36832C27.7724 4.13178 28.3787 3.86009 28.9681 3.55458C29.2857 3.40573 29.4842 3.38588 29.633 3.78283C30.3773 5.76755 31.1514 7.74236 31.9055 9.71716C31.9501 9.80086 31.9898 9.887 32.0246 9.97518Z" fill="#D9D9D9"/>
<path d="M11.1552 64.1284C11.2049 64.446 10.8972 64.4658 10.7087 64.5651C8.90258 65.488 7.09648 66.401 5.29037 67.3239C4.98274 67.4826 4.76442 67.4826 4.61557 67.0857C4.32778 66.3712 4.0003 65.6666 3.6629 64.972C3.50412 64.6445 3.61328 64.4956 3.93084 64.3765C5.86594 63.6323 7.80105 62.8781 9.73616 62.1338C9.88502 62.0743 10.1033 61.8956 10.2323 62.1338C10.6053 62.7665 10.9144 63.4346 11.1552 64.1284Z" fill="#D9D9D9"/>
<path d="M11.1553 29.7531C10.9253 30.4497 10.6121 31.1161 10.2225 31.7378C10.0736 31.9859 9.81561 31.7676 9.64691 31.708C7.76142 30.9836 5.88585 30.2294 4.00036 29.5149C3.59349 29.3561 3.5141 29.1973 3.70265 28.8103C4.02021 28.1653 4.32784 27.5103 4.59578 26.8454C4.75456 26.4485 4.93318 26.3493 5.31028 26.5477C7.10646 27.4706 8.92248 28.3836 10.7187 29.3164C10.8973 29.4157 11.2049 29.4355 11.1553 29.7531Z" fill="#D9D9D9"/>
<path d="M13.2095 14.4409C13.4026 14.4772 13.5756 14.5831 13.6957 14.7386C15.1148 16.1478 16.524 17.5669 17.9431 18.976C18.2209 19.244 18.2805 19.4226 17.9927 19.76C16.7522 21.2188 16.7522 21.2485 15.2538 20.0974C13.9339 19.0753 12.6438 18.0035 11.3339 16.9615C11.0958 16.773 11.0362 16.6142 11.2645 16.376C11.8599 15.7608 12.4354 15.1455 13.0309 14.5302C13.0873 14.4946 13.1471 14.4647 13.2095 14.4409Z" fill="#D9D9D9"/>
<path d="M16.7918 82.775C16.6529 82.6856 16.504 82.5864 16.3453 82.4872C14.3407 81.1276 14.3109 80.8994 15.9582 79.2521C17.0102 78.2002 18.072 77.1582 19.114 76.0864C19.4216 75.7689 19.6399 75.7292 19.9575 76.0765C20.255 76.3772 20.577 76.6527 20.9201 76.9002C21.3369 77.2177 21.2972 77.5353 20.9895 77.9025C19.7987 79.3513 18.6178 80.82 17.417 82.2689C17.2736 82.5049 17.0526 82.6838 16.7918 82.775Z" fill="#D9D9D9"/>
<path d="M13.2492 79.4705C13.1538 79.4174 13.0669 79.3505 12.9912 79.272C12.5744 78.6865 12.0087 78.23 11.5522 77.6743C11.1454 77.188 11.3141 76.9499 11.6812 76.6521C13.1797 75.4315 14.6682 74.201 16.1667 72.9804C16.4644 72.7323 16.7621 72.6529 17.0499 73.0201C17.3774 73.4369 17.7346 73.8338 18.0919 74.2209C18.2804 74.4293 18.2209 74.598 18.0423 74.7667C16.5537 76.2552 15.0652 77.7338 13.5766 79.2224C13.4775 79.3175 13.3676 79.4008 13.2492 79.4705Z" fill="#D9D9D9"/>
<path d="M56.7048 35.3104L53.6186 34.6852C54.1247 31.3211 55.8249 29.6374 58.7193 29.6341C59.3726 29.5887 60.0282 29.6809 60.6436 29.9049C61.2589 30.1288 61.8205 30.4794 62.2918 30.9341C63.1008 31.7947 63.5392 32.9387 63.5124 34.1195C63.4801 35.4998 63.0033 36.8327 62.1529 37.9203C60.7076 39.6375 58.9872 41.103 57.0621 42.2569H63.7208L63.4727 45.2737H53.6086V42.2569C55.5378 40.7338 57.3067 39.0181 58.888 37.1363C59.5243 36.3221 59.8918 35.3304 59.9399 34.2982C59.9399 33.018 59.4537 32.3829 58.4911 32.3829C58.2287 32.3702 57.9684 32.4349 57.7426 32.569C57.5167 32.7031 57.3353 32.9007 57.2208 33.1371C56.9355 33.8299 56.7614 34.5633 56.7048 35.3104Z" fill="#007CC3"/>
<path d="M75.8574 37.285C75.8574 40.0736 75.4605 42.1178 74.6567 43.4377C74.242 44.0967 73.6545 44.6293 72.958 44.9775C72.2616 45.3257 71.483 45.4762 70.707 45.4125C69.9159 45.4824 69.1211 45.3265 68.415 44.9629C67.7089 44.5993 67.1204 44.0429 66.7177 43.3583C65.8553 41.5883 65.4558 39.6285 65.5567 37.6621C65.5567 34.8637 65.9569 32.8062 66.7574 31.4896C67.1737 30.8322 67.7615 30.3008 68.4575 29.9528C69.1535 29.6048 69.9313 29.4533 70.707 29.5148C71.4982 29.4449 72.2929 29.6008 72.9991 29.9644C73.7052 30.328 74.2937 30.8844 74.6963 31.569C75.5597 33.3458 75.9591 35.3122 75.8574 37.285ZM72.2948 37.4637C72.3648 35.9579 72.2582 34.4492 71.9773 32.9683C71.9112 32.699 71.7609 32.4578 71.5483 32.2798C71.3357 32.1018 71.0718 31.9962 70.7951 31.9785C70.5184 31.9608 70.2432 32.0319 70.0096 32.1813C69.7761 32.3307 69.5962 32.5508 69.4964 32.8095C69.1512 34.3319 69.0276 35.8961 69.1292 37.4537C69.0348 39.0043 69.155 40.5605 69.4864 42.0782C69.5765 42.326 69.7392 42.541 69.9534 42.6949C70.1675 42.8489 70.4231 42.9347 70.6867 42.9411C70.9504 42.9475 71.2098 42.8743 71.4312 42.731C71.6526 42.5877 71.8256 42.3809 71.9277 42.1377C72.2706 40.6049 72.3942 39.0312 72.2948 37.4637Z" fill="#007CC3"/>
<path d="M49.4407 29.9614H51.1178L43.804 44.9759H42.127L49.4407 29.9614Z" fill="#007CC3"/>
<path d="M44.1018 45.4721H41.3132L49.1231 29.4553H51.9117L44.1018 45.4721ZM42.9209 44.4698H43.4766L50.314 30.4576H49.7582L42.9209 44.4698Z" fill="#007CC3"/>
<path d="M50.0758 29.9614H51.7529L44.4392 44.9759H42.7621L50.0758 29.9614Z" fill="#007CC3"/>
<path d="M44.7468 45.4721H41.9583L49.7682 29.4553H52.5567L44.7468 45.4721ZM43.556 44.4698H44.1117L50.9391 30.4576H50.3834L43.556 44.4698Z" fill="#007CC3"/>
<path d="M31.8163 53.7683H34.8331V55.3263C35.0506 54.7769 35.4344 54.3093 35.9309 53.989C36.4274 53.6687 37.0116 53.5117 37.6018 53.54C38.1619 53.4714 38.7272 53.6175 39.1838 53.9489C39.6405 54.2803 39.9546 54.7725 40.0629 55.3263C40.2736 54.7723 40.656 54.3001 41.1541 53.9788C41.6522 53.6574 42.2399 53.5037 42.8316 53.54C43.4528 53.5122 44.07 53.6528 44.6178 53.9469C45.0443 54.2 45.3703 54.5926 45.5407 55.0583C45.7566 55.9274 45.8436 56.8235 45.7987 57.7179V65.1705H42.6132V58.0454C42.6513 57.4867 42.5908 56.9258 42.4346 56.3881C42.3551 56.2502 42.2359 56.1395 42.0925 56.0705C41.9491 56.0014 41.7882 55.9772 41.6308 56.0011C41.4363 55.9746 41.2383 56.0091 41.0642 56.0997C40.89 56.1903 40.7482 56.3327 40.6583 56.5072C40.4649 57.1636 40.3877 57.8487 40.43 58.5316V65.1705H37.2445V57.9461C37.2832 57.4137 37.2227 56.8786 37.0659 56.3683C36.9468 56.1301 36.6888 56.011 36.272 56.011C36.0686 55.986 35.8623 56.0228 35.68 56.1166C35.4977 56.2104 35.3479 56.3569 35.2499 56.537C35.035 57.1822 34.9473 57.863 34.9919 58.5415V65.1805H31.8064V53.7683H31.8163Z" fill="#007CC3"/>
<path d="M51.1574 52.8355H47.9323V49.6897H51.1574V52.8355ZM47.9521 53.7683H51.1376V65.1706H47.9521V53.7683Z" fill="#007CC3"/>
<path d="M53.4696 53.7684H56.4864V55.3264C56.7126 54.7646 57.1112 54.2891 57.6247 53.9681C58.1383 53.6472 58.7404 53.4973 59.3444 53.5401C59.9972 53.5143 60.642 53.691 61.1902 54.0462C61.6468 54.345 61.9786 54.8002 62.1231 55.3264C62.2833 56.1063 62.3499 56.9025 62.3215 57.6981V65.1706H59.136V57.6981C59.136 56.934 59.0368 56.4577 58.8383 56.2791C58.6178 56.0914 58.3336 55.9955 58.0444 56.0111C57.8253 55.9808 57.602 56.0143 57.4014 56.1076C57.2007 56.2008 57.0312 56.35 56.9131 56.5371C56.69 57.1633 56.5988 57.8289 56.6452 58.492V65.1806H53.4597V53.7684H53.4696Z" fill="#007CC3"/>
<path d="M23.1013 29.5149H25.7054V42.6379H28.2755V45.1738H19.6785V42.6379H22.294V33.4722C21.5379 34.2631 20.6536 34.9205 19.6785 35.4168V32.3806C21.0187 31.6923 22.1881 30.7132 23.1013 29.5149Z" fill="#007CC3"/>
<path d="M31.1412 29.6514H39.4426L39.1128 32.6876H33.6392L33.4412 36.1901C33.7363 35.7647 34.1333 35.42 34.596 35.1876C35.0587 34.9551 35.5723 34.8424 36.0898 34.8596C36.6324 34.8575 37.17 34.9641 37.6708 35.1731C38.1716 35.3821 38.6255 35.6892 39.0057 36.0764C39.4646 36.6031 39.8123 37.2171 40.0281 37.8815C40.2438 38.5459 40.3232 39.247 40.2613 39.9428C40.3161 40.687 40.216 41.4345 39.9675 42.1381C39.7189 42.8418 39.3272 43.4862 38.8171 44.0309C38.3118 44.498 37.7191 44.8605 37.0731 45.0976C36.4271 45.3347 35.7406 45.4418 35.0531 45.4126C33.7638 45.4645 32.5007 45.0394 31.5051 44.2185C30.5719 43.4065 29.9992 42.2572 29.9131 41.0231L33.0176 40.5114C33.1919 41.9291 33.8629 42.6379 35.0304 42.6379C36.3116 42.6379 36.9522 41.8002 36.9522 40.1248C36.9822 39.4844 36.8029 38.8517 36.4414 38.3223C36.2729 38.0959 36.0511 37.9146 35.7957 37.7946C35.5403 37.6746 35.2591 37.6195 34.9773 37.6344C34.5995 37.6156 34.2263 37.7242 33.9175 37.9428C33.6088 38.1613 33.3823 38.4772 33.2744 38.8398L30.5954 38.328L31.1412 29.6514Z" fill="#007CC3"/>
</g>
<defs>
<clipPath id="clip0_1240_874">
<rect width="94.1327" height="94" fill="white"/>
</clipPath>
</defs>
</svg>
