<svg width="86" height="80" viewBox="0 0 86 80" fill="none" xmlns="http://www.w3.org/2000/svg">
<path d="M60.1733 41.6C49.08 29.12 43.96 21.9733 43.96 13.9733C43.96 9.70667 46.7333 6.72 46.7333 3.73333C46.7333 1.70667 45.0266 0 43 0C40.9733 0 39.2666 1.70667 39.2666 3.73333C39.2666 6.72 42.04 9.81333 42.04 13.9733C42.04 21.9733 36.92 29.12 25.8266 41.6C22.2 45.6533 19.96 51.0933 19.96 56.96C19.96 69.6533 30.3066 80 43 80C55.6933 80 66.04 69.6533 66.04 56.96C66.04 50.9867 63.8 45.6533 60.1733 41.6Z" fill="#007CC3"/>
<path d="M34.1469 71.5733C37.4536 73.92 41.0802 73.8133 41.5069 72.4267C41.9336 71.1467 39.6936 69.2267 37.0269 67.4133C34.4669 65.6 32.0136 64.1067 30.8402 64.96C29.7736 65.92 30.8402 69.3333 34.1469 71.5733Z" fill="white"/>
<path d="M26.2536 62.4C27.0003 64 28.8136 64.64 29.987 63.8933C31.1603 63.1466 31.3736 61.5466 30.8403 60.2666C30.2003 58.9866 28.8136 58.1333 27.427 58.56C26.0403 58.9866 25.507 60.6933 26.2536 62.4Z" fill="white"/>
</svg>
