<svg width="80" height="80" viewBox="0 0 80 80" fill="none" xmlns="http://www.w3.org/2000/svg">
<g clip-path="url(#clip0_1104_355)">
<path d="M79.1996 27.1001C78.0996 26.0001 65.9996 14.0001 65.9996 14.0001C65.9996 14.0001 53.9996 1.90007 52.8996 0.800066C51.7996 -0.299934 48.8996 -1.19993 42.7996 4.80007C36.6996 10.8001 37.5996 13.7001 38.7996 14.9001C39.8996 16.0001 51.9996 28.0001 51.9996 28.0001C51.9996 28.0001 63.9996 40.0001 65.0996 41.1001C66.1996 42.2001 69.0996 43.1001 75.1996 37.1001C81.2996 31.1001 80.2996 28.2001 79.1996 27.1001Z" fill="#F173AC"/>
<path d="M69.3999 37.7L71.9999 34.3C72.2999 33.9 72.2999 33.2 71.8999 32.8L61.2999 22.3L47.0998 8.09998C46.6998 7.69998 46.0998 7.69998 45.5998 7.99998L42.1999 10.6C41.3999 11.2 41.2999 12.3 41.9999 13L56.1999 27.2L66.7999 37.8C67.5999 38.6 68.7999 38.5 69.3999 37.7Z" fill="#BFBFBF"/>
<path d="M73.3999 33.8L75.9999 30.4C76.2999 30 76.2999 29.3 75.8999 28.9L65.2999 18.3L51.0998 4.09998C50.6998 3.69998 50.0998 3.69998 49.5998 3.99998L46.1999 6.59998C45.3999 7.19998 45.2999 8.29998 45.9999 8.99998L60.1999 23.2L70.7999 33.8C71.5999 34.6 72.7999 34.5 73.3999 33.8Z" fill="#D9D9D9"/>
<path d="M52.2999 28.3001L51.6999 27.7001L43.5999 19.6001C42.4999 20.7001 42.4999 22.4001 43.5999 23.5001L44.5999 24.5001C46.2999 26.2001 46.2999 28.9001 44.5999 30.6001L42.9999 32.2001L45.0999 34.3001L45.6999 34.9001L47.7999 37.0001L49.3999 35.4001C51.0999 33.7001 53.7999 33.7001 55.4999 35.4001L56.4999 36.4001C57.5999 37.5001 59.2999 37.5001 60.3999 36.4001L52.2999 28.3001Z" fill="#F5A4C7"/>
<path d="M1.9998 78.0001C-0.600195 75.4001 -0.600195 71.1001 1.9998 68.5001C5.8998 64.6001 9.4998 64.8001 14.3998 59.8001C19.2998 54.8001 18.4998 51.1001 24.7998 44.9001L36.2998 33.4001C38.6998 31.0001 42.5998 31.0001 44.9998 33.4001L45.7998 34.2001L46.5998 35.0001C48.9998 37.4001 48.9998 41.3001 46.5998 43.7001L35.0998 55.2001C28.8998 61.4001 25.0998 60.6001 20.1998 65.6001C15.2998 70.6001 15.3998 74.2001 11.4998 78.0001C8.89981 80.7001 4.5998 80.7001 1.9998 78.0001Z" fill="#F173AC"/>
<path d="M31.8996 51.4001C29.0996 54.2001 29.1996 56.2001 26.9996 58.4001C25.4996 59.9001 23.0996 59.9001 21.5996 58.4001C20.0996 56.9001 20.0996 54.5001 21.5996 53.0001C23.7996 50.8001 25.7996 50.9001 28.5996 48.1001" fill="#F5A4C7"/>
<path d="M29.0999 46.6002C27.9999 47.8002 28.0999 49.6002 29.1999 50.8002C30.2999 51.9002 32.1999 52.0002 33.3999 50.9002L42.3999 43.1002C44.0999 41.6002 44.1999 39.0002 42.5999 37.5002C40.9999 35.9002 38.3999 36.0002 36.9999 37.7002L29.0999 46.6002Z" fill="#007CC3"/>
<g opacity="0.5">
<g style="mix-blend-mode:multiply">
<path d="M39.8995 41.7001L38.2995 40.1001C37.8995 39.7001 37.8995 39.1001 38.2995 38.7001C38.6995 38.3001 39.2995 38.3001 39.6995 38.7001L41.2995 40.3001C41.6995 40.7001 41.6995 41.3001 41.2995 41.7001C40.9995 42.1001 40.2995 42.1001 39.8995 41.7001Z" fill="#007CC3"/>
<path d="M37.2999 44.3002L35.6999 42.7002C35.2999 42.3002 35.2999 41.7002 35.6999 41.3002C36.0999 40.9002 36.6999 40.9002 37.0999 41.3002L38.6999 42.9002C39.0999 43.3002 39.0999 43.9002 38.6999 44.3002C38.2999 44.7002 37.6999 44.7002 37.2999 44.3002Z" fill="#007CC3"/>
<path d="M34.6998 46.9001L33.0998 45.3001C32.6998 44.9001 32.6998 44.3001 33.0998 43.9001C33.4998 43.5001 34.0998 43.5001 34.4998 43.9001L36.0998 45.5001C36.4998 45.9001 36.4998 46.5001 36.0998 46.9001C35.6998 47.3001 35.0998 47.3001 34.6998 46.9001Z" fill="#007CC3"/>
<path d="M32.0997 49.5002L30.4997 47.9002C30.0997 47.5002 30.0997 46.9002 30.4997 46.5002C30.8997 46.1002 31.4997 46.1002 31.8997 46.5002L33.4997 48.1002C33.8997 48.5002 33.8997 49.1002 33.4997 49.5002C33.0997 49.9002 32.4997 49.9002 32.0997 49.5002Z" fill="#007CC3"/>
</g>
</g>
</g>
<defs>
<clipPath id="clip0_1104_355">
<rect width="80" height="80" fill="white"/>
</clipPath>
</defs>
</svg>
