<svg width="80" height="75" viewBox="0 0 80 75" fill="none" xmlns="http://www.w3.org/2000/svg">
<path d="M57.5 49.1999C57.8 47.2999 58.8 45.8999 60.3 45.0999C60.4 45.0999 60.5 44.9999 60.5 44.9999C62.3 43.9999 64.4 43.8999 66.3 44.9999C66.5 45.0999 66.7 45.2999 66.9 45.3999C67.6 45.8999 68.2 46.5999 68.7 47.3999C69.1 46.5999 69.8 45.9999 70.5 45.3999C74.1 42.7999 79.2 44.9999 79.9 49.2999C80.2 50.9999 79.8 52.4999 79 53.8999C78.1 55.5999 76.9 56.9999 75.5 58.2999C73.6 60.2999 71.6 61.8999 69.5 63.5999C69.3 63.6999 69.2 63.8999 69.1 63.9999C68.8 64.2999 68.3 64.2999 68 63.9999C67.8 63.8999 67.7 63.6999 67.6 63.5999C65.6 61.8999 63.5 60.1999 61.6 58.2999C61.2 57.8999 60.7 57.3999 60.3 56.8999C60.2 56.7999 60.1 56.6999 60.1 56.5999C59.6 55.9999 59 55.2999 58.6 54.5999C58.4 54.2999 58.3 54.0999 58.2 53.7999C57.6 52.3999 57.2 50.7999 57.5 49.1999Z" fill="#F173AC"/>
<path d="M6.8 28.3C10.5555 28.3 13.6 25.2555 13.6 21.5C13.6 17.7444 10.5555 14.7 6.8 14.7C3.04446 14.7 0 17.7444 0 21.5C0 25.2555 3.04446 28.3 6.8 28.3Z" fill="#007CC3"/>
<path d="M75.9999 18.8999H23.8999C21.6999 18.8999 19.8999 17.0999 19.8999 14.8999C19.8999 12.6999 21.6999 10.8999 23.8999 10.8999H75.9999C78.1999 10.8999 79.9999 12.6999 79.9999 14.8999C79.9999 17.1999 78.1999 18.8999 75.9999 18.8999Z" fill="#F4C6DE"/>
<path d="M75.9999 30.7998H23.8999C21.6999 30.7998 19.8999 28.9998 19.8999 26.7998C19.8999 24.5998 21.6999 22.7998 23.8999 22.7998H75.9999C78.1999 22.7998 79.9999 24.5998 79.9999 26.7998C79.9999 29.0998 78.1999 30.7998 75.9999 30.7998Z" fill="#F4C6DE"/>
<path d="M6.8 61.6C10.5555 61.6 13.6 58.5555 13.6 54.8C13.6 51.0445 10.5555 48 6.8 48C3.04446 48 0 51.0445 0 54.8C0 58.5555 3.04446 61.6 6.8 61.6Z" fill="#007CC3"/>
<path d="M49.0999 52.2H23.8999C21.6999 52.2 19.8999 50.4 19.8999 48.2C19.8999 46 21.6999 44.2 23.8999 44.2H49.0999C51.2999 44.2 53.0999 46 53.0999 48.2C53.0999 50.4 51.2999 52.2 49.0999 52.2Z" fill="#F4C6DE"/>
<path d="M49.0999 64.1999H23.8999C21.6999 64.1999 19.8999 62.4 19.8999 60.2C19.8999 58 21.6999 56.2 23.8999 56.2H49.0999C51.2999 56.2 53.0999 58 53.0999 60.2C53.0999 62.3 51.2999 64.1999 49.0999 64.1999Z" fill="#F4C6DE"/>
</svg>
