<svg width="80" height="80" viewBox="0 0 80 80" fill="none" xmlns="http://www.w3.org/2000/svg">
<g clip-path="url(#clip0_1111_224)">
<path d="M40 5.9C46.7444 5.9 53.3372 7.89993 58.945 11.6469C64.5527 15.3938 68.9234 20.7195 71.5043 26.9505C74.0853 33.1815 74.7606 40.0378 73.4448 46.6526C72.129 53.2673 68.8813 59.3434 64.1124 64.1123C59.3434 68.8813 53.2674 72.129 46.6526 73.4448C40.0378 74.7605 33.1815 74.0852 26.9505 71.5043C20.7196 68.9233 15.3939 64.5527 11.6469 58.9449C7.89995 53.3372 5.90002 46.7443 5.90002 40C5.91119 30.9595 9.50745 22.2926 15.9 15.9C22.2926 9.50743 30.9596 5.91117 40 5.9ZM40 1.51347e-06C32.0888 1.51347e-06 24.3552 2.34596 17.7772 6.74122C11.1992 11.1365 6.07234 17.3836 3.04484 24.6927C0.0173314 32.0017 -0.774802 40.0444 0.768607 47.8036C2.31202 55.5629 6.12165 62.6902 11.7157 68.2843C17.3098 73.8784 24.4372 77.688 32.1964 79.2314C39.9556 80.7748 47.9983 79.9827 55.3074 76.9552C62.6164 73.9277 68.8635 68.8008 73.2588 62.2228C77.6541 55.6448 80 47.9113 80 40C80.0015 34.7467 78.9678 29.5446 76.9581 24.691C74.9485 19.8373 72.0021 15.4271 68.2875 11.7125C64.5729 7.99788 60.1627 5.05155 55.3091 3.04188C50.4554 1.0322 45.2533 -0.00144374 40 1.51347e-06Z" fill="#F45B6A"/>
<path d="M65.5662 10.1918L10.2788 65.4949L14.4513 69.6662L69.7387 14.3631L65.5662 10.1918Z" fill="#F45B6A"/>
<path d="M42.3295 54.0748C42.3295 54.0748 34.9683 47.412 32.7958 45.2395C30.6232 43.0669 29.968 42.0324 30.2267 39.4287C30.4853 36.8251 30.1232 33.2559 26.4161 29.5488C22.7089 25.8417 16.7431 23.7036 13.1738 27.2728L42.5493 56.6483L42.3295 54.0748Z" fill="#BFBFBF"/>
<path d="M39.9761 56.4284C39.9761 56.4284 33.3133 49.0673 31.1407 46.8948C28.9682 44.7222 27.9336 44.067 25.33 44.3256C22.7264 44.5842 19.1572 44.2222 15.45 40.5151C11.7429 36.8079 9.60484 30.8421 13.174 27.2728L42.5495 56.6483L39.9761 56.4284Z" fill="#BFBFBF"/>
<path d="M42.4861 17.479L33.1698 8.96084C32.933 8.74428 32.6217 8.62741 32.3009 8.63459C31.98 8.64176 31.6743 8.77242 31.4473 8.99936C31.2136 9.23312 31.0822 9.55017 31.0822 9.88076C31.0822 10.2114 31.2136 10.5284 31.4473 10.7622L39.2447 18.5595C39.3866 18.7014 39.4991 18.8698 39.5759 19.0552C39.6527 19.2406 39.6923 19.4393 39.6923 19.64C39.6923 19.8407 39.6527 20.0394 39.5759 20.2248C39.4991 20.4102 39.3866 20.5786 39.2447 20.7205C39.1028 20.8624 38.9343 20.975 38.7489 21.0518C38.5635 21.1286 38.3648 21.1681 38.1642 21.1681C37.9635 21.1681 37.7648 21.1286 37.5794 21.0518C37.394 20.975 37.2256 20.8624 37.0837 20.7205L29.4854 13.1222C29.3435 12.9803 29.1751 12.8678 28.9897 12.791C28.8043 12.7142 28.6056 12.6747 28.4049 12.6747C28.2042 12.6747 28.0055 12.7142 27.8201 12.791C27.6347 12.8678 27.4663 12.9803 27.3244 13.1222C27.1825 13.2641 27.0699 13.4326 26.9931 13.618C26.9163 13.8034 26.8768 14.0021 26.8768 14.2027C26.8768 14.4034 26.9163 14.6021 26.9931 14.7875C27.0699 14.9729 27.1825 15.1414 27.3244 15.2832L34.9227 22.8815C35.0646 23.0234 35.1771 23.1918 35.2539 23.3772C35.3307 23.5626 35.3702 23.7613 35.3702 23.962C35.3702 24.1627 35.3307 24.3614 35.2539 24.5468C35.1771 24.7322 35.0646 24.9006 34.9227 25.0425C34.7808 25.1844 34.6123 25.297 34.4269 25.3738C34.2415 25.4506 34.0428 25.4901 33.8422 25.4901C33.6415 25.4901 33.4428 25.4506 33.2574 25.3738C33.072 25.297 32.9036 25.1844 32.7617 25.0425L24.9643 17.2452C24.7306 17.0114 24.4135 16.8801 24.0829 16.8801C23.7523 16.8801 23.4353 17.0114 23.2015 17.2452C22.9746 17.4721 22.8439 17.7778 22.8367 18.0987C22.8296 18.4196 22.9464 18.7308 23.163 18.9677L31.6812 28.284C35.9155 32.5183 39.988 30.1439 40.8846 30.1372C42.5456 30.2447 43.5567 31.0099 45.2911 32.7442C47.4636 34.9168 54.1264 42.2779 54.1264 42.2779L56.6999 42.4977L56.48 39.9243C56.48 39.9243 49.1189 33.2615 46.9463 31.089C45.212 29.3546 44.4468 28.3434 44.3393 26.6824C44.3463 25.7854 46.7202 21.7132 42.4861 17.479Z" fill="#BFBFBF"/>
<path d="M57.9075 39.8559C57.0163 38.9057 56.218 37.8724 55.5235 36.7702C55.4397 36.6414 55.3282 36.533 55.1971 36.4529C55.066 36.3728 54.9186 36.323 54.7658 36.3072C54.613 36.2914 54.4586 36.31 54.3139 36.3617C54.1692 36.4133 54.0378 36.4966 53.9295 36.6056L52.3686 38.1665L50.8077 39.7274C50.6988 39.8357 50.6154 39.967 50.5638 40.1117C50.5122 40.2564 50.4936 40.4108 50.5094 40.5637C50.5251 40.7165 50.5749 40.8638 50.655 40.9949C50.7351 41.126 50.8435 41.2376 50.9723 41.3213C52.0745 42.0158 53.1078 42.8141 54.0581 43.7053C58.2891 47.9363 57.5604 49.2167 61.4845 53.1841C62.2147 53.9488 63.2026 54.4154 64.2571 54.4936C65.3115 54.5718 66.3575 54.2561 67.1925 53.6074C67.647 53.2392 68.019 52.7796 68.2845 52.2584C68.5499 51.7372 68.7029 51.1661 68.7335 50.582C68.764 49.9979 68.6715 49.4139 68.4619 48.8678C68.2523 48.3217 67.9303 47.8258 67.5167 47.4122C63.4463 43.3418 62.1846 44.133 57.9075 39.8559Z" fill="#F173AC"/>
<path d="M64.9003 52.2712C65.7689 52.2712 66.473 51.5671 66.473 50.6985C66.473 49.83 65.7689 49.1259 64.9003 49.1259C64.0318 49.1259 63.3276 49.83 63.3276 50.6985C63.3276 51.5671 64.0318 52.2712 64.9003 52.2712Z" fill="white"/>
<path d="M43.7571 54.0064C42.8659 53.0561 42.0676 52.0228 41.3731 50.9206C41.2893 50.7918 41.1778 50.6834 41.0467 50.6033C40.9156 50.5231 40.7683 50.4734 40.6154 50.4576C40.4626 50.4418 40.3082 50.4604 40.1635 50.5121C40.0188 50.5637 39.8875 50.647 39.7792 50.756L38.2183 52.317L36.6574 53.8778C36.5484 53.9862 36.4651 54.1175 36.4134 54.2622C36.3618 54.4069 36.3432 54.5613 36.359 54.7141C36.3747 54.867 36.4245 55.0143 36.5046 55.1454C36.5847 55.2765 36.6932 55.388 36.822 55.4718C37.9242 56.1663 38.9575 56.9646 39.9077 57.8558C44.1387 62.0868 43.41 63.3671 47.3341 67.3346C48.0643 68.0993 49.0523 68.5659 50.1067 68.6441C51.1612 68.7223 52.2071 68.4065 53.0421 67.7579C53.4966 67.3897 53.8686 66.9301 54.1341 66.4089C54.3996 65.8877 54.5525 65.3165 54.5831 64.7324C54.6137 64.1483 54.5211 63.5643 54.3115 63.0183C54.1019 62.4722 53.7799 61.9763 53.3664 61.5627C49.296 57.4922 48.0342 58.2835 43.7571 54.0064Z" fill="#F173AC"/>
<path d="M50.7499 66.4216C51.6185 66.4216 52.3226 65.7175 52.3226 64.8489C52.3226 63.9804 51.6185 63.2762 50.7499 63.2762C49.8814 63.2762 49.1772 63.9804 49.1772 64.8489C49.1772 65.7175 49.8814 66.4216 50.7499 66.4216Z" fill="white"/>
</g>
<defs>
<clipPath id="clip0_1111_224">
<rect width="80" height="80" fill="white"/>
</clipPath>
</defs>
</svg>
