<svg width="80" height="80" viewBox="0 0 80 80" fill="none" xmlns="http://www.w3.org/2000/svg">
<g clip-path="url(#clip0_791_184)">
<path d="M40 80C23.04 80 9.17334 66.24 9.17334 49.1733C9.17334 28.5866 30.2933 7.46664 37.5467 0.853311C38.9333 -0.426689 40.96 -0.426689 42.3467 0.853311C49.6 7.46664 70.72 28.48 70.72 49.1733C70.8267 66.24 56.96 80 40 80Z" fill="#F45B6A"/>
<path d="M26.88 69.6535C31.04 72.6401 35.6266 72.4268 36.16 70.8268C36.6933 69.1201 33.8133 66.7735 30.5066 64.4268C27.2 62.0801 24.1066 60.2668 22.72 61.3335C21.3333 62.4001 22.72 66.7735 26.88 69.6535Z" fill="white"/>
<path d="M16.8533 57.9201C17.8133 60.0534 20.16 60.8001 21.5466 59.7334C23.04 58.7734 23.36 56.7467 22.6133 55.1467C21.76 53.4401 20.0533 52.4801 18.3466 53.0134C16.64 53.5467 15.8933 55.7867 16.8533 57.9201Z" fill="white"/>
</g>
<defs>
<clipPath id="clip0_791_184">
<rect width="80" height="80" fill="white"/>
</clipPath>
</defs>
</svg>
