<?xml version="1.0" encoding="utf-8"?>
<!-- Generator: Adobe Illustrator 24.1.1, SVG Export Plug-In . SVG Version: 6.00 Build 0)  -->
<svg version="1.1" id="Capa_1" xmlns="http://www.w3.org/2000/svg" xmlns:xlink="http://www.w3.org/1999/xlink" x="0px" y="0px"
	 viewBox="0 0 89.71 74.97" style="enable-background:new 0 0 89.71 74.97;" xml:space="preserve">
<style type="text/css">
	.st0{fill:#D9D9D9;}
	.st1{fill:#BFBFBF;}
	.st2{fill:#F5A4C7;}
	.st3{fill:none;}
	.st4{fill:#FC90CE;}
	.st5{fill:#F4C6DE;}
	.st6{fill:#FFFFFF;}
	.st7{fill:#F45B6A;}
	.st8{fill:#F173AC;}
	.st9{fill:#007CC3;}
	.st10{fill-rule:evenodd;clip-rule:evenodd;fill:#F173AC;}
</style>
<g>
	<path class="st2" d="M82.95,27.11L66.58,10.61c-11.97-12.06-31.47-12.06-43.44,0L6.76,27.11"/>
	<path class="st8" d="M80.53,74.97H9.18c-1.34,0-2.42-1.08-2.42-2.42V27.11h76.19v45.43C82.95,73.88,81.87,74.97,80.53,74.97z"/>
	<path class="st0" d="M69.79,70.45H19.92c-1.34,0-2.42-1.09-2.42-2.42V2.42C17.5,1.09,18.59,0,19.92,0l49.86,0
		c1.34,0,2.42,1.09,2.42,2.42v65.6C72.21,69.36,71.13,70.45,69.79,70.45z"/>
	<path class="st2" d="M44.86,51.04L82.2,74.49c0.46-0.38,0.76-0.94,0.76-1.58v-45.8L44.86,51.04z"/>
	<path class="st2" d="M44.86,51.04L7.51,74.49c-0.46-0.38-0.76-0.94-0.76-1.58v-45.8L44.86,51.04z"/>
	<path class="st8" d="M80.9,74.97c0.55,0,1.05-0.22,1.41-0.57L49.86,45.41c-2.76-2.46-7.25-2.46-10.01,0L7.4,74.39
		c0.37,0.35,0.86,0.57,1.41,0.57H80.9z"/>
	<g>
		<path class="st9" d="M47.78,18.98c-0.09,0.56,0.16,1.08,0.79,1.08c1.07,0,2.24-1.78,2.24-4.09c0-3-1.73-5.27-5.13-5.27
			c-3.81,0-6.76,3.35-6.76,7.32c0,3.2,1.73,5.33,5.13,5.33c1.17,0,2.22-0.33,2.83-0.68l0.56,1.43c-1.12,0.68-2.5,0.96-3.63,0.96
			c-4.24,0-6.79-2.76-6.79-6.79c0-4.99,3.88-9.27,8.89-9.27c4.23,0,6.81,2.88,6.81,6.72c0,2.74-1.41,6.11-4.38,6.11
			c-1.19,0-1.97-0.65-2.37-1.43c-0.63,0.75-1.48,1.17-2.41,1.17H43.5c-1.94,0-2.85-1.15-2.57-3.2l0.37-2.69
			c0.28-2.04,1.54-3.2,3.48-3.2h0.03c0.93,0,1.66,0.45,2.08,1.17l0.79-1h1L47.78,18.98z M46.1,15.61c0.09-0.61-0.28-1.03-0.89-1.03
			h-0.58c-0.61,0-1.08,0.42-1.17,1.03l-0.4,2.83c-0.09,0.61,0.28,1.03,0.89,1.03h0.58c0.61,0,1.08-0.42,1.17-1.03L46.1,15.61z"/>
	</g>
</g>
</svg>
