<?xml version="1.0" encoding="utf-8"?>
<!-- Generator: Adobe Illustrator 24.1.1, SVG Export Plug-In . SVG Version: 6.00 Build 0)  -->
<svg version="1.1" id="Capa_1" xmlns="http://www.w3.org/2000/svg" xmlns:xlink="http://www.w3.org/1999/xlink" x="0px" y="0px"
	 viewBox="0 0 75 75" style="enable-background:new 0 0 75 75;" xml:space="preserve">
<style type="text/css">
	.st0{fill:#D9D9D9;}
	.st1{fill:#BFBFBF;}
	.st2{fill:#F4C6DE;}
	.st3{fill:none;}
	.st4{fill:#F173AC;}
	.st5{fill:#F5A4C7;}
	.st6{fill:#FFFFFF;}
	.st7{fill:#007CC3;}
	.st8{fill:#F45B6A;}
	.st9{fill:none;stroke:#F45B6A;stroke-width:5.553;stroke-miterlimit:10;}
	.st10{fill:#999999;}
	.st11{fill:#F8C5B0;}
	.st12{fill:#42210B;}
</style>
<g>
	<g>
		<g>
			<path class="st8" d="M37.5,5c17.6,0,31.9,14.6,31.9,32.5c0,17.9-14.3,32.5-31.9,32.5c-17.6,0-31.9-14.6-31.9-32.5
				C5.6,19.6,19.9,5,37.5,5 M37.5-0.5C16.8-0.5,0,16.5,0,37.5s16.8,38,37.5,38c20.7,0,37.5-17,37.5-38S58.2-0.5,37.5-0.5L37.5-0.5z"
				/>
		</g>
		<line class="st9" x1="63.4" y1="11.2" x2="11.6" y2="63.8"/>
	</g>
	<g>
		<g>
			<path class="st0" d="M61.8,30.8L61.8,30.8c-0.7-0.7-1.8-0.7-2.5,0.1l-9.8,11.3l0.5,0.5l0.5,0.5l11.3-9.8
				C62.4,32.6,62.5,31.5,61.8,30.8L61.8,30.8z"/>
			<g>
				<path class="st0" d="M50.1,42.5c-2.3-2.3-4.4-0.9-5.6,0.3c-1.2,1.2-3.8,5.3-1.9,7.2c1.9,1.9,6-0.7,7.2-1.9
					C51,46.9,52.3,44.7,50.1,42.5z"/>
			</g>
		</g>
		<rect x="38.1" y="54.6" class="st5" width="17.5" height="3.5"/>
		<g>
			<g>
				<path class="st4" d="M38.1,54.6c-5.1-3.5-6.4-9.3-6.7-12.2c-0.1-0.9,0.6-1.7,1.6-1.7h27.7c0.9,0,1.7,0.8,1.6,1.7
					c-0.3,2.9-1.6,8.7-6.7,12.2H38.1z"/>
			</g>
		</g>
		<g>
			<g>
				<polygon class="st10" points="25.2,58.1 25.2,26.2 20.9,18.2 16.7,26.2 16.7,58.1 				"/>
			</g>
			<g>
				<polygon class="st0" points="41.5,58.1 41.5,26.2 37.2,18.2 20.9,18.2 25.2,26.2 25.2,58.1 				"/>
			</g>
			<polygon class="st1" points="25.2,26.2 41.5,26.2 37.2,18.2 20.9,18.2 			"/>
			<rect x="20.9" y="14.9" class="st0" width="16.3" height="3.4"/>
			<g>
				<path class="st6" d="M33.4,34.8c0,0,2.7,3.9,2.7,5.4c0,1.5-1.2,2.7-2.7,2.7c-1.5,0-2.7-1.2-2.7-2.7
					C30.7,38.7,33.4,34.8,33.4,34.8z"/>
				<path class="st7" d="M32,46.9h2.9c0.3,0,0.6-0.3,0.6-0.6v0c0-0.3-0.3-0.6-0.6-0.6H32c-0.3,0-0.6,0.3-0.6,0.6v0
					C31.4,46.6,31.7,46.9,32,46.9z"/>
				<path class="st7" d="M30.8,49.4H36c0.3,0,0.6-0.3,0.6-0.6l0,0c0-0.3-0.3-0.6-0.6-0.6h-5.2c-0.3,0-0.6,0.3-0.6,0.6l0,0
					C30.3,49.2,30.5,49.4,30.8,49.4z"/>
			</g>
		</g>
	</g>
</g>
</svg>
