<svg width="100" height="80" viewBox="0 0 100 80" fill="none" xmlns="http://www.w3.org/2000/svg">
<g clip-path="url(#clip0_1206_200)">
<path d="M50 0H91.51C93.6901 0 95.7809 0.866033 97.3224 2.40758C98.864 3.94913 99.73 6.03992 99.73 8.22V71.78C99.73 73.9601 98.864 76.0509 97.3224 77.5924C95.7809 79.134 93.6901 80 91.51 80H50V0Z" fill="#D9D9D9"/>
<path d="M76.0799 67.4201C72.3911 67.4017 68.8586 65.9281 66.2502 63.3197C63.6418 60.7113 62.1683 57.1789 62.1499 53.4901V26.2401C62.1499 22.5456 63.6175 19.0024 66.2299 16.3901C68.8423 13.7777 72.3854 12.3101 76.0799 12.3101C79.7744 12.3101 83.3175 13.7777 85.9299 16.3901C88.5423 19.0024 90.0099 22.5456 90.0099 26.2401V53.4901C89.9915 57.1789 88.518 60.7113 85.9096 63.3197C83.3012 65.9281 79.7687 67.4017 76.0799 67.4201Z" fill="#F2F2F2"/>
<path d="M76.0799 14.3101C79.2439 14.3101 82.2784 15.567 84.5157 17.8043C86.753 20.0416 88.0099 23.076 88.0099 26.2401V53.4901C88.0099 56.6541 86.753 59.6885 84.5157 61.9258C82.2784 64.1632 79.2439 65.4201 76.0799 65.4201C72.9159 65.4201 69.8814 64.1632 67.6441 61.9258C65.4068 59.6885 64.1499 56.6541 64.1499 53.4901V26.2401C64.1499 24.6734 64.4585 23.1221 65.058 21.6746C65.6576 20.2272 66.5363 18.9121 67.6441 17.8043C68.7519 16.6965 70.0671 15.8177 71.5145 15.2182C72.9619 14.6186 74.5132 14.3101 76.0799 14.3101ZM76.0799 10.3101C71.8607 10.3285 67.8195 12.0127 64.836 14.9962C61.8526 17.9797 60.1683 22.0208 60.1499 26.2401V53.4901C60.1499 55.582 60.5619 57.6535 61.3625 59.5862C62.1631 61.5189 63.3365 63.275 64.8157 64.7543C66.2949 66.2335 68.051 67.4069 69.9838 68.2075C71.9165 69.008 73.9879 69.4201 76.0799 69.4201C78.1719 69.4201 80.2433 69.008 82.1761 68.2075C84.1088 67.4069 85.8649 66.2335 87.3441 64.7543C88.8233 63.275 89.9967 61.5189 90.7973 59.5862C91.5979 57.6535 92.0099 55.582 92.0099 53.4901V26.2401C91.9915 22.0208 90.3072 17.9797 87.3238 14.9962C84.3403 12.0127 80.2991 10.3285 76.0799 10.3101Z" fill="#F2F2F2"/>
<path d="M76.0799 14.3101C79.2439 14.3101 82.2784 15.567 84.5157 17.8043C86.753 20.0416 88.0099 23.076 88.0099 26.2401V39.8701H64.1499V26.2401C64.1499 23.076 65.4068 20.0416 67.6441 17.8043C69.8814 15.567 72.9159 14.3101 76.0799 14.3101Z" fill="#F173AC"/>
<path d="M64.1499 39.8701H88.0099V53.4901C88.0099 56.6542 86.753 59.6886 84.5157 61.9259C82.2784 64.1632 79.2439 65.4201 76.0799 65.4201C72.9159 65.4201 69.8814 64.1632 67.6441 61.9259C65.4068 59.6886 64.1499 56.6542 64.1499 53.4901V39.8701Z" fill="#F4C6DE"/>
<path d="M50 80H8.49C6.30992 80 4.21913 79.134 2.67758 77.5924C1.13603 76.0509 0.27 73.9601 0.27 71.78L0.27 8.22C0.27 6.03992 1.13603 3.94913 2.67758 2.40759C4.21913 0.866035 6.30992 0 8.49 0H50L50 80Z" fill="#D9D9D9"/>
<path d="M23.9099 67.42C20.2179 67.4147 16.6789 65.945 14.0693 63.3335C11.4596 60.722 9.99251 57.1819 9.98986 53.49V26.24C9.94001 24.3799 10.2633 22.5287 10.9407 20.7957C11.6181 19.0626 12.6358 17.4828 13.9338 16.1496C15.2318 14.8164 16.7837 13.7567 18.498 13.0331C20.2123 12.3096 22.0541 11.9368 23.9149 11.9368C25.7756 11.9368 27.6175 12.3096 29.3317 13.0331C31.046 13.7567 32.5979 14.8164 33.8959 16.1496C35.1939 17.4828 36.2116 19.0626 36.889 20.7957C37.5664 22.5287 37.8897 24.3799 37.8399 26.24V53.49C37.8215 57.1788 36.3479 60.7112 33.7395 63.3196C31.1311 65.928 27.5987 67.4016 23.9099 67.42Z" fill="#F2F2F2"/>
<path d="M23.9099 14.3101C27.0739 14.3101 30.1083 15.567 32.3456 17.8043C34.583 20.0416 35.8399 23.076 35.8399 26.2401V53.4901C35.8861 55.0851 35.6118 56.6733 35.0333 58.1604C34.4548 59.6476 33.5838 61.0036 32.4719 62.1482C31.36 63.2928 30.0297 64.2027 28.5599 64.824C27.0901 65.4453 25.5106 65.7654 23.9149 65.7654C22.3191 65.7654 20.7396 65.4453 19.2698 64.824C17.8 64.2027 16.4698 63.2928 15.3578 62.1482C14.2459 61.0036 13.375 59.6476 12.7965 58.1604C12.2179 56.6733 11.9437 55.0851 11.9899 53.4901V26.2401C11.9899 23.0778 13.2454 20.0448 15.4805 17.8078C17.7157 15.5708 20.7476 14.3127 23.9099 14.3101ZM23.9099 10.3101C19.6875 10.3154 15.6398 11.9957 12.655 14.9823C9.67032 17.9689 7.99251 22.0177 7.98986 26.2401V53.4901C7.93661 55.6149 8.30914 57.729 9.08551 59.7077C9.86188 61.6864 11.0264 63.4897 12.5104 65.0114C13.9945 66.5331 15.768 67.7424 17.7266 68.5681C19.6853 69.3938 21.7893 69.8191 23.9149 69.8191C26.0404 69.8191 28.1445 69.3938 30.1031 68.5681C32.0617 67.7424 33.8353 66.5331 35.3193 65.0114C36.8033 63.4897 37.9678 61.6864 38.7442 59.7077C39.5206 57.729 39.8931 55.6149 39.8399 53.4901V26.2401C39.8214 22.0208 38.1372 17.9797 35.1537 14.9962C32.1703 12.0127 28.1291 10.3285 23.9099 10.3101Z" fill="#F2F2F2"/>
<path d="M11.9902 39.8701H35.8402V53.4901C35.8402 56.6542 34.5833 59.6886 32.346 61.9259C30.1087 64.1632 27.0743 65.4201 23.9102 65.4201C20.7479 65.4175 17.7161 64.1594 15.4809 61.9224C13.2458 59.6853 11.9902 56.6524 11.9902 53.4901V39.8701Z" fill="#F173AC"/>
<path d="M23.9102 14.3101C27.0743 14.3101 30.1087 15.567 32.346 17.8043C34.5833 20.0416 35.8402 23.076 35.8402 26.2401V39.8701H11.9902V26.2401C11.9902 23.0778 13.2458 20.0448 15.4809 17.8078C17.7161 15.5708 20.7479 14.3127 23.9102 14.3101Z" fill="#F4C6DE"/>
<path d="M47.5601 0H52.4401V8.26C52.4401 8.90713 52.183 9.52775 51.7254 9.98534C51.2678 10.4429 50.6472 10.7 50.0001 10.7C49.3529 10.7 48.7323 10.4429 48.2747 9.98534C47.8171 9.52775 47.5601 8.90713 47.5601 8.26V0Z" fill="#BFBFBF"/>
<path d="M52.4401 16.3001C52.4401 14.9525 51.3476 13.8601 50.0001 13.8601C48.6525 13.8601 47.5601 14.9525 47.5601 16.3001V22.1201C47.5601 23.4677 48.6525 24.5601 50.0001 24.5601C51.3476 24.5601 52.4401 23.4677 52.4401 22.1201V16.3001Z" fill="#BFBFBF"/>
<path d="M52.4401 30.16C52.4401 28.8124 51.3476 27.72 50.0001 27.72C48.6525 27.72 47.5601 28.8124 47.5601 30.16V35.98C47.5601 37.3275 48.6525 38.42 50.0001 38.42C51.3476 38.42 52.4401 37.3275 52.4401 35.98V30.16Z" fill="#BFBFBF"/>
<path d="M52.4401 44.0201C52.4401 42.6725 51.3476 41.5801 50.0001 41.5801C48.6525 41.5801 47.5601 42.6725 47.5601 44.0201V49.8401C47.5601 51.1877 48.6525 52.2801 50.0001 52.2801C51.3476 52.2801 52.4401 51.1877 52.4401 49.8401V44.0201Z" fill="#BFBFBF"/>
<path d="M52.4401 57.8799C52.4401 56.5324 51.3476 55.4399 50.0001 55.4399C48.6525 55.4399 47.5601 56.5324 47.5601 57.8799V63.6999C47.5601 65.0475 48.6525 66.1399 50.0001 66.1399C51.3476 66.1399 52.4401 65.0475 52.4401 63.6999V57.8799Z" fill="#BFBFBF"/>
<path d="M50.0001 69.3C50.6472 69.3 51.2678 69.5571 51.7254 70.0147C52.183 70.4723 52.4401 71.0929 52.4401 71.74V80H47.5601V71.74C47.5601 71.0929 47.8171 70.4723 48.2747 70.0147C48.7323 69.5571 49.3529 69.3 50.0001 69.3Z" fill="#BFBFBF"/>
</g>
<defs>
<clipPath id="clip0_1206_200">
<rect width="99.46" height="80" fill="white" transform="translate(0.27002)"/>
</clipPath>
</defs>
</svg>
