<svg width="76" height="75" viewBox="0 0 76 75" fill="none" xmlns="http://www.w3.org/2000/svg">
<g clip-path="url(#clip0_345_559)">
<path d="M46.9 75H2.6C1.5 75 0.5 74 0.5 72.9V14.6C0.5 13.4 1.5 12.5 2.6 12.5H46.8C48 12.5 48.9 13.5 48.9 14.6V72.8C49 74 48 75 46.9 75Z" fill="#BFBFBF"/>
<path d="M51.0998 70.8H6.79978C5.59978 70.8 4.69978 69.7999 4.69978 68.6999V10.4C4.59978 9.19995 5.59978 8.19995 6.79978 8.19995H50.9998C52.1998 8.19995 53.0998 9.19995 53.0998 10.3V68.5C53.1998 69.8 52.1998 70.8 51.0998 70.8Z" fill="#D9D9D9"/>
<path d="M28.8999 23C35.2512 23 40.3999 17.8513 40.3999 11.5C40.3999 5.14873 35.2512 0 28.8999 0C22.5486 0 17.3999 5.14873 17.3999 11.5C17.3999 17.8513 22.5486 23 28.8999 23Z" fill="#F173AC"/>
<path d="M27.5998 17.0001V12.7001H23.2998V10.2001H27.5998V5.90015H30.0998V10.2001H34.3998V12.7001H30.0998V17.0001H27.5998Z" fill="white"/>
<path d="M30.3 17.2001H27.3V12.9001H23V9.9001H27.3V5.6001H30.3V9.9001H34.6V12.9001H30.3V17.2001ZM27.8 16.7001H29.8V12.4001H34.1V10.4001H29.8V6.1001H27.8V10.4001H23.5V12.4001H27.8V16.7001Z" fill="white"/>
<path d="M68.8002 9.5001L74.3002 15.0001C76.0002 16.7001 76.0002 19.4001 74.3002 21.0001L67.7002 27.6001L56.2002 16.1001L62.8002 9.5001C64.4002 7.8001 67.1002 7.8001 68.8002 9.5001Z" fill="#F173AC"/>
<path d="M29.8002 74.8001C30.0002 75.0001 30.3002 75.0001 30.5002 74.8001L67.9002 32.2001C70.1002 29.7001 70.1002 26.1001 67.9002 23.8001L59.5002 15.5001C57.3002 13.3001 53.8002 13.2001 51.3002 15.3001L6.6002 50.9001C6.4002 51.1001 6.4002 51.4001 6.6002 51.7001L29.8002 74.8001Z" fill="#007CC3"/>
<path d="M70.1 18.6C69.3 19.4 68.1 19.4 67.4 18.7L65.1 16.4C64.4 15.7 64.4 14.4 65.2 13.7L70.1 18.6Z" fill="#F4C6DE"/>
<path d="M62.2435 9.97036L61.7485 10.4653L73.2036 21.9204L73.6985 21.4254L62.2435 9.97036Z" fill="#F4C6DE"/>
<path d="M40.5002 49.7999C45.3603 49.7999 49.3002 45.8601 49.3002 41C49.3002 36.1398 45.3603 32.2 40.5002 32.2C35.6401 32.2 31.7002 36.1398 31.7002 41C31.7002 45.8601 35.6401 49.7999 40.5002 49.7999Z" fill="white"/>
<path d="M36.8003 43.2001L39.1003 40.9001L36.8003 38.6L38.1003 37.3L40.4003 39.6L42.7003 37.3L44.0003 38.6L41.7003 40.9001L44.0003 43.2001L42.7003 44.5L40.5003 42.2001L38.2003 44.5L36.8003 43.2001Z" fill="#F173AC"/>
<path d="M42.8002 45.2001L40.5002 42.9001L38.2002 45.2001L36.2002 43.2001L38.5002 40.9001L36.2002 38.6001L38.2002 36.6001L40.5002 38.9001L42.8002 36.6001L44.8002 38.6001L42.5002 40.9001L44.8002 43.2001L42.8002 45.2001ZM40.5002 41.5001L42.8002 43.8001L43.4002 43.2001L41.1002 40.9001L43.4002 38.6001L42.8002 38.0001L40.5002 40.2001L38.2002 37.9001L37.5002 38.6001L39.8002 40.9001L37.5002 43.2001L38.1002 43.8001L40.5002 41.5001Z" fill="#F173AC"/>
<path d="M34.2001 70.5999L11.0001 47.3999L10.5001 47.8999L12.4001 49.8999L8.6001 53.6999L9.1001 54.1999L13.0001 50.3999L15.6001 52.9999L11.8001 56.7999L12.3001 57.2999L16.1001 53.4999L18.7001 56.0999L14.9001 59.8999L15.4001 60.4999L19.2001 56.5999L21.8001 59.1999L18.0001 63.0999L18.5001 63.5999L22.4001 59.7999L25.0001 62.3999L21.1001 66.1999L21.7001 66.6999L25.5001 62.8999L28.1001 65.4999L24.3001 69.2999L24.8001 69.8999L28.6001 65.9999L31.2001 68.5999L27.4001 72.4999L27.9001 72.9999L31.7001 69.1999L33.8001 71.1999L34.2001 70.5999Z" fill="white"/>
</g>
<defs>
<clipPath id="clip0_345_559">
<rect width="75" height="75" fill="white" transform="translate(0.5)"/>
</clipPath>
</defs>
</svg>
