<?xml version="1.0" encoding="utf-8"?>
<!-- Generator: Adobe Illustrator 24.1.1, SVG Export Plug-In . SVG Version: 6.00 Build 0)  -->
<svg version="1.1" id="Capa_1" xmlns="http://www.w3.org/2000/svg" xmlns:xlink="http://www.w3.org/1999/xlink" x="0px" y="0px"
	 viewBox="0 0 75 75" style="enable-background:new 0 0 75 75;" xml:space="preserve">
<style type="text/css">
	.st0{fill:#D9D9D9;}
	.st1{fill:#BFBFBF;}
	.st2{fill:#F4C6DE;}
	.st3{fill:none;}
	.st4{fill:#F173AC;}
	.st5{fill:#F5A4C7;}
	.st6{fill:#FFFFFF;}
	.st7{fill:#007CC3;}
	.st8{fill:#F45B6A;}
	.st9{fill:none;stroke:#F45B6A;stroke-width:5.553;stroke-miterlimit:10;}
	.st10{fill:#999999;}
	.st11{fill:#F8C5B0;}
	.st12{fill:#42210B;}
</style>
<g>
	<g>
		<g>
			<path class="st8" d="M37.5,5.6c17.6,0,31.9,14.3,31.9,31.9S55.1,69.4,37.5,69.4S5.6,55.1,5.6,37.5S19.9,5.6,37.5,5.6 M37.5,0
				C16.8,0,0,16.8,0,37.5C0,58.2,16.8,75,37.5,75S75,58.2,75,37.5C75,16.8,58.2,0,37.5,0L37.5,0z"/>
		</g>
		<line class="st9" x1="63.4" y1="11.6" x2="11.6" y2="63.4"/>
	</g>
	<g>
		<g>
			<path class="st2" d="M25.7,25.3l5.9-5.7c0.6-0.5,1.4-0.6,2-0.2l9,5.9"/>
			<path class="st2" d="M49.2,49.6l5.9-5.7c0.6-0.5,0.7-1.4,0.3-2l-5.6-9.2"/>
			<path class="st2" d="M25.7,25.3L19.8,31c-0.6,0.5-0.7,1.4-0.3,2l5.6,9.2"/>
			<path class="st2" d="M49.2,49.6l-5.9,5.7c-0.6,0.5-1.4,0.6-2,0.2l-9-5.9"/>
		</g>
		<g>
			
				<rect x="46.1" y="39.5" transform="matrix(0.7071 -0.7071 0.7071 0.7071 -19.5752 48.3985)" class="st4" width="5.2" height="16.6"/>
			<g>
				<path class="st4" d="M46.7,45.4l8,8l2.3-2.3c0.6-0.6,0.6-1.6,0-2.2l-3.9-3.9c-1.2-1.2-2.1-3.6-2.1-3.6L46.7,45.4z"/>
				<path class="st4" d="M45.4,46.7l8,8L51.2,57c-0.6,0.6-1.6,0.6-2.2,0l-3.9-3.9c-1.2-1.2-3.6-2.1-3.6-2.1L45.4,46.7z"/>
			</g>
		</g>
		<g>
			
				<rect x="23.7" y="18.9" transform="matrix(-0.7071 0.7071 -0.7071 -0.7071 64.1381 27.7066)" class="st4" width="5.2" height="16.6"/>
			<g>
				<path class="st4" d="M28.2,29.5l-8-8L18,23.8c-0.6,0.6-0.6,1.6,0,2.2l3.9,3.9c1.2,1.2,2.1,3.6,2.1,3.6L28.2,29.5z"/>
				<path class="st4" d="M29.5,28.2l-8-8l2.3-2.3c0.6-0.6,1.6-0.6,2.2,0l3.9,3.9c1.2,1.2,3.6,2.1,3.6,2.1L29.5,28.2z"/>
			</g>
		</g>
		<path class="st0" d="M49.8,27.9L48,29.7l-2.8-2.8l1.8-1.8c0.5-0.5,1.4-0.5,1.9,0l0.9,0.9C50.3,26.5,50.3,27.4,49.8,27.9z"/>
		<circle class="st10" cx="37.4" cy="37.4" r="14.9"/>
		<g>
			<circle class="st6" cx="37.4" cy="37.4" r="11.6"/>
		</g>
		<path class="st7" d="M36.9,36.9c0.3-0.3,0.9-0.3,1.2,0c0.3,0.3,0.3,0.9,0,1.2c-0.3,0.3-0.9,0.3-1.2,0
			C36.5,37.7,36.5,37.2,36.9,36.9 M36.1,36.1c-0.7,0.7-0.7,1.9,0,2.7c0.7,0.7,1.9,0.7,2.7,0c0.7-0.7,0.7-1.9,0-2.7
			S36.8,35.4,36.1,36.1L36.1,36.1z"/>
		<g>
			<path class="st7" d="M38.2,36.3c-0.1,0.1-0.3,0.2-0.5,0.1c-0.3-0.1-0.5-0.4-0.4-0.7l1.2-4.5c0.1-0.3,0.4-0.5,0.7-0.4
				c0.3,0.1,0.5,0.4,0.4,0.7l-1.2,4.5C38.3,36.2,38.3,36.2,38.2,36.3z"/>
		</g>
		<g>
			<path class="st7" d="M36.3,38.2c-0.1,0.1-0.1,0.1-0.2,0.1l-2.7,0.7c-0.3,0.1-0.6-0.1-0.7-0.4c-0.1-0.3,0.1-0.6,0.4-0.7l2.7-0.7
				c0.3-0.1,0.6,0.1,0.7,0.4C36.5,37.9,36.4,38.1,36.3,38.2z"/>
		</g>
		<g>
			<g>
				<path class="st1" d="M29.5,29.5c4.4-4.4,11.5-4.4,15.9,0s4.4,11.5,0,15.9s-11.5,4.4-15.9,0S25.1,33.9,29.5,29.5 M28.2,28.2
					c-5.1,5.1-5.1,13.4,0,18.5s13.4,5.1,18.5,0c5.1-5.1,5.1-13.4,0-18.5S33.3,23.1,28.2,28.2L28.2,28.2z"/>
			</g>
			<g>
				<path class="st1" d="M35.2,49.2c-0.2,0.2-0.5,0.3-0.9,0.2c-0.5-0.1-0.8-0.6-0.6-1.1l0.7-2.7c0.1-0.5,0.6-0.8,1.1-0.6
					s0.8,0.6,0.6,1.1l-0.7,2.7C35.4,48.9,35.3,49.1,35.2,49.2z"/>
			</g>
			<g>
				<path class="st1" d="M40.3,29.6c-0.2,0.2-0.5,0.3-0.9,0.2c-0.5-0.1-0.8-0.6-0.6-1.1l0.7-2.7c0.1-0.5,0.6-0.8,1.1-0.6
					c0.5,0.1,0.8,0.6,0.6,1.1l-0.7,2.7C40.5,29.4,40.4,29.5,40.3,29.6z"/>
			</g>
			<g>
				<path class="st1" d="M29.6,35.9c-0.2,0.2-0.5,0.3-0.9,0.2l-2.7-0.7c-0.5-0.1-0.8-0.6-0.6-1.1c0.1-0.5,0.6-0.8,1.1-0.6l2.7,0.7
					c0.5,0.1,0.8,0.6,0.6,1.1C29.8,35.6,29.7,35.8,29.6,35.9z"/>
			</g>
			<g>
				<path class="st1" d="M49.2,41c-0.2,0.2-0.5,0.3-0.9,0.2l-2.7-0.7c-0.5-0.1-0.8-0.6-0.6-1.1c0.1-0.5,0.6-0.8,1.1-0.6l2.7,0.7
					c0.5,0.1,0.8,0.6,0.6,1.1C49.4,40.7,49.3,40.9,49.2,41z"/>
			</g>
			<g>
				<path class="st1" d="M41,49.2c-0.1,0.1-0.2,0.2-0.4,0.2c-0.5,0.1-1-0.2-1.1-0.6l-0.7-2.7c-0.1-0.5,0.2-1,0.6-1.1
					c0.5-0.1,1,0.2,1.1,0.6l0.7,2.7C41.3,48.7,41.2,49,41,49.2z"/>
			</g>
			<g>
				<path class="st1" d="M35.9,29.6c-0.1,0.1-0.2,0.2-0.4,0.2c-0.5,0.1-1-0.2-1.1-0.6l-0.7-2.7c-0.1-0.5,0.2-1,0.6-1.1
					c0.5-0.1,1,0.2,1.1,0.6l0.7,2.7C36.2,29.1,36.1,29.4,35.9,29.6z"/>
			</g>
			<g>
				<path class="st1" d="M29.6,40.3c-0.1,0.1-0.2,0.2-0.4,0.2l-2.7,0.7c-0.5,0.1-1-0.2-1.1-0.6c-0.1-0.5,0.2-1,0.6-1.1l2.7-0.7
					c0.5-0.1,1,0.2,1.1,0.6C30,39.7,29.9,40.1,29.6,40.3z"/>
			</g>
			<g>
				<path class="st1" d="M49.2,35.2c-0.1,0.1-0.2,0.2-0.4,0.2l-2.7,0.7c-0.5,0.1-1-0.2-1.1-0.6c-0.1-0.5,0.2-1,0.6-1.1l2.7-0.7
					c0.5-0.1,1,0.2,1.1,0.6C49.5,34.6,49.4,35,49.2,35.2z"/>
			</g>
			<g>
				<path class="st1" d="M31.9,44.2l-2,2c-0.3,0.3-0.9,0.3-1.3,0c-0.3-0.3-0.3-0.9,0-1.3l2-2c0.3-0.3,0.9-0.3,1.3,0
					C32.3,43.3,32.3,43.9,31.9,44.2z"/>
			</g>
			<g>
				<path class="st1" d="M46.2,30l-2,2c-0.3,0.3-0.9,0.3-1.3,0s-0.3-0.9,0-1.3l2-2c0.3-0.3,0.9-0.3,1.3,0C46.5,29,46.5,29.6,46.2,30
					z"/>
			</g>
			<g>
				<path class="st1" d="M31.9,31.9c-0.3,0.3-0.9,0.3-1.3,0l-2-2c-0.3-0.3-0.3-0.9,0-1.3c0.3-0.3,0.9-0.3,1.3,0l2,2
					C32.3,31,32.3,31.6,31.9,31.9z"/>
			</g>
			<g>
				<path class="st1" d="M46.2,46.2c-0.3,0.3-0.9,0.3-1.3,0l-2-2c-0.3-0.3-0.3-0.9,0-1.3s0.9-0.3,1.3,0l2,2
					C46.5,45.3,46.5,45.9,46.2,46.2z"/>
			</g>
		</g>
	</g>
</g>
</svg>
