<?xml version="1.0" encoding="utf-8"?>
<!-- Generator: Adobe Illustrator 24.1.1, SVG Export Plug-In . SVG Version: 6.00 Build 0)  -->
<svg version="1.1" id="Capa_1" xmlns="http://www.w3.org/2000/svg" xmlns:xlink="http://www.w3.org/1999/xlink" x="0px" y="0px"
	 viewBox="0 0 89.71 74.97" style="enable-background:new 0 0 89.71 74.97;" xml:space="preserve">
<style type="text/css">
	.st0{fill:#D9D9D9;}
	.st1{fill:#BFBFBF;}
	.st2{fill:#F5A4C7;}
	.st3{fill:none;}
	.st4{fill:#FC90CE;}
	.st5{fill:#F4C6DE;}
	.st6{fill:#FFFFFF;}
	.st7{fill:#F45B6A;}
	.st8{fill:#F173AC;}
	.st9{fill:#007CC3;}
	.st10{fill-rule:evenodd;clip-rule:evenodd;fill:#F173AC;}
</style>
<g>
	<circle class="st6" cx="44.86" cy="37.48" r="37.48"/>
	<g>
		<path class="st7" d="M44.86,5.55c17.61,0,31.93,14.32,31.93,31.93S62.46,69.41,44.86,69.41S12.93,55.09,12.93,37.48
			S27.25,5.55,44.86,5.55 M44.86,0C24.15,0,7.37,16.78,7.37,37.48s16.78,37.48,37.48,37.48c20.7,0,37.48-16.78,37.48-37.48
			S65.56,0,44.86,0L44.86,0z"/>
		<g>
			
				<rect x="8.23" y="34.71" transform="matrix(0.7072 -0.707 0.707 0.7072 -13.3671 42.6888)" class="st7" width="73.26" height="5.55"/>
		</g>
	</g>
	<g>
		<path class="st2" d="M20.34,35.25c0.95-5.93,7.97-8.83,12.88-5.33c0.98,0.7,1.76,1.58,2.42,2.67c0.65-1.09,1.44-1.97,2.42-2.67
			c0.26-0.19,0.54-0.35,0.81-0.5c0.21,1.05,0.59,2.07,1.11,3.06c0.73,1.38,1.64,2.62,2.63,3.79c0.1,0.12,0.2,0.24,0.3,0.36
			c0.57,0.65,1.16,1.29,1.77,1.91c1.41,1.46,2.92,2.82,4.46,4.15c-0.6,0.97-1.29,1.87-2.02,2.73c-0.1,0.12-0.2,0.24-0.3,0.36
			c-0.57,0.65-1.16,1.29-1.77,1.91c-2.53,2.62-5.35,4.9-8.11,7.27c-0.19,0.16-0.38,0.33-0.57,0.49c-0.42,0.36-1.03,0.36-1.45,0
			c-0.19-0.17-0.38-0.33-0.57-0.49c-2.75-2.36-5.58-4.65-8.11-7.27c-1.79-1.85-3.5-3.76-4.7-6.06
			C20.47,39.62,19.97,37.51,20.34,35.25z"/>
		<path class="st5" d="M50.92,35.25c-0.4-2.49-1.88-4.45-3.82-5.62c-0.1-0.06-0.2-0.12-0.3-0.18c-2.38-1.31-5.38-1.46-7.95-0.04
			c-0.22-1.07-0.25-2.18-0.07-3.32c0.4-2.49,1.88-4.45,3.82-5.62c0.1-0.06,0.2-0.12,0.3-0.18c2.63-1.44,6.02-1.49,8.76,0.47
			c0.98,0.7,1.76,1.58,2.42,2.67c0.65-1.09,1.44-1.97,2.42-2.67c4.9-3.5,11.93-0.6,12.88,5.33c0.36,2.26-0.13,4.37-1.18,6.37
			c-1.21,2.3-2.92,4.21-4.7,6.06c-2.53,2.62-5.35,4.9-8.11,7.27c-0.19,0.16-0.38,0.33-0.57,0.49c-0.42,0.36-1.03,0.36-1.45,0
			c-0.19-0.17-0.38-0.33-0.57-0.49c-1.21-1.04-2.44-2.07-3.65-3.12c0.21-0.34,0.42-0.7,0.61-1.06
			C50.79,39.62,51.29,37.51,50.92,35.25z"/>
		<path class="st8" d="M42.9,36.62c-0.1-0.12-0.2-0.24-0.3-0.36c-1-1.17-1.91-2.41-2.63-3.79c-0.52-0.99-0.9-2.01-1.11-3.06
			c2.57-1.42,5.57-1.27,7.95,0.04c0.1,0.06,0.2,0.12,0.3,0.18c1.94,1.17,3.42,3.13,3.82,5.62c0.36,2.26-0.13,4.37-1.18,6.37
			c-0.19,0.36-0.4,0.71-0.61,1.06c-1.54-1.33-3.04-2.69-4.46-4.15C44.07,37.91,43.47,37.27,42.9,36.62z"/>
	</g>
</g>
</svg>
