<svg width="80" height="80" viewBox="0 0 80 80" fill="none" xmlns="http://www.w3.org/2000/svg">
<g clip-path="url(#clip0_1108_428)">
<path d="M1.7 38.6001C0 38.6001 0 38.6001 0 40.3001C0 40.5001 0 40.7001 0 40.8001C0 41.2001 0.1 41.3001 0.5 41.3001C2.2 41.2001 4 41.2001 5.7 41.0001C5.8 41.0001 5.9 41.0001 6 41.0001C6.5 40.6001 6.1 40.0001 6.2 39.4001C6.2 39.2001 6.3 38.8001 5.9 38.8001C5.6 38.8001 5.3 38.7001 5 38.7001C3.8 38.7001 2.7 38.6001 1.7 38.6001Z" fill="#D9D9D9"/>
<path d="M5.5001 37.5C6.3001 37.5 6.3001 37.5 6.3001 36.5C6.4001 35.4 6.4001 35.4 5.3001 35.2C3.8001 34.9 2.3001 34.7 0.800098 34.5C0.600098 34.5 0.400098 34.5 0.400098 34.8C0.300098 35.5 0.200098 36.2 0.100098 36.9C0.100098 37.2 0.200098 37.3 0.500098 37.3C2.1001 37.3 3.7001 37.4 5.5001 37.5Z" fill="#D9D9D9"/>
<path d="M32.6998 0.600098C31.9998 0.800098 31.2998 0.900098 30.4998 1.1001C30.2998 1.2001 30.2998 1.3001 30.2998 1.5001C30.7998 3.2001 31.1998 5.0001 31.6998 6.7001C31.7998 7.0001 31.9998 7.1001 32.2998 7.0001C32.3998 7.0001 32.4998 7.0001 32.5998 6.9001C34.0998 6.5001 34.0998 6.6001 33.7998 5.0001C33.5998 3.7001 33.3998 2.3001 33.0998 1.0001C33.0998 0.800098 33.1998 0.600098 32.6998 0.600098Z" fill="#D9D9D9"/>
<path d="M11.1998 12.3C11.0998 12.4 10.9998 12.4 10.8998 12.5C10.4998 13 10.0998 13.4 9.59984 13.9C9.39984 14.1 9.39984 14.3 9.69984 14.5C11.0998 15.6 12.4998 16.7 13.7998 17.9C14.0998 18.1 14.1998 18.1 14.3998 17.8C15.6998 16.5 15.6998 16.5 14.3998 15.2C13.5998 14.3 12.6998 13.5 11.7998 12.7C11.5998 12.5 11.3998 12.3 11.1998 12.3Z" fill="#D9D9D9"/>
<path d="M22.2 11.1C22.3 11.1 23.9 10.2 23.9 10C24 9.80001 23.8 9.60001 23.8 9.50001C23 8.00001 22.2 6.50001 21.5 5.00001C21.4 4.80001 21.3 4.50001 21 4.80001C20.4 5.20001 19.8 5.50001 19.2 5.80001C18.9 6.00001 18.8 6.10001 19 6.40001C20 7.90001 21 9.40001 21.9 11C22 11 22 11.1 22.2 11.1Z" fill="#D9D9D9"/>
<path d="M28.8002 8C29.3002 7.8 29.8002 7.7 30.4002 7.5C30.6002 7.4 30.5002 7.3 30.5002 7.1C30.0002 5.4 29.6002 3.6 29.1002 1.9C29.0002 1.6 28.9002 1.5 28.6002 1.6C28.0002 1.8 27.3002 2 26.7002 2.2C26.4002 2.3 26.4002 2.4 26.5002 2.7C27.2002 4.4 27.8002 6.1 28.4002 7.8C28.4002 8 28.5002 8.1 28.8002 8Z" fill="#D9D9D9"/>
<path d="M14.3001 9.30005C14.2001 9.30005 14.2001 9.30005 14.1001 9.30005C13.5001 9.80005 12.9001 10.4 12.3001 11C12.1001 11.2 12.3001 11.4 12.5001 11.5C13.7001 12.8 14.9001 14.1 16.3001 15.2C17.0001 15.7 17.3001 14.7 17.8001 14.3C18.1001 14.1 18.1001 13.9 17.9001 13.6C16.8001 12.2 15.7001 10.9 14.6001 9.50005C14.4001 9.50005 14.4001 9.40005 14.3001 9.30005Z" fill="#D9D9D9"/>
<path d="M37.4999 5.3001C37.3999 3.7001 37.2999 2.1001 37.2999 0.500098C37.2999 0.200098 37.1999 0.100098 36.7999 0.100098C36.0999 0.200098 35.3999 0.300098 34.6999 0.400098C34.3999 0.400098 34.3999 0.600098 34.3999 0.800098C34.6999 2.5001 34.8999 4.2001 35.1999 6.0001C35.2999 6.4001 35.4999 6.7001 35.8999 6.5001C36.0999 6.4001 36.2999 6.4001 36.4999 6.4001C37.4999 6.2001 37.4999 6.2001 37.4999 5.3001Z" fill="#D9D9D9"/>
<path d="M4.7002 21.1C4.7002 21.3 4.9002 21.4 5.0002 21.4C6.5002 22.2 8.1002 23 9.6002 23.8C10.0002 24 10.1002 23.9 10.4002 23.6C11.3002 22.2 11.3002 22.2 10.0002 21.3C8.9002 20.6 7.8002 19.9 6.7002 19.1C6.3002 18.8 6.0002 18.8 5.8002 19.3C5.6002 19.8 5.3002 20.3 5.0002 20.8C4.8002 20.9 4.8002 21 4.7002 21.1Z" fill="#D9D9D9"/>
<path d="M25.4002 9.40005C26.0002 9.10005 26.5002 8.90005 27.1002 8.60005C27.3002 8.50005 27.2002 8.30005 27.1002 8.10005C26.5002 6.50005 25.8002 4.80005 25.2002 3.20005C25.1002 2.90005 25.0002 2.80005 24.6002 2.90005C24.0002 3.20005 23.4002 3.40005 22.9002 3.70005C22.6002 3.80005 22.5002 4.00005 22.7002 4.30005C23.4002 5.90005 24.2002 7.50005 25.0002 9.00005C25.1002 9.20005 25.1002 9.40005 25.4002 9.40005Z" fill="#D9D9D9"/>
<path d="M6.5 34C7 33.5 6.8 32.8 7 32.2C7.2 31.8 6.9 31.8 6.6 31.7C4.9 31.2 3.2 30.8 1.5 30.3C1.2 30.2 1 30.3 1 30.6C0.9 31.2 0.7 31.9 0.6 32.5C0.5 32.8 0.6 32.9 0.9 33C2.7 33.4 4.5 33.7 6.5 34Z" fill="#D9D9D9"/>
<path d="M8.39989 27.0999C8.59989 27.0999 8.59989 26.9999 8.69989 26.8999C8.89989 26.3999 9.19989 25.8999 9.39989 25.3999C9.49989 25.1999 9.29989 25.0999 9.09989 24.9999C7.49989 24.1999 5.99989 23.3999 4.39989 22.5999C4.09989 22.3999 3.89989 22.4999 3.79989 22.7999C3.59989 23.3999 3.29989 23.9999 2.99989 24.4999C2.99989 24.7999 2.89989 24.9999 3.19989 25.0999C4.89989 25.6999 6.59989 26.3999 8.29989 27.0999H8.39989Z" fill="#D9D9D9"/>
<path d="M1.6001 28.6999C1.6001 28.9999 1.8001 28.9999 2.0001 29.0999C3.7001 29.5999 5.5001 29.9999 7.2001 30.4999C7.4001 30.5999 7.5001 30.4999 7.6001 30.2999V30.1999C8.3001 28.4999 8.3001 28.4999 6.6001 27.8999C5.4001 27.4999 4.3001 26.9999 3.1001 26.4999C2.5001 26.1999 2.2001 26.3999 2.1001 26.9999C2.0001 27.5999 1.8001 28.0999 1.6001 28.6999Z" fill="#D9D9D9"/>
<path d="M15.4999 8.49999C15.5999 8.59999 15.5999 8.69999 15.6999 8.79999C16.7999 10.1 17.7999 11.4 18.7999 12.7C19.0999 13 19.1999 13 19.5999 12.8C20.9999 11.9 20.9999 11.9 20.0999 10.5C19.3999 9.39999 18.5999 8.19999 17.8999 7.09999C17.6999 6.79999 17.4999 6.69999 17.1999 6.99999C16.6999 7.39999 16.1999 7.79999 15.6999 8.09999C15.5999 8.29999 15.3999 8.29999 15.4999 8.49999Z" fill="#D9D9D9"/>
<path d="M6.8999 17.5C6.8999 17.8 7.0999 17.8 7.1999 17.9C8.5999 18.8 10.0999 19.8 11.4999 20.7C11.8999 20.9 12.0999 20.9 12.2999 20.5C13.1999 19.2 13.2999 19.2 11.9999 18.2C10.9999 17.4 9.9999 16.6 8.9999 15.8C8.5999 15.5 8.2999 15.4 7.9999 15.9C7.6999 16.4 7.3999 16.8 7.0999 17.2C6.9999 17.3 6.9999 17.4 6.8999 17.5Z" fill="#D9D9D9"/>
<path d="M0.799945 45.5C2.69995 45.2 4.29994 44.9 5.99995 44.7C6.39995 44.6 6.59995 44.5 6.39995 44.1C6.29995 43.9 6.29995 43.7 6.29995 43.5C6.29995 42.5 6.19994 42.4 5.19994 42.5C3.59995 42.6 2.09995 42.8 0.499945 42.8C0.0999453 42.8 -0.100055 42.9 0.0999453 43.3C0.299945 43.8 0.199945 44.4 0.299945 44.9C0.399945 45.4 0.499945 45.6 0.799945 45.5Z" fill="#D9D9D9"/>
<path d="M7.10023 49.5C6.30023 49.7 5.50023 50 4.60023 50.2C3.70023 50.4 2.90023 50.7 2.00023 50.9C1.70023 51 1.50023 51.1 1.60023 51.4C1.80023 52 2.00023 52.6 2.20023 53.2C2.30023 53.5 2.50023 53.7 2.90023 53.5C4.50023 52.9 6.10023 52.3 7.80023 51.6C8.00023 51.5 8.10023 51.4 8.00023 51C7.80023 50.6 7.70023 50.2 7.60023 49.8C7.50023 49.6 7.40023 49.4 7.10023 49.5Z" fill="#D9D9D9"/>
<path d="M6.39982 46C5.09982 46.2 3.89982 46.4 2.69982 46.6C2.29982 46.7 1.89982 46.8 1.59982 46.8C0.599821 47 0.599821 46.9 0.799821 47.9C0.899821 48.4 0.899821 49.1 1.19982 49.4C1.59982 49.8 2.19982 49.3 2.69982 49.2C3.99982 48.9 5.39982 48.5 6.69982 48.1C6.89982 48.1 6.99982 48 6.99982 47.8C6.89982 47.3 6.79982 46.7 6.69982 46.2C6.59982 46 6.49982 46 6.39982 46Z" fill="#D9D9D9"/>
<path d="M9.9999 56.1001C9.8999 56.1001 9.7999 56.2001 9.5999 56.3001C8.1999 57.0001 6.7999 57.7001 5.3999 58.4001C4.8999 58.7001 4.7999 59.0001 5.0999 59.5001C5.3999 59.9001 5.6999 60.4001 5.8999 60.8001C6.0999 61.2001 6.2999 61.1001 6.5999 61.0001C7.9999 60.1001 9.3999 59.1001 10.7999 58.2001C11.0999 58.0001 11.1999 57.8001 10.9999 57.5001C10.7999 57.1001 10.5999 56.8001 10.3999 56.4001C10.2999 56.2001 10.1999 56.0001 9.9999 56.1001Z" fill="#D9D9D9"/>
<path d="M8.4 52.8C7.7 53 7.1 53.3 6.4 53.6C5.4 54 4.4 54.4 3.4 54.8C3 54.9 2.9 55.0001 3.1 55.4001C3.4 55.9001 3.6 56.5 3.9 57.1C4 57.5 4.2 57.5 4.5 57.3C6 56.5 7.5 55.7 9 55C9.4 54.8 9.5 54.6001 9.3 54.2001C9.1 53.8001 8.9 53.4 8.7 53C8.7 52.9 8.6 52.8 8.4 52.8Z" fill="#D9D9D9"/>
<path d="M41.3 78.4001C41 77.2001 41.3 75.7001 41 74.2001C41 74.1001 41 74.0001 41 74.0001C40.5 73.5001 39.9 73.9001 39.3 73.8001C39 73.7001 38.9 73.9001 38.8 74.2001C38.7 74.8001 38.6 75.3001 38.7 75.9001C38.8 77.1001 38.5 78.2001 38.5 79.3001C38.5 79.7001 38.6 79.9001 39 79.9001C39.4 80.0001 39.7 80.0001 40 80.0001C41.4 80.0001 41.4 80.0001 41.3 78.4001Z" fill="#F173AC"/>
<path d="M37.5001 74.3001C37.6001 73.8001 37.3001 73.7001 36.9001 73.6001C36.5001 73.5001 36.0001 73.6001 35.6001 73.5001C35.3001 73.4001 35.3001 73.7001 35.3001 73.9001C35.1001 75.2001 34.9001 76.4001 34.7001 77.7001C34.6001 78.3001 34.3001 79.1001 34.6001 79.4001C34.9001 79.8001 35.7001 79.7001 36.3001 79.7001C36.5001 79.7001 36.6001 79.8001 36.8001 79.8001C37.1001 79.9001 37.3001 79.8001 37.3001 79.4001C37.3001 77.7001 37.4001 76.1001 37.5001 74.3001Z" fill="#D9D9D9"/>
<path d="M6.8999 62.4999C7.0999 62.7999 7.2999 63.0999 7.4999 63.2999C8.3999 64.4999 8.4999 64.4999 9.5999 63.5999C10.5999 62.7999 11.5999 61.9999 12.5999 61.0999C12.9999 60.7999 12.9999 60.4999 12.6999 59.9999C11.6999 58.7999 11.7999 58.7999 10.4999 59.6999C9.3999 60.4999 8.1999 61.1999 7.0999 61.8999C7.0999 62.0999 6.8999 62.1999 6.8999 62.4999Z" fill="#D9D9D9"/>
<path d="M32.3 72.9C32 72.8 31.8 73 31.8 73.3C31.3 75 30.9 76.7 30.4 78.4C30.3 78.8 30.5 78.8 30.8 78.8C31.5 79 32.1 79.1 32.8 79.2C33.2 79.3 33.2 78.9 33.2 78.7C33.4 77.5 33.6 76.3 33.8 75.2C33.9 74.7 33.9 74.2 34 73.7C34.1 73.3 34.1 73.1 33.6 73.1C33.1 73.2 32.7 73 32.3 72.9Z" fill="#D9D9D9"/>
<path d="M22.3 68.8999C22 68.8999 21.9 68.9999 21.8 69.1999C20.9 70.4999 20 71.9999 19 73.3999C18.8 73.6999 18.8 73.8999 19.2 74.0999C19.8 74.3999 20.3 74.6999 20.8 75.0999C21.1 75.2999 21.2 75.1999 21.4 74.8999C22.2 73.2999 23 71.6999 23.8 70.0999C23.9 69.7999 23.9 69.6999 23.6 69.4999C23.2 69.2999 22.7 69.0999 22.3 68.8999Z" fill="#D9D9D9"/>
<path d="M30.5 72.7999C30.5 72.5999 30.4 72.3999 30.2 72.2999C28.7 71.5999 28.6 71.5999 28 73.1999C27.5 74.3999 27.1 75.6999 26.6 76.8999C26.4 77.2999 26.5 77.4999 27 77.6999C27.5 77.7999 28.1 78.0999 28.6 78.2999C28.9 78.3999 29.1 78.3999 29.2 77.9999C29.6 76.2999 30.1 74.6999 30.6 72.9999C30.4 72.9999 30.4 72.8999 30.5 72.7999Z" fill="#D9D9D9"/>
<path d="M19.3001 66.8C19.0001 66.8 18.9001 67 18.8001 67.2C17.8001 68.5 16.7001 69.8 15.7001 71C15.5001 71.3 15.4001 71.5 15.7001 71.7C16.2001 72 16.7001 72.4 17.1001 72.7C17.4001 72.9 17.6001 72.9 17.9001 72.6C18.8001 71.2 19.7001 69.8 20.7001 68.4C20.9001 68.1 20.9001 67.9 20.5001 67.6C20.1001 67.4 19.8001 67 19.3001 66.8Z" fill="#D9D9D9"/>
<path d="M25.3999 70.5C25.1999 70.5 25.1999 70.6 25.0999 70.7C24.2999 72.3 23.4999 73.9 22.6999 75.6C22.5999 75.8 22.5999 76 22.8999 76.1C23.4999 76.3 24.0999 76.6 24.6999 76.9C24.9999 77.1 25.0999 76.9 25.1999 76.6C25.7999 75 26.4999 73.3 27.0999 71.7C27.1999 71.6 27.2999 71.4 27.0999 71.3C26.4999 71 25.9999 70.7 25.3999 70.5Z" fill="#D9D9D9"/>
<path d="M14.1998 70.4999C14.4998 70.3999 14.6998 70.1 14.8998 69.8C15.7998 68.7 16.7998 67.5 17.6998 66.3C17.9998 66 17.9998 65.7 17.6998 65.4C16.5998 64.3 16.5998 64.3 15.4998 65.4C14.4998 66.4 13.5998 67.3 12.5998 68.3C12.1998 68.7 12.1998 68.9 12.5998 69.3C12.9998 69.6 13.3998 70 13.7998 70.3C13.8998 70.4 13.9998 70.4999 14.1998 70.4999Z" fill="#D9D9D9"/>
<path d="M9.5 65.8001C9.6 65.9001 9.7 66.0001 9.8 66.1001C10.1 66.4001 10.5 66.7001 10.7 67.0001C11.1 67.6001 11.3 67.6001 11.8 67.1001C12.9 66.0001 14 64.8001 15.2 63.7001C15.5 63.4001 15.6 63.2001 15.3 62.8001C14.3 61.7001 14.3 61.7001 13.2 62.6001C12.1 63.4001 11.1 64.3001 10 65.1001C9.7 65.4001 9.5 65.5001 9.5 65.8001Z" fill="#D9D9D9"/>
<path d="M40.0001 0.0001202C38.6001 0.0001202 38.6001 0.000120163 38.6001 1.40012C38.7001 2.90012 38.7001 4.30012 38.9001 5.80012C39.0001 6.60012 39.8001 6.00012 40.3001 6.10012C40.6001 6.20012 41.0001 6.30012 41.0001 5.70012C41.0001 5.00012 41.1001 4.30012 41.1001 3.70012C41.1001 2.70012 41.2001 1.70012 41.3001 0.70012C41.3001 0.000120223 41.1001 -0.19988 40.5001 -0.0998798C40.4001 0.0001202 40.2001 0.0001202 40.0001 0.0001202Z" fill="#F173AC"/>
<path d="M76.5003 41.2C77.3003 41.1 78.3003 41.4 79.4003 41.4C79.9003 41.4 80.1003 41.1999 80.1003 40.7999C80.1003 40.2999 80.1003 39.7 80.1003 39.2C80.1003 38.8 80.0003 38.7 79.6003 38.7C77.8003 38.8 76.0003 38.8 74.3003 39C73.9003 39 73.8003 39.2 73.9003 39.5C73.9003 39.7 73.9003 39.8 73.9003 40C73.9003 41.3 73.9003 41.2999 75.3003 41.2999C75.5003 41.1999 76.0003 41.2 76.5003 41.2Z" fill="#F173AC"/>
<path d="M76.8002 42.5001C76.0002 42.6001 75.2002 42.4001 74.4002 42.4001C73.9002 42.4001 73.7002 42.6001 73.7002 43.0001C73.7002 43.4001 73.8002 43.8001 73.6002 44.2001C73.5002 44.5001 73.7002 44.5001 74.0002 44.6001C75.0002 44.8001 76.0002 45.0001 77.0002 45.1001C77.8002 45.2001 78.5002 45.4001 79.3002 45.4001C79.7002 45.4001 79.7002 45.3001 79.8002 45.0001C80.0002 44.3001 79.8002 43.6001 80.0002 43.0001C80.1002 42.7001 79.9002 42.6001 79.6002 42.6001C78.6002 42.7001 77.7002 42.4001 76.8002 42.5001Z" fill="#F173AC"/>
<path d="M42.4002 74.3999C42.5002 76.0999 42.7002 77.7999 42.7002 79.3999C42.7002 79.5999 42.7002 79.8999 43.0002 79.7999C43.7002 79.5999 44.5002 79.7999 45.2002 79.5999C45.5002 79.4999 45.5002 79.3999 45.5002 79.0999C45.2002 77.3999 45.0002 75.6999 44.7002 73.9999C44.6002 73.5999 44.5002 73.2999 44.0002 73.4999C43.8002 73.5999 43.5002 73.4999 43.2002 73.4999C42.7002 73.6999 42.3002 73.7999 42.4002 74.3999Z" fill="#F173AC"/>
<path d="M73.7 61.0001C74 61.0001 74 60.9001 74.1 60.7001C74.4 60.1001 74.8 59.6001 75.1 59.0001C75.3 58.7001 75.2 58.6001 75 58.5001C73.4 57.7001 71.8 56.9001 70.1 56.1001C69.8 56.0001 69.7 56.0001 69.6 56.3001C69.5 56.5001 69.4 56.7001 69.3 56.9001C68.7 57.8001 68.7 57.9001 69.6 58.4001C70.9 59.2001 72.1 60.0001 73.3 60.8001C73.4 60.9001 73.6 61.0001 73.7 61.0001Z" fill="#F173AC"/>
<path d="M58.9004 75.2C59.4004 74.9 60.0004 74.6 60.5004 74.3C61.3004 73.9 61.3004 74 60.7004 73.1C59.9004 71.8 59.0004 70.5 58.2004 69.2C58.0004 68.8 57.8004 68.8 57.4004 68.9C55.9004 69.6 55.9004 69.7 56.6004 71.1C57.2004 72.3 57.9004 73.5 58.5004 74.8C58.6004 75 58.7004 75.2 58.9004 75.2Z" fill="#F173AC"/>
<path d="M79.1004 34.4001C77.3004 34.7001 75.6004 35.0001 74.0004 35.2001C73.6004 35.3001 73.3004 35.4001 73.6004 35.9001C73.7004 36.1001 73.7004 36.3001 73.7004 36.4001C73.7004 37.4001 73.8004 37.5001 74.8004 37.4001C76.3004 37.2001 77.9004 37.1001 79.4004 37.1001C79.8004 37.1001 80.0004 37.0001 79.9004 36.5001C79.7004 36.0001 79.8004 35.5001 79.7004 35.0001C79.6004 34.6001 79.6004 34.2001 79.1004 34.4001Z" fill="#F173AC"/>
<path d="M66.9004 60.6001C66.9004 60.8001 67.1004 61.0001 67.3004 61.1001C68.6004 62.1001 69.8004 63.2001 71.1004 64.2001C71.4004 64.4001 71.7004 64.5001 71.9004 64.1001C72.3004 63.6001 72.6004 63.1001 73.0004 62.6001C73.2004 62.4001 73.2004 62.2001 72.9004 62.1001C71.5004 61.2001 70.1004 60.3001 68.7004 59.3001C68.2004 58.9001 67.8004 59.0001 67.5004 59.6001C67.4004 60.0001 67.0004 60.2001 66.9004 60.6001Z" fill="#F173AC"/>
<path d="M43.9 6.30003C44.3 6.50003 44.7 6.30003 44.7 5.70003C44.9 4.00003 45.3 2.40003 45.4 0.700033C45.4 0.300033 45.4 0.300033 45.1 0.300033C44.5 0.200033 43.9 0.200033 43.2 0.100033C42.8 3.28198e-05 42.7 0.100033 42.7 0.500033C42.7 1.80003 42.6 3.10003 42.6 4.40003C42.6 4.60003 42.6 4.70003 42.6 4.90003C42.4 6.30003 42.4 6.30003 43.9 6.30003Z" fill="#F173AC"/>
<path d="M66.9004 19.2001C66.9004 19.4001 67.9004 20.8001 68.0004 20.8001C68.4004 20.8001 68.8004 20.4001 69.1004 20.2001C70.3004 19.4001 71.5004 18.6001 72.7004 17.8001C73.1004 17.6001 73.1004 17.4001 72.8004 17.1001C72.4004 16.7001 72.1004 16.2001 71.8004 15.7001C71.6004 15.4001 71.3004 15.3001 71.0004 15.6001C69.7004 16.6001 68.5004 17.7001 67.2004 18.7001C67.1004 18.9001 67.0004 19.1001 66.9004 19.2001Z" fill="#F173AC"/>
<path d="M73.1004 30.4C74.0004 30.2 75.0004 29.9 76.0004 29.6C76.7004 29.4 77.4004 29.2 78.0004 29.1C78.3004 29 78.5004 28.9 78.4004 28.6C78.2004 28 78.0004 27.4 77.8004 26.7C77.7004 26.4 77.5004 26.3 77.2004 26.4C75.6004 27 73.9004 27.7 72.3004 28.3C72.2004 28.3 72.1004 28.4 72.1004 28.4C72.0004 29 72.4004 29.5 72.5004 30.1C72.5004 30.4 72.6004 30.4 73.1004 30.4Z" fill="#F173AC"/>
<path d="M71.9004 51.3C71.9004 51.5 72.1004 51.6 72.2004 51.6C73.8004 52.2 75.5004 52.8 77.1004 53.5C77.4004 53.6 77.6004 53.6 77.7004 53.3C77.9004 52.7 78.2004 52 78.4004 51.4C78.5004 51.2 78.3004 51 78.1004 51C76.4004 50.6 74.7004 50.1 73.1004 49.6C72.7004 49.5 72.5004 49.6 72.4004 50C72.2004 50.4 72.0004 50.8 71.9004 51.3Z" fill="#F173AC"/>
<path d="M57.8002 11C58.0002 11 58.1002 10.9 58.2002 10.7C59.1002 9.3 60.1002 7.9 61.0002 6.5C61.2002 6.2 61.3002 6 60.9002 5.7C60.3002 5.4 59.8002 5.1 59.3002 4.7C59.0002 4.5 58.9002 4.6 58.7002 4.9C57.9002 6.5 57.1002 8.1 56.3002 9.7C56.2002 9.8 56.2002 9.9 56.2002 10.1C56.2002 10.3 57.6002 11.1 57.8002 11Z" fill="#F173AC"/>
<path d="M59.1001 11.8001C59.1001 12.0001 59.2001 12.0001 59.3001 12.1001C60.6001 13.2001 60.6001 13.2001 61.7001 12.0001C62.6001 11.0001 63.4001 9.90015 64.3001 8.90015C64.6001 8.60015 64.5001 8.30015 64.2001 8.10015C63.7001 7.70015 63.2001 7.40015 62.7001 7.00015C62.5001 6.90015 62.4001 6.80015 62.2001 7.10015C61.2001 8.60015 60.2001 10.1001 59.3001 11.6001C59.2001 11.6001 59.2001 11.7001 59.1001 11.8001Z" fill="#F173AC"/>
<path d="M73.0001 32.3001C73.1001 32.8001 73.2001 33.2001 73.3001 33.7001C73.4001 34.0001 73.6001 34.0001 73.8001 34.0001C75.5001 33.7001 77.1001 33.5001 78.8001 33.2001C79.2001 33.1001 79.5001 33.0001 79.3001 32.5001C79.1001 32.0001 79.0001 31.5001 79.0001 31.0001C78.9001 30.3001 78.7001 30.2001 78.1001 30.4001C76.5001 30.9001 75.0001 31.3001 73.4001 31.7001C73.1001 31.8001 72.9001 31.9001 73.0001 32.3001Z" fill="#F173AC"/>
<path d="M73 47.5999C73 47.8999 73 48.0999 73.3 48.1999C75 48.5999 76.7 49.0999 78.5 49.5999C78.8 49.6999 78.9 49.5999 79 49.2999C79.2 48.5999 79.3 47.9999 79.4 47.2999C79.5 46.8999 79.1 46.8999 78.9 46.7999C77.7 46.5999 76.5 46.3999 75.4 46.1999C74.9 46.0999 74.5 46.0999 74 45.9999C73.7 45.8999 73.4 45.9999 73.4 46.3999C73.2 46.7999 73 47.2999 73 47.5999Z" fill="#F173AC"/>
<path d="M47.7004 7.00001C48.0004 7.00001 48.1004 6.90001 48.2004 6.60001C48.6004 4.90001 49.1004 3.20001 49.5004 1.50001C49.6004 1.20001 49.5004 1.10001 49.2004 1.00001C48.5004 0.900014 47.9004 0.700014 47.2004 0.600014C46.7004 0.500014 46.8004 0.900014 46.7004 1.10001C46.5004 2.00001 46.4004 2.80001 46.3004 3.70001C46.2004 4.50001 46.0004 5.30001 45.9004 6.10001C46.0004 6.40001 46.0004 6.70001 46.4004 6.70001C46.8004 6.80001 47.3004 6.90001 47.7004 7.00001Z" fill="#F173AC"/>
<path d="M47.8003 72.9001C47.3003 73.0001 46.8003 73.1001 46.3003 73.2001C46.0003 73.3001 46.0003 73.5001 46.1003 73.7001C46.4003 75.4001 46.6003 77.1001 46.9003 78.8001C47.0003 79.2001 47.1003 79.4001 47.6003 79.3001C48.1003 79.1001 48.7003 79.1001 49.2003 79.0001C49.5003 78.9001 49.7003 78.8001 49.6003 78.4001C49.1003 76.8001 48.7003 75.1001 48.3003 73.5001C48.2003 73.1001 48.1003 72.9001 47.8003 72.9001Z" fill="#F173AC"/>
<path d="M68.9004 22.2C68.9004 22.3 69.7004 23.8 69.8004 23.9C70.0004 24 70.1004 23.9 70.2004 23.8C71.7004 23 73.2004 22.3 74.7004 21.5C75.1004 21.3 75.1004 21 74.9004 20.7C74.6004 20.2 74.3004 19.7 74.0004 19.2C73.8004 18.8 73.6004 18.8 73.3004 19C71.9004 19.9 70.5004 20.9 69.1004 21.8C69.1004 21.9 68.9004 21.9 68.9004 22.2Z" fill="#F173AC"/>
<path d="M49.5 72.9999C49.5 73.1999 49.7 73.4999 49.7 73.7999C50.1 75.1999 50.4 76.5999 50.8 77.9999C50.9 78.2999 51 78.3999 51.3 78.2999C51.9 78.0999 52.5 77.8999 53.1 77.5999C53.4 77.4999 53.4 77.2999 53.3 76.9999C52.7 75.3999 52 73.6999 51.4 72.0999C51.4 71.9999 51.3 71.8999 51.3 71.8999C50.7 71.7999 50.2 72.1999 49.6 72.2999C49.6 72.3999 49.5 72.5999 49.5 72.9999Z" fill="#F173AC"/>
<path d="M49.5 7.10002C49.5 7.30002 49.5 7.40002 49.8 7.50002C50.2 7.60002 50.7 7.80002 51.1 7.90002C51.3 8.00002 51.5 8.00002 51.6 7.70002C52.2 6.00002 52.9 4.30002 53.5 2.60002C53.6 2.30002 53.5 2.20002 53.3 2.10002C52.7 2.00002 52 1.80002 51.4 1.60002C51.2 1.50002 51 1.60002 50.9 1.80002C50.4 3.50002 50 5.20002 49.5 6.90002C49.5 7.00002 49.5 7.00002 49.5 7.10002Z" fill="#F173AC"/>
<path d="M59.1001 68.0999C59.2001 68.2999 59.2001 68.3999 59.4001 68.5999C60.3001 69.8999 61.2001 71.2999 62.1001 72.5999C62.4001 72.9999 62.6001 73.0999 62.9001 72.7999C63.3001 72.3999 63.8001 72.0999 64.3001 71.7999C64.6001 71.5999 64.6001 71.2999 64.4001 71.0999C63.4001 69.7999 62.3001 68.4999 61.3001 67.2999C61.0001 66.8999 60.7001 66.8999 60.3001 67.1999C60.0001 67.3999 59.7001 67.5999 59.4001 67.8999C59.2001 67.7999 59.1001 67.8999 59.1001 68.0999Z" fill="#F173AC"/>
<path d="M61.9004 14.1C62.1004 14.5 62.5004 14.7 62.7004 15C63.2004 15.5 63.5004 15.4 64.0004 14.9C65.0004 13.8 66.1004 12.7 67.2004 11.7C67.7004 11.3 67.6004 10.9 67.1004 10.6C66.7004 10.3 66.3004 9.9 65.9004 9.6C65.7004 9.3 65.5004 9.3 65.2004 9.6C64.2004 11 63.0004 12.3 61.9004 13.7C62.1004 13.8 62.0004 13.9 61.9004 14.1Z" fill="#F173AC"/>
<path d="M52.8003 71.4001C52.9003 71.6001 53.0003 71.8001 53.1003 72.1001C53.7003 73.6001 54.3003 75.1001 54.8003 76.6001C55.0003 77.0001 55.1003 77.0001 55.5003 76.9001C56.0003 76.7001 56.5003 76.4001 57.0003 76.2001C57.5003 76.0001 57.5003 75.8001 57.3003 75.4001C56.5003 73.9001 55.8003 72.5001 55.1003 71.0001C54.9003 70.6001 54.7003 70.5001 54.3003 70.7001C53.9003 70.9001 53.5003 71.1001 53.1003 71.2001C52.9003 71.2001 52.9003 71.3001 52.8003 71.4001Z" fill="#F173AC"/>
<path d="M52.8003 8.49999C53.2003 8.89999 53.7003 8.99999 54.2003 9.19999C54.4003 9.29999 54.6003 9.49999 54.8003 9.19999C54.9003 9.09999 55.0003 8.99999 55.0003 8.89999C55.7003 7.39999 56.5003 5.89999 57.2003 4.49999C57.4003 4.09999 57.3003 3.89999 56.9003 3.69999C56.4003 3.49999 55.9003 3.29999 55.4003 2.99999C55.1003 2.89999 55.0003 2.89999 54.8003 3.19999C54.2003 4.89999 53.5003 6.59999 52.9003 8.19999C52.9003 8.29999 52.9003 8.39999 52.8003 8.49999Z" fill="#F173AC"/>
<path d="M70.6001 54.6C70.6001 54.9 70.8001 54.9 71.0001 55C72.5001 55.8 74.1001 56.6 75.6001 57.4C75.9001 57.5 76.0001 57.5 76.2001 57.2C76.4001 56.6 76.7001 56 77.0001 55.4C77.1001 55.1 77.0001 55 76.8001 54.9C75.2001 54.3 73.5001 53.6 71.9001 53C71.8001 52.9 71.6001 52.8 71.5001 53C71.0001 53.4 70.8001 54 70.6001 54.6Z" fill="#F173AC"/>
<path d="M70.6004 25.3001C70.8004 25.9001 71.1004 26.5001 71.4004 27.0001C71.5004 27.2001 71.7004 27.0001 71.9004 27.0001C73.5004 26.4001 75.1004 25.7001 76.7004 25.1001C77.0004 25.0001 77.1004 24.8001 77.0004 24.5001C76.7004 24.0001 76.5004 23.4001 76.2004 22.8001C76.1004 22.5001 75.9004 22.4001 75.6004 22.5001C74.1004 23.3001 72.5004 24.1001 71.0004 24.9001C70.8004 25.0001 70.5004 25.1001 70.6004 25.3001Z" fill="#F173AC"/>
<path d="M68.8002 12.3C68.6002 12.3 68.5002 12.4 68.4002 12.6C67.2002 13.8 66.0002 15 64.8002 16.2C64.6002 16.4 64.5002 16.6 64.8002 16.9C65.9002 18.1 65.9002 18.2 67.1002 17.2C68.2002 16.3 69.3002 15.4 70.4002 14.5C70.6002 14.3 70.7002 14.2 70.5002 14C70.0002 13.5 69.5002 13 69.0002 12.4C68.9002 12.3 68.9002 12.3 68.8002 12.3Z" fill="#F173AC"/>
<path d="M65.8004 70.4001C65.9004 70.3001 66.0004 70.2001 66.2004 70.2001C67.9004 69.0001 67.9004 68.8001 66.5004 67.4001C65.6004 66.5001 64.7004 65.6001 63.8004 64.7001C63.5004 64.4001 63.4004 64.4001 63.1004 64.7001C62.9004 65.0001 62.6004 65.2001 62.3004 65.4001C61.9004 65.7001 62.0004 65.9001 62.2004 66.3001C63.2004 67.5001 64.2004 68.8001 65.2004 70.0001C65.4004 70.2001 65.5004 70.4001 65.8004 70.4001Z" fill="#F173AC"/>
<path d="M68.8003 67.6001C68.9003 67.5001 69.0003 67.5001 69.0003 67.4001C69.4003 66.9001 69.8003 66.5001 70.2003 66.0001C70.5003 65.6001 70.4003 65.4001 70.1003 65.1001C68.8003 64.1001 67.6003 63.0001 66.3003 62.0001C66.0003 61.8001 65.8003 61.7001 65.5003 62.0001C65.2003 62.4001 64.9003 62.7001 64.6003 63.0001C64.4003 63.2001 64.5003 63.3001 64.6003 63.5001C65.9003 64.8001 67.1003 66.0001 68.4003 67.3001C68.6003 67.5001 68.7003 67.6001 68.8003 67.6001Z" fill="#F173AC"/>
<path d="M32.2001 29.6C33.6001 29.6 34.5001 28.5 34.5001 27.1V26.9C34.5001 25.4999 33.5001 24.4 32.1001 24.4H31.3001C29.9001 24.4 28.9001 25.4999 28.9001 26.9V27.7L25.1001 27.2999V26.7999C25.1001 23.2999 27.8001 20.7 31.3001 20.7H32.2001C35.7001 20.7 38.4001 23.2999 38.4001 26.7999V27C38.4001 28.7 37.5001 30.5 36.1001 31.6C37.5001 32.7 38.4001 33.8999 38.4001 35.5999V36.4C38.4001 39.9 35.7001 42.5 32.2001 42.5H31.3001C27.8001 42.5 25.1001 39.9 25.1001 36.4V35.5999L28.9001 35.2V36.2999C28.9001 37.6999 29.9001 38.7999 31.3001 38.7999H32.1001C33.5001 38.7999 34.5001 37.6999 34.5001 36.2999V35.5C34.5001 34.1 33.5001 33 32.1001 33H30.0001V29.4H32.2001V29.6Z" fill="#007CC3"/>
<path d="M54.8999 36.4999C54.8999 39.9999 52.1999 42.5999 48.6999 42.5999H48.0999C44.5999 42.5999 41.8999 39.9999 41.8999 36.4999V26.9999C41.8999 23.4999 44.5999 20.8999 48.0999 20.8999H48.6999C52.1999 20.8999 54.8999 23.4999 54.8999 26.9999V36.4999ZM45.7999 36.4999C45.7999 37.8999 46.7999 38.9999 48.1999 38.9999H48.6999C50.0999 38.9999 51.0999 37.8999 51.0999 36.4999V26.9999C51.0999 25.5999 50.0999 24.4999 48.6999 24.4999H48.1999C46.7999 24.4999 45.7999 25.5999 45.7999 26.9999V36.4999Z" fill="#007CC3"/>
<path d="M27 49.6998C27.6 48.7998 28.5 48.2998 29.6 48.2998C30.9 48.2998 31.9 48.7998 32.5 49.6998C33.1 48.7998 34 48.2998 35.1 48.2998C37.4 48.2998 38.6 49.6998 38.6 52.0998V59.0998H36V51.9998C36 51.2998 35.5 50.7998 34.8 50.7998H34.3C33.6 50.7998 33.1 51.2998 33.1 51.8998V59.0998H30.5V51.9998C30.5 51.2998 30 50.7998 29.3 50.7998H28.8C28.1 50.7998 27.6 51.2998 27.6 51.9998V59.0998H25V48.4998H26.2L27 49.6998Z" fill="#007CC3"/>
<path d="M41.2998 44.5999H43.8998V46.6999H41.2998V44.5999ZM41.2998 59.1999V48.4999H43.8998V59.0999H41.2998V59.1999Z" fill="#007CC3"/>
<path d="M48.5 49.6998C49.1 48.7998 50.1 48.2998 51.2 48.2998C53.5 48.2998 54.8 49.6998 54.8 52.0998V59.0998H52.2V51.9998C52.2 51.2998 51.7 50.7998 51 50.7998H50.3C49.6 50.7998 49.1 51.2998 49.1 51.9998V59.0998H46.5V48.4998H47.7L48.5 49.6998Z" fill="#007CC3"/>
</g>
<defs>
<clipPath id="clip0_1108_428">
<rect width="80" height="80" fill="white"/>
</clipPath>
</defs>
</svg>
