<?xml version="1.0" encoding="utf-8"?>
<!-- Generator: Adobe Illustrator 24.1.1, SVG Export Plug-In . SVG Version: 6.00 Build 0)  -->
<svg version="1.1" id="Capa_1" xmlns="http://www.w3.org/2000/svg" xmlns:xlink="http://www.w3.org/1999/xlink" x="0px" y="0px"
	 viewBox="0 0 74.97 74.97" style="enable-background:new 0 0 74.97 74.97;" xml:space="preserve">
<style type="text/css">
	.st0{fill:#FFFFFF;}
	.st1{fill:#F45B6A;}
	.st2{fill:#F5A4C7;}
	.st3{fill:#F173AC;}
	.st4{fill:#D9D9D9;}
</style>
<g>
	<g>
		<g>
			<g>
				<path class="st0" d="M37.48,72.19c-19.14,0-34.71-15.57-34.71-34.71c0-19.14,15.57-34.71,34.71-34.71
					c19.14,0,34.71,15.57,34.71,34.71C72.19,56.62,56.62,72.19,37.48,72.19z"/>
			</g>
			<g>
				<path class="st1" d="M37.48,5.55c17.61,0,31.93,14.32,31.93,31.93S55.09,69.41,37.48,69.41S5.55,55.09,5.55,37.48
					S19.88,5.55,37.48,5.55 M37.48,0C16.78,0,0,16.78,0,37.48c0,20.7,16.78,37.48,37.48,37.48c20.7,0,37.48-16.78,37.48-37.48
					C74.97,16.78,58.18,0,37.48,0L37.48,0z"/>
			</g>
		</g>
		<g>
			
				<rect x="0.85" y="34.71" transform="matrix(0.707 -0.7072 0.7072 0.707 -15.5257 37.4891)" class="st1" width="73.26" height="5.55"/>
		</g>
	</g>
	<g>
		<g>
			<path class="st2" d="M58.83,30.56l-9.18-9.25c-6.71-6.76-17.64-6.76-24.34,0l-9.18,9.25"/>
		</g>
		<g>
			<path class="st3" d="M57.47,57.38H17.49c-0.75,0-1.36-0.61-1.36-1.36V30.56h42.7v25.46C58.83,56.77,58.22,57.38,57.47,57.38z"/>
		</g>
		<g>
			<path class="st4" d="M51.45,54.84H23.51c-0.75,0-1.36-0.61-1.36-1.36V16.73c0-0.75,0.61-1.36,1.36-1.36h27.94
				c0.75,0,1.36,0.61,1.36,1.36v36.76C52.81,54.24,52.2,54.84,51.45,54.84z"/>
		</g>
		<g>
			<path class="st2" d="M37.48,43.97l20.92,13.14c0.26-0.21,0.42-0.53,0.42-0.88V30.56L37.48,43.97z"/>
		</g>
		<g>
			<path class="st2" d="M37.48,43.97L16.56,57.11c-0.26-0.21-0.42-0.53-0.42-0.88V30.56L37.48,43.97z"/>
		</g>
		<g>
			<path class="st3" d="M57.68,57.38c0.31,0,0.59-0.12,0.79-0.32L40.29,40.81c-1.55-1.38-4.06-1.38-5.61,0L16.49,57.06
				c0.21,0.2,0.48,0.32,0.79,0.32H57.68z"/>
		</g>
	</g>
	<g>
		<circle class="st0" cx="37.48" cy="37.48" r="14.72"/>
	</g>
	<g>
		<circle class="st1" cx="37.48" cy="37.48" r="13.06"/>
	</g>
	<g>
		<g>
			<path class="st0" d="M38.42,39.52h-1.87l-0.51-8.65h2.89L38.42,39.52z M36.13,41.39h2.7v2.7h-2.7V41.39z"/>
		</g>
	</g>
</g>
</svg>
