<?xml version="1.0" encoding="utf-8"?>
<!-- Generator: Adobe Illustrator 24.1.1, SVG Export Plug-In . SVG Version: 6.00 Build 0)  -->
<svg version="1.1" id="Capa_1" xmlns="http://www.w3.org/2000/svg" xmlns:xlink="http://www.w3.org/1999/xlink" x="0px" y="0px"
	 viewBox="0 0 74.97 74.97" style="enable-background:new 0 0 74.97 74.97;" xml:space="preserve">
<style type="text/css">
	.st0{fill:#FFFFFF;}
	.st1{fill:#F45B6A;}
	.st2{fill:#FFFFFF;stroke:#F45B6A;stroke-width:5.553;stroke-miterlimit:10;}
	.st3{fill:#F4C6DE;}
	.st4{fill:#FC90CE;}
	.st5{fill:#007CC3;}
	.st6{fill:#D9D9D9;}
	.st7{fill:#BFBFBF;}
	.st8{fill:#FEFEFE;}
	.st9{fill:none;stroke:#FC90CE;stroke-width:1.0402;stroke-miterlimit:10;}
	.st10{fill:#F5A4C7;}
</style>
<g>
	<g>
		<g>
			<circle class="st0" cx="37.48" cy="37.48" r="34.71"/>
			<path class="st1" d="M37.48,5.55c17.61,0,31.93,14.32,31.93,31.93S55.09,69.41,37.48,69.41S5.55,55.09,5.55,37.48
				S19.88,5.55,37.48,5.55 M37.48,0C16.78,0,0,16.78,0,37.48s16.78,37.48,37.48,37.48s37.48-16.78,37.48-37.48S58.18,0,37.48,0
				L37.48,0z"/>
		</g>
		<line class="st2" x1="63.38" y1="11.58" x2="11.58" y2="63.38"/>
	</g>
	<g>
		<g>
			<path class="st0" d="M25.13,36.44c2.4,0.16,4.6,1.25,6.18,3.06c1.58,1.81,2.37,4.13,2.21,6.54c-0.16,2.4-1.25,4.6-3.06,6.18
				c-1.81,1.58-4.13,2.37-6.54,2.21c-2.4-0.16-4.6-1.25-6.18-3.06c-1.58-1.81-2.37-4.13-2.21-6.54c0.16-2.4,1.25-4.6,3.06-6.18
				C20.4,37.06,22.72,36.28,25.13,36.44"/>
			<path class="st0" d="M25.28,34.09c-6.27-0.42-11.68,4.32-12.1,10.58s4.32,11.68,10.58,12.1s11.68-4.32,12.1-10.58
				C36.29,39.93,31.55,34.51,25.28,34.09L25.28,34.09z"/>
			<path class="st7" d="M25.13,36.44c2.4,0.16,4.6,1.25,6.18,3.06c1.58,1.81,2.37,4.13,2.21,6.54c-0.16,2.4-1.25,4.6-3.06,6.18
				c-1.81,1.58-4.13,2.37-6.54,2.21c-2.4-0.16-4.6-1.25-6.18-3.06c-1.58-1.81-2.37-4.13-2.21-6.54c0.16-2.4,1.25-4.6,3.06-6.18
				C20.4,37.06,22.72,36.28,25.13,36.44 M25.28,34.09c-6.27-0.42-11.68,4.32-12.1,10.58s4.32,11.68,10.58,12.1
				s11.68-4.32,12.1-10.58C36.29,39.93,31.55,34.51,25.28,34.09L25.28,34.09z"/>
			<g>
				<path class="st4" d="M23.39,26.84c-0.13,0-0.26,0.05-0.35,0.14l-1.11,1.05c-0.16,0.15-0.21,0.39-0.11,0.59l1.87,3.94l1.7,0.11
					l1.7,0.11l2.38-3.66c0.12-0.19,0.11-0.43-0.03-0.6l-0.96-1.19c-0.09-0.11-0.22-0.18-0.36-0.19L25.76,27l-2.34-0.16
					C23.41,26.84,23.4,26.84,23.39,26.84L23.39,26.84z"/>
			</g>
			<path class="st7" d="M27.01,32.78l-3.27-0.22c-0.29-0.02-0.54,0.19-0.58,0.47l-0.31,2.31l4.66,0.31l0-2.33
				C27.52,33.04,27.3,32.8,27.01,32.78z"/>
			<path class="st3" d="M27.07,32.79l0.46-0.71c0.12-1.8-3.19-1.4-3.11-2.65c0.08-1.26,2.37-1.25,2.44-2.35L25.76,27l-2.34-0.16
				c-0.14-0.01-0.28,0.04-0.39,0.14l-1.11,1.05c-0.16,0.15-0.21,0.39-0.11,0.59l1.87,3.94l1.7,0.11L27.07,32.79z"/>
		</g>
		<g>
			<g>
				<path class="st3" d="M46.63,21.29l7.15-1.99c0.23-0.06,0.48,0.04,0.59,0.25l4.55,8.4"/>
				<path class="st3" d="M54.08,48.08l7.15-1.99c0.23-0.06,0.39-0.28,0.38-0.52l-0.44-9.54"/>
				<path class="st3" d="M46.63,21.29l-7.15,1.99c-0.23,0.06-0.39,0.28-0.38,0.52l0.44,9.54"/>
				<path class="st3" d="M54.08,48.08l-7.15,1.99c-0.23,0.06-0.48-0.04-0.59-0.25l-4.55-8.4"/>
			</g>
			<path class="st5" d="M60.15,54.28l-8.05,2.24c-0.88,0.25-1.8-0.27-2.04-1.15L39.41,17.12c-0.25-0.88,0.27-1.8,1.15-2.04
				l8.05-2.24c0.88-0.25,1.8,0.27,2.04,1.15L61.3,52.24C61.55,53.12,61.03,54.04,60.15,54.28z"/>
			<path class="st3" d="M62.93,32.66l-1.53,0.43c-0.33,0.09-0.68-0.1-0.77-0.44l-0.43-1.53c-0.09-0.33,0.1-0.68,0.44-0.77l1.53-0.43
				c0.33-0.09,0.68,0.1,0.77,0.44l0.43,1.53C63.45,32.22,63.26,32.57,62.93,32.66z"/>
			<circle class="st4" cx="50.36" cy="34.68" r="11.84"/>
			<circle class="st8" cx="50.36" cy="34.68" r="9.49"/>
			<g>
				<g>
					<g>
						<polyline class="st9" points="55.38,33.29 50.36,34.68 48.96,29.66 						"/>
					</g>
				</g>
			</g>
		</g>
	</g>
</g>
</svg>
