<?xml version="1.0" encoding="utf-8"?>
<!-- Generator: Adobe Illustrator 24.1.1, SVG Export Plug-In . SVG Version: 6.00 Build 0)  -->
<svg version="1.1" id="Capa_1" xmlns="http://www.w3.org/2000/svg" xmlns:xlink="http://www.w3.org/1999/xlink" x="0px" y="0px"
	 viewBox="0 0 89.71 74.97" style="enable-background:new 0 0 89.71 74.97;" xml:space="preserve">
<style type="text/css">
	.st0{fill:#D9D9D9;}
	.st1{fill:#BFBFBF;}
	.st2{fill:#F5A4C7;}
	.st3{fill:none;}
	.st4{fill:#FC90CE;}
	.st5{fill:#F4C6DE;}
	.st6{fill:#FFFFFF;}
	.st7{fill:#F45B6A;}
	.st8{fill:#F173AC;}
	.st9{fill:#007CC3;}
	.st10{fill-rule:evenodd;clip-rule:evenodd;fill:#F173AC;}
</style>
<g>
	<g>
		<path class="st9" d="M80.79,36.17c1.59-0.03,1.59-0.03,1.59,1.56c0,0.17-0.01,0.34,0,0.51c0.03,0.35-0.09,0.49-0.47,0.48
			c-1.63-0.04-3.26-0.1-4.89-0.26c-0.08-0.01-0.2,0.02-0.25-0.02c-0.5-0.42-0.14-0.98-0.22-1.47c-0.04-0.22-0.11-0.54,0.3-0.57
			c0.3-0.02,0.59-0.08,0.88-0.09C78.75,36.25,79.77,36.21,80.79,36.17z"/>
		<path class="st9" d="M77.2,35.12c-0.74,0.02-0.74,0.02-0.79-0.96c-0.06-1.04-0.06-1.06,0.98-1.24c1.42-0.24,2.84-0.46,4.25-0.69
			c0.23-0.04,0.36,0,0.38,0.27c0.07,0.65,0.16,1.3,0.24,1.95c0.04,0.31-0.1,0.4-0.4,0.41C80.38,34.94,78.9,35.03,77.2,35.12z"/>
		<path class="st9" d="M51.67,0.55C52.3,0.69,53,0.84,53.7,1.01c0.22,0.05,0.22,0.2,0.17,0.4c-0.44,1.63-0.88,3.27-1.31,4.91
			c-0.07,0.26-0.17,0.38-0.44,0.26c-0.1-0.04-0.21-0.04-0.31-0.07c-1.42-0.33-1.41-0.33-1.15-1.78c0.22-1.25,0.41-2.5,0.61-3.75
			C51.3,0.76,51.27,0.52,51.67,0.55z"/>
		<path class="st9" d="M71.89,11.5c0.09,0.07,0.2,0.14,0.28,0.23c0.4,0.44,0.79,0.89,1.2,1.31c0.22,0.23,0.18,0.35-0.06,0.54
			c-1.31,1.04-2.6,2.1-3.89,3.18c-0.24,0.2-0.34,0.17-0.55-0.05c-1.18-1.24-1.18-1.23,0.03-2.44c0.79-0.8,1.59-1.59,2.39-2.38
			C71.45,11.72,71.62,11.55,71.89,11.5z"/>
		<path class="st9" d="M61.53,10.43c-0.13,0.01-1.55-0.86-1.59-0.99C59.88,9.26,60,9.11,60.07,8.96c0.72-1.42,1.45-2.84,2.18-4.26
			c0.11-0.21,0.19-0.44,0.51-0.23c0.54,0.34,1.09,0.66,1.65,0.97c0.24,0.14,0.28,0.28,0.13,0.51c-0.92,1.43-1.84,2.86-2.76,4.28
			C61.73,10.33,61.69,10.44,61.53,10.43z"/>
		<path class="st9" d="M55.36,7.52c-0.46-0.15-0.98-0.32-1.5-0.51c-0.2-0.07-0.14-0.22-0.09-0.37c0.44-1.63,0.89-3.27,1.32-4.91
			c0.07-0.28,0.19-0.35,0.45-0.26c0.6,0.2,1.21,0.4,1.81,0.6c0.26,0.08,0.33,0.23,0.23,0.48c-0.61,1.58-1.21,3.17-1.81,4.75
			C55.7,7.46,55.61,7.57,55.36,7.52z"/>
		<path class="st9" d="M68.94,8.75c0.07,0.02,0.12,0.02,0.15,0.04c0.56,0.52,1.13,1.02,1.67,1.56c0.15,0.15-0.04,0.33-0.15,0.44
			c-1.16,1.18-2.25,2.44-3.52,3.48c-0.61,0.5-0.93-0.52-1.41-0.8c-0.29-0.17-0.3-0.39-0.06-0.67c1.06-1.27,2.09-2.55,3.13-3.83
			C68.81,8.89,68.88,8.82,68.94,8.75z"/>
		<path class="st9" d="M47.19,4.92c0.08-1.5,0.16-3,0.23-4.5c0.01-0.31,0.13-0.42,0.43-0.39c0.65,0.08,1.3,0.17,1.95,0.24
			c0.27,0.03,0.29,0.18,0.26,0.4c-0.25,1.61-0.51,3.22-0.76,4.82c-0.06,0.41-0.24,0.61-0.69,0.47c-0.18-0.06-0.38-0.06-0.56-0.07
			C47.16,5.84,47.16,5.84,47.19,4.92z"/>
		<path class="st9" d="M77.92,19.72c-0.03,0.22-0.2,0.25-0.32,0.31c-1.43,0.74-2.87,1.47-4.3,2.21c-0.33,0.17-0.52,0.12-0.72-0.2
			c-0.86-1.31-0.86-1.3,0.42-2.13c1.05-0.68,2.1-1.35,3.13-2.06c0.41-0.28,0.65-0.26,0.87,0.22c0.22,0.48,0.51,0.93,0.78,1.39
			C77.83,19.56,77.88,19.65,77.92,19.72z"/>
		<path class="st9" d="M58.54,8.82c-0.52-0.24-1.05-0.46-1.56-0.73c-0.2-0.1-0.08-0.3-0.02-0.45c0.59-1.52,1.19-3.04,1.76-4.57
			c0.11-0.3,0.22-0.41,0.54-0.25c0.53,0.26,1.08,0.49,1.63,0.72c0.31,0.13,0.36,0.3,0.21,0.59c-0.73,1.44-1.45,2.88-2.19,4.32
			C58.85,8.6,58.79,8.81,58.54,8.82z"/>
		<path class="st9" d="M76.27,31.83c-0.48-0.39-0.31-1.11-0.54-1.66c-0.15-0.36,0.12-0.39,0.34-0.45c1.6-0.42,3.2-0.83,4.79-1.27
			c0.33-0.09,0.43,0.04,0.49,0.3c0.14,0.6,0.25,1.2,0.39,1.8c0.06,0.27-0.04,0.42-0.29,0.46C79.77,31.27,78.1,31.53,76.27,31.83z"/>
		<path class="st9" d="M74.43,25.41c-0.15,0.01-0.23-0.05-0.27-0.15c-0.22-0.48-0.45-0.96-0.65-1.45c-0.1-0.23,0.11-0.29,0.25-0.37
			c1.47-0.75,2.95-1.5,4.42-2.26c0.3-0.16,0.47-0.08,0.59,0.22c0.23,0.55,0.47,1.09,0.71,1.63c0.09,0.21,0.18,0.37-0.14,0.49
			c-1.59,0.6-3.17,1.22-4.75,1.83C74.53,25.38,74.47,25.39,74.43,25.41z"/>
		<path class="st9" d="M80.85,26.88c0.02,0.27-0.18,0.3-0.37,0.35c-1.62,0.44-3.24,0.87-4.85,1.32c-0.21,0.06-0.33,0.03-0.38-0.19
			c-0.01-0.04-0.02-0.08-0.04-0.12c-0.61-1.55-0.61-1.55,0.94-2.14c1.09-0.42,2.2-0.81,3.27-1.27c0.57-0.24,0.8-0.1,0.93,0.47
			C80.47,25.83,80.68,26.35,80.85,26.88z"/>
		<path class="st9" d="M67.85,8c-0.06,0.08-0.13,0.21-0.22,0.32c-0.99,1.22-1.99,2.43-2.95,3.66c-0.24,0.31-0.42,0.32-0.73,0.12
			c-1.34-0.85-1.35-0.85-0.46-2.2c0.7-1.06,1.4-2.12,2.08-3.2c0.2-0.31,0.36-0.35,0.64-0.12c0.46,0.37,0.95,0.71,1.43,1.06
			C67.74,7.73,67.86,7.79,67.85,8z"/>
		<path class="st0" d="M10.62,38.58c-0.79-0.12-1.73,0.18-2.68,0.14c-0.43-0.02-0.63-0.14-0.61-0.59c0.02-0.51,0.02-1.02,0-1.53
			c-0.01-0.33,0.12-0.46,0.45-0.44c1.67,0.11,3.34,0.07,5,0.24c0.34,0.04,0.44,0.17,0.42,0.48c-0.01,0.15,0,0.3,0,0.45
			c0,1.23,0,1.23-1.27,1.26C11.55,38.59,11.17,38.58,10.62,38.58z"/>
		<path class="st9" d="M75.87,16.36c0.02,0.23-0.15,0.28-0.27,0.35c-1.35,0.88-2.7,1.75-4.04,2.65c-0.35,0.23-0.53,0.16-0.77-0.16
			c-0.89-1.23-0.9-1.22,0.29-2.18c0.94-0.76,1.88-1.51,2.81-2.29c0.36-0.3,0.61-0.38,0.89,0.1c0.25,0.44,0.59,0.83,0.89,1.24
			C75.75,16.17,75.82,16.28,75.87,16.36z"/>
		<path class="st0" d="M43.59,73.46c0.26-1.12,0-2.55,0.25-3.95c0.01-0.06-0.02-0.15,0.02-0.19c0.48-0.46,1.07-0.13,1.61-0.22
			c0.28-0.05,0.38,0.1,0.44,0.39c0.09,0.53,0.14,1.05,0.11,1.58c-0.07,1.08,0.16,2.15,0.14,3.23c-0.01,0.35-0.09,0.53-0.46,0.6
			c-0.28,0.05-0.54,0.07-0.82,0.07C43.59,74.97,43.59,74.97,43.59,73.46z"/>
		<path class="st0" d="M10.41,39.86c0.77,0.12,1.52-0.14,2.28-0.14c0.44,0,0.61,0.19,0.63,0.6c0.02,0.38-0.05,0.76,0.08,1.14
			c0.1,0.28-0.14,0.3-0.33,0.33c-0.94,0.16-1.87,0.38-2.81,0.47c-0.72,0.07-1.4,0.31-2.13,0.31c-0.37,0-0.37-0.08-0.46-0.37
			c-0.2-0.62,0.02-1.28-0.2-1.89c-0.08-0.24,0.1-0.35,0.33-0.33C8.68,40.05,9.54,39.75,10.41,39.86z"/>
		<path class="st0" d="M42.57,69.73c-0.12,1.62-0.26,3.16-0.26,4.71c0,0.2-0.03,0.46-0.29,0.38c-0.68-0.2-1.4-0.01-2.08-0.22
			c-0.29-0.09-0.32-0.21-0.28-0.45c0.25-1.58,0.49-3.17,0.75-4.75c0.06-0.36,0.16-0.66,0.66-0.46c0.22,0.09,0.51,0.01,0.76,0.04
			C42.32,69.04,42.73,69.17,42.57,69.73z"/>
		<path class="st0" d="M13.24,57.2c-0.25,0.03-0.3-0.14-0.37-0.26c-0.32-0.52-0.62-1.06-0.95-1.57c-0.16-0.24-0.1-0.38,0.14-0.5
			c1.52-0.76,3.03-1.51,4.55-2.28c0.25-0.13,0.39-0.05,0.51,0.18c0.09,0.19,0.19,0.38,0.31,0.56c0.54,0.85,0.57,0.89-0.27,1.4
			c-1.18,0.71-2.32,1.47-3.44,2.25C13.54,57.08,13.36,57.14,13.24,57.2z"/>
		<path class="st0" d="M27.15,70.49c-0.51-0.3-1-0.58-1.49-0.87c-0.71-0.42-0.72-0.32-0.19-1.11c0.79-1.19,1.55-2.41,2.3-3.62
			c0.21-0.33,0.4-0.42,0.78-0.24c1.38,0.64,1.42,0.72,0.74,2.05c-0.59,1.15-1.18,2.29-1.78,3.43
			C27.42,70.27,27.38,70.48,27.15,70.49z"/>
		<path class="st0" d="M8.19,32.27c1.73,0.28,3.25,0.52,4.77,0.76c0.37,0.06,0.61,0.18,0.42,0.62c-0.06,0.15-0.05,0.33-0.05,0.5
			c-0.02,0.98-0.1,1.07-1.08,0.97c-1.43-0.14-2.87-0.26-4.31-0.25c-0.39,0-0.57-0.1-0.43-0.52c0.16-0.47,0.07-0.96,0.15-1.45
			C7.75,32.41,7.76,32.05,8.19,32.27z"/>
		<path class="st0" d="M81.59,42.61c-1.77-0.29-3.31-0.54-4.85-0.79c-0.36-0.06-0.55-0.17-0.4-0.58c0.07-0.17,0.06-0.38,0.06-0.56
			c0.02-0.93,0.07-1.01,0.99-0.93c1.48,0.13,2.95,0.25,4.44,0.25c0.37,0,0.52,0.12,0.4,0.5c-0.16,0.49-0.09,1.01-0.16,1.51
			C81.99,42.51,81.9,42.73,81.59,42.61z"/>
		<path class="st0" d="M19.68,56.82c-0.03,0.22-0.2,0.33-0.34,0.45c-1.19,0.98-2.38,1.95-3.57,2.93c-0.28,0.23-0.52,0.24-0.75-0.07
			c-0.34-0.48-0.69-0.96-1.05-1.43c-0.17-0.22-0.14-0.35,0.1-0.51c1.31-0.85,2.61-1.71,3.91-2.59c0.49-0.34,0.83-0.29,1.09,0.27
			C19.23,56.21,19.58,56.44,19.68,56.82z"/>
		<path class="st0" d="M47.17,69.66c-0.12-0.43,0.14-0.56,0.52-0.65c0.42-0.09,0.84-0.01,1.26-0.13c0.28-0.08,0.25,0.23,0.28,0.39
			c0.21,1.18,0.42,2.36,0.6,3.55c0.09,0.56,0.36,1.3,0.11,1.63c-0.26,0.34-1.05,0.27-1.62,0.26c-0.14,0-0.29,0.07-0.43,0.1
			c-0.31,0.06-0.48-0.03-0.48-0.39C47.42,72.85,47.29,71.27,47.17,69.66z"/>
		<path class="st0" d="M41.18,5.9c-0.42,0.16-0.72,0.04-0.77-0.53c-0.15-1.57-0.55-3.11-0.69-4.69c-0.03-0.33,0.02-0.39,0.33-0.41
			c0.59-0.05,1.17-0.14,1.75-0.23c0.34-0.05,0.51,0.03,0.51,0.42c0.02,1.2,0.08,2.41,0.12,3.61c0.01,0.15-0.01,0.3,0.01,0.44
			C42.62,5.86,42.62,5.85,41.18,5.9z"/>
		<path class="st0" d="M19.68,17.97c0,0.2-0.94,1.55-1.06,1.54c-0.42-0.03-0.72-0.34-1.05-0.54c-1.14-0.72-2.24-1.5-3.39-2.22
			c-0.35-0.22-0.37-0.38-0.13-0.68c0.33-0.41,0.63-0.85,0.93-1.28c0.23-0.32,0.48-0.37,0.79-0.11c1.19,0.98,2.38,1.95,3.57,2.93
			C19.49,17.71,19.59,17.87,19.68,17.97z"/>
		<path class="st0" d="M75.87,58.53c-0.19,0.25-0.39,0.52-0.6,0.79c-0.88,1.13-0.89,1.15-2,0.29c-0.97-0.75-1.9-1.54-2.86-2.3
			c-0.41-0.32-0.4-0.59-0.08-0.99c0.89-1.1,0.86-1.09,2.05-0.25c1.04,0.73,2.12,1.39,3.18,2.08C75.7,58.23,75.89,58.27,75.87,58.53z
			"/>
		<path class="st0" d="M13.89,28.47c-0.81-0.22-1.77-0.48-2.73-0.74c-0.63-0.17-1.26-0.35-1.9-0.5c-0.27-0.07-0.45-0.16-0.35-0.47
			c0.19-0.58,0.4-1.16,0.6-1.74c0.09-0.26,0.23-0.35,0.53-0.24c1.54,0.6,3.08,1.18,4.63,1.76c0.08,0.03,0.22,0.05,0.22,0.1
			c0.09,0.57-0.26,1.03-0.38,1.56C14.45,28.47,14.27,28.52,13.89,28.47z"/>
		<path class="st0" d="M75.68,46.34c0.77,0.22,1.54,0.45,2.32,0.66c0.82,0.22,1.63,0.44,2.46,0.64c0.26,0.06,0.47,0.14,0.37,0.46
			c-0.18,0.56-0.38,1.12-0.57,1.68c-0.1,0.3-0.24,0.45-0.61,0.3c-1.52-0.6-3.04-1.17-4.57-1.74c-0.28-0.1-0.37-0.21-0.25-0.51
			c0.15-0.37,0.27-0.76,0.38-1.15C75.28,46.44,75.42,46.32,75.68,46.34z"/>
		<path class="st0" d="M14.96,48.03c0.02,0.23-0.15,0.24-0.29,0.29c-1.54,0.59-3.09,1.17-4.63,1.76c-0.28,0.11-0.44,0.05-0.53-0.23
			c-0.21-0.6-0.43-1.19-0.62-1.8c-0.07-0.23,0.07-0.35,0.29-0.41c1.57-0.42,3.14-0.85,4.72-1.27c0.33-0.09,0.56,0.02,0.66,0.39
			C14.67,47.21,14.83,47.62,14.96,48.03z"/>
		<path class="st0" d="M52.08,68.32c0.3-0.04,0.43,0.11,0.5,0.37c0.43,1.59,0.86,3.19,1.3,4.78c0.09,0.33-0.14,0.36-0.33,0.41
			c-0.62,0.15-1.24,0.28-1.85,0.41c-0.38,0.08-0.37-0.25-0.4-0.44c-0.2-1.1-0.37-2.21-0.55-3.31c-0.07-0.46-0.13-0.92-0.22-1.37
			c-0.07-0.34-0.07-0.57,0.39-0.6C51.3,68.54,51.69,68.41,52.08,68.32z"/>
		<path class="st0" d="M28.2,10.35c-0.17-0.01-0.25-0.13-0.33-0.26c-0.87-1.33-1.74-2.65-2.62-3.97c-0.18-0.28-0.27-0.51,0.13-0.71
			c0.53-0.27,1.03-0.59,1.53-0.91c0.28-0.19,0.41-0.09,0.54,0.16c0.74,1.5,1.49,2.99,2.24,4.49c0.06,0.11,0.12,0.23,0.06,0.36
			C29.69,9.64,28.37,10.36,28.2,10.35z"/>
		<path class="st0" d="M26.95,11.06c0.03,0.16-0.08,0.23-0.17,0.31c-1.19,1.04-1.21,1.07-2.25-0.1c-0.84-0.95-1.61-1.95-2.42-2.93
			c-0.26-0.32-0.2-0.57,0.12-0.79c0.46-0.33,0.93-0.67,1.38-1.01c0.18-0.13,0.32-0.19,0.47,0.05c0.92,1.42,1.84,2.83,2.77,4.25
			C26.89,10.91,26.91,10.99,26.95,11.06z"/>
		<path class="st0" d="M13.97,30.22c-0.09,0.43-0.18,0.87-0.28,1.3c-0.06,0.27-0.25,0.31-0.49,0.27c-1.56-0.25-3.12-0.5-4.69-0.76
			c-0.35-0.06-0.65-0.15-0.46-0.66c0.16-0.41,0.23-0.86,0.27-1.3c0.05-0.61,0.32-0.7,0.87-0.54c1.46,0.43,2.93,0.83,4.4,1.21
			C13.88,29.82,14.02,29.92,13.97,30.22z"/>
		<path class="st0" d="M13.96,44.58c0.01,0.31-0.01,0.45-0.27,0.52c-1.62,0.42-3.23,0.85-4.84,1.3c-0.31,0.09-0.38-0.04-0.43-0.27
			c-0.14-0.62-0.28-1.24-0.41-1.86c-0.09-0.42,0.28-0.39,0.48-0.43c1.1-0.2,2.21-0.36,3.31-0.54c0.44-0.07,0.88-0.12,1.31-0.21
			c0.32-0.07,0.54-0.03,0.6,0.35C13.79,43.86,13.89,44.27,13.96,44.58z"/>
		<path class="st0" d="M76.35,43.06c1.2,0.19,2.33,0.37,3.45,0.55c0.35,0.06,0.7,0.15,1.06,0.2c0.95,0.15,0.96,0.14,0.75,1.08
			c-0.11,0.49-0.1,1.14-0.41,1.44c-0.36,0.35-0.93-0.12-1.41-0.23c-1.26-0.29-2.49-0.67-3.74-1c-0.21-0.05-0.31-0.15-0.28-0.35
			c0.09-0.5,0.18-1,0.3-1.49C76.1,43.1,76.26,43.06,76.35,43.06z"/>
		<path class="st0" d="M61.41,64.51c0.27,0,0.35,0.12,0.44,0.25c0.88,1.34,1.77,2.69,2.65,4.03c0.17,0.26,0.22,0.48-0.14,0.66
			c-0.53,0.27-1.03,0.58-1.53,0.91c-0.27,0.18-0.41,0.13-0.54-0.14c-0.74-1.5-1.49-2.99-2.25-4.48c-0.14-0.27-0.09-0.42,0.18-0.56
			C60.65,64.96,61.06,64.71,61.41,64.51z"/>
		<path class="st0" d="M37.62,6.55c-0.26,0.03-0.39-0.1-0.45-0.34c-0.41-1.59-0.82-3.19-1.26-4.78c-0.08-0.3,0.02-0.38,0.26-0.44
			c0.62-0.14,1.24-0.27,1.85-0.41c0.43-0.1,0.4,0.27,0.44,0.47c0.16,0.81,0.28,1.62,0.41,2.43c0.12,0.75,0.23,1.5,0.36,2.25
			c0.05,0.31,0.06,0.53-0.36,0.57C38.44,6.33,38.03,6.46,37.62,6.55z"/>
		<path class="st0" d="M37.59,68.32c0.48,0.09,0.95,0.18,1.43,0.28c0.27,0.05,0.24,0.27,0.21,0.46c-0.25,1.58-0.51,3.16-0.77,4.75
			c-0.06,0.38-0.19,0.6-0.68,0.43c-0.47-0.17-0.99-0.2-1.49-0.3c-0.32-0.07-0.5-0.17-0.38-0.59c0.43-1.52,0.81-3.06,1.22-4.59
			C37.19,68.51,37.26,68.27,37.59,68.32z"/>
		<path class="st0" d="M17.78,20.77c0.01,0.13-0.74,1.5-0.85,1.55c-0.16,0.08-0.29-0.02-0.42-0.08c-1.42-0.71-2.84-1.43-4.26-2.13
			c-0.38-0.19-0.41-0.45-0.22-0.78c0.27-0.46,0.56-0.9,0.8-1.37c0.17-0.35,0.38-0.35,0.66-0.17c1.32,0.87,2.65,1.75,3.97,2.62
			C17.61,20.5,17.77,20.57,17.78,20.77z"/>
		<path class="st0" d="M72.99,52.52c0.08,0.04,0.21,0.1,0.34,0.16c1.33,0.66,2.64,1.34,3.98,1.98c0.51,0.25,0.6,0.53,0.3,0.99
			c-0.26,0.41-0.52,0.82-0.74,1.26c-0.18,0.37-0.4,0.31-0.66,0.14c-1.32-0.87-2.64-1.75-3.98-2.61c-0.3-0.19-0.37-0.37-0.19-0.67
			c0.2-0.35,0.4-0.7,0.59-1.05C72.71,52.62,72.77,52.5,72.99,52.52z"/>
		<path class="st0" d="M35.9,68.41c-0.04,0.14-0.14,0.46-0.23,0.79c-0.35,1.31-0.69,2.61-1.04,3.92c-0.07,0.26-0.21,0.35-0.47,0.26
			c-0.58-0.2-1.15-0.41-1.73-0.61c-0.29-0.1-0.32-0.26-0.22-0.53c0.59-1.54,1.18-3.09,1.77-4.63c0.03-0.08,0.06-0.21,0.1-0.22
			c0.57-0.06,1.04,0.28,1.56,0.4C35.89,67.85,35.95,68,35.9,68.41z"/>
		<path class="st0" d="M35.93,6.68c0.02,0.15-0.03,0.32-0.3,0.4c-0.41,0.11-0.81,0.26-1.21,0.4c-0.22,0.08-0.34,0.07-0.44-0.18
			c-0.59-1.59-1.19-3.17-1.8-4.75c-0.09-0.24-0.01-0.36,0.2-0.44c0.6-0.21,1.19-0.42,1.79-0.64c0.22-0.08,0.38,0,0.44,0.22
			c0.43,1.59,0.86,3.18,1.29,4.77C35.93,6.51,35.92,6.56,35.93,6.68z"/>
		<path class="st0" d="M53.8,68.22c-0.02-0.22,0.07-0.33,0.28-0.43c1.43-0.66,1.49-0.65,2.05,0.83c0.44,1.17,0.89,2.34,1.35,3.5
			c0.17,0.41,0.06,0.6-0.37,0.71c-0.51,0.14-1,0.34-1.49,0.53c-0.27,0.11-0.45,0.07-0.53-0.24c-0.42-1.55-0.84-3.1-1.26-4.65
			C53.81,68.39,53.81,68.3,53.8,68.22z"/>
		<path class="st9" d="M44.84,0.02c1.31,0,1.34,0,1.29,1.3c-0.05,1.37-0.07,2.75-0.29,4.1c-0.11,0.73-0.88,0.22-1.34,0.32
			c-0.24,0.05-0.63,0.17-0.66-0.33c-0.04-0.63-0.14-1.27-0.11-1.89c0.03-0.94-0.11-1.86-0.16-2.79c-0.03-0.61,0.2-0.8,0.76-0.72
			C44.5,0.04,44.67,0.02,44.84,0.02z"/>
		<path class="st0" d="M26.95,63.79c-0.07,0.14-0.13,0.32-0.24,0.48c-0.83,1.25-1.69,2.49-2.49,3.75c-0.25,0.39-0.45,0.43-0.79,0.15
			c-0.41-0.33-0.85-0.63-1.28-0.93c-0.32-0.22-0.24-0.46-0.05-0.7c0.97-1.2,1.96-2.39,2.93-3.59c0.28-0.35,0.55-0.4,0.9-0.09
			c0.25,0.22,0.53,0.42,0.81,0.62C26.83,63.55,26.95,63.6,26.95,63.79z"/>
		<path class="st0" d="M24.3,13.16c-0.2,0.35-0.52,0.57-0.78,0.84c-0.44,0.46-0.77,0.41-1.22-0.07c-0.96-1.04-1.98-2.04-3.01-3.02
			c-0.44-0.41-0.37-0.71,0.06-1.01c0.4-0.28,0.76-0.61,1.09-0.97c0.23-0.26,0.42-0.24,0.61,0.03c0.93,1.34,2.03,2.54,3.04,3.81
			C24.18,12.89,24.23,13.03,24.3,13.16z"/>
		<path class="st0" d="M64.23,62.61c0.24,0.02,0.35,0.19,0.47,0.33c0.98,1.19,1.96,2.39,2.93,3.58c0.19,0.23,0.29,0.47-0.04,0.7
			c-0.45,0.32-0.9,0.63-1.33,0.97c-0.3,0.23-0.49,0.23-0.71-0.11c-0.86-1.34-1.73-2.66-2.61-3.98c-0.21-0.31-0.18-0.5,0.17-0.71
			C63.49,63.16,63.81,62.81,64.23,62.61z"/>
		<path class="st0" d="M32.83,66.93c-0.09,0.22-0.16,0.42-0.24,0.62c-0.54,1.4-1.1,2.79-1.61,4.2c-0.15,0.42-0.32,0.41-0.65,0.24
			c-0.45-0.23-0.91-0.47-1.39-0.62c-0.48-0.16-0.43-0.38-0.25-0.74c0.71-1.38,1.4-2.76,2.07-4.15c0.18-0.37,0.36-0.46,0.72-0.29
			c0.36,0.18,0.73,0.34,1.1,0.5C32.73,66.74,32.81,66.81,32.83,66.93z"/>
		<path class="st0" d="M32.86,7.96c-0.36,0.34-0.88,0.46-1.33,0.68c-0.16,0.08-0.41,0.32-0.6-0.01c-0.05-0.09-0.1-0.19-0.15-0.28
			c-0.69-1.38-1.37-2.77-2.09-4.14c-0.21-0.41-0.14-0.58,0.28-0.73c0.5-0.18,0.97-0.42,1.45-0.65c0.25-0.12,0.41-0.13,0.53,0.18
			c0.59,1.58,1.21,3.16,1.82,4.73C32.78,7.79,32.8,7.83,32.86,7.96z"/>
		<path class="st0" d="M58.58,66.08c0.17-0.02,0.21,0.11,0.27,0.22c0.76,1.52,1.52,3.04,2.28,4.56c0.11,0.22,0.06,0.33-0.18,0.43
			c-0.57,0.23-1.13,0.49-1.68,0.76c-0.3,0.14-0.4,0.03-0.51-0.24c-0.58-1.55-1.18-3.09-1.77-4.63c-0.04-0.11-0.16-0.26-0.02-0.34
			C57.48,66.54,58.01,66.25,58.58,66.08z"/>
		<path class="st0" d="M69,66.02c-0.28-0.1-0.47-0.37-0.67-0.61c-0.88-1.07-1.75-2.17-2.63-3.24c-0.25-0.31-0.31-0.53,0.02-0.85
			c1.04-1.03,1.03-1.04,2.03-0.04c0.9,0.9,1.79,1.81,2.7,2.69c0.36,0.34,0.4,0.6,0,0.92c-0.38,0.31-0.73,0.64-1.09,0.96
			C69.27,65.94,69.18,66.03,69,66.02z"/>
		<path class="st0" d="M16.21,51.14c0.04,0.25-0.21,0.27-0.36,0.35c-1.44,0.74-2.87,1.47-4.31,2.21c-0.25,0.13-0.42,0.12-0.54-0.19
			c-0.23-0.57-0.49-1.13-0.76-1.68c-0.13-0.26-0.04-0.38,0.21-0.47c1.54-0.59,3.08-1.19,4.63-1.79c0.12-0.05,0.29-0.19,0.4,0
			C15.76,50.06,16.04,50.56,16.21,51.14z"/>
		<path class="st0" d="M16.21,23.73c-0.18,0.58-0.45,1.09-0.74,1.58c-0.12,0.2-0.32,0.03-0.46-0.03c-1.5-0.58-3-1.18-4.51-1.75
			c-0.33-0.12-0.39-0.26-0.24-0.56c0.25-0.51,0.5-1.03,0.71-1.57c0.12-0.31,0.27-0.39,0.57-0.24c1.44,0.74,2.88,1.47,4.31,2.21
			C16.01,23.46,16.26,23.48,16.21,23.73z"/>
		<path class="st0" d="M17.86,11.52c0.18,0.01,0.28,0.13,0.38,0.24c1.13,1.13,2.25,2.26,3.39,3.38c0.22,0.22,0.27,0.36,0.04,0.63
			c-0.99,1.16-0.99,1.19-2.19,0.27c-1.06-0.81-2.08-1.67-3.12-2.5c-0.19-0.15-0.24-0.28-0.06-0.46c0.47-0.49,0.94-0.98,1.41-1.47
			C17.75,11.56,17.81,11.55,17.86,11.52z"/>
		<path class="st0" d="M74.46,49.49c0.62,0.23,1.25,0.47,1.89,0.71c0.95,0.37,1.89,0.77,2.84,1.11c0.35,0.13,0.44,0.25,0.27,0.59
			c-0.26,0.51-0.5,1.03-0.71,1.56c-0.13,0.34-0.3,0.35-0.58,0.2c-1.42-0.73-2.83-1.47-4.26-2.16c-0.39-0.19-0.43-0.39-0.27-0.73
			c0.18-0.36,0.35-0.73,0.54-1.09C74.22,49.59,74.27,49.45,74.46,49.49z"/>
		<path class="st0" d="M73.46,61.69c-0.08,0.1-0.16,0.22-0.26,0.32c-0.28,0.29-0.62,0.54-0.82,0.88c-0.33,0.53-0.59,0.54-1.02,0.1
			c-1.03-1.07-2.08-2.12-3.15-3.15c-0.31-0.3-0.4-0.48-0.05-0.86c0.91-1,0.9-1.04,1.99-0.21c1.01,0.77,1.98,1.58,2.96,2.38
			C73.27,61.28,73.45,61.41,73.46,61.69z"/>
		<path class="st0" d="M20.71,66.01c-0.11-0.07-0.23-0.15-0.35-0.23c-1.6-1.09-1.62-1.26-0.31-2.58c0.84-0.84,1.69-1.67,2.52-2.52
			c0.25-0.25,0.42-0.28,0.67-0.01c0.23,0.24,0.5,0.45,0.77,0.66c0.34,0.25,0.3,0.51,0.06,0.8c-0.95,1.16-1.89,2.32-2.85,3.48
			C21.09,65.76,20.96,65.94,20.71,66.01z"/>
		<path class="st0" d="M17.88,63.37c-0.08-0.06-0.16-0.09-0.21-0.16c-0.33-0.47-0.78-0.83-1.15-1.27c-0.32-0.39-0.19-0.58,0.1-0.82
			c1.19-0.97,2.38-1.95,3.58-2.92c0.24-0.19,0.47-0.26,0.71,0.03c0.26,0.33,0.55,0.64,0.83,0.96c0.15,0.17,0.1,0.3-0.04,0.44
			c-1.19,1.18-2.37,2.37-3.56,3.55C18.08,63.25,17.99,63.3,17.88,63.37z"/>
	</g>
	<g>
		<g>
			<path class="st8" d="M30.79,39.81v-3.69h4.41v-13.5l-4.41,1.71v-3.69l4.71-1.83h3.48v17.31h4.41v3.69H30.79z"/>
			<path class="st8" d="M46.15,31.56l1.26-12.75h10.74v3.6h-7.44l-0.45,4.08c0.75-0.6,1.71-0.96,2.88-0.96h0.03
				c3.09,0,5.76,2.52,5.76,5.97v2.55c0,3.45-2.64,6.06-6.12,6.06h-0.6c-3.48,0-6.12-2.61-6.12-6.06v-0.09h3.78v0.09
				c0,1.41,0.99,2.46,2.4,2.46h0.48c1.41,0,2.4-1.05,2.4-2.46V31.5c0-1.41-0.99-2.46-2.4-2.46h-0.48c-1.41,0-2.4,1.05-2.4,2.46v0.06
				H46.15z"/>
		</g>
		<g>
			<path class="st8" d="M32.6,47.22c0.61-0.81,1.44-1.32,2.47-1.32h0.04c1.24,0,2.15,0.43,2.72,1.3c0.57-0.81,1.44-1.3,2.45-1.3
				h0.04c2.13,0,3.32,1.3,3.32,3.61v6.65H41.2v-6.73c0-0.69-0.47-1.16-1.16-1.16h-0.45c-0.65,0-1.1,0.45-1.16,1.08v6.81H36v-6.73
				c0-0.69-0.47-1.16-1.16-1.16h-0.45c-0.69,0-1.16,0.47-1.16,1.16v6.73h-2.43V46.09h1.12L32.6,47.22z"/>
			<path class="st8" d="M46.1,42.35h2.43v2.03H46.1V42.35z M46.1,56.16V46.09h2.43v10.06H46.1z"/>
			<path class="st8" d="M52.93,47.22c0.61-0.81,1.5-1.32,2.55-1.32h0.04c2.19,0,3.41,1.3,3.41,3.61v6.65H56.5v-6.73
				c0-0.69-0.47-1.16-1.16-1.16h-0.65c-0.69,0-1.16,0.47-1.16,1.16v6.73h-2.43V46.09h1.12L52.93,47.22z"/>
		</g>
	</g>
</g>
</svg>
