<svg id="Capa_1" data-name="Capa 1" xmlns="http://www.w3.org/2000/svg" viewBox="0 0 80 80"><defs><style>.cls-1{fill:#f45b6a;}.cls-2{fill:#d33737;}.cls-3{fill:#f7a6a9;}.cls-4{fill:#facf5f;}.cls-5{fill:#fff;}</style></defs><path class="cls-1" d="M40,5.9A34.1,34.1,0,1,1,5.9,40,34.14222,34.14222,0,0,1,40,5.9M40,0A40,40,0,1,0,80,40,39.989,39.989,0,0,0,40,0Z"/><rect class="cls-1" x="0.86431" y="37.01358" width="78.19925" height="5.89995" transform="translate(-16.55333 39.97182) rotate(-45.0081)"/><path class="cls-2" d="M54.14149,59.00753a13.70482,13.70482,0,0,1-7.1759-7.743,8.78608,8.78608,0,0,0-5.188-5.18751,13.70253,13.70253,0,0,1-7.74233-7.17575l-.42014-.914a8.78953,8.78953,0,0,0-4.31569-4.31528l-.63175-.29034a13.89539,13.89539,0,0,1-7.4214-7.77318A8.76494,8.76494,0,0,0,18.90846,22.1l-2.697,2.697A.90406.90406,0,0,0,16.16412,26.01a4.06908,4.06908,0,0,1,.57391.96019,19.59175,19.59175,0,0,0,9.59014,10.50545l.8197.37672a4.24549,4.24549,0,0,1,2.19927,2.09575l.2034.44247A18.56586,18.56586,0,0,0,40.04926,50.44667a4.09058,4.09058,0,0,1,2.54761,2.54966,16.01831,16.01831,0,0,0,8.23542,9.65957l2.26222,1.03978a3.90255,3.90255,0,0,1,.70169.41807.89053.89053,0,0,0,1.16548-.08169L57.693,61.30071a8.77885,8.77885,0,0,0-2.63738-1.87284Z"/><path class="cls-2" d="M59.11021,50.60859l-.91547-.42079a4.11535,4.11535,0,0,1-2.13365-2.31311A18.4773,18.4773,0,0,0,45.16752,36.98135a4.09488,4.09488,0,0,1-2.309-2.12575l-.42247-.91931a18.49968,18.49968,0,0,0-9.08465-9.08474l-.91189-.419a4.0964,4.0964,0,0,1-2.12911-2.30077A18.46283,18.46283,0,0,0,26.41987,15.874a.89834.89834,0,0,0-1.28261-.0028L22.4582,18.55027A13.77871,13.77871,0,0,1,25.93526,23.843a8.64267,8.64267,0,0,0,4.54288,4.85721l.91376.42a13.79811,13.79811,0,0,1,6.77566,6.7758l.41976.91342a8.80308,8.80308,0,0,0,4.94,4.5732,13.78275,13.78275,0,0,1,8.13274,8.13214,8.806,8.806,0,0,0,4.57353,4.94094l.91416.42035a13.79122,13.79122,0,0,1,4.08753,2.88249l2.67182-2.67182a.89853.89853,0,0,0-.01117-1.291A18.47723,18.47723,0,0,0,59.11021,50.60859Z"/><path class="cls-3" d="M61.23526,57.75846A13.79158,13.79158,0,0,0,57.14778,54.876l-.91418-.42033a8.73089,8.73089,0,0,1-4.57006-4.93158,13.78282,13.78282,0,0,0-8.14464-8.14464,8.73117,8.73117,0,0,1-4.93158-4.57006l-.4199-.91375A13.80268,13.80268,0,0,0,31.3919,29.1201l-.91376-.4199a8.732,8.732,0,0,1-4.57027-4.9318,13.78008,13.78008,0,0,0-3.44966-5.21813L18.90845,22.1A8.77133,8.77133,0,0,1,21.21,25.50876a13.70379,13.70379,0,0,0,7.17639,7.74377l.91376.4199a8.78674,8.78674,0,0,1,4.31492,4.31492l.42011.914a13.70265,13.70265,0,0,0,7.74355,7.17618,8.78014,8.78014,0,0,1,5.18672,5.18673,13.705,13.705,0,0,0,7.176,7.74333l.91418.42033a8.77926,8.77926,0,0,1,2.63742,1.8728Z"/><path class="cls-4" d="M43.51833,26.6087a5.87557,5.87557,0,0,1-5.87269-5.8727c0-3.9219,4.02351-7.9454,5.40532-9.20529a.663.663,0,0,1,.91443,0C45.3472,12.7906,49.3707,16.79378,49.3707,20.736A5.84532,5.84532,0,0,1,43.51833,26.6087Z"/><path class="cls-5" d="M41.01888,24.63759c.79251.569,1.6663.52833,1.76791.22352.1016-.32513-.44706-.77218-1.077-1.21924s-1.21925-.79251-1.48341-.5893S40.22637,24.08892,41.01888,24.63759Z"/><path class="cls-5" d="M39.10873,22.4023a.62017.62017,0,0,0,.89412.34546.729.729,0,0,0-.60963-1.28021A.65693.65693,0,0,0,39.10873,22.4023Z"/></svg>