<svg id="Capa_1" data-name="Capa 1" xmlns="http://www.w3.org/2000/svg" viewBox="0 0 80 80"><defs><style>.cls-1{fill:#d9d9d9;}.cls-2{fill:#f173ac;}.cls-3{fill:#bfbfbf;}.cls-4{fill:#007cc3;}</style></defs><path class="cls-1" d="M80,40.62427V8.74723a.68427.68427,0,0,0-.694-.694h0c-5.89934,0-11.76952,4.85828-11.76952,10.75762V33.4724c0,2.5245,2.20921,2.94967,3.85756,2.94967h0v4.2022Z"/><path class="cls-2" d="M80,40.62427V66.67962a5.26719,5.26719,0,0,1-5.26719,5.26719h-.96459A5.30377,5.30377,0,0,1,68.4731,66.2281l1.73068-24.7704a.91157.91157,0,0,1,.90822-.83343Z"/><path class="cls-2" d="M7.62133,71.9468h0a5.54893,5.54893,0,0,0,5.52851-6.02461L11.32652,34.84255a.9137.9137,0,0,0-.91154-.8508H4.82768a.91369.91369,0,0,0-.91153.8508L2.09281,65.92219A5.54893,5.54893,0,0,0,7.62132,71.9468h0"/><polygon class="cls-1" points="7.621 28.565 4.828 28.565 4.828 33.992 7.621 33.992 10.415 33.992 10.415 28.565 7.621 28.565"/><path class="cls-1" d="M7.62133,28.56518H4.82768S0,27.42075,0,23.00131C0,19.437.90888,11.89905,1.26061,9.11531A1.2145,1.2145,0,0,1,2.46823,8.0532h0A1.21753,1.21753,0,0,1,3.68,9.38926L2.59967,20.43413h3.932V9.14286A1.08966,1.08966,0,0,1,7.62133,8.0532h0A1.08966,1.08966,0,0,1,8.711,9.14286V20.43413h3.932L11.56268,9.38926A1.21753,1.21753,0,0,1,12.77443,8.0532h0a1.2145,1.2145,0,0,1,1.20761,1.06211c.35173,2.78374,1.26061,10.32172,1.26061,13.886,0,4.41944-4.82768,5.56387-4.82768,5.56387H7.62133"/><circle class="cls-3" cx="40" cy="39.97826" r="25.53261"/><circle class="cls-1" cx="40" cy="39.97826" r="15.55435"/><path class="cls-4" d="M36.76191,46.42472a1.3663,1.3663,0,0,1-.95307-.3857l-3.97748-3.84534a1.37109,1.37109,0,1,1,1.90615-1.97133l3.0244,2.924,9.5-9.18525a1.37172,1.37172,0,0,1,1.90705,1.97222L37.715,46.039A1.36631,1.36631,0,0,1,36.76191,46.42472Z"/></svg>