<svg width="106" height="80" viewBox="0 0 106 80" fill="none" xmlns="http://www.w3.org/2000/svg">
<g clip-path="url(#clip0_1117_440)">
<path d="M94.9499 39.7001C94.7499 39.7001 94.4499 39.7001 94.2499 39.7001C94.3499 39.1 94.4499 38.4 94.4499 37.8C94.4499 30.8 88.7499 25.1 81.7499 25.1C78.4499 25.1 75.4499 26.4 73.1499 28.5C71.8499 25.1 68.6499 22.7 64.8499 22.7C63.2499 22.7 61.7499 23.1 60.4499 23.9C58.6499 16.4 51.8499 10.8 43.8499 10.8C34.3499 10.8 26.7499 18.5 26.7499 27.9C26.7499 28.8 26.8499 29.7 26.9499 30.6C19.7499 31.6 14.1499 37.8 14.1499 45.3C14.1499 53.5 20.8499 60.2001 29.0499 60.2001H95.1499C100.75 60.2001 105.35 55.6 105.35 50C105.35 44.4001 100.55 39.7001 94.9499 39.7001Z" fill="#D9D9D9"/>
<path d="M63.85 16.9C56.85 17.4 50.95 11.6 51.45 4.5C45.65 8.5 37.65 6.3 34.55 0C31.45 6.3 23.55 8.5 17.65 4.5C18.15 11.5 12.35 17.4 5.25 16.9C9.25 22.7 7.05 30.7 0.75 33.8C7.05 36.9 9.25 44.8 5.25 50.7C12.25 50.2 18.15 56 17.65 63.1C23.45 59.1 31.45 61.3 34.55 67.6C37.65 61.3 45.55 59.1 51.45 63.1C50.95 56 56.85 50.1 63.85 50.6C59.85 44.8 62.05 36.8 68.35 33.7C62.05 30.7 59.85 22.7 63.85 16.9Z" fill="#FFB32C"/>
<path d="M53.9522 42.2808C58.6764 31.6286 53.8708 19.1636 43.2186 14.4394C32.5664 9.71516 20.1014 14.5207 15.3772 25.1729C10.653 35.8251 15.4586 48.2902 26.1108 53.0144C36.7629 57.7386 49.228 52.933 53.9522 42.2808Z" fill="#FFD63D"/>
<path d="M11.0501 59.5999C11.2501 59.5999 11.5501 59.5999 11.7501 59.5999C11.6501 58.9999 11.5501 58.3 11.5501 57.7C11.5501 50.7 17.2501 45 24.2501 45C27.5501 45 30.5501 46.3 32.8501 48.4C34.1501 45 37.3501 42.5999 41.1501 42.5999C42.7501 42.5999 44.2501 42.9999 45.5501 43.7999C47.3501 36.2999 54.1501 30.7 62.1501 30.7C71.6501 30.7 79.2501 38.4 79.2501 47.7999C79.2501 48.6999 79.1501 49.6 79.0501 50.5C86.2501 51.5 91.8501 57.6999 91.8501 65.1999C91.8501 73.3999 85.1501 80.0999 76.9501 80.0999H11.0501C5.4501 80 0.850098 75.4 0.850098 69.8C0.850098 64.1 5.4501 59.5999 11.0501 59.5999Z" fill="#BFBFBF"/>
</g>
<defs>
<clipPath id="clip0_1117_440">
<rect width="104.3" height="80" fill="white" transform="translate(0.850098)"/>
</clipPath>
</defs>
</svg>
