<svg width="75" height="75" viewBox="0 0 75 75" fill="none" xmlns="http://www.w3.org/2000/svg">
<g clip-path="url(#clip0_1138_335)">
<path d="M37.5 5.53125C55.125 5.53125 69.4688 19.875 69.4688 37.5C69.4688 55.125 55.125 69.4688 37.5 69.4688C19.875 69.4688 5.53125 55.125 5.53125 37.5C5.53125 19.875 19.875 5.53125 37.5 5.53125ZM37.5 0C16.7812 0 0 16.7812 0 37.5C0 58.2188 16.7812 75 37.5 75C58.2188 75 75 58.2188 75 37.5C75 16.7812 58.2188 0 37.5 0Z" fill="#F45B6A"/>
<path d="M61.4682 9.55501L9.63623 61.4016L13.5479 65.3122L65.3799 13.4656L61.4682 9.55501Z" fill="#F45B6A"/>
<path d="M45.9395 37.1072L37.1228 45.9238L38.9126 47.7137L47.7293 38.897L45.9395 37.1072Z" fill="#D9D9D9"/>
<path d="M17.9062 17.9063C17.6249 18.1875 17.6249 18.6563 17.8124 18.9375L25.5937 26.7188L26.6249 25.6875L18.8437 17.9063C18.6562 17.625 18.1874 17.625 17.9062 17.9063Z" fill="#999999"/>
<path d="M41.7188 50.5313L28.875 37.6875C28.5 37.3125 28.3125 36.8438 28.2188 36.2813L27.9375 31.5L29.7188 29.7188L31.5 27.9375L36.2813 28.2188C36.8438 28.2188 37.3125 28.5 37.6875 28.875L50.5313 41.7188L41.7188 50.5313Z" fill="#D9D9D9"/>
<path d="M28.3125 36.2813L28.0312 31.5L29.8125 29.7188L31.5938 27.9375L36.375 28.2188C36.9375 28.2188 37.4062 28.5 37.7812 28.875L46.0312 37.125L37.125 45.9375L28.875 37.6875C28.5 37.3125 28.3125 36.8438 28.3125 36.2813Z" fill="#007CC3"/>
<path d="M28.0312 31.5L25.875 29.3437C24.9375 28.4062 24.9375 26.8125 25.875 25.875C26.8125 24.9375 28.4062 24.9375 29.3437 25.875L31.5 28.0312L28.0312 31.5Z" fill="#D9D9D9"/>
<path d="M45.1032 41.5244L41.5898 45.0378L52.4615 55.9095L55.9749 52.3961L45.1032 41.5244Z" fill="#BFBFBF"/>
<path d="M43.3203 39.7473L39.8069 43.2607L50.6785 54.1324L54.1919 50.619L43.3203 39.7473Z" fill="#BFBFBF"/>
<path d="M37.875 33.5625L40.125 31.3125L39.2813 30.4688L37.0312 32.7188C36.8438 32.9063 36.8438 33.2812 37.0312 33.5625C37.3125 33.8437 37.6875 33.8437 37.875 33.5625Z" fill="#D9D9D9"/>
<path d="M39.75 35.4375L42 33.1875L41.1563 32.3438L38.9062 34.5938C38.7188 34.7813 38.7188 35.1562 38.9062 35.4375C39.0938 35.625 39.4688 35.625 39.75 35.4375Z" fill="#D9D9D9"/>
<path d="M41.5312 37.2187L43.7812 34.9687L42.9375 34.125L40.6875 36.375C40.5 36.5625 40.5 36.9375 40.6875 37.2187C40.9688 37.4062 41.3437 37.4062 41.5312 37.2187Z" fill="#D9D9D9"/>
<path d="M57.6562 50.8125L50.8125 57.6562C50.1562 58.3125 50.1562 59.3437 50.8125 60L51.375 60.5625C52.0312 61.2187 53.0625 61.2187 53.7187 60.5625L60.5625 53.7187C61.2187 53.0625 61.2187 52.0312 60.5625 51.375L60 50.8125C59.25 50.1562 58.2187 50.1562 57.6562 50.8125Z" fill="#999999"/>
<path d="M50.8125 41.4375L41.4375 50.8125C40.7812 51.4688 40.7812 52.5 41.4375 53.1562L42 53.7187C42.6562 54.375 43.6875 54.375 44.3437 53.7187L53.7187 44.3437C54.375 43.6875 54.375 42.6562 53.7187 42L53.1562 41.4375C52.4062 40.7812 51.375 40.7812 50.8125 41.4375Z" fill="#999999"/>
<path d="M17.625 25.125C15.1875 27.75 14.0625 30.4688 14.8125 32.0625C15.2812 33.1875 16.125 33.6563 16.125 33.6563C16.7812 34.0313 17.4375 34.0312 17.7187 34.0312C18.0937 34.0312 18.6562 33.9375 19.3125 33.6563C19.3125 33.6563 20.1562 33.1875 20.625 32.0625C21.1875 30.5625 20.0625 27.75 17.625 25.125Z" fill="#007CC3"/>
</g>
<defs>
<clipPath id="clip0_1138_335">
<rect width="75" height="75" fill="white"/>
</clipPath>
</defs>
</svg>
