<svg width="75" height="75" viewBox="0 0 75 75" fill="none" xmlns="http://www.w3.org/2000/svg">
<path d="M61.5021 9.60975L9.67896 61.4475L13.6393 65.4067L65.4624 13.569L61.5021 9.60975Z" fill="#F45B6A"/>
<path d="M37.5 5.6C55.1 5.6 69.4 19.9 69.4 37.5C69.4 55.1 55.1 69.4 37.5 69.4C19.9 69.4 5.6 55.1 5.6 37.5C5.6 19.9 19.9 5.6 37.5 5.6ZM37.5 0C16.8 0 0 16.8 0 37.5C0 58.2 16.8 75 37.5 75C58.2 75 75 58.2 75 37.5C75 16.8 58.2 0 37.5 0Z" fill="#F45B6A"/>
<path d="M14.6 24L34.2 43.6C35.2 44.6 36.4 45.6 37.6 46.3L43.9 50.4001C44.4 50.7001 45 50.6001 45.3 50.2001L50.2001 45.3C50.6001 44.9 50.6001 44.3 50.4001 43.9L46.3 37.6C45.5 36.4 44.6 35.2 43.6 34.2L24 14.6C23.1 13.7 21.6 13.7 20.7 14.6L14.6 20.7C13.7 21.6 13.7 23.1 14.6 24Z" fill="#D9D9D9"/>
<path d="M58.7001 55.9L55.9001 58.7C55.3001 59.3 54.3001 59.3 53.7001 58.7L45.3 50.3L50.2001 45.4L58.6 53.8C59.3 54.4 59.3001 55.3 58.7001 55.9Z" fill="#F173AC"/>
<path d="M24.2 24.2C22.4 26 22.4 29 24.2 30.8L33.8 40.4C35.6 42.2 38.6 42.2 40.4 40.4C42.2 38.6 42.2 35.6 40.4 33.8L30.8 24.2C29 22.4 26 22.4 24.2 24.2Z" fill="#BFBFBF"/>
<path d="M38.6 38.6C37.4 39.8 35.6 39.8 34.4 38.6L26 30.1C24.8 28.9 24.8 27.1 26 25.9C27.2 24.7 29 24.7 30.2 25.9L38.7 34.4C39.8 35.6 39.8 37.5 38.6 38.6Z" fill="white"/>
<path d="M31.8799 27.6534L27.708 31.8253L29.0515 33.1688L33.2234 28.9969L31.8799 27.6534Z" fill="#F173AC"/>
<path d="M35.5567 31.4093L31.3848 35.5812L32.7283 36.9247L36.9001 32.7528L35.5567 31.4093Z" fill="#F173AC"/>
</svg>
