<?xml version="1.0" encoding="utf-8"?>
<!-- Generator: Adobe Illustrator 24.1.1, SVG Export Plug-In . SVG Version: 6.00 Build 0)  -->
<svg version="1.1" id="Capa_1" xmlns="http://www.w3.org/2000/svg" xmlns:xlink="http://www.w3.org/1999/xlink" x="0px" y="0px"
	 viewBox="0 0 74.97 74.97" style="enable-background:new 0 0 74.97 74.97;" xml:space="preserve">
<style type="text/css">
	.st0{fill:#FFFFFF;}
	.st1{fill:#F45B6A;}
	.st2{fill:#FFFFFF;stroke:#F45B6A;stroke-width:5.553;stroke-miterlimit:10;}
	.st3{fill:#F4C6DE;}
	.st4{fill:#FC90CE;}
	.st5{fill:#007CC3;}
	.st6{fill:#D9D9D9;}
	.st7{fill:#BFBFBF;}
	.st8{fill:#FEFEFE;}
	.st9{fill:none;stroke:#FC90CE;stroke-width:1.0402;stroke-miterlimit:10;}
	.st10{fill:#F5A4C7;}
</style>
<g>
	<g>
		<g>
			<circle class="st0" cx="37.48" cy="37.48" r="34.71"/>
			<path class="st1" d="M37.48,5.55c17.61,0,31.93,14.32,31.93,31.93S55.09,69.41,37.48,69.41S5.55,55.09,5.55,37.48
				S19.88,5.55,37.48,5.55 M37.48,0C16.78,0,0,16.78,0,37.48s16.78,37.48,37.48,37.48s37.48-16.78,37.48-37.48S58.18,0,37.48,0
				L37.48,0z"/>
		</g>
		<line class="st2" x1="63.38" y1="11.58" x2="11.58" y2="63.38"/>
	</g>
	<g>
		<path class="st5" d="M44.36,40.77c7.27,0,13.14,2.11,13.32,16.07c0.01,0.38-0.3,0.69-0.68,0.69H38.03"/>
		<path class="st4" d="M45.16,25.68c0.09-0.89-0.56-1.67-1.39-1.67H31.23H18.69c-0.84,0-1.49,0.78-1.39,1.67
			c0.42,3.93,0.71,8.21,0.78,12.81c0.09,5.78-0.17,11.11-0.63,15.91c-0.16,1.68,1.07,3.14,2.64,3.14h11.14h11.14
			c1.57,0,2.8-1.46,2.64-3.14c-0.46-4.8-0.73-10.13-0.63-15.91C44.45,33.9,44.74,29.61,45.16,25.68z"/>
		<path class="st3" d="M42.18,19.33H20.27c-0.62,0-1.11,0.5-1.11,1.11v3.56h24.13v-3.56C43.29,19.83,42.79,19.33,42.18,19.33z"/>
		<path class="st6" d="M20.27,19.33c0,0,0.98-6.28,10.95-6.28s10.95,6.28,10.95,6.28"/>
		<path class="st3" d="M36.95,51.63H25.5c-0.59,0-1.08,0.48-1.08,1.08v4.83h13.6v-4.83C38.03,52.11,37.54,51.63,36.95,51.63z"/>
		<g>
			<rect x="27.26" y="51.63" class="st10" width="1.22" height="5.91"/>
			<rect x="30.61" y="51.63" class="st10" width="1.22" height="5.91"/>
			<rect x="33.97" y="51.63" class="st10" width="1.22" height="5.91"/>
		</g>
		<path class="st3" d="M40.46,38.49c-0.11-2.06-0.71-3.72-1.27-4.85c-0.31-0.62-0.95-1.02-1.64-1.02h-6.32h-6.32
			c-0.7,0-1.33,0.39-1.64,1.02c-0.56,1.13-1.17,2.78-1.27,4.85c-0.14,2.67,0.63,4.8,1.28,6.11c0.31,0.62,0.95,1.02,1.64,1.02h6.32
			h6.32c0.7,0,1.33-0.39,1.64-1.02C39.83,43.29,40.6,41.16,40.46,38.49z"/>
	</g>
</g>
</svg>
