<?xml version="1.0" encoding="utf-8"?>
<!-- Generator: Adobe Illustrator 24.1.1, SVG Export Plug-In . SVG Version: 6.00 Build 0)  -->
<svg version="1.1" id="Capa_1" xmlns="http://www.w3.org/2000/svg" xmlns:xlink="http://www.w3.org/1999/xlink" x="0px" y="0px"
	 viewBox="0 0 89.71 74.97" style="enable-background:new 0 0 89.71 74.97;" xml:space="preserve">
<style type="text/css">
	.st0{fill:#D9D9D9;}
	.st1{fill:#BFBFBF;}
	.st2{fill:#F5A4C7;}
	.st3{fill:none;}
	.st4{fill:#FC90CE;}
	.st5{fill:#F4C6DE;}
	.st6{fill:#FFFFFF;}
	.st7{fill:#F45B6A;}
	.st8{fill:#F173AC;}
	.st9{fill:#007CC3;}
	.st10{fill-rule:evenodd;clip-rule:evenodd;fill:#F173AC;}
</style>
<g>
	<g>
		<g>
			<circle class="st6" cx="44.86" cy="37.48" r="34.71"/>
			<path class="st7" d="M44.86,5.55c17.61,0,31.93,14.32,31.93,31.93S62.46,69.41,44.86,69.41S12.93,55.09,12.93,37.48
				S27.25,5.55,44.86,5.55 M44.86,0C24.15,0,7.37,16.78,7.37,37.48s16.78,37.48,37.48,37.48c20.7,0,37.48-16.78,37.48-37.48
				S65.56,0,44.86,0L44.86,0z"/>
		</g>
		<g>
			
				<rect x="8.23" y="34.71" transform="matrix(0.7071 -0.7071 0.7071 0.7071 -13.3666 42.6962)" class="st7" width="73.26" height="5.55"/>
		</g>
	</g>
	<g>
		<g>
			<g>
				<path class="st1" d="M55.35,26.99l-2.41-2.41c-0.36-0.36-0.9-0.49-1.39-0.33l-6.02,1.97l2.82,5.72l7.76,4.87l1.97-6.02
					c0.16-0.49,0.03-1.03-0.33-1.39L55.35,26.99"/>
			</g>
			<g>
				<path class="st1" d="M34.36,47.97l-2.41-2.41c-0.36-0.36-0.49-0.9-0.33-1.39l1.97-6.02l7.28,3.31l3.31,7.28l-6.02,1.97
					c-0.49,0.16-1.03,0.03-1.39-0.33L34.36,47.97"/>
			</g>
			<path class="st0" d="M39.01,43.33c0,0,1.17,1.17,3.29,3.29c3.95,3.95,4.08,6.97,7.1,10c3.02,3.02,9.43,5.09,14.55-0.04
				c5.12-5.12,3.06-11.53,0.04-14.55c-3.02-3.02-6.05-3.15-10-7.1c-2.12-2.12-3.29-3.29-3.29-3.29s-1.17-1.17-3.29-3.29
				c-3.95-3.95-4.08-6.97-7.1-10s-9.43-5.09-14.55,0.04c-5.12,5.12-3.06,11.53-0.04,14.55s6.05,3.15,10,7.1
				C37.84,42.16,39.01,43.33,39.01,43.33z"/>
			<g>
				<path class="st1" d="M60.72,53.34c-1.9,1.9-4.95,1.97-6.94,0.22c-0.13-0.11-0.13-0.31-0.01-0.43l1.38-1.38
					c0.11-0.11,0.28-0.12,0.39-0.02c0.99,0.81,2.46,0.75,3.38-0.17c0.92-0.92,0.98-2.39,0.17-3.38c-0.09-0.12-0.08-0.29,0.02-0.39
					l1.38-1.38c0.12-0.12,0.32-0.12,0.43,0.01C62.69,48.39,62.62,51.44,60.72,53.34z"/>
			</g>
			<g>
				<path class="st1" d="M35.95,21.84l-1.38,1.38c-0.11,0.11-0.28,0.12-0.39,0.02c-0.99-0.81-2.46-0.75-3.38,0.17
					c-0.92,0.92-0.98,2.39-0.17,3.38c0.09,0.12,0.08,0.29-0.02,0.39l-1.38,1.38c-0.12,0.12-0.32,0.12-0.43-0.01
					c-1.76-1.99-1.68-5.04,0.22-6.94c1.9-1.9,4.95-1.97,6.94-0.22C36.06,21.52,36.07,21.72,35.95,21.84z"/>
			</g>
		</g>
		<g>
			<path class="st7" d="M40.59,33.22c0.16,4.49,1.65,7.93,3.58,8.74c1.42,0.59,2.59,0.3,2.59,0.3c0.91-0.23,1.51-0.77,1.79-1.07
				c0.3-0.28,0.84-0.88,1.07-1.79c0,0,0.3-1.17-0.3-2.59C48.52,34.87,45.09,33.38,40.59,33.22z"/>
		</g>
	</g>
</g>
</svg>
