<svg width="75" height="75" viewBox="0 0 75 75" fill="none" xmlns="http://www.w3.org/2000/svg">
<g clip-path="url(#clip0_1138_310)">
<path d="M37.5 5.53125C55.125 5.53125 69.4688 19.875 69.4688 37.5C69.4688 55.125 55.125 69.4688 37.5 69.4688C19.875 69.4688 5.53125 55.125 5.53125 37.5C5.53125 19.875 19.875 5.53125 37.5 5.53125ZM37.5 0C16.7812 0 0 16.7812 0 37.5C0 58.2188 16.7812 75 37.5 75C58.2188 75 75 58.2188 75 37.5C75 16.7812 58.2188 0 37.5 0Z" fill="#F45B6A"/>
<path d="M61.4682 9.55501L9.63623 61.4016L13.5479 65.3122L65.3799 13.4656L61.4682 9.55501Z" fill="#F45B6A"/>
<path d="M43.2187 37.125L61.875 36.75V51.9375C61.875 54.5625 53.5312 55.9688 43.2187 55.9688C32.9062 55.9688 24.5625 54.5625 24.5625 51.9375V36.75L43.2187 37.125Z" fill="#F5A4C7"/>
<path d="M43.2187 39.2813C53.5223 39.2813 61.875 38.148 61.875 36.75C61.875 35.352 53.5223 34.2188 43.2187 34.2188C32.9152 34.2188 24.5625 35.352 24.5625 36.75C24.5625 38.148 32.9152 39.2813 43.2187 39.2813Z" fill="#F173AC"/>
<path d="M61.0312 32.5312V36V37.5C58.6875 38.5312 51.5625 39.2813 43.2188 39.2813C34.875 39.2813 27.75 38.5312 25.3125 37.5V36V32.5312H61.0312Z" fill="#D9D9D9"/>
<path d="M43.2187 35.0625C53.0563 35.0625 61.0312 33.9292 61.0312 32.5313C61.0312 31.1333 53.0563 30 43.2187 30C33.3812 30 25.4062 31.1333 25.4062 32.5313C25.4062 33.9292 33.3812 35.0625 43.2187 35.0625Z" fill="#999999"/>
<path d="M36.375 24.1875C41.25 24.1875 39.8437 26.7188 45.6562 26.7188C52.5 26.7188 52.5937 19.0312 52.5937 19.0312C56.0625 23.7188 56.25 27.8438 55.6875 30.75C55.2188 33.0938 54.1875 34.5 54.1875 34.5C51.1875 34.875 47.3437 35.0625 43.2187 35.0625C38.5312 35.0625 34.3125 34.7813 31.125 34.4063L30.9375 30.6563L30.8438 27.2813C30.8438 27.2813 32.3437 24.1875 36.375 24.1875Z" fill="#007CC3"/>
<path d="M30.4688 20.7187C34.5938 22.125 34.7812 30 34.7812 32.7188C34.7812 39.9375 30.0938 55.9688 22.5 55.9688L18.2812 55.0312L21.375 39L26.5312 19.875L30.4688 20.7187Z" fill="#F173AC"/>
<path d="M18.2812 55.125C13.5 55.125 13.125 45.1875 13.125 42.4687C13.125 35.4375 18.1875 19.5938 24.9375 19.5938C30.375 19.5938 30.6562 28.7813 30.6562 31.7813C30.6562 39.0938 25.9687 55.125 18.2812 55.125Z" fill="#F5A4C7"/>
<path d="M43.2188 53.25C46.3254 53.25 48.8438 50.7316 48.8438 47.625C48.8438 44.5184 46.3254 42 43.2188 42C40.1121 42 37.5938 44.5184 37.5938 47.625C37.5938 50.7316 40.1121 53.25 43.2188 53.25Z" fill="#F173AC"/>
<path d="M46.6875 46.875V48.1875C46.6875 48.375 46.5 48.5625 46.3125 48.5625H40.0313C39.8438 48.5625 39.6562 48.375 39.6562 48.1875V46.875C39.6562 46.6875 39.8438 46.5 40.0313 46.5H46.3125C46.5 46.5 46.6875 46.6875 46.6875 46.875Z" fill="white"/>
<path d="M43.875 51.0938H42.5625C42.375 51.0938 42.1875 50.9062 42.1875 50.7188V44.5313C42.1875 44.3438 42.375 44.1562 42.5625 44.1562H43.875C44.0625 44.1562 44.25 44.3438 44.25 44.5313V50.7188C44.25 50.9062 44.0625 51.0938 43.875 51.0938Z" fill="white"/>
</g>
<defs>
<clipPath id="clip0_1138_310">
<rect width="75" height="75" fill="white"/>
</clipPath>
</defs>
</svg>
