<svg width="75" height="75" viewBox="0 0 75 75" fill="none" xmlns="http://www.w3.org/2000/svg">
<g clip-path="url(#clip0_533_616)">
<path d="M66.8 24.4001L65.2 22.5001L66.1 21.7001C66.2 21.6001 72.3 16.4001 72.5 10.7001C72.6 8.50006 71.8 6.60006 70 4.90006C68.3 3.20006 66.3 2.30006 64.2 2.40006C58.6 2.60006 53.3 8.80006 53.2 8.80006L52.4 9.70006L50.5 8.10006L51.3 7.20006C51.5 6.90006 57.3 0.200056 64 -0.0999439C66.9 -0.199944 69.4 0.900056 71.7 3.10006C74 5.40006 75.1 8.00006 75 10.9001C74.7 17.6001 68 23.4001 67.7 23.6001L66.8 24.4001Z" fill="#007CC3"/>
<path d="M10.3999 75.0001C7.69992 75.0001 5.29992 73.9001 3.09992 71.8001C0.999917 69.6001 -0.100083 67.0001 -8.31126e-05 64.1001C0.299917 57.4001 6.99992 51.6001 7.29992 51.4001L8.19992 50.6001L9.79992 52.5001L8.89992 53.3001C8.79992 53.4001 2.69992 58.6001 2.49992 64.3001C2.39992 66.5001 3.19992 68.4001 4.99992 70.1001C6.69992 71.8001 8.69992 72.6001 10.7999 72.6001C16.3999 72.4001 21.6999 66.2001 21.7999 66.2001L22.5999 65.3001L24.4999 66.9001L23.6999 67.8001C23.4999 68.1001 17.6999 74.8001 10.9999 75.1001C10.6999 75.0001 10.5999 75.0001 10.3999 75.0001Z" fill="#007CC3"/>
<path d="M50.8997 6.90005C49.8997 6.20005 48.4997 6.30005 47.5997 7.20005C35.3997 18.5 25.8997 16.5 21.1997 21.2L24.6997 50.4001L53.8997 53.9001C58.5997 49.2001 56.5997 39.7001 67.8997 27.5C68.6997 26.6 68.8997 25.2001 68.1997 24.2001C66.7997 22.1 64.2997 18.5 60.4997 14.8C56.5997 10.9 52.9997 8.30005 50.8997 6.90005Z" fill="#F5A4C7"/>
<path d="M6.8998 50.9001C6.1998 49.9001 6.2998 48.5001 7.1998 47.6001C18.4998 35.4001 16.4998 25.9001 21.1998 21.2001C21.1998 21.2001 24.8998 31.6001 34.1998 40.9001C43.4998 50.2001 53.8998 53.9001 53.8998 53.9001C49.1998 58.6001 39.6998 56.6001 27.4998 67.9001C26.5998 68.7001 25.1998 68.9001 24.1998 68.2001C22.0998 66.8001 18.4998 64.3001 14.7998 60.5001C10.8998 56.6001 8.2998 53.0001 6.8998 50.9001Z" fill="#F173AC"/>
<path d="M30.7999 24.6C31.5731 24.6 32.1999 23.9732 32.1999 23.2001C32.1999 22.4269 31.5731 21.8 30.7999 21.8C30.0267 21.8 29.3999 22.4269 29.3999 23.2001C29.3999 23.9732 30.0267 24.6 30.7999 24.6Z" fill="#F173AC"/>
<path d="M36.0001 29.9001C36.7733 29.9001 37.4001 29.2733 37.4001 28.5001C37.4001 27.7269 36.7733 27.1001 36.0001 27.1001C35.2269 27.1001 34.6001 27.7269 34.6001 28.5001C34.6001 29.2733 35.2269 29.9001 36.0001 29.9001Z" fill="#F173AC"/>
<path d="M41.2999 35.1C42.0731 35.1 42.6999 34.4732 42.6999 33.7001C42.6999 32.9269 42.0731 32.3 41.2999 32.3C40.5267 32.3 39.8999 32.9269 39.8999 33.7001C39.8999 34.4732 40.5267 35.1 41.2999 35.1Z" fill="#F173AC"/>
<path d="M42.5001 28.6C43.2733 28.6 43.9001 27.9732 43.9001 27.2001C43.9001 26.4269 43.2733 25.8 42.5001 25.8C41.7269 25.8 41.1001 26.4269 41.1001 27.2001C41.1001 27.9732 41.7269 28.6 42.5001 28.6Z" fill="#F173AC"/>
<path d="M37.2999 23.4001C38.0731 23.4001 38.6999 22.7733 38.6999 22.0001C38.6999 21.2269 38.0731 20.6001 37.2999 20.6001C36.5267 20.6001 35.8999 21.2269 35.8999 22.0001C35.8999 22.7733 36.5267 23.4001 37.2999 23.4001Z" fill="#F173AC"/>
<path d="M47.7999 33.9001C48.5731 33.9001 49.1999 33.2733 49.1999 32.5001C49.1999 31.7269 48.5731 31.1001 47.7999 31.1001C47.0267 31.1001 46.3999 31.7269 46.3999 32.5001C46.3999 33.2733 47.0267 33.9001 47.7999 33.9001Z" fill="#F173AC"/>
<path d="M50.2999 20.9001C51.0731 20.9001 51.6999 20.2733 51.6999 19.5001C51.6999 18.7269 51.0731 18.1001 50.2999 18.1001C49.5267 18.1001 48.8999 18.7269 48.8999 19.5001C48.8999 20.2733 49.5267 20.9001 50.2999 20.9001Z" fill="#F173AC"/>
<path d="M55.5001 26.1C56.2733 26.1 56.9001 25.4732 56.9001 24.7001C56.9001 23.9269 56.2733 23.3 55.5001 23.3C54.7269 23.3 54.1001 23.9269 54.1001 24.7001C54.1001 25.4732 54.7269 26.1 55.5001 26.1Z" fill="#F173AC"/>
<path d="M53.0001 39.1C53.7733 39.1 54.4001 38.4732 54.4001 37.7001C54.4001 36.9269 53.7733 36.3 53.0001 36.3C52.2269 36.3 51.6001 36.9269 51.6001 37.7001C51.6001 38.4732 52.2269 39.1 53.0001 39.1Z" fill="#F173AC"/>
<path d="M34.7999 36.4001C35.5731 36.4001 36.1999 35.7733 36.1999 35.0001C36.1999 34.2269 35.5731 33.6001 34.7999 33.6001C34.0267 33.6001 33.3999 34.2269 33.3999 35.0001C33.3999 35.7733 34.0267 36.4001 34.7999 36.4001Z" fill="#F173AC"/>
<path d="M29.5001 31.1C30.2733 31.1 30.9001 30.4732 30.9001 29.7001C30.9001 28.9269 30.2733 28.3 29.5001 28.3C28.7269 28.3 28.1001 28.9269 28.1001 29.7001C28.1001 30.4732 28.7269 31.1 29.5001 31.1Z" fill="#F173AC"/>
<path d="M40.0001 41.6C40.7733 41.6 41.4001 40.9732 41.4001 40.2001C41.4001 39.4269 40.7733 38.8 40.0001 38.8C39.2269 38.8 38.6001 39.4269 38.6001 40.2001C38.6001 40.9732 39.2269 41.6 40.0001 41.6Z" fill="#F173AC"/>
<path d="M45.2999 46.9001C46.0731 46.9001 46.6999 46.2733 46.6999 45.5001C46.6999 44.7269 46.0731 44.1001 45.2999 44.1001C44.5267 44.1001 43.8999 44.7269 43.8999 45.5001C43.8999 46.2733 44.5267 46.9001 45.2999 46.9001Z" fill="#F173AC"/>
<path d="M46.5001 40.4001C47.2733 40.4001 47.9001 39.7733 47.9001 39.0001C47.9001 38.2269 47.2733 37.6001 46.5001 37.6001C45.7269 37.6001 45.1001 38.2269 45.1001 39.0001C45.1001 39.7733 45.7269 40.4001 46.5001 40.4001Z" fill="#F173AC"/>
<path d="M43.7999 22.1C44.5731 22.1 45.1999 21.4732 45.1999 20.7001C45.1999 19.9269 44.5731 19.3 43.7999 19.3C43.0267 19.3 42.3999 19.9269 42.3999 20.7001C42.3999 21.4732 43.0267 22.1 43.7999 22.1Z" fill="#F173AC"/>
<path d="M49.0001 27.4001C49.7733 27.4001 50.4001 26.7733 50.4001 26.0001C50.4001 25.2269 49.7733 24.6001 49.0001 24.6001C48.2269 24.6001 47.6001 25.2269 47.6001 26.0001C47.6001 26.7733 48.2269 27.4001 49.0001 27.4001Z" fill="#F173AC"/>
<path d="M56.7999 19.6C57.5731 19.6 58.1999 18.9732 58.1999 18.2001C58.1999 17.4269 57.5731 16.8 56.7999 16.8C56.0267 16.8 55.3999 17.4269 55.3999 18.2001C55.3999 18.9732 56.0267 19.6 56.7999 19.6Z" fill="#F173AC"/>
<path d="M54.2999 32.6C55.0731 32.6 55.6999 31.9732 55.6999 31.2001C55.6999 30.4269 55.0731 29.8 54.2999 29.8C53.5267 29.8 52.8999 30.4269 52.8999 31.2001C52.8999 31.9732 53.5267 32.6 54.2999 32.6Z" fill="#F173AC"/>
<path d="M51.7999 45.6C52.5731 45.6 53.1999 44.9732 53.1999 44.2001C53.1999 43.4269 52.5731 42.8 51.7999 42.8C51.0267 42.8 50.3999 43.4269 50.3999 44.2001C50.3999 44.9732 51.0267 45.6 51.7999 45.6Z" fill="#F173AC"/>
<path d="M27.1998 43.9C27.973 43.9 28.5998 43.2732 28.5998 42.5C28.5998 41.7268 27.973 41.1 27.1998 41.1C26.4266 41.1 25.7998 41.7268 25.7998 42.5C25.7998 43.2732 26.4266 43.9 27.1998 43.9Z" fill="#F5A4C7"/>
<path d="M21.9996 38.7C22.7728 38.7 23.3996 38.0732 23.3996 37.3C23.3996 36.5268 22.7728 35.9 21.9996 35.9C21.2264 35.9 20.5996 36.5268 20.5996 37.3C20.5996 38.0732 21.2264 38.7 21.9996 38.7Z" fill="#F5A4C7"/>
<path d="M32.4996 49.2C33.2728 49.2 33.8996 48.5732 33.8996 47.8C33.8996 47.0268 33.2728 46.4 32.4996 46.4C31.7264 46.4 31.0996 47.0268 31.0996 47.8C31.0996 48.5732 31.7264 49.2 32.4996 49.2Z" fill="#F5A4C7"/>
<path d="M19.4996 51.7C20.2728 51.7 20.8996 51.0732 20.8996 50.3C20.8996 49.5268 20.2728 48.9 19.4996 48.9C18.7264 48.9 18.0996 49.5268 18.0996 50.3C18.0996 51.0732 18.7264 51.7 19.4996 51.7Z" fill="#F5A4C7"/>
<path d="M24.6998 56.9C25.473 56.9 26.0998 56.2732 26.0998 55.5C26.0998 54.7268 25.473 54.1 24.6998 54.1C23.9266 54.1 23.2998 54.7268 23.2998 55.5C23.2998 56.2732 23.9266 56.9 24.6998 56.9Z" fill="#F5A4C7"/>
<path d="M37.6998 54.4C38.473 54.4 39.0998 53.7732 39.0998 53C39.0998 52.2268 38.473 51.6 37.6998 51.6C36.9266 51.6 36.2998 52.2268 36.2998 53C36.2998 53.7732 36.9266 54.4 37.6998 54.4Z" fill="#F5A4C7"/>
<path d="M20.6998 45.2C21.473 45.2 22.0998 44.5732 22.0998 43.8C22.0998 43.0268 21.473 42.4 20.6998 42.4C19.9266 42.4 19.2998 43.0268 19.2998 43.8C19.2998 44.5732 19.9266 45.2 20.6998 45.2Z" fill="#F5A4C7"/>
<path d="M25.9996 50.4C26.7728 50.4 27.3996 49.7732 27.3996 49C27.3996 48.2268 26.7728 47.6 25.9996 47.6C25.2264 47.6 24.5996 48.2268 24.5996 49C24.5996 49.7732 25.2264 50.4 25.9996 50.4Z" fill="#F5A4C7"/>
<path d="M18.1998 58.2C18.973 58.2 19.5998 57.5732 19.5998 56.8C19.5998 56.0268 18.973 55.4 18.1998 55.4C17.4266 55.4 16.7998 56.0268 16.7998 56.8C16.7998 57.5732 17.4266 58.2 18.1998 58.2Z" fill="#F5A4C7"/>
<path d="M31.1998 55.7C31.973 55.7 32.5998 55.0732 32.5998 54.3C32.5998 53.5268 31.973 52.9 31.1998 52.9C30.4266 52.9 29.7998 53.5268 29.7998 54.3C29.7998 55.0732 30.4266 55.7 31.1998 55.7Z" fill="#F5A4C7"/>
</g>
<defs>
<clipPath id="clip0_533_616">
<rect width="75" height="75" fill="white"/>
</clipPath>
</defs>
</svg>
