<?xml version="1.0" encoding="utf-8"?>
<!-- Generator: Adobe Illustrator 24.1.1, SVG Export Plug-In . SVG Version: 6.00 Build 0)  -->
<svg version="1.1" id="Capa_1" xmlns="http://www.w3.org/2000/svg" xmlns:xlink="http://www.w3.org/1999/xlink" x="0px" y="0px"
	 viewBox="0 0 41.21 74.97" style="enable-background:new 0 0 41.21 74.97;" xml:space="preserve">
<style type="text/css">
	.st0{fill:#BFBFBF;}
	.st1{fill:#D9D9D9;}
	.st2{fill:#007CC3;}
	.st3{fill:#FFFFFF;}
	.st4{fill:#F173AC;}
</style>
<g>
	<path class="st0" d="M35.67,0H5.54C2.48,0,0,2.48,0,5.54v63.89c0,3.06,2.48,5.54,5.54,5.54h30.14c3.06,0,5.54-2.48,5.54-5.54V5.54
		C41.21,2.48,38.73,0,35.67,0z"/>
	<rect y="10.06" class="st1" width="41.21" height="54.85"/>
	<circle class="st1" cx="20.6" cy="69.94" r="2.67"/>
	<circle class="st2" cx="7.54" cy="37.73" r="2.71"/>
	<g>
		<path class="st3" d="M34.79,36.72H14.25c-0.88,0-1.59-0.71-1.59-1.59v0c0-0.88,0.71-1.59,1.59-1.59h20.54
			c0.88,0,1.59,0.71,1.59,1.59v0C36.38,36.01,35.67,36.72,34.79,36.72z"/>
		<path class="st3" d="M34.79,41.42H14.25c-0.88,0-1.59-0.71-1.59-1.59v0c0-0.88,0.71-1.59,1.59-1.59h20.54
			c0.88,0,1.59,0.71,1.59,1.59v0C36.38,40.71,35.67,41.42,34.79,41.42z"/>
	</g>
	<circle class="st2" cx="7.54" cy="50.15" r="2.71"/>
	<g>
		<path class="st3" d="M23.42,49.14h-9.17c-0.88,0-1.59-0.71-1.59-1.59v0c0-0.88,0.71-1.59,1.59-1.59h9.17
			c0.88,0,1.59,0.71,1.59,1.59v0C25.01,48.43,24.3,49.14,23.42,49.14z"/>
		<path class="st3" d="M23.42,53.85h-9.17c-0.88,0-1.59-0.71-1.59-1.59v0c0-0.88,0.71-1.59,1.59-1.59h9.17
			c0.88,0,1.59,0.71,1.59,1.59v0C25.01,53.14,24.3,53.85,23.42,53.85z"/>
	</g>
	<g>
		<path class="st4" d="M27.52,47.95c0.12-0.72,0.54-1.28,1.1-1.62c0.03-0.02,0.06-0.03,0.09-0.05c0.69-0.38,1.55-0.42,2.29-0.01
			c0.08,0.04,0.16,0.09,0.23,0.15c0.28,0.2,0.51,0.45,0.7,0.77c0.19-0.31,0.41-0.57,0.7-0.77c1.42-1.01,3.44-0.17,3.72,1.54
			c0.1,0.65-0.04,1.26-0.34,1.84c-0.35,0.66-0.84,1.22-1.36,1.75c-0.73,0.75-1.54,1.41-2.34,2.1c-0.05,0.05-0.11,0.09-0.17,0.14
			c-0.12,0.1-0.3,0.1-0.42,0c-0.06-0.05-0.11-0.09-0.17-0.14c-0.79-0.68-1.61-1.34-2.34-2.1c-0.17-0.18-0.35-0.36-0.51-0.55
			c-0.03-0.03-0.06-0.07-0.09-0.1c-0.21-0.25-0.41-0.51-0.58-0.79c-0.06-0.1-0.12-0.2-0.18-0.31C27.56,49.21,27.41,48.6,27.52,47.95
			z"/>
	</g>
	<circle class="st2" cx="7.54" cy="25.3" r="2.71"/>
	<g>
		<path class="st3" d="M34.79,24.29H14.25c-0.88,0-1.59-0.71-1.59-1.59v0c0-0.88,0.71-1.59,1.59-1.59h20.54
			c0.88,0,1.59,0.71,1.59,1.59v0C36.38,23.58,35.67,24.29,34.79,24.29z"/>
		<path class="st3" d="M34.79,28.99H14.25c-0.88,0-1.59-0.71-1.59-1.59v0c0-0.88,0.71-1.59,1.59-1.59h20.54
			c0.88,0,1.59,0.71,1.59,1.59v0C36.38,28.28,35.67,28.99,34.79,28.99z"/>
	</g>
	<g>
		<path class="st1" d="M18.22,6.1h7.68c0.5,0,0.9-0.4,0.9-0.9v0c0-0.5-0.4-0.9-0.9-0.9h-7.68c-0.5,0-0.9,0.4-0.9,0.9v0
			C17.31,5.7,17.72,6.1,18.22,6.1z"/>
		<circle class="st1" cx="15.31" cy="5.2" r="0.9"/>
	</g>
</g>
</svg>
