<svg width="80" height="80" viewBox="0 0 80 80" fill="none" xmlns="http://www.w3.org/2000/svg">
<g clip-path="url(#clip0_1019_174)">
<path d="M40 5.9C58.8 5.9 74.1 21.2 74.1 40C74.1 58.8 58.8 74.1 40 74.1C21.2 74.1 5.9 58.8 5.9 40C5.9 21.2 21.2 5.9 40 5.9ZM40 0C17.9 0 0 17.9 0 40C0 62.1 17.9 80 40 80C62.1 80 80 62.1 80 40C80 17.9 62.1 0 40 0Z" fill="#F45B6A"/>
<path d="M65.5369 10.1913L10.2495 65.4944L14.422 69.6657L69.7094 14.3626L65.5369 10.1913Z" fill="#F45B6A"/>
<path d="M51.5996 61.9001L53.9996 65.1C54.1996 65.3 54.4996 65.4001 54.6996 65.4001C55.3996 65.4001 55.8996 64.7 55.5996 64.1L54.9996 61.6L52.0996 60.8L51.5996 61.9001Z" fill="#999999"/>
<path d="M28.3999 61.9001L25.9999 65.1C25.7999 65.3 25.4999 65.4001 25.2999 65.4001C24.5999 65.4001 24.0999 64.7 24.3999 64.1L24.9999 61.6L27.8999 60.8L28.3999 61.9001Z" fill="#999999"/>
<path d="M16.2002 37.1999L18.2002 54.1999C18.8002 58.5999 22.5002 61.9999 27.0002 61.9999H53.3002C57.7002 61.9999 61.4002 58.7999 62.1002 54.4999L63.9002 41.9999C63.9002 41.9999 53.5002 46.8999 40.1002 41.5999C26.7002 36.2999 16.2002 37.1999 16.2002 37.1999Z" fill="#D9D9D9"/>
<path d="M19.3998 37.9C18.7998 37.9 18.2998 37.4 18.2998 36.8V24.8C18.2998 18.4 21.3998 14.5 26.3998 14.5C31.1998 14.5 32.9998 17.7 33.0998 17.8C33.3998 18.3 33.1998 19 32.6998 19.3C32.1998 19.6 31.4998 19.4 31.1998 18.9C31.0998 18.8 29.7998 16.7 26.3998 16.7C24.5998 16.7 23.1998 17.4 22.1998 18.6C21.0998 20 20.4998 22.1 20.4998 24.8V36.8C20.4998 37.4 19.9998 37.9 19.3998 37.9Z" fill="#999999"/>
<path d="M50 44.9999C46.2 44.9999 42.2 44.4999 39 42.7999C30.3 38.2999 21.5 38.2999 16.2 38.2999C15.6 38.2999 15 37.7999 15 37.0999C15 36.3999 15.5 35.8999 16.2 35.8999C21.7 35.8999 30.9 35.8999 40.1 40.5999C48.4 44.8999 63.3 40.6999 63.5 40.5999C64.1 40.3999 64.8 40.7999 65 41.3999C65.2 41.9999 64.8 42.6999 64.2 42.8999C63.7 43.0999 57.1 44.9999 50 44.9999Z" fill="#BFBFBF"/>
<path d="M43.5997 31.3C43.0997 31.8 42.1997 31.8 41.7997 31.3C41.1997 30.7 41.1997 29.3 41.1997 29C41.1997 28.8 41.1997 28.8 41.3997 28.8C41.8997 28.8 43.0997 28.8 43.6997 29.4C44.0997 30 44.0997 30.7 43.5997 31.3Z" fill="#007CC3"/>
<path d="M46.8995 28C46.3995 28.5 45.4995 28.5 45.0995 28C44.4995 27.4 44.4995 26 44.4995 25.7C44.4995 25.5 44.4995 25.5 44.6995 25.5C45.1995 25.5 46.3995 25.5 46.9995 26.1C47.3995 26.7 47.3995 27.4 46.8995 28Z" fill="#007CC3"/>
<path d="M38.2999 29.3999C37.7999 29.8999 36.8999 29.8999 36.4999 29.3999C35.8999 28.7999 35.8999 27.3999 35.8999 27.0999C35.8999 26.8999 35.8999 26.8999 36.0999 26.8999C36.5999 26.8999 37.7999 26.8999 38.3999 27.4999C38.7999 27.9999 38.7999 28.8999 38.2999 29.3999Z" fill="#007CC3"/>
<path d="M41.5997 26.0999C41.0997 26.5999 40.1997 26.5999 39.7997 26.0999C39.1997 25.4999 39.1997 24.0999 39.1997 23.7999C39.1997 23.5999 39.1997 23.5999 39.3997 23.5999C39.8997 23.5999 41.0997 23.5999 41.6997 24.1999C42.1997 24.6999 42.1997 25.5999 41.5997 26.0999Z" fill="#007CC3"/>
<path d="M45.0001 22.7C44.5001 23.2 43.6001 23.2 43.2001 22.7C42.6001 22.1 42.6001 20.7 42.6001 20.4C42.6001 20.2 42.6001 20.2 42.8001 20.2C43.3001 20.2 44.5001 20.1999 45.1001 20.7999C45.6001 21.3999 45.6001 22.1 45.0001 22.7Z" fill="#007CC3"/>
<path d="M48.6998 33.2C48.1998 33.7 47.2998 33.7 46.8998 33.2C46.2998 32.6 46.2998 31.2 46.2998 30.9C46.2998 30.7 46.2998 30.7 46.4998 30.7C46.9998 30.7 48.1998 30.6999 48.7998 31.2999C49.2998 31.7999 49.2998 32.7 48.6998 33.2Z" fill="#007CC3"/>
<path d="M40.7999 16.0001C38.0999 13.8001 34.0999 14.0001 31.5999 16.5001C29.0999 19.0001 28.8999 23.0001 31.0999 25.7001L40.7999 16.0001Z" fill="#BFBFBF"/>
<path d="M42.6999 16.6L31.6999 27.6C31.3999 27.9001 30.7999 27.9001 30.4999 27.6C30.1999 27.3 30.1999 26.7 30.4999 26.4L41.4999 15.4C41.7999 15.1 42.3999 15.1 42.6999 15.4C42.9999 15.7 42.9999 16.3 42.6999 16.6Z" fill="#999999"/>
</g>
<defs>
<clipPath id="clip0_1019_174">
<rect width="80" height="80" fill="white"/>
</clipPath>
</defs>
</svg>
