<?xml version="1.0" encoding="utf-8"?>
<!-- Generator: Adobe Illustrator 24.1.1, SVG Export Plug-In . SVG Version: 6.00 Build 0)  -->
<svg version="1.1" id="Capa_1" xmlns="http://www.w3.org/2000/svg" xmlns:xlink="http://www.w3.org/1999/xlink" x="0px" y="0px"
	 viewBox="0 0 89.71 74.97" style="enable-background:new 0 0 89.71 74.97;" xml:space="preserve">
<style type="text/css">
	.st0{fill:#D9D9D9;}
	.st1{fill:#BFBFBF;}
	.st2{fill:#F5A4C7;}
	.st3{fill:none;}
	.st4{fill:#FC90CE;}
	.st5{fill:#F4C6DE;}
	.st6{fill:#FFFFFF;}
	.st7{fill:#F45B6A;}
	.st8{fill:#F173AC;}
	.st9{fill:#007CC3;}
	.st10{fill-rule:evenodd;clip-rule:evenodd;fill:#F173AC;}
</style>
<g>
	<g>
		<path class="st0" d="M49.2,24.79c-0.11,0.2-0.07,0.43-0.07,0.64c0,7.12-0.01,14.24,0,21.36c0,0.9-0.22,1.68-0.93,2.28
			c-0.57,0.48-1.24,0.61-1.96,0.6c-6.3-0.01-12.6,0-18.91,0c-0.94,0-1.87,0-2.81,0c-1.77-0.01-2.8-1.04-2.8-2.81
			c0-7.12,0-14.24,0-21.36c0-0.22-0.01-0.43-0.02-0.65c0.12-0.38-0.02-0.76-0.02-1.14c-0.05-3.54,0.2-7.09-0.12-10.62
			c-0.21-2.33-1.01-4.49-2.48-6.36c-0.44-0.55-1-0.98-1.42-1.55c0.24-0.29,0.56-0.47,0.89-0.63c2.82-1.42,5.63-2.84,8.45-4.25
			c0.22-0.11,0.44-0.25,0.71-0.22c0.03,0.26,0.05,0.53,0.09,0.79c0.48,2.73,1.91,4.71,4.62,5.58c1.33,0.42,2.7,0.52,4.11,0.38
			c3.9-0.37,6.38-2.88,6.63-6.75c0.28-0.02,0.51,0.13,0.75,0.24c2.74,1.37,5.49,2.75,8.23,4.13c0.39,0.19,0.78,0.38,1.07,0.73
			c-0.55,0.67-1.23,1.22-1.73,1.94c-1.49,2.14-2.21,4.54-2.28,7.1c-0.08,2.94-0.03,5.88-0.03,8.82
			C49.17,23.62,49.19,24.2,49.2,24.79z"/>
		<path class="st1" d="M17.66,5.17c0.42,0.56,0.98,0.99,1.42,1.55c1.47,1.87,2.27,4.03,2.48,6.36c0.32,3.53,0.07,7.08,0.12,10.62
			c0,0.38,0.14,0.76,0.02,1.14c-3.36-1.63-6.73-3.26-10.09-4.89c-1.03-0.5-1.26-1.18-0.73-2.2c1.98-3.82,3.97-7.64,5.95-11.47
			C17.05,5.87,17.28,5.46,17.66,5.17z"/>
		<path class="st1" d="M49.2,24.79c-0.01-0.58-0.03-1.17-0.03-1.75c0-2.94-0.05-5.88,0.03-8.82c0.07-2.57,0.79-4.97,2.28-7.1
			c0.5-0.72,1.18-1.27,1.73-1.94c0.37,0.28,0.59,0.67,0.8,1.07c1.99,3.83,3.98,7.67,5.97,11.5c0.53,1.02,0.31,1.71-0.72,2.2
			c-3.21,1.56-6.42,3.11-9.64,4.67C49.48,24.68,49.34,24.73,49.2,24.79z"/>
		<path class="st1" d="M43.16,0.07c-0.25,3.88-2.73,6.38-6.63,6.75c-1.4,0.13-2.78,0.04-4.11-0.38c-2.72-0.87-4.14-2.84-4.62-5.58
			c-0.05-0.26-0.06-0.53-0.09-0.79c0.51-0.18,0.98,0.06,1.46,0.15c2.28,0.43,4.58,0.71,6.89,0.64c2.21-0.06,4.41-0.35,6.57-0.82
			C42.81,0.01,42.98-0.05,43.16,0.07z"/>
	</g>
	<g>
		<path class="st2" d="M76.17,74.97H70.4c-0.62,0-1.14-0.5-1.18-1.14L69.16,73h8.25l-0.06,0.82C77.31,74.47,76.79,74.97,76.17,74.97
			z"/>
		<path class="st2" d="M76.31,6.63c-0.09-0.9-1.12-1.59-2.35-1.59H60.9H47.85c-1.24,0-2.26,0.69-2.35,1.59l-0.24,2.41H60.9h15.65
			L76.31,6.63z"/>
		<path class="st4" d="M76.89,9.23c-0.07-0.12-0.21-0.2-0.35-0.2H60.9H45.27c-0.14,0-0.27,0.07-0.35,0.2
			c-0.49,0.83-2.22,4.5-2.22,15.28c0,11.73,0.65,44.49,0.74,48.09c0.01,0.22,0.19,0.39,0.41,0.39h9.39c0.2,0,0.37-0.14,0.4-0.34
			c0.61-3.85,6.2-44.49,7.26-44.49s6.65,40.64,7.26,44.49c0.03,0.2,0.2,0.34,0.4,0.34h9.39c0.22,0,0.4-0.17,0.41-0.39
			c0.09-3.6,0.74-36.36,0.74-48.09C79.1,13.73,77.38,10.06,76.89,9.23z"/>
		<path class="st2" d="M45.64,74.97h5.77c0.62,0,1.14-0.5,1.18-1.14L52.65,73H44.4l0.06,0.82C44.5,74.47,45.02,74.97,45.64,74.97z"
			/>
		<path class="st5" d="M78.97,19.67c-0.41-7.08-1.68-9.74-2.08-10.43c-0.07-0.12-0.21-0.2-0.35-0.2H70
			C70,9.04,69.67,19.41,78.97,19.67z"/>
		<path class="st5" d="M42.84,19.67c0.41-7.08,1.68-9.74,2.08-10.43c0.07-0.12,0.21-0.2,0.35-0.2h6.54
			C51.81,9.04,52.14,19.41,42.84,19.67z"/>
		<path class="st5" d="M78.88,44.31c0.1-6.65,0.19-13.09,0.21-17.62c-4,6.43-8.85,11.06-12.42,13.93c-1.03,0.83-2.02,1.56-2.92,2.19
			c0.59,3.76,1.21,7.86,1.79,11.79C68.41,52.95,73.54,49.61,78.88,44.31z"/>
		<path class="st5" d="M42.92,44.31c-0.1-6.65-0.19-13.09-0.21-17.62c4,6.43,8.85,11.06,12.42,13.93c1.03,0.83,2.02,1.56,2.92,2.19
			c-0.59,3.76-1.21,7.86-1.79,11.79C53.4,52.95,48.27,49.61,42.92,44.31z"/>
	</g>
</g>
</svg>
