<?xml version="1.0" encoding="utf-8"?>
<!-- Generator: Adobe Illustrator 24.1.1, SVG Export Plug-In . SVG Version: 6.00 Build 0)  -->
<svg version="1.1" id="Capa_1" xmlns="http://www.w3.org/2000/svg" xmlns:xlink="http://www.w3.org/1999/xlink" x="0px" y="0px"
	 viewBox="0 0 75 75" style="enable-background:new 0 0 75 75;" xml:space="preserve">
<style type="text/css">
	.st0{fill:#D9D9D9;}
	.st1{fill:#BFBFBF;}
	.st2{fill:#F4C6DE;}
	.st3{fill:none;}
	.st4{fill:#F173AC;}
	.st5{fill:#F5A4C7;}
	.st6{fill:#FFFFFF;}
	.st7{fill:#007CC3;}
	.st8{fill:#F45B6A;}
	.st9{fill:none;stroke:#F45B6A;stroke-width:5.553;stroke-miterlimit:10;}
	.st10{fill:#999999;}
	.st11{fill:#F8C5B0;}
	.st12{fill:#42210B;}
</style>
<g>
	<path class="st11" d="M53.3,62c-0.2-0.5,0.2-0.2,0.1-0.7c-1.2-3.6,6.3-4.9,3.1-6.2c-3.2-1.3-8.4-16.4-8.4-16.4l-2.9-11.2l-13-9.6
		l-10.1-1.6c0,0-0.5,4.6-0.5,5.5c0,1.7,0.8,1.1,0.8,2.6c0,1.5-0.6,1.3-0.6,3.7c0,2.4,2.4,10,3,11.3c0.7,1.3,2.2,0.7,4.1,0.4
		c1.9-0.3,3.6-0.1,3.8,2.7c0.3,2.7,0.3,8.6-1.7,11.7c-2,3.2-6.8,5.2-11,7.4c-3.6,1.9-5,2.5-6.3,6.3c-0.2,0.7,0.1,1.4,0.7,1.8
		C25,75.1,38.8,78,50.9,68C55.1,64.5,49.7,62.3,53.3,62z"/>
	<path class="st12" d="M27,23.8c0,0-4-1.3-5.2-6.1C20.7,12.9,27.2,0,38.7,0s16.6,7.5,16.6,15.5s-3,12.4-10.6,16.9
		s-14.3-4.3-14.3-4.3c0-3.9,0.2-6.8-2.1-6.8C27.6,21.4,27,21.9,27,23.8z"/>
	<path class="st12" d="M50.9,29.8c0,0,2,2.2,5.9,4.4s4.5,9.2,2.6,15.5s-2.4,8.9,0.9,13.2S58.2,73.1,53.9,75c0,0,0.3-3.8-2-7
		c0,0,1.2,3.8-0.4,5.2c0,0,0.8-4.3-2.5-7.4c-3.3-3.1-8.8-5.1-7.6-15.2S47.7,37.3,45,34l1-3.7l3.2-1.6L50.9,29.8z"/>
	<path class="st4" d="M45,34c0,0-1.4-2.1,0-4.6c1.4-2.5,5.7-2.9,5.9,0.4C50.9,29.8,47.4,30,45,34z"/>
</g>
</svg>
