<svg width="75" height="75" viewBox="0 0 75 75" fill="none" xmlns="http://www.w3.org/2000/svg">
<g clip-path="url(#clip0_1134_285)">
<path d="M37.5 5.53125C43.8228 5.53125 50.0037 7.40618 55.2609 10.919C60.5181 14.4317 64.6157 19.4246 67.0353 25.2661C69.4549 31.1076 70.088 37.5355 68.8545 43.7368C67.621 49.9381 64.5762 55.6344 60.1053 60.1053C55.6344 64.5762 49.9381 67.621 43.7368 68.8545C37.5355 70.088 31.1076 69.4549 25.2661 67.0353C19.4246 64.6156 14.4317 60.5181 10.919 55.2609C7.4062 50.0037 5.53127 43.8228 5.53127 37.5C5.54119 29.0244 8.91251 20.8988 14.9057 14.9056C20.8988 8.91249 29.0244 5.54117 37.5 5.53125ZM37.5 0C30.0832 0 22.833 2.19934 16.6661 6.31989C10.4993 10.4404 5.69282 16.2971 2.85453 23.1494C0.0162482 30.0016 -0.726377 37.5416 0.720569 44.8159C2.16751 52.0902 5.73904 58.772 10.9835 64.0165C16.228 69.261 22.9098 72.8325 30.1841 74.2794C37.4584 75.7264 44.9984 74.9838 51.8506 72.1455C58.7029 69.3072 64.5596 64.5007 68.6801 58.3339C72.8007 52.167 75 44.9168 75 37.5C75 27.5544 71.0491 18.0161 64.0165 10.9835C56.9839 3.95088 47.4456 0 37.5 0V0Z" fill="#F45B6A"/>
<path d="M61.4756 9.57403L9.6449 61.4229L13.5568 65.3334L65.3875 13.4845L61.4756 9.57403Z" fill="#F45B6A"/>
<path d="M64.5468 45.7969L45.7968 64.5469C45.5077 64.8366 45.1643 65.0665 44.7863 65.2233C44.4082 65.3801 44.003 65.4608 43.5937 65.4608C43.1844 65.4608 42.7792 65.3801 42.4011 65.2233C42.0231 65.0665 41.6797 64.8366 41.3906 64.5469L10.4531 33.6094C10.1634 33.3203 9.93354 32.9769 9.77672 32.5989C9.6199 32.2209 9.53918 31.8156 9.53918 31.4063C9.53918 30.997 9.6199 30.5918 9.77672 30.2137C9.93354 29.8357 10.1634 29.4923 10.4531 29.2032L29.2031 10.4532C29.4922 10.1635 29.8356 9.93366 30.2136 9.77684C30.5917 9.62003 30.9969 9.53931 31.4062 9.53931C31.8155 9.53931 32.2207 9.62003 32.5988 9.77684C32.9768 9.93366 33.3202 10.1635 33.6093 10.4532L64.5468 41.3907C64.8365 41.6798 65.0664 42.0232 65.2232 42.4012C65.38 42.7793 65.4607 43.1845 65.4607 43.5938C65.4607 44.0031 65.38 44.4084 65.2232 44.7864C65.0664 45.1644 64.8365 45.5078 64.5468 45.7969Z" fill="#D9D9D9"/>
<path d="M50.4375 50.4374C50.2623 50.6092 50.0267 50.7054 49.7813 50.7054C49.5359 50.7054 49.3003 50.6092 49.125 50.4374L30.75 32.0624C30.5783 31.8872 30.4821 31.6516 30.4821 31.4062C30.4821 31.1608 30.5783 30.9252 30.75 30.7499C30.9253 30.5782 31.1609 30.4819 31.4063 30.4819C31.6517 30.4819 31.8873 30.5782 32.0625 30.7499L50.4375 49.1249C50.6093 49.3002 50.7055 49.5358 50.7055 49.7812C50.7055 50.0266 50.6093 50.2622 50.4375 50.4374Z" fill="#BFBFBF"/>
<path d="M18.4781 34.875C20.399 34.875 21.9563 33.3177 21.9563 31.3968C21.9563 29.4759 20.399 27.9187 18.4781 27.9187C16.5572 27.9187 15 29.4759 15 31.3968C15 33.3177 16.5572 34.875 18.4781 34.875Z" fill="#F2F2F2"/>
<path d="M18.4781 34.022C19.9279 34.022 21.1031 32.8467 21.1031 31.397C21.1031 29.9472 19.9279 28.772 18.4781 28.772C17.0284 28.772 15.8531 29.9472 15.8531 31.397C15.8531 32.8467 17.0284 34.022 18.4781 34.022Z" fill="#F173AC"/>
<path d="M17.9156 33.9563C18.2856 34.0436 18.6707 34.0436 19.0406 33.9563V28.8375C18.6707 28.7501 18.2856 28.7501 17.9156 28.8375V33.9563Z" fill="#F5A4C7"/>
<path d="M31.3968 21.9563C33.3177 21.9563 34.875 20.399 34.875 18.4781C34.875 16.5572 33.3177 15 31.3968 15C29.4759 15 27.9187 16.5572 27.9187 18.4781C27.9187 20.399 29.4759 21.9563 31.3968 21.9563Z" fill="#F2F2F2"/>
<path d="M31.3969 21.103C32.8466 21.103 34.0219 19.9278 34.0219 18.478C34.0219 17.0283 32.8466 15.853 31.3969 15.853C29.9471 15.853 28.7719 17.0283 28.7719 18.478C28.7719 19.9278 29.9471 21.103 31.3969 21.103Z" fill="#F173AC"/>
<path d="M30.8344 21.0376C31.2043 21.125 31.5894 21.125 31.9594 21.0376V15.9376C31.5894 15.8502 31.2043 15.8502 30.8344 15.9376V21.0376Z" fill="#F5A4C7"/>
<path d="M24.7594 41.1562C26.6803 41.1562 28.2375 39.599 28.2375 37.6781C28.2375 35.7572 26.6803 34.2 24.7594 34.2C22.8385 34.2 21.2812 35.7572 21.2812 37.6781C21.2812 39.599 22.8385 41.1562 24.7594 41.1562Z" fill="#F2F2F2"/>
<path d="M24.7594 40.3032C26.2091 40.3032 27.3844 39.128 27.3844 37.6782C27.3844 36.2285 26.2091 35.0532 24.7594 35.0532C23.3097 35.0532 22.1344 36.2285 22.1344 37.6782C22.1344 39.128 23.3097 40.3032 24.7594 40.3032Z" fill="#F173AC"/>
<path d="M24.1969 40.2375C24.5668 40.3249 24.952 40.3249 25.3219 40.2375V35.1188C24.952 35.0314 24.5668 35.0314 24.1969 35.1188V40.2375Z" fill="#F5A4C7"/>
<path d="M37.6781 28.2375C39.599 28.2375 41.1562 26.6803 41.1562 24.7594C41.1562 22.8385 39.599 21.2812 37.6781 21.2812C35.7572 21.2812 34.2 22.8385 34.2 24.7594C34.2 26.6803 35.7572 28.2375 37.6781 28.2375Z" fill="#F2F2F2"/>
<path d="M37.6781 27.3843C39.1278 27.3843 40.3031 26.209 40.3031 24.7593C40.3031 23.3095 39.1278 22.1343 37.6781 22.1343C36.2284 22.1343 35.0531 23.3095 35.0531 24.7593C35.0531 26.209 36.2284 27.3843 37.6781 27.3843Z" fill="#F173AC"/>
<path d="M37.1156 27.3188C37.4855 27.4062 37.8707 27.4062 38.2406 27.3188V22.2001C37.8707 22.1127 37.4855 22.1127 37.1156 22.2001V27.3188Z" fill="#F5A4C7"/>
<path d="M31.0406 47.4374C32.9615 47.4374 34.5188 45.8802 34.5188 43.9593C34.5188 42.0384 32.9615 40.4812 31.0406 40.4812C29.1197 40.4812 27.5625 42.0384 27.5625 43.9593C27.5625 45.8802 29.1197 47.4374 31.0406 47.4374Z" fill="#F2F2F2"/>
<path d="M31.0407 46.5845C32.4904 46.5845 33.6656 45.4092 33.6656 43.9595C33.6656 42.5097 32.4904 41.3345 31.0407 41.3345C29.5909 41.3345 28.4156 42.5097 28.4156 43.9595C28.4156 45.4092 29.5909 46.5845 31.0407 46.5845Z" fill="#F173AC"/>
<path d="M30.4781 46.5188C30.8481 46.6061 31.2332 46.6061 31.6032 46.5188V41.4C31.2332 41.3126 30.8481 41.3126 30.4781 41.4V46.5188Z" fill="#F5A4C7"/>
<path d="M43.9593 34.5188C45.8802 34.5188 47.4374 32.9615 47.4374 31.0406C47.4374 29.1197 45.8802 27.5625 43.9593 27.5625C42.0384 27.5625 40.4812 29.1197 40.4812 31.0406C40.4812 32.9615 42.0384 34.5188 43.9593 34.5188Z" fill="#F2F2F2"/>
<path d="M43.9593 33.6655C45.4091 33.6655 46.5843 32.4903 46.5843 31.0405C46.5843 29.5908 45.4091 28.4155 43.9593 28.4155C42.5096 28.4155 41.3344 29.5908 41.3344 31.0405C41.3344 32.4903 42.5096 33.6655 43.9593 33.6655Z" fill="#F173AC"/>
<path d="M43.3969 33.6001C43.7668 33.6874 44.1519 33.6874 44.5219 33.6001V28.4813C44.1519 28.3939 43.7668 28.3939 43.3969 28.4813V33.6001Z" fill="#F5A4C7"/>
<path d="M37.3219 53.7187C39.2428 53.7187 40.8 52.1615 40.8 50.2406C40.8 48.3197 39.2428 46.7625 37.3219 46.7625C35.401 46.7625 33.8438 48.3197 33.8438 50.2406C33.8438 52.1615 35.401 53.7187 37.3219 53.7187Z" fill="#F2F2F2"/>
<path d="M37.3219 52.8657C38.7716 52.8657 39.9469 51.6905 39.9469 50.2407C39.9469 48.791 38.7716 47.6157 37.3219 47.6157C35.8722 47.6157 34.6969 48.791 34.6969 50.2407C34.6969 51.6905 35.8722 52.8657 37.3219 52.8657Z" fill="#F173AC"/>
<path d="M36.7594 52.8C37.1293 52.8874 37.5145 52.8874 37.8844 52.8V47.6813C37.5145 47.5939 37.1293 47.5939 36.7594 47.6813V52.8Z" fill="#F5A4C7"/>
<path d="M50.2406 40.8C52.1615 40.8 53.7187 39.2428 53.7187 37.3219C53.7187 35.401 52.1615 33.8438 50.2406 33.8438C48.3197 33.8438 46.7625 35.401 46.7625 37.3219C46.7625 39.2428 48.3197 40.8 50.2406 40.8Z" fill="#F2F2F2"/>
<path d="M50.2406 39.9468C51.6903 39.9468 52.8656 38.7715 52.8656 37.3218C52.8656 35.872 51.6903 34.6968 50.2406 34.6968C48.7909 34.6968 47.6156 35.872 47.6156 37.3218C47.6156 38.7715 48.7909 39.9468 50.2406 39.9468Z" fill="#F173AC"/>
<path d="M49.6875 39.8813C50.0574 39.9687 50.4426 39.9687 50.8125 39.8813V34.7626C50.4426 34.6752 50.0574 34.6752 49.6875 34.7626V39.8813Z" fill="#F5A4C7"/>
<path d="M43.6031 59.9999C45.524 59.9999 47.0813 58.4427 47.0813 56.5218C47.0813 54.6009 45.524 53.0437 43.6031 53.0437C41.6822 53.0437 40.125 54.6009 40.125 56.5218C40.125 58.4427 41.6822 59.9999 43.6031 59.9999Z" fill="#F2F2F2"/>
<path d="M43.6031 59.147C45.0529 59.147 46.2282 57.9717 46.2282 56.522C46.2282 55.0722 45.0529 53.897 43.6031 53.897C42.1534 53.897 40.9781 55.0722 40.9781 56.522C40.9781 57.9717 42.1534 59.147 43.6031 59.147Z" fill="#F173AC"/>
<path d="M43.0406 59.0625C43.4106 59.1499 43.7957 59.1499 44.1657 59.0625V53.9625C43.7957 53.8751 43.4106 53.8751 43.0406 53.9625V59.0625Z" fill="#F5A4C7"/>
<path d="M56.5218 47.0813C58.4427 47.0813 59.9999 45.524 59.9999 43.6031C59.9999 41.6822 58.4427 40.125 56.5218 40.125C54.6009 40.125 53.0437 41.6822 53.0437 43.6031C53.0437 45.524 54.6009 47.0813 56.5218 47.0813Z" fill="#F2F2F2"/>
<path d="M56.5218 46.228C57.9716 46.228 59.1468 45.0528 59.1468 43.603C59.1468 42.1533 57.9716 40.978 56.5218 40.978C55.0721 40.978 53.8969 42.1533 53.8969 43.603C53.8969 45.0528 55.0721 46.228 56.5218 46.228Z" fill="#F173AC"/>
<path d="M55.9594 46.1626C56.3293 46.2499 56.7144 46.2499 57.0844 46.1626V41.0438C56.7144 40.9564 56.3293 40.9564 55.9594 41.0438V46.1626Z" fill="#F5A4C7"/>
<path d="M24.9375 28.4157C26.8584 28.4157 28.4156 26.8585 28.4156 24.9376C28.4156 23.0167 26.8584 21.4595 24.9375 21.4595C23.0166 21.4595 21.4594 23.0167 21.4594 24.9376C21.4594 26.8585 23.0166 28.4157 24.9375 28.4157Z" fill="#F2F2F2"/>
<path d="M24.9375 27.5625C26.3872 27.5625 27.5625 26.3872 27.5625 24.9375C27.5625 23.4878 26.3872 22.3125 24.9375 22.3125C23.4878 22.3125 22.3125 23.4878 22.3125 24.9375C22.3125 26.3872 23.4878 27.5625 24.9375 27.5625Z" fill="#F173AC"/>
<path d="M24.375 27.4968C24.7449 27.5842 25.1301 27.5842 25.5 27.4968V22.378C25.1301 22.2907 24.7449 22.2907 24.375 22.378V27.4968Z" fill="#F5A4C7"/>
</g>
<defs>
<clipPath id="clip0_1134_285">
<rect width="75" height="75" fill="white"/>
</clipPath>
</defs>
</svg>
