<?xml version="1.0" encoding="utf-8"?>
<!-- Generator: Adobe Illustrator 24.1.1, SVG Export Plug-In . SVG Version: 6.00 Build 0)  -->
<svg version="1.1" id="Capa_1" xmlns="http://www.w3.org/2000/svg" xmlns:xlink="http://www.w3.org/1999/xlink" x="0px" y="0px"
	 viewBox="0 0 74.97 74.97" style="enable-background:new 0 0 74.97 74.97;" xml:space="preserve">
<style type="text/css">
	.st0{fill:#FFFFFF;}
	.st1{fill:#F45B6A;}
	.st2{fill:#FFFFFF;stroke:#F45B6A;stroke-width:5.553;stroke-miterlimit:10;}
	.st3{fill:#F4C6DE;}
	.st4{fill:#FC90CE;}
	.st5{fill:#007CC3;}
	.st6{fill:#D9D9D9;}
	.st7{fill:#BFBFBF;}
	.st8{fill:#FEFEFE;}
	.st9{fill:none;stroke:#FC90CE;stroke-width:1.0402;stroke-miterlimit:10;}
	.st10{fill:#F5A4C7;}
</style>
<g>
	<g>
		<g>
			<path class="st0" d="M37.48,72.19c-19.14,0-34.71-15.57-34.71-34.71c0-19.14,15.57-34.71,34.71-34.71
				c19.14,0,34.71,15.57,34.71,34.71C72.19,56.62,56.62,72.19,37.48,72.19z"/>
			<path class="st1" d="M37.48,5.55c17.61,0,31.93,14.32,31.93,31.93S55.09,69.41,37.48,69.41S5.55,55.09,5.55,37.48
				S19.88,5.55,37.48,5.55 M37.48,0C16.78,0,0,16.78,0,37.48s16.78,37.48,37.48,37.48s37.48-16.78,37.48-37.48S58.18,0,37.48,0
				L37.48,0z"/>
		</g>
		<line class="st2" x1="63.38" y1="11.58" x2="11.58" y2="63.38"/>
	</g>
	<g>
		<g>
			<path class="st3" d="M28.26,15.9c-9.21,0-16.68,7.47-16.68,16.68c0,9.21,7.47,16.68,16.68,16.68s16.68-7.47,16.68-16.68
				C44.95,23.37,37.48,15.9,28.26,15.9z M28.26,39.05c-3.57,0-6.46-2.89-6.46-6.46c0-3.57,2.89-6.46,6.46-6.46s6.46,2.89,6.46,6.46
				C34.72,36.15,31.83,39.05,28.26,39.05z"/>
			<g>
				<path class="st4" d="M31.06,45.29c-0.02-0.08-0.03-0.21-0.09-0.3c-0.38-0.58-0.84-1.1-1.45-1.43c-0.4-0.22-0.8-0.05-1.06,0.31
					c-0.27,0.36-0.26,0.77,0.03,1.12c0.33,0.38,0.69,0.74,1.07,1.07c0.29,0.25,0.65,0.27,0.99,0.1
					C30.88,45.97,31.03,45.68,31.06,45.29z"/>
				<path class="st4" d="M20.91,43.48c0.07-0.02,0.18-0.01,0.26-0.06c0.61-0.37,1.13-0.85,1.48-1.48c0.21-0.38,0.06-0.77-0.27-1.04
					c-0.35-0.29-0.77-0.32-1.12-0.04c-0.41,0.34-0.79,0.73-1.14,1.14c-0.26,0.29-0.26,0.65-0.07,0.99
					C20.23,43.31,20.51,43.47,20.91,43.48z"/>
				<path class="st4" d="M17.16,35.11c-0.02-0.09-0.02-0.22-0.08-0.31c-0.37-0.59-0.85-1.1-1.45-1.44
					c-0.37-0.21-0.76-0.08-1.04,0.26c-0.29,0.35-0.33,0.76-0.04,1.11c0.34,0.41,0.73,0.79,1.14,1.14c0.27,0.24,0.62,0.25,0.95,0.08
					C16.97,35.78,17.12,35.5,17.16,35.11z"/>
				<path class="st4" d="M19.92,27.8c0-0.45-0.17-0.73-0.49-0.9c-0.33-0.17-0.68-0.17-0.95,0.07c-0.4,0.35-0.8,0.73-1.14,1.14
					c-0.3,0.36-0.21,0.88,0.12,1.19c0.33,0.31,0.8,0.37,1.15,0.07c0.41-0.35,0.77-0.75,1.15-1.14
					C19.88,28.11,19.93,27.92,19.92,27.8z"/>
				<path class="st5" d="M42.18,35.08c-0.03-0.09-0.03-0.26-0.12-0.37c-0.37-0.51-0.8-0.97-1.32-1.31c-0.38-0.25-0.79-0.14-1.1,0.19
					c-0.31,0.33-0.35,0.8-0.05,1.16c0.34,0.4,0.71,0.76,1.11,1.11c0.27,0.24,0.61,0.27,0.95,0.1
					C41.98,35.79,42.14,35.51,42.18,35.08z"/>
				<path class="st4" d="M39.38,27.81c-0.01-0.47-0.18-0.74-0.51-0.91c-0.36-0.19-0.7-0.13-0.99,0.12
					c-0.37,0.32-0.72,0.66-1.04,1.03c-0.32,0.37-0.28,0.9,0.04,1.24c0.34,0.35,0.84,0.39,1.23,0.06c0.37-0.32,0.7-0.68,1.04-1.03
					C39.32,28.15,39.39,27.94,39.38,27.81z"/>
				<path class="st4" d="M35.7,40.65c-0.02,0.39,0.15,0.68,0.49,0.87c0.35,0.19,0.7,0.15,0.99-0.1c0.37-0.32,0.72-0.66,1.04-1.02
					c0.37-0.42,0.33-0.97-0.05-1.31c-0.4-0.36-0.89-0.35-1.31,0.05c-0.31,0.28-0.6,0.59-0.89,0.89C35.8,40.19,35.7,40.4,35.7,40.65z
					"/>
				<path class="st5" d="M31.06,45.29c-0.03,0.39-0.18,0.69-0.51,0.85c-0.34,0.17-0.7,0.16-0.99-0.1c-0.38-0.33-0.74-0.69-1.07-1.07
					c-0.29-0.34-0.3-0.75-0.03-1.12c0.27-0.36,0.66-0.53,1.06-0.31c0.61,0.34,1.07,0.85,1.45,1.43
					C31.04,45.08,31.04,45.21,31.06,45.29z"/>
				<path class="st4" d="M20.91,43.48c-0.4-0.01-0.68-0.17-0.86-0.49c-0.2-0.34-0.19-0.7,0.07-0.99c0.35-0.4,0.73-0.79,1.14-1.14
					c0.35-0.29,0.76-0.25,1.12,0.04c0.33,0.27,0.48,0.66,0.27,1.04c-0.35,0.62-0.86,1.11-1.48,1.48
					C21.09,43.47,20.98,43.46,20.91,43.48z"/>
				<path class="st5" d="M37.22,23.64c0,0.75-0.79,1.22-1.38,0.83c-0.49-0.32-0.91-0.76-1.25-1.24c-0.25-0.36-0.2-0.74,0.08-1.07
					c0.29-0.34,0.7-0.44,1.05-0.23c0.58,0.34,1.05,0.84,1.41,1.42C37.2,23.44,37.2,23.57,37.22,23.64z"/>
				<path class="st5" d="M17.16,35.11c-0.04,0.39-0.19,0.67-0.52,0.84c-0.33,0.17-0.67,0.16-0.95-0.08
					c-0.4-0.35-0.79-0.73-1.14-1.14c-0.29-0.35-0.26-0.76,0.04-1.11c0.28-0.33,0.67-0.47,1.04-0.26c0.6,0.34,1.07,0.85,1.45,1.44
					C17.14,34.89,17.14,35.02,17.16,35.11z"/>
				<path class="st4" d="M19.92,27.8c0,0.11-0.04,0.3-0.17,0.44c-0.37,0.39-0.74,0.79-1.15,1.14c-0.35,0.3-0.82,0.24-1.15-0.07
					c-0.33-0.31-0.41-0.84-0.12-1.19c0.35-0.41,0.74-0.79,1.14-1.14c0.27-0.24,0.62-0.25,0.95-0.07
					C19.75,27.07,19.92,27.35,19.92,27.8z"/>
				<path class="st4" d="M30.31,19.94c0,0.11-0.04,0.3-0.17,0.44c-0.37,0.39-0.74,0.79-1.15,1.14c-0.35,0.3-0.82,0.24-1.15-0.07
					c-0.33-0.31-0.41-0.84-0.12-1.19c0.35-0.41,0.74-0.79,1.14-1.14c0.27-0.24,0.62-0.25,0.95-0.07
					C30.14,19.21,30.31,19.49,30.31,19.94z"/>
				<path class="st4" d="M39.38,27.81c0,0.13-0.06,0.34-0.22,0.5c-0.34,0.35-0.67,0.71-1.04,1.03c-0.39,0.33-0.89,0.29-1.23-0.06
					c-0.33-0.34-0.37-0.87-0.04-1.24c0.32-0.37,0.67-0.71,1.04-1.03c0.29-0.25,0.63-0.31,0.99-0.12
					C39.2,27.07,39.37,27.34,39.38,27.81z"/>
				<path class="st4" d="M35.7,40.65c-0.01-0.25,0.09-0.46,0.26-0.63c0.3-0.3,0.58-0.6,0.89-0.89c0.43-0.39,0.92-0.4,1.31-0.05
					c0.38,0.34,0.42,0.89,0.05,1.31c-0.32,0.37-0.67,0.71-1.04,1.02c-0.29,0.25-0.64,0.29-0.99,0.1
					C35.86,41.33,35.68,41.04,35.7,40.65z"/>
				<path class="st5" d="M22.85,24.6c-0.28,0-0.48-0.07-0.65-0.23c-0.35-0.34-0.71-0.67-1.03-1.04c-0.32-0.37-0.28-0.91,0.05-1.24
					c0.33-0.33,0.87-0.36,1.24-0.04c0.36,0.32,0.71,0.67,1.03,1.04c0.26,0.29,0.3,0.64,0.12,0.99
					C23.44,24.41,23.16,24.57,22.85,24.6z"/>
			</g>
		</g>
		<path class="st6" d="M29.14,32.59c-0.48,0-0.87,0.39-0.87,0.87v11.83c0,7.61,2.21,13.78,13.78,13.78s13.78-6.17,13.78-13.78v-12.7
			H29.14z"/>
		<g>
			<path class="st7" d="M55.82,44.63V42.3c2.14,0,3.68,0,4.93-3.5c0.4-1.13,0.41-1.98,0.02-2.53c-0.61-0.87-2.37-1.35-4.95-1.35
				v-2.33c3.5,0,5.74,0.77,6.85,2.34c0.85,1.21,0.94,2.78,0.27,4.66c-0.78,2.17-1.79,3.54-3.18,4.3
				C58.51,44.57,57.18,44.63,55.82,44.63z"/>
		</g>
	</g>
</g>
</svg>
