<?xml version="1.0" encoding="utf-8"?>
<!-- Generator: Adobe Illustrator 24.1.1, SVG Export Plug-In . SVG Version: 6.00 Build 0)  -->
<svg version="1.1" id="Capa_1" xmlns="http://www.w3.org/2000/svg" xmlns:xlink="http://www.w3.org/1999/xlink" x="0px" y="0px"
	 viewBox="0 0 75 75" style="enable-background:new 0 0 75 75;" xml:space="preserve">
<style type="text/css">
	.st0{fill:#D9D9D9;}
	.st1{fill:#BFBFBF;}
	.st2{fill:#F4C6DE;}
	.st3{fill:none;}
	.st4{fill:#F173AC;}
	.st5{fill:#F5A4C7;}
	.st6{fill:#FFFFFF;}
	.st7{fill:#007CC3;}
	.st8{fill:#F45B6A;}
	.st9{fill:none;stroke:#F45B6A;stroke-width:5.553;stroke-miterlimit:10;}
	.st10{fill:#999999;}
	.st11{fill:#F8C5B0;}
	.st12{fill:#42210B;}
</style>
<g>
	<circle class="st6" cx="37.5" cy="37.5" r="37.5"/>
	<g>
		<g>
			<path class="st8" d="M37.5,5.6c17.6,0,31.9,14.3,31.9,31.9S55.1,69.4,37.5,69.4c-17.6,0-31.9-14.3-31.9-31.9S19.9,5.6,37.5,5.6
				 M37.5,0C16.8,0,0,16.8,0,37.5C0,58.2,16.8,75,37.5,75C58.2,75,75,58.2,75,37.5C75,16.8,58.2,0,37.5,0L37.5,0z"/>
		</g>
		<line class="st9" x1="63.4" y1="11.6" x2="11.6" y2="63.4"/>
	</g>
	<g>
		<path class="st0" d="M20.6,32.3c-2.1-0.9-4.2,1.2-3.3,3.3c3.2,7.1,8.9,18.7,14.1,23.9c3.6,3.6,9.5,3.6,13.1,0
			c3.6-3.6,3.6-9.5,0-13.1C39.3,41.2,27.6,35.5,20.6,32.3z"/>
		<path class="st0" d="M54.4,42.7c2.1,0.9,4.2-1.2,3.3-3.3c-3.2-7.1-8.9-18.7-14.1-23.9c-3.6-3.6-9.5-3.6-13.1,0
			c-3.6,3.6-3.6,9.5,0,13.1C35.7,33.8,47.3,39.5,54.4,42.7z"/>
	</g>
</g>
</svg>
