<svg width="80" height="80" viewBox="0 0 80 80" fill="none" xmlns="http://www.w3.org/2000/svg">
<g clip-path="url(#clip0_1118_201)">
<path d="M5 8.3999V71.6999C5 76.2999 14 79.9999 25 79.9999C36 79.9999 45 76.2999 45 71.5999V8.3999" fill="#D9D9D9"/>
<path d="M25 16.8C36.0457 16.8 45 13.0392 45 8.4C45 3.76081 36.0457 0 25 0C13.9543 0 5 3.76081 5 8.4C5 13.0392 13.9543 16.8 25 16.8Z" fill="#BFBFBF"/>
<path d="M25 11.3999C28.9765 11.3999 32.2001 10.0568 32.2001 8.3999C32.2001 6.74305 28.9765 5.3999 25 5.3999C21.0236 5.3999 17.8 6.74305 17.8 8.3999C17.8 10.0568 21.0236 11.3999 25 11.3999Z" fill="#999999"/>
<path d="M45 8.3999C45 8.3999 48.9 13.9999 66.4 16.7999C66.8 16.8999 67.1 17.1999 67.1 17.6999V79.1999C67.1 79.6999 66.6 80.1999 66.1 80.0999C48.8 77.0999 45 71.5999 45 71.5999" fill="#999999"/>
<path d="M57.1001 38.8999C57.1001 38.8999 60.5001 42.4999 66.3001 42.4999C72.2001 42.4999 75.0001 41.2999 75.0001 41.2999V24.2999C75.0001 24.2999 72.1001 25.4999 66.3001 25.4999C60.5001 25.4999 57.1001 21.8999 57.1001 21.8999V38.8999Z" fill="#F173AC"/>
<path d="M57.1001 68.9001C57.1001 68.9001 60.5001 72.5 66.3001 72.5C72.2001 72.5 75.0001 71.3001 75.0001 71.3001V54.2001C75.0001 54.2001 72.1001 55.4001 66.3001 55.4001C60.5001 55.4001 57.1001 51.8 57.1001 51.8V68.9001Z" fill="#F173AC"/>
<path d="M61.3001 54.5C58.6001 53.4 57.1001 51.8 57.1001 51.8V68.9001C57.1001 68.9001 58.6001 70.5 61.3001 71.6V54.5Z" fill="#F5A4C7"/>
<path d="M61.3001 24.5C58.6001 23.4 57.1001 21.8 57.1001 21.8V38.9001C57.1001 38.9001 58.6001 40.5 61.3001 41.6V24.5Z" fill="#F5A4C7"/>
<path d="M25 59.2001C30.9646 59.2001 35.7999 54.3648 35.7999 48.4001C35.7999 42.4354 30.9646 37.6001 25 37.6001C19.0353 37.6001 14.2 42.4354 14.2 48.4001C14.2 54.3648 19.0353 59.2001 25 59.2001Z" fill="#F173AC"/>
<path d="M31.7001 47V49.6C31.7001 50 31.4 50.3 31 50.3H19C18.6 50.3 18.3 50 18.3 49.6V47C18.3 46.6 18.6 46.3 19 46.3H31C31.4 46.3 31.7001 46.7 31.7001 47Z" fill="white"/>
<path d="M26.3 55.0002H23.7C23.3 55.0002 23 54.7002 23 54.3002V42.4002C23 42.0002 23.3 41.7002 23.7 41.7002H26.3C26.7 41.7002 27 42.0002 27 42.4002V54.3002C27 54.7002 26.7 55.0002 26.3 55.0002Z" fill="white"/>
</g>
<defs>
<clipPath id="clip0_1118_201">
<rect width="80" height="80" fill="white"/>
</clipPath>
</defs>
</svg>
