<svg width="80" height="76" viewBox="0 0 80 76" fill="none" xmlns="http://www.w3.org/2000/svg">
<g clip-path="url(#clip0_821_164)">
<path d="M58.9002 31.6001H34.7002V73.8001C34.7002 75.5001 37.0002 76.1001 37.8002 74.6001L60.3002 34.1001C61.0002 33.0001 60.1002 31.6001 58.9002 31.6001Z" fill="#F45B6A"/>
<path d="M21.1001 44.4001H45.3001V2.20012C45.3001 0.500122 43.0001 -0.0998784 42.2001 1.40012L19.7001 41.9001C19.0001 43.0001 19.9001 44.4001 21.1001 44.4001Z" fill="#F45B6A"/>
<path d="M8.39995 6.79995L6.39995 4.89995L8.29995 2.99995C8.89995 2.39995 8.89995 1.49995 8.29995 0.999951C7.69995 0.399951 6.79995 0.399951 6.29995 0.999951L4.39995 2.89995L2.49995 0.899951C1.89995 0.299951 0.999951 0.299951 0.499951 0.899951C-0.100049 1.49995 -0.100049 2.39995 0.499951 2.89995L2.39995 4.79995L0.399951 6.79995C-0.200049 7.39995 -0.200049 8.29995 0.399951 8.79995C0.999951 9.39995 1.89995 9.39995 2.39995 8.79995L4.29995 6.89995L6.19995 8.79995C6.79995 9.39995 7.69995 9.39995 8.19995 8.79995C8.89995 8.29995 8.89995 7.39995 8.39995 6.79995Z" fill="#007CC3"/>
<path d="M79.5999 22.4999L77.6999 20.5999L79.5999 18.6999C80.1999 18.0999 80.1999 17.1999 79.5999 16.6999C78.9999 16.0999 78.0999 16.0999 77.5999 16.6999L75.5999 18.4999L73.6999 16.5999C73.0999 15.9999 72.1999 15.9999 71.6999 16.5999C71.0999 17.1999 71.0999 18.0999 71.6999 18.5999L73.5999 20.4999L71.5999 22.4999C70.9999 23.0999 70.9999 23.9999 71.5999 24.4999C72.1999 25.0999 73.0999 25.0999 73.5999 24.4999L75.4999 22.5999L77.3999 24.4999C77.9999 25.0999 78.8999 25.0999 79.3999 24.4999C80.0999 23.9999 80.1999 23.0999 79.5999 22.4999Z" fill="#007CC3"/>
<path d="M23.3999 73L21.4999 71.1L23.3999 69.2C23.9999 68.6 23.9999 67.7 23.3999 67.2C22.7999 66.6 21.8999 66.6 21.3999 67.2L19.4999 69.1L17.5999 67.2C16.9999 66.6 16.0999 66.6 15.5999 67.2C14.9999 67.8 14.9999 68.7 15.5999 69.2L17.4999 71.1L15.5999 73C14.9999 73.6 14.9999 74.5 15.5999 75C16.1999 75.6 17.0999 75.6 17.5999 75L19.4999 73.1L21.3999 75C21.9999 75.6 22.8999 75.6 23.3999 75C23.9999 74.5 23.9999 73.6 23.3999 73Z" fill="#007CC3"/>
<path d="M14.9999 25C17.5404 25 19.5999 22.9406 19.5999 20.4C19.5999 17.8595 17.5404 15.8 14.9999 15.8C12.4594 15.8 10.3999 17.8595 10.3999 20.4C10.3999 22.9406 12.4594 25 14.9999 25Z" fill="#F4C6DE"/>
<path d="M65.9999 67.5999C68.5404 67.5999 70.5999 65.5404 70.5999 62.9999C70.5999 60.4594 68.5404 58.3999 65.9999 58.3999C63.4594 58.3999 61.3999 60.4594 61.3999 62.9999C61.3999 65.5404 63.4594 67.5999 65.9999 67.5999Z" fill="#F4C6DE"/>
<path d="M53.2001 50.9C55.7406 50.9 57.8001 48.8405 57.8001 46.2999C57.8001 43.7594 55.7406 41.7 53.2001 41.7C50.6596 41.7 48.6001 43.7594 48.6001 46.2999C48.6001 48.8405 50.6596 50.9 53.2001 50.9Z" fill="#F4C6DE"/>
</g>
<defs>
<clipPath id="clip0_821_164">
<rect width="80" height="75" fill="white" transform="translate(0 0.5)"/>
</clipPath>
</defs>
</svg>
