<svg width="81" height="80" viewBox="0 0 81 80" fill="none" xmlns="http://www.w3.org/2000/svg">
<g clip-path="url(#clip0_1348_236)">
<path d="M59.265 21.2025L54.9479 16.8854C54.6357 16.5457 54.2257 16.3114 53.7746 16.2147C53.3235 16.1181 52.8535 16.1639 52.4295 16.3458L41.6367 19.9434L46.6734 30.1966L60.7041 39.0108L64.3017 28.2179C64.44 27.7876 64.4629 27.3286 64.3682 26.8867C64.2735 26.4448 64.0645 26.0354 63.7621 25.6996L59.2651 21.2026" fill="#BFBFBF"/>
<path d="M21.4899 58.9775L17.1728 54.6603C16.8331 54.3481 16.5987 53.9382 16.5021 53.487C16.4054 53.0359 16.4512 52.5659 16.6331 52.142L20.2307 41.3491L33.3621 47.2852L39.2981 60.4165L28.5053 64.0141C28.075 64.1523 27.6159 64.1753 27.174 64.0806C26.7321 63.9859 26.3228 63.7769 25.9869 63.4745L21.4899 58.9775" fill="#BFBFBF"/>
<path d="M29.9444 50.523L35.8805 56.459C43.0757 63.6543 43.2556 69.0507 48.652 74.4471C54.0484 79.8436 65.5608 83.621 74.9146 74.4471C84.0885 65.2732 80.4909 53.7608 74.9146 48.1845C69.5182 42.7881 64.1217 42.6082 56.9265 35.413L50.9904 29.477L45.0544 23.5409C37.8591 16.3457 37.6793 10.9493 32.2828 5.55282C26.8864 0.156392 15.374 -3.6211 6.02023 5.55282C-3.15369 14.7268 0.443934 26.2391 6.02023 31.8154C11.5965 37.3917 16.8131 37.3917 24.0083 44.587C27.7858 48.5443 29.9444 50.523 29.9444 50.523Z" fill="#D9D9D9"/>
<path d="M68.9786 68.6909C67.3559 70.3408 65.1582 71.2995 62.845 71.3665C60.5319 71.4336 58.2823 70.6038 56.5668 69.0507C56.4798 68.951 56.4319 68.8232 56.4319 68.6909C56.4319 68.5586 56.4798 68.4308 56.5668 68.3312L59.0851 65.8128C59.1848 65.7259 59.3126 65.6779 59.4449 65.6779C59.5772 65.6779 59.705 65.7259 59.8047 65.8128C60.6913 66.5122 61.8037 66.8619 62.931 66.7956C64.0583 66.7293 65.1221 66.2516 65.9206 65.4531C66.7191 64.6546 67.1968 63.5908 67.2631 62.4635C67.3294 61.3362 66.9798 60.2237 66.2804 59.3371C66.1934 59.2375 66.1455 59.1097 66.1455 58.9774C66.1455 58.8451 66.1934 58.7173 66.2804 58.6176L68.7987 56.0993C68.8984 56.0123 69.0262 55.9644 69.1585 55.9644C69.2908 55.9644 69.4186 56.0123 69.5182 56.0993C70.9648 57.9091 71.7071 60.1815 71.6079 62.4962C71.5087 64.811 70.5747 67.0115 68.9786 68.6909Z" fill="#BFBFBF"/>
<path d="M24.368 12.0285L21.8497 14.5468C21.75 14.6338 21.6222 14.6817 21.4899 14.6817C21.3576 14.6817 21.2298 14.6338 21.1301 14.5468C20.2435 13.8474 19.1311 13.4978 18.0038 13.5641C16.8765 13.6304 15.8127 14.1081 15.0142 14.9066C14.2157 15.7051 13.738 16.7689 13.6717 17.8962C13.6054 19.0235 13.9551 20.1359 14.6544 21.0225C14.7414 21.1222 14.7893 21.25 14.7893 21.3823C14.7893 21.5146 14.7414 21.6424 14.6544 21.742L12.1361 24.2604C12.0364 24.3474 11.9086 24.3953 11.7763 24.3953C11.644 24.3953 11.5162 24.3474 11.4166 24.2604C9.88138 22.5363 9.06344 20.2905 9.13026 17.9829C9.19708 15.6753 10.1436 13.4806 11.776 11.8482C13.4084 10.2159 15.6031 9.26934 17.9106 9.20252C20.2182 9.1357 22.464 9.95364 24.1881 11.4888C24.5478 11.3089 24.5478 11.6687 24.368 12.0285Z" fill="#BFBFBF"/>
<path d="M32.6426 32.355C33.0023 40.4496 35.5207 46.5656 39.1183 48.0046C40.5876 48.6503 42.2174 48.8383 43.7952 48.5443C45.0434 48.2125 46.1683 47.525 47.033 46.5656C47.9321 45.6523 48.6091 44.5444 49.0117 43.3277C49.3058 41.7499 49.1177 40.1202 48.4721 38.6508C47.033 35.4129 40.7372 32.7148 32.6426 32.355Z" fill="#F45B6A"/>
</g>
<defs>
<clipPath id="clip0_1348_236">
<rect width="80.117" height="80" fill="white" transform="translate(0.408936)"/>
</clipPath>
</defs>
</svg>
