<?xml version="1.0" encoding="utf-8"?>
<!-- Generator: Adobe Illustrator 24.1.1, SVG Export Plug-In . SVG Version: 6.00 Build 0)  -->
<svg version="1.1" id="Capa_1" xmlns="http://www.w3.org/2000/svg" xmlns:xlink="http://www.w3.org/1999/xlink" x="0px" y="0px"
	 viewBox="0 0 89.71 74.97" style="enable-background:new 0 0 89.71 74.97;" xml:space="preserve">
<style type="text/css">
	.st0{fill:#D9D9D9;}
	.st1{fill:#BFBFBF;}
	.st2{fill:#F5A4C7;}
	.st3{fill:none;}
	.st4{fill:#FC90CE;}
	.st5{fill:#F4C6DE;}
	.st6{fill:#FFFFFF;}
	.st7{fill:#F45B6A;}
	.st8{fill:#F173AC;}
	.st9{fill:#007CC3;}
	.st10{fill-rule:evenodd;clip-rule:evenodd;fill:#F173AC;}
</style>
<g>
	<path class="st1" d="M67.38,74.97H17.64c-1.34,0-2.42-1.08-2.42-2.42V7.11c0-1.34,1.08-2.42,2.42-2.42h49.74
		c1.34,0,2.42,1.08,2.42,2.42v65.44C69.8,73.88,68.72,74.97,67.38,74.97z"/>
	<path class="st0" d="M72.07,70.27H22.33c-1.34,0-2.42-1.08-2.42-2.42V2.42C19.91,1.08,21,0,22.33,0l49.74,0
		c1.34,0,2.42,1.08,2.42,2.42v65.44C74.49,69.19,73.41,70.27,72.07,70.27z"/>
	<g>
		<circle class="st8" cx="47.2" cy="16.98" r="8.01"/>
		<g>
			<path class="st6" d="M43.31,16.12h3.03v-3.03h1.71v3.03h3.05v1.71h-3.05v3.05h-1.71v-3.05h-3.03V16.12z"/>
		</g>
	</g>
	<path class="st9" d="M66.74,34.76H27.66c-1.08,0-1.95-0.87-1.95-1.95v0c0-1.08,0.87-1.95,1.95-1.95h39.08
		c1.08,0,1.95,0.87,1.95,1.95v0C68.69,33.89,67.82,34.76,66.74,34.76z"/>
	<path class="st9" d="M66.74,43.61H27.66c-1.08,0-1.95-0.87-1.95-1.95v0c0-1.08,0.87-1.95,1.95-1.95h39.08
		c1.08,0,1.95,0.87,1.95,1.95v0C68.69,42.74,67.82,43.61,66.74,43.61z"/>
	<path class="st9" d="M66.74,52.46H27.66c-1.08,0-1.95-0.87-1.95-1.95v0c0-1.08,0.87-1.95,1.95-1.95h39.08
		c1.08,0,1.95,0.87,1.95,1.95v0C68.69,51.58,67.82,52.46,66.74,52.46z"/>
	<path class="st9" d="M66.74,61.31H27.66c-1.08,0-1.95-0.87-1.95-1.95v0c0-1.08,0.87-1.95,1.95-1.95h39.08
		c1.08,0,1.95,0.87,1.95,1.95v0C68.69,60.43,67.82,61.31,66.74,61.31z"/>
</g>
</svg>
