<?xml version="1.0" encoding="utf-8"?>
<!-- Generator: Adobe Illustrator 24.1.1, SVG Export Plug-In . SVG Version: 6.00 Build 0)  -->
<svg version="1.1" id="Capa_1" xmlns="http://www.w3.org/2000/svg" xmlns:xlink="http://www.w3.org/1999/xlink" x="0px" y="0px"
	 viewBox="0 0 89.71 74.97" style="enable-background:new 0 0 89.71 74.97;" xml:space="preserve">
<style type="text/css">
	.st0{fill:#D9D9D9;}
	.st1{fill:#BFBFBF;}
	.st2{fill:#F5A4C7;}
	.st3{fill:none;}
	.st4{fill:#FC90CE;}
	.st5{fill:#F4C6DE;}
	.st6{fill:#FFFFFF;}
	.st7{fill:#F45B6A;}
	.st8{fill:#F173AC;}
	.st9{fill:#007CC3;}
	.st10{fill-rule:evenodd;clip-rule:evenodd;fill:#F173AC;}
</style>
<g>
	<path class="st1" d="M88,60.62H1.71C0.77,60.62,0,59.85,0,58.91V1.71C0,0.77,0.77,0,1.71,0H88c0.95,0,1.71,0.77,1.71,1.71v57.2
		C89.71,59.85,88.94,60.62,88,60.62z"/>
	<path class="st6" d="M84.05,50.78H5.66c-0.95,0-1.71-0.77-1.71-1.71V7.05c0-0.95,0.77-1.71,1.71-1.71h78.38
		c0.95,0,1.71,0.77,1.71,1.71v42.01C85.76,50.01,84.99,50.78,84.05,50.78z"/>
	<circle class="st0" cx="44.86" cy="55.7" r="2.09"/>
	<path class="st1" d="M60.87,67.95H29.25c-2.75,0-4.97,2.23-4.97,4.97v0.35c0,0.93,0.76,1.69,1.69,1.69h38.19
		c0.93,0,1.69-0.76,1.69-1.69v-0.35C65.84,70.18,63.61,67.95,60.87,67.95z"/>
	<rect x="37.47" y="60.62" class="st0" width="15.18" height="7.33"/>
	<g>
		<circle class="st8" cx="44.86" cy="28.06" r="11.9"/>
		<g>
			<g>
				<path class="st6" d="M42.02,33.39L42.02,33.39c-0.27,0-0.52-0.11-0.71-0.29l-2.99-2.99c-0.39-0.39-0.39-1.02,0-1.41
					s1.02-0.39,1.41,0l2.28,2.28l7.95-7.95c0.39-0.39,1.02-0.39,1.41,0s0.39,1.02,0,1.41l-8.66,8.66
					C42.54,33.28,42.29,33.39,42.02,33.39z"/>
			</g>
		</g>
	</g>
</g>
</svg>
