<svg width="80" height="80" viewBox="0 0 80 80" fill="none" xmlns="http://www.w3.org/2000/svg">
<g clip-path="url(#clip0_1015_281)">
<path d="M40 5.9C58.8 5.9 74.1 21.2 74.1 40C74.1 58.8 58.8 74.1 40 74.1C21.2 74.1 5.9 58.8 5.9 40C5.9 21.2 21.2 5.9 40 5.9ZM40 0C17.9 0 0 17.9 0 40C0 62.1 17.9 80 40 80C62.1 80 80 62.1 80 40C80 17.9 62.1 0 40 0Z" fill="#F45B6A"/>
<path d="M65.5213 10.2263L10.2339 65.5293L14.4064 69.7006L69.6938 14.3976L65.5213 10.2263Z" fill="#F45B6A"/>
<path d="M37.2 59.1999L38.9 60.8999C40.1 62.0999 42 62.0999 43.1 60.8999L60.8 43.1999C62 41.9999 62 40.0999 60.8 38.9999L59.1 37.2999C58.4 36.5999 57.3 36.5999 56.6 37.2999L37.2 56.6999C36.6 57.3999 36.6 58.4999 37.2 59.1999Z" fill="#D9D9D9"/>
<path d="M60.9999 43.0999L63.8999 45.9999C64.9999 47.0999 64.9999 48.9999 63.8999 50.0999L49.9999 63.8999C48.8999 64.9999 46.9999 64.9999 45.8999 63.8999L43.0999 60.9999L60.9999 43.0999Z" fill="#BFBFBF"/>
<path d="M49.9949 44.0694L42.9946 37.0691L37.055 43.0087L44.0553 50.009L49.9949 44.0694Z" fill="#007CC3"/>
<path d="M56 61.9L54 59.9L59.9 54L61.9 56C62.9 57 62.9 58.5 61.9 59.5L59.5 61.9C58.5 62.9 56.9 62.9 56 61.9Z" fill="#007CC3"/>
<path d="M20.8 42.7999L19.1 41C17.9 39.7999 17.9 37.9 19.1 36.7999L36.7999 19.1C38 17.9 39.9 17.9 41 19.1L42.7 20.8C43.4 21.5 43.4 22.6 42.7 23.3L23.3 42.7999C22.6 43.4 21.5 43.4 20.8 42.7999Z" fill="#D9D9D9"/>
<path d="M36.8999 18.9999L33.9999 16.0999C32.8999 14.9999 30.9999 14.9999 29.8999 16.0999L16.0999 29.9999C14.9999 31.0999 14.9999 32.9999 16.0999 34.0999L18.9999 36.9999L36.8999 18.9999Z" fill="#BFBFBF"/>
<path d="M30.0051 35.9599L37.0054 42.9602L42.945 37.0206L35.9447 30.0203L30.0051 35.9599Z" fill="#007CC3"/>
<path d="M18.0999 23.9999L20.0999 25.9999L25.9999 20.0999L23.9999 18.0999C22.9999 17.0999 21.4999 17.0999 20.4999 18.0999L18.0999 20.4999C17.0999 21.4999 17.0999 23.0999 18.0999 23.9999Z" fill="#007CC3"/>
</g>
<defs>
<clipPath id="clip0_1015_281">
<rect width="80" height="80" fill="white"/>
</clipPath>
</defs>
</svg>
