<?xml version="1.0" encoding="utf-8"?>
<!-- Generator: Adobe Illustrator 24.1.1, SVG Export Plug-In . SVG Version: 6.00 Build 0)  -->
<svg version="1.1" id="Capa_1" xmlns="http://www.w3.org/2000/svg" xmlns:xlink="http://www.w3.org/1999/xlink" x="0px" y="0px"
	 viewBox="0 0 75 75" style="enable-background:new 0 0 75 75;" xml:space="preserve">
<style type="text/css">
	.st0{fill:#D9D9D9;}
	.st1{fill:#BFBFBF;}
	.st2{fill:#F4C6DE;}
	.st3{fill:none;}
	.st4{fill:#F173AC;}
	.st5{fill:#F5A4C7;}
	.st6{fill:#FFFFFF;}
	.st7{fill:#007CC3;}
	.st8{fill:#F45B6A;}
	.st9{fill:none;stroke:#F45B6A;stroke-width:5.553;stroke-miterlimit:10;}
	.st10{fill:#999999;}
	.st11{fill:#F8C5B0;}
	.st12{fill:#42210B;}
</style>
<g>
	<path class="st1" d="M60,75H10.3c-1.3,0-2.4-1.1-2.4-2.4V7.1c0-1.3,1.1-2.4,2.4-2.4H60c1.3,0,2.4,1.1,2.4,2.4v65.4
		C62.4,73.9,61.3,75,60,75z"/>
	<path class="st0" d="M64.7,70.3H15c-1.3,0-2.4-1.1-2.4-2.4V2.4C12.5,1.1,13.6,0,15,0l49.7,0c1.3,0,2.4,1.1,2.4,2.4v65.4
		C67.1,69.2,66,70.3,64.7,70.3z"/>
	<g>
		<circle class="st4" cx="55" cy="51.1" r="5.1"/>
		<g>
			<path class="st6" d="M52.6,50.5h1.9v-1.9h1.1v1.9h1.9v1.1h-1.9v1.9h-1.1v-1.9h-1.9V50.5z"/>
		</g>
	</g>
	<circle class="st7" cx="23.1" cy="35.4" r="3.5"/>
	<g>
		<path class="st6" d="M58,34.2H31.7c-1.1,0-2-0.9-2-2v0c0-1.1,0.9-2,2-2H58c1.1,0,2,0.9,2,2v0C60.1,33.2,59.2,34.2,58,34.2z"/>
		<path class="st6" d="M58,40.2H31.7c-1.1,0-2-0.9-2-2v0c0-1.1,0.9-2,2-2H58c1.1,0,2,0.9,2,2v0C60.1,39.3,59.2,40.2,58,40.2z"/>
	</g>
	<circle class="st7" cx="23.1" cy="51.4" r="3.5"/>
	<g>
		<path class="st6" d="M43.4,50.1H31.7c-1.1,0-2-0.9-2-2v0c0-1.1,0.9-2,2-2h11.8c1.1,0,2,0.9,2,2v0C45.5,49.2,44.6,50.1,43.4,50.1z"
			/>
		<path class="st6" d="M43.4,56.1H31.7c-1.1,0-2-0.9-2-2v0c0-1.1,0.9-2,2-2h11.8c1.1,0,2,0.9,2,2v0C45.5,55.2,44.6,56.1,43.4,56.1z"
			/>
	</g>
	<circle class="st7" cx="23.1" cy="19.5" r="3.5"/>
	<g>
		<path class="st6" d="M58,18.2H31.7c-1.1,0-2-0.9-2-2v0c0-1.1,0.9-2,2-2H58c1.1,0,2,0.9,2,2v0C60.1,17.3,59.2,18.2,58,18.2z"/>
		<path class="st6" d="M58,24.2H31.7c-1.1,0-2-0.9-2-2v0c0-1.1,0.9-2,2-2H58c1.1,0,2,0.9,2,2v0C60.1,23.3,59.2,24.2,58,24.2z"/>
	</g>
</g>
</svg>
