<svg width="52" height="80" viewBox="0 0 52 80" fill="none" xmlns="http://www.w3.org/2000/svg">
<g clip-path="url(#clip0_1142_178)">
<path d="M43.553 36.2561C44.3092 37.0959 45.0195 37.9144 45.6838 38.7116C45.022 37.9155 44.309 37.0958 43.553 36.2561Z" fill="#F8C5B0"/>
<path d="M49.0798 49.4836L49.0792 49.4828C48.632 51.8499 48.0431 54.188 47.3154 56.4844C48.0446 54.1882 48.6342 51.85 49.0812 49.4827L49.0798 49.4836Z" fill="#F8C5B0"/>
<path d="M42.2602 34.8447C42.6535 35.2665 43.0361 35.6833 43.4078 36.0951C41.6405 34.1408 39.6377 32.0777 37.4644 29.9386C36.7421 30.7121 35.9447 31.4118 35.0838 32.0275L35.0691 32.0384C34.6562 32.3326 34.2293 32.6067 33.7884 32.8608C33.7614 32.8765 33.7357 32.8938 33.7086 32.9093C33.2944 33.145 32.8679 33.3594 32.4316 33.5579C32.374 33.5842 32.3188 33.6145 32.2608 33.6401C31.8543 33.8191 31.4368 33.9757 31.0133 34.1207C30.9217 34.1522 30.8334 34.1904 30.7411 34.2203C30.3447 34.3479 29.9384 34.4512 29.5292 34.5479C29.4058 34.5772 29.2863 34.6159 29.1618 34.6423C28.7608 34.7269 28.3507 34.7847 27.9392 34.8383C27.8035 34.8562 27.6717 34.8857 27.5349 34.9001C26.9818 34.9583 26.4259 34.9878 25.8697 34.9883C23.7832 34.9883 21.7172 34.5774 19.7895 33.7789C17.8619 32.9804 16.1104 31.8101 14.635 30.3348C13.1596 28.8594 11.9893 27.1079 11.1908 25.1803C10.3924 23.2526 9.98141 21.1866 9.98141 19.1001C9.98141 18.5729 10.0097 18.0526 10.0603 17.5389C10.0815 17.3216 10.122 17.1108 10.1519 16.8962C10.1923 16.6085 10.2274 16.3193 10.2831 16.0369C10.3384 15.7541 10.4131 15.4793 10.4831 15.2022C10.5341 15.0019 10.5788 14.7994 10.6374 14.6022C10.7328 14.2788 10.8463 13.9641 10.9613 13.6497C11.0119 13.5124 11.0578 13.3732 11.1121 13.2378C11.2517 12.8867 11.408 12.5452 11.5714 12.2069C11.6133 12.1206 11.6527 12.0333 11.6961 11.948C11.8824 11.5795 12.0843 11.2218 12.2978 10.8705C12.3258 10.8247 12.3529 10.7785 12.3813 10.733C12.6144 10.358 12.8622 9.99432 13.1249 9.64181L13.1621 9.592C13.4394 9.22207 13.7316 8.86519 14.0389 8.52138C10.3873 5.24076 7.60849 2.74199 5.62857 0.844649C5.18555 0.432362 4.63146 0.158884 4.03475 0.0579952C3.43804 -0.0428932 2.82484 0.0332285 2.27091 0.276957C1.71698 0.520686 1.24658 0.921344 0.917815 1.42944C0.589053 1.93753 0.416333 2.5308 0.42099 3.13597V73.8549C0.447954 74.4633 0.635648 75.0537 0.964965 75.566C1.29428 76.0782 1.75346 76.4941 2.29575 76.7712C5.00365 78.021 10.8361 79.9999 19.7932 79.9999C36.5965 79.8731 44.0494 66.7424 47.3155 56.4843C39.8288 49.0287 41.9723 36.3539 42.2602 34.8447Z" fill="#F8C5B0"/>
<path d="M45.7979 38.8501C46.0772 39.1877 46.3469 39.5208 46.6069 39.8495C46.3464 39.5206 46.0767 39.1875 45.7979 38.8501Z" fill="#F8C5B0"/>
<path d="M47.0808 40.4547L47.0817 40.455C46.9874 40.3325 46.8895 40.2083 46.7925 40.0845C46.8921 40.2116 46.983 40.3346 47.0797 40.4603L47.0808 40.4547Z" fill="#F8C5B0"/>
<path d="M47.0798 40.4603C46.9831 40.3345 46.8921 40.2116 46.7925 40.0844C46.7314 40.0065 46.669 39.9279 46.6068 39.8494C46.3461 39.5204 46.0764 39.1873 45.7977 38.85C45.7594 38.8036 45.7226 38.758 45.6839 38.7115C45.0218 37.9154 44.3115 37.0969 43.553 36.2561C43.5049 36.2026 43.4562 36.1489 43.4077 36.0952C43.0347 35.6828 42.6522 35.266 42.26 34.8447C41.9722 36.3539 39.8287 49.0288 47.3154 56.4844V56.4843C48.043 54.1879 48.6319 51.8498 49.0791 49.4827C45.8689 46.1678 47.0667 40.5215 47.0798 40.4603Z" fill="#D36F62"/>
<path d="M47.0797 40.4602C47.0666 40.5214 45.8688 46.1677 49.079 49.4826L49.0797 49.4834L49.0811 49.4825C49.0961 49.4725 52.0777 47.4962 51.1427 44.1717C50.2056 40.8397 48.1234 40.7671 47.0817 40.4548L47.0808 40.4546L47.0797 40.4602Z" fill="#C15044"/>
<path d="M11.696 11.9481C11.883 11.5804 12.0835 11.2213 12.2977 10.8706C12.0842 11.2219 11.8823 11.5797 11.696 11.9481Z" fill="#FF8178"/>
<path d="M10.0601 17.539C10.0815 17.3218 10.1216 17.1107 10.1517 16.8962C10.1218 17.1108 10.0812 17.3217 10.0601 17.539Z" fill="#FF8178"/>
<path d="M10.6372 14.6022C10.7332 14.2792 10.8455 13.9636 10.9611 13.6497C10.8461 13.9641 10.7326 14.2787 10.6372 14.6022Z" fill="#FF8178"/>
<path d="M10.283 16.0371C10.3386 15.7546 10.4125 15.4793 10.483 15.2024C10.413 15.4795 10.3383 15.7543 10.283 16.0371Z" fill="#FF8178"/>
<path d="M35.069 32.0386C34.6569 32.3331 34.2284 32.606 33.7883 32.861C34.2293 32.6066 34.6562 32.3325 35.069 32.0386Z" fill="#FF8178"/>
<path d="M11.1121 13.238C11.2523 12.8875 11.4073 12.5447 11.5714 12.207C11.408 12.5454 11.2517 12.8868 11.1121 13.238Z" fill="#FF8178"/>
<path d="M12.3811 10.733C12.6146 10.3589 12.8625 9.99522 13.1248 9.64185C12.8622 9.99508 12.6143 10.3588 12.3811 10.733Z" fill="#FF8178"/>
<path d="M30.741 34.2205C30.345 34.3487 29.938 34.4509 29.5291 34.548C29.9383 34.4513 30.3446 34.3481 30.741 34.2205Z" fill="#FF8178"/>
<path d="M32.2607 33.6401C31.8548 33.8198 31.4362 33.975 31.0132 34.1207C31.4366 33.9756 31.8542 33.8191 32.2607 33.6401Z" fill="#FF8178"/>
<path d="M33.7084 32.9094C33.2949 33.1457 32.867 33.3589 32.4314 33.558C32.8677 33.3596 33.2942 33.1451 33.7084 32.9094Z" fill="#FF8178"/>
<path d="M29.1615 34.6426C28.7608 34.7276 28.3503 34.7846 27.939 34.8386C28.3504 34.7849 28.7605 34.7271 29.1615 34.6426Z" fill="#FF8178"/>
<path d="M27.5349 34.9001C26.9817 34.9586 26.4259 34.988 25.8696 34.9884C26.4259 34.9878 26.9817 34.9584 27.5349 34.9001Z" fill="#FF8178"/>
<path d="M14.0388 8.52144C14.9974 9.38265 16.0024 10.2854 17.0853 11.2599C17.8453 11.9342 18.6063 12.6099 19.3683 13.287L19.3683 13.2869C20.1342 12.4274 21.0627 11.7281 22.1002 11.2292C23.1377 10.7303 24.2637 10.4418 25.4133 10.3802C26.5629 10.3187 27.7132 10.4853 28.7981 10.8705C29.8829 11.2558 30.8808 11.852 31.734 12.6248C32.5873 13.3976 33.2792 14.3317 33.7697 15.3732C34.2602 16.4146 34.5396 17.5429 34.5919 18.693C34.6442 19.843 34.4683 20.992 34.0743 22.0737C33.6803 23.1554 33.0761 24.1484 32.2964 24.9954C34.0932 26.6753 35.8295 28.3295 37.4643 29.9387C36.7414 30.7116 35.9441 31.4112 35.0838 32.0276C36.9056 30.7329 38.4334 29.0681 39.5674 27.1422C40.7014 25.2163 41.416 23.0727 41.6644 20.8515C41.9128 18.6304 41.6894 16.3819 41.0088 14.253C40.3282 12.1242 39.2058 10.1631 37.7151 8.49796C36.2243 6.83284 34.3987 5.50125 32.3578 4.59034C30.3169 3.67942 28.1067 3.20971 25.8717 3.21192C23.6367 3.21414 21.4274 3.68824 19.3883 4.6032C17.3492 5.51816 15.5263 6.85336 14.0388 8.52144C13.7311 8.86538 13.4388 9.22225 13.1621 9.59206C13.4394 9.2228 13.7317 8.86593 14.0388 8.52144Z" fill="#FF8178"/>
<path d="M22.5431 16.1151C22.7724 16.3199 22.9987 16.5238 23.2275 16.7286C23.9847 17.4062 24.7381 18.0826 25.4879 18.758C25.8821 19.1131 26.2716 19.4665 26.6628 19.8207C27.2577 20.3592 27.8484 20.8962 28.4349 21.4316C28.8555 21.8153 29.2736 22.198 29.6892 22.5797C30.2647 23.1086 30.8309 23.6336 31.3954 24.1579C31.6942 24.4353 32.0031 24.7171 32.2984 24.9931L32.2961 24.9953L32.2963 24.9955C33.0755 24.1484 33.6794 23.1554 34.0731 22.0738C34.4667 20.9922 34.6424 19.8434 34.59 18.6936C34.5375 17.5438 34.258 16.4157 33.7675 15.3745C33.277 14.3332 32.5853 13.3993 31.7322 12.6267C30.879 11.854 29.8814 11.2579 28.7968 10.8727C27.7122 10.4874 26.562 10.3207 25.4127 10.382C24.2633 10.4434 23.1375 10.7317 22.1 11.2303C21.0626 11.7288 20.1342 12.4278 19.3682 13.2869L19.4278 13.34C20.4683 14.2647 21.5068 15.1898 22.5431 16.1151Z" fill="#F45B6A"/>
<path d="M37.4644 29.9387C35.8296 28.3296 34.0933 26.6753 32.2965 24.9955L32.2964 24.9954C30.741 26.6991 28.5739 27.7171 26.2696 27.8266C23.9653 27.936 21.7115 27.128 20.0015 25.5794C18.2916 24.0309 17.265 21.8679 17.1463 19.564C17.0276 17.2602 17.8266 15.0031 19.3683 13.2871C18.607 12.6105 17.846 11.9348 17.0853 11.26C16.0025 10.2854 14.9975 9.38269 14.0389 8.52148C13.7314 8.86511 13.4392 9.22198 13.1622 9.5921L13.1249 9.64191C12.8622 9.99458 12.6143 10.3583 12.3813 10.7331C12.3529 10.7786 12.3257 10.8248 12.2978 10.8706C12.0838 11.2211 11.8833 11.5803 11.6962 11.9481C11.6528 12.0334 11.6133 12.1207 11.5715 12.207C11.4074 12.5446 11.2524 12.8875 11.1121 13.2379C11.0579 13.3734 11.012 13.5125 10.9614 13.6498C10.8457 13.9638 10.7335 14.2794 10.6375 14.6023C10.5789 14.7995 10.5342 15.002 10.4832 15.2023C10.4126 15.4792 10.3387 15.7545 10.2831 16.037C10.2274 16.3195 10.1923 16.6086 10.1519 16.8963C10.1218 17.1107 10.0817 17.3219 10.0603 17.539C10.0098 18.0527 9.98145 18.573 9.98145 19.1002C9.98051 21.3274 10.448 23.5299 11.3536 25.5646C12.2593 27.5994 13.5827 29.4209 15.2381 30.9109C16.8935 32.4009 18.8437 33.5261 20.9622 34.2134C23.0807 34.9007 25.3201 35.1347 27.5349 34.9002C27.6717 34.8858 27.8035 34.8563 27.9392 34.8385C28.3505 34.7845 28.7611 34.7275 29.1617 34.6425C29.2863 34.616 29.4057 34.5773 29.5292 34.548C29.9381 34.4508 30.3452 34.3486 30.7411 34.2204C30.8334 34.1905 30.9217 34.1524 31.0133 34.1208C31.4363 33.9751 31.8549 33.82 32.2608 33.6403C32.3188 33.6146 32.374 33.5843 32.4316 33.558C32.8672 33.3589 33.2952 33.1457 33.7086 32.9094C33.7357 32.8939 33.7614 32.8766 33.7884 32.861C34.2284 32.606 34.6569 32.3331 35.0691 32.0386L35.0838 32.0276C35.9441 31.4113 36.7415 30.7116 37.4644 29.9387Z" fill="#E06C69"/>
<path d="M19.428 13.3401C20.4684 14.2646 21.5068 15.1896 22.5433 16.1152C21.5079 15.1901 20.4695 14.2651 19.428 13.3401Z" fill="#E06C69"/>
<path d="M28.435 21.4315C27.8483 20.896 27.2575 20.359 26.6628 19.8206C27.2578 20.3591 27.8485 20.8961 28.435 21.4315Z" fill="#E06C69"/>
<path d="M25.4879 18.7579C24.7388 18.0827 23.9853 17.4062 23.2275 16.7285C23.9847 17.4061 24.7381 18.0825 25.4879 18.7579Z" fill="#E06C69"/>
<path d="M31.3956 24.1577C30.8312 23.6334 30.265 23.1085 29.6895 22.5796C30.265 23.1084 30.8311 23.6334 31.3956 24.1577Z" fill="#E06C69"/>
<path d="M17.1387 19.1001C17.1368 20.8591 17.6668 22.5775 18.659 24.0298C19.6513 25.4821 21.0596 26.6004 22.6989 27.238C24.3382 27.8755 26.132 28.0025 27.8448 27.6023C29.5576 27.2021 31.1093 26.2933 32.2963 24.9953L32.2986 24.993C32.0033 24.717 31.6944 24.4352 31.3956 24.1578C30.8311 23.6334 30.265 23.1084 29.6894 22.5796C29.2739 22.1978 28.8558 21.8151 28.4352 21.4314C27.8484 20.896 27.2577 20.359 26.663 19.8205C26.2718 19.4664 25.8823 19.113 25.4882 18.7579C24.7389 18.0827 23.9854 17.4062 23.2278 16.7285C22.999 16.5237 22.7726 16.3198 22.5433 16.115C21.5081 15.1901 20.4696 14.2651 19.428 13.34L19.3684 13.2869L19.3683 13.287C17.9324 14.8827 17.1381 16.9535 17.1387 19.1001Z" fill="#CC4659"/>
</g>
<defs>
<clipPath id="clip0_1142_178">
<rect width="50.9033" height="80" fill="white" transform="translate(0.420898)"/>
</clipPath>
</defs>
</svg>
