<svg width="75" height="58" viewBox="0 0 75 58" fill="none" xmlns="http://www.w3.org/2000/svg">
<g clip-path="url(#clip0_1128_114)">
<path d="M73.3616 0H1.63843C0.73355 0 0 0.73355 0 1.63843V55.4832C0 56.3881 0.73355 57.1217 1.63843 57.1217H73.3616C74.2664 57.1217 75 56.3881 75 55.4832V1.63843C75 0.73355 74.2664 0 73.3616 0Z" fill="#F173AC"/>
<path d="M7.28516 9.53674e-06C7.28516 9.53674e-06 8.19341 17.7613 26.762 33.2015C26.762 33.2015 19.7988 49.6569 21.1107 57.1217H50.5783C50.5783 57.1217 61.5781 36.128 61.5781 27.752C61.5781 18.9723 55.6241 10.0916 45.8352 0L7.28516 9.53674e-06Z" fill="#F5A4C7"/>
<path d="M33.8309 19.931C35.423 25.4015 31.3197 27.199 34.5385 31.6932C37.7572 36.1874 42.6915 33.444 43.7869 29.6052C44.8822 25.7663 47.9558 27.6879 49.8469 23.8187C51.7381 19.9494 47.2247 16.5361 40.5636 13.3454C37.3087 11.7863 31.6744 5.75812 26.7612 0H18.0872C24.7816 7.61222 33.0984 17.4138 33.8309 19.931Z" fill="#F4C6DE"/>
<path d="M52.0056 31.2362C49.6876 31.9107 48.8276 29.6467 50.7374 26.8784C52.6472 24.11 52.2625 21.4059 51.6537 18.9682C51.0448 16.5305 53.7572 15.1378 55.1265 18.4604C56.4957 21.7831 56.9197 29.8061 52.0056 31.2362Z" fill="#F4C6DE"/>
<path d="M46.0083 32.9815C42.6466 35.8704 39.1456 37.7453 36.8482 36.0014C34.5507 34.2576 30.8544 34.3916 30.1527 37.5959C29.451 40.8001 32.2505 42.3979 33.7014 45.2441C34.4562 46.7247 33.5005 51.8834 32.243 57.1217H40.2062C40.9011 54.5075 41.547 52.2765 42.0129 51.0742C43.7461 46.601 45.6725 43.8614 47.1192 43.7516C48.5659 43.6419 51.9314 43.4407 51.674 39.0798C51.4166 34.7189 49.3698 30.0927 46.0083 32.9815Z" fill="#F4C6DE"/>
<path d="M28.1258 42.6644C26.6245 44.1909 29.7289 46.2894 29.3593 49.3094C29.0541 51.8021 28.5803 54.4622 28.0204 57.1218H31.1598C32.6528 51.1894 32.5291 48.2581 32.2992 46.0413C32.0407 43.5485 29.6272 41.138 28.1258 42.6644Z" fill="#F4C6DE"/>
</g>
<defs>
<clipPath id="clip0_1128_114">
<rect width="75" height="57.1217" fill="white"/>
</clipPath>
</defs>
</svg>
