<?xml version="1.0" encoding="utf-8"?>
<!-- Generator: Adobe Illustrator 24.1.1, SVG Export Plug-In . SVG Version: 6.00 Build 0)  -->
<svg version="1.1" id="Capa_1" xmlns="http://www.w3.org/2000/svg" xmlns:xlink="http://www.w3.org/1999/xlink" x="0px" y="0px"
	 viewBox="0 0 75 75" style="enable-background:new 0 0 75 75;" xml:space="preserve">
<style type="text/css">
	.st0{fill:#D9D9D9;}
	.st1{fill:#BFBFBF;}
	.st2{fill:#F4C6DE;}
	.st3{fill:none;}
	.st4{fill:#F173AC;}
	.st5{fill:#F5A4C7;}
	.st6{fill:#FFFFFF;}
	.st7{fill:#007CC3;}
	.st8{fill:#F45B6A;}
	.st9{fill:none;stroke:#F45B6A;stroke-width:5.553;stroke-miterlimit:10;}
	.st10{fill:#999999;}
	.st11{fill:#F8C5B0;}
	.st12{fill:#42210B;}
</style>
<g>
	<g>
		<path class="st0" d="M43.5,27.7c-0.1,0.2-0.1,0.5-0.1,0.7c0,8,0,15.9,0,23.9c0,1-0.2,1.9-1,2.6c-0.6,0.5-1.4,0.7-2.2,0.7
			c-7.1,0-14.1,0-21.2,0c-1,0-2.1,0-3.1,0c-2,0-3.1-1.2-3.1-3.2c0-8,0-15.9,0-23.9c0-0.2,0-0.5,0-0.7c0.1-0.4,0-0.9,0-1.3
			c-0.1-4,0.2-7.9-0.1-11.9c-0.2-2.6-1.1-5-2.8-7.1C9.3,6.9,8.6,6.4,8.2,5.8c0.3-0.3,0.6-0.5,1-0.7c3.2-1.6,6.3-3.2,9.5-4.8
			c0.2-0.1,0.5-0.3,0.8-0.2c0,0.3,0.1,0.6,0.1,0.9c0.5,3.1,2.1,5.3,5.2,6.2c1.5,0.5,3,0.6,4.6,0.4c4.4-0.4,7.1-3.2,7.4-7.6
			c0.3,0,0.6,0.1,0.8,0.3c3.1,1.5,6.1,3.1,9.2,4.6c0.4,0.2,0.9,0.4,1.2,0.8C47.3,6.5,46.6,7.2,46,8c-1.7,2.4-2.5,5.1-2.5,7.9
			c-0.1,3.3,0,6.6,0,9.9C43.4,26.4,43.5,27.1,43.5,27.7z"/>
		<path class="st1" d="M8.2,5.8c0.5,0.6,1.1,1.1,1.6,1.7c1.7,2.1,2.5,4.5,2.8,7.1c0.4,4,0.1,7.9,0.1,11.9c0,0.4,0.2,0.8,0,1.3
			C8.9,26,5.2,24.2,1.4,22.3C0.2,21.8,0,21,0.6,19.9C2.8,15.6,5,11.3,7.2,7C7.5,6.6,7.7,6.1,8.2,5.8z"/>
		<path class="st1" d="M43.5,27.7c0-0.7,0-1.3,0-2c0-3.3-0.1-6.6,0-9.9C43.5,13,44.3,10.4,46,8c0.6-0.8,1.3-1.4,1.9-2.2
			c0.4,0.3,0.7,0.8,0.9,1.2c2.2,4.3,4.5,8.6,6.7,12.9c0.6,1.1,0.3,1.9-0.8,2.5c-3.6,1.7-7.2,3.5-10.8,5.2
			C43.8,27.6,43.6,27.7,43.5,27.7z"/>
		<path class="st1" d="M36.7,0.1c-0.3,4.3-3.1,7.1-7.4,7.6c-1.6,0.1-3.1,0-4.6-0.4c-3-1-4.6-3.2-5.2-6.2c-0.1-0.3-0.1-0.6-0.1-0.9
			C20-0.1,20.5,0.2,21,0.3C23.6,0.7,26.2,1,28.8,1c2.5-0.1,4.9-0.4,7.4-0.9C36.3,0,36.5-0.1,36.7,0.1z"/>
	</g>
	<g>
		<path class="st2" d="M71.8,75H66c-0.6,0-1.1-0.5-1.2-1.1L64.7,73H73l-0.1,0.8C72.9,74.5,72.4,75,71.8,75z"/>
		<path class="st2" d="M71.9,6.6C71.8,5.7,70.8,5,69.5,5H56.5H43.4c-1.2,0-2.3,0.7-2.4,1.6L40.8,9h15.6h15.6L71.9,6.6z"/>
		<path class="st4" d="M72.5,9.2C72.4,9.1,72.3,9,72.1,9H56.5H40.9c-0.1,0-0.3,0.1-0.3,0.2c-0.5,0.8-2.2,4.5-2.2,15.3
			C38.3,36.2,39,69,39,72.6c0,0.2,0.2,0.4,0.4,0.4h9.4c0.2,0,0.4-0.1,0.4-0.3c0.6-3.9,6.2-44.5,7.3-44.5s6.7,40.6,7.3,44.5
			c0,0.2,0.2,0.3,0.4,0.3h9.4c0.2,0,0.4-0.2,0.4-0.4c0.1-3.6,0.7-36.4,0.7-48.1C74.7,13.7,73,10.1,72.5,9.2z"/>
		<path class="st2" d="M41.2,75H47c0.6,0,1.1-0.5,1.2-1.1l0.1-0.8H40l0.1,0.8C40.1,74.5,40.6,75,41.2,75z"/>
		<path class="st5" d="M74.6,19.7c-0.4-7.1-1.7-9.7-2.1-10.4C72.4,9.1,72.3,9,72.1,9h-6.5C65.6,9,65.3,19.4,74.6,19.7z"/>
		<path class="st5" d="M38.4,19.7c0.4-7.1,1.7-9.7,2.1-10.4C40.6,9.1,40.7,9,40.9,9h6.5C47.4,9,47.7,19.4,38.4,19.7z"/>
		<path class="st5" d="M74.5,44.3c0.1-6.6,0.2-13.1,0.2-17.6c-4,6.4-8.8,11.1-12.4,13.9c-1,0.8-2,1.6-2.9,2.2
			c0.6,3.8,1.2,7.9,1.8,11.8C64,52.9,69.1,49.6,74.5,44.3z"/>
		<path class="st5" d="M38.5,44.3c-0.1-6.6-0.2-13.1-0.2-17.6c4,6.4,8.8,11.1,12.4,13.9c1,0.8,2,1.6,2.9,2.2
			c-0.6,3.8-1.2,7.9-1.8,11.8C49,52.9,43.9,49.6,38.5,44.3z"/>
	</g>
</g>
</svg>
