<?xml version="1.0" encoding="utf-8"?>
<!-- Generator: Adobe Illustrator 24.1.1, SVG Export Plug-In . SVG Version: 6.00 Build 0)  -->
<svg version="1.1" id="Capa_1" xmlns="http://www.w3.org/2000/svg" xmlns:xlink="http://www.w3.org/1999/xlink" x="0px" y="0px"
	 viewBox="0 0 89.71 74.97" style="enable-background:new 0 0 89.71 74.97;" xml:space="preserve">
<style type="text/css">
	.st0{fill:#D9D9D9;}
	.st1{fill:#BFBFBF;}
	.st2{fill:#F5A4C7;}
	.st3{fill:none;}
	.st4{fill:#FC90CE;}
	.st5{fill:#F4C6DE;}
	.st6{fill:#FFFFFF;}
	.st7{fill:#F45B6A;}
	.st8{fill:#F173AC;}
	.st9{fill:#007CC3;}
	.st10{fill-rule:evenodd;clip-rule:evenodd;fill:#F173AC;}
</style>
<g id="WA_Logo_11_">
	<path class="st10" d="M66.34,15.88c-5.7-5.7-13.28-8.85-21.35-8.85c-16.64,0-30.18,13.54-30.19,30.17c0,5.32,1.39,10.51,4.03,15.09
		l-4.28,15.64l16-4.2c4.41,2.4,9.37,3.67,14.43,3.67h0.01c0,0,0,0,0,0c16.64,0,30.18-13.54,30.19-30.18
		C75.17,29.17,72.03,21.59,66.34,15.88z M44.98,62.31h-0.01c-4.5,0-8.92-1.21-12.77-3.5l-0.92-0.54l-9.5,2.49l2.53-9.26l-0.6-0.95
		c-2.51-3.99-3.84-8.61-3.84-13.35c0.01-13.83,11.26-25.08,25.1-25.08c6.7,0,13,2.61,17.74,7.36c4.74,4.74,7.34,11.04,7.34,17.74
		C70.07,51.06,58.81,62.31,44.98,62.31z M58.74,43.53c-0.75-0.38-4.46-2.2-5.15-2.45c-0.69-0.25-1.19-0.38-1.7,0.38
		c-0.5,0.75-1.95,2.45-2.39,2.96c-0.44,0.5-0.88,0.57-1.63,0.19c-0.75-0.38-3.18-1.17-6.07-3.74c-2.24-2-3.76-4.47-4.2-5.22
		c-0.44-0.75-0.05-1.16,0.33-1.54c0.34-0.34,0.75-0.88,1.13-1.32c0.38-0.44,0.5-0.75,0.75-1.26c0.25-0.5,0.13-0.94-0.06-1.32
		c-0.19-0.38-1.7-4.09-2.33-5.6c-0.61-1.47-1.23-1.27-1.7-1.29c-0.44-0.02-0.94-0.03-1.45-0.03s-1.32,0.19-2.01,0.94
		c-0.69,0.75-2.64,2.58-2.64,6.29c0,3.71,2.7,7.3,3.08,7.8c0.38,0.5,5.32,8.12,12.88,11.39c1.8,0.78,3.2,1.24,4.3,1.59
		c1.81,0.57,3.45,0.49,4.75,0.3c1.45-0.22,4.46-1.82,5.09-3.59c0.63-1.76,0.63-3.27,0.44-3.59C60,44.09,59.5,43.9,58.74,43.53z"/>
</g>
</svg>
