<svg width="75" height="75" viewBox="0 0 75 75" fill="none" xmlns="http://www.w3.org/2000/svg">
<path d="M59.3 0H15.7C12.9 0 10.8 2.3 10.8 5C10.8 18.6 0 25.6 0 45.4C0 57.9 1.2 66.4 2.1 71C2.6 73.3 4.6 75 7 75H68C70.4 75 72.4 73.3 72.9 71C73.8 66.4 75 57.9 75 45.4C75 25.6 64.2 18.5 64.2 5C64.2 2.3 62 0 59.3 0Z" fill="#F8C5B0"/>
<path d="M54.9999 36.4C54.8999 36.1 54.6999 35.9 54.3999 35.8C54.0999 35.7 53.7999 35.7 53.4999 35.8C52.9999 36 42.2999 40.3 37.4999 49.3C32.4999 40.3 21.9999 36 21.5999 35.8C20.9999 35.6 20.2999 35.9 20.0999 36.5C19.9999 36.8 19.9999 37.1 20.0999 37.4C20.1999 37.7 20.4999 37.9 20.6999 38C20.7999 38 32.4999 42.9 36.3999 52.6L37.4999 55.4L38.5999 52.6C42.2999 42.8 54.1999 38 54.2999 38C54.8999 37.7 55.1999 37 54.9999 36.4Z" fill="#DAA28B"/>
<path d="M38.6998 51.1H36.2998V75H38.6998V51.1Z" fill="#DAA28B"/>
<path d="M37.5001 14.9C38.2733 14.9 38.9001 14.2732 38.9001 13.5C38.9001 12.7268 38.2733 12.1 37.5001 12.1C36.7269 12.1 36.1001 12.7268 36.1001 13.5C36.1001 14.2732 36.7269 14.9 37.5001 14.9Z" fill="#DAA28B"/>
<path d="M37.5001 64C44.0723 64 49.4001 58.6721 49.4001 52.0999C49.4001 45.5278 44.0723 40.2 37.5001 40.2C30.9279 40.2 25.6001 45.5278 25.6001 52.0999C25.6001 58.6721 30.9279 64 37.5001 64Z" fill="#F45B6A"/>
<path d="M37.5001 60.5C42.1393 60.5 45.9001 56.7391 45.9001 52.0999C45.9001 47.4608 42.1393 43.7 37.5001 43.7C32.8609 43.7 29.1001 47.4608 29.1001 52.0999C29.1001 56.7391 32.8609 60.5 37.5001 60.5Z" fill="#F45B6A"/>
<path d="M41.6998 57.7001C41.3998 57.7001 40.9998 57.6 40.6998 57.3L32.2998 48.7001C31.7998 48.2001 31.7998 47.3 32.2998 46.8C32.7998 46.3 33.6998 46.3 34.1998 46.8L42.5998 55.4001C43.0998 55.9001 43.0998 56.8 42.5998 57.3C42.3998 57.6 41.9998 57.7001 41.6998 57.7001Z" fill="white"/>
<path d="M33.2999 57.7001C32.9999 57.7001 32.5999 57.6 32.3999 57.3C31.8999 56.8 31.8999 55.9001 32.3999 55.4001L40.7999 46.8C41.2999 46.3 42.1999 46.3 42.6999 46.8C43.1999 47.3 43.1999 48.2001 42.6999 48.7001L34.2999 57.3C33.9999 57.6 33.5999 57.7001 33.2999 57.7001Z" fill="white"/>
</svg>
