<?xml version="1.0" encoding="utf-8"?>
<!-- Generator: Adobe Illustrator 24.1.1, SVG Export Plug-In . SVG Version: 6.00 Build 0)  -->
<svg version="1.1" id="Capa_6" xmlns="http://www.w3.org/2000/svg" xmlns:xlink="http://www.w3.org/1999/xlink" x="0px" y="0px"
	 viewBox="0 0 186.24 151.25" style="enable-background:new 0 0 186.24 151.25;" xml:space="preserve">
<style type="text/css">
	.st0{fill:#A6CE39;}
	.st1{fill:#FFFFFF;}
	.st2{fill:#62BB46;}
	.st3{fill:#007CC3;}
	.st4{fill:#D9D9D9;}
	.st5{fill:#BFBFBF;}
	.st6{fill:#999999;}
</style>
<g>
	<path class="st4" d="M21.71,105.55C8.89,98.56,8.27,74.98,20.31,52.88S52.52,18.51,65.34,25.5l58.69,34.88l-5.89,20.04
		l-37.74,60.01L21.71,105.55z"/>
	<path class="st5" d="M165.37,55.18c-6.63,8.83-24.47,6.63-39.86-4.92s-22.48-28.07-15.85-36.9l5.96-7.94l55.71,41.82L165.37,55.18z
		"/>
	
		<ellipse transform="matrix(0.6003 -0.7997 0.7997 0.6003 36.2881 125.2655)" class="st4" cx="143.48" cy="26.33" rx="19.99" ry="34.83"/>
	
		<ellipse transform="matrix(0.4786 -0.878 0.878 0.4786 -34.8688 142.1004)" class="st6" cx="102.21" cy="100.41" rx="45.58" ry="26.43"/>
	<path class="st4" d="M86.15,130.87c-9.82-5.35-10.3-23.43-1.07-40.37s24.69-26.34,34.51-20.98l8.12,5l-18.2,44.39l-15.25,16.96
		L86.15,130.87z"/>
	
		<ellipse transform="matrix(0.4786 -0.878 0.878 0.4786 -34.4927 152.3041)" class="st5" cx="110.99" cy="105.19" rx="34.94" ry="20.26"/>
	
		<ellipse transform="matrix(0.4786 -0.878 0.878 0.4786 -34.4927 152.3041)" class="st6" cx="110.99" cy="105.19" rx="30.12" ry="17.46"/>
	<path class="st0" d="M170.03,112.82l-0.48-0.19c-3.67-1.43-7.8,0.39-9.23,4.06L153,135.48c-1.43,3.67,0.39,7.8,4.06,9.23l0.48,0.19
		c3.67,1.43,7.8-0.39,9.23-4.06l7.31-18.79C175.51,118.38,173.7,114.25,170.03,112.82z"/>
	<path class="st2" d="M173.99,122.29c1.48-3.8-0.4-8.09-4.21-9.57l0,0c-3.8-1.48-8.09,0.4-9.57,4.21l-3.44,8.82
		c0.22,3.05,2.14,5.86,5.19,7.04v0c3.04,1.18,6.36,0.42,8.58-1.68L173.99,122.29z"/>
	<path class="st0" d="M134.17,150.58l0.48,0.19c3.67,1.43,7.8-0.39,9.23-4.06l7.31-18.79c1.43-3.67-0.39-7.8-4.06-9.23l-0.48-0.19
		c-3.67-1.43-7.8,0.39-9.23,4.06l-7.31,18.79C128.69,145.01,130.51,149.15,134.17,150.58z"/>
	<path class="st2" d="M130.21,141.1c-1.48,3.8,0.4,8.09,4.21,9.57l0,0c3.8,1.48,8.09-0.4,9.57-4.21l3.44-8.82
		c-0.22-3.05-2.14-5.86-5.19-7.04v0c-3.04-1.18-6.36-0.42-8.58,1.68L130.21,141.1z"/>
	<path class="st0" d="M105.42,97.6l-0.26,0.44c-2.01,3.38-0.9,7.76,2.48,9.77l17.32,10.31c3.38,2.01,7.76,0.9,9.77-2.48l0.26-0.44
		c2.01-3.38,0.9-7.76-2.48-9.77l-17.32-10.31C111.81,93.1,107.43,94.21,105.42,97.6z"/>
	<path class="st2" d="M115.41,95.25c-3.51-2.09-8.04-0.94-10.13,2.57l0,0c-2.09,3.51-0.94,8.04,2.57,10.13l8.14,4.84
		c3.05,0.29,6.13-1.15,7.8-3.95l0,0c1.67-2.81,1.46-6.2-0.24-8.74L115.41,95.25z"/>
	<path class="st0" d="M125.65,132.58l0.26-0.44c2.01-3.38,0.9-7.76-2.48-9.77l-17.32-10.31c-3.38-2.01-7.76-0.9-9.77,2.48
		l-0.26,0.44c-2.01,3.38-0.9,7.76,2.48,9.77l17.32,10.31C119.26,137.08,123.63,135.97,125.65,132.58z"/>
	<path class="st2" d="M115.65,134.93c3.51,2.09,8.04,0.94,10.13-2.57l0,0c2.09-3.51,0.94-8.04-2.57-10.13l-8.14-4.84
		c-3.05-0.29-6.13,1.15-7.8,3.95l0,0c-1.67,2.81-1.46,6.2,0.24,8.74L115.65,134.93z"/>
</g>
</svg>
