<?xml version="1.0" encoding="utf-8"?>
<!-- Generator: Adobe Illustrator 24.1.1, SVG Export Plug-In . SVG Version: 6.00 Build 0)  -->
<svg version="1.1" id="Capa_6" xmlns="http://www.w3.org/2000/svg" xmlns:xlink="http://www.w3.org/1999/xlink" x="0px" y="0px"
	 viewBox="0 0 186.24 151.25" style="enable-background:new 0 0 186.24 151.25;" xml:space="preserve">
<style type="text/css">
	.st0{fill:#A6CE39;}
	.st1{fill:#FFFFFF;}
	.st2{fill:#62BB46;}
	.st3{fill:#007CC3;}
	.st4{fill:#D9D9D9;}
	.st5{fill:#BFBFBF;}
	.st6{fill:#999999;}
</style>
<g>
	<g>
		<g>
			<g>
				<path class="st3" d="M65.65,58.26h-0.22c-1.71,0-2.91,1.27-2.91,2.98v1.38l-4.58-0.36v-1.02c0-4.18,3.2-7.35,7.42-7.35h0.36
					c4.22,0,7.42,3.16,7.42,7.35c0,3.86-2.18,7.31-4.33,9.93c-1.27,1.49-2.69,2.91-4.29,4.18h8.98v4.36H57.8v-4
					c2-1.42,3.82-2.91,5.38-4.47c2.69-2.69,5.38-6.29,5.38-10C68.56,59.53,67.36,58.26,65.65,58.26z"/>
				<path class="st3" d="M90.75,75.46v4.26h-4.47v-4.26h-9.86v-3.31l10.69-17.9h3.64v17.17h2.55v4.04H90.75z M86.28,62.88
					l-5.09,8.55h5.09V62.88z"/>
			</g>
			<path class="st3" d="M92.24,97.36l14.79-43.47h6.52L98.76,97.36H92.24z"/>
			<path class="st3" d="M120.3,97.36h-4.95l7.75-21.1h-5.96v3.75h-4.47V71.9h15.79v3.27L120.3,97.36z"/>
		</g>
	</g>
	<g>
		<g>
			<path class="st4" d="M95.77,147.95c0.05,3.21,0.05,3.21-3.14,3.21c-0.34,0-0.69-0.02-1.03,0.01c-0.7,0.06-0.99-0.19-0.97-0.94
				c0.09-3.29,0.21-6.57,0.52-9.84c0.02-0.17-0.05-0.4,0.04-0.5c0.84-1,1.97-0.28,2.96-0.45c0.45-0.08,1.09-0.21,1.15,0.6
				c0.05,0.59,0.16,1.18,0.19,1.78C95.6,143.86,95.68,145.9,95.77,147.95z"/>
			<path class="st4" d="M97.87,140.73c-0.03-1.49-0.03-1.49,1.92-1.6c2.1-0.12,2.13-0.13,2.49,1.97c0.49,2.85,0.92,5.71,1.39,8.56
				c0.08,0.46-0.01,0.72-0.54,0.77c-1.31,0.13-2.62,0.31-3.92,0.48c-0.62,0.08-0.81-0.2-0.83-0.8
				C98.24,147.14,98.06,144.16,97.87,140.73z"/>
			<path class="st4" d="M145.43,130.04c-0.14,0.18-0.28,0.4-0.46,0.56c-0.88,0.81-1.79,1.59-2.64,2.42
				c-0.47,0.45-0.7,0.36-1.09-0.13c-2.1-2.63-4.24-5.24-6.4-7.82c-0.41-0.49-0.34-0.69,0.1-1.1c2.49-2.37,2.47-2.38,4.92,0.06
				c1.6,1.6,3.2,3.2,4.8,4.8C144.99,129.16,145.32,129.5,145.43,130.04z"/>
			<path class="st4" d="M147.57,109.19c-0.02-0.26,1.74-3.12,2-3.2c0.37-0.12,0.67,0.11,0.96,0.26c2.86,1.46,5.71,2.93,8.57,4.39
				c0.42,0.22,0.88,0.38,0.46,1.03c-0.69,1.08-1.33,2.2-1.96,3.31c-0.27,0.49-0.56,0.56-1.03,0.26c-2.87-1.86-5.75-3.71-8.62-5.56
				C147.78,109.58,147.56,109.5,147.57,109.19z"/>
			<path class="st4" d="M153.43,96.76c0.31-0.92,0.65-1.98,1.02-3.02c0.14-0.4,0.44-0.27,0.75-0.19c3.29,0.89,6.58,1.79,9.88,2.65
				c0.55,0.15,0.69,0.39,0.52,0.91c-0.41,1.21-0.81,2.43-1.2,3.65c-0.17,0.52-0.45,0.66-0.97,0.46c-3.18-1.23-6.37-2.44-9.56-3.65
				C153.56,97.45,153.34,97.27,153.43,96.76z"/>
			<path class="st4" d="M150.96,124.1c-0.04,0.14-0.04,0.25-0.09,0.3c-1.04,1.13-2.06,2.27-3.14,3.36c-0.29,0.29-0.66-0.08-0.89-0.3
				c-2.37-2.33-4.91-4.53-7.01-7.09c-1.01-1.23,1.04-1.87,1.61-2.83c0.34-0.59,0.79-0.61,1.36-0.13c2.55,2.13,5.14,4.21,7.72,6.31
				C150.68,123.84,150.82,123.98,150.96,124.1z"/>
			<path class="st4" d="M128.87,142.18c-0.43-0.06-0.5-0.4-0.63-0.65c-1.49-2.88-2.95-5.77-4.46-8.65c-0.35-0.67-0.24-1.04,0.4-1.46
				c2.64-1.73,2.62-1.74,4.29,0.84c1.36,2.11,2.72,4.23,4.14,6.31c0.57,0.83,0.52,1.31-0.44,1.75c-0.96,0.45-1.86,1.03-2.79,1.56
				C129.19,142,129.01,142.1,128.87,142.18z"/>
			<path class="st4" d="M150.82,103.18c0.48-1.05,0.93-2.11,1.46-3.13c0.21-0.41,0.6-0.15,0.91-0.03c3.07,1.19,6.13,2.39,9.2,3.55
				c0.61,0.23,0.83,0.44,0.5,1.1c-0.53,1.07-0.99,2.18-1.44,3.28c-0.25,0.62-0.6,0.73-1.19,0.43c-2.89-1.48-5.8-2.92-8.69-4.41
				C151.27,103.8,150.83,103.68,150.82,103.18z"/>
			<path class="st4" d="M104.51,138.85c0.79-0.96,2.24-0.62,3.34-1.09c0.72-0.31,0.79,0.24,0.9,0.68c0.85,3.21,1.68,6.43,2.57,9.64
				c0.18,0.66-0.07,0.88-0.59,0.99c-1.2,0.27-2.42,0.51-3.62,0.78c-0.54,0.12-0.84-0.07-0.92-0.58
				C105.64,145.91,105.1,142.55,104.51,138.85z"/>
			<path class="st4" d="M117.43,135.16c-0.03-0.29,0.1-0.46,0.31-0.55c0.97-0.45,1.94-0.9,2.92-1.31c0.46-0.19,0.59,0.21,0.74,0.51
				c1.52,2.97,3.02,5.94,4.55,8.9c0.31,0.61,0.16,0.94-0.45,1.19c-1.11,0.45-2.2,0.94-3.29,1.43c-0.43,0.19-0.75,0.35-0.99-0.28
				c-1.21-3.19-2.45-6.38-3.68-9.56C117.49,135.36,117.46,135.24,117.43,135.16z"/>
			<path class="st4" d="M114.47,148.07c-0.54,0.05-0.6-0.36-0.7-0.74c-0.88-3.26-1.76-6.52-2.66-9.77
				c-0.12-0.42-0.07-0.66,0.37-0.76c0.08-0.02,0.16-0.05,0.24-0.08c3.13-1.22,3.13-1.22,4.31,1.88c0.84,2.2,1.62,4.42,2.55,6.58
				c0.49,1.14,0.21,1.6-0.94,1.88C116.57,147.32,115.53,147.73,114.47,148.07z"/>
			<path class="st4" d="M152.47,121.91c-0.17-0.11-0.42-0.26-0.65-0.44c-2.46-1.98-4.89-4-7.38-5.94c-0.63-0.49-0.65-0.85-0.25-1.47
				c1.72-2.7,1.71-2.71,4.42-0.93c2.14,1.4,4.27,2.82,6.44,4.19c0.63,0.4,0.7,0.72,0.24,1.3c-0.74,0.94-1.42,1.92-2.13,2.88
				C153.01,121.69,152.89,121.93,152.47,121.91z"/>
			<path class="st4" d="M90.91,6.7c0.24-1.59-0.37-3.47-0.28-5.4c0.04-0.86,0.29-1.26,1.2-1.22c1.02,0.04,2.05,0.04,3.08,0
				c0.67-0.02,0.93,0.24,0.89,0.9c-0.21,3.36-0.15,6.72-0.49,10.07c-0.07,0.69-0.34,0.89-0.96,0.85c-0.3-0.02-0.6,0-0.9,0
				c-2.48,0-2.48,0-2.53-2.55C90.9,8.58,90.91,7.81,90.91,6.7z"/>
			<path class="st4" d="M135.65,138.06c-0.47,0.03-0.56-0.31-0.71-0.54c-1.78-2.71-3.53-5.44-5.33-8.14
				c-0.47-0.7-0.33-1.07,0.33-1.55c2.47-1.78,2.45-1.8,4.39,0.59c1.53,1.89,3.05,3.79,4.6,5.66c0.59,0.71,0.77,1.23-0.21,1.8
				c-0.88,0.51-1.67,1.19-2.49,1.79C136.01,137.82,135.8,137.96,135.65,138.06z"/>
			<path class="st4" d="M88.34,6.29c-0.24,1.55,0.28,3.05,0.27,4.59c0,0.89-0.38,1.24-1.21,1.28c-0.76,0.04-1.53-0.09-2.29,0.17
				c-0.56,0.19-0.61-0.27-0.67-0.66c-0.33-1.88-0.76-3.76-0.95-5.65c-0.14-1.44-0.62-2.82-0.63-4.29c-0.01-0.74,0.17-0.74,0.74-0.92
				c1.26-0.41,2.57,0.03,3.81-0.41c0.48-0.17,0.7,0.2,0.67,0.66C87.95,2.81,88.56,4.53,88.34,6.29z"/>
			<path class="st4" d="M53.44,11.97c-0.05-0.51,0.28-0.6,0.52-0.74c1.05-0.64,2.13-1.25,3.16-1.92C57.62,9,57.89,9.1,58.14,9.59
				c1.52,3.05,3.05,6.11,4.59,9.15c0.25,0.5,0.11,0.79-0.36,1.02c-0.38,0.18-0.76,0.39-1.12,0.62c-1.71,1.08-1.79,1.14-2.81-0.54
				c-1.43-2.37-2.95-4.66-4.53-6.93C53.68,12.6,53.56,12.22,53.44,11.97z"/>
			<path class="st4" d="M26.69,39.98c0.6-1.02,1.18-2.01,1.76-3c0.84-1.42,0.64-1.45,2.24-0.38c2.4,1.6,4.85,3.12,7.3,4.64
				c0.67,0.41,0.84,0.81,0.49,1.56c-1.29,2.77-1.44,2.85-4.12,1.49c-2.31-1.18-4.61-2.38-6.91-3.59
				C27.13,40.53,26.69,40.45,26.69,39.98z"/>
			<path class="st4" d="M103.62,1.81c-0.56,3.49-1.05,6.55-1.54,9.61c-0.12,0.74-0.35,1.22-1.25,0.85c-0.3-0.12-0.67-0.1-1.01-0.11
				c-1.97-0.05-2.15-0.21-1.95-2.17c0.28-2.89,0.51-5.77,0.5-8.67c0-0.78,0.2-1.14,1.05-0.86c0.94,0.32,1.94,0.14,2.92,0.3
				C103.34,0.93,104.06,0.96,103.62,1.81z"/>
			<path class="st4" d="M82.81,149.56c0.58-3.56,1.09-6.66,1.58-9.76c0.11-0.72,0.35-1.11,1.18-0.8c0.35,0.13,0.76,0.11,1.14,0.12
				c1.87,0.04,2.03,0.15,1.88,1.99c-0.25,2.97-0.51,5.94-0.49,8.93c0,0.74-0.24,1.05-1,0.8c-0.98-0.32-2.03-0.18-3.04-0.32
				C83.01,150.37,82.56,150.19,82.81,149.56z"/>
			<path class="st4" d="M54.2,24.95c-0.44-0.06-0.67-0.4-0.9-0.68c-1.98-2.39-3.93-4.8-5.9-7.2c-0.45-0.55-0.49-1.05,0.14-1.51
				c0.97-0.69,1.93-1.39,2.88-2.11c0.44-0.33,0.7-0.29,1.02,0.2c1.72,2.64,3.44,5.26,5.21,7.86c0.68,0.99,0.59,1.68-0.54,2.2
				C55.42,24.03,54.96,24.74,54.2,24.95z"/>
			<path class="st4" d="M132.4,24.94c-0.41,0.01-3.11-1.9-3.1-2.14c0.06-0.85,0.68-1.45,1.09-2.12c1.45-2.3,3.03-4.52,4.47-6.82
				c0.45-0.71,0.77-0.74,1.37-0.26c0.83,0.66,1.7,1.26,2.57,1.88c0.64,0.46,0.75,0.96,0.23,1.6c-1.97,2.39-3.92,4.8-5.9,7.19
				C132.91,24.56,132.59,24.77,132.4,24.94z"/>
			<path class="st4" d="M50.76,138.06c-0.5-0.38-1.05-0.79-1.58-1.2c-2.28-1.77-2.31-1.79-0.59-4.03c1.5-1.95,3.1-3.82,4.63-5.76
				c0.64-0.82,1.19-0.81,2-0.16c2.22,1.8,2.19,1.73,0.51,4.13c-1.47,2.08-2.8,4.26-4.19,6.4C51.36,137.71,51.28,138.1,50.76,138.06z
				"/>
			<path class="st4" d="M111.26,13.28c0.45-1.63,0.97-3.56,1.49-5.49c0.34-1.27,0.7-2.54,1.02-3.83c0.13-0.54,0.32-0.9,0.95-0.7
				c1.17,0.39,2.33,0.8,3.5,1.21c0.53,0.18,0.71,0.47,0.48,1.06c-1.2,3.1-2.37,6.21-3.55,9.31c-0.06,0.16-0.11,0.44-0.2,0.45
				c-1.15,0.18-2.08-0.53-3.13-0.77C111.27,14.42,111.16,14.07,111.26,13.28z"/>
			<path class="st4" d="M75.3,137.68c-0.44,1.55-0.9,3.1-1.33,4.66c-0.45,1.64-0.88,3.29-1.29,4.94c-0.13,0.52-0.29,0.94-0.92,0.74
				c-1.13-0.36-2.26-0.77-3.38-1.15c-0.61-0.21-0.9-0.49-0.61-1.22c1.2-3.05,2.36-6.12,3.5-9.19c0.21-0.56,0.43-0.75,1.02-0.5
				c0.75,0.31,1.53,0.55,2.31,0.77C75.1,136.88,75.33,137.14,75.3,137.68z"/>
			<path class="st4" d="M71.9,15.45c-0.47,0.04-0.49-0.31-0.59-0.58c-1.18-3.11-2.35-6.22-3.55-9.31c-0.22-0.57-0.1-0.88,0.45-1.08
				c1.21-0.42,2.41-0.86,3.62-1.25c0.45-0.15,0.7,0.14,0.82,0.58c0.85,3.17,1.71,6.33,2.55,9.49c0.18,0.67-0.04,1.13-0.79,1.33
				C73.55,14.86,72.71,15.18,71.9,15.45z"/>
			<path class="st4" d="M147.73,42.11c0.02-0.35,0.27-0.49,0.53-0.66c2.67-1.75,5.33-3.51,8-5.26c0.55-0.37,1.02-0.55,1.43,0.27
				c0.54,1.06,1.18,2.08,1.84,3.07c0.37,0.57,0.18,0.83-0.33,1.09c-3.01,1.5-6.02,3.01-9.03,4.51c-0.23,0.11-0.46,0.25-0.72,0.11
				C149.17,45.09,147.71,42.43,147.73,42.11z"/>
			<path class="st4" d="M146.31,39.57c-0.33,0.07-0.46-0.16-0.63-0.35c-2.1-2.4-2.14-2.44,0.21-4.53c1.91-1.69,3.93-3.25,5.9-4.87
				c0.64-0.53,1.14-0.4,1.6,0.24c0.67,0.93,1.34,1.86,2.02,2.79c0.27,0.36,0.37,0.65-0.09,0.95c-2.86,1.85-5.7,3.71-8.55,5.57
				C146.62,39.45,146.45,39.51,146.31,39.57z"/>
			<path class="st4" d="M107.75,13.46c-0.87-0.19-1.75-0.37-2.62-0.56c-0.54-0.12-0.63-0.51-0.55-0.98
				c0.51-3.14,1.01-6.29,1.53-9.43c0.12-0.71,0.3-1.31,1.33-0.92c0.82,0.31,1.73,0.46,2.62,0.54c1.23,0.1,1.41,0.64,1.09,1.74
				c-0.87,2.94-1.66,5.9-2.44,8.86C108.55,13.27,108.35,13.56,107.75,13.46z"/>
			<path class="st4" d="M78.83,13.43c-0.62,0.03-0.91-0.03-1.05-0.54c-0.84-3.25-1.7-6.51-2.62-9.74c-0.18-0.62,0.09-0.76,0.55-0.87
				C76.96,2,78.2,1.73,79.45,1.46c0.84-0.18,0.79,0.57,0.86,0.97c0.41,2.21,0.73,4.44,1.09,6.67c0.14,0.88,0.25,1.77,0.43,2.64
				c0.13,0.65,0.06,1.08-0.7,1.21C80.29,13.09,79.46,13.3,78.83,13.43z"/>
			<path class="st4" d="M81.9,139.01c-0.38,2.42-0.74,4.68-1.11,6.94c-0.12,0.71-0.29,1.41-0.4,2.13c-0.29,1.92-0.29,1.93-2.18,1.5
				c-0.99-0.23-2.29-0.2-2.89-0.82c-0.7-0.73,0.24-1.88,0.46-2.83c0.59-2.53,1.35-5.01,2.01-7.52c0.11-0.42,0.31-0.62,0.7-0.56
				c1,0.17,2.01,0.37,3,0.6C81.81,138.52,81.9,138.84,81.9,139.01z"/>
			<path class="st4" d="M38.71,108.95c0,0.55-0.23,0.71-0.5,0.88c-2.71,1.77-5.41,3.55-8.11,5.33c-0.53,0.35-0.96,0.44-1.33-0.29
				c-0.55-1.06-1.18-2.08-1.83-3.07c-0.36-0.54-0.26-0.83,0.28-1.1c3.01-1.5,6.02-3,9.02-4.52c0.54-0.28,0.85-0.17,1.12,0.36
				C37.81,107.41,38.31,108.25,38.71,108.95z"/>
			<path class="st4" d="M126.76,21.13c-0.25,0.02-3.01-1.49-3.12-1.71c-0.16-0.32,0.04-0.58,0.17-0.84
				c1.43-2.86,2.87-5.71,4.29-8.57c0.38-0.77,0.9-0.82,1.57-0.44c0.92,0.53,1.81,1.13,2.76,1.6c0.7,0.35,0.7,0.76,0.34,1.32
				c-1.76,2.67-3.51,5.33-5.27,8C127.3,20.78,127.17,21.11,126.76,21.13z"/>
			<path class="st4" d="M62.84,132.27c-0.07,0.16-0.2,0.43-0.33,0.69c-1.33,2.67-2.7,5.32-3.99,8.02c-0.49,1.03-1.07,1.2-2,0.61
				c-0.82-0.53-1.66-1.05-2.53-1.49c-0.74-0.36-0.63-0.8-0.28-1.33c1.75-2.67,3.53-5.32,5.25-8c0.39-0.6,0.75-0.74,1.35-0.38
				c0.7,0.41,1.41,0.8,2.11,1.2C62.65,131.7,62.89,131.81,62.84,132.27z"/>
			<path class="st4" d="M30.86,57.61c-0.28-0.08-0.93-0.28-1.59-0.46c-2.63-0.7-5.26-1.39-7.9-2.09c-0.52-0.14-0.71-0.43-0.52-0.95
				c0.41-1.16,0.83-2.32,1.22-3.49c0.2-0.59,0.53-0.65,1.07-0.44c3.1,1.2,6.21,2.37,9.32,3.55c0.16,0.06,0.43,0.13,0.44,0.21
				c0.12,1.14-0.56,2.09-0.81,3.14C31.99,57.57,31.69,57.7,30.86,57.61z"/>
			<path class="st4" d="M155.12,57.67c-0.3,0.04-0.64-0.06-0.8-0.6c-0.23-0.82-0.52-1.63-0.81-2.43c-0.16-0.43-0.15-0.69,0.36-0.88
				c3.2-1.19,6.39-2.39,9.57-3.62c0.49-0.19,0.72-0.03,0.88,0.4c0.43,1.2,0.85,2.41,1.28,3.61c0.16,0.45,0.01,0.77-0.44,0.89
				c-3.2,0.87-6.41,1.73-9.61,2.59C155.46,57.65,155.37,57.65,155.12,57.67z"/>
			<path class="st4" d="M31.25,93.63c0.44-0.03,0.66,0.13,0.86,0.57c1.34,2.89,1.3,2.99-1.67,4.13c-2.35,0.89-4.7,1.79-7.04,2.73
				c-0.83,0.33-1.21,0.12-1.44-0.75c-0.27-1.02-0.68-2.01-1.06-3c-0.21-0.55-0.13-0.9,0.48-1.07c3.12-0.84,6.24-1.7,9.36-2.54
				C30.9,93.64,31.08,93.64,31.25,93.63z"/>
			<path class="st4" d="M40.17,39.59c-0.28-0.14-0.65-0.27-0.97-0.48c-2.52-1.67-5.01-3.39-7.56-5.02c-0.79-0.5-0.87-0.9-0.3-1.6
				c0.67-0.83,1.27-1.71,1.88-2.58c0.44-0.64,0.93-0.49,1.41-0.1c2.41,1.96,4.81,3.94,7.23,5.89c0.71,0.57,0.81,1.11,0.19,1.81
				c-0.45,0.51-0.84,1.07-1.24,1.62C40.65,39.34,40.55,39.58,40.17,39.59z"/>
			<path class="st4" d="M142.07,34.25c-0.71-0.4-1.15-1.05-1.7-1.57c-0.93-0.88-0.82-1.56,0.14-2.45c2.1-1.94,4.11-3.98,6.07-6.06
				c0.83-0.88,1.42-0.75,2.03,0.11c0.57,0.8,1.23,1.53,1.96,2.19c0.51,0.47,0.49,0.85-0.06,1.23c-2.69,1.87-5.1,4.09-7.66,6.12
				C142.63,34,142.34,34.1,142.07,34.25z"/>
			<path class="st4" d="M42.53,114.61c-0.04,0.48-0.39,0.71-0.67,0.94c-2.4,1.98-4.8,3.95-7.22,5.91c-0.47,0.38-0.95,0.58-1.41-0.07
				c-0.63-0.91-1.27-1.81-1.95-2.68c-0.47-0.6-0.46-0.99,0.23-1.43c2.69-1.73,5.35-3.49,8.01-5.26c0.63-0.42,1-0.36,1.42,0.33
				C41.43,113.14,42.14,113.79,42.53,114.61z"/>
			<path class="st4" d="M33.85,51.43C33.4,51.25,33,51.1,32.6,50.95c-2.82-1.09-5.62-2.22-8.46-3.24c-0.84-0.3-0.83-0.64-0.49-1.3
				c0.46-0.91,0.94-1.83,1.25-2.8c0.31-0.98,0.76-0.87,1.5-0.49c2.77,1.42,5.55,2.83,8.36,4.18c0.74,0.35,0.93,0.73,0.59,1.45
				c-0.35,0.73-0.68,1.47-1,2.21C34.23,51.21,34.08,51.38,33.85,51.43z"/>
			<path class="st4" d="M152.54,51.47c-0.68-0.73-0.93-1.78-1.38-2.68c-0.16-0.33-0.64-0.83,0.01-1.22c0.18-0.11,0.38-0.2,0.57-0.3
				c2.78-1.39,5.58-2.76,8.34-4.2c0.82-0.43,1.17-0.28,1.47,0.57c0.36,1,0.84,1.95,1.3,2.91c0.25,0.51,0.26,0.83-0.37,1.07
				c-3.18,1.2-6.36,2.43-9.53,3.65C152.88,51.32,152.8,51.36,152.54,51.47z"/>
			<path class="st4" d="M35.56,103.25c0.05,0.34-0.23,0.43-0.45,0.54c-3.06,1.53-6.12,3.06-9.17,4.59
				c-0.44,0.22-0.67,0.12-0.87-0.36c-0.47-1.15-0.99-2.27-1.52-3.38c-0.29-0.6-0.06-0.81,0.49-1.02c3.11-1.17,6.21-2.38,9.31-3.57
				c0.23-0.09,0.52-0.33,0.69-0.04C34.64,101.05,35.21,102.1,35.56,103.25z"/>
			<path class="st4" d="M35.68,124.23c0.21-0.57,0.74-0.95,1.22-1.35c2.16-1.78,4.36-3.52,6.53-5.29c0.62-0.51,1.07-0.62,1.72,0.04
				c2.06,2.09,2.09,2.07,0.07,4.09c-1.81,1.81-3.65,3.6-5.42,5.44c-0.69,0.72-1.21,0.81-1.86,0.01c-0.61-0.76-1.28-1.47-1.93-2.2
				C35.85,124.77,35.66,124.59,35.68,124.23z"/>
			<path class="st4" d="M65.63,17.97c-0.51,0.07-0.54-0.42-0.7-0.72c-1.49-2.89-2.96-5.79-4.44-8.68c-0.25-0.5-0.25-0.84,0.38-1.09
				c1.15-0.46,2.27-0.99,3.39-1.53c0.53-0.25,0.76-0.09,0.95,0.42c1.19,3.11,2.4,6.21,3.59,9.31c0.09,0.25,0.38,0.59,0,0.8
				C67.81,17.06,66.79,17.62,65.63,17.97z"/>
			<path class="st4" d="M120.81,17.97c-1.18-0.36-2.2-0.91-3.19-1.49c-0.4-0.24-0.05-0.65,0.05-0.93c1.16-3.03,2.37-6.04,3.51-9.07
				c0.25-0.66,0.51-0.78,1.12-0.47c1.03,0.51,2.08,1.01,3.15,1.43c0.63,0.25,0.79,0.54,0.48,1.15c-1.49,2.89-2.95,5.79-4.44,8.68
				C121.34,17.57,121.31,18.06,120.81,17.97z"/>
			<path class="st4" d="M145.37,21.27c-0.03,0.37-0.27,0.56-0.48,0.77c-2.27,2.27-4.55,4.54-6.8,6.82
				c-0.43,0.44-0.72,0.54-1.27,0.08c-2.35-2-2.39-2-0.54-4.4c1.64-2.13,3.36-4.18,5.03-6.29c0.31-0.39,0.56-0.48,0.93-0.12
				c0.99,0.95,1.98,1.89,2.97,2.83C145.3,21.06,145.33,21.19,145.37,21.27z"/>
			<path class="st4" d="M68.95,135.21c-0.47,1.24-0.94,2.52-1.44,3.8c-0.74,1.91-1.54,3.79-2.24,5.72
				c-0.25,0.71-0.51,0.88-1.19,0.54c-1.03-0.52-2.08-1.01-3.15-1.43c-0.68-0.26-0.7-0.6-0.41-1.17c1.47-2.85,2.95-5.7,4.35-8.58
				c0.38-0.78,0.79-0.87,1.47-0.54c0.73,0.36,1.46,0.71,2.19,1.08C68.76,134.73,69.03,134.83,68.95,135.21z"/>
			<path class="st4" d="M44.39,133.21c-0.2-0.16-0.44-0.32-0.65-0.52c-0.59-0.55-1.1-1.24-1.77-1.66c-1.07-0.66-1.09-1.19-0.2-2.05
				c2.15-2.07,4.26-4.19,6.34-6.33c0.61-0.63,0.97-0.8,1.73-0.1c2,1.84,2.09,1.82,0.43,4c-1.54,2.03-3.18,3.98-4.8,5.95
				C45.22,132.82,44.95,133.18,44.39,133.21z"/>
			<path class="st4" d="M35.7,27.02c0.14-0.22,0.3-0.47,0.46-0.71c2.19-3.22,2.54-3.26,5.19-0.62c1.69,1.69,3.37,3.4,5.08,5.06
				c0.51,0.5,0.57,0.85,0.02,1.35c-0.49,0.46-0.91,1.01-1.32,1.55c-0.51,0.68-1.02,0.6-1.61,0.11c-2.33-1.92-4.68-3.81-7-5.73
				C36.2,27.78,35.83,27.52,35.7,27.02z"/>
			<path class="st4" d="M41.01,21.33c0.12-0.16,0.19-0.33,0.31-0.41c0.94-0.67,1.67-1.57,2.56-2.31c0.79-0.65,1.16-0.38,1.64,0.21
				c1.96,2.4,3.93,4.8,5.89,7.2c0.39,0.48,0.53,0.95-0.06,1.42c-0.66,0.53-1.3,1.1-1.93,1.67c-0.34,0.3-0.6,0.2-0.88-0.07
				c-2.38-2.39-4.77-4.77-7.15-7.16C41.25,21.73,41.15,21.54,41.01,21.33z"/>
		</g>
		<path class="st2" d="M170.46,77.44l-0.97,7.28c-0.16,1.2-1.54,1.79-2.52,1.07L147.1,71.22c-1.14-0.84-0.21-2.62,1.13-2.17
			l14.14,4.76l0,0l0.97-7.28c0.16-1.2,1.54-1.79,2.52-1.07l19.87,14.58c1.14,0.84,0.21,2.62-1.13,2.17L170.46,77.44L170.46,77.44z"
			/>
		<path class="st2" d="M15.78,77.44l0.97,7.28c0.16,1.2,1.54,1.79,2.52,1.07l19.87-14.58c1.14-0.84,0.21-2.62-1.13-2.17l-14.14,4.76
			l0,0l-0.97-7.28c-0.16-1.2-1.54-1.79-2.52-1.07L0.51,80.03c-1.14,0.84-0.21,2.62,1.13,2.17L15.78,77.44L15.78,77.44z"/>
	</g>
</g>
</svg>
