<svg id="Capa_1" data-name="Capa 1" xmlns="http://www.w3.org/2000/svg" viewBox="0 0 200 200"><defs><style>.cls-1{fill:#f8c5b0;}.cls-2{fill:#f7a6a9;}.cls-3{fill:#d36f62;}</style></defs><title>via-i-2</title><circle class="cls-1" cx="100" cy="100" r="100"/><path class="cls-2" d="M626.33,1533.31v-.45c0-.41,0-.82-.05-1.23,0-.94,0-1.88-.11-2.81,0-.55-.08-1.09-.12-1.64-.08-1-.17-1.9-.28-2.84-.06-.49-.12-1-.19-1.46-.14-1-.3-2-.47-3.05l-.21-1.17c-.22-1.15-.47-2.28-.73-3.41,0-.19-.08-.38-.12-.56s0-.07,0-.11A80.23,80.23,0,0,0,592,1468l-.09-.09-.33-.21q-2.16-1.49-4.41-2.84l-.83-.47c-1.35-.79-2.73-1.53-4.12-2.24l-.84-.43q-2.37-1.15-4.81-2.16l-1.05-.41c-1.48-.58-3-1.13-4.49-1.62l-.74-.25c-1.69-.54-3.41-1-5.15-1.43l-1.21-.28c-1.65-.37-3.31-.7-5-1l-.47-.09c-1.8-.28-3.62-.48-5.46-.63l-1.32-.1c-1.85-.13-3.72-.22-5.61-.22h0a80,80,0,0,0-79.78,72.81c0,.2,0,.39,0,.58-.09,1.08-.17,2.16-.22,3.25,0,.59,0,1.19,0,1.78s-.05,1.19-.05,1.79c0,.15,0,.3,0,.46s0,.29,0,.44c0,.42,0,.82.05,1.23,0,.94,0,1.88.11,2.81,0,.55.08,1.1.12,1.64.08,1,.17,1.9.28,2.84.06.49.12,1,.19,1.46.14,1,.3,2,.47,3l.21,1.18c.22,1.14.47,2.27.73,3.39.05.19.08.38.12.57s0,.08,0,.11a80.19,80.19,0,0,0,32,46.59l.09.09c.11.08.22.14.33.21q2.16,1.49,4.41,2.84l.83.48c1.35.78,2.73,1.52,4.12,2.23l.84.43c1.58.77,3.18,1.49,4.82,2.16l1,.41c1.49.58,3,1.13,4.51,1.63.24.08.48.17.73.24,1.69.54,3.41,1,5.15,1.43l1.21.28c1.65.37,3.31.71,5,1l.46.08c1.8.28,3.62.48,5.46.63l1.32.1c1.85.13,3.72.22,5.61.22h0A80,80,0,0,0,626,1541.16c0-.19,0-.39,0-.58.09-1.08.17-2.16.22-3.24,0-.6,0-1.19,0-1.79s.05-1.19.05-1.79C626.34,1533.61,626.33,1533.46,626.33,1533.31Z" transform="translate(-446.13 -1433.76)"/><circle class="cls-3" cx="54.44" cy="100.35" r="16.54"/><circle class="cls-3" cx="129.36" cy="138.99" r="17.42"/><circle class="cls-3" cx="121.1" cy="74.65" r="31.05"/></svg>