<svg id="Capa_1" data-name="Capa 1" xmlns="http://www.w3.org/2000/svg" viewBox="0 0 200 200"><defs><style>.cls-1{fill:#bfbfbf;}.cls-2{fill:#d9d9d9;}.cls-3{fill:#f45b6a;}</style></defs><title>via-i-1</title><path class="cls-1" d="M593.36,1486.53l-10.83-10.83a6.15,6.15,0,0,0-6.28-1.49l-27.08,8.87,12.69,25.73,34.95,21.91,8.88-27.08a6.18,6.18,0,0,0-1.5-6.28l-10.83-10.83" transform="translate(-446.13 -1433.76)"/><path class="cls-1" d="M498.9,1581l-10.83-10.83a6.14,6.14,0,0,1-1.49-6.27l8.87-27.09,32.76,14.88,14.88,32.76L516,1593.32a6.18,6.18,0,0,1-6.28-1.5L498.9,1581" transform="translate(-446.13 -1433.76)"/><path class="cls-2" d="M519.82,1560.07l14.8,14.8c17.79,17.79,18.34,31.4,32,45s42.46,22.9,65.52-.15,13.77-51.9.15-65.52-27.22-14.17-45-32l-14.8-14.8-14.8-14.8c-17.79-17.79-18.34-31.4-32-45s-42.46-22.89-65.51.16-13.78,51.9-.16,65.51,27.22,14.17,45,32Z" transform="translate(-446.13 -1433.76)"/><path class="cls-1" d="M617.53,1605.16a22.84,22.84,0,0,1-31.23,1,1.33,1.33,0,0,1-.06-2l6.21-6.22a1.34,1.34,0,0,1,1.77-.11,11.37,11.37,0,0,0,16-16,1.34,1.34,0,0,1,.11-1.77l6.22-6.21a1.33,1.33,0,0,1,2,.06A22.84,22.84,0,0,1,617.53,1605.16Z" transform="translate(-446.13 -1433.76)"/><path class="cls-1" d="M506,1463.34l-6.21,6.22a1.34,1.34,0,0,1-1.77.11,11.37,11.37,0,0,0-16,16,1.34,1.34,0,0,1-.11,1.77l-6.22,6.21a1.33,1.33,0,0,1-1.95-.06,22.81,22.81,0,0,1,32.2-32.2A1.33,1.33,0,0,1,506,1463.34Z" transform="translate(-446.13 -1433.76)"/><path class="cls-3" d="M526.94,1514.57c.73,20.23,7.42,35.7,16.11,39.33a20.14,20.14,0,0,0,11.68,1.34,19.35,19.35,0,0,0,12.88-12.88,20.14,20.14,0,0,0-1.34-11.68C562.64,1522,547.17,1515.3,526.94,1514.57Z" transform="translate(-446.13 -1433.76)"/></svg>