<svg id="Capa_1" data-name="Capa 1" xmlns="http://www.w3.org/2000/svg" viewBox="0 0 210.31 200"><defs><style>.cls-1{fill:#d9d9d9;}.cls-2{fill:#007cc3;}.cls-3{fill:#fff;}.cls-4{fill:#f173ac;}.cls-5{fill:#f4c6de;}</style></defs><title>via-m-c-3</title><path class="cls-1" d="M602.1,1449.47h32.38a16.81,16.81,0,0,1,16.81,16.8V1617a16.81,16.81,0,0,1-16.81,16.8H457.78A16.81,16.81,0,0,1,441,1617V1466.27a16.81,16.81,0,0,1,16.81-16.8h32.38" transform="translate(-440.97 -1433.76)"/><rect class="cls-2" x="23.89" y="86.97" width="18.58" height="18.58" rx="9.29"/><rect class="cls-3" x="59.88" y="86.97" width="18.58" height="18.58" rx="9.29"/><rect class="cls-3" x="95.87" y="86.97" width="18.58" height="18.58" rx="9.29"/><rect class="cls-3" x="131.86" y="86.97" width="18.58" height="18.58" rx="9.29"/><rect class="cls-3" x="167.84" y="86.97" width="18.58" height="18.58" rx="9.29"/><rect class="cls-2" x="23.89" y="122.96" width="18.58" height="18.58" rx="9.29"/><rect class="cls-3" x="59.88" y="122.96" width="18.58" height="18.58" rx="9.29"/><rect class="cls-3" x="95.87" y="122.96" width="18.58" height="18.58" rx="9.29"/><rect class="cls-4" x="131.86" y="122.96" width="18.58" height="18.58" rx="9.29"/><rect class="cls-3" x="167.84" y="122.96" width="18.58" height="18.58" rx="9.29"/><rect class="cls-2" x="23.89" y="158.94" width="18.58" height="18.58" rx="9.29"/><rect class="cls-3" x="59.88" y="158.94" width="18.58" height="18.58" rx="9.29"/><rect class="cls-3" x="95.87" y="158.94" width="18.58" height="18.58" rx="9.29"/><rect class="cls-3" x="131.86" y="158.94" width="18.58" height="18.58" rx="9.29"/><path class="cls-4" d="M634.48,1449.47H457.78a16.81,16.81,0,0,0-16.81,16.8v32H651.29v-32A16.81,16.81,0,0,0,634.48,1449.47Z" transform="translate(-440.97 -1433.76)"/><rect class="cls-5" x="49.19" width="19.78" height="40.1" rx="9.89"/><rect class="cls-5" x="141.34" width="19.78" height="40.1" rx="9.89"/></svg>