<svg xmlns="http://www.w3.org/2000/svg" viewBox="0 0 200 200"><defs><style>.cls-1{isolation:isolate;}.cls-2,.cls-5{fill:#f8c5b0;}.cls-3{fill:#f7a6a9;}.cls-4{fill:#d36f62;}.cls-5{opacity:0.4;mix-blend-mode:multiply;}</style></defs><title>via-m-c-2</title><g class="cls-1"><g id="Capa_1" data-name="Capa 1"><path class="cls-2" d="M546.13,1633.76a100,100,0,1,0-100-100,100,100,0,0,0,100,100" transform="translate(-446.13 -1433.76)"/><path class="cls-3" d="M597.05,1483.33c-12.57,3.58-13.31,9.52-14.64,20.31-.94,7.64-2,16.29-8,24.8-5.28,7.43-13.07,11.23-22.82,11.23a44.9,44.9,0,0,1-9.21-1,67.08,67.08,0,0,1-17.88-6.71l5.85-10.15c.25.14,24.57,13.84,34.51-.14,4.33-6.09,5.13-12.58,6-19.44,1.42-11.46,3-24.45,23.07-30.15l1-.27a6.18,6.18,0,0,0,2.08-11,88.93,88.93,0,1,0-50.72,162c49.06,0,89.42-40.88,88.88-89.93a89.07,89.07,0,0,0-2.53-20.14C626.59,1491.12,610.09,1479.59,597.05,1483.33Z" transform="translate(-446.13 -1433.76)"/><circle class="cls-4" cx="104.89" cy="35.5" r="11.01"/><circle class="cls-4" cx="32.66" cy="94.34" r="11.01"/><circle class="cls-4" cx="124.13" cy="163.63" r="8.15"/><circle class="cls-4" cx="159.88" cy="122.66" r="5.91"/><circle class="cls-4" cx="67.89" cy="156.69" r="5.91"/><circle class="cls-4" cx="159.88" cy="87.59" r="12.41"/><circle class="cls-2" cx="83.53" cy="76.43" r="25.54"/><circle class="cls-2" cx="91.15" cy="113.52" r="25.54"/><path class="cls-2" d="M509,1495.19c-14.21,19.59-18.06,55.63,11.6,77.15s64.62,4.76,70.67-3.58c5.18-7.14,2.16-12.31-.76-14.43s-6-4.51-14.86,1.12-18.42,5.8-22-1.77-23.35-40.24-23.35-40.24Z" transform="translate(-446.13 -1433.76)"/><circle class="cls-5" cx="83.53" cy="76.43" r="3.67"/></g></g></svg>