<svg id="Capa_1" data-name="Capa 1" xmlns="http://www.w3.org/2000/svg" viewBox="0 0 295.33 200"><defs><style>.cls-1{fill:#d36f62;}.cls-2{fill:#f8c5b0;}.cls-3{fill:#f7a6a9;}</style></defs><title>via-m-c-1</title><path class="cls-1" d="M546.13,1628c5.22,0,11.84,4,11.84,4l4.65-38.43,7.54-22.17,14.16-97.63,5.46-14.28-43.65,9.75Z" transform="translate(-398.47 -1434.27)"/><path class="cls-1" d="M546.13,1628c-5.22,0-11.84,4-11.84,4l-4.64-38.43-7.55-22.17-14.16-97.63-5.46-14.28,43.65,9.75Z" transform="translate(-398.47 -1434.27)"/><path class="cls-2" d="M660.83,1479.7s-17.2,10.9-16.59,27.28,18.92,16.67,30.79,2.55,10.52-26.14,10.52-26.14l-12.17-11.72Z" transform="translate(-398.47 -1434.27)"/><path class="cls-2" d="M431.43,1479.7s17.2,10.9,16.6,27.28-18.93,16.67-30.8,2.55-10.52-26.14-10.52-26.14l12.17-11.72Z" transform="translate(-398.47 -1434.27)"/><path class="cls-3" d="M690.2,1453.5c-9.16-18.63-24.78-21.79-45.06-17.58s-20.43,20.58-47.17,13.82c-34.27-8.66-27.21-10.53-51.84-10.53v35.32c20.74,0,35.31-5.71,35.31-5.71s-32.6,17.73-32.6,50.93c0,19.64,1.17,36.36,0,45.64s4.23,14.08,8.81,14.08h0c4.57,0,5-3.86,8.28-3.55s-.62,4.49-5.1,12.07a11.22,11.22,0,0,0-1,2.53c-2.91,9.81-2.8,35.72-2.72,42.24a1.53,1.53,0,0,0,3.06.09c.36-5.06,1.77-22.55,4.54-34.46.2-.86.41-1.7.62-2.5,3.72-13.78,6.27-20.52,14.25-46.93l.08-.29c.21-.79.43-1.56.65-2.33,7.49-26.58,14.82-42.47,15-62.5,0,0,19.68-7.66,31.4-19.38s20.28-18.47,34.1-15.62,15.92,13.82-1.8,28.39c0,0,2.55,6.31,9.91,2.86,0,0,1.51,11.56,12.47,8.26,0,0-2.85,8.41,6.76,10.21C688.1,1498.56,699.37,1472.12,690.2,1453.5Z" transform="translate(-398.47 -1434.27)"/><path class="cls-3" d="M402.06,1453.5c9.16-18.63,24.78-21.79,45.06-17.58s20.43,20.58,47.17,13.82c34.27-8.66,27.21-10.53,51.84-10.53v35.32c-20.74,0-35.31-5.71-35.31-5.71s32.6,17.73,32.6,50.93c0,19.64-1.17,36.36,0,45.64s-4.23,14.08-8.81,14.08h0c-4.57,0-5-3.86-8.28-3.55s.62,4.49,5.11,12.07a11.74,11.74,0,0,1,1,2.53c2.92,9.81,2.8,35.72,2.72,42.24a1.53,1.53,0,0,1-3.06.09c-.36-5.06-1.77-22.55-4.54-34.46-.2-.86-.41-1.7-.62-2.5-3.72-13.78-6.27-20.52-14.25-46.93l-.08-.29c-.21-.79-.43-1.56-.65-2.33-7.49-26.58-14.82-42.47-15-62.5,0,0-19.68-7.66-31.4-19.38s-20.28-18.47-34.1-15.62-15.92,13.82,1.8,28.39c0,0-2.55,6.31-9.91,2.86,0,0-1.5,11.56-12.47,8.26,0,0,2.85,8.41-6.76,10.21C404.16,1498.56,392.89,1472.12,402.06,1453.5Z" transform="translate(-398.47 -1434.27)"/><path class="cls-1" d="M548.84,1565.39c2.92-23.89,3.73-36.61,14.57-56.42a309.36,309.36,0,0,0,18-40.15,193.86,193.86,0,0,1-25,9.59c-14.26,4.39-9.75,38.7-9.75,38.7Z" transform="translate(-398.47 -1434.27)"/><path class="cls-1" d="M543.42,1565.39c-2.91-23.89-3.73-36.61-14.57-56.42a311,311,0,0,1-18-40.15,193.86,193.86,0,0,0,25,9.59c14.26,4.39,9.75,38.7,9.75,38.7Z" transform="translate(-398.47 -1434.27)"/><circle class="cls-2" cx="147.67" cy="62.4" r="18.21"/><circle class="cls-1" cx="137.7" cy="62.48" r="3.69"/><circle class="cls-1" cx="154.42" cy="71.1" r="3.89"/><circle class="cls-1" cx="152.58" cy="56.75" r="6.93"/></svg>