<?xml version="1.0" encoding="utf-8"?>
<!-- Generator: Adobe Illustrator 24.1.1, SVG Export Plug-In . SVG Version: 6.00 Build 0)  -->
<svg version="1.1" id="Capa_1" xmlns="http://www.w3.org/2000/svg" xmlns:xlink="http://www.w3.org/1999/xlink" x="0px" y="0px"
	 viewBox="0 0 100 100" style="enable-background:new 0 0 100 100;" xml:space="preserve">
<style type="text/css">
	.st0{fill:#FFFFFF;}
	.st1{fill:#F45B6A;}
	.st2{fill:#808080;}
	.st3{fill:#D9D9D9;}
	.st4{fill:#999999;}
	.st5{fill:#A6CE39;}
	.st6{fill:#BFBFBF;}
	.st7{fill:#009F46;}
	.st8{fill:#62BB46;}
</style>
<g>
	<g>
		<circle class="st0" cx="50" cy="50" r="50"/>
		<g>
			<path class="st1" d="M50,7.41c23.49,0,42.59,19.11,42.59,42.59S73.49,92.59,50,92.59S7.41,73.49,7.41,50S26.51,7.41,50,7.41
				 M50,0C22.39,0,0,22.39,0,50s22.39,50,50,50c27.61,0,50-22.39,50-50S77.61,0,50,0L50,0z"/>
			<g>
				
					<rect x="1.14" y="46.3" transform="matrix(0.7071 -0.7071 0.7071 0.7071 -20.7107 50)" class="st1" width="97.72" height="7.41"/>
			</g>
		</g>
	</g>
	<g>
		<path class="st3" d="M52.85,50.22c9.27,9.71,24.15,3.29,28.25,1.23c0.68-0.34,1.09-1.05,1.05-1.81
			c-0.63-13.29-11.23-27.5-29.67-27.5c-0.52,0-1.04,0.01-1.55,0.04C33.86,22.86,21.65,34.95,19.9,46.74
			c-0.14,0.96-0.22,1.93-0.22,2.88c0,10.75,4.62,16.41,9.85,19.36c6.85,3.87,14.76,3.12,14.76,3.12s-3.19-2.09-4.32-8.24
			c-0.24-1.33-0.4-2.85-0.4-4.58C39.59,49.55,52.85,50.22,52.85,50.22"/>
		<path class="st4" d="M29.54,68.98L29.54,68.98c0,0,1.63,14.65,17.62,15.57c0,0-1.18-1.52-1.18-6.09c0-4.57-1.68-6.36-1.68-6.36
			S36.39,72.85,29.54,68.98"/>
		<path class="st4" d="M44.3,72.1c0,0,2.21,1.07,6.57-0.3c4.36-1.37,6.16-0.69,6.16-0.69c-3.84-12.72-16.97-7.28-17.05-7.25
			C41.12,70.01,44.3,72.1,44.3,72.1"/>
		<path class="st4" d="M50.94,22.17L50.94,22.17l-5.34-5.04c-1.73-1.63-4.23-2.12-6.45-1.27c-3.84,1.47-10.01,4.65-15.98,11.18
			c-9.65,10.55-3.27,19.7-3.27,19.7v0C21.65,34.95,33.85,22.86,50.94,22.17"/>
		<path class="st4" d="M71.58,37.44c0-1.55-1.26-2.8-2.81-2.8c-1.55,0-2.8,1.26-2.8,2.8c0,1.55,1.25,2.8,2.8,2.8
			C70.33,40.24,71.58,38.98,71.58,37.44"/>
		<path class="st6" d="M44.15,47.11c4.01,0,7.28-3.22,7.35-7.21c0.08-4.12-3.37-7.5-7.5-7.5h-3.55c-0.62,0-1.13,0.51-1.13,1.13
			v12.45c0,0.62,0.51,1.13,1.13,1.13H44.15z"/>
	</g>
</g>
</svg>
