<?xml version="1.0" encoding="utf-8"?>
<!-- Generator: Adobe Illustrator 24.1.1, SVG Export Plug-In . SVG Version: 6.00 Build 0)  -->
<svg version="1.1" id="Capa_1" xmlns="http://www.w3.org/2000/svg" xmlns:xlink="http://www.w3.org/1999/xlink" x="0px" y="0px"
	 viewBox="0 0 100 100" style="enable-background:new 0 0 100 100;" xml:space="preserve">
<style type="text/css">
	.st0{fill:#FFFFFF;}
	.st1{fill:#F45B6A;}
	.st2{fill:#808080;}
	.st3{fill:#D9D9D9;}
	.st4{fill:#999999;}
	.st5{fill:#A6CE39;}
	.st6{fill:#BFBFBF;}
	.st7{fill:#009F46;}
	.st8{fill:#62BB46;}
</style>
<g>
	<g>
		<g>
			<circle class="st0" cx="50" cy="50" r="50"/>
		</g>
		<g>
			<g>
				<path class="st1" d="M50,7.41c23.49,0,42.59,19.11,42.59,42.59S73.49,92.59,50,92.59S7.41,73.49,7.41,50S26.51,7.41,50,7.41
					 M50,0C22.39,0,0,22.39,0,50s22.39,50,50,50c27.61,0,50-22.39,50-50S77.61,0,50,0L50,0z"/>
			</g>
			<g>
				
					<rect x="1.14" y="46.3" transform="matrix(0.7071 -0.7071 0.7071 0.7071 -20.7107 50)" class="st1" width="97.72" height="7.41"/>
			</g>
		</g>
	</g>
	<g>
		<g>
			<g>
				<path class="st2" d="M35.41,77.57c-0.35,0-0.67-0.23-0.77-0.59l-0.96-3.43c-0.06-0.23-0.02-0.47,0.11-0.67l4.33-6.35v-2.45
					c0-0.44,0.36-0.8,0.8-0.8s0.8,0.36,0.8,0.8v2.7c0,0.16-0.05,0.32-0.14,0.45l-4.26,6.24l0.86,3.07c0.12,0.43-0.13,0.87-0.56,0.99
					C35.56,77.56,35.48,77.57,35.41,77.57z"/>
			</g>
		</g>
		<g>
			<g>
				<path class="st2" d="M40.03,43.98c-0.18,0-0.36-0.06-0.51-0.19l-5.83-4.84c-0.1-0.09-0.19-0.2-0.23-0.33l-3.93-10.17l-4.05-2.04
					c-0.16-0.08-0.29-0.21-0.36-0.37l-1.16-2.46c-0.19-0.4-0.02-0.88,0.38-1.07c0.4-0.19,0.88-0.02,1.07,0.38l1.04,2.21l4.07,2.06
					c0.18,0.09,0.31,0.24,0.39,0.43l3.97,10.26l5.67,4.71c0.34,0.28,0.39,0.79,0.1,1.13C40.49,43.88,40.26,43.98,40.03,43.98z"/>
			</g>
		</g>
		<g>
			<g>
				<path class="st2" d="M36.54,50.27c-0.09,0-0.18-0.02-0.27-0.05l-6.14-2.21c-0.15-0.05-0.28-0.15-0.37-0.27l-3.08-4.09
					l-3.67-0.87c-0.43-0.1-0.7-0.53-0.6-0.96c0.1-0.43,0.53-0.69,0.96-0.6l3.95,0.93c0.18,0.04,0.34,0.15,0.46,0.3l3.11,4.13
					l5.92,2.13c0.42,0.15,0.63,0.61,0.48,1.03C37.17,50.07,36.86,50.27,36.54,50.27z"/>
			</g>
		</g>
		<g>
			<g>
				<path class="st2" d="M59.97,43.98c-0.23,0-0.46-0.1-0.62-0.29c-0.28-0.34-0.24-0.85,0.1-1.13l5.67-4.71l3.97-10.26
					c0.07-0.18,0.21-0.34,0.39-0.43l4.08-2.06l1.04-2.21c0.19-0.4,0.67-0.57,1.07-0.38c0.4,0.19,0.57,0.67,0.38,1.07l-1.16,2.46
					c-0.08,0.16-0.2,0.29-0.36,0.37l-4.05,2.04l-3.93,10.17c-0.05,0.13-0.13,0.24-0.23,0.33l-5.83,4.84
					C60.33,43.92,60.15,43.98,59.97,43.98z"/>
			</g>
		</g>
		<g>
			<g>
				<path class="st2" d="M63.46,50.27c-0.33,0-0.64-0.2-0.75-0.53c-0.15-0.42,0.07-0.88,0.48-1.03l5.92-2.13l3.11-4.13
					c0.11-0.15,0.27-0.26,0.46-0.3l3.95-0.93c0.43-0.1,0.86,0.16,0.96,0.6s-0.16,0.86-0.6,0.96l-3.67,0.87l-3.08,4.09
					c-0.09,0.12-0.22,0.22-0.37,0.27l-6.14,2.21C63.65,50.25,63.55,50.27,63.46,50.27z"/>
			</g>
		</g>
		<g>
			<g>
				<path class="st2" d="M64.59,77.57c-0.07,0-0.14-0.01-0.22-0.03c-0.43-0.12-0.68-0.56-0.56-0.99l0.86-3.07l-4.26-6.24
					c-0.09-0.13-0.14-0.29-0.14-0.45v-2.7c0-0.44,0.36-0.8,0.8-0.8s0.8,0.36,0.8,0.8v2.45l4.33,6.35c0.13,0.2,0.17,0.44,0.11,0.67
					l-0.96,3.43C65.26,77.34,64.94,77.57,64.59,77.57z"/>
			</g>
		</g>
		<g>
			<path class="st2" d="M54.55,46.84c-1.23,0.6-2.72,0.97-4.55,0.97c-1.83,0-3.32-0.37-4.55-0.97c-1.99,2.35-6.74,8.83-5.44,15.57
				C41.64,70.86,49.16,74.3,50,74.3c0.84,0,8.37-3.44,9.99-11.89C61.29,55.66,56.53,49.19,54.55,46.84"/>
		</g>
		<g>
			<path class="st2" d="M44.35,31.38c1.5-0.52,3.39-0.71,5.64-0.71c2.26,0,4.15,0.2,5.65,0.71c1-0.41,2.62-1.35,2.62-3.08
				c0-2.51-3.81-5.06-8.27-5.06c-4.46,0-8.27,2.55-8.27,5.06C41.73,30.03,43.35,30.97,44.35,31.38"/>
		</g>
		<g>
			<path class="st0" d="M59.69,36.69c0.04,0.4,0.06,0.82,0.06,1.27c0,2.16-1.21,7.91-6.74,9.46v3.78c0,9.85,8.41,14.27,12.27,16.64
				c3.86,2.37,5.72-0.28,5.72-4C71,56.39,63.39,43.26,59.69,36.69"/>
		</g>
		<g>
			<path class="st0" d="M40.24,37.96c0-0.45,0.02-0.87,0.06-1.27C36.61,43.26,29,56.39,29,63.85c0,3.72,1.86,6.37,5.72,4
				c3.86-2.37,12.27-6.78,12.27-16.64v-3.78C41.45,45.87,40.24,40.12,40.24,37.96"/>
		</g>
		<g>
			<path class="st3" d="M59.69,36.69c0.04,0.4,0.06,0.82,0.06,1.27c0,2.16-1.21,7.91-6.74,9.46v3.78c0,9.85,8.41,14.27,12.27,16.64
				c3.86,2.37,5.72-0.28,5.72-4C71,56.39,63.39,43.26,59.69,36.69"/>
		</g>
		<g>
			<path class="st3" d="M40.24,37.96c0-0.45,0.02-0.87,0.06-1.27C36.61,43.26,29,56.39,29,63.85c0,3.72,1.86,6.37,5.72,4
				c3.86-2.37,12.27-6.78,12.27-16.64v-3.78C41.45,45.87,40.24,40.12,40.24,37.96"/>
		</g>
		<g>
			<path class="st4" d="M50,30.67c6.32,0,9.76,1.53,9.76,7.3c0,2.51-1.63,9.85-9.76,9.85c-8.13,0-9.76-7.34-9.76-9.85
				C40.24,32.2,43.68,30.67,50,30.67"/>
		</g>
		<g>
			<path class="st5" d="M58.27,28.3c0-2.13-2.75-4.29-6.31-4.9c0,2.02-0.29,3.97,2.17,4.8c1.11,0.38,2.59,0.84,3.87,1.23
				C58.17,29.1,58.27,28.73,58.27,28.3"/>
		</g>
		<g>
			<path class="st5" d="M41.73,28.3c0-2.13,2.75-4.29,6.31-4.9c0,2.02,0.29,3.97-2.17,4.8c-1.11,0.38-2.59,0.84-3.87,1.23
				C41.83,29.1,41.73,28.73,41.73,28.3"/>
		</g>
	</g>
</g>
</svg>
