<svg id="Capa_1" data-name="Capa 1" xmlns="http://www.w3.org/2000/svg" viewBox="0 0 126.19 200"><defs><style>.cls-1{fill:none;stroke:#f7931e;stroke-linecap:round;stroke-linejoin:round;stroke-width:5.18px;}.cls-2{fill:#f173ac;}.cls-3{fill:#f8c5b0;}</style></defs><title>ante-m-c-1</title><path class="cls-1" d="M536.85,1611.39" transform="translate(-483.34 -1433.76)"/><path class="cls-2" d="M509.75,1526.14l66.62-23.3,11.33,7.53s21.83,8.45,21.83,43.82c0,26.34-12.48,40.68-27.1,48.43h0a67.8,67.8,0,0,1,7.32,28.27,2.75,2.75,0,0,1-2.73,2.87H490.15a2.73,2.73,0,0,1-2.73-2.79c.17-6.74,1.29-24.57,8.16-41.69,8.7-21.66,16-32.33,16-52.94Z" transform="translate(-483.34 -1433.76)"/><path class="cls-3" d="M499.27,1516.88s6.64-8.56,29.16-10.22,33.57-12.82,43.79-11.39,15.61,8.37,15.48,15.1a25.13,25.13,0,0,0-19.06,5.9c-9.18,7.65-40.49,16.69-55.52,19.76s-23.34,5.7-25.72,4.17-4.19-19.06-4-50.78-1.53-55.66,17.11-55.66h40.59a2.75,2.75,0,0,1,2.5,1.62,40.4,40.4,0,0,0,13.9,16.49c11.13,7.65,28.22,9.69,28.22,25.3s-13.45,18.1-13.45,18.1" transform="translate(-483.34 -1433.76)"/><path class="cls-1" d="M572.22,1495.27" transform="translate(-483.34 -1433.76)"/><path class="cls-2" d="M511.17,1509.94h0a68.6,68.6,0,0,1,17.26-3.29,72.21,72.21,0,0,0,15.67-2.92c-1.48.45-3,.86-4.65,1.24l9-2.66q-2,.72-4.2,1.38c12.55-3.78,20.5-9.48,28-8.43h0s13.45-2.49,13.45-18.1-17.09-17.65-28.22-25.31a40.33,40.33,0,0,1-13.9-16.48,2.75,2.75,0,0,0-2.5-1.62H506.87s7.19,20.81,7.19,41.21A198.75,198.75,0,0,1,511.17,1509.94Z" transform="translate(-483.34 -1433.76)"/><path class="cls-3" d="M545,1462.7c14.24,0,20-6.59,20-6.59h0a57.74,57.74,0,0,1-7.57-4.25,40.33,40.33,0,0,1-13.9-16.48,2.75,2.75,0,0,0-2.5-1.62H521.81C520.1,1449,530.79,1462.7,545,1462.7Z" transform="translate(-483.34 -1433.76)"/><path class="cls-3" d="M568.55,1568c-.42-.16-8.64-3.18-11.12,3.44h0c-.39-.06-12.84-1.92-14.41,10.77-1.59,12.89,8.7,16.27,12.51,16.74,10.29,1.27,12.91-1.87,15-7s3.88-8.4,11.15-10.15,19-6.14,20.85-21.1-8.62-21.8-18.45-21.8h0c0-.3-.23-6.46-.25-9s-4.49-3.68-7.81-4.83-7.09-2.44-8.23,1.28,4.16,5.15,4.43,5.23h0c-.12.41-3.32,12.23,6.58,16.39a0,0,0,0,1,0,0c-.38.19-5.3,2.85-6.41,6.42h0a10,10,0,0,0-5-3.78,79.23,79.23,0,0,0-8.83-1.79,3.3,3.3,0,0,0-3.79,2.41,3.23,3.23,0,0,0,2.23,3.86l4.43.88a8.83,8.83,0,0,1,5.77,5.28l0,0a22.65,22.65,0,0,1,1.42,6.6Z" transform="translate(-483.34 -1433.76)"/><path class="cls-3" d="M565.18,1583.94c2.64-2.47,4.26-1,9.13,1.47a18.32,18.32,0,0,0-3.82,6.54c-2.06,5.1-4.68,8.24-15,7-3.81-.47-14.1-3.85-12.51-16.74a14.17,14.17,0,0,1,1.72-5.44c9.16,1.83,9.91,4.33,12.53,7.68C560.1,1588.06,562.35,1586.58,565.18,1583.94Z" transform="translate(-483.34 -1433.76)"/></svg>