<svg width="96" height="95" viewBox="0 0 96 95" fill="none" xmlns="http://www.w3.org/2000/svg">
<g clip-path="url(#clip0_1215_455)">
<path d="M47.8269 69.7009C60.0881 69.7009 70.0278 59.7612 70.0278 47.5C70.0278 35.2387 60.0881 25.2991 47.8269 25.2991C35.5657 25.2991 25.626 35.2387 25.626 47.5C25.626 59.7612 35.5657 69.7009 47.8269 69.7009Z" fill="#F173AC"/>
<path d="M47.8269 87.0497C40.0047 87.0497 32.3582 84.7302 25.8543 80.3844C19.3504 76.0386 14.2812 69.8618 11.2878 62.635C8.29436 55.4083 7.51114 47.4562 9.03718 39.7843C10.5632 32.1124 14.33 25.0653 19.8611 19.5342C25.3922 14.0031 32.4393 10.2363 40.1112 8.71027C47.7831 7.18424 55.7352 7.96745 62.962 10.9609C70.1887 13.9543 76.3655 19.0235 80.7113 25.5274C85.0571 32.0313 87.3766 39.6778 87.3766 47.5C87.3648 57.9856 83.1941 68.0384 75.7797 75.4528C68.3653 82.8672 58.3125 87.0379 47.8269 87.0497ZM47.8269 12.9412C40.9918 12.9412 34.3102 14.968 28.6271 18.7654C22.9439 22.5628 18.5144 27.9601 15.8987 34.2749C13.2831 40.5897 12.5987 47.5384 13.9321 54.2421C15.2656 60.9459 18.557 67.1037 23.3901 71.9368C28.2233 76.77 34.3811 80.0614 41.0848 81.3948C47.7886 82.7283 54.7372 82.0439 61.052 79.4282C67.3668 76.8126 72.7642 72.3831 76.5616 66.6999C80.3589 61.0167 82.3858 54.3351 82.3858 47.5C82.3755 38.3376 78.7311 29.5534 72.2523 23.0746C65.7735 16.5958 56.9893 12.9515 47.8269 12.9412Z" fill="#007CC3"/>
<path d="M47.8269 58.3707C47.4991 58.3708 47.1746 58.3062 46.8719 58.1808C46.5691 58.0554 46.294 57.8716 46.0623 57.6399C45.8305 57.4082 45.6467 57.1331 45.5213 56.8303C45.3959 56.5275 45.3314 56.203 45.3314 55.8753V39.1242C45.3314 38.4624 45.5943 37.8277 46.0623 37.3597C46.5303 36.8917 47.165 36.6288 47.8269 36.6288C48.4887 36.6288 49.1234 36.8917 49.5914 37.3597C50.0594 37.8277 50.3223 38.4624 50.3223 39.1242V55.8753C50.3223 56.203 50.2578 56.5275 50.1324 56.8303C50.007 57.1331 49.8232 57.4082 49.5914 57.6399C49.3597 57.8716 49.0846 58.0554 48.7818 58.1808C48.4791 58.3062 48.1546 58.3708 47.8269 58.3707Z" fill="white"/>
<path d="M56.2022 49.9954H39.4511C38.7893 49.9954 38.1546 49.7325 37.6866 49.2645C37.2186 48.7965 36.9557 48.1618 36.9557 47.4999C36.9557 46.8381 37.2186 46.2034 37.6866 45.7354C38.1546 45.2674 38.7893 45.0045 39.4511 45.0045H56.2022C56.864 45.0045 57.4988 45.2674 57.9667 45.7354C58.4347 46.2034 58.6976 46.8381 58.6976 47.4999C58.6976 48.1618 58.4347 48.7965 57.9667 49.2645C57.4988 49.7325 56.864 49.9954 56.2022 49.9954Z" fill="white"/>
<path d="M18.7224 49.9954H2.82233C2.16051 49.9954 1.52578 49.7325 1.0578 49.2645C0.589815 48.7965 0.326904 48.1618 0.326904 47.4999C0.326904 46.8381 0.589815 46.2034 1.0578 45.7354C1.52578 45.2674 2.16051 45.0045 2.82233 45.0045H18.7224C19.3843 45.0045 20.019 45.2674 20.487 45.7354C20.955 46.2034 21.2179 46.8381 21.2179 47.4999C21.2179 48.1618 20.955 48.7965 20.487 49.2645C20.019 49.7325 19.3843 49.9954 18.7224 49.9954Z" fill="#007CC3"/>
<path d="M92.8314 49.9954H76.9309C76.269 49.9954 75.6343 49.7325 75.1663 49.2645C74.6983 48.7965 74.4354 48.1618 74.4354 47.4999C74.4354 46.8381 74.6983 46.2034 75.1663 45.7354C75.6343 45.2674 76.269 45.0045 76.9309 45.0045H92.8315C93.4933 45.0045 94.128 45.2674 94.596 45.7354C95.064 46.2034 95.3269 46.8381 95.3269 47.4999C95.3269 48.1618 95.064 48.7965 94.596 49.2645C94.128 49.7325 93.4933 49.9954 92.8315 49.9954H92.8314Z" fill="#007CC3"/>
<path d="M47.8269 20.891C47.4991 20.891 47.1746 20.8265 46.8719 20.7011C46.5691 20.5757 46.294 20.3919 46.0623 20.1602C45.8305 19.9284 45.6467 19.6533 45.5213 19.3506C45.3959 19.0478 45.3314 18.7233 45.3314 18.3956V2.49543C45.3314 1.8336 45.5943 1.19888 46.0623 0.730895C46.5303 0.262911 47.165 0 47.8269 0C48.4887 0 49.1234 0.262911 49.5914 0.730895C50.0594 1.19888 50.3223 1.8336 50.3223 2.49543V18.3955C50.3223 18.7233 50.2578 19.0478 50.1324 19.3505C50.007 19.6533 49.8232 19.9284 49.5915 20.1602C49.3597 20.3919 49.0846 20.5757 48.7818 20.7011C48.4791 20.8265 48.1546 20.891 47.8269 20.891Z" fill="#007CC3"/>
<path d="M47.8269 95C47.4991 95 47.1746 94.9354 46.8719 94.8101C46.5691 94.6847 46.294 94.5008 46.0623 94.2691C45.8305 94.0374 45.6467 93.7623 45.5213 93.4595C45.3959 93.1567 45.3314 92.8322 45.3314 92.5045V76.604C45.3314 75.9421 45.5943 75.3074 46.0623 74.8394C46.5303 74.3714 47.165 74.1085 47.8269 74.1085C48.4887 74.1085 49.1234 74.3714 49.5914 74.8394C50.0594 75.3074 50.3223 75.9421 50.3223 76.604V92.5046C50.3223 92.8323 50.2578 93.1568 50.1324 93.4595C50.007 93.7623 49.8232 94.0374 49.5914 94.2691C49.3597 94.5009 49.0846 94.6847 48.7818 94.8101C48.4791 94.9354 48.1546 95 47.8269 95Z" fill="#007CC3"/>
</g>
<defs>
<clipPath id="clip0_1215_455">
<rect width="95" height="95" fill="white" transform="translate(0.326904)"/>
</clipPath>
</defs>
</svg>
