<svg width="95" height="95" viewBox="0 0 95 95" fill="none" xmlns="http://www.w3.org/2000/svg">
<g clip-path="url(#clip0_1514_250)">
<path d="M26.7029 43.8815L63.154 32.8127L68.5358 36.3897C68.5358 36.3897 78.9054 40.4033 78.9054 57.2047C78.9054 69.7165 72.9762 76.5244 66.0323 80.2073L66.0316 80.206C68.1544 84.3767 69.3413 88.9605 69.5096 93.6374C69.5178 93.813 69.4903 93.9884 69.4288 94.1531C69.3674 94.3178 69.2732 94.4683 69.152 94.5956C69.0308 94.723 68.8851 94.8244 68.7236 94.8939C68.5621 94.9634 68.3882 94.9994 68.2125 94.9999H17.3928C17.2198 95.0002 17.0484 94.9658 16.8889 94.8987C16.7294 94.8317 16.5849 94.7335 16.464 94.6097C16.343 94.486 16.2481 94.3393 16.1847 94.1783C16.1213 94.0173 16.0908 93.8452 16.095 93.6723C16.2651 86.9018 17.5757 80.2084 19.9718 73.8738C24.1022 63.5816 27.578 58.5157 27.578 48.7251L26.7029 43.8815Z" fill="#F173AC"/>
<path d="M26.5321 39.4809C26.5321 39.4809 29.6879 35.4155 40.383 34.6279C51.078 33.8404 56.3285 28.5358 61.1851 29.2192C66.0418 29.9025 68.6002 33.1922 68.5358 36.3898C66.9155 36.2133 65.2763 36.3707 63.7193 36.8525C62.1623 37.3343 60.7206 38.1302 59.4833 39.191C55.1214 42.8259 40.2514 47.1217 33.1138 48.5756C25.9762 50.0296 22.023 51.2853 20.8934 50.5583C19.7638 49.8313 18.9046 41.5041 18.9707 26.4358C19.0368 11.3676 18.2438 0.00024448 27.0997 0.00024448H46.3797C46.6308 6.26808e-05 46.8766 0.0728442 47.0872 0.209742C47.2977 0.346639 47.464 0.541756 47.5657 0.771374C49.0178 3.92997 51.2995 6.63549 54.1678 8.5997C59.4549 12.2346 67.5748 13.207 67.5748 20.62C67.5748 28.033 61.1852 29.2192 61.1852 29.2192" fill="#F8C5B0"/>
<path d="M32.1849 36.1856L32.1876 36.1901C34.841 35.3196 37.5954 34.7946 40.3829 34.6279C42.9079 34.4406 45.4045 33.9755 47.8275 33.241C47.1234 33.4517 46.3892 33.6499 45.62 33.8283L49.8843 32.5654C49.2468 32.793 48.5817 33.0134 47.8887 33.2217C53.8513 31.4256 57.6285 28.7185 61.1854 29.219L61.1875 29.2193L61.1854 29.219C61.1854 29.219 67.5749 28.0327 67.5749 20.6199C67.5749 13.2069 59.455 12.2343 54.1677 8.59939C51.2994 6.63521 49.0177 3.92968 47.5657 0.77106C47.4639 0.54147 47.2976 0.346379 47.0871 0.209497C46.8765 0.0726145 46.6308 -0.000165888 46.3796 2.83918e-07H30.144C30.144 2.83918e-07 33.5592 9.8863 33.5592 19.5729C33.5923 25.1402 33.1324 30.6994 32.1849 36.1856Z" fill="#F173AC"/>
<path d="M48.2686 13.7458C55.0313 13.7458 57.7621 10.6162 57.7621 10.6162L57.7624 10.6141C56.5161 10.0322 55.3146 9.35879 54.1677 8.59939C51.2994 6.63521 49.0177 3.92968 47.5656 0.77106C47.4639 0.54147 47.2976 0.346379 47.0871 0.209497C46.8765 0.0726145 46.6308 -0.000165888 46.3796 2.83918e-07H37.2398C36.4273 7.24523 41.5058 13.7458 48.2686 13.7458Z" fill="#F8C5B0"/>
</g>
<defs>
<clipPath id="clip0_1514_250">
<rect width="95" height="95" fill="white"/>
</clipPath>
</defs>
</svg>
