<svg width="95" height="95" viewBox="0 0 95 95" fill="none" xmlns="http://www.w3.org/2000/svg">
<g clip-path="url(#clip0_1520_125)">
<path d="M88.4 95C92.1 95 95 92 95 88.4001V39.3H81.8V88.4001C81.8 92 84.8 95 88.4 95Z" fill="#999999"/>
<path d="M95 39.3V0.8C95 0.4 94.7 0 94.2 0C87.4 0 81.8 5.6 81.8 12.4V13.2V29.3C81.8 31.2 83.3 32.7 85.2 32.7V39.3" fill="#BFBFBF"/>
<path d="M22.5 77.2001L29.2 79.6001C30.1 79.9001 31 79.5001 31.3 78.6001C31.6 77.7001 31.2 76.8001 30.3 76.5001L23.6 74.1001L22.5 77.2001Z" fill="#BFBFBF"/>
<path d="M48.0001 77.2001L41.3001 79.6001C40.4001 79.9001 39.5001 79.5001 39.2001 78.6001C38.9001 77.7001 39.3001 76.8001 40.2001 76.5001L46.9001 74.1001L48.0001 77.2001Z" fill="#999999"/>
<path d="M41.4 0.100078C41 -0.0999218 40.5 0.100078 40.4 0.600078L30.7 27.6001C30.1 29.3001 31 31.1001 32.6 31.7001L16.1 77.4001C14.6 76.2001 12.8 75.4001 10.7 75.2001C6.9 74.9001 3.2 76.8001 1.3 80.2001C-1.9 85.9001 1.1 92.9001 7.2 94.7001C12.1 96.1001 17.6 93.0001 19.3 88.3001L35.8 42.4001L38 30.4001L40.2 30.0001L46.6 12.3001C48.4 7.50008 46.1 2.20008 41.4 0.100078ZM12.9 86.2001C12.3 87.9001 10.5 88.7001 8.8 88.1001C7.10001 87.5001 6.3 85.7001 6.9 84.0001C7.5 82.3001 9.3 81.5001 11 82.1001C12.7 82.7001 13.5 84.5001 12.9 86.2001Z" fill="#999999"/>
<path d="M69.1 80.2001C67.2 76.9001 63.5 74.9001 59.7 75.2001C57.5 75.4001 55.7 76.2001 54.3 77.4001L38.3 33.1001C38 32.3001 38.4 31.4001 39.3 31.1001C40.1 30.8001 40.6 29.9001 40.3 29.1001L30 0.500093C29.9 0.100093 29.4 -0.0999072 29 9.27746e-05C24.4 2.10009 22.1 7.40009 23.8 12.3001L51.1 88.1001C52.9 93.0001 58.2 96.0001 63.2 94.5001C69.3 92.9001 72.3 85.9001 69.1 80.2001ZM61.6 88.1001C59.9 88.7001 58.1 87.8001 57.5 86.2001C56.9 84.5001 57.8 82.7001 59.4 82.1001C61.1 81.5001 62.9 82.4001 63.5 84.0001C64.1 85.7001 63.3 87.5001 61.6 88.1001Z" fill="#BFBFBF"/>
<path d="M35.2 29.5C36.0284 29.5 36.7 28.8284 36.7 28C36.7 27.1716 36.0284 26.5 35.2 26.5C34.3715 26.5 33.7 27.1716 33.7 28C33.7 28.8284 34.3715 29.5 35.2 29.5Z" fill="#999999"/>
</g>
<defs>
<clipPath id="clip0_1520_125">
<rect width="95" height="95" fill="white"/>
</clipPath>
</defs>
</svg>
