<svg width="85" height="80" viewBox="0 0 85 80" fill="none" xmlns="http://www.w3.org/2000/svg">
<path d="M56.8594 72.3139L64.8987 79.6677C65.1016 79.8533 65.3604 79.9663 65.6345 79.9889C65.9087 80.0115 66.1825 79.9425 66.4131 79.7926C66.6437 79.6427 66.818 79.4205 66.9087 79.1608C66.9994 78.9012 67.0012 78.6188 66.914 78.3579L63.3553 67.716L57.7541 66.678L56.8594 72.3139Z" fill="#D9D9D9"/>
<path d="M28.1409 72.3139L20.1016 79.6677C19.8987 79.8533 19.6399 79.9663 19.3658 79.9889C19.0916 80.0115 18.8178 79.9425 18.5872 79.7926C18.3566 79.6427 18.1822 79.4205 18.0916 79.1608C18.0009 78.9012 17.9991 78.6188 18.0863 78.3579L21.645 67.716L27.2463 66.678L28.1409 72.3139Z" fill="#D9D9D9"/>
<path d="M43.5406 7.84424H41.4597V20.8302H43.5406V7.84424Z" fill="#D9D9D9"/>
<path d="M65.2502 8.70785L55.9758 23.6427L57.7436 24.7405L67.018 9.8056L65.2502 8.70785Z" fill="#D9D9D9"/>
<path d="M19.7496 8.70796L17.9819 9.80579L27.257 24.7403L29.0247 23.6425L19.7496 8.70796Z" fill="#D9D9D9"/>
<path d="M42.5001 75.8661C59.4908 75.8661 73.2645 62.0924 73.2645 45.1016C73.2645 28.1109 59.4908 14.3372 42.5001 14.3372C25.5093 14.3372 11.7356 28.1109 11.7356 45.1016C11.7356 62.0924 25.5093 75.8661 42.5001 75.8661Z" fill="#F173AC"/>
<path d="M42.5001 69.7854C56.1326 69.7854 67.1838 58.7341 67.1838 45.1017C67.1838 31.4692 56.1326 20.418 42.5001 20.418C28.8677 20.418 17.8164 31.4692 17.8164 45.1017C17.8164 58.7341 28.8677 69.7854 42.5001 69.7854Z" fill="white"/>
<path d="M42.5002 10.414C44.6871 10.414 46.4599 8.64118 46.4599 6.45431C46.4599 4.26744 44.6871 2.49463 42.5002 2.49463C40.3133 2.49463 38.5405 4.26744 38.5405 6.45431C38.5405 8.64118 40.3133 10.414 42.5002 10.414Z" fill="#BFBFBF"/>
<path d="M42.5001 50.2876C45.3642 50.2876 47.686 47.9657 47.686 45.1017C47.686 42.2376 45.3642 39.9158 42.5001 39.9158C39.636 39.9158 37.3142 42.2376 37.3142 45.1017C37.3142 47.9657 39.636 50.2876 42.5001 50.2876Z" fill="#D9D9D9"/>
<path d="M42.5001 67.1239C43.3621 67.1239 44.0608 66.4252 44.0608 65.5632C44.0608 64.7013 43.3621 64.0026 42.5001 64.0026C41.6382 64.0026 40.9395 64.7013 40.9395 65.5632C40.9395 66.4252 41.6382 67.1239 42.5001 67.1239Z" fill="#007CC3"/>
<path d="M42.5001 26.2008C43.3621 26.2008 44.0608 25.5021 44.0608 24.6401C44.0608 23.7782 43.3621 23.0795 42.5001 23.0795C41.6382 23.0795 40.9395 23.7782 40.9395 24.6401C40.9395 25.5021 41.6382 26.2008 42.5001 26.2008Z" fill="#007CC3"/>
<path d="M22.0385 46.6624C22.9004 46.6624 23.5991 45.9636 23.5991 45.1017C23.5991 44.2398 22.9004 43.541 22.0385 43.541C21.1765 43.541 20.4778 44.2398 20.4778 45.1017C20.4778 45.9636 21.1765 46.6624 22.0385 46.6624Z" fill="#007CC3"/>
<path d="M62.9616 46.6624C63.8235 46.6624 64.5222 45.9636 64.5222 45.1017C64.5222 44.2398 63.8235 43.541 62.9616 43.541C62.0996 43.541 61.4009 44.2398 61.4009 45.1017C61.4009 45.9636 62.0996 46.6624 62.9616 46.6624Z" fill="#007CC3"/>
<path d="M53.3721 7.61728C53.1354 7.4712 52.9331 7.27555 52.7793 7.0438C52.6255 6.81206 52.5238 6.54972 52.4811 6.27487C52.4384 6.00002 52.4558 5.71919 52.532 5.4517C52.6083 5.18422 52.7416 4.93644 52.9229 4.72544C55.0751 2.25937 58.0342 0.639009 61.2713 0.153933C64.5083 -0.331143 67.8124 0.35068 70.593 2.07755C73.3736 3.80442 75.4495 6.4638 76.4498 9.58042C77.45 12.697 77.3094 16.0678 76.0531 19.0903C75.9443 19.3463 75.7813 19.5756 75.5753 19.7626C75.3694 19.9495 75.1254 20.0896 74.8601 20.1732C74.5948 20.2568 74.3145 20.2819 74.0386 20.2467C73.7627 20.2116 73.4977 20.1171 73.2618 19.9697L53.3721 7.61728Z" fill="#F173AC"/>
<path d="M31.6281 7.61731C31.8648 7.47123 32.067 7.27557 32.2208 7.04383C32.3746 6.81208 32.4764 6.54975 32.5191 6.2749C32.5618 6.00005 32.5444 5.71922 32.4681 5.45173C32.3918 5.18425 32.2585 4.93647 32.0773 4.72547C29.925 2.25935 26.9659 0.638934 23.7288 0.153827C20.4917 -0.33128 17.1876 0.350535 14.407 2.07742C11.6264 3.8043 9.55045 6.46371 8.55021 9.58037C7.54997 12.697 7.69062 16.0678 8.94701 19.0903C9.0558 19.3463 9.21879 19.5757 9.42474 19.7626C9.63069 19.9496 9.87471 20.0896 10.14 20.1732C10.4053 20.2568 10.6856 20.2819 10.9615 20.2468C11.2374 20.2116 11.5024 20.1171 11.7383 19.9697L31.6281 7.61731Z" fill="#F173AC"/>
<path d="M42.5002 46.1421C42.2242 46.1421 41.9596 46.0325 41.7645 45.8373C41.5694 45.6422 41.4597 45.3776 41.4597 45.1017V31.2846C41.4597 31.0086 41.5693 30.744 41.7645 30.5489C41.9596 30.3538 42.2242 30.2441 42.5002 30.2441C42.7761 30.2441 43.0408 30.3538 43.2359 30.5489C43.431 30.744 43.5406 31.0086 43.5406 31.2846V45.1017C43.5406 45.3776 43.431 45.6422 43.2359 45.8373C43.0407 46.0325 42.7761 46.1421 42.5002 46.1421Z" fill="#999999"/>
<path d="M42.5002 46.1421H28.683C28.4071 46.1421 28.1424 46.0324 27.9473 45.8373C27.7522 45.6422 27.6426 45.3776 27.6426 45.1016C27.6426 44.8257 27.7522 44.561 27.9473 44.3659C28.1424 44.1708 28.4071 44.0612 28.683 44.0612H42.5002C42.7761 44.0612 43.0408 44.1708 43.2359 44.3659C43.431 44.561 43.5406 44.8257 43.5406 45.1016C43.5406 45.3776 43.431 45.6422 43.2359 45.8373C43.0408 46.0324 42.7761 46.1421 42.5002 46.1421Z" fill="#999999"/>
<path d="M42.5001 47.6276C43.8951 47.6276 45.026 46.4967 45.026 45.1016C45.026 43.7066 43.8951 42.5757 42.5001 42.5757C41.105 42.5757 39.9741 43.7066 39.9741 45.1016C39.9741 46.4967 41.105 47.6276 42.5001 47.6276Z" fill="#999999"/>
</svg>
