<svg width="95" height="95" viewBox="0 0 95 95" fill="none" xmlns="http://www.w3.org/2000/svg">
<g clip-path="url(#clip0_1526_152)">
<path d="M69.3368 66.0802C71.6822 68.5101 73.8404 71.1139 75.7931 73.8693C75.7931 73.8693 78.5403 78.4675 79.1868 79.6339C79.8334 80.8002 81.0956 81.5299 82.6973 82.7862C84.299 84.0424 86.2034 86.2744 87.401 86.8017C88.0597 87.0917 90.2952 87.7379 92.1573 88.3149C94.964 89.1846 91.5121 92.6706 89.0674 94.0258C88.0738 94.6366 86.9357 94.9723 85.7696 94.9983C84.6036 95.0244 83.4516 94.7399 82.4317 94.174C79.7543 92.7658 76.9798 91.5506 74.1293 90.5377C71.1672 89.7497 68.8912 91.0591 67.1536 87.9246C65.4766 84.8994 67.554 79.3641 67.554 79.3641C66.5167 77.0858 64.9838 75.0677 63.0672 73.4572C59.9346 70.8695 53.8815 69.6067 51.4567 68.7152C45.0576 66.3626 43.0814 65.4215 39.4113 51.7762L32.9903 45.185C32.9903 45.185 17.9552 31.6377 12.8735 24.1092L37.0979 19.2935C37.0979 19.2935 48.2572 39.3543 50.9862 45.0006C53.7153 50.647 64.0449 60.0394 69.3368 66.0802Z" fill="#DAA28B"/>
<path d="M52.0651 16.75C52.0651 16.75 25.8403 28.0794 18.9969 27.9862C15.9614 27.9855 12.9802 27.1817 10.3557 25.6566C7.73126 24.1314 5.55696 21.9391 4.0535 19.3022C2.55004 16.6652 1.77092 13.6775 1.79523 10.6421C1.81953 7.60675 2.64639 4.63185 4.19189 2.0193C4.56228 1.4015 5.08686 0.890555 5.7142 0.536562C6.34155 0.182569 7.05011 -0.00231991 7.77044 2.19737e-05H62.5351C64.9262 -7.44539e-05 67.2632 0.711094 69.249 2.04305C71.2347 3.37501 72.7793 5.26755 73.6864 7.47991C74.5934 9.69226 74.8219 12.1244 74.3426 14.467C73.8634 16.8095 72.6982 18.9566 70.9952 20.635C64.9922 26.5496 59.3519 32.1336 56.6699 34.8619C56.6699 34.8619 52.727 39.1191 49.9038 41.8482C49.9038 41.8482 45.9276 45.437 44.9092 46.2981C43.8909 47.1591 43.4205 48.5391 42.4997 50.3545C41.5789 52.1699 39.7598 54.472 39.4754 55.7493C39.3191 56.4518 39.1199 58.7702 38.916 60.709C38.6086 63.6312 34.518 60.9231 32.7133 58.7886C31.9209 57.9327 31.3704 56.8816 31.1181 55.7429C30.8658 54.6041 30.9208 53.4188 31.2776 52.3084C32.1383 49.4083 32.7908 46.4504 33.2301 43.4574C33.427 40.3985 31.7001 38.4206 34.4369 36.1066C37.0782 33.8734 42.9118 34.8349 42.9118 34.8349C44.945 33.3743 46.6264 31.4782 47.8335 29.2851C49.7626 25.7091 50.8821 19.0468 52.0651 16.75Z" fill="#F8C5B0"/>
<path d="M26.5385 2.18601e-05H7.77045C7.05013 -0.00231393 6.34158 0.182576 5.71424 0.536564C5.0869 0.890553 4.56232 1.40149 4.19193 2.01928C2.64642 4.63182 1.81955 7.60672 1.79523 10.6421C1.77091 13.6774 2.55002 16.6652 4.05348 19.3022C5.55694 21.9391 7.73123 24.1314 10.3557 25.6566C12.9802 27.1817 15.9614 27.9855 18.9969 27.9862C21.6872 27.8173 24.3501 27.3478 26.936 26.5864C25.1182 25.0996 23.6521 23.2288 22.643 21.1083C21.6339 18.9878 21.1068 16.6702 21.0995 14.3219C21.0995 4.94431 26.5385 2.18601e-05 26.5385 2.18601e-05Z" fill="#F173AC"/>
</g>
<defs>
<clipPath id="clip0_1526_152">
<rect width="95" height="95" fill="white"/>
</clipPath>
</defs>
</svg>
