<svg width="80" height="80" viewBox="0 0 80 80" fill="none" xmlns="http://www.w3.org/2000/svg">
<g clip-path="url(#clip0_1534_172)">
<path d="M40 5.9C46.7443 5.9 53.3372 7.89993 58.9449 11.6469C64.5526 15.3938 68.9233 20.7195 71.5043 26.9505C74.0852 33.1815 74.7605 40.0378 73.4447 46.6526C72.129 53.2673 68.8813 59.3434 64.1123 64.1123C59.3433 68.8813 53.2673 72.129 46.6526 73.4448C40.0378 74.7605 33.1814 74.0852 26.9505 71.5043C20.7195 68.9233 15.3938 64.5527 11.6469 58.9449C7.8999 53.3372 5.89997 46.7443 5.89997 40C5.89997 30.9561 9.49264 22.2826 15.8876 15.8877C22.2826 9.49267 30.9561 5.9 40 5.9ZM40 0C29.3952 0.00291712 19.2258 4.21807 11.7286 11.7183C4.23147 19.2186 0.0205145 29.3897 0.021973 39.9945C0.0234316 50.5993 4.23719 60.7692 11.7364 68.2674C19.2357 75.7656 29.4062 79.978 40.011 79.978C50.6158 79.978 60.7863 75.7656 68.2855 68.2674C75.7848 60.7692 79.9985 50.5993 80 39.9945C80.0014 29.3897 75.7905 19.2186 68.2933 11.7183C60.7961 4.21807 50.6268 0.00291712 40.022 0L40 0Z" fill="#F45B6A"/>
<path d="M65.5662 10.1918L10.2788 65.4949L14.4513 69.6662L69.7387 14.3631L65.5662 10.1918Z" fill="#F45B6A"/>
<path d="M40.9806 45.9328C40.1186 46.7948 39.0422 47.4112 37.8624 47.7183C36.6827 48.0254 35.4424 48.0122 34.2695 47.68L22.7767 44.4247C21.4694 44.0544 20.3017 43.3037 19.4222 42.2681C18.5426 41.2324 17.9908 39.9586 17.8371 38.6086L16.9085 30.4555C16.7919 29.4315 16.9078 28.3944 17.2476 27.4215C17.5874 26.4486 18.1423 25.5648 18.871 24.8361L24.8364 18.8708C25.5651 18.142 26.4488 17.5871 27.4218 17.2473C28.3947 16.9075 29.4318 16.7916 30.4557 16.9083L38.6089 17.8369C39.9589 17.9906 41.2327 18.5424 42.2683 19.4219C43.3039 20.3015 44.0546 21.4692 44.4249 22.7765L47.6802 34.2693C48.0124 35.4422 48.0257 36.6825 47.7185 37.8622C47.4114 39.042 46.795 40.1184 45.933 40.9804L40.9806 45.9328Z" fill="#999999"/>
<path d="M46.3458 32.6013C42.6328 29.9685 36.3819 25.1478 30.7648 30.7648C25.1478 36.3819 29.9684 42.6328 32.6013 46.3458C35.2342 50.0588 41.2426 59.0377 43.4704 61.2655C45.6983 63.4934 53.4251 67.9797 60.7024 60.7024C67.9798 53.425 63.4933 45.6982 61.2655 43.4704C59.0377 41.2426 50.0589 35.2342 46.3458 32.6013ZM56.081 56.081C55.2064 56.9555 54.0921 57.5511 52.8791 57.7924C51.666 58.0337 50.4086 57.9099 49.266 57.4366C48.1233 56.9633 47.1466 56.1617 46.4595 55.1334C45.7723 54.105 45.4056 52.8959 45.4056 51.6591C45.4056 50.4223 45.7723 49.2132 46.4595 48.1848C47.1466 47.1565 48.1233 46.3549 49.266 45.8816C50.4086 45.4083 51.666 45.2845 52.8791 45.5258C54.0921 45.7671 55.2064 46.3627 56.081 47.2372C57.2537 48.41 57.9125 50.0006 57.9125 51.6591C57.9125 53.3176 57.2537 54.9082 56.081 56.081Z" fill="#BFBFBF"/>
<path d="M34.7542 40.1835C37.7527 40.1835 40.1835 37.7527 40.1835 34.7542C40.1835 31.7557 37.7527 29.325 34.7542 29.325C31.7557 29.325 29.325 31.7557 29.325 34.7542C29.325 37.7527 31.7557 40.1835 34.7542 40.1835Z" fill="#999999"/>
<path d="M19.6277 26.8701C18.6672 25.9097 18.1277 24.6071 18.1277 23.2489C18.1277 21.8907 18.6672 20.5881 19.6277 19.6277C20.5881 18.6672 21.8907 18.1277 23.2489 18.1277C24.6071 18.1277 25.9097 18.6672 26.8701 19.6277L37.1249 29.8824C38.0853 30.8428 38.6249 32.1454 38.6249 33.5036C38.6249 34.8619 38.0853 36.1645 37.1249 37.1249C36.1645 38.0853 34.8619 38.6249 33.5036 38.6249C32.1454 38.6249 30.8428 38.0853 29.8824 37.1249L19.6277 26.8701Z" fill="#CCCCCC"/>
</g>
<defs>
<clipPath id="clip0_1534_172">
<rect width="80" height="80" fill="white"/>
</clipPath>
</defs>
</svg>
