<svg width="95" height="95" viewBox="0 0 95 95" fill="none" xmlns="http://www.w3.org/2000/svg">
<path d="M38.2246 18.6889L35.8358 23.9287L51.5552 31.0952L53.9441 25.8554L38.2246 18.6889Z" fill="#666666"/>
<path d="M53.9074 38.1099C58.9369 38.1099 63.0141 34.0327 63.0141 29.0032C63.0141 23.9737 58.9369 19.8965 53.9074 19.8965C48.8779 19.8965 44.8007 23.9737 44.8007 29.0032C44.8007 34.0327 48.8779 38.1099 53.9074 38.1099Z" fill="#BFBFBF"/>
<path d="M63.0141 29.0032V39.8187C63.0141 41.2158 62.7616 42.6013 62.2689 43.9086L60.0227 49.868C59.8311 50.3761 59.733 50.9147 59.733 51.4578V62.2877C59.733 62.5186 59.6413 62.74 59.478 62.9032C59.3148 63.0665 59.0934 63.1582 58.8625 63.1582H48.9523C48.7214 63.1582 48.5 63.0665 48.3367 62.9032C48.1735 62.74 48.0818 62.5186 48.0818 62.2877V53.9396C48.0818 53.307 47.9486 52.6815 47.691 52.1038L40.8696 41.2148C40.6457 40.8476 40.4985 40.4389 40.4368 40.0133C40.3751 39.5877 40.4002 39.154 40.5106 38.7384C40.6211 38.3228 40.8145 37.9338 41.0794 37.595C41.3442 37.2562 41.6749 36.9745 42.0515 36.7669C44.4602 35.3679 44.8007 33.4199 44.8007 29.0032" fill="#BFBFBF"/>
<path d="M56.7866 63.1582H51.028V78.4901H56.7866V63.1582Z" fill="#666666"/>
<path d="M60.6737 80.0662L79.1697 88.0112C79.9402 88.3422 80.5729 88.9289 80.9609 89.6723C81.349 90.4157 81.4687 91.2702 81.2997 92.0916C81.1308 92.913 80.6836 93.6509 80.0336 94.1808C79.3836 94.7107 78.5708 95.0001 77.7322 95.0001H49.3394C48.0954 95.0001 46.9025 94.5059 46.0229 93.6263C45.1433 92.7467 44.6491 91.5537 44.6491 90.3098C44.6376 88.0116 45.2028 85.7472 46.2931 83.7241C47.044 82.3454 48.0288 81.1077 49.2034 80.0662H60.6737Z" fill="#F173AC"/>
<path d="M16.9202 27.8077L33.9162 28.2773C34.6089 28.2965 35.2918 28.1111 35.8797 27.7444C36.4676 27.3777 36.9344 26.8459 37.2218 26.2154L41.6705 16.4574C42.0335 15.6611 42.0874 14.7583 41.8217 13.9245C41.5561 13.0907 40.9898 12.3854 40.233 11.9459L21.1422 0.858431C20.3776 0.414337 19.5284 0.135273 18.6494 0.0392022C17.7703 -0.0568684 16.8809 0.0321831 16.0384 0.300624C15.1958 0.569066 14.4189 1.01095 13.7574 1.59783C13.096 2.18471 12.5648 2.90359 12.1979 3.70818C10.9841 6.37065 10.1107 11.4215 12.2456 15.164C13.7865 17.8652 14.3156 19.8258 13.3878 23.127C13.244 23.6729 13.226 24.2444 13.3351 24.7983C13.4442 25.3523 13.6776 25.8742 14.0177 26.3249C14.3578 26.7755 14.7957 27.1431 15.2984 27.4C15.8012 27.6568 16.3557 27.7962 16.9202 27.8077Z" fill="#F173AC"/>
<path d="M53.6949 85.2248C57.467 85.2248 60.5249 82.1669 60.5249 78.3947C60.5249 74.6226 57.467 71.5647 53.6949 71.5647C49.9228 71.5647 46.8649 74.6226 46.8649 78.3947C46.8649 82.1669 49.9228 85.2248 53.6949 85.2248Z" fill="#BFBFBF"/>
<path d="M53.9073 81.3693C55.4975 81.3693 56.7866 80.0801 56.7866 78.4899C56.7866 76.8997 55.4975 75.6106 53.9073 75.6106C52.3171 75.6106 51.028 76.8997 51.028 78.4899C51.028 80.0801 52.3171 81.3693 53.9073 81.3693Z" fill="#666666"/>
<path d="M53.9073 31.8824C55.4975 31.8824 56.7866 30.5933 56.7866 29.0031C56.7866 27.4129 55.4975 26.1238 53.9073 26.1238C52.3171 26.1238 51.028 27.4129 51.028 29.0031C51.028 30.5933 52.3171 31.8824 53.9073 31.8824Z" fill="#666666"/>
</svg>
