<svg width="52" height="80" viewBox="0 0 52 80" fill="none" xmlns="http://www.w3.org/2000/svg">
<g clip-path="url(#clip0_1223_490)">
<path d="M42.2138 34.8287C42.2138 34.8287 36.0056 28.285 31.8024 23.993C27.5991 19.701 6.01116 1.05342 6.01116 1.05342C5.71355 0.776566 5.36833 0.55581 4.99216 0.401815L4.99259 0.402005C4.52047 0.133865 3.98605 -0.00517956 3.44311 -0.00113492C2.90017 0.00290973 2.36788 0.149901 1.89981 0.425044C1.43174 0.700188 1.0444 1.09377 0.776782 1.56619C0.509165 2.03861 0.370712 2.57318 0.375357 3.11611V3.5024L0.375297 3.50319L0.375357 17.8804V73.8351C0.40232 74.4435 0.590014 75.0339 0.919331 75.5461C1.24865 76.0584 1.70783 76.4743 2.25012 76.7514C4.958 78.0012 10.7905 79.9801 19.7476 79.9801C36.5509 79.8532 44.0038 66.7225 47.2698 56.4644L42.2138 34.8287ZM1.45983 1.03933C1.39883 1.09468 1.33624 1.14827 1.27923 1.20821C1.3363 1.14839 1.39868 1.09456 1.45983 1.03933ZM3.03204 0.231465L2.98364 0.241665L3.03204 0.231465ZM2.65972 0.334465C2.63024 0.344465 2.60095 0.355035 2.57177 0.365835C2.60101 0.355065 2.63018 0.344385 2.65972 0.334435V0.334465ZM2.28326 0.485865C2.24726 0.503015 2.21252 0.522425 2.17712 0.540795C2.21252 0.522485 2.24719 0.502955 2.28326 0.485865ZM1.91826 0.685505C1.87999 0.709865 1.84426 0.738065 1.80693 0.763875C1.84429 0.738125 1.87988 0.709745 1.91827 0.685505H1.91826ZM0.412407 3.00594C0.388375 3.17029 0.375994 3.33613 0.375357 3.50222C0.375994 3.33613 0.388375 3.17029 0.412407 3.00594ZM1.15563 1.35341C1.1007 1.41829 1.04571 1.48317 0.995717 1.55257C1.04589 1.48311 1.10058 1.41829 1.15563 1.35341ZM0.892567 1.7098C0.845267 1.78414 0.799857 1.85994 0.758357 1.9388C0.799917 1.85994 0.845147 1.7842 0.892567 1.7098ZM0.676747 2.10616C0.638177 2.19094 0.603937 2.27846 0.572377 2.36776C0.603997 2.2784 0.638117 2.191 0.676747 2.10616ZM0.514747 2.53951C0.485457 2.63985 0.463237 2.74404 0.443157 2.84932C0.463247 2.74391 0.485357 2.63985 0.514697 2.53951H0.514747Z" fill="#F8C5B0"/>
<path d="M43.5076 36.2361C44.2638 37.0759 44.9741 37.8944 45.6384 38.6915C44.9766 37.8955 44.2636 37.0758 43.5076 36.2361Z" fill="#F8C5B0"/>
<path d="M49.0342 49.4636L49.0335 49.4628C48.5864 51.8299 47.9974 54.1679 47.2698 56.4644C47.9989 54.1682 48.5886 51.83 49.0355 49.4626L49.0342 49.4636Z" fill="#F8C5B0"/>
<path d="M45.7522 38.8301C46.0315 39.1677 46.3012 39.5008 46.5613 39.8295C46.3007 39.5006 46.031 39.1675 45.7522 38.8301Z" fill="#F8C5B0"/>
<path d="M47.0354 40.4347L47.0363 40.4349C46.942 40.3125 46.8441 40.1882 46.7471 40.0645C46.8467 40.1916 46.9376 40.3146 47.0343 40.4403L47.0354 40.4347Z" fill="#F8C5B0"/>
<path d="M47.0341 40.4404C46.9374 40.3147 46.8465 40.1917 46.7469 40.0645C46.6858 39.9866 46.6233 39.908 46.5611 39.8295C46.3004 39.5005 46.0307 39.1674 45.7521 38.8301C45.7137 38.7837 45.6769 38.7381 45.6382 38.6917C44.9761 37.8955 44.2658 37.077 43.5074 36.2362C43.4592 36.1827 43.4106 36.129 43.362 36.0753C42.9891 35.6629 42.6065 35.2461 42.2144 34.8248C41.9266 36.334 39.783 49.0089 47.2697 56.4645V56.4644C47.9973 54.168 48.5863 51.8299 49.0334 49.4628C45.8232 46.1479 47.021 40.5016 47.0341 40.4404Z" fill="#D36F62"/>
<path d="M47.0343 40.4403C47.0212 40.5015 45.8234 46.1478 49.0336 49.4627L49.0343 49.4635L49.0357 49.4626C49.0507 49.4526 52.0323 47.4763 51.0973 44.1518C50.1602 40.8198 48.0779 40.7472 47.0363 40.4349L47.0354 40.4347L47.0343 40.4403Z" fill="#C15044"/>
<path d="M35.069 52.2151C34.2715 52.6399 33.6341 53.3129 33.2533 54.1323C32.8725 54.9516 32.7691 55.8728 32.9586 56.7562C32.0698 56.4027 31.0911 56.3436 30.1662 56.5875C29.2414 56.8314 28.4191 57.3655 27.8202 58.1113C27.3512 57.5477 26.7509 57.1081 26.0721 56.8312C25.3933 56.5542 24.6568 56.4484 23.9275 56.523C23.1981 56.5976 22.4983 56.8504 21.8897 57.2592C21.281 57.6679 20.7822 58.22 20.4371 58.8668C19.7766 58.8468 19.1199 58.9735 18.5142 59.2378C17.9085 59.502 17.3689 59.8973 16.9344 60.3952C16.4998 60.8931 16.1811 61.4811 16.0011 62.1169C15.8211 62.7528 15.7843 63.4206 15.8934 64.0724C15.747 64.1315 15.6037 64.1982 15.4642 64.2723C14.5161 64.7765 13.7812 65.6052 13.3938 66.6068C13.0064 67.6083 12.9925 68.7159 13.3545 69.7269C13.7166 70.7379 14.4304 71.5848 15.3655 72.1128C16.3006 72.6407 17.3945 72.8145 18.4472 72.6023C18.5083 72.7565 18.5779 72.9072 18.6555 73.0538C19.2123 74.1006 20.1622 74.8835 21.2961 75.23C22.4301 75.5766 23.6553 75.4585 24.7021 74.9017C24.8185 74.8398 24.9301 74.7726 25.0387 74.7022C25.6374 75.1962 26.3399 75.5484 27.0939 75.7327C27.8478 75.917 28.6336 75.9285 29.3926 75.7664C30.1516 75.6043 30.8642 75.2728 31.4771 74.7967C32.09 74.3205 32.5873 73.712 32.932 73.0166C33.6753 73.1522 34.4408 73.0972 35.1571 72.8567C35.8733 72.6161 36.5168 72.1979 37.0276 71.6411C37.5383 71.0843 37.8995 70.4071 38.0775 69.6729C38.2555 68.9386 38.2444 68.1711 38.0452 67.4423C39.0025 67.4438 39.9351 67.1381 40.7056 66.57C41.4761 66.0019 42.0439 65.2014 42.3255 64.2865C42.6071 63.3715 42.5876 62.3903 42.2699 61.4873C41.9521 60.5842 41.3529 59.807 40.5604 59.27C41.1742 58.8021 41.6454 58.1724 41.9214 57.4516C42.1973 56.7308 42.2671 55.9473 42.1227 55.1891C41.9784 54.4309 41.6257 53.7279 41.1042 53.1589C40.5827 52.5899 39.913 52.1774 39.1702 51.9677C39.2182 51.6575 39.1962 51.3404 39.1056 51.0398C39.0151 50.7392 38.8583 50.4627 38.6469 50.2306C38.4355 49.9985 38.1748 49.8167 37.884 49.6985C37.5931 49.5804 37.2795 49.5289 36.9661 49.5478C36.6528 49.5667 36.3476 49.6555 36.0731 49.8078C35.7985 49.9601 35.5616 50.1719 35.3796 50.4277C35.1977 50.6835 35.0753 50.9769 35.0216 51.2862C34.9678 51.5955 34.984 51.9129 35.069 52.2151L35.069 52.2151Z" fill="#F7A6A9"/>
<path d="M9.55346 36.389C10.2671 36.6694 10.8699 37.1747 11.2707 37.8283C11.6715 38.482 11.8484 39.2484 11.7747 40.0116C12.4895 39.6271 13.3088 39.4819 14.1122 39.5975C14.9156 39.713 15.6607 40.0832 16.2382 40.6536C16.5787 40.1328 17.0419 39.7038 17.5872 39.4042C18.1324 39.1046 18.743 38.9437 19.3651 38.9356C19.9872 38.9275 20.6017 39.0725 21.1546 39.3578C21.7075 39.643 22.1817 40.0599 22.5356 40.5716C23.0905 40.4904 23.6565 40.5332 24.1928 40.697C24.7291 40.8608 25.2225 41.1415 25.6373 41.5189C26.0521 41.8963 26.378 42.3609 26.5917 42.8794C26.8053 43.3979 26.9013 43.9573 26.8728 44.5174C27.002 44.5529 27.1293 44.5952 27.2541 44.6441C28.1024 44.9769 28.8025 45.6039 29.2266 46.4105C29.6506 47.217 29.7702 48.1493 29.5634 49.0368C29.3567 49.9242 28.8374 50.7076 28.1006 51.2438C27.3638 51.7799 26.4586 52.033 25.5506 51.9566C25.4125 52.4723 25.167 52.9531 24.8303 53.3673C24.4935 53.7816 24.073 54.1201 23.5964 54.3606C23.1197 54.6011 22.5976 54.7382 22.0643 54.7629C21.531 54.7876 20.9985 54.6994 20.5017 54.5041C20.3975 54.4632 20.2969 54.4175 20.1985 54.3687C19.7419 54.8434 19.184 55.2087 18.5664 55.4375C17.9488 55.6663 17.2875 55.7525 16.6318 55.6898C15.9762 55.627 15.3433 55.417 14.7802 55.0752C14.2172 54.7335 13.7387 54.269 13.3804 53.7163C12.767 53.9031 12.1163 53.9312 11.4891 53.7982C10.8619 53.6651 10.2787 53.3753 9.79394 52.9556C9.30918 52.536 8.93874 52.0003 8.71722 51.3986C8.4957 50.7969 8.43035 50.1489 8.52727 49.5151C7.72041 49.6097 6.9045 49.4427 6.19962 49.0389C5.49474 48.635 4.93811 48.0155 4.61163 47.2716C4.28515 46.5277 4.20607 45.6987 4.38602 44.9065C4.56597 44.1143 4.99546 43.4008 5.61127 42.8709C5.0483 42.5362 4.5897 42.0513 4.28689 41.4705C3.98408 40.8897 3.84903 40.2361 3.89687 39.5829C3.94472 38.9297 4.17358 38.3027 4.55779 37.7723C4.942 37.2418 5.46636 36.8289 6.0721 36.5798C6.00142 36.3229 5.98916 36.0535 6.03622 35.7913C6.08329 35.5291 6.18849 35.2807 6.34409 35.0645C6.49969 34.8482 6.70175 34.6696 6.93543 34.5417C7.16911 34.4137 7.42848 34.3398 7.69448 34.3252C7.96049 34.3106 8.22639 34.3558 8.47264 34.4574C8.7189 34.5591 8.93927 34.7146 9.11757 34.9125C9.29587 35.1104 9.42757 35.3458 9.50301 35.6013C9.57844 35.8568 9.5957 36.126 9.5535 36.389H9.55346Z" fill="#F7A6A9"/>
<path d="M28.104 38.9501C27.385 38.684 26.7722 38.1908 26.3585 37.5453C25.9448 36.8997 25.7527 36.137 25.8113 35.3725C25.1042 35.7711 24.288 35.9325 23.4825 35.833C22.6769 35.7334 21.9245 35.3782 21.3358 34.8194C21.0058 35.3468 20.5512 35.7849 20.012 36.0953C19.4728 36.4057 18.8655 36.5787 18.2437 36.5992C17.6219 36.6196 17.0046 36.4869 16.4462 36.2127C15.8877 35.9384 15.4053 35.5311 15.0413 35.0266C14.4881 35.1188 13.9214 35.0872 13.3819 34.9341C12.8425 34.781 12.3437 34.5102 11.9214 34.1411C11.4992 33.7721 11.1641 33.314 10.9401 32.7998C10.7162 32.2857 10.6091 31.7283 10.6265 31.1678C10.4966 31.1348 10.3685 31.0951 10.2428 31.0487C9.38802 30.7328 8.67551 30.1198 8.23551 29.3219C7.79551 28.5239 7.65742 27.5942 7.84648 26.7028C8.03554 25.8113 8.53912 25.0178 9.26515 24.4671C9.99119 23.9164 10.8912 23.6454 11.8006 23.7037C11.9284 23.1853 12.1642 22.6998 12.4927 22.2789C12.8211 21.858 13.2348 21.5113 13.7066 21.2614C14.1783 21.0114 14.6976 20.864 15.2303 20.8287C15.763 20.7933 16.2972 20.8709 16.7978 21.0564C16.9027 21.0951 17.0043 21.1389 17.1036 21.1857C17.5507 20.702 18.1012 20.3256 18.7141 20.0846C19.3271 19.8436 19.9866 19.7443 20.6433 19.7939C21.3 19.8436 21.937 20.0411 22.5068 20.3715C23.0765 20.702 23.5641 21.1569 23.9333 21.7023C24.5429 21.5034 25.1929 21.4624 25.8226 21.5829C26.4523 21.7034 27.0412 21.9816 27.5342 22.3916C28.0272 22.8015 28.4083 23.3297 28.6417 23.9268C28.8751 24.524 28.9534 25.1706 28.8691 25.8062C29.6739 25.6956 30.493 25.8463 31.2057 26.2361C31.9185 26.6259 32.4873 27.2341 32.8285 27.9714C33.1698 28.7086 33.2653 29.5359 33.1011 30.3316C32.937 31.1272 32.5218 31.8491 31.9166 32.3911C32.4861 32.7146 32.9543 33.1903 33.2686 33.7649C33.5829 34.3395 33.7309 34.9904 33.6961 35.6444C33.6612 36.2984 33.4449 36.9298 33.0713 37.4678C32.6977 38.0058 32.1816 38.4291 31.581 38.6902C31.6567 38.9456 31.6744 39.2147 31.6325 39.4778C31.5907 39.7409 31.4904 39.9913 31.3392 40.2106C31.1879 40.4299 30.9894 40.6125 30.7583 40.745C30.5273 40.8776 30.2694 40.9567 30.0038 40.9766C29.7381 40.9964 29.4714 40.9566 29.2231 40.8598C28.9749 40.7631 28.7515 40.6121 28.5693 40.4177C28.3871 40.2233 28.2507 39.9907 28.1702 39.7367C28.0897 39.4828 28.0671 39.214 28.104 38.9502V38.9501Z" fill="#F7A6A9"/>
</g>
<defs>
<clipPath id="clip0_1223_490">
<rect width="50.9034" height="79.98" fill="white" transform="translate(0.375244)"/>
</clipPath>
</defs>
</svg>
