<svg width="62" height="95" viewBox="0 0 62 95" fill="none" xmlns="http://www.w3.org/2000/svg">
<g clip-path="url(#clip0_1214_426)">
<path d="M51.8224 43.0541C52.7204 44.0513 53.5639 45.0233 54.3528 45.9699C53.5668 45.0247 52.7202 44.0513 51.8224 43.0541Z" fill="#F8C5B0"/>
<path d="M58.3854 58.7617L58.3846 58.7608C57.8536 61.5717 57.1542 64.3481 56.2902 67.0751C57.156 64.3484 57.8562 61.5718 58.387 58.7606L58.3854 58.7617Z" fill="#F8C5B0"/>
<path d="M50.287 41.3781C50.7542 41.879 51.2084 42.374 51.6499 42.863C49.5512 40.5423 47.1729 38.0924 44.5921 35.5521C43.7343 36.4707 42.7874 37.3016 41.7651 38.0327L41.7476 38.0457C41.2573 38.395 40.7503 38.7205 40.2268 39.0223C40.1947 39.0409 40.1642 39.0615 40.132 39.0799C39.6402 39.3597 39.1337 39.6144 38.6156 39.85C38.5472 39.8813 38.4817 39.9173 38.4128 39.9477C37.9301 40.1603 37.4343 40.3461 36.9314 40.5184C36.8226 40.5558 36.7178 40.6011 36.6081 40.6366C36.1375 40.7882 35.655 40.9108 35.169 41.0256C35.0224 41.0604 34.8805 41.1065 34.7327 41.1378C34.2565 41.2382 33.7696 41.3069 33.2809 41.3706C33.1197 41.3918 32.9632 41.4268 32.8008 41.4439C32.1439 41.513 31.4839 41.548 30.8234 41.5487C28.3457 41.5487 25.8922 41.0607 23.6031 40.1125C21.3141 39.1643 19.2341 37.7746 17.4821 36.0226C15.7301 34.2706 14.3404 32.1907 13.3922 29.9016C12.444 27.6125 11.956 25.1591 11.956 22.6814C11.956 22.0553 11.9896 21.4375 12.0497 20.8275C12.0748 20.5695 12.123 20.3191 12.1585 20.0642C12.2064 19.7227 12.2481 19.3793 12.3142 19.0439C12.3799 18.7081 12.4687 18.3818 12.5518 18.0527C12.6124 17.8148 12.6654 17.5743 12.735 17.3402C12.8483 16.9561 12.983 16.5825 13.1197 16.2091C13.1798 16.046 13.2343 15.8808 13.2987 15.72C13.4645 15.303 13.6501 14.8975 13.8442 14.4957C13.8939 14.3933 13.9407 14.2896 13.9923 14.1883C14.2135 13.7508 14.4531 13.3259 14.7067 12.9088C14.7399 12.8544 14.7721 12.7995 14.8058 12.7455C15.0826 12.3002 15.377 11.8683 15.6889 11.4497L15.7331 11.3906C16.0623 10.9513 16.4094 10.5275 16.7742 10.1192C12.438 6.22346 9.13817 3.25617 6.78702 1.00308C6.26093 0.513491 5.60295 0.188735 4.89436 0.0689303C4.18576 -0.0508746 3.45759 0.0395199 2.79979 0.328948C2.142 0.618375 1.5834 1.09416 1.19299 1.69752C0.802589 2.30088 0.597483 3.00539 0.603014 3.72402V87.7028C0.635033 88.4252 0.857921 89.1263 1.24898 89.7347C1.64005 90.343 2.18532 90.8368 2.82929 91.1659C6.04492 92.65 12.971 95 23.6076 95C43.5615 94.8494 52.4118 79.2567 56.2902 67.0752C47.3998 58.2217 49.9452 43.1703 50.287 41.3781Z" fill="#F8C5B0"/>
<path d="M54.488 46.1344C54.8197 46.5353 55.14 46.9309 55.4488 47.3212C55.1394 46.9306 54.8191 46.535 54.488 46.1344Z" fill="#F8C5B0"/>
<path d="M56.0117 48.04L56.0127 48.0403C55.9008 47.8949 55.7845 47.7473 55.6693 47.6003C55.7876 47.7513 55.8956 47.8974 56.0104 48.0467L56.0117 48.04Z" fill="#F8C5B0"/>
<path d="M56.0105 48.0467C55.8957 47.8973 55.7877 47.7513 55.6694 47.6003C55.5968 47.5078 55.5227 47.4144 55.4488 47.3213C55.1392 46.9306 54.8189 46.535 54.4881 46.1345C54.4425 46.0794 54.3988 46.0252 54.3529 45.97C53.5666 45.0246 52.7232 44.0527 51.8225 43.0542C51.7653 42.9906 51.7075 42.9268 51.6499 42.8631C51.207 42.3734 50.7527 41.8784 50.2871 41.3782C49.9453 43.1704 47.3998 58.2218 56.2903 67.0753V67.0752C57.1543 64.3482 57.8537 61.5717 58.3847 58.7608C54.5726 54.8243 55.995 48.1194 56.0105 48.0467Z" fill="#D36F62"/>
<path d="M56.0104 48.0466C55.9949 48.1193 54.5725 54.8243 58.3846 58.7607L58.3854 58.7616L58.387 58.7605C58.4048 58.7487 61.9455 56.4018 60.8352 52.454C59.7224 48.4972 57.2497 48.411 56.0128 48.0402L56.0118 48.0399L56.0104 48.0466Z" fill="#C15044"/>
<path d="M13.9923 14.1883C14.2143 13.7517 14.4525 13.3253 14.7067 12.9088C14.4532 13.3259 14.2135 13.7508 13.9923 14.1883Z" fill="#FF8178"/>
<path d="M12.0497 20.8276C12.0751 20.5697 12.1227 20.319 12.1585 20.0643C12.123 20.3192 12.0748 20.5696 12.0497 20.8276Z" fill="#FF8178"/>
<path d="M12.735 17.3401C12.849 16.9566 12.9823 16.5818 13.1196 16.209C12.983 16.5824 12.8483 16.956 12.735 17.3401Z" fill="#FF8178"/>
<path d="M12.3142 19.044C12.3803 18.7085 12.468 18.3815 12.5518 18.0527C12.4687 18.3819 12.3799 18.7082 12.3142 19.044Z" fill="#FF8178"/>
<path d="M41.7476 38.0458C41.2582 38.3956 40.7494 38.7196 40.2268 39.0224C40.7504 38.7203 41.2573 38.3948 41.7476 38.0458Z" fill="#FF8178"/>
<path d="M13.2987 15.72C13.4653 15.3038 13.6494 14.8967 13.8442 14.4957C13.6501 14.8975 13.4645 15.303 13.2987 15.72Z" fill="#FF8178"/>
<path d="M14.8059 12.7455C15.0832 12.3013 15.3776 11.8693 15.689 11.4497C15.3772 11.8692 15.0828 12.3011 14.8059 12.7455Z" fill="#FF8178"/>
<path d="M36.6081 40.6367C36.1379 40.789 35.6545 40.9103 35.1689 41.0257C35.6549 40.9109 36.1374 40.7882 36.6081 40.6367Z" fill="#FF8178"/>
<path d="M38.4128 39.9478C37.9308 40.1611 37.4337 40.3454 36.9314 40.5184C37.4343 40.3462 37.9301 40.1603 38.4128 39.9478Z" fill="#FF8178"/>
<path d="M40.132 39.08C39.6411 39.3605 39.1328 39.6137 38.6156 39.8501C39.1337 39.6145 39.6402 39.3598 40.132 39.08Z" fill="#FF8178"/>
<path d="M34.7326 41.1379C34.2568 41.2389 33.7693 41.3066 33.2809 41.3707C33.7695 41.307 34.2565 41.2383 34.7326 41.1379Z" fill="#FF8178"/>
<path d="M32.8008 41.444C32.1439 41.5133 31.4839 41.5483 30.8234 41.5488C31.4839 41.5481 32.1439 41.5131 32.8008 41.444V41.444Z" fill="#FF8178"/>
<path d="M16.7742 10.1191C17.9126 11.1418 19.106 12.2138 20.3919 13.3711C21.2944 14.1718 22.1981 14.9741 23.103 15.7783L23.103 15.7781C24.0125 14.7575 25.1151 13.927 26.3471 13.3346C27.5792 12.7422 28.9163 12.3995 30.2814 12.3264C31.6465 12.2533 33.0126 12.4512 34.3009 12.9087C35.5891 13.3662 36.7741 14.0742 37.7873 14.9919C38.8006 15.9096 39.6222 17.0188 40.2046 18.2556C40.7871 19.4923 41.119 20.8322 41.181 22.1978C41.2431 23.5635 41.0342 24.9279 40.5664 26.2125C40.0985 27.497 39.381 28.6762 38.4552 29.682C40.5889 31.6769 42.6507 33.6413 44.5921 35.5521C43.7336 36.4699 42.7867 37.3008 41.7651 38.0327C43.9285 36.4952 45.7428 34.5183 47.0895 32.2313C48.4361 29.9443 49.2847 27.3987 49.5796 24.7611C49.8746 22.1236 49.6093 19.4534 48.8011 16.9254C47.9929 14.3975 46.6601 12.0686 44.8898 10.0913C43.1195 8.11394 40.9516 6.53268 38.528 5.45097C36.1045 4.36925 33.4798 3.81146 30.8258 3.8141C28.1718 3.81673 25.5482 4.37972 23.1268 5.46624C20.7053 6.55276 18.5406 8.13831 16.7742 10.1191C16.4088 10.5276 16.0618 10.9514 15.7332 11.3905C16.0625 10.952 16.4095 10.5282 16.7742 10.1191Z" fill="#FF8178"/>
<path d="M26.8733 19.1366C27.1456 19.3798 27.4143 19.622 27.686 19.8651C28.5851 20.6697 29.4799 21.473 30.3702 22.275C30.8383 22.6968 31.3008 23.1163 31.7654 23.5369C32.4718 24.1765 33.1733 24.8141 33.8698 25.4499C34.3692 25.9056 34.8657 26.36 35.3593 26.8134C36.0427 27.4414 36.7151 28.0648 37.3854 28.6874C37.7402 29.0169 38.107 29.3514 38.4577 29.6792L38.455 29.6819L38.4551 29.682C39.3805 28.6761 40.0976 27.4969 40.5651 26.2126C41.0326 24.9282 41.2412 23.564 41.1789 22.1986C41.1166 20.8332 40.7847 19.4936 40.2023 18.2571C39.6198 17.0206 38.7984 15.9116 37.7853 14.9941C36.7722 14.0766 35.5875 13.3687 34.2995 12.9112C33.0116 12.4537 31.6458 12.2557 30.2809 12.3286C28.916 12.4015 27.5791 12.7438 26.3471 13.3358C25.1152 13.9279 24.0126 14.7579 23.103 15.7781L23.1738 15.8412C24.4095 16.9393 25.6426 18.0378 26.8733 19.1366Z" fill="#F45B6A"/>
<path d="M44.5921 35.5521C42.6507 33.6413 40.5889 31.6769 38.4552 29.682L38.455 29.6819C36.608 31.705 34.0346 32.9139 31.2982 33.0439C28.5619 33.1739 25.8854 32.2144 23.8549 30.3755C21.8244 28.5365 20.6052 25.968 20.4643 23.2322C20.3234 20.4963 21.2722 17.8161 23.103 15.7783C22.199 14.9749 21.2953 14.1725 20.3919 13.3711C19.1061 12.2138 17.9126 11.1418 16.7743 10.1191C16.4091 10.5272 16.0621 10.951 15.7332 11.3905L15.689 11.4497C15.3769 11.8684 15.0826 12.3004 14.8059 12.7454C14.7722 12.7994 14.7399 12.8544 14.7067 12.9087C14.4526 13.325 14.2145 13.7515 13.9923 14.1882C13.9408 14.2895 13.8939 14.3932 13.8442 14.4957C13.6494 14.8966 13.4653 15.3037 13.2987 15.7199C13.2343 15.8807 13.1798 16.046 13.1197 16.209C12.9824 16.5819 12.8491 16.9566 12.7351 17.3401C12.6655 17.5743 12.6124 17.8148 12.5518 18.0526C12.4681 18.3814 12.3803 18.7084 12.3143 19.0438C12.2482 19.3793 12.2065 19.7226 12.1585 20.0642C12.1228 20.3189 12.0751 20.5696 12.0497 20.8275C11.9897 21.4375 11.9561 22.0553 11.9561 22.6813C11.9549 25.3261 12.5101 27.9416 13.5855 30.3579C14.661 32.7741 16.2326 34.9372 18.1983 36.7066C20.1641 38.476 22.48 39.8121 24.9957 40.6283C27.5115 41.4444 30.1707 41.7223 32.8008 41.4438C32.9632 41.4268 33.1197 41.3917 33.2809 41.3706C33.7693 41.3064 34.2568 41.2388 34.7327 41.1378C34.8805 41.1064 35.0224 41.0604 35.169 41.0256C35.6545 40.9102 36.138 40.7889 36.6081 40.6366C36.7178 40.6011 36.8226 40.5558 36.9314 40.5183C37.4337 40.3453 37.9308 40.1611 38.4128 39.9477C38.4817 39.9173 38.5472 39.8812 38.6156 39.85C39.1329 39.6136 39.6411 39.3604 40.132 39.0798C40.1642 39.0614 40.1947 39.0408 40.2268 39.0223C40.7493 38.7195 41.2581 38.3955 41.7476 38.0457L41.7651 38.0326C42.7867 37.3008 43.7336 36.4699 44.5921 35.5521Z" fill="#E06C69"/>
<path d="M23.1738 15.8413C24.4093 16.9392 25.6424 18.0376 26.8732 19.1367C25.6438 18.0382 24.4106 16.9397 23.1738 15.8413Z" fill="#E06C69"/>
<path d="M33.8698 25.4499C33.1731 24.8141 32.4716 24.1764 31.7654 23.537C32.4719 24.1765 33.1734 24.8142 33.8698 25.4499Z" fill="#E06C69"/>
<path d="M30.3702 22.2751C29.4806 21.4733 28.5859 20.67 27.686 19.8652C28.5851 20.6698 29.4799 21.4731 30.3702 22.2751Z" fill="#E06C69"/>
<path d="M37.3855 28.6874C36.7152 28.0648 36.0428 27.4414 35.3594 26.8134C36.0428 27.4413 36.715 28.0647 37.3855 28.6874Z" fill="#E06C69"/>
<path d="M20.4553 22.6814C20.4531 24.7702 21.0824 26.8108 22.2608 28.5354C23.4391 30.26 25.1114 31.588 27.0581 32.3451C29.0048 33.1023 31.1349 33.2531 33.1688 32.7778C35.2028 32.3025 37.0455 31.2233 38.455 29.6819L38.4578 29.6792C38.1071 29.3514 37.7402 29.0169 37.3855 28.6874C36.7151 28.0647 36.0428 27.4413 35.3594 26.8134C34.8659 26.3599 34.3695 25.9055 33.8699 25.4499C33.1732 24.814 32.4717 24.1764 31.7655 23.5369C31.3009 23.1163 30.8384 22.6968 30.3703 22.275C29.4806 21.4732 28.5858 20.6699 27.6861 19.8651C27.4144 19.622 27.1457 19.3798 26.8734 19.1366C25.644 18.0383 24.4108 16.9399 23.1739 15.8413L23.1031 15.7782L23.103 15.7783C21.3979 17.6732 20.4547 20.1323 20.4553 22.6814V22.6814Z" fill="#CC4659"/>
</g>
<defs>
<clipPath id="clip0_1214_426">
<rect width="60.4477" height="95" fill="white" transform="translate(0.603027)"/>
</clipPath>
</defs>
</svg>
