<svg width="111" height="111" viewBox="0 0 111 111" fill="none" xmlns="http://www.w3.org/2000/svg">
<path d="M84.2324 92.0896C68.4741 92.0896 57.4648 74.6043 57.4648 58.6301C57.4648 42.0083 62.1699 18.9104 78.5759 18.9104C99.0833 18.9104 111 34.6687 111 58.6301C111 74.6043 99.9908 92.0896 84.2324 92.0896Z" fill="#D9D9D9"/>
<path d="M66.1354 55.7677C65.325 56.175 64.6594 56.8217 64.229 57.6201C63.7986 58.4185 63.6242 59.33 63.7295 60.2309C64.7105 71.7861 72.8328 83.5507 84.1503 83.5507C96.2311 83.5507 104.671 70.146 104.671 57.8997C104.671 48.2686 93.9524 43.9512 85.2737 57.9826C79.1345 67.9081 73.0308 52.6569 66.1354 55.7677Z" fill="#CCCCCC"/>
<path d="M26.7676 92.0896C42.5259 92.0896 53.5352 74.6043 53.5352 58.6301C53.5352 42.0083 48.8301 18.9104 32.4242 18.9104C11.9167 18.9104 0 34.6687 0 58.6301C0 74.6043 11.0092 92.0896 26.7676 92.0896Z" fill="#D9D9D9"/>
<path d="M44.8646 55.7677C45.6751 56.175 46.3406 56.8217 46.771 57.6201C47.2014 58.4185 47.3758 59.33 47.2706 60.2309C46.2895 71.7861 38.1673 83.5507 26.8497 83.5507C14.769 83.5507 6.32898 70.146 6.32898 57.8997C6.32898 48.2686 17.0477 43.9512 25.7264 57.9826C31.8655 67.9081 37.9692 52.6569 44.8646 55.7677Z" fill="#CCCCCC"/>
</svg>
