<svg width="86" height="80" viewBox="0 0 86 80" fill="none" xmlns="http://www.w3.org/2000/svg">
<g clip-path="url(#clip0_1331_642)">
<path d="M54.8618 34.0571H31.138C30.5896 34.0571 30.145 34.5017 30.145 35.0501V58.7232C30.145 59.2716 30.5896 59.7162 31.138 59.7162H54.8618C55.4102 59.7162 55.8548 59.2716 55.8548 58.7232V35.0501C55.8548 34.5017 55.4102 34.0571 54.8618 34.0571Z" fill="#C4E3FF"/>
<path d="M31.138 62.3024H54.8618C55.1252 62.3024 55.3778 62.407 55.564 62.5932C55.7502 62.7794 55.8548 63.032 55.8548 63.2954V80H30.145V63.2953C30.145 63.032 30.2496 62.7794 30.4359 62.5932C30.6221 62.407 30.8746 62.3024 31.138 62.3024Z" fill="#C4E3FF"/>
<path d="M54.8406 59.7162H31.1592V62.3024H54.8406V59.7162Z" fill="#97CAFF"/>
<path d="M54.8406 31.4709H31.1592V34.0571H54.8406V31.4709Z" fill="#97CAFF"/>
<path d="M48.122 12.3534C48.0954 11.8014 48.2012 11.251 48.4305 10.7482C48.6599 10.2454 49.0061 9.80477 49.4404 9.46301H36.5603C36.9946 9.80477 37.3408 10.2454 37.5702 10.7483C37.7995 11.2511 37.9053 11.8014 37.8787 12.3534C37.8787 16.4102 30.1201 20.0613 30.1201 26.4C30.1201 30.0511 31.1596 31.471 31.1596 31.471H54.841C54.841 31.471 55.8806 30.0511 55.8806 26.4C55.8806 20.0612 48.122 16.4102 48.122 12.3534Z" fill="#D9D9D9"/>
<path d="M49.6601 8.09375H36.3404C35.9623 8.09375 35.6558 8.40025 35.6558 8.77834C35.6558 9.15643 35.9623 9.46293 36.3404 9.46293H49.6601C50.0381 9.46293 50.3446 9.15643 50.3446 8.77834C50.3446 8.40025 50.0381 8.09375 49.6601 8.09375Z" fill="#BFBFBF"/>
<path d="M38.2883 5.02875e-10H47.7118C48.1337 5.02875e-10 48.5384 0.167623 48.8368 0.465993C49.1352 0.764364 49.3028 1.16904 49.3028 1.591V8.09377H36.6973V1.591C36.6973 1.38206 36.7384 1.17517 36.8184 0.982141C36.8983 0.78911 37.0155 0.613717 37.1633 0.465979C37.311 0.31824 37.4864 0.201049 37.6794 0.121096C37.8725 0.0411433 38.0794 -5.25246e-06 38.2883 5.02875e-10V5.02875e-10Z" fill="#007CC3"/>
<path d="M43.0001 55.2627C47.6261 55.2627 51.3763 51.5126 51.3763 46.8866C51.3763 42.2606 47.6261 38.5105 43.0001 38.5105C38.3741 38.5105 34.624 42.2606 34.624 46.8866C34.624 51.5126 38.3741 55.2627 43.0001 55.2627Z" fill="#F173AC"/>
<path d="M43.0001 42.1616C43.0001 42.1616 46.1501 46.7116 46.1501 48.4616C46.1501 49.2971 45.8182 50.0983 45.2275 50.689C44.6367 51.2797 43.8355 51.6116 43.0001 51.6116C42.1647 51.6116 41.3634 51.2797 40.7727 50.689C40.182 50.0983 39.8501 49.2971 39.8501 48.4616C39.85 46.7116 43.0001 42.1616 43.0001 42.1616Z" fill="white"/>
<path d="M30.1196 26.3999C30.1196 30.051 31.1591 31.4709 31.1591 31.4709H54.8405C54.8405 31.4709 55.8801 30.0511 55.8801 26.3999C55.8801 23.7815 54.5522 21.6256 52.9981 19.7063C52.9981 19.7063 50.0236 21.6257 42.9999 19.7063C35.9761 17.7869 33.0016 19.7063 33.0016 19.7063C31.4476 21.6256 30.1196 23.7815 30.1196 26.3999Z" fill="#C4E3FF"/>
</g>
<defs>
<clipPath id="clip0_1331_642">
<rect width="84.4601" height="80" fill="white" transform="translate(0.77002)"/>
</clipPath>
</defs>
</svg>
