<svg width="86" height="80" viewBox="0 0 86 80" fill="none" xmlns="http://www.w3.org/2000/svg">
<g clip-path="url(#clip0_1331_630)">
<path d="M84.2885 29.4444C83.985 29.1289 83.6181 28.8814 83.2119 28.718C82.8057 28.5547 82.3695 28.4792 81.9321 28.4967C81.4947 28.5142 81.0659 28.6242 80.6741 28.8195C80.2822 29.0148 79.9362 29.2909 79.6589 29.6296L61.5107 50.5555L62.4367 51.4815L63.3626 52.4074L84.2885 34.2592C84.871 33.5925 85.192 32.7372 85.192 31.8518C85.192 30.9665 84.871 30.1112 84.2885 29.4444Z" fill="#D9D9D9"/>
<path d="M62.622 51.1111C58.3627 46.8518 54.4738 49.4444 52.2516 51.6666C50.0294 53.8889 45.2146 61.4815 48.7331 65C52.2517 68.5185 59.8442 63.7037 62.0665 61.4815C64.2887 59.2592 66.696 55.1852 62.622 51.1111Z" fill="#D9D9D9"/>
<path d="M72.8068 73.5186H40.3994V80H72.8068V73.5186Z" fill="#F5A4C7"/>
<path d="M40.3999 73.5185C30.9554 67.037 28.548 56.2963 27.9924 50.9259C27.9514 50.5182 27.9983 50.1063 28.1301 49.7182C28.2619 49.3302 28.4754 48.9749 28.7563 48.6765C29.0372 48.378 29.3789 48.1433 29.7583 47.9883C30.1377 47.8333 30.5459 47.7615 30.9554 47.7778H82.2517C82.6567 47.7777 83.0574 47.8605 83.4292 48.0211C83.8009 48.1817 84.1359 48.4167 84.4135 48.7116C84.691 49.0065 84.9053 49.3551 85.0431 49.7359C85.1809 50.1167 85.2393 50.5217 85.2147 50.9259C84.6592 56.2963 82.2517 67.037 72.8073 73.5185H40.3999Z" fill="#F173AC"/>
<path d="M16.511 80V20.926L8.54802 6.11096L0.77002 20.926V80H16.511Z" fill="#999999"/>
<path d="M46.6959 80V20.926L38.7329 6.11096H8.54785L16.5109 20.926V80H46.6959Z" fill="#D9D9D9"/>
<path d="M16.5109 20.926H46.6959L38.7329 6.11096H8.54785L16.5109 20.926Z" fill="#BFBFBF"/>
<path d="M38.733 0H8.54785V6.2963H38.733V0Z" fill="#D9D9D9"/>
<path d="M31.6958 36.8518C31.6958 36.8518 36.6958 44.074 36.6958 46.8518C36.6958 48.1779 36.169 49.4497 35.2313 50.3873C34.2937 51.325 33.0219 51.8518 31.6958 51.8518C30.3697 51.8518 29.0979 51.325 28.1603 50.3873C27.2226 49.4497 26.6958 48.1779 26.6958 46.8518C26.6958 44.074 31.6958 36.8518 31.6958 36.8518Z" fill="white"/>
<path d="M29.1033 59.2593H34.4737C34.7619 59.2397 35.0333 59.1164 35.2376 58.9121C35.4418 58.7078 35.5652 58.4364 35.5848 58.1482C35.5652 57.86 35.4418 57.5886 35.2376 57.3843C35.0333 57.1801 34.7619 57.0567 34.4737 57.0371H29.1033C28.8151 57.0567 28.5437 57.1801 28.3394 57.3843C28.1351 57.5886 28.0118 57.86 27.9922 58.1482C28.0118 58.4364 28.1351 58.7078 28.3394 58.9121C28.5437 59.1164 28.8151 59.2397 29.1033 59.2593Z" fill="#007CC3"/>
<path d="M26.8811 63.8888H36.5108C36.799 63.8692 37.0704 63.7459 37.2746 63.5416C37.4789 63.3373 37.6023 63.066 37.6219 62.7777C37.6023 62.4895 37.4789 62.2181 37.2746 62.0138C37.0704 61.8096 36.799 61.6862 36.5108 61.6666H26.8811C26.5929 61.6862 26.3215 61.8096 26.1172 62.0138C25.913 62.2181 25.7896 62.4895 25.77 62.7777C25.9552 63.5185 26.3256 63.8888 26.8811 63.8888Z" fill="#007CC3"/>
</g>
<defs>
<clipPath id="clip0_1331_630">
<rect width="84.4601" height="80" fill="white" transform="translate(0.77002)"/>
</clipPath>
</defs>
</svg>
