<svg width="151" height="95" viewBox="0 0 151 95" fill="none" xmlns="http://www.w3.org/2000/svg">
<rect x="1.8269" width="148.866" height="95" fill="white"/>
<g clip-path="url(#clip0_1220_478)">
<path d="M27.5933 43.4236H18.4619V52.7643H9.95831V43.4236H0.826904V35.3941H9.95831V26H18.4619V35.3941H27.5933L27.5933 43.4236Z" fill="#007CC3"/>
<path d="M29.906 60.934V52.7643L48.6162 26H59.9252V52.1716H64.7798V60.934H59.9251V68.6315H49.8015V60.934H29.906ZM50.5122 37.1331L40.5645 52.1716H50.5122V37.1331Z" fill="#F173AC"/>
<path d="M97.9251 34.747H79.7286V42.7963C80.6415 41.8539 81.7598 41.1352 82.9963 40.6962C84.9275 40.0005 86.9896 39.7442 89.0323 39.9462C91.075 40.1482 93.047 40.8033 94.8045 41.8638C96.6814 43.1281 98.1505 44.9105 99.0333 46.9942C99.9375 49.1549 100.393 51.4769 100.372 53.8191C100.372 58.3682 99.0894 61.9744 96.525 64.6377C93.9597 67.3003 90.344 68.6315 85.6778 68.6315C82.8908 68.6979 80.1233 68.1502 77.5716 67.0274C75.4145 66.0752 73.5738 64.5276 72.2655 62.5661C70.9996 60.5953 70.2933 58.3174 70.2223 55.9762H79.9636C80.172 57.1394 80.7674 58.1981 81.6532 58.9804C82.6857 59.8246 83.9975 60.2506 85.329 60.1741C86.0997 60.2313 86.8729 60.1023 87.5833 59.7979C88.2937 59.4935 88.9204 59.0227 89.4106 58.4251C90.3649 57.0629 90.8368 55.4208 90.7514 53.7598C90.8599 52.1767 90.359 50.612 89.3513 49.3862C88.3506 48.5132 87.0944 47.9874 85.7701 47.8873C84.4459 47.7872 83.1249 48.1182 82.0044 48.831C81.1606 49.4533 80.5619 50.3518 80.3124 51.3701H70.6898V26H97.9251V34.747Z" fill="#F173AC"/>
<path d="M106.112 28.5853C108.086 26.916 110.587 26 113.173 26C115.758 26 118.259 26.916 120.233 28.5853C122.035 30.3081 122.935 32.7548 122.933 35.9255C122.933 39.0963 122.033 41.543 120.233 43.2657C118.259 44.9336 115.757 45.8487 113.173 45.8487C110.588 45.8487 108.086 44.9336 106.112 43.2657C104.291 41.543 103.38 39.0962 103.378 35.9255C103.378 32.7524 104.29 30.3057 106.112 28.5853ZM110.308 35.9255C110.308 38.5873 111.247 39.9182 113.127 39.9182C113.534 39.9358 113.939 39.8541 114.307 39.68C114.675 39.506 114.995 39.245 115.239 38.9194C115.812 38.0308 116.08 36.98 116.004 35.9255C116.004 33.2231 115.045 31.8723 113.127 31.8731C111.249 31.8731 110.309 33.2239 110.308 35.9255ZM143.253 26.6451L120.644 67.9864H110.953L133.561 26.6451H143.253ZM134.034 51.3681C136.003 49.7004 138.5 48.7852 141.081 48.7852C143.661 48.7852 146.158 49.7004 148.127 51.3681C149.924 53.0909 150.824 55.5376 150.827 58.7083C150.827 61.8791 149.927 64.3258 148.127 66.0485C146.158 67.7162 143.661 68.6315 141.081 68.6315C138.5 68.6315 136.003 67.7162 134.034 66.0485C132.233 64.3258 131.331 61.8791 131.329 58.7083C131.329 55.5376 132.231 53.0909 134.034 51.3682V51.3681ZM138.937 55.6547C138.38 56.571 138.122 57.6386 138.201 58.7083C138.201 61.3701 139.141 62.701 141.021 62.701C141.428 62.7186 141.832 62.6369 142.2 62.4628C142.568 62.2888 142.889 62.0278 143.133 61.7022C143.706 60.8137 143.975 59.7628 143.898 58.7083C143.971 57.6444 143.703 56.5848 143.133 55.6833C142.893 55.3513 142.574 55.0838 142.206 54.9045C141.837 54.7253 141.43 54.6399 141.021 54.6559C140.618 54.6364 140.216 54.7174 139.853 54.8918C139.489 55.0662 139.174 55.3284 138.937 55.6548L138.937 55.6547Z" fill="#F5A4C7"/>
</g>
<defs>
<clipPath id="clip0_1220_478">
<rect width="150" height="42.6315" fill="white" transform="translate(0.826904 26)"/>
</clipPath>
</defs>
</svg>
