<svg width="80" height="80" viewBox="0 0 80 80" fill="none" xmlns="http://www.w3.org/2000/svg">
<g clip-path="url(#clip0_1325_598)">
<path d="M40 5.9C46.7444 5.9 53.3372 7.89993 58.945 11.6469C64.5527 15.3938 68.9234 20.7195 71.5043 26.9505C74.0853 33.1815 74.7606 40.0378 73.4448 46.6526C72.129 53.2673 68.8813 59.3434 64.1124 64.1123C59.3434 68.8813 53.2674 72.129 46.6526 73.4448C40.0378 74.7605 33.1815 74.0852 26.9505 71.5043C20.7196 68.9233 15.3939 64.5527 11.6469 58.9449C7.89995 53.3372 5.90002 46.7443 5.90002 40C5.90002 30.9561 9.49269 22.2826 15.8877 15.8877C22.2827 9.49267 30.9561 5.9 40 5.9ZM40 0C32.0888 0 24.3552 2.34596 17.7772 6.74122C11.1992 11.1365 6.07234 17.3836 3.04484 24.6927C0.0173314 32.0017 -0.774802 40.0444 0.768607 47.8036C2.31202 55.5629 6.12165 62.6902 11.7157 68.2843C17.3098 73.8784 24.4372 77.688 32.1964 79.2314C39.9556 80.7748 47.9983 79.9827 55.3074 76.9552C62.6164 73.9277 68.8635 68.8008 73.2588 62.2228C77.6541 55.6448 80 47.9113 80 40C80 29.3913 75.7857 19.2172 68.2843 11.7157C60.7828 4.21427 50.6087 0 40 0V0Z" fill="#F45B6A"/>
<path d="M65.5742 10.2123L10.2881 65.5177L14.4607 69.6889L69.7468 14.3835L65.5742 10.2123Z" fill="#F45B6A"/>
<path d="M53.5432 26.4567L67.5977 40.5112C68.3359 41.2494 68.7505 42.2505 68.7505 43.2944C68.7505 44.3383 68.3359 45.3394 67.5977 46.0775L46.0774 67.5979C45.3393 68.336 44.3381 68.7507 43.2943 68.7507C42.2504 68.7507 41.2493 68.336 40.5111 67.5979L26.4565 53.5433L53.5432 26.4567Z" fill="#D9D9D9"/>
<path d="M39.5463 58.1141C38.3036 56.8589 37.6064 55.164 37.6064 53.3977C37.6064 51.6314 38.3036 49.9364 39.5463 48.6812L48.7727 39.4548C50.0236 38.204 51.7201 37.5012 53.4891 37.5012C55.2582 37.5012 56.9547 38.204 58.2056 39.4548C59.4565 40.7057 60.1592 42.4023 60.1592 44.1713C60.1592 45.9403 59.4565 47.6369 58.2056 48.8878L48.9792 58.1141C47.724 59.3569 46.0291 60.054 44.2628 60.054C42.4964 60.054 40.8015 59.3569 39.5463 58.1141Z" fill="#F2F2F2"/>
<path d="M57.5283 40.132C58.5996 41.2033 59.2014 42.6563 59.2014 44.1713C59.2014 45.6864 58.5996 47.1393 57.5283 48.2106L48.3019 57.437C47.7715 57.9674 47.1418 58.3882 46.4487 58.6753C45.7556 58.9624 45.0128 59.1101 44.2627 59.1101C43.5125 59.1101 42.7697 58.9624 42.0766 58.6753C41.3835 58.3882 40.7538 57.9674 40.2234 57.437C39.6929 56.9066 39.2721 56.2768 38.9851 55.5838C38.698 54.8907 38.5502 54.1479 38.5502 53.3977C38.5502 52.6475 38.698 51.9047 38.9851 51.2117C39.2721 50.5186 39.6929 49.8889 40.2234 49.3584L49.4497 40.132C50.521 39.0607 51.974 38.4589 53.489 38.4589C55.0041 38.4589 56.457 39.0607 57.5283 40.132M58.8826 38.7777C57.4479 37.3554 55.5093 36.5574 53.489 36.5574C51.4687 36.5574 49.5302 37.3554 48.0954 38.7777L38.869 48.0041C37.4404 49.435 36.6384 51.3745 36.6392 53.3965C36.64 55.4184 37.4435 57.3573 38.8733 58.7871C40.303 60.2168 42.2419 61.0204 44.2639 61.0212C46.2858 61.022 48.2254 60.22 49.6563 58.7913L58.8826 49.565C60.305 48.1302 61.103 46.1917 61.103 44.1714C61.103 42.151 60.305 40.2125 58.8826 38.7777V38.7777Z" fill="#F2F2F2"/>
<path d="M57.5284 40.1321C58.5997 41.2034 59.2015 42.6564 59.2015 44.1714C59.2015 45.6864 58.5997 47.1394 57.5284 48.2107L52.9135 52.8256L44.835 44.747L49.4499 40.1321C50.5211 39.0608 51.9741 38.459 53.4891 38.459C55.0041 38.459 56.4571 39.0608 57.5284 40.1321Z" fill="#F173AC"/>
<path d="M44.8349 44.7469L52.9135 52.8255L48.302 57.437C47.2307 58.5083 45.7777 59.1102 44.2627 59.1102C42.7477 59.1102 41.2947 58.5083 40.2234 57.437C39.1521 56.3657 38.5503 54.9128 38.5503 53.3977C38.5503 51.8827 39.1521 50.4297 40.2234 49.3584L44.8349 44.7469Z" fill="#F4C6DE"/>
<path d="M26.4569 53.5433L12.4023 39.4887C11.6642 38.7506 11.2495 37.7494 11.2495 36.7055C11.2495 35.6617 11.6642 34.6605 12.4023 33.9224L33.9226 12.4021C34.6608 11.6639 35.6619 11.2493 36.7058 11.2493C37.7497 11.2493 38.7508 11.6639 39.4889 12.4021L53.5435 26.4566L26.4569 53.5433Z" fill="#D9D9D9"/>
<path d="M21.8823 40.4504C20.6341 39.1985 19.9334 37.5027 19.9341 35.7349C19.9347 33.9671 20.6366 32.2718 21.8857 31.0208L31.1121 21.7944C32.329 20.5105 34.0062 19.7626 35.7745 19.7152C37.5429 19.6678 39.2577 20.3248 40.5416 21.5417C41.8256 22.7586 42.5735 24.4358 42.6209 26.2042C42.6683 27.9725 42.0113 29.6873 40.7944 30.9713C40.7124 31.0577 40.6281 31.142 40.5416 31.224L31.3153 40.4504C30.0601 41.6931 28.3651 42.3902 26.5988 42.3902C24.8325 42.3902 23.1375 41.6931 21.8823 40.4504Z" fill="#F2F2F2"/>
<path d="M39.8647 22.4682C40.936 23.5395 41.5379 24.9925 41.5379 26.5075C41.5379 28.0225 40.936 29.4755 39.8647 30.5468L30.6384 39.7732C29.5985 40.875 28.1636 41.5187 26.6492 41.5625C25.1348 41.6064 23.665 41.0469 22.5632 40.007C21.4613 38.9672 20.8177 37.5323 20.7738 36.0179C20.7299 34.5035 21.2895 33.0337 22.3293 31.9318C22.405 31.8516 22.4829 31.7737 22.5632 31.698L31.7895 22.4716C32.8602 21.4009 34.3122 20.7991 35.8264 20.7985C37.3406 20.7978 38.7931 21.3984 39.8647 22.4682ZM41.2191 21.1139C39.7877 19.6861 37.8482 18.8845 35.8264 18.8851C33.8047 18.8858 31.8657 19.6885 30.4352 21.1173L21.2088 30.3436C19.743 31.7378 18.891 33.6572 18.8403 35.6796C18.7896 37.702 19.5444 39.6616 20.9386 41.1275C22.3328 42.5934 24.2522 43.4454 26.2745 43.496C28.2969 43.5467 30.2566 42.792 31.7224 41.3978C31.8148 41.31 31.9048 41.2199 31.9927 41.1275L41.2191 31.9011C42.6414 30.4663 43.4394 28.5278 43.4394 26.5075C43.4394 24.4872 42.6414 22.5487 41.2191 21.1139Z" fill="#F2F2F2"/>
<path d="M27.1742 27.0864L35.2494 35.1616L30.6379 39.7731C29.5667 40.8444 28.1137 41.4463 26.5987 41.4463C25.0836 41.4463 23.6306 40.8444 22.5594 39.7731C21.4896 38.7015 20.889 37.249 20.8896 35.7348C20.8903 34.2207 21.4921 32.7687 22.5628 31.698L27.1743 27.0865L27.1742 27.0864Z" fill="#F173AC"/>
<path d="M39.8644 22.4682C40.9357 23.5395 41.5375 24.9925 41.5375 26.5075C41.5375 28.0225 40.9357 29.4755 39.8644 30.5468L35.2495 35.1617L27.1743 27.0865L31.7892 22.4716C32.8599 21.4009 34.3119 20.7991 35.8261 20.7985C37.3403 20.7978 38.7928 21.3984 39.8644 22.4682Z" fill="#F4C6DE"/>
<path d="M52.717 25.6305L54.3693 27.2828L51.5726 30.0795C51.3535 30.2986 51.0563 30.4217 50.7465 30.4217C50.4366 30.4217 50.1394 30.2986 49.9203 30.0795C49.8118 29.971 49.7258 29.8422 49.6671 29.7004C49.6083 29.5587 49.5781 29.4068 49.5781 29.2533C49.5781 29.0999 49.6083 28.948 49.6671 28.8062C49.7258 28.6645 49.8118 28.5357 49.9203 28.4272L52.717 25.6305Z" fill="#BFBFBF"/>
<path d="M47.1981 31.1495L45.2275 33.12C44.7712 33.5763 44.7712 34.316 45.2275 34.7723C45.6838 35.2286 46.4235 35.2286 46.8798 34.7723L48.8503 32.8018C49.3066 32.3455 49.3066 31.6057 48.8503 31.1495C48.3941 30.6932 47.6543 30.6932 47.1981 31.1495Z" fill="#BFBFBF"/>
<path d="M42.5057 35.8422L40.5351 37.8128C40.0789 38.269 40.0789 39.0088 40.5351 39.4651C40.9914 39.9213 41.7311 39.9213 42.1874 39.4651L44.158 37.4945C44.6142 37.0382 44.6142 36.2985 44.158 35.8422C43.7017 35.386 42.9619 35.386 42.5057 35.8422Z" fill="#BFBFBF"/>
<path d="M37.8128 40.535L35.8423 42.5055C35.386 42.9618 35.386 43.7015 35.8423 44.1578C36.2985 44.6141 37.0383 44.6141 37.4945 44.1578L39.4651 42.1873C39.9214 41.731 39.9214 40.9912 39.4651 40.535C39.0088 40.0787 38.2691 40.0787 37.8128 40.535Z" fill="#BFBFBF"/>
<path d="M33.1199 45.2277L31.1494 47.1983C30.6931 47.6545 30.6931 48.3943 31.1494 48.8506C31.6057 49.3068 32.3454 49.3068 32.8017 48.8506L34.7722 46.88C35.2285 46.4237 35.2285 45.684 34.7722 45.2277C34.316 44.7715 33.5762 44.7715 33.1199 45.2277Z" fill="#BFBFBF"/>
<path d="M30.0793 49.9205C30.1878 50.0289 30.2739 50.1577 30.3326 50.2995C30.3913 50.4412 30.4215 50.5932 30.4215 50.7466C30.4215 50.9 30.3913 51.0519 30.3326 51.1937C30.2739 51.3354 30.1878 51.4642 30.0793 51.5727L27.2826 54.3694L25.6304 52.7171L28.4271 49.9204C28.6462 49.7013 28.9433 49.5782 29.2532 49.5782C29.5631 49.5782 29.8602 49.7013 30.0794 49.9204L30.0793 49.9205Z" fill="#BFBFBF"/>
</g>
<defs>
<clipPath id="clip0_1325_598">
<rect width="80" height="80" fill="white"/>
</clipPath>
</defs>
</svg>
