<?xml version="1.0" encoding="utf-8"?>
<!-- Generator: Adobe Illustrator 24.1.1, SVG Export Plug-In . SVG Version: 6.00 Build 0)  -->
<svg version="1.1" id="Capa_1" xmlns="http://www.w3.org/2000/svg" xmlns:xlink="http://www.w3.org/1999/xlink" x="0px" y="0px"
	 viewBox="0 0 265.25 361.97" style="enable-background:new 0 0 265.25 361.97;" xml:space="preserve">
<style type="text/css">
	.st0{fill:#FFFFFF;}
	.st1{fill:#007CC3;}
	.st2{fill:#808080;}
	.st3{fill:#D36F62;}
	.st4{fill:#F8C5B0;}
	.st5{fill:#F7A6A9;}
</style>
<g>
	<rect class="st0" width="265.25" height="361.97"/>
	<g>
		<g>
			<g>
				<path class="st1" d="M34.59,142.37v14.5h-3.15v-14.5h-4.12v-3h11.4v3H34.59z"/>
				<path class="st1" d="M46.31,152.19l3.07,0.3v0.03c0,2.65-1.9,4.6-4.57,4.6h-0.78c-2.67,0-4.57-1.95-4.57-4.6v-4.05
					c0-2.65,1.9-4.6,4.57-4.6h0.78c2.67,0,4.57,1.95,4.57,4.6v2.6h-6.85v1.55c0,0.83,0.67,1.5,1.5,1.5h0.78c0.82,0,1.5-0.67,1.5-1.5
					V152.19z M42.54,149.14h3.77v-0.78c0-0.82-0.67-1.5-1.5-1.5h-0.78c-0.82,0-1.5,0.68-1.5,1.5V149.14z"/>
				<path class="st1" d="M62.01,153.29c0,2.2-1.87,3.82-4.52,3.82h-0.75c-2.67,0-4.62-1.85-4.62-4.35v-0.08l3.07-0.25v0.47
					c0,0.78,0.55,1.33,1.38,1.33h1.15c0.7,0,1.2-0.42,1.2-1c0-2.3-6.65-0.33-6.65-5.55c0-2.2,1.87-3.82,4.52-3.82h0.45
					c2.65,0,4.62,1.8,4.62,4.3v0.08l-3.07,0.3v-0.47c0-0.77-0.58-1.32-1.38-1.32h-0.83c-0.72,0-1.25,0.45-1.25,1.05
					C55.34,149.99,62.01,148.09,62.01,153.29z"/>
				<path class="st1" d="M69.96,156.87c-2.67,0-4.07-1.42-4.07-4.1v-5.72h-2.25v-2.92h2.25v-3l3.07-0.5v3.5h2.92v2.92h-2.92v5.57
					c0,0.83,0.42,1.25,1.25,1.25h1.67v3H69.96z"/>
				<path class="st1" d="M87.71,155.44c-0.78,1.08-1.88,1.67-3.2,1.67h-0.05c-2.77,0-4.32-1.65-4.32-4.57v-4.1
					c0-2.92,1.55-4.57,4.32-4.57h0.05c0.92,0,1.75,0.3,2.47,0.9v-5.4h3.07v17.5h-1.42L87.71,155.44z M86.99,148.34
					c0-0.88-0.6-1.48-1.47-1.48h-0.82c-0.88,0-1.47,0.6-1.47,1.48v4.3c0,0.87,0.6,1.47,1.47,1.47h0.82c0.88,0,1.47-0.6,1.47-1.47
					V148.34z"/>
				<path class="st1" d="M99.91,152.19l3.07,0.3v0.03c0,2.65-1.9,4.6-4.57,4.6h-0.78c-2.67,0-4.57-1.95-4.57-4.6v-4.05
					c0-2.65,1.9-4.6,4.57-4.6h0.78c2.67,0,4.57,1.95,4.57,4.6v2.6h-6.85v1.55c0,0.83,0.67,1.5,1.5,1.5h0.78c0.82,0,1.5-0.67,1.5-1.5
					V152.19z M96.14,149.14h3.77v-0.78c0-0.82-0.67-1.5-1.5-1.5h-0.78c-0.82,0-1.5,0.68-1.5,1.5V149.14z"/>
				<path class="st1" d="M114.07,145.54c0.77-1.02,1.9-1.67,3.22-1.67h0.05c2.77,0,4.32,1.65,4.32,4.57v4.1
					c0,2.92-1.55,4.57-4.32,4.57h-0.05c-0.97,0-1.8-0.3-2.47-0.88v5.62h-3.07v-17.75h1.42L114.07,145.54z M114.82,152.64
					c0,0.87,0.6,1.47,1.47,1.47h0.82c0.88,0,1.47-0.6,1.47-1.47v-4.3c0-0.88-0.6-1.48-1.47-1.48h-0.82c-0.88,0-1.47,0.6-1.47,1.48
					V152.64z"/>
				<path class="st1" d="M131.99,155.49c-0.67,1-1.9,1.63-3.4,1.63h-0.05c-2.58,0-4.12-1.47-4.12-3.57v-0.5
					c0-2.1,1.55-3.52,4.12-3.52h2.67v-1.32c0-0.72-0.67-1.33-1.5-1.33h-0.6c-0.82,0-1.5,0.6-1.5,1.33v0.47l-3.07-0.3v-0.08
					c0-2.5,1.9-4.42,4.57-4.42h0.6c2.67,0,4.57,1.92,4.57,4.42v8.57h-1.42L131.99,155.49z M127.49,153.07c0,0.67,0.52,1.2,1.3,1.2
					h1.15c0.67,0,1.27-0.5,1.27-1.17v-1.3h-2.42c-0.78,0-1.3,0.53-1.3,1.2V153.07z"/>
				<path class="st1" d="M139.74,145.54c0.77-1.02,1.9-1.67,3.22-1.67h0.05c2.77,0,4.32,1.65,4.32,4.57v4.1
					c0,2.92-1.55,4.57-4.32,4.57h-0.05c-0.97,0-1.8-0.3-2.47-0.88v5.62h-3.07v-17.75h1.42L139.74,145.54z M140.49,152.64
					c0,0.87,0.6,1.47,1.47,1.47h0.82c0.88,0,1.47-0.6,1.47-1.47v-4.3c0-0.88-0.6-1.48-1.47-1.48h-0.82c-0.88,0-1.47,0.6-1.47,1.48
					V152.64z"/>
				<path class="st1" d="M157.66,155.49c-0.67,1-1.9,1.63-3.4,1.63h-0.05c-2.58,0-4.12-1.47-4.12-3.57v-0.5
					c0-2.1,1.55-3.52,4.12-3.52h2.67v-1.32c0-0.72-0.67-1.33-1.5-1.33h-0.6c-0.82,0-1.5,0.6-1.5,1.33v0.47l-3.07-0.3v-0.08
					c0-2.5,1.9-4.42,4.57-4.42h0.6c2.67,0,4.57,1.92,4.57,4.42v8.57h-1.42L157.66,155.49z M153.16,153.07c0,0.67,0.52,1.2,1.3,1.2
					h1.15c0.67,0,1.27-0.5,1.27-1.17v-1.3h-2.42c-0.78,0-1.3,0.53-1.3,1.2V153.07z"/>
				<path class="st1" d="M165.41,145.54c0.77-1.02,1.9-1.67,3.22-1.67h0.05c2.77,0,4.32,1.65,4.32,4.57v8.42h-3.07v-8.52
					c0-0.88-0.6-1.48-1.47-1.48h-0.82c-0.88,0-1.47,0.6-1.47,1.48v8.52h-3.07v-12.75h1.42L165.41,145.54z"/>
				<path class="st1" d="M176.14,139.37h3.07v2.58h-3.07V139.37z M176.14,156.87v-12.75h3.07v12.75H176.14z"/>
				<path class="st1" d="M189.06,152.02l3.07,0.3v0.2c0,2.65-1.9,4.6-4.57,4.6h-0.78c-2.67,0-4.57-1.95-4.57-4.6v-4.05
					c0-2.65,1.9-4.6,4.57-4.6h0.78c2.67,0,4.57,1.95,4.57,4.6v0.2l-3.07,0.3v-0.6c0-0.82-0.67-1.5-1.5-1.5h-0.78
					c-0.82,0-1.5,0.68-1.5,1.5v4.25c0,0.83,0.67,1.5,1.5,1.5h0.78c0.82,0,1.5-0.67,1.5-1.5V152.02z"/>
				<path class="st1" d="M204.81,152.52c0,2.65-1.9,4.6-4.57,4.6h-0.78c-2.67,0-4.57-1.95-4.57-4.6v-4.05c0-2.65,1.9-4.6,4.57-4.6
					h0.78c2.67,0,4.57,1.95,4.57,4.6V152.52z M201.74,148.37c0-0.82-0.67-1.5-1.5-1.5h-0.78c-0.82,0-1.5,0.68-1.5,1.5v4.25
					c0,0.83,0.67,1.5,1.5,1.5h0.78c0.82,0,1.5-0.67,1.5-1.5V148.37z"/>
				<path class="st1" d="M207.82,156.87v-17.5h3.07v17.5H207.82z"/>
				<path class="st1" d="M221.46,155.49c-0.67,1-1.9,1.63-3.4,1.63h-0.05c-2.58,0-4.12-1.47-4.12-3.57v-0.5
					c0-2.1,1.55-3.52,4.12-3.52h2.67v-1.32c0-0.72-0.67-1.33-1.5-1.33h-0.6c-0.82,0-1.5,0.6-1.5,1.33v0.47l-3.07-0.3v-0.08
					c0-2.5,1.9-4.42,4.57-4.42h0.6c2.67,0,4.57,1.92,4.57,4.42v8.57h-1.42L221.46,155.49z M216.96,153.07c0,0.67,0.52,1.2,1.3,1.2
					h1.15c0.67,0,1.27-0.5,1.27-1.17v-1.3h-2.42c-0.78,0-1.3,0.53-1.3,1.2V153.07z"/>
				<path class="st1" d="M234.34,155.44c-0.78,1.08-1.88,1.67-3.2,1.67h-0.05c-2.77,0-4.32-1.65-4.32-4.57v-8.42h3.07v8.52
					c0,0.87,0.6,1.47,1.47,1.47h0.82c0.88,0,1.47-0.6,1.47-1.47v-8.52h3.07v12.75h-1.42L234.34,155.44z"/>
				<path class="st2" d="M47.99,200.07l-2.66-4.56h-1.76v4.56h-1.46v-11.15h3.6c0.84,0,1.55,0.14,2.14,0.43s1.02,0.68,1.3,1.17
					c0.29,0.49,0.43,1.05,0.43,1.68c0,0.77-0.22,1.45-0.66,2.03s-1.11,0.98-1.99,1.17l2.8,4.67H47.99z M43.57,194.34h2.14
					c0.79,0,1.38-0.2,1.78-0.58c0.39-0.39,0.59-0.91,0.59-1.56c0-0.66-0.2-1.17-0.58-1.54c-0.39-0.36-0.98-0.54-1.78-0.54h-2.14
					V194.34z"/>
				<path class="st2" d="M59.8,196.23h-7.01c0.05,0.86,0.35,1.54,0.89,2.02c0.54,0.49,1.19,0.73,1.96,0.73
					c0.63,0,1.15-0.15,1.58-0.44c0.42-0.29,0.72-0.68,0.89-1.18h1.57c-0.23,0.84-0.7,1.53-1.41,2.06c-0.7,0.53-1.58,0.79-2.62,0.79
					c-0.83,0-1.58-0.19-2.23-0.56s-1.17-0.9-1.54-1.59c-0.37-0.69-0.56-1.49-0.56-2.39c0-0.91,0.18-1.7,0.54-2.38
					c0.36-0.68,0.87-1.21,1.53-1.58c0.66-0.37,1.41-0.55,2.26-0.55c0.83,0,1.57,0.18,2.21,0.54c0.64,0.36,1.13,0.86,1.48,1.5
					s0.52,1.35,0.52,2.15C59.84,195.62,59.83,195.92,59.8,196.23z M57.97,193.61c-0.25-0.4-0.58-0.7-1-0.91
					c-0.42-0.21-0.89-0.31-1.4-0.31c-0.74,0-1.36,0.23-1.88,0.7c-0.52,0.47-0.81,1.12-0.89,1.95h5.54
					C58.34,194.49,58.22,194.01,57.97,193.61z"/>
				<path class="st2" d="M61.76,193.29c0.36-0.68,0.87-1.2,1.51-1.58c0.65-0.37,1.38-0.56,2.22-0.56c1.08,0,1.96,0.26,2.66,0.78
					c0.7,0.52,1.16,1.25,1.38,2.18h-1.57c-0.15-0.53-0.44-0.95-0.87-1.26c-0.43-0.31-0.97-0.46-1.61-0.46
					c-0.83,0-1.5,0.29-2.02,0.86c-0.51,0.57-0.77,1.38-0.77,2.42c0,1.06,0.26,1.87,0.77,2.45c0.51,0.58,1.18,0.86,2.02,0.86
					c0.64,0,1.17-0.15,1.6-0.45s0.72-0.73,0.88-1.28h1.57c-0.23,0.9-0.7,1.61-1.41,2.15c-0.7,0.54-1.58,0.81-2.64,0.81
					c-0.83,0-1.57-0.19-2.22-0.56s-1.15-0.9-1.51-1.58c-0.36-0.68-0.54-1.48-0.54-2.4C61.22,194.76,61.4,193.97,61.76,193.29z"/>
				<path class="st2" d="M73.07,199.65c-0.67-0.37-1.19-0.9-1.57-1.59c-0.38-0.69-0.57-1.49-0.57-2.39c0-0.9,0.19-1.69,0.58-2.38
					c0.39-0.69,0.92-1.22,1.59-1.58c0.67-0.37,1.42-0.55,2.26-0.55s1.58,0.18,2.26,0.55c0.67,0.37,1.2,0.89,1.59,1.58
					s0.58,1.48,0.58,2.38c0,0.91-0.2,1.7-0.6,2.39c-0.4,0.69-0.94,1.22-1.62,1.59s-1.44,0.56-2.27,0.56
					C74.48,200.21,73.73,200.02,73.07,199.65z M76.77,198.56c0.46-0.25,0.83-0.61,1.11-1.1c0.28-0.49,0.42-1.09,0.42-1.79
					c0-0.7-0.14-1.3-0.42-1.79c-0.28-0.49-0.64-0.86-1.09-1.1c-0.45-0.24-0.93-0.36-1.46-0.36c-0.53,0-1.02,0.12-1.46,0.36
					s-0.8,0.61-1.06,1.1c-0.27,0.49-0.4,1.09-0.4,1.79c0,0.71,0.13,1.32,0.39,1.81c0.26,0.49,0.61,0.86,1.05,1.1
					s0.92,0.36,1.44,0.36S76.31,198.81,76.77,198.56z"/>
				<path class="st2" d="M83.17,188.23v11.84h-1.46v-11.84H83.17z"/>
				<path class="st2" d="M93.6,196.23H86.6c0.05,0.86,0.35,1.54,0.89,2.02c0.54,0.49,1.19,0.73,1.96,0.73
					c0.63,0,1.15-0.15,1.58-0.44c0.42-0.29,0.72-0.68,0.89-1.18h1.57c-0.23,0.84-0.7,1.53-1.41,2.06c-0.7,0.53-1.58,0.79-2.62,0.79
					c-0.83,0-1.58-0.19-2.23-0.56s-1.17-0.9-1.54-1.59c-0.37-0.69-0.56-1.49-0.56-2.39c0-0.91,0.18-1.7,0.54-2.38
					c0.36-0.68,0.87-1.21,1.53-1.58c0.66-0.37,1.41-0.55,2.26-0.55c0.83,0,1.57,0.18,2.21,0.54c0.64,0.36,1.13,0.86,1.48,1.5
					s0.52,1.35,0.52,2.15C93.65,195.62,93.64,195.92,93.6,196.23z M91.78,193.61c-0.25-0.4-0.58-0.7-1-0.91
					c-0.42-0.21-0.89-0.31-1.4-0.31c-0.74,0-1.36,0.23-1.88,0.7c-0.52,0.47-0.81,1.12-0.89,1.95h5.54
					C92.15,194.49,92.03,194.01,91.78,193.61z"/>
				<path class="st2" d="M95.57,193.29c0.36-0.68,0.87-1.2,1.51-1.58c0.65-0.37,1.38-0.56,2.22-0.56c1.08,0,1.96,0.26,2.66,0.78
					c0.7,0.52,1.16,1.25,1.38,2.18h-1.57c-0.15-0.53-0.44-0.95-0.87-1.26c-0.43-0.31-0.97-0.46-1.61-0.46
					c-0.83,0-1.5,0.29-2.02,0.86c-0.51,0.57-0.77,1.38-0.77,2.42c0,1.06,0.26,1.87,0.77,2.45c0.51,0.58,1.18,0.86,2.02,0.86
					c0.64,0,1.17-0.15,1.6-0.45s0.72-0.73,0.88-1.28h1.57c-0.23,0.9-0.7,1.61-1.41,2.15c-0.7,0.54-1.58,0.81-2.64,0.81
					c-0.83,0-1.57-0.19-2.22-0.56s-1.15-0.9-1.51-1.58c-0.36-0.68-0.54-1.48-0.54-2.4C95.03,194.76,95.21,193.97,95.57,193.29z"/>
				<path class="st2" d="M105.28,193.29c0.36-0.68,0.87-1.2,1.51-1.58c0.65-0.37,1.38-0.56,2.22-0.56c1.08,0,1.96,0.26,2.66,0.78
					c0.7,0.52,1.16,1.25,1.38,2.18h-1.57c-0.15-0.53-0.44-0.95-0.87-1.26c-0.43-0.31-0.97-0.46-1.61-0.46
					c-0.83,0-1.5,0.29-2.02,0.86c-0.51,0.57-0.77,1.38-0.77,2.42c0,1.06,0.26,1.87,0.77,2.45c0.51,0.58,1.18,0.86,2.02,0.86
					c0.64,0,1.17-0.15,1.6-0.45s0.72-0.73,0.88-1.28h1.57c-0.23,0.9-0.7,1.61-1.41,2.15c-0.7,0.54-1.58,0.81-2.64,0.81
					c-0.83,0-1.57-0.19-2.22-0.56s-1.15-0.9-1.51-1.58c-0.36-0.68-0.54-1.48-0.54-2.4C104.74,194.76,104.92,193.97,105.28,193.29z"
					/>
				<path class="st2" d="M115.04,189.59c-0.19-0.19-0.29-0.43-0.29-0.7s0.1-0.51,0.29-0.7c0.19-0.19,0.43-0.29,0.7-0.29
					c0.27,0,0.49,0.1,0.68,0.29c0.19,0.19,0.28,0.43,0.28,0.7s-0.09,0.51-0.28,0.7c-0.19,0.19-0.41,0.29-0.68,0.29
					C115.47,189.87,115.24,189.78,115.04,189.59z M116.45,191.3v8.77H115v-8.77H116.45z"/>
				<path class="st2" d="M120.52,199.65c-0.67-0.37-1.19-0.9-1.57-1.59c-0.38-0.69-0.57-1.49-0.57-2.39c0-0.9,0.19-1.69,0.58-2.38
					c0.39-0.69,0.92-1.22,1.59-1.58c0.67-0.37,1.42-0.55,2.26-0.55s1.58,0.18,2.26,0.55c0.67,0.37,1.2,0.89,1.59,1.58
					s0.58,1.48,0.58,2.38c0,0.91-0.2,1.7-0.6,2.39c-0.4,0.69-0.94,1.22-1.62,1.59s-1.44,0.56-2.27,0.56
					C121.93,200.21,121.19,200.02,120.52,199.65z M124.23,198.56c0.46-0.25,0.83-0.61,1.11-1.1c0.28-0.49,0.42-1.09,0.42-1.79
					c0-0.7-0.14-1.3-0.42-1.79c-0.28-0.49-0.64-0.86-1.09-1.1c-0.45-0.24-0.93-0.36-1.46-0.36c-0.53,0-1.02,0.12-1.46,0.36
					s-0.8,0.61-1.06,1.1c-0.27,0.49-0.4,1.09-0.4,1.79c0,0.71,0.13,1.32,0.39,1.81c0.26,0.49,0.61,0.86,1.05,1.1
					s0.92,0.36,1.44,0.36S123.77,198.81,124.23,198.56z M124.39,188.71l-3.41,1.82v-1.09l3.41-2V188.71z"/>
				<path class="st2" d="M136.04,192.11c0.66,0.65,0.99,1.58,0.99,2.79v5.17h-1.44v-4.96c0-0.88-0.22-1.54-0.66-2.01
					s-1.04-0.7-1.79-0.7c-0.77,0-1.38,0.24-1.83,0.72c-0.45,0.48-0.68,1.18-0.68,2.1v4.85h-1.46v-8.77h1.46v1.25
					c0.29-0.45,0.68-0.79,1.18-1.04c0.5-0.25,1.04-0.37,1.64-0.37C134.51,191.14,135.37,191.46,136.04,192.11z"/>
				<path class="st2" d="M143.68,193.29c0.36-0.68,0.86-1.2,1.5-1.58c0.63-0.37,1.35-0.56,2.14-0.56c0.68,0,1.32,0.16,1.9,0.47
					c0.59,0.32,1.04,0.73,1.34,1.24v-4.64h1.47v11.84h-1.47v-1.65c-0.29,0.52-0.71,0.95-1.28,1.29s-1.23,0.5-1.98,0.5
					c-0.78,0-1.49-0.19-2.12-0.58c-0.63-0.38-1.13-0.92-1.5-1.62c-0.36-0.69-0.54-1.48-0.54-2.37
					C143.14,194.75,143.32,193.97,143.68,193.29z M150.16,193.94c-0.27-0.49-0.63-0.87-1.08-1.13s-0.95-0.39-1.5-0.39
					s-1.04,0.13-1.49,0.38c-0.45,0.26-0.81,0.63-1.07,1.12c-0.27,0.49-0.4,1.07-0.4,1.73c0,0.67,0.13,1.26,0.4,1.75
					s0.62,0.88,1.07,1.14c0.45,0.26,0.94,0.39,1.49,0.39s1.04-0.13,1.5-0.39c0.45-0.26,0.81-0.64,1.08-1.14s0.4-1.07,0.4-1.74
					C150.56,195,150.43,194.43,150.16,193.94z"/>
				<path class="st2" d="M162.45,196.23h-7.01c0.05,0.86,0.35,1.54,0.89,2.02c0.54,0.49,1.19,0.73,1.96,0.73
					c0.63,0,1.15-0.15,1.58-0.44c0.42-0.29,0.72-0.68,0.89-1.18h1.57c-0.23,0.84-0.7,1.53-1.41,2.06c-0.7,0.53-1.58,0.79-2.62,0.79
					c-0.83,0-1.58-0.19-2.23-0.56s-1.17-0.9-1.54-1.59c-0.37-0.69-0.56-1.49-0.56-2.39c0-0.91,0.18-1.7,0.54-2.38
					c0.36-0.68,0.87-1.21,1.53-1.58c0.66-0.37,1.41-0.55,2.26-0.55c0.83,0,1.57,0.18,2.21,0.54c0.64,0.36,1.13,0.86,1.48,1.5
					s0.52,1.35,0.52,2.15C162.5,195.62,162.48,195.92,162.45,196.23z M160.63,193.61c-0.25-0.4-0.58-0.7-1-0.91
					c-0.42-0.21-0.89-0.31-1.4-0.31c-0.74,0-1.36,0.23-1.88,0.7c-0.52,0.47-0.81,1.12-0.89,1.95h5.54
					C160.99,194.49,160.87,194.01,160.63,193.61z"/>
				<path class="st2" d="M168.69,193.29c0.36-0.68,0.87-1.2,1.51-1.58c0.65-0.37,1.38-0.56,2.22-0.56c1.08,0,1.96,0.26,2.66,0.78
					c0.7,0.52,1.16,1.25,1.38,2.18h-1.57c-0.15-0.53-0.44-0.95-0.87-1.26c-0.43-0.31-0.97-0.46-1.61-0.46
					c-0.83,0-1.5,0.29-2.02,0.86c-0.51,0.57-0.77,1.38-0.77,2.42c0,1.06,0.26,1.87,0.77,2.45c0.51,0.58,1.18,0.86,2.02,0.86
					c0.64,0,1.17-0.15,1.6-0.45s0.72-0.73,0.88-1.28h1.57c-0.23,0.9-0.7,1.61-1.41,2.15c-0.7,0.54-1.58,0.81-2.64,0.81
					c-0.83,0-1.57-0.19-2.22-0.56s-1.15-0.9-1.51-1.58c-0.36-0.68-0.54-1.48-0.54-2.4C168.15,194.76,168.33,193.97,168.69,193.29z"
					/>
				<path class="st2" d="M186.35,196.23h-7.01c0.05,0.86,0.35,1.54,0.89,2.02c0.54,0.49,1.19,0.73,1.96,0.73
					c0.63,0,1.15-0.15,1.58-0.44c0.42-0.29,0.72-0.68,0.89-1.18h1.57c-0.23,0.84-0.7,1.53-1.41,2.06c-0.7,0.53-1.58,0.79-2.62,0.79
					c-0.83,0-1.58-0.19-2.23-0.56s-1.17-0.9-1.54-1.59c-0.37-0.69-0.56-1.49-0.56-2.39c0-0.91,0.18-1.7,0.54-2.38
					c0.36-0.68,0.87-1.21,1.53-1.58c0.66-0.37,1.41-0.55,2.26-0.55c0.83,0,1.57,0.18,2.21,0.54c0.64,0.36,1.13,0.86,1.48,1.5
					s0.52,1.35,0.52,2.15C186.4,195.62,186.39,195.92,186.35,196.23z M184.53,193.61c-0.25-0.4-0.58-0.7-1-0.91
					c-0.42-0.21-0.89-0.31-1.4-0.31c-0.74,0-1.36,0.23-1.88,0.7c-0.52,0.47-0.81,1.12-0.89,1.95h5.54
					C184.9,194.49,184.78,194.01,184.53,193.61z M183.7,188.82l-3.41,1.82v-1.09l3.41-2V188.82z"/>
				<path class="st2" d="M189.78,188.23v11.84h-1.46v-11.84H189.78z"/>
				<path class="st2" d="M200.03,191.3v8.77h-1.46v-1.3c-0.28,0.45-0.66,0.8-1.16,1.05c-0.5,0.25-1.04,0.38-1.64,0.38
					c-0.68,0-1.3-0.14-1.84-0.42s-0.97-0.71-1.29-1.27c-0.31-0.56-0.47-1.25-0.47-2.06v-5.14h1.44v4.94c0,0.86,0.22,1.53,0.66,1.99
					s1.03,0.7,1.79,0.7c0.78,0,1.39-0.24,1.84-0.72c0.45-0.48,0.67-1.18,0.67-2.1v-4.82H200.03z"/>
				<path class="st2" d="M203.95,188.23v11.84h-1.46v-11.84H203.95z"/>
				<path class="st2" d="M206.43,193.29c0.36-0.68,0.86-1.2,1.5-1.58c0.63-0.37,1.34-0.56,2.12-0.56c0.77,0,1.43,0.17,2,0.5
					c0.57,0.33,0.99,0.75,1.26,1.25v-1.6h1.47v8.77h-1.47v-1.63c-0.29,0.51-0.72,0.94-1.29,1.27c-0.57,0.34-1.24,0.5-1.99,0.5
					c-0.78,0-1.48-0.19-2.11-0.58c-0.63-0.38-1.13-0.92-1.49-1.62c-0.36-0.69-0.54-1.48-0.54-2.37
					C205.89,194.75,206.07,193.97,206.43,193.29z M212.91,193.94c-0.27-0.49-0.63-0.87-1.08-1.13s-0.95-0.39-1.5-0.39
					s-1.04,0.13-1.49,0.38c-0.45,0.26-0.81,0.63-1.07,1.12c-0.27,0.49-0.4,1.07-0.4,1.73c0,0.67,0.13,1.26,0.4,1.75
					s0.62,0.88,1.07,1.14c0.45,0.26,0.94,0.39,1.49,0.39s1.04-0.13,1.5-0.39c0.45-0.26,0.81-0.64,1.08-1.14s0.4-1.07,0.4-1.74
					C213.31,195,213.18,194.43,212.91,193.94z"/>
				<path class="st2" d="M218.55,199.87c-0.53-0.23-0.96-0.55-1.26-0.96c-0.31-0.41-0.48-0.88-0.51-1.42h1.5
					c0.04,0.44,0.25,0.79,0.62,1.07s0.85,0.42,1.45,0.42c0.55,0,0.99-0.12,1.31-0.37s0.48-0.55,0.48-0.93
					c0-0.38-0.17-0.67-0.51-0.86c-0.34-0.19-0.87-0.37-1.58-0.55c-0.65-0.17-1.18-0.34-1.59-0.52c-0.41-0.18-0.76-0.44-1.06-0.78
					c-0.29-0.35-0.44-0.8-0.44-1.37c0-0.45,0.13-0.86,0.4-1.23c0.27-0.37,0.65-0.67,1.14-0.89s1.05-0.33,1.68-0.33
					c0.97,0,1.75,0.25,2.35,0.74c0.6,0.49,0.92,1.16,0.96,2.02h-1.46c-0.03-0.46-0.22-0.83-0.55-1.1s-0.79-0.42-1.35-0.42
					c-0.52,0-0.94,0.11-1.25,0.34c-0.31,0.22-0.46,0.52-0.46,0.88c0,0.29,0.09,0.53,0.28,0.71s0.42,0.34,0.7,0.45
					c0.28,0.11,0.67,0.24,1.18,0.38c0.63,0.17,1.14,0.34,1.54,0.5s0.73,0.41,1.02,0.74c0.28,0.33,0.43,0.76,0.44,1.3
					c0,0.48-0.13,0.91-0.4,1.3s-0.64,0.69-1.13,0.9c-0.49,0.22-1.04,0.33-1.67,0.33C219.68,200.21,219.08,200.1,218.55,199.87z"/>
				<path class="st2" d="M32.21,217.29c0.36-0.68,0.86-1.2,1.5-1.58c0.63-0.37,1.35-0.56,2.14-0.56c0.68,0,1.32,0.16,1.9,0.47
					c0.59,0.32,1.04,0.73,1.34,1.24v-4.64h1.47v11.84h-1.47v-1.65c-0.29,0.52-0.71,0.95-1.28,1.29s-1.23,0.5-1.98,0.5
					c-0.78,0-1.49-0.19-2.12-0.58c-0.63-0.38-1.13-0.92-1.5-1.62c-0.36-0.69-0.54-1.48-0.54-2.37
					C31.67,218.75,31.85,217.97,32.21,217.29z M38.69,217.94c-0.27-0.49-0.63-0.87-1.08-1.13s-0.95-0.39-1.5-0.39
					s-1.04,0.13-1.49,0.38c-0.45,0.26-0.81,0.63-1.07,1.12c-0.27,0.49-0.4,1.07-0.4,1.73c0,0.67,0.13,1.26,0.4,1.75
					s0.62,0.88,1.07,1.14c0.45,0.26,0.94,0.39,1.49,0.39s1.04-0.13,1.5-0.39c0.45-0.26,0.81-0.64,1.08-1.14s0.4-1.07,0.4-1.74
					C39.09,219,38.96,218.43,38.69,217.94z"/>
				<path class="st2" d="M50.98,220.23h-7.01c0.05,0.86,0.35,1.54,0.89,2.02c0.54,0.49,1.19,0.73,1.96,0.73
					c0.63,0,1.15-0.15,1.58-0.44c0.42-0.29,0.72-0.68,0.89-1.18h1.57c-0.23,0.84-0.7,1.53-1.41,2.06c-0.7,0.53-1.58,0.79-2.62,0.79
					c-0.83,0-1.58-0.19-2.23-0.56s-1.17-0.9-1.54-1.59c-0.37-0.69-0.56-1.49-0.56-2.39c0-0.91,0.18-1.7,0.54-2.38
					c0.36-0.68,0.87-1.21,1.53-1.58c0.66-0.37,1.41-0.55,2.26-0.55c0.83,0,1.57,0.18,2.21,0.54c0.64,0.36,1.13,0.86,1.48,1.5
					s0.52,1.35,0.52,2.15C51.03,219.62,51.01,219.92,50.98,220.23z M49.16,217.61c-0.25-0.4-0.58-0.7-1-0.91
					c-0.42-0.21-0.89-0.31-1.4-0.31c-0.74,0-1.36,0.23-1.88,0.7c-0.52,0.47-0.81,1.12-0.89,1.95h5.54
					C49.52,218.49,49.4,218.01,49.16,217.61z"/>
				<path class="st2" d="M58.68,212.23v11.84h-1.46v-11.84H58.68z"/>
				<path class="st2" d="M61.16,217.29c0.36-0.68,0.86-1.2,1.5-1.58c0.63-0.37,1.34-0.56,2.12-0.56c0.77,0,1.43,0.17,2,0.5
					c0.57,0.33,0.99,0.75,1.26,1.25v-1.6h1.47v8.77h-1.47v-1.63c-0.29,0.51-0.72,0.94-1.29,1.27c-0.57,0.34-1.24,0.5-1.99,0.5
					c-0.78,0-1.48-0.19-2.11-0.58c-0.63-0.38-1.13-0.92-1.49-1.62c-0.36-0.69-0.54-1.48-0.54-2.37
					C60.61,218.75,60.79,217.97,61.16,217.29z M67.64,217.94c-0.27-0.49-0.63-0.87-1.08-1.13s-0.95-0.39-1.5-0.39
					s-1.04,0.13-1.49,0.38c-0.45,0.26-0.81,0.63-1.07,1.12c-0.27,0.49-0.4,1.07-0.4,1.73c0,0.67,0.13,1.26,0.4,1.75
					s0.62,0.88,1.07,1.14c0.45,0.26,0.94,0.39,1.49,0.39s1.04-0.13,1.5-0.39c0.45-0.26,0.81-0.64,1.08-1.14s0.4-1.07,0.4-1.74
					C68.04,219,67.9,218.43,67.64,217.94z"/>
				<path class="st2" d="M77.54,223.87c-0.53-0.23-0.96-0.55-1.26-0.96c-0.31-0.41-0.48-0.88-0.51-1.42h1.5
					c0.04,0.44,0.25,0.79,0.62,1.07s0.85,0.42,1.45,0.42c0.55,0,0.99-0.12,1.31-0.37s0.48-0.55,0.48-0.93
					c0-0.38-0.17-0.67-0.51-0.86c-0.34-0.19-0.87-0.37-1.58-0.55c-0.65-0.17-1.18-0.34-1.59-0.52c-0.41-0.18-0.76-0.44-1.06-0.78
					c-0.29-0.35-0.44-0.8-0.44-1.37c0-0.45,0.13-0.86,0.4-1.23c0.27-0.37,0.65-0.67,1.14-0.89s1.05-0.33,1.68-0.33
					c0.97,0,1.75,0.25,2.35,0.74c0.6,0.49,0.92,1.16,0.96,2.02h-1.46c-0.03-0.46-0.22-0.83-0.55-1.1s-0.79-0.42-1.35-0.42
					c-0.52,0-0.94,0.11-1.25,0.34c-0.31,0.22-0.46,0.52-0.46,0.88c0,0.29,0.09,0.53,0.28,0.71s0.42,0.34,0.7,0.45
					c0.28,0.11,0.67,0.24,1.18,0.38c0.63,0.17,1.14,0.34,1.54,0.5s0.73,0.41,1.02,0.74c0.28,0.33,0.43,0.76,0.44,1.3
					c0,0.48-0.13,0.91-0.4,1.3s-0.64,0.69-1.13,0.9c-0.49,0.22-1.04,0.33-1.67,0.33C78.68,224.21,78.07,224.1,77.54,223.87z"/>
				<path class="st2" d="M92.37,215.3v8.77h-1.46v-1.3c-0.28,0.45-0.66,0.8-1.16,1.05c-0.5,0.25-1.04,0.38-1.64,0.38
					c-0.68,0-1.3-0.14-1.84-0.42s-0.97-0.71-1.29-1.27c-0.31-0.56-0.47-1.25-0.47-2.06v-5.14h1.44v4.94c0,0.86,0.22,1.53,0.66,1.99
					s1.03,0.7,1.79,0.7c0.78,0,1.39-0.24,1.84-0.72c0.45-0.48,0.67-1.18,0.67-2.1v-4.82H92.37z"/>
				<path class="st2" d="M97.58,215.66c0.57-0.34,1.24-0.5,1.99-0.5c0.78,0,1.49,0.19,2.12,0.56c0.63,0.37,1.13,0.9,1.5,1.58
					c0.36,0.68,0.54,1.46,0.54,2.36c0,0.89-0.18,1.67-0.54,2.37s-0.86,1.23-1.5,1.62c-0.63,0.38-1.34,0.58-2.12,0.58
					c-0.75,0-1.41-0.17-1.98-0.5c-0.57-0.34-1.01-0.75-1.3-1.26v5.78h-1.46V215.3h1.46v1.62C96.58,216.41,97.01,215.99,97.58,215.66
					z M101.84,217.92c-0.27-0.49-0.63-0.86-1.08-1.12c-0.45-0.26-0.95-0.38-1.5-0.38c-0.53,0-1.03,0.13-1.48,0.39
					c-0.45,0.26-0.82,0.64-1.09,1.14c-0.27,0.5-0.41,1.07-0.41,1.72c0,0.66,0.14,1.24,0.41,1.74c0.27,0.5,0.63,0.88,1.09,1.14
					c0.45,0.26,0.95,0.39,1.48,0.39c0.54,0,1.04-0.13,1.5-0.39c0.45-0.26,0.81-0.64,1.08-1.14s0.4-1.08,0.4-1.75
					C102.24,218.99,102.11,218.41,101.84,217.92z"/>
				<path class="st2" d="M113.6,220.23h-7.01c0.05,0.86,0.35,1.54,0.89,2.02c0.54,0.49,1.19,0.73,1.96,0.73
					c0.63,0,1.15-0.15,1.58-0.44c0.42-0.29,0.72-0.68,0.89-1.18h1.57c-0.23,0.84-0.7,1.53-1.41,2.06c-0.7,0.53-1.58,0.79-2.62,0.79
					c-0.83,0-1.58-0.19-2.23-0.56s-1.17-0.9-1.54-1.59c-0.37-0.69-0.56-1.49-0.56-2.39c0-0.91,0.18-1.7,0.54-2.38
					c0.36-0.68,0.87-1.21,1.53-1.58c0.66-0.37,1.41-0.55,2.26-0.55c0.83,0,1.57,0.18,2.21,0.54c0.64,0.36,1.13,0.86,1.48,1.5
					s0.52,1.35,0.52,2.15C113.65,219.62,113.64,219.92,113.6,220.23z M111.78,217.61c-0.25-0.4-0.58-0.7-1-0.91
					c-0.42-0.21-0.89-0.31-1.4-0.31c-0.74,0-1.36,0.23-1.88,0.7c-0.52,0.47-0.81,1.12-0.89,1.95h5.54
					C112.15,218.49,112.03,218.01,111.78,217.61z"/>
				<path class="st2" d="M118.12,215.55c0.47-0.28,1.05-0.42,1.74-0.42v1.5h-0.38c-1.63,0-2.45,0.89-2.45,2.66v4.77h-1.46v-8.77
					h1.46v1.42C117.28,216.22,117.65,215.83,118.12,215.55z"/>
				<path class="st2" d="M125.11,216.5h-1.84v7.57h-1.46v-7.57h-1.14v-1.2h1.14v-0.62c0-0.98,0.25-1.7,0.76-2.15
					s1.32-0.68,2.44-0.68v1.22c-0.64,0-1.09,0.13-1.35,0.38c-0.26,0.25-0.39,0.66-0.39,1.24v0.62h1.84V216.5z"/>
				<path class="st2" d="M126.85,213.59c-0.19-0.19-0.29-0.43-0.29-0.7s0.1-0.51,0.29-0.7c0.19-0.19,0.43-0.29,0.7-0.29
					c0.27,0,0.49,0.1,0.68,0.29c0.19,0.19,0.28,0.43,0.28,0.7s-0.09,0.51-0.28,0.7c-0.19,0.19-0.41,0.29-0.68,0.29
					C127.28,213.87,127.04,213.78,126.85,213.59z M128.26,215.3v8.77h-1.46v-8.77H128.26z"/>
				<path class="st2" d="M130.74,217.29c0.36-0.68,0.87-1.2,1.51-1.58c0.65-0.37,1.38-0.56,2.22-0.56c1.08,0,1.96,0.26,2.66,0.78
					c0.7,0.52,1.16,1.25,1.38,2.18h-1.57c-0.15-0.53-0.44-0.95-0.87-1.26c-0.43-0.31-0.97-0.46-1.61-0.46
					c-0.83,0-1.5,0.29-2.02,0.86c-0.51,0.57-0.77,1.38-0.77,2.42c0,1.06,0.26,1.87,0.77,2.45c0.51,0.58,1.18,0.86,2.02,0.86
					c0.64,0,1.17-0.15,1.6-0.45s0.72-0.73,0.88-1.28h1.57c-0.23,0.9-0.7,1.61-1.41,2.15c-0.7,0.54-1.58,0.81-2.64,0.81
					c-0.83,0-1.57-0.19-2.22-0.56s-1.15-0.9-1.51-1.58c-0.36-0.68-0.54-1.48-0.54-2.4C130.2,218.76,130.38,217.97,130.74,217.29z"/>
				<path class="st2" d="M140.5,213.59c-0.19-0.19-0.29-0.43-0.29-0.7s0.1-0.51,0.29-0.7c0.19-0.19,0.43-0.29,0.7-0.29
					c0.27,0,0.49,0.1,0.68,0.29c0.19,0.19,0.28,0.43,0.28,0.7s-0.09,0.51-0.28,0.7c-0.19,0.19-0.41,0.29-0.68,0.29
					C140.92,213.87,140.69,213.78,140.5,213.59z M141.91,215.3v8.77h-1.46v-8.77H141.91z"/>
				<path class="st2" d="M152.34,220.23h-7.01c0.05,0.86,0.35,1.54,0.89,2.02c0.54,0.49,1.19,0.73,1.96,0.73
					c0.63,0,1.15-0.15,1.58-0.44c0.42-0.29,0.72-0.68,0.89-1.18h1.57c-0.23,0.84-0.7,1.53-1.41,2.06c-0.7,0.53-1.58,0.79-2.62,0.79
					c-0.83,0-1.58-0.19-2.23-0.56s-1.17-0.9-1.54-1.59c-0.37-0.69-0.56-1.49-0.56-2.39c0-0.91,0.18-1.7,0.54-2.38
					c0.36-0.68,0.87-1.21,1.53-1.58c0.66-0.37,1.41-0.55,2.26-0.55c0.83,0,1.57,0.18,2.21,0.54c0.64,0.36,1.13,0.86,1.48,1.5
					s0.52,1.35,0.52,2.15C152.39,219.62,152.37,219.92,152.34,220.23z M150.51,217.61c-0.25-0.4-0.58-0.7-1-0.91
					c-0.42-0.21-0.89-0.31-1.4-0.31c-0.74,0-1.36,0.23-1.88,0.7c-0.52,0.47-0.81,1.12-0.89,1.95h5.54
					C150.88,218.49,150.76,218.01,150.51,217.61z"/>
				<path class="st2" d="M158.58,217.29c0.36-0.68,0.86-1.2,1.5-1.58c0.63-0.37,1.35-0.56,2.14-0.56c0.68,0,1.32,0.16,1.9,0.47
					c0.59,0.32,1.04,0.73,1.34,1.24v-4.64h1.47v11.84h-1.47v-1.65c-0.29,0.52-0.71,0.95-1.28,1.29s-1.23,0.5-1.98,0.5
					c-0.78,0-1.49-0.19-2.12-0.58c-0.63-0.38-1.13-0.92-1.5-1.62c-0.36-0.69-0.54-1.48-0.54-2.37
					C158.03,218.75,158.21,217.97,158.58,217.29z M165.06,217.94c-0.27-0.49-0.63-0.87-1.08-1.13s-0.95-0.39-1.5-0.39
					s-1.04,0.13-1.49,0.38c-0.45,0.26-0.81,0.63-1.07,1.12c-0.27,0.49-0.4,1.07-0.4,1.73c0,0.67,0.13,1.26,0.4,1.75
					s0.62,0.88,1.07,1.14c0.45,0.26,0.94,0.39,1.49,0.39s1.04-0.13,1.5-0.39c0.45-0.26,0.81-0.64,1.08-1.14s0.4-1.07,0.4-1.74
					C165.46,219,165.32,218.43,165.06,217.94z"/>
				<path class="st2" d="M177.35,220.23h-7.01c0.05,0.86,0.35,1.54,0.89,2.02c0.54,0.49,1.19,0.73,1.96,0.73
					c0.63,0,1.15-0.15,1.58-0.44c0.42-0.29,0.72-0.68,0.89-1.18h1.57c-0.23,0.84-0.7,1.53-1.41,2.06c-0.7,0.53-1.58,0.79-2.62,0.79
					c-0.83,0-1.58-0.19-2.23-0.56s-1.17-0.9-1.54-1.59c-0.37-0.69-0.56-1.49-0.56-2.39c0-0.91,0.18-1.7,0.54-2.38
					c0.36-0.68,0.87-1.21,1.53-1.58c0.66-0.37,1.41-0.55,2.26-0.55c0.83,0,1.57,0.18,2.21,0.54c0.64,0.36,1.13,0.86,1.48,1.5
					s0.52,1.35,0.52,2.15C177.39,219.62,177.38,219.92,177.35,220.23z M175.52,217.61c-0.25-0.4-0.58-0.7-1-0.91
					c-0.42-0.21-0.89-0.31-1.4-0.31c-0.74,0-1.36,0.23-1.88,0.7c-0.52,0.47-0.81,1.12-0.89,1.95h5.54
					C175.89,218.49,175.77,218.01,175.52,217.61z"/>
				<path class="st2" d="M180.77,212.23v11.84h-1.46v-11.84H180.77z"/>
				<path class="st2" d="M187.52,217.29c0.36-0.68,0.87-1.2,1.51-1.58c0.65-0.37,1.38-0.56,2.22-0.56c1.08,0,1.96,0.26,2.66,0.78
					c0.7,0.52,1.16,1.25,1.38,2.18h-1.57c-0.15-0.53-0.44-0.95-0.87-1.26c-0.43-0.31-0.97-0.46-1.61-0.46
					c-0.83,0-1.5,0.29-2.02,0.86c-0.51,0.57-0.77,1.38-0.77,2.42c0,1.06,0.26,1.87,0.77,2.45c0.51,0.58,1.18,0.86,2.02,0.86
					c0.64,0,1.17-0.15,1.6-0.45s0.72-0.73,0.88-1.28h1.57c-0.23,0.9-0.7,1.61-1.41,2.15c-0.7,0.54-1.58,0.81-2.64,0.81
					c-0.83,0-1.57-0.19-2.22-0.56s-1.15-0.9-1.51-1.58c-0.36-0.68-0.54-1.48-0.54-2.4C186.98,218.76,187.16,217.97,187.52,217.29z"
					/>
				<path class="st2" d="M205.01,215.3v8.77h-1.46v-1.3c-0.28,0.45-0.66,0.8-1.16,1.05c-0.5,0.25-1.04,0.38-1.64,0.38
					c-0.68,0-1.3-0.14-1.84-0.42s-0.97-0.71-1.29-1.27c-0.31-0.56-0.47-1.25-0.47-2.06v-5.14h1.44v4.94c0,0.86,0.22,1.53,0.66,1.99
					s1.03,0.7,1.79,0.7c0.78,0,1.39-0.24,1.84-0.72c0.45-0.48,0.67-1.18,0.67-2.1v-4.82H205.01z"/>
				<path class="st2" d="M215.42,220.23h-7.01c0.05,0.86,0.35,1.54,0.89,2.02c0.54,0.49,1.19,0.73,1.96,0.73
					c0.63,0,1.15-0.15,1.58-0.44c0.42-0.29,0.72-0.68,0.89-1.18h1.57c-0.23,0.84-0.7,1.53-1.41,2.06c-0.7,0.53-1.58,0.79-2.62,0.79
					c-0.83,0-1.58-0.19-2.23-0.56s-1.17-0.9-1.54-1.59c-0.37-0.69-0.56-1.49-0.56-2.39c0-0.91,0.18-1.7,0.54-2.38
					c0.36-0.68,0.87-1.21,1.53-1.58c0.66-0.37,1.41-0.55,2.26-0.55c0.83,0,1.57,0.18,2.21,0.54c0.64,0.36,1.13,0.86,1.48,1.5
					s0.52,1.35,0.52,2.15C215.47,219.62,215.46,219.92,215.42,220.23z M213.6,217.61c-0.25-0.4-0.58-0.7-1-0.91
					c-0.42-0.21-0.89-0.31-1.4-0.31c-0.74,0-1.36,0.23-1.88,0.7c-0.52,0.47-0.81,1.12-0.89,1.95h5.54
					C213.97,218.49,213.85,218.01,213.6,217.61z"/>
				<path class="st2" d="M218.85,212.23v11.84h-1.46v-11.84H218.85z"/>
				<path class="st2" d="M222.79,212.23v11.84h-1.46v-11.84H222.79z"/>
				<path class="st2" d="M226.86,223.65c-0.67-0.37-1.19-0.9-1.57-1.59c-0.38-0.69-0.57-1.49-0.57-2.39c0-0.9,0.19-1.69,0.58-2.38
					c0.39-0.69,0.92-1.22,1.59-1.58c0.67-0.37,1.42-0.55,2.26-0.55s1.58,0.18,2.26,0.55c0.67,0.37,1.2,0.89,1.59,1.58
					s0.58,1.48,0.58,2.38c0,0.91-0.2,1.7-0.6,2.39c-0.4,0.69-0.94,1.22-1.62,1.59s-1.44,0.56-2.27,0.56
					C228.27,224.21,227.52,224.02,226.86,223.65z M230.56,222.56c0.46-0.25,0.83-0.61,1.11-1.1c0.28-0.49,0.42-1.09,0.42-1.79
					c0-0.7-0.14-1.3-0.42-1.79c-0.28-0.49-0.64-0.86-1.09-1.1c-0.45-0.24-0.93-0.36-1.46-0.36c-0.53,0-1.02,0.12-1.46,0.36
					s-0.8,0.61-1.06,1.1c-0.27,0.49-0.4,1.09-0.4,1.79c0,0.71,0.13,1.32,0.39,1.81c0.26,0.49,0.61,0.86,1.05,1.1
					s0.92,0.36,1.44,0.36S230.1,222.81,230.56,222.56z"/>
				<path class="st2" d="M68.72,239.3v8.77h-1.46v-1.3c-0.28,0.45-0.66,0.8-1.16,1.05c-0.5,0.25-1.04,0.38-1.64,0.38
					c-0.68,0-1.3-0.14-1.84-0.42s-0.97-0.71-1.29-1.27c-0.31-0.56-0.47-1.25-0.47-2.06v-5.14h1.44v4.94c0,0.86,0.22,1.53,0.66,1.99
					s1.03,0.7,1.79,0.7c0.78,0,1.39-0.24,1.84-0.72c0.45-0.48,0.67-1.18,0.67-2.1v-4.82H68.72z"/>
				<path class="st2" d="M72.96,240.5v5.17c0,0.43,0.09,0.73,0.27,0.9c0.18,0.18,0.5,0.26,0.94,0.26h1.07v1.23h-1.31
					c-0.81,0-1.42-0.19-1.82-0.56c-0.41-0.37-0.61-0.99-0.61-1.84v-5.17h-1.14v-1.2h1.14v-2.21h1.46v2.21h2.29v1.2H72.96z"/>
				<path class="st2" d="M84.96,244.23h-7.01c0.05,0.86,0.35,1.54,0.89,2.02c0.54,0.49,1.19,0.73,1.96,0.73
					c0.63,0,1.15-0.15,1.58-0.44c0.42-0.29,0.72-0.68,0.89-1.18h1.57c-0.23,0.84-0.7,1.53-1.41,2.06c-0.7,0.53-1.58,0.79-2.62,0.79
					c-0.83,0-1.58-0.19-2.23-0.56s-1.17-0.9-1.54-1.59c-0.37-0.69-0.56-1.49-0.56-2.39c0-0.91,0.18-1.7,0.54-2.38
					c0.36-0.68,0.87-1.21,1.53-1.58c0.66-0.37,1.41-0.55,2.26-0.55c0.83,0,1.57,0.18,2.21,0.54c0.64,0.36,1.13,0.86,1.48,1.5
					s0.52,1.35,0.52,2.15C85.01,243.62,85,243.92,84.96,244.23z M83.14,241.61c-0.25-0.4-0.58-0.7-1-0.91
					c-0.42-0.21-0.89-0.31-1.4-0.31c-0.74,0-1.36,0.23-1.88,0.7c-0.52,0.47-0.81,1.12-0.89,1.95h5.54
					C83.51,242.49,83.39,242.01,83.14,241.61z"/>
				<path class="st2" d="M89.49,239.55c0.47-0.28,1.05-0.42,1.74-0.42v1.5h-0.38c-1.63,0-2.45,0.89-2.45,2.66v4.77h-1.46v-8.77h1.46
					v1.42C88.65,240.22,89.01,239.83,89.49,239.55z"/>
				<path class="st2" d="M92.95,237.59c-0.19-0.19-0.29-0.43-0.29-0.7s0.1-0.51,0.29-0.7c0.19-0.19,0.43-0.29,0.7-0.29
					c0.27,0,0.49,0.1,0.68,0.29c0.19,0.19,0.28,0.43,0.28,0.7s-0.09,0.51-0.28,0.7c-0.19,0.19-0.41,0.29-0.68,0.29
					C93.37,237.87,93.14,237.78,92.95,237.59z M94.36,239.3v8.77H92.9v-8.77H94.36z"/>
				<path class="st2" d="M103.7,240.11c0.66,0.65,0.99,1.58,0.99,2.79v5.17h-1.44v-4.96c0-0.88-0.22-1.54-0.66-2.01
					s-1.04-0.7-1.79-0.7c-0.77,0-1.38,0.24-1.83,0.72c-0.45,0.48-0.68,1.18-0.68,2.1v4.85h-1.46v-8.77h1.46v1.25
					c0.29-0.45,0.68-0.79,1.18-1.04c0.5-0.25,1.04-0.37,1.64-0.37C102.17,239.14,103.04,239.46,103.7,240.11z"/>
				<path class="st2" d="M108.67,247.65c-0.67-0.37-1.19-0.9-1.57-1.59c-0.38-0.69-0.57-1.49-0.57-2.39c0-0.9,0.19-1.69,0.58-2.38
					c0.39-0.69,0.92-1.22,1.59-1.58c0.67-0.37,1.42-0.55,2.26-0.55s1.58,0.18,2.26,0.55c0.67,0.37,1.2,0.89,1.59,1.58
					s0.58,1.48,0.58,2.38c0,0.91-0.2,1.7-0.6,2.39c-0.4,0.69-0.94,1.22-1.62,1.59s-1.44,0.56-2.27,0.56
					C110.08,248.21,109.33,248.02,108.67,247.65z M112.37,246.56c0.46-0.25,0.83-0.61,1.11-1.1c0.28-0.49,0.42-1.09,0.42-1.79
					c0-0.7-0.14-1.3-0.42-1.79c-0.28-0.49-0.64-0.86-1.09-1.1c-0.45-0.24-0.93-0.36-1.46-0.36c-0.53,0-1.02,0.12-1.46,0.36
					s-0.8,0.61-1.06,1.1c-0.27,0.49-0.4,1.09-0.4,1.79c0,0.71,0.13,1.32,0.39,1.81c0.26,0.49,0.61,0.86,1.05,1.1
					s0.92,0.36,1.44,0.36S111.91,246.81,112.37,246.56z"/>
				<path class="st2" d="M121.59,241.29c0.36-0.68,0.86-1.2,1.5-1.58c0.63-0.37,1.35-0.56,2.14-0.56c0.76,0,1.42,0.17,1.99,0.5
					c0.57,0.34,0.99,0.75,1.26,1.24v-1.6h1.47v12.93h-1.47v-5.78c-0.28,0.49-0.7,0.91-1.28,1.25c-0.58,0.34-1.25,0.51-2.02,0.51
					c-0.77,0-1.47-0.19-2.1-0.58c-0.63-0.38-1.13-0.92-1.49-1.62c-0.36-0.69-0.54-1.48-0.54-2.37
					C121.05,242.75,121.23,241.97,121.59,241.29z M128.07,241.94c-0.27-0.49-0.63-0.87-1.08-1.13s-0.95-0.39-1.5-0.39
					s-1.04,0.13-1.49,0.38c-0.45,0.26-0.81,0.63-1.07,1.12c-0.27,0.49-0.4,1.07-0.4,1.73c0,0.67,0.13,1.26,0.4,1.75
					s0.62,0.88,1.07,1.14c0.45,0.26,0.94,0.39,1.49,0.39s1.04-0.13,1.5-0.39c0.45-0.26,0.81-0.64,1.08-1.14
					c0.27-0.5,0.4-1.07,0.4-1.74C128.47,243,128.34,242.43,128.07,241.94z"/>
				<path class="st2" d="M140.18,239.3v8.77h-1.46v-1.3c-0.28,0.45-0.66,0.8-1.16,1.05c-0.5,0.25-1.04,0.38-1.64,0.38
					c-0.68,0-1.3-0.14-1.84-0.42s-0.97-0.71-1.29-1.27c-0.31-0.56-0.47-1.25-0.47-2.06v-5.14h1.44v4.94c0,0.86,0.22,1.53,0.66,1.99
					s1.03,0.7,1.79,0.7c0.78,0,1.39-0.24,1.84-0.72c0.45-0.48,0.67-1.18,0.67-2.1v-4.82H140.18z"/>
				<path class="st2" d="M150.6,244.23h-7.01c0.05,0.86,0.35,1.54,0.89,2.02c0.54,0.49,1.19,0.73,1.96,0.73
					c0.63,0,1.15-0.15,1.58-0.44c0.42-0.29,0.72-0.68,0.89-1.18h1.57c-0.23,0.84-0.7,1.53-1.41,2.06c-0.7,0.53-1.58,0.79-2.62,0.79
					c-0.83,0-1.58-0.19-2.23-0.56s-1.17-0.9-1.54-1.59c-0.37-0.69-0.56-1.49-0.56-2.39c0-0.91,0.18-1.7,0.54-2.38
					c0.36-0.68,0.87-1.21,1.53-1.58c0.66-0.37,1.41-0.55,2.26-0.55c0.83,0,1.57,0.18,2.21,0.54c0.64,0.36,1.13,0.86,1.48,1.5
					s0.52,1.35,0.52,2.15C150.65,243.62,150.63,243.92,150.6,244.23z M148.77,241.61c-0.25-0.4-0.58-0.7-1-0.91
					c-0.42-0.21-0.89-0.31-1.4-0.31c-0.74,0-1.36,0.23-1.88,0.7c-0.52,0.47-0.81,1.12-0.89,1.95h5.54
					C149.14,242.49,149.02,242.01,148.77,241.61z"/>
				<path class="st2" d="M159.61,239.65c0.58-0.33,1.23-0.5,1.97-0.5c0.79,0,1.5,0.19,2.13,0.56c0.63,0.37,1.13,0.9,1.49,1.58
					c0.36,0.68,0.54,1.46,0.54,2.36c0,0.89-0.18,1.67-0.54,2.37s-0.86,1.23-1.5,1.62c-0.63,0.38-1.34,0.58-2.12,0.58
					c-0.76,0-1.42-0.17-1.99-0.5c-0.57-0.33-1-0.75-1.29-1.26v1.62h-1.46v-11.84h1.46v4.7
					C158.59,240.41,159.03,239.98,159.61,239.65z M163.85,241.92c-0.27-0.49-0.63-0.86-1.08-1.12c-0.45-0.26-0.95-0.38-1.5-0.38
					c-0.53,0-1.03,0.13-1.48,0.39c-0.45,0.26-0.82,0.64-1.09,1.14c-0.27,0.5-0.41,1.07-0.41,1.72c0,0.66,0.14,1.24,0.41,1.74
					c0.27,0.5,0.63,0.88,1.09,1.14c0.45,0.26,0.95,0.39,1.48,0.39c0.54,0,1.04-0.13,1.5-0.39c0.45-0.26,0.81-0.64,1.08-1.14
					s0.4-1.08,0.4-1.75C164.24,242.99,164.11,242.41,163.85,241.92z"/>
				<path class="st2" d="M175.43,239.3v8.77h-1.46v-1.3c-0.28,0.45-0.66,0.8-1.16,1.05c-0.5,0.25-1.04,0.38-1.64,0.38
					c-0.68,0-1.3-0.14-1.84-0.42s-0.97-0.71-1.29-1.27c-0.31-0.56-0.47-1.25-0.47-2.06v-5.14h1.44v4.94c0,0.86,0.22,1.53,0.66,1.99
					s1.03,0.7,1.79,0.7c0.78,0,1.39-0.24,1.84-0.72c0.45-0.48,0.67-1.18,0.67-2.1v-4.82H175.43z"/>
				<path class="st2" d="M179.19,247.87c-0.53-0.23-0.96-0.55-1.26-0.96c-0.31-0.41-0.48-0.88-0.51-1.42h1.5
					c0.04,0.44,0.25,0.79,0.62,1.07s0.85,0.42,1.45,0.42c0.55,0,0.99-0.12,1.31-0.37s0.48-0.55,0.48-0.93
					c0-0.38-0.17-0.67-0.51-0.86c-0.34-0.19-0.87-0.37-1.58-0.55c-0.65-0.17-1.18-0.34-1.59-0.52c-0.41-0.18-0.76-0.44-1.06-0.78
					c-0.29-0.35-0.44-0.8-0.44-1.37c0-0.45,0.13-0.86,0.4-1.23c0.27-0.37,0.65-0.67,1.14-0.89s1.05-0.33,1.68-0.33
					c0.97,0,1.75,0.25,2.35,0.74c0.6,0.49,0.92,1.16,0.96,2.02h-1.46c-0.03-0.46-0.22-0.83-0.55-1.1s-0.79-0.42-1.35-0.42
					c-0.52,0-0.94,0.11-1.25,0.34c-0.31,0.22-0.46,0.52-0.46,0.88c0,0.29,0.09,0.53,0.28,0.71s0.42,0.34,0.7,0.45
					c0.28,0.11,0.67,0.24,1.18,0.38c0.63,0.17,1.14,0.34,1.54,0.5s0.73,0.41,1.02,0.74c0.28,0.33,0.43,0.76,0.44,1.3
					c0,0.48-0.13,0.91-0.4,1.3s-0.64,0.69-1.13,0.9c-0.49,0.22-1.04,0.33-1.67,0.33C180.33,248.21,179.72,248.1,179.19,247.87z"/>
				<path class="st2" d="M186.25,241.29c0.36-0.68,0.87-1.2,1.51-1.58c0.65-0.37,1.38-0.56,2.22-0.56c1.08,0,1.96,0.26,2.66,0.78
					c0.7,0.52,1.16,1.25,1.38,2.18h-1.57c-0.15-0.53-0.44-0.95-0.87-1.26c-0.43-0.31-0.97-0.46-1.61-0.46
					c-0.83,0-1.5,0.29-2.02,0.86c-0.51,0.57-0.77,1.38-0.77,2.42c0,1.06,0.26,1.87,0.77,2.45c0.51,0.58,1.18,0.86,2.02,0.86
					c0.64,0,1.17-0.15,1.6-0.45s0.72-0.73,0.88-1.28h1.57c-0.23,0.9-0.7,1.61-1.41,2.15c-0.7,0.54-1.58,0.81-2.64,0.81
					c-0.83,0-1.57-0.19-2.22-0.56s-1.15-0.9-1.51-1.58c-0.36-0.68-0.54-1.48-0.54-2.4C185.7,242.76,185.88,241.97,186.25,241.29z"/>
				<path class="st2" d="M195.96,241.29c0.36-0.68,0.86-1.2,1.5-1.58c0.63-0.37,1.34-0.56,2.12-0.56c0.77,0,1.43,0.17,2,0.5
					c0.57,0.33,0.99,0.75,1.26,1.25v-1.6h1.47v8.77h-1.47v-1.63c-0.29,0.51-0.72,0.94-1.29,1.27c-0.57,0.34-1.24,0.5-1.99,0.5
					c-0.78,0-1.48-0.19-2.11-0.58c-0.63-0.38-1.13-0.92-1.49-1.62c-0.36-0.69-0.54-1.48-0.54-2.37
					C195.41,242.75,195.59,241.97,195.96,241.29z M202.44,241.94c-0.27-0.49-0.63-0.87-1.08-1.13s-0.95-0.39-1.5-0.39
					s-1.04,0.13-1.49,0.38c-0.45,0.26-0.81,0.63-1.07,1.12c-0.27,0.49-0.4,1.07-0.4,1.73c0,0.67,0.13,1.26,0.4,1.75
					s0.62,0.88,1.07,1.14c0.45,0.26,0.94,0.39,1.49,0.39s1.04-0.13,1.5-0.39c0.45-0.26,0.81-0.64,1.08-1.14s0.4-1.07,0.4-1.74
					C202.84,243,202.7,242.43,202.44,241.94z"/>
				<path class="st2" d="M35.33,265.29c0.36-0.68,0.87-1.2,1.51-1.58c0.65-0.37,1.38-0.56,2.22-0.56c1.08,0,1.96,0.26,2.66,0.78
					c0.7,0.52,1.16,1.25,1.38,2.18h-1.57c-0.15-0.53-0.44-0.95-0.87-1.26c-0.43-0.31-0.97-0.46-1.61-0.46
					c-0.83,0-1.5,0.29-2.02,0.86c-0.51,0.57-0.77,1.38-0.77,2.42c0,1.06,0.26,1.87,0.77,2.45c0.51,0.58,1.18,0.86,2.02,0.86
					c0.64,0,1.17-0.15,1.6-0.45s0.72-0.73,0.88-1.28h1.57c-0.23,0.9-0.7,1.61-1.41,2.15c-0.7,0.54-1.58,0.81-2.64,0.81
					c-0.83,0-1.57-0.19-2.22-0.56s-1.15-0.9-1.51-1.58c-0.36-0.68-0.54-1.48-0.54-2.4C34.79,266.76,34.97,265.97,35.33,265.29z"/>
				<path class="st2" d="M45.04,265.29c0.36-0.68,0.86-1.2,1.5-1.58c0.63-0.37,1.34-0.56,2.12-0.56c0.77,0,1.43,0.17,2,0.5
					c0.57,0.33,0.99,0.75,1.26,1.25v-1.6h1.47v8.77h-1.47v-1.63c-0.29,0.51-0.72,0.94-1.29,1.27c-0.57,0.34-1.24,0.5-1.99,0.5
					c-0.78,0-1.48-0.19-2.11-0.58c-0.63-0.38-1.13-0.92-1.49-1.62c-0.36-0.69-0.54-1.48-0.54-2.37
					C44.5,266.75,44.68,265.97,45.04,265.29z M51.52,265.94c-0.27-0.49-0.63-0.87-1.08-1.13s-0.95-0.39-1.5-0.39
					s-1.04,0.13-1.49,0.38c-0.45,0.26-0.81,0.63-1.07,1.12c-0.27,0.49-0.4,1.07-0.4,1.73c0,0.67,0.13,1.26,0.4,1.75
					s0.62,0.88,1.07,1.14c0.45,0.26,0.94,0.39,1.49,0.39s1.04-0.13,1.5-0.39c0.45-0.26,0.81-0.64,1.08-1.14s0.4-1.07,0.4-1.74
					C51.92,267,51.79,266.43,51.52,265.94z"/>
				<path class="st2" d="M68.23,263.56c0.53,0.28,0.96,0.71,1.26,1.27c0.31,0.57,0.46,1.25,0.46,2.06v5.17h-1.44v-4.96
					c0-0.88-0.22-1.54-0.65-2.01c-0.43-0.46-1.02-0.7-1.75-0.7c-0.76,0-1.36,0.24-1.81,0.73c-0.45,0.49-0.67,1.19-0.67,2.1v4.83
					H62.2v-4.96c0-0.88-0.22-1.54-0.65-2.01s-1.02-0.7-1.75-0.7c-0.76,0-1.36,0.24-1.81,0.73c-0.45,0.49-0.67,1.19-0.67,2.1v4.83
					h-1.46v-8.77h1.46v1.26c0.29-0.46,0.67-0.81,1.16-1.06c0.49-0.25,1.02-0.37,1.61-0.37c0.74,0,1.39,0.17,1.95,0.5
					c0.57,0.33,0.99,0.82,1.26,1.46c0.25-0.62,0.65-1.1,1.22-1.44c0.57-0.34,1.19-0.51,1.89-0.51
					C67.09,263.14,67.7,263.28,68.23,263.56z"/>
				<path class="st2" d="M75.11,263.65c0.58-0.33,1.23-0.5,1.97-0.5c0.79,0,1.5,0.19,2.13,0.56c0.63,0.37,1.13,0.9,1.49,1.58
					c0.36,0.68,0.54,1.46,0.54,2.36c0,0.89-0.18,1.67-0.54,2.37s-0.86,1.23-1.5,1.62c-0.63,0.38-1.34,0.58-2.12,0.58
					c-0.76,0-1.42-0.17-1.99-0.5c-0.57-0.33-1-0.75-1.29-1.26v1.62h-1.46v-11.84h1.46v4.7C74.1,264.41,74.53,263.98,75.11,263.65z
					 M79.35,265.92c-0.27-0.49-0.63-0.86-1.08-1.12c-0.45-0.26-0.95-0.38-1.5-0.38c-0.53,0-1.03,0.13-1.48,0.39
					c-0.45,0.26-0.82,0.64-1.09,1.14c-0.27,0.5-0.41,1.07-0.41,1.72c0,0.66,0.14,1.24,0.41,1.74c0.27,0.5,0.63,0.88,1.09,1.14
					c0.45,0.26,0.95,0.39,1.48,0.39c0.54,0,1.04-0.13,1.5-0.39c0.45-0.26,0.81-0.64,1.08-1.14s0.4-1.08,0.4-1.75
					C79.75,266.99,79.62,266.41,79.35,265.92z"/>
				<path class="st2" d="M83.21,261.59c-0.19-0.19-0.29-0.43-0.29-0.7s0.1-0.51,0.29-0.7c0.19-0.19,0.43-0.29,0.7-0.29
					c0.27,0,0.49,0.1,0.68,0.29c0.19,0.19,0.28,0.43,0.28,0.7s-0.09,0.51-0.28,0.7c-0.19,0.19-0.41,0.29-0.68,0.29
					C83.63,261.87,83.4,261.78,83.21,261.59z M84.61,263.3v8.77h-1.46v-8.77H84.61z"/>
				<path class="st2" d="M88.69,271.65c-0.67-0.37-1.19-0.9-1.57-1.59c-0.38-0.69-0.57-1.49-0.57-2.39c0-0.9,0.19-1.69,0.58-2.38
					c0.39-0.69,0.92-1.22,1.59-1.58c0.67-0.37,1.42-0.55,2.26-0.55s1.58,0.18,2.26,0.55c0.67,0.37,1.2,0.89,1.59,1.58
					s0.58,1.48,0.58,2.38c0,0.91-0.2,1.7-0.6,2.39c-0.4,0.69-0.94,1.22-1.62,1.59s-1.44,0.56-2.27,0.56
					C90.1,272.21,89.35,272.02,88.69,271.65z M92.39,270.56c0.46-0.25,0.83-0.61,1.11-1.1c0.28-0.49,0.42-1.09,0.42-1.79
					c0-0.7-0.14-1.3-0.42-1.79c-0.28-0.49-0.64-0.86-1.09-1.1c-0.45-0.24-0.93-0.36-1.46-0.36c-0.53,0-1.02,0.12-1.46,0.36
					s-0.8,0.61-1.06,1.1c-0.27,0.49-0.4,1.09-0.4,1.79c0,0.71,0.13,1.32,0.39,1.81c0.26,0.49,0.61,0.86,1.05,1.1
					s0.92,0.36,1.44,0.36S91.93,270.81,92.39,270.56z"/>
				<path class="st2" d="M98.63,271.87c-0.53-0.23-0.96-0.55-1.26-0.96c-0.31-0.41-0.48-0.88-0.51-1.42h1.5
					c0.04,0.44,0.25,0.79,0.62,1.07s0.85,0.42,1.45,0.42c0.55,0,0.99-0.12,1.31-0.37s0.48-0.55,0.48-0.93
					c0-0.38-0.17-0.67-0.51-0.86c-0.34-0.19-0.87-0.37-1.58-0.55c-0.65-0.17-1.18-0.34-1.59-0.52c-0.41-0.18-0.76-0.44-1.06-0.78
					c-0.29-0.35-0.44-0.8-0.44-1.37c0-0.45,0.13-0.86,0.4-1.23c0.27-0.37,0.65-0.67,1.14-0.89s1.05-0.33,1.68-0.33
					c0.97,0,1.75,0.25,2.35,0.74c0.6,0.49,0.92,1.16,0.96,2.02h-1.46c-0.03-0.46-0.22-0.83-0.55-1.1s-0.79-0.42-1.35-0.42
					c-0.52,0-0.94,0.11-1.25,0.34c-0.31,0.22-0.46,0.52-0.46,0.88c0,0.29,0.09,0.53,0.28,0.71s0.42,0.34,0.7,0.45
					c0.28,0.11,0.67,0.24,1.18,0.38c0.63,0.17,1.14,0.34,1.54,0.5s0.73,0.41,1.02,0.74c0.28,0.33,0.43,0.76,0.44,1.3
					c0,0.48-0.13,0.91-0.4,1.3s-0.64,0.69-1.13,0.9c-0.49,0.22-1.04,0.33-1.67,0.33C99.77,272.21,99.16,272.1,98.63,271.87z"/>
				<path class="st2" d="M112.7,263.66c0.57-0.34,1.24-0.5,1.99-0.5c0.78,0,1.49,0.19,2.12,0.56c0.63,0.37,1.13,0.9,1.5,1.58
					c0.36,0.68,0.54,1.46,0.54,2.36c0,0.89-0.18,1.67-0.54,2.37s-0.86,1.23-1.5,1.62c-0.63,0.38-1.34,0.58-2.12,0.58
					c-0.75,0-1.41-0.17-1.98-0.5c-0.57-0.34-1.01-0.75-1.3-1.26v5.78h-1.46V263.3h1.46v1.62
					C111.7,264.41,112.13,263.99,112.7,263.66z M116.96,265.92c-0.27-0.49-0.63-0.86-1.08-1.12c-0.45-0.26-0.95-0.38-1.5-0.38
					c-0.53,0-1.03,0.13-1.48,0.39c-0.45,0.26-0.82,0.64-1.09,1.14c-0.27,0.5-0.41,1.07-0.41,1.72c0,0.66,0.14,1.24,0.41,1.74
					c0.27,0.5,0.63,0.88,1.09,1.14c0.45,0.26,0.95,0.39,1.48,0.39c0.54,0,1.04-0.13,1.5-0.39c0.45-0.26,0.81-0.64,1.08-1.14
					s0.4-1.08,0.4-1.75C117.36,266.99,117.23,266.41,116.96,265.92z"/>
				<path class="st2" d="M123.33,263.55c0.47-0.28,1.05-0.42,1.74-0.42v1.5h-0.38c-1.63,0-2.45,0.89-2.45,2.66v4.77h-1.46v-8.77
					h1.46v1.42C122.49,264.22,122.85,263.83,123.33,263.55z"/>
				<path class="st2" d="M128.33,271.65c-0.67-0.37-1.19-0.9-1.57-1.59c-0.38-0.69-0.57-1.49-0.57-2.39c0-0.9,0.19-1.69,0.58-2.38
					c0.39-0.69,0.92-1.22,1.59-1.58c0.67-0.37,1.42-0.55,2.26-0.55s1.58,0.18,2.26,0.55c0.67,0.37,1.2,0.89,1.59,1.58
					s0.58,1.48,0.58,2.38c0,0.91-0.2,1.7-0.6,2.39c-0.4,0.69-0.94,1.22-1.62,1.59s-1.44,0.56-2.27,0.56
					C129.74,272.21,129,272.02,128.33,271.65z M132.04,270.56c0.46-0.25,0.83-0.61,1.11-1.1c0.28-0.49,0.42-1.09,0.42-1.79
					c0-0.7-0.14-1.3-0.42-1.79c-0.28-0.49-0.64-0.86-1.09-1.1c-0.45-0.24-0.93-0.36-1.46-0.36c-0.53,0-1.02,0.12-1.46,0.36
					s-0.8,0.61-1.06,1.1c-0.27,0.49-0.4,1.09-0.4,1.79c0,0.71,0.13,1.32,0.39,1.81c0.26,0.49,0.61,0.86,1.05,1.1
					s0.92,0.36,1.44,0.36S131.58,270.81,132.04,270.56z"/>
				<path class="st2" d="M136.98,265.29c0.36-0.68,0.86-1.2,1.5-1.58c0.63-0.37,1.35-0.56,2.14-0.56c0.68,0,1.32,0.16,1.9,0.47
					c0.59,0.32,1.04,0.73,1.34,1.24v-4.64h1.47v11.84h-1.47v-1.65c-0.29,0.52-0.71,0.95-1.28,1.29s-1.23,0.5-1.98,0.5
					c-0.78,0-1.49-0.19-2.12-0.58c-0.63-0.38-1.13-0.92-1.5-1.62c-0.36-0.69-0.54-1.48-0.54-2.37
					C136.44,266.75,136.62,265.97,136.98,265.29z M143.46,265.94c-0.27-0.49-0.63-0.87-1.08-1.13s-0.95-0.39-1.5-0.39
					s-1.04,0.13-1.49,0.38c-0.45,0.26-0.81,0.63-1.07,1.12c-0.27,0.49-0.4,1.07-0.4,1.73c0,0.67,0.13,1.26,0.4,1.75
					s0.62,0.88,1.07,1.14c0.45,0.26,0.94,0.39,1.49,0.39s1.04-0.13,1.5-0.39c0.45-0.26,0.81-0.64,1.08-1.14s0.4-1.07,0.4-1.74
					C143.86,267,143.73,266.43,143.46,265.94z"/>
				<path class="st2" d="M155.57,263.3v8.77h-1.46v-1.3c-0.28,0.45-0.66,0.8-1.16,1.05c-0.5,0.25-1.04,0.38-1.64,0.38
					c-0.68,0-1.3-0.14-1.84-0.42s-0.97-0.71-1.29-1.27c-0.31-0.56-0.47-1.25-0.47-2.06v-5.14h1.44v4.94c0,0.86,0.22,1.53,0.66,1.99
					s1.03,0.7,1.79,0.7c0.78,0,1.39-0.24,1.84-0.72c0.45-0.48,0.67-1.18,0.67-2.1v-4.82H155.57z"/>
				<path class="st2" d="M158.04,265.29c0.36-0.68,0.87-1.2,1.51-1.58c0.65-0.37,1.38-0.56,2.22-0.56c1.08,0,1.96,0.26,2.66,0.78
					c0.7,0.52,1.16,1.25,1.38,2.18h-1.57c-0.15-0.53-0.44-0.95-0.87-1.26c-0.43-0.31-0.97-0.46-1.61-0.46
					c-0.83,0-1.5,0.29-2.02,0.86c-0.51,0.57-0.77,1.38-0.77,2.42c0,1.06,0.26,1.87,0.77,2.45c0.51,0.58,1.18,0.86,2.02,0.86
					c0.64,0,1.17-0.15,1.6-0.45s0.72-0.73,0.88-1.28h1.57c-0.23,0.9-0.7,1.61-1.41,2.15c-0.7,0.54-1.58,0.81-2.64,0.81
					c-0.83,0-1.57-0.19-2.22-0.56s-1.15-0.9-1.51-1.58c-0.36-0.68-0.54-1.48-0.54-2.4C157.49,266.76,157.67,265.97,158.04,265.29z"
					/>
				<path class="st2" d="M167.8,261.59c-0.19-0.19-0.29-0.43-0.29-0.7s0.1-0.51,0.29-0.7c0.19-0.19,0.43-0.29,0.7-0.29
					c0.27,0,0.49,0.1,0.68,0.29c0.19,0.19,0.28,0.43,0.28,0.7s-0.09,0.51-0.28,0.7c-0.19,0.19-0.41,0.29-0.68,0.29
					C168.22,261.87,167.99,261.78,167.8,261.59z M169.2,263.3v8.77h-1.46v-8.77H169.2z"/>
				<path class="st2" d="M171.68,265.29c0.36-0.68,0.86-1.2,1.5-1.58c0.63-0.37,1.35-0.56,2.14-0.56c0.68,0,1.32,0.16,1.9,0.47
					c0.59,0.32,1.04,0.73,1.34,1.24v-4.64h1.47v11.84h-1.47v-1.65c-0.29,0.52-0.71,0.95-1.28,1.29s-1.23,0.5-1.98,0.5
					c-0.78,0-1.49-0.19-2.12-0.58c-0.63-0.38-1.13-0.92-1.5-1.62c-0.36-0.69-0.54-1.48-0.54-2.37
					C171.14,266.75,171.32,265.97,171.68,265.29z M178.16,265.94c-0.27-0.49-0.63-0.87-1.08-1.13s-0.95-0.39-1.5-0.39
					s-1.04,0.13-1.49,0.38c-0.45,0.26-0.81,0.63-1.07,1.12c-0.27,0.49-0.4,1.07-0.4,1.73c0,0.67,0.13,1.26,0.4,1.75
					s0.62,0.88,1.07,1.14c0.45,0.26,0.94,0.39,1.49,0.39s1.04-0.13,1.5-0.39c0.45-0.26,0.81-0.64,1.08-1.14s0.4-1.07,0.4-1.74
					C178.56,267,178.43,266.43,178.16,265.94z"/>
				<path class="st2" d="M184.09,271.65c-0.67-0.37-1.19-0.9-1.57-1.59c-0.38-0.69-0.57-1.49-0.57-2.39c0-0.9,0.19-1.69,0.58-2.38
					c0.39-0.69,0.92-1.22,1.59-1.58c0.67-0.37,1.42-0.55,2.26-0.55s1.58,0.18,2.26,0.55c0.67,0.37,1.2,0.89,1.59,1.58
					s0.58,1.48,0.58,2.38c0,0.91-0.2,1.7-0.6,2.39c-0.4,0.69-0.94,1.22-1.62,1.59s-1.44,0.56-2.27,0.56
					C185.5,272.21,184.76,272.02,184.09,271.65z M187.8,270.56c0.46-0.25,0.83-0.61,1.11-1.1c0.28-0.49,0.42-1.09,0.42-1.79
					c0-0.7-0.14-1.3-0.42-1.79c-0.28-0.49-0.64-0.86-1.09-1.1c-0.45-0.24-0.93-0.36-1.46-0.36c-0.53,0-1.02,0.12-1.46,0.36
					s-0.8,0.61-1.06,1.1c-0.27,0.49-0.4,1.09-0.4,1.79c0,0.71,0.13,1.32,0.39,1.81c0.26,0.49,0.61,0.86,1.05,1.1
					s0.92,0.36,1.44,0.36S187.34,270.81,187.8,270.56z"/>
				<path class="st2" d="M194.04,271.87c-0.53-0.23-0.96-0.55-1.26-0.96c-0.31-0.41-0.48-0.88-0.51-1.42h1.5
					c0.04,0.44,0.25,0.79,0.62,1.07s0.85,0.42,1.45,0.42c0.55,0,0.99-0.12,1.31-0.37s0.48-0.55,0.48-0.93
					c0-0.38-0.17-0.67-0.51-0.86c-0.34-0.19-0.87-0.37-1.58-0.55c-0.65-0.17-1.18-0.34-1.59-0.52c-0.41-0.18-0.76-0.44-1.06-0.78
					c-0.29-0.35-0.44-0.8-0.44-1.37c0-0.45,0.13-0.86,0.4-1.23c0.27-0.37,0.65-0.67,1.14-0.89s1.05-0.33,1.68-0.33
					c0.97,0,1.75,0.25,2.35,0.74c0.6,0.49,0.92,1.16,0.96,2.02h-1.46c-0.03-0.46-0.22-0.83-0.55-1.1s-0.79-0.42-1.35-0.42
					c-0.52,0-0.94,0.11-1.25,0.34c-0.31,0.22-0.46,0.52-0.46,0.88c0,0.29,0.09,0.53,0.28,0.71s0.42,0.34,0.7,0.45
					c0.28,0.11,0.67,0.24,1.18,0.38c0.63,0.17,1.14,0.34,1.54,0.5s0.73,0.41,1.02,0.74c0.28,0.33,0.43,0.76,0.44,1.3
					c0,0.48-0.13,0.91-0.4,1.3s-0.64,0.69-1.13,0.9c-0.49,0.22-1.04,0.33-1.67,0.33C195.17,272.21,194.57,272.1,194.04,271.87z"/>
				<path class="st2" d="M208.11,263.66c0.57-0.34,1.24-0.5,1.99-0.5c0.78,0,1.49,0.19,2.12,0.56c0.63,0.37,1.13,0.9,1.5,1.58
					c0.36,0.68,0.54,1.46,0.54,2.36c0,0.89-0.18,1.67-0.54,2.37s-0.86,1.23-1.5,1.62c-0.63,0.38-1.34,0.58-2.12,0.58
					c-0.75,0-1.41-0.17-1.98-0.5c-0.57-0.34-1.01-0.75-1.3-1.26v5.78h-1.46V263.3h1.46v1.62
					C207.11,264.41,207.54,263.99,208.11,263.66z M212.37,265.92c-0.27-0.49-0.63-0.86-1.08-1.12c-0.45-0.26-0.95-0.38-1.5-0.38
					c-0.53,0-1.03,0.13-1.48,0.39c-0.45,0.26-0.82,0.64-1.09,1.14c-0.27,0.5-0.41,1.07-0.41,1.72c0,0.66,0.14,1.24,0.41,1.74
					c0.27,0.5,0.63,0.88,1.09,1.14c0.45,0.26,0.95,0.39,1.48,0.39c0.54,0,1.04-0.13,1.5-0.39c0.45-0.26,0.81-0.64,1.08-1.14
					s0.4-1.08,0.4-1.75C212.77,266.99,212.64,266.41,212.37,265.92z"/>
				<path class="st2" d="M217.77,271.65c-0.67-0.37-1.19-0.9-1.57-1.59c-0.38-0.69-0.57-1.49-0.57-2.39c0-0.9,0.19-1.69,0.58-2.38
					c0.39-0.69,0.92-1.22,1.59-1.58c0.67-0.37,1.42-0.55,2.26-0.55s1.58,0.18,2.26,0.55c0.67,0.37,1.2,0.89,1.59,1.58
					s0.58,1.48,0.58,2.38c0,0.91-0.2,1.7-0.6,2.39c-0.4,0.69-0.94,1.22-1.62,1.59s-1.44,0.56-2.27,0.56
					C219.18,272.21,218.44,272.02,217.77,271.65z M221.48,270.56c0.46-0.25,0.83-0.61,1.11-1.1c0.28-0.49,0.42-1.09,0.42-1.79
					c0-0.7-0.14-1.3-0.42-1.79c-0.28-0.49-0.64-0.86-1.09-1.1c-0.45-0.24-0.93-0.36-1.46-0.36c-0.53,0-1.02,0.12-1.46,0.36
					s-0.8,0.61-1.06,1.1c-0.27,0.49-0.4,1.09-0.4,1.79c0,0.71,0.13,1.32,0.39,1.81c0.26,0.49,0.61,0.86,1.05,1.1
					s0.92,0.36,1.44,0.36S221.02,270.81,221.48,270.56z"/>
				<path class="st2" d="M228.97,263.55c0.47-0.28,1.05-0.42,1.74-0.42v1.5h-0.38c-1.63,0-2.45,0.89-2.45,2.66v4.77h-1.46v-8.77
					h1.46v1.42C228.13,264.22,228.5,263.83,228.97,263.55z"/>
				<path class="st2" d="M58.33,292.23h-7.01c0.05,0.86,0.35,1.54,0.89,2.02c0.54,0.49,1.19,0.73,1.96,0.73
					c0.63,0,1.15-0.15,1.58-0.44c0.42-0.29,0.72-0.68,0.89-1.18h1.57c-0.23,0.84-0.7,1.53-1.41,2.06c-0.7,0.53-1.58,0.79-2.62,0.79
					c-0.83,0-1.58-0.19-2.23-0.56s-1.17-0.9-1.54-1.59c-0.37-0.69-0.56-1.49-0.56-2.39c0-0.91,0.18-1.7,0.54-2.38
					c0.36-0.68,0.87-1.21,1.53-1.58c0.66-0.37,1.41-0.55,2.26-0.55c0.83,0,1.57,0.18,2.21,0.54c0.64,0.36,1.13,0.86,1.48,1.5
					s0.52,1.35,0.52,2.15C58.38,291.62,58.37,291.92,58.33,292.23z M56.51,289.61c-0.25-0.4-0.58-0.7-1-0.91
					c-0.42-0.21-0.89-0.31-1.4-0.31c-0.74,0-1.36,0.23-1.88,0.7c-0.52,0.47-0.81,1.12-0.89,1.95h5.54
					C56.88,290.49,56.75,290.01,56.51,289.61z"/>
				<path class="st2" d="M61.76,284.23v11.84H60.3v-11.84H61.76z"/>
				<path class="st2" d="M77.73,284.91l-4.21,11.15h-1.68l-4.21-11.15h1.55l3.5,9.62l3.5-9.62H77.73z"/>
				<path class="st2" d="M79.37,285.59c-0.19-0.19-0.29-0.43-0.29-0.7s0.1-0.51,0.29-0.7c0.19-0.19,0.43-0.29,0.7-0.29
					c0.27,0,0.49,0.1,0.68,0.29c0.19,0.19,0.28,0.43,0.28,0.7s-0.09,0.51-0.28,0.7c-0.19,0.19-0.41,0.29-0.68,0.29
					C79.8,285.87,79.57,285.78,79.37,285.59z M80.78,287.3v8.77h-1.46v-8.77H80.78z"/>
				<path class="st2" d="M85.81,287.55c0.47-0.28,1.05-0.42,1.74-0.42v1.5h-0.38c-1.63,0-2.45,0.89-2.45,2.66v4.77h-1.46v-8.77h1.46
					v1.42C84.97,288.22,85.34,287.83,85.81,287.55z"/>
				<path class="st2" d="M97,287.3v8.77h-1.46v-1.3c-0.28,0.45-0.66,0.8-1.16,1.05c-0.5,0.25-1.04,0.38-1.64,0.38
					c-0.68,0-1.3-0.14-1.84-0.42s-0.97-0.71-1.29-1.27c-0.31-0.56-0.47-1.25-0.47-2.06v-5.14h1.44v4.94c0,0.86,0.22,1.53,0.66,1.99
					s1.03,0.7,1.79,0.7c0.78,0,1.39-0.24,1.84-0.72c0.45-0.48,0.67-1.18,0.67-2.1v-4.82H97z"/>
				<path class="st2" d="M100.77,295.87c-0.53-0.23-0.96-0.55-1.26-0.96c-0.31-0.41-0.48-0.88-0.51-1.42h1.5
					c0.04,0.44,0.25,0.79,0.62,1.07s0.85,0.42,1.45,0.42c0.55,0,0.99-0.12,1.31-0.37s0.48-0.55,0.48-0.93
					c0-0.38-0.17-0.67-0.51-0.86c-0.34-0.19-0.87-0.37-1.58-0.55c-0.65-0.17-1.18-0.34-1.59-0.52c-0.41-0.18-0.76-0.44-1.06-0.78
					c-0.29-0.35-0.44-0.8-0.44-1.37c0-0.45,0.13-0.86,0.4-1.23c0.27-0.37,0.65-0.67,1.14-0.89s1.05-0.33,1.68-0.33
					c0.97,0,1.75,0.25,2.35,0.74c0.6,0.49,0.92,1.16,0.96,2.02h-1.46c-0.03-0.46-0.22-0.83-0.55-1.1s-0.79-0.42-1.35-0.42
					c-0.52,0-0.94,0.11-1.25,0.34c-0.31,0.22-0.46,0.52-0.46,0.88c0,0.29,0.09,0.53,0.28,0.71s0.42,0.34,0.7,0.45
					c0.28,0.11,0.67,0.24,1.18,0.38c0.63,0.17,1.14,0.34,1.54,0.5s0.73,0.41,1.02,0.74c0.28,0.33,0.43,0.76,0.44,1.3
					c0,0.48-0.13,0.91-0.4,1.3s-0.64,0.69-1.13,0.9c-0.49,0.22-1.04,0.33-1.67,0.33C101.9,296.21,101.3,296.1,100.77,295.87z"/>
				<path class="st2" d="M112.09,289.29c0.36-0.68,0.86-1.2,1.5-1.58c0.63-0.37,1.35-0.56,2.14-0.56c0.68,0,1.32,0.16,1.9,0.47
					c0.59,0.32,1.04,0.73,1.34,1.24v-4.64h1.47v11.84h-1.47v-1.65c-0.29,0.52-0.71,0.95-1.28,1.29s-1.23,0.5-1.98,0.5
					c-0.78,0-1.49-0.19-2.12-0.58c-0.63-0.38-1.13-0.92-1.5-1.62c-0.36-0.69-0.54-1.48-0.54-2.37
					C111.55,290.75,111.73,289.97,112.09,289.29z M118.57,289.94c-0.27-0.49-0.63-0.87-1.08-1.13s-0.95-0.39-1.5-0.39
					s-1.04,0.13-1.49,0.38c-0.45,0.26-0.81,0.63-1.07,1.12c-0.27,0.49-0.4,1.07-0.4,1.73c0,0.67,0.13,1.26,0.4,1.75
					s0.62,0.88,1.07,1.14c0.45,0.26,0.94,0.39,1.49,0.39s1.04-0.13,1.5-0.39c0.45-0.26,0.81-0.64,1.08-1.14s0.4-1.07,0.4-1.74
					C118.97,291,118.84,290.43,118.57,289.94z"/>
				<path class="st2" d="M130.86,292.23h-7.01c0.05,0.86,0.35,1.54,0.89,2.02c0.54,0.49,1.19,0.73,1.96,0.73
					c0.63,0,1.15-0.15,1.58-0.44c0.42-0.29,0.72-0.68,0.89-1.18h1.57c-0.23,0.84-0.7,1.53-1.41,2.06c-0.7,0.53-1.58,0.79-2.62,0.79
					c-0.83,0-1.58-0.19-2.23-0.56s-1.17-0.9-1.54-1.59c-0.37-0.69-0.56-1.49-0.56-2.39c0-0.91,0.18-1.7,0.54-2.38
					c0.36-0.68,0.87-1.21,1.53-1.58c0.66-0.37,1.41-0.55,2.26-0.55c0.83,0,1.57,0.18,2.21,0.54c0.64,0.36,1.13,0.86,1.48,1.5
					s0.52,1.35,0.52,2.15C130.91,291.62,130.89,291.92,130.86,292.23z M129.04,289.61c-0.25-0.4-0.58-0.7-1-0.91
					c-0.42-0.21-0.89-0.31-1.4-0.31c-0.74,0-1.36,0.23-1.88,0.7c-0.52,0.47-0.81,1.12-0.89,1.95h5.54
					C129.41,290.49,129.28,290.01,129.04,289.61z"/>
				<path class="st2" d="M134.29,284.23v11.84h-1.46v-11.84H134.29z"/>
				<path class="st2" d="M147.54,290.49c-0.63,0.61-1.6,0.92-2.9,0.92h-2.14v4.66h-1.46v-11.15h3.6c1.26,0,2.22,0.3,2.87,0.91
					c0.66,0.61,0.98,1.39,0.98,2.35C148.49,289.11,148.17,289.88,147.54,290.49z M146.43,289.68c0.38-0.35,0.58-0.85,0.58-1.5
					c0-1.38-0.79-2.06-2.37-2.06h-2.14v4.1h2.14C145.45,290.21,146.04,290.03,146.43,289.68z"/>
				<path class="st2" d="M150.3,289.29c0.36-0.68,0.86-1.2,1.5-1.58c0.63-0.37,1.34-0.56,2.12-0.56c0.77,0,1.43,0.17,2,0.5
					c0.57,0.33,0.99,0.75,1.26,1.25v-1.6h1.47v8.77h-1.47v-1.63c-0.29,0.51-0.72,0.94-1.29,1.27c-0.57,0.34-1.24,0.5-1.99,0.5
					c-0.78,0-1.48-0.19-2.11-0.58c-0.63-0.38-1.13-0.92-1.49-1.62c-0.36-0.69-0.54-1.48-0.54-2.37
					C149.76,290.75,149.94,289.97,150.3,289.29z M156.78,289.94c-0.27-0.49-0.63-0.87-1.08-1.13s-0.95-0.39-1.5-0.39
					s-1.04,0.13-1.49,0.38c-0.45,0.26-0.81,0.63-1.07,1.12c-0.27,0.49-0.4,1.07-0.4,1.73c0,0.67,0.13,1.26,0.4,1.75
					s0.62,0.88,1.07,1.14c0.45,0.26,0.94,0.39,1.49,0.39s1.04-0.13,1.5-0.39c0.45-0.26,0.81-0.64,1.08-1.14s0.4-1.07,0.4-1.74
					C157.18,291,157.05,290.43,156.78,289.94z"/>
				<path class="st2" d="M163.86,287.66c0.57-0.34,1.24-0.5,1.99-0.5c0.78,0,1.49,0.19,2.12,0.56c0.63,0.37,1.13,0.9,1.5,1.58
					c0.36,0.68,0.54,1.46,0.54,2.36c0,0.89-0.18,1.67-0.54,2.37s-0.86,1.23-1.5,1.62c-0.63,0.38-1.34,0.58-2.12,0.58
					c-0.75,0-1.41-0.17-1.98-0.5c-0.57-0.34-1.01-0.75-1.3-1.26v5.78h-1.46V287.3h1.46v1.62
					C162.86,288.41,163.29,287.99,163.86,287.66z M168.12,289.92c-0.27-0.49-0.63-0.86-1.08-1.12c-0.45-0.26-0.95-0.38-1.5-0.38
					c-0.53,0-1.03,0.13-1.48,0.39c-0.45,0.26-0.82,0.64-1.09,1.14c-0.27,0.5-0.41,1.07-0.41,1.72c0,0.66,0.14,1.24,0.41,1.74
					c0.27,0.5,0.63,0.88,1.09,1.14c0.45,0.26,0.95,0.39,1.48,0.39c0.54,0,1.04-0.13,1.5-0.39c0.45-0.26,0.81-0.64,1.08-1.14
					s0.4-1.08,0.4-1.75C168.52,290.99,168.39,290.41,168.12,289.92z"/>
				<path class="st2" d="M171.98,285.59c-0.19-0.19-0.29-0.43-0.29-0.7s0.1-0.51,0.29-0.7c0.19-0.19,0.43-0.29,0.7-0.29
					c0.27,0,0.49,0.1,0.68,0.29c0.19,0.19,0.28,0.43,0.28,0.7s-0.09,0.51-0.28,0.7c-0.19,0.19-0.41,0.29-0.68,0.29
					C172.41,285.87,172.17,285.78,171.98,285.59z M173.39,287.3v8.77h-1.46v-8.77H173.39z"/>
				<path class="st2" d="M177.33,284.23v11.84h-1.46v-11.84H177.33z"/>
				<path class="st2" d="M181.4,295.65c-0.67-0.37-1.19-0.9-1.57-1.59c-0.38-0.69-0.57-1.49-0.57-2.39c0-0.9,0.19-1.69,0.58-2.38
					c0.39-0.69,0.92-1.22,1.59-1.58c0.67-0.37,1.42-0.55,2.26-0.55s1.58,0.18,2.26,0.55c0.67,0.37,1.2,0.89,1.59,1.58
					s0.58,1.48,0.58,2.38c0,0.91-0.2,1.7-0.6,2.39c-0.4,0.69-0.94,1.22-1.62,1.59s-1.44,0.56-2.27,0.56
					C182.81,296.21,182.06,296.02,181.4,295.65z M185.1,294.56c0.46-0.25,0.83-0.61,1.11-1.1c0.28-0.49,0.42-1.09,0.42-1.79
					c0-0.7-0.14-1.3-0.42-1.79c-0.28-0.49-0.64-0.86-1.09-1.1c-0.45-0.24-0.93-0.36-1.46-0.36c-0.53,0-1.02,0.12-1.46,0.36
					s-0.8,0.61-1.06,1.1c-0.27,0.49-0.4,1.09-0.4,1.79c0,0.71,0.13,1.32,0.39,1.81c0.26,0.49,0.61,0.86,1.05,1.1
					s0.92,0.36,1.44,0.36S184.64,294.81,185.1,294.56z"/>
				<path class="st2" d="M202.41,287.56c0.53,0.28,0.96,0.71,1.26,1.27c0.31,0.57,0.46,1.25,0.46,2.06v5.17h-1.44v-4.96
					c0-0.88-0.22-1.54-0.65-2.01c-0.43-0.46-1.02-0.7-1.75-0.7c-0.76,0-1.36,0.24-1.81,0.73c-0.45,0.49-0.67,1.19-0.67,2.1v4.83
					h-1.44v-4.96c0-0.88-0.22-1.54-0.65-2.01s-1.02-0.7-1.75-0.7c-0.76,0-1.36,0.24-1.81,0.73c-0.45,0.49-0.67,1.19-0.67,2.1v4.83
					h-1.46v-8.77h1.46v1.26c0.29-0.46,0.67-0.81,1.16-1.06c0.49-0.25,1.02-0.37,1.61-0.37c0.74,0,1.39,0.17,1.95,0.5
					c0.57,0.33,0.99,0.82,1.26,1.46c0.25-0.62,0.65-1.1,1.22-1.44c0.57-0.34,1.19-0.51,1.89-0.51
					C201.27,287.14,201.88,287.28,202.41,287.56z"/>
				<path class="st2" d="M206.53,289.29c0.36-0.68,0.86-1.2,1.5-1.58c0.63-0.37,1.34-0.56,2.12-0.56c0.77,0,1.43,0.17,2,0.5
					c0.57,0.33,0.99,0.75,1.26,1.25v-1.6h1.47v8.77h-1.47v-1.63c-0.29,0.51-0.72,0.94-1.29,1.27c-0.57,0.34-1.24,0.5-1.99,0.5
					c-0.78,0-1.48-0.19-2.11-0.58c-0.63-0.38-1.13-0.92-1.49-1.62c-0.36-0.69-0.54-1.48-0.54-2.37
					C205.98,290.75,206.16,289.97,206.53,289.29z M213,289.94c-0.27-0.49-0.63-0.87-1.08-1.13s-0.95-0.39-1.5-0.39
					s-1.04,0.13-1.49,0.38c-0.45,0.26-0.81,0.63-1.07,1.12c-0.27,0.49-0.4,1.07-0.4,1.73c0,0.67,0.13,1.26,0.4,1.75
					s0.62,0.88,1.07,1.14c0.45,0.26,0.94,0.39,1.49,0.39s1.04-0.13,1.5-0.39c0.45-0.26,0.81-0.64,1.08-1.14s0.4-1.07,0.4-1.74
					C213.41,291,213.27,290.43,213,289.94z"/>
				<path class="st2" d="M82.93,308.91v11.15h-1.46v-5.06H75.8v5.06h-1.46v-11.15h1.46v4.9h5.68v-4.9H82.93z"/>
				<path class="st2" d="M93.19,311.3v8.77h-1.46v-1.3c-0.28,0.45-0.66,0.8-1.16,1.05c-0.5,0.25-1.04,0.38-1.64,0.38
					c-0.68,0-1.3-0.14-1.84-0.42s-0.97-0.71-1.29-1.27c-0.31-0.56-0.47-1.25-0.47-2.06v-5.14h1.44v4.94c0,0.86,0.22,1.53,0.66,1.99
					s1.03,0.7,1.79,0.7c0.78,0,1.39-0.24,1.84-0.72c0.45-0.48,0.67-1.18,0.67-2.1v-4.82H93.19z"/>
				<path class="st2" d="M108.02,311.56c0.53,0.28,0.96,0.71,1.26,1.27c0.31,0.57,0.46,1.25,0.46,2.06v5.17h-1.44v-4.96
					c0-0.88-0.22-1.54-0.65-2.01c-0.43-0.46-1.02-0.7-1.75-0.7c-0.76,0-1.36,0.24-1.81,0.73c-0.45,0.49-0.67,1.19-0.67,2.1v4.83
					h-1.44v-4.96c0-0.88-0.22-1.54-0.65-2.01s-1.02-0.7-1.75-0.7c-0.76,0-1.36,0.24-1.81,0.73c-0.45,0.49-0.67,1.19-0.67,2.1v4.83
					h-1.46v-8.77h1.46v1.26c0.29-0.46,0.67-0.81,1.16-1.06c0.49-0.25,1.02-0.37,1.61-0.37c0.74,0,1.39,0.17,1.95,0.5
					c0.57,0.33,0.99,0.82,1.26,1.46c0.25-0.62,0.65-1.1,1.22-1.44c0.57-0.34,1.19-0.51,1.89-0.51
					C106.88,311.14,107.49,311.28,108.02,311.56z"/>
				<path class="st2" d="M112.13,313.29c0.36-0.68,0.86-1.2,1.5-1.58c0.63-0.37,1.34-0.56,2.12-0.56c0.77,0,1.43,0.17,2,0.5
					c0.57,0.33,0.99,0.75,1.26,1.25v-1.6h1.47v8.77h-1.47v-1.63c-0.29,0.51-0.72,0.94-1.29,1.27c-0.57,0.34-1.24,0.5-1.99,0.5
					c-0.78,0-1.48-0.19-2.11-0.58c-0.63-0.38-1.13-0.92-1.49-1.62c-0.36-0.69-0.54-1.48-0.54-2.37
					C111.59,314.75,111.77,313.97,112.13,313.29z M118.61,313.94c-0.27-0.49-0.63-0.87-1.08-1.13s-0.95-0.39-1.5-0.39
					s-1.04,0.13-1.49,0.38c-0.45,0.26-0.81,0.63-1.07,1.12c-0.27,0.49-0.4,1.07-0.4,1.73c0,0.67,0.13,1.26,0.4,1.75
					s0.62,0.88,1.07,1.14c0.45,0.26,0.94,0.39,1.49,0.39s1.04-0.13,1.5-0.39c0.45-0.26,0.81-0.64,1.08-1.14s0.4-1.07,0.4-1.74
					C119.01,315,118.88,314.43,118.61,313.94z"/>
				<path class="st2" d="M129.81,312.11c0.66,0.65,0.99,1.58,0.99,2.79v5.17h-1.44v-4.96c0-0.88-0.22-1.54-0.66-2.01
					s-1.04-0.7-1.79-0.7c-0.77,0-1.38,0.24-1.83,0.72c-0.45,0.48-0.68,1.18-0.68,2.1v4.85h-1.46v-8.77h1.46v1.25
					c0.29-0.45,0.68-0.79,1.18-1.04c0.5-0.25,1.04-0.37,1.64-0.37C128.29,311.14,129.15,311.46,129.81,312.11z"/>
				<path class="st2" d="M134.78,319.65c-0.67-0.37-1.19-0.9-1.57-1.59c-0.38-0.69-0.57-1.49-0.57-2.39c0-0.9,0.19-1.69,0.58-2.38
					c0.39-0.69,0.92-1.22,1.59-1.58c0.67-0.37,1.42-0.55,2.26-0.55s1.58,0.18,2.26,0.55c0.67,0.37,1.2,0.89,1.59,1.58
					s0.58,1.48,0.58,2.38c0,0.91-0.2,1.7-0.6,2.39c-0.4,0.69-0.94,1.22-1.62,1.59s-1.44,0.56-2.27,0.56
					C136.19,320.21,135.45,320.02,134.78,319.65z M138.49,318.56c0.46-0.25,0.83-0.61,1.11-1.1c0.28-0.49,0.42-1.09,0.42-1.79
					c0-0.7-0.14-1.3-0.42-1.79c-0.28-0.49-0.64-0.86-1.09-1.1c-0.45-0.24-0.93-0.36-1.46-0.36c-0.53,0-1.02,0.12-1.46,0.36
					s-0.8,0.61-1.06,1.1c-0.27,0.49-0.4,1.09-0.4,1.79c0,0.71,0.13,1.32,0.39,1.81c0.26,0.49,0.61,0.86,1.05,1.1
					s0.92,0.36,1.44,0.36S138.03,318.81,138.49,318.56z"/>
				<path class="st2" d="M149.05,319.22c-0.57-1.55-0.86-3.22-0.86-5.01c0-1.83,0.3-3.55,0.9-5.14s1.46-2.91,2.58-3.94h1.52v0.14
					c-1.2,1.12-2.09,2.47-2.7,4.04s-0.9,3.21-0.9,4.9c0,1.65,0.29,3.23,0.86,4.74c0.57,1.5,1.41,2.82,2.5,3.95v0.14h-1.52
					C150.42,322.04,149.62,320.76,149.05,319.22z"/>
				<path class="st2" d="M164.18,308.91l-4.21,11.15h-1.68l-4.21-11.15h1.55l3.5,9.62l3.5-9.62H164.18z"/>
				<path class="st2" d="M172.29,314.49c-0.63,0.61-1.6,0.92-2.9,0.92h-2.14v4.66h-1.46v-11.15h3.6c1.26,0,2.22,0.3,2.87,0.91
					c0.66,0.61,0.98,1.39,0.98,2.35C173.24,313.11,172.92,313.88,172.29,314.49z M171.17,313.68c0.38-0.35,0.58-0.85,0.58-1.5
					c0-1.38-0.79-2.06-2.37-2.06h-2.14v4.1h2.14C170.19,314.21,170.79,314.03,171.17,313.68z"/>
				<path class="st2" d="M183.64,308.91v11.15h-1.46v-5.06h-5.68v5.06h-1.46v-11.15h1.46v4.9h5.68v-4.9H183.64z"/>
				<path class="st2" d="M185.65,323.04v-0.14c1.1-1.13,1.93-2.45,2.5-3.95c0.57-1.5,0.86-3.08,0.86-4.74c0-1.7-0.3-3.33-0.9-4.9
					s-1.5-2.92-2.7-4.04v-0.14h1.52c1.12,1.04,1.98,2.35,2.58,3.94s0.9,3.31,0.9,5.14c0,1.79-0.29,3.46-0.86,5.01
					c-0.57,1.55-1.37,2.82-2.39,3.82H185.65z"/>
			</g>
		</g>
		<g>
			<g>
				<g>
					<path class="st3" d="M132.63,107.21c1.76,0,4,1.33,4,1.33l1.57-12.98l2.55-7.49l4.78-32.98l1.84-4.82l-14.75,3.29V107.21z"/>
					<path class="st3" d="M132.63,107.21c-1.76,0-4,1.33-4,1.33l-1.57-12.98l-2.55-7.49l-4.78-32.98l-1.84-4.82l14.75,3.29V107.21z"
						/>
				</g>
			</g>
			<path class="st4" d="M171.38,57.09c0,0-5.81,3.68-5.61,9.22c0.2,5.53,6.39,5.63,10.4,0.86c4.01-4.77,3.55-8.83,3.55-8.83
				l-4.11-3.96L171.38,57.09z"/>
			<path class="st4" d="M93.87,57.09c0,0,5.81,3.68,5.61,9.22c-0.2,5.53-6.39,5.63-10.4,0.86c-4.01-4.77-3.55-8.83-3.55-8.83
				l4.11-3.96L93.87,57.09z"/>
			<path class="st5" d="M181.3,48.24c-3.1-6.29-8.37-7.36-15.23-5.94c-6.85,1.42-6.9,6.95-15.94,4.67
				c-11.58-2.93-9.19-3.56-17.51-3.56v11.93c7.01,0,11.93-1.93,11.93-1.93s-11.01,5.99-11.01,17.21c0,6.64,0.39,12.28,0,15.42
				c-0.39,3.14,1.43,4.76,2.98,4.76c0,0,0,0,0,0c1.54,0,1.7-1.31,2.8-1.2c1.1,0.1-0.21,1.52-1.73,4.08
				c-0.13,0.21-0.24,0.51-0.34,0.85c-0.98,3.32-0.95,12.07-0.92,14.27c0,0.28,0.23,0.51,0.52,0.51c0.27,0,0.5-0.21,0.52-0.48
				c0.12-1.71,0.6-7.62,1.53-11.64c0.07-0.29,0.14-0.58,0.21-0.85c1.26-4.65,2.12-6.93,4.81-15.85c0.01-0.03,0.02-0.06,0.03-0.1
				c0.07-0.27,0.15-0.53,0.22-0.79c2.53-8.98,5.01-14.35,5.06-21.11c0,0,6.65-2.59,10.61-6.55c3.96-3.96,6.85-6.24,11.52-5.28
				s5.38,4.67-0.61,9.59c0,0,0.86,2.13,3.35,0.96c0,0,0.51,3.91,4.21,2.79c0,0-0.96,2.84,2.28,3.45
				C180.59,63.46,184.4,54.53,181.3,48.24z"/>
			<path class="st5" d="M83.95,48.24c3.1-6.29,8.37-7.36,15.23-5.94c6.85,1.42,6.9,6.95,15.94,4.67c11.58-2.93,9.19-3.56,17.51-3.56
				v11.93c-7.01,0-11.93-1.93-11.93-1.93s11.01,5.99,11.01,17.21c0,6.64-0.39,12.28,0,15.42c0.39,3.14-1.43,4.76-2.98,4.76
				c0,0,0,0,0,0c-1.54,0-1.7-1.31-2.8-1.2c-1.1,0.1,0.21,1.52,1.73,4.08c0.13,0.21,0.24,0.51,0.34,0.85
				c0.98,3.32,0.95,12.07,0.92,14.27c0,0.28-0.23,0.51-0.52,0.51c-0.27,0-0.5-0.21-0.52-0.48c-0.12-1.71-0.6-7.62-1.53-11.64
				c-0.07-0.29-0.14-0.58-0.21-0.85c-1.26-4.65-2.12-6.93-4.81-15.85c-0.01-0.03-0.02-0.06-0.03-0.1c-0.07-0.27-0.15-0.53-0.22-0.79
				c-2.53-8.98-5.01-14.35-5.06-21.11c0,0-6.65-2.59-10.61-6.55c-3.96-3.96-6.85-6.24-11.52-5.28c-4.67,0.96-5.38,4.67,0.61,9.59
				c0,0-0.86,2.13-3.35,0.96c0,0-0.51,3.91-4.21,2.79c0,0,0.96,2.84-2.28,3.45C84.66,63.46,80.85,54.53,83.95,48.24z"/>
		</g>
	</g>
</g>
</svg>
