<?xml version="1.0" encoding="utf-8"?>
<!-- Generator: Adobe Illustrator 24.1.1, SVG Export Plug-In . SVG Version: 6.00 Build 0)  -->
<svg version="1.1" id="Capa_1" xmlns="http://www.w3.org/2000/svg" xmlns:xlink="http://www.w3.org/1999/xlink" x="0px" y="0px"
	 viewBox="0 0 80 80" style="enable-background:new 0 0 80 80;" xml:space="preserve">
<style type="text/css">
	.st0{fill:#BFBFBF;}
	.st1{fill:#A6CE39;}
	.st2{fill:#62BB46;}
	.st3{fill:#009F46;}
	.st4{fill:#FFFFFF;}
	.st5{fill:#F45B6A;}
	.st6{fill:none;stroke:#F45B6A;stroke-width:5.9259;stroke-miterlimit:10;}
	.st7{fill:#F8C5B0;}
	.st8{fill:#DAA28B;}
	.st9{fill:#FFFFFF;stroke:#F45B6A;stroke-width:5.9259;stroke-miterlimit:10;}
	.st10{fill:#999999;}
	.st11{fill:#007CC3;}
</style>
<g>
	<circle class="st4" cx="40" cy="40" r="40"/>
	<g>
		<g>
			<path class="st5" d="M40,5.93c18.79,0,34.07,15.29,34.07,34.07S58.79,74.07,40,74.07S5.93,58.79,5.93,40S21.21,5.93,40,5.93
				 M40,0C17.91,0,0,17.91,0,40c0,22.09,17.91,40,40,40c22.09,0,40-17.91,40-40C80,17.91,62.09,0,40,0L40,0z"/>
		</g>
		<line class="st6" x1="67.64" y1="12.36" x2="12.36" y2="67.64"/>
	</g>
</g>
<g>
	<path class="st7" d="M30.74,25.99c0,0,0.91-6.82-1.46-9.18s-6.35-1.33-9.22,4.72s-1,12.55-1,12.55L30.74,25.99z"/>
	<path class="st7" d="M19.82,38.34c-2.47,2.47-2.38,9.73,4.86,16.97l18.28-18.28c-6.18-6.18-10.16-5.22-13.47-3.75
		C26.8,34.49,21.65,36.51,19.82,38.34z"/>
	<path class="st7" d="M54.01,49.26c0,0,6.82-0.91,9.18,1.46s1.33,6.35-4.72,9.22s-12.55,1-12.55,1L54.01,49.26z"/>
	<path class="st7" d="M41.66,60.18c-2.47,2.47-9.73,2.38-16.97-4.86l18.28-18.28c6.18,6.18,5.22,10.16,3.75,13.47
		C45.51,53.2,43.49,58.35,41.66,60.18z"/>
	<path class="st8" d="M30.74,25.99c0,0,0.91-6.82-1.46-9.18s-6.35-1.33-9.22,4.72s-1,12.55-1,12.55L30.74,25.99z"/>
	<path class="st7" d="M35.92,33.17c0,0-0.88-4.06-4.26-7.45s-11.51-1.16-13.3,2.31S17.59,38.74,19.46,43s11.71-5.1,11.71-5.1
		L35.92,33.17z"/>
	<path class="st8" d="M54.01,49.26c0,0,6.82-0.91,9.18,1.46s1.33,6.35-4.72,9.22s-12.55,1-12.55,1L54.01,49.26z"/>
	<path class="st7" d="M46.83,44.08c0,0,4.06,0.88,7.45,4.26s1.16,11.51-2.31,13.3S41.26,62.41,37,60.54s5.1-11.71,5.1-11.71
		L46.83,44.08z"/>
	<path class="st8" d="M46.72,50.5c1.47-3.31,2.43-7.29-3.75-13.47s-10.16-5.22-13.47-3.75c-2.7,1.2-7.85,3.23-9.68,5.06
		c-2.47,2.47-2.38,9.73,4.86,16.97s14.5,7.33,16.97,4.86C43.49,58.35,45.51,53.2,46.72,50.5z"/>
</g>
</svg>
