<?xml version="1.0" encoding="utf-8"?>
<!-- Generator: Adobe Illustrator 24.1.1, SVG Export Plug-In . SVG Version: 6.00 Build 0)  -->
<svg version="1.1" id="Capa_1" xmlns="http://www.w3.org/2000/svg" xmlns:xlink="http://www.w3.org/1999/xlink" x="0px" y="0px"
	 viewBox="0 0 80 80" style="enable-background:new 0 0 80 80;" xml:space="preserve">
<style type="text/css">
	.st0{fill:#BFBFBF;}
	.st1{fill:#A6CE39;}
	.st2{fill:#62BB46;}
	.st3{fill:#009F46;}
	.st4{fill:#FFFFFF;}
	.st5{fill:#F45B6A;}
	.st6{fill:none;stroke:#F45B6A;stroke-width:5.9259;stroke-miterlimit:10;}
	.st7{fill:#F8C5B0;}
	.st8{fill:#DAA28B;}
	.st9{fill:#FFFFFF;stroke:#F45B6A;stroke-width:5.9259;stroke-miterlimit:10;}
	.st10{fill:#999999;}
	.st11{fill:#007CC3;}
</style>
<g>
	<g>
		<g>
			<g>
				<circle class="st4" cx="40" cy="40" r="37.04"/>
				<path class="st5" d="M40,5.93c18.79,0,34.07,15.29,34.07,34.07S58.79,74.07,40,74.07S5.93,58.79,5.93,40S21.21,5.93,40,5.93
					 M40,0C17.91,0,0,17.91,0,40s17.91,40,40,40c22.09,0,40-17.91,40-40S62.09,0,40,0L40,0z"/>
			</g>
			<line class="st9" x1="67.64" y1="12.36" x2="12.36" y2="67.64"/>
		</g>
	</g>
	<g>
		<g>
			<g>
				<path class="st3" d="M47.59,51.17c-3.07-1.18-5.86-2.81-8.34-5c-2.73-2.42-4.89-5.26-6.46-8.54c-0.08-0.16-0.15-0.32-0.22-0.48
					c-0.02-0.05-0.05-0.1-0.07-0.16c-0.05-0.11-0.1-0.22-0.14-0.33c-0.03-0.06-0.05-0.12-0.08-0.19c-0.04-0.1-0.08-0.2-0.13-0.3
					c-0.03-0.07-0.05-0.13-0.08-0.2c-0.04-0.1-0.08-0.2-0.12-0.3c-0.03-0.07-0.05-0.13-0.08-0.2c-0.04-0.1-0.07-0.2-0.11-0.3
					c-0.02-0.06-0.05-0.13-0.07-0.19c-0.04-0.11-0.08-0.22-0.11-0.33c-0.02-0.06-0.04-0.11-0.06-0.17c-0.05-0.17-0.11-0.33-0.16-0.5
					l0,0c-0.65-2.54-0.87-4.79-2.38-7.64l0,0c0,0,0,0,0,0c-0.16-0.31-0.33-0.62-0.51-0.93c-0.01-0.02-0.02-0.04-0.03-0.06
					c-0.08-0.13-0.15-0.26-0.23-0.38c-0.01-0.02-0.03-0.05-0.04-0.07c-0.09-0.14-0.18-0.28-0.27-0.42c0,0,0,0,0,0
					c-0.1-0.14-0.19-0.29-0.3-0.43c-0.02-0.02-0.03-0.05-0.05-0.07c-0.08-0.11-0.16-0.22-0.24-0.33c-0.03-0.04-0.06-0.08-0.09-0.12
					c-0.07-0.1-0.15-0.19-0.22-0.29c-0.03-0.04-0.06-0.08-0.09-0.11c-0.1-0.13-0.21-0.26-0.31-0.39l0,0
					c0.98-0.44,1.93-0.97,3.01-1.18c0.26-0.05,0.21-0.29,0.21-0.47c0.01-1.08-0.03-2.16,0.05-3.23c0.09-1.27,0.84-2.07,2.04-2.46
					c0.04-0.01,0.4-0.1,0.55-0.1h0.18c0.34,0,0.68,0.06,1,0.19c0.28,0.11,0.56,0.24,0.8,0.44c0.7,0.6,1.03,1.38,1.04,2.29
					c0.01,1.03,0.01,2.06,0,3.09c0,0.25,0.03,0.39,0.32,0.49c1.15,0.37,2.2,0.93,3.15,1.69c0.24,0.19,0.35,0.13,0.53-0.05
					c0.61-0.6,1.23-1.18,1.85-1.77c1.12-1.07,2.88-1.07,3.95-0.01c1.11,1.09,1.13,2.85,0.01,3.97c-0.81,0.82-1.66,1.61-2.5,2.41
					c-0.17,0.16-0.24,0.3-0.15,0.53c0.51,1.3,0.6,2.67,0.67,4.05c0.05,0.94,0.41,1.76,1.03,2.52c0.8-1.14,1.58-2.26,2.37-3.37
					c0.35-0.49,0.65-1.03,1.14-1.42c1.1-0.85,2.62-0.79,3.66,0.15c0.97,0.88,1.18,2.44,0.45,3.56c-0.6,0.91-1.25,1.79-1.87,2.68
					c-0.04,0.06-0.08,0.13-0.14,0.23c1.26,0.29,2.44,0.7,3.53,1.36c0.45,0.28,0.91,0.55,1.29,0.91c0.23,0.21,0.38,0.18,0.62,0.01
					c1.14-0.84,2.28-1.67,3.43-2.48c1.11-0.78,2.39-0.75,3.43,0.06c1.4,1.08,1.41,3.33-0.01,4.39c-1.2,0.91-2.43,1.78-3.67,2.65
					c-0.27,0.19-0.33,0.35-0.22,0.66c0.37,1.12,0.54,2.27,0.48,3.44c-0.01,0.3,0.06,0.45,0.38,0.53c0.95,0.26,1.88,0.63,2.84,0.86
					c1.33,0.33,2.27,1.03,2.66,2.38c0.06,0.41-0.04,0.87-0.06,1.22c-0.24,0.6-0.51,1.17-1.07,1.56c-0.77,0.53-1.6,0.7-2.5,0.43
					c-1.22-0.37-2.44-0.74-3.66-1.11c-0.16-0.05-0.31-0.16-0.46,0.06c-0.96,1.45-2.25,2.56-3.72,3.48
					C52.43,54.36,50.53,52.3,47.59,51.17z"/>
				<path class="st3" d="M15.29,32.43c0-0.1,0.01-0.19,0.04-0.29c0.33-1.05,0.94-1.82,2.07-2.12c0.47-0.13,0.96-0.07,1.44-0.08
					c0.76-0.01,1.51-0.01,2.27,0c0.28,0,0.41-0.05,0.49-0.37c0.19-0.84,0.49-1.66,0.91-2.41c0.14-0.25,0.11-0.42-0.08-0.63
					c-0.88-1.02-1.75-2.05-2.61-3.09c-0.76-0.93-0.92-1.97-0.41-3.06c0.5-1.07,1.41-1.6,2.58-1.6c0.8,0,1.5,0.32,2.03,0.94
					c0.86,1,1.7,2.01,2.56,3.01l0,0l0,0c0.11,0.13,0.21,0.26,0.31,0.39c0.03,0.04,0.06,0.08,0.09,0.11c0.08,0.1,0.15,0.19,0.22,0.29
					c0.03,0.04,0.06,0.08,0.09,0.12c0.08,0.11,0.16,0.22,0.24,0.33c0.02,0.02,0.03,0.05,0.05,0.07c0.1,0.14,0.2,0.29,0.3,0.43
					c0,0,0,0,0,0c0.09,0.14,0.18,0.28,0.27,0.42c0.01,0.02,0.03,0.05,0.04,0.07c0.08,0.13,0.16,0.26,0.23,0.38
					c0.01,0.02,0.02,0.04,0.03,0.06c0.18,0.3,0.35,0.61,0.51,0.93c0,0,0,0,0,0l0,0c1.51,2.84,1.73,5.09,2.38,7.64l0,0
					c0.05,0.17,0.1,0.34,0.16,0.5c0.02,0.06,0.04,0.11,0.06,0.17c0.04,0.11,0.07,0.22,0.11,0.33c0.02,0.07,0.05,0.13,0.07,0.19
					c0.04,0.1,0.07,0.2,0.11,0.3c0.03,0.07,0.05,0.13,0.08,0.2c0.04,0.1,0.08,0.2,0.12,0.3c0.03,0.07,0.05,0.13,0.08,0.2
					c0.04,0.1,0.08,0.2,0.13,0.3c0.03,0.06,0.05,0.13,0.08,0.19c0.05,0.11,0.1,0.22,0.14,0.33c0.02,0.05,0.05,0.1,0.07,0.16
					c0.07,0.16,0.15,0.32,0.22,0.48c1.58,3.28,3.73,6.13,6.46,8.54c2.47,2.19,5.27,3.82,8.34,5c2.93,1.12,4.84,3.18,5.65,6.23
					c0.34,1.29,0.71,2.58,1.01,3.88c0.35,1.5-0.58,2.96-2.08,3.34l0,0c-0.2,0.05-0.52,0.09-0.72,0.09h-0.06
					c-0.26,0-0.51-0.05-0.75-0.15c-0.36-0.15-0.72-0.3-1.02-0.58c-0.51-0.47-0.77-1.05-0.93-1.7c-0.26-1.04-0.53-2.07-0.78-3.12
					c-0.07-0.3-0.2-0.42-0.52-0.41c-1.68,0.01-3.33-0.2-4.97-0.53c-0.28-0.06-0.35,0.01-0.43,0.25c-0.4,1.23-0.82,2.45-1.24,3.68
					c-0.44,1.27-1.59,2.06-2.87,1.98c-1.24-0.07-2.28-0.97-2.57-2.24c-0.12-0.52-0.07-1.05,0.11-1.56c0.41-1.19,0.79-2.4,1.22-3.58
					c0.12-0.33,0.04-0.44-0.25-0.58c-1.47-0.68-2.86-1.52-4.16-2.49c-0.29-0.21-0.42-0.15-0.62,0.08c-0.84,0.93-1.7,1.84-2.55,2.77
					c-0.83,0.9-1.86,1.2-3.01,0.83c-1.16-0.38-1.81-1.23-1.92-2.46c-0.07-0.83,0.21-1.55,0.77-2.15c0.87-0.95,1.74-1.89,2.63-2.82
					c0.2-0.21,0.25-0.34,0.03-0.59c-1-1.14-1.87-2.37-2.62-3.68c-0.17-0.3-0.32-0.4-0.67-0.24c-1.02,0.47-2.05,0.89-3.08,1.33
					c-1.84,0.78-3.64-0.17-4.03-2.12c-0.23-1.15,0.45-2.44,1.59-2.96c1.09-0.49,2.2-0.96,3.31-1.41c0.32-0.13,0.38-0.26,0.28-0.6
					c-0.37-1.21-0.65-2.44-0.79-3.7c-0.03-0.29-0.14-0.4-0.45-0.4c-0.95,0.02-1.9,0.01-2.85,0.01c-1.46,0-2.48-0.78-2.88-2.2
					c0,0,0,0,0,0C15.24,32.97,15.29,32.43,15.29,32.43z"/>
			</g>
			<path class="st2" d="M46.38,53.79c-11.62,0-20.09-9.04-20.09-18.29c0-9.34,2.99-9.38,5.63-9.38s4.95,0.72,6.47,6.35
				c1.52,5.63,2.66,8.3,10.13,9.45S56.32,53.79,46.38,53.79z"/>
		</g>
		<g>
			<circle class="st1" cx="37.7" cy="30.34" r="2.73"/>
			<circle class="st1" cx="40.43" cy="47.67" r="2.73"/>
			<circle class="st1" cx="29.99" cy="43.13" r="2.73"/>
			<circle class="st1" cx="48.61" cy="45.86" r="1.82"/>
			<circle class="st1" cx="26.58" cy="30.78" r="1.82"/>
		</g>
	</g>
</g>
</svg>
