<?xml version="1.0" encoding="utf-8"?>
<!-- Generator: Adobe Illustrator 24.1.1, SVG Export Plug-In . SVG Version: 6.00 Build 0)  -->
<svg version="1.1" id="Capa_1" xmlns="http://www.w3.org/2000/svg" xmlns:xlink="http://www.w3.org/1999/xlink" x="0px" y="0px"
	 viewBox="0 0 80 80" style="enable-background:new 0 0 80 80;" xml:space="preserve">
<style type="text/css">
	.st0{fill:#BFBFBF;}
	.st1{fill:#A6CE39;}
	.st2{fill:#62BB46;}
	.st3{fill:#009F46;}
	.st4{fill:#FFFFFF;}
	.st5{fill:#F45B6A;}
	.st6{fill:none;stroke:#F45B6A;stroke-width:5.9259;stroke-miterlimit:10;}
	.st7{fill:#F8C5B0;}
	.st8{fill:#DAA28B;}
	.st9{fill:#FFFFFF;stroke:#F45B6A;stroke-width:5.9259;stroke-miterlimit:10;}
	.st10{fill:#999999;}
	.st11{fill:#007CC3;}
</style>
<g>
	<g>
		<g>
			<g>
				<circle class="st4" cx="40" cy="40" r="37.04"/>
				<path class="st5" d="M40,5.93c18.79,0,34.07,15.29,34.07,34.07S58.79,74.07,40,74.07S5.93,58.79,5.93,40S21.21,5.93,40,5.93
					 M40,0C17.91,0,0,17.91,0,40c0,22.09,17.91,40,40,40c22.09,0,40-17.91,40-40C80,17.91,62.09,0,40,0L40,0z"/>
			</g>
			<line class="st9" x1="67.64" y1="12.36" x2="12.36" y2="67.64"/>
		</g>
	</g>
	<g>
		<path class="st10" d="M37.26,59.13l1.71,1.71c1.16,1.16,3.05,1.16,4.22,0l17.66-17.66c1.16-1.16,1.16-3.05,0-4.22l-1.71-1.71
			c-0.68-0.68-1.8-0.68-2.48,0l-19.4,19.4C36.57,57.34,36.57,58.45,37.26,59.13z"/>
		<path class="st0" d="M60.95,43.07l2.85,2.85c1.13,1.13,1.13,2.95,0,4.08L50,63.8c-1.13,1.13-2.95,1.13-4.08,0l-2.85-2.85
			L60.95,43.07z"/>
		<path class="st10" d="M20.87,42.74l-1.71-1.71c-1.16-1.16-1.16-3.05,0-4.22l17.66-17.66c1.16-1.16,3.05-1.16,4.22,0l1.71,1.71
			c0.68,0.68,0.68,1.8,0,2.48l-19.4,19.4C22.66,43.43,21.55,43.43,20.87,42.74z"/>
		<path class="st0" d="M36.93,19.05l-2.85-2.85c-1.13-1.13-2.95-1.13-4.08,0L16.2,30c-1.13,1.13-1.13,2.95,0,4.08l2.85,2.85
			L36.93,19.05z"/>
		<g>
			<g>
				<g>
					<path class="st2" d="M61.81,55.91l-1.95-1.95l-5.9,5.9l1.95,1.95c0.96,0.96,2.52,0.96,3.49,0l2.41-2.41
						C62.77,58.43,62.77,56.87,61.81,55.91z"/>
				</g>
				<g>
					<polygon class="st2" points="36,30.1 30.1,36 37.05,42.95 44,49.9 49.9,44 42.95,37.05 					"/>
				</g>
				<g>
					<path class="st2" d="M20.6,18.19l-2.41,2.41c-0.96,0.96-0.96,2.52,0,3.49l1.95,1.95l5.9-5.9l-1.95-1.95
						C23.13,17.23,21.57,17.23,20.6,18.19z"/>
				</g>
			</g>
		</g>
	</g>
</g>
</svg>
