<?xml version="1.0" encoding="utf-8"?>
<!-- Generator: Adobe Illustrator 24.1.1, SVG Export Plug-In . SVG Version: 6.00 Build 0)  -->
<svg version="1.1" xmlns="http://www.w3.org/2000/svg" xmlns:xlink="http://www.w3.org/1999/xlink" x="0px" y="0px"
	 viewBox="0 0 70 70" style="enable-background:new 0 0 70 70;" xml:space="preserve">
<style type="text/css">
	.st0{fill:#F45B6A;}
	.st1{fill:#FFFFFF;}
</style>
<g id="Capa_1">
</g>
<g id="Capa_2">
	<g>
		<circle class="st0" cx="35" cy="35" r="35"/>
		<g>
			<g>
				<path class="st1" d="M31.3,52.2c-1-0.9-1.4-2-1.4-3.3c0-1.3,0.5-2.5,1.4-3.4c1-0.9,2.2-1.4,3.7-1.4c1.5,0,2.7,0.5,3.7,1.4
					s1.4,2,1.4,3.4c0,1.3-0.5,2.4-1.4,3.3c-1,0.9-2.2,1.3-3.7,1.3C33.5,53.6,32.3,53.1,31.3,52.2z M39.6,16.4l-1,24.2h-7.4l-1-24.2
					H39.6z"/>
			</g>
		</g>
	</g>
</g>
</svg>
