<?xml version="1.0" encoding="utf-8"?>
<!-- Generator: Adobe Illustrator 24.1.1, SVG Export Plug-In . SVG Version: 6.00 Build 0)  -->
<svg version="1.1" id="Capa_1" xmlns="http://www.w3.org/2000/svg" xmlns:xlink="http://www.w3.org/1999/xlink" x="0px" y="0px"
	 viewBox="0 0 85.29 80" style="enable-background:new 0 0 85.29 80;" xml:space="preserve">
<style type="text/css">
	.st0{fill:#BFBFBF;}
	.st1{fill:#A6CE39;}
	.st2{fill:#62BB46;}
	.st3{fill:#009F46;}
	.st4{fill:#FFFFFF;}
	.st5{fill:#F45B6A;}
	.st6{fill:none;stroke:#F45B6A;stroke-width:5.9259;stroke-miterlimit:10;}
	.st7{fill:#F8C5B0;}
	.st8{fill:#DAA28B;}
	.st9{fill:#FFFFFF;stroke:#F45B6A;stroke-width:5.9259;stroke-miterlimit:10;}
	.st10{fill:#999999;}
	.st11{fill:#007CC3;}
</style>
<g>
	<g>
		<path class="st0" d="M85.29,11.52c-0.22,0.68-0.4,1.36-0.65,2.02c-1.43,3.81-5.27,6.44-9.32,6.48c-2.02,0.02-4.05-0.19-6.06,0.14
			c-2.03,0.33-3.64,1.92-3.96,3.95c-0.1,0.64-0.29,0.97-1.04,0.91c-1.13-0.08-2.28-0.05-3.41-0.01c-0.61,0.02-0.77-0.21-0.72-0.77
			c0.27-2.98,1.6-5.39,3.95-7.21c1.78-1.38,3.82-2.04,6.1-2.05c1.94,0,3.88,0.18,5.81-0.14c2.17-0.36,3.75-1.9,4.14-4.08
			c0.09-0.53,0.27-0.81,0.9-0.78c1.41,0.06,2.83,0.02,4.25,0.02C85.29,10.52,85.29,11.02,85.29,11.52z"/>
		<path class="st0" d="M67.9,10.02c-1.1,0.07-2.4-0.1-3.7,0.15c-1.95,0.37-3.61,1.96-3.9,3.92c-0.1,0.71-0.34,1-1.1,0.94
			c-1.08-0.07-2.17-0.09-3.24,0c-0.87,0.07-0.9-0.39-0.83-0.99c0.34-2.87,1.64-5.21,3.92-6.97c1.81-1.4,3.87-2.07,6.18-2.07
			c1.91,0,3.83,0.18,5.73-0.13c2.09-0.35,3.66-1.89,3.99-4c0.1-0.62,0.31-0.9,1-0.86c1.11,0.06,2.23,0.08,3.33,0
			c0.87-0.07,0.9,0.39,0.83,0.99c-0.35,2.9-1.67,5.25-3.98,7.02c-2.1,1.62-4.51,2.16-7.11,2C68.72,10.01,68.41,10.02,67.9,10.02z"/>
	</g>
	<g>
		<path class="st1" d="M75.16,50c1.55,0.04,3.11-0.14,4.63,0.31c2.65,0.79,4.37,2.5,5.19,5.14c0.08,0.24,0.03,0.56,0.31,0.72
			c0,0.94,0,1.89,0,2.83c-0.26,0.09-0.25,0.34-0.32,0.54c-1.15,3.48-3.8,5.42-7.45,5.46c-1.02,0.01-2.05-0.01-3.07-0.01
			c0.18-1.67,0.37-3.33,0.55-5c0.91,0,1.82,0.02,2.73,0c1.47-0.04,2.55-1.11,2.55-2.5c0-1.39-1.09-2.45-2.56-2.49
			c-0.86-0.02-1.71,0-2.57,0C75.16,53.33,75.16,51.67,75.16,50z"/>
		<g>
			<path class="st2" d="M41.57,45.01c-10.19,0-20.39,0-30.58,0c-0.33,0-0.66,0.02-1,0.02C9.98,46.69,9.97,48.34,9.96,50
				c0,1.67,0,3.33,0,5c0.05,1.66,0.11,3.33,0.16,4.99c0.19,1.66,0.38,3.33,0.57,4.99c0.05,0.13,0.11,0.25,0.13,0.38
				c0.91,4.9,2.54,9.56,4.79,14.01c0.23,0.46,0.48,0.63,1,0.63c4.13-0.02,8.26-0.01,12.39-0.01c4.55,0,9.09-0.02,13.64-0.03
				c0-11.64,0-23.28,0-34.93C42.29,45.03,41.93,45.01,41.57,45.01z"/>
			<path class="st2" d="M75.13,45.03c-1.55-0.01-3.1-0.02-4.65-0.03c-8.95,0-17.89,0-26.84,0c-0.33,0-0.66-0.01-1-0.02
				c0,0-8.45,0.05-8.45,0.05c0,11.64,0,23.28,0,34.93c8.7,0.01,25.86,0.02,34.56,0.04c0.37,0,0.54-0.15,0.68-0.45
				c1.49-3.02,2.84-6.1,3.72-9.36c0.46-1.73,0.87-3.47,1.3-5.2c0.18-1.67,0.37-3.33,0.55-5c0.2-1.66,0.07-3.33,0.15-4.99
				c0-1.67,0-3.33,0-5C75.15,48.35,75.14,46.69,75.13,45.03z"/>
			<path class="st2" d="M41.65,40.01c0.33,0,0.66-0.02,1-0.03l0,0.05c5.79-0.01,11.58-0.01,17.37-0.02
				c4.96-0.01,9.92-0.02,14.88-0.03c-1.25-5.95-6.6-10.19-12.74-9.98c-2.6,0.09-5.22,0.01-7.82,0.02c-0.33,0-0.63,0-0.92-0.26
				c-1.03-0.93-2.15-1.74-3.3-2.5c-1.91-1.02-3.87-1.91-6.06-2.15c-0.47-0.05-0.94-0.1-1.41-0.06l0.01-0.06
				c-2.69,0.13-5.18,0.94-7.49,2.33c-1.05,0.67-2.07,1.38-2.99,2.23c-0.39,0.37-0.82,0.48-1.35,0.48c-2.99-0.02-5.99-0.06-8.97,0.02
				c-5.57,0.16-10.53,4.46-11.58,9.93c1.3,0.01,2.61,0.03,3.91,0.03C23.34,40.01,32.49,40.01,41.65,40.01z"/>
		</g>
		<path class="st3" d="M80.14,40.6c0.01-0.46-0.11-0.61-0.59-0.61c-1.55,0.02-3.1-0.01-4.65-0.02c-4.96,0.01-9.92,0.02-14.88,0.03
			c-5.79,0.01-11.58,0.02-17.37,0.02c0,0,0-0.05,0-0.05c-0.33,0.01-0.66,0.03-1,0.03c-9.15,0-18.31,0-27.46,0
			c-1.3,0-2.61-0.02-3.91-0.03c-1.53,0.01-3.05,0.05-4.58,0.01c-0.61-0.02-0.74,0.18-0.72,0.75c0.04,1.19,0.04,2.39,0,3.58
			c-0.02,0.53,0.12,0.71,0.68,0.7c1.44-0.03,2.89,0,4.33,0.01c0.33-0.01,0.66-0.02,1-0.02c10.19,0,20.39,0,30.58,0
			c0.36,0,0.72,0.02,1.08,0.03c0,0,0-0.05,0-0.05c0.33,0.01,0.66,0.02,1,0.02c8.95,0,17.89,0,26.84,0c1.55,0,3.1,0.02,4.65,0.03
			c1.47-0.01,2.93-0.04,4.4-0.02c0.46,0.01,0.62-0.11,0.61-0.59C80.1,43.15,80.11,41.88,80.14,40.6z"/>
		<path class="st1" d="M9.96,50c0,1.67,0,3.33,0,5c-0.83,0-1.66-0.02-2.49,0.01C6.06,55.06,5,56.14,5,57.5
			c0,1.36,1.06,2.44,2.47,2.49c0.88,0.03,1.77,0,2.65,0c0.19,1.66,0.38,3.33,0.57,4.99c-1.9-0.04-3.82,0.19-5.69-0.44
			C2.11,63.56-0.01,60.62,0,57.49c0.01-3.14,2.12-6.05,5.03-7.04C6.65,49.9,8.31,50.04,9.96,50z"/>
		<path class="st1" d="M50.11,21.93c-0.19-3.85-3.66-7.01-7.46-6.88c-3.88,0.06-6.89,2.7-7.39,6.53c-0.25,1.9-0.08,3.82-0.09,5.74
			c2.31-1.38,4.79-2.19,7.49-2.33l-0.01,0.06c0.47-0.04,0.94,0.01,1.41,0.06c2.19,0.24,4.15,1.13,6.06,2.15
			C50.11,25.48,50.2,23.7,50.11,21.93z"/>
	</g>
</g>
</svg>
