<?xml version="1.0" encoding="utf-8"?>
<!-- Generator: Adobe Illustrator 24.1.1, SVG Export Plug-In . SVG Version: 6.00 Build 0)  -->
<svg version="1.1" id="Capa_1" xmlns="http://www.w3.org/2000/svg" xmlns:xlink="http://www.w3.org/1999/xlink" x="0px" y="0px"
	 viewBox="0 0 80.1 80" style="enable-background:new 0 0 80.1 80;" xml:space="preserve">
<style type="text/css">
	.st0{fill:#BFBFBF;}
	.st1{fill:#A6CE39;}
	.st2{fill:#62BB46;}
	.st3{fill:#009F46;}
	.st4{fill:#FFFFFF;}
	.st5{fill:#F45B6A;}
	.st6{fill:none;stroke:#F45B6A;stroke-width:5.9259;stroke-miterlimit:10;}
	.st7{fill:#F8C5B0;}
	.st8{fill:#DAA28B;}
	.st9{fill:#FFFFFF;stroke:#F45B6A;stroke-width:5.9259;stroke-miterlimit:10;}
	.st10{fill:#999999;}
	.st11{fill:#007CC3;}
</style>
<g>
	<path class="st0" d="M78.39,38.59c1.7-0.03,1.7-0.03,1.7,1.67c0,0.18-0.01,0.36,0,0.54c0.03,0.37-0.1,0.53-0.5,0.52
		c-1.74-0.05-3.48-0.11-5.22-0.28c-0.09-0.01-0.21,0.02-0.27-0.02c-0.53-0.45-0.15-1.04-0.24-1.57c-0.04-0.24-0.11-0.58,0.32-0.61
		c0.32-0.03,0.63-0.08,0.94-0.1C76.23,38.69,77.31,38.64,78.39,38.59z"/>
	<path class="st0" d="M74.57,37.48c-0.79,0.02-0.79,0.02-0.85-1.02c-0.07-1.11-0.07-1.13,1.04-1.32c1.51-0.26,3.03-0.49,4.54-0.74
		c0.24-0.04,0.38,0,0.41,0.29c0.07,0.7,0.17,1.39,0.25,2.08c0.04,0.33-0.11,0.43-0.42,0.44C77.96,37.29,76.39,37.38,74.57,37.48z"/>
	<path class="st0" d="M47.33,0.59c0.67,0.15,1.42,0.31,2.16,0.49c0.23,0.05,0.24,0.22,0.18,0.42c-0.47,1.74-0.94,3.49-1.39,5.24
		c-0.07,0.27-0.18,0.4-0.47,0.28c-0.1-0.04-0.22-0.04-0.33-0.07c-1.52-0.35-1.5-0.35-1.23-1.9c0.24-1.33,0.44-2.67,0.65-4.01
		C46.93,0.81,46.89,0.55,47.33,0.59z"/>
	<path class="st0" d="M68.9,12.27c0.09,0.07,0.21,0.15,0.3,0.24c0.43,0.47,0.84,0.95,1.28,1.4c0.24,0.25,0.19,0.37-0.07,0.58
		c-1.39,1.12-2.78,2.25-4.15,3.39c-0.26,0.22-0.37,0.18-0.59-0.05c-1.26-1.32-1.26-1.31,0.03-2.61c0.85-0.85,1.7-1.7,2.55-2.54
		C68.44,12.5,68.61,12.33,68.9,12.27z"/>
	<path class="st0" d="M57.85,11.13c-0.14,0.01-1.65-0.92-1.7-1.06c-0.06-0.2,0.06-0.35,0.14-0.51c0.77-1.52,1.55-3.03,2.33-4.54
		c0.11-0.22,0.2-0.47,0.55-0.25c0.57,0.37,1.16,0.7,1.76,1.04c0.26,0.15,0.3,0.3,0.14,0.54c-0.99,1.52-1.97,3.05-2.95,4.57
		C58.05,11.02,58.01,11.14,57.85,11.13z"/>
	<path class="st0" d="M51.26,8.03c-0.49-0.16-1.05-0.35-1.6-0.54c-0.21-0.07-0.14-0.24-0.1-0.4c0.47-1.74,0.95-3.49,1.41-5.24
		c0.08-0.29,0.21-0.37,0.48-0.27c0.64,0.22,1.29,0.43,1.93,0.64c0.27,0.09,0.35,0.24,0.24,0.51c-0.65,1.69-1.29,3.38-1.94,5.07
		C51.62,7.96,51.53,8.08,51.26,8.03z"/>
	<path class="st0" d="M65.75,9.34c0.08,0.02,0.13,0.02,0.16,0.05c0.6,0.55,1.21,1.09,1.78,1.66c0.16,0.16-0.04,0.35-0.16,0.47
		c-1.24,1.26-2.4,2.6-3.76,3.72c-0.65,0.54-0.99-0.55-1.5-0.85c-0.31-0.18-0.32-0.42-0.07-0.72c1.13-1.35,2.23-2.73,3.35-4.09
		C65.61,9.49,65.69,9.41,65.75,9.34z"/>
	<path class="st0" d="M42.55,5.26c0.08-1.6,0.17-3.2,0.24-4.8c0.01-0.33,0.14-0.45,0.46-0.41c0.69,0.09,1.39,0.18,2.08,0.26
		c0.29,0.03,0.31,0.19,0.27,0.42c-0.27,1.72-0.54,3.43-0.81,5.15c-0.07,0.44-0.26,0.65-0.73,0.5c-0.19-0.06-0.4-0.07-0.6-0.08
		C42.51,6.23,42.51,6.24,42.55,5.26z"/>
	<path class="st0" d="M75.33,21.05c-0.03,0.23-0.21,0.27-0.34,0.33c-1.53,0.79-3.06,1.56-4.58,2.36c-0.36,0.19-0.55,0.13-0.77-0.21
		c-0.92-1.4-0.92-1.39,0.45-2.27c1.12-0.72,2.24-1.44,3.34-2.19c0.44-0.3,0.7-0.27,0.93,0.23c0.24,0.51,0.55,0.99,0.83,1.48
		C75.24,20.88,75.29,20.97,75.33,21.05z"/>
	<path class="st0" d="M54.66,9.41C54.1,9.15,53.54,8.92,53,8.64c-0.22-0.11-0.08-0.32-0.02-0.48c0.63-1.63,1.27-3.25,1.88-4.88
		c0.12-0.32,0.23-0.44,0.58-0.27c0.57,0.28,1.15,0.52,1.74,0.76c0.33,0.13,0.39,0.32,0.23,0.63c-0.78,1.53-1.55,3.08-2.34,4.61
		C54.99,9.17,54.93,9.41,54.66,9.41z"/>
	<path class="st0" d="M73.57,33.96c-0.51-0.42-0.33-1.19-0.58-1.77c-0.16-0.38,0.12-0.42,0.36-0.48c1.7-0.45,3.41-0.89,5.11-1.36
		c0.35-0.1,0.46,0.04,0.53,0.31c0.14,0.64,0.27,1.28,0.42,1.92c0.07,0.28-0.04,0.44-0.31,0.49C77.31,33.36,75.53,33.65,73.57,33.96z
		"/>
	<path class="st0" d="M71.61,27.11c-0.16,0.02-0.24-0.06-0.29-0.16c-0.24-0.51-0.48-1.03-0.7-1.55c-0.1-0.24,0.11-0.31,0.27-0.39
		c1.57-0.81,3.15-1.6,4.72-2.41c0.32-0.17,0.5-0.08,0.63,0.24c0.24,0.59,0.5,1.17,0.76,1.74c0.1,0.23,0.19,0.4-0.15,0.53
		c-1.69,0.64-3.38,1.3-5.07,1.95C71.72,27.08,71.65,27.1,71.61,27.11z"/>
	<path class="st0" d="M78.46,28.68c0.03,0.29-0.19,0.32-0.39,0.37c-1.73,0.47-3.45,0.93-5.18,1.41c-0.22,0.06-0.35,0.04-0.4-0.2
		c-0.01-0.04-0.03-0.09-0.04-0.13c-0.65-1.66-0.65-1.66,1-2.29c1.16-0.45,2.34-0.86,3.49-1.35c0.6-0.26,0.85-0.11,0.99,0.5
		C78.06,27.57,78.28,28.12,78.46,28.68z"/>
	<path class="st0" d="M64.59,8.54c-0.06,0.09-0.14,0.23-0.23,0.35c-1.05,1.3-2.12,2.59-3.15,3.91c-0.26,0.33-0.45,0.34-0.78,0.13
		c-1.43-0.91-1.44-0.9-0.49-2.35c0.74-1.14,1.5-2.27,2.22-3.41c0.21-0.34,0.38-0.37,0.69-0.13c0.5,0.39,1.02,0.75,1.53,1.13
		C64.47,8.25,64.6,8.31,64.59,8.54z"/>
	<path class="st2" d="M3.51,41.17c-0.84-0.13-1.84,0.2-2.86,0.15C0.19,41.3-0.02,41.17,0,40.69c0.02-0.54,0.02-1.09,0-1.63
		c-0.01-0.35,0.13-0.5,0.48-0.47c1.78,0.11,3.56,0.08,5.34,0.26c0.37,0.04,0.47,0.18,0.45,0.51c-0.01,0.16,0,0.32,0,0.48
		c0,1.31,0,1.31-1.35,1.34C4.51,41.18,4.1,41.17,3.51,41.17z"/>
	<path class="st0" d="M73.15,17.45c0.02,0.25-0.16,0.3-0.29,0.38c-1.44,0.94-2.88,1.87-4.31,2.82c-0.37,0.25-0.57,0.17-0.82-0.17
		c-0.95-1.31-0.96-1.3,0.31-2.33c1-0.81,2.01-1.61,3-2.44c0.38-0.32,0.65-0.41,0.95,0.11c0.27,0.47,0.63,0.88,0.95,1.32
		C73.02,17.26,73.1,17.37,73.15,17.45z"/>
	<path class="st0" d="M38.7,78.39c0.28-1.2,0-2.73,0.27-4.22c0.01-0.07-0.02-0.16,0.02-0.2c0.51-0.49,1.14-0.14,1.71-0.23
		c0.3-0.05,0.41,0.1,0.46,0.42c0.1,0.56,0.15,1.12,0.12,1.68c-0.08,1.15,0.17,2.29,0.15,3.45c-0.01,0.38-0.09,0.57-0.49,0.64
		C40.65,79.98,40.36,80,40.07,80C38.7,80,38.7,80,38.7,78.39z"/>
	<path class="st2" d="M3.29,42.53c0.82,0.13,1.62-0.15,2.44-0.14c0.47,0,0.65,0.2,0.68,0.64c0.02,0.4-0.05,0.81,0.09,1.21
		c0.1,0.3-0.15,0.32-0.35,0.36c-1,0.17-1.99,0.4-3,0.5c-0.76,0.08-1.49,0.33-2.28,0.34c-0.39,0-0.39-0.09-0.49-0.39
		c-0.22-0.67,0.02-1.36-0.21-2.02c-0.09-0.26,0.11-0.37,0.35-0.36C1.45,42.74,2.36,42.42,3.29,42.53z"/>
	<path class="st0" d="M37.61,74.41c-0.13,1.73-0.27,3.37-0.28,5.02c0,0.21-0.03,0.49-0.3,0.41c-0.73-0.21-1.49-0.01-2.22-0.23
		c-0.3-0.09-0.34-0.22-0.3-0.48c0.27-1.69,0.53-3.38,0.8-5.07c0.06-0.38,0.17-0.7,0.71-0.49c0.24,0.1,0.54,0.01,0.81,0.04
		C37.34,73.68,37.79,73.82,37.61,74.41z"/>
	<path class="st2" d="M6.31,61.04c-0.27,0.03-0.32-0.15-0.39-0.28c-0.34-0.56-0.66-1.13-1.02-1.68c-0.17-0.26-0.11-0.41,0.15-0.54
		c1.62-0.81,3.24-1.62,4.85-2.43c0.27-0.13,0.42-0.06,0.54,0.19c0.1,0.2,0.21,0.4,0.33,0.59c0.58,0.91,0.6,0.95-0.29,1.49
		C9.22,59.15,8,59.96,6.8,60.79C6.64,60.91,6.44,60.97,6.31,61.04z"/>
	<path class="st2" d="M21.15,75.22c-0.54-0.32-1.07-0.62-1.59-0.93c-0.75-0.45-0.77-0.34-0.2-1.19c0.85-1.27,1.66-2.57,2.46-3.87
		c0.22-0.36,0.43-0.44,0.83-0.26c1.47,0.68,1.51,0.76,0.79,2.18c-0.63,1.23-1.26,2.44-1.9,3.66C21.44,74.99,21.4,75.22,21.15,75.22z
		"/>
	<path class="st2" d="M0.92,34.43c1.85,0.3,3.47,0.56,5.09,0.82c0.39,0.06,0.65,0.19,0.45,0.66c-0.07,0.16-0.05,0.36-0.06,0.54
		c-0.03,1.05-0.11,1.14-1.15,1.04c-1.53-0.15-3.06-0.27-4.6-0.26c-0.41,0-0.61-0.11-0.45-0.56c0.17-0.5,0.08-1.03,0.16-1.55
		C0.45,34.58,0.47,34.2,0.92,34.43z"/>
	<path class="st0" d="M79.25,45.47c-1.89-0.31-3.53-0.58-5.18-0.84c-0.38-0.06-0.59-0.19-0.42-0.62c0.07-0.18,0.06-0.4,0.06-0.6
		c0.02-0.99,0.08-1.08,1.05-1c1.58,0.13,3.15,0.27,4.73,0.26c0.39,0,0.56,0.13,0.42,0.53c-0.17,0.52-0.1,1.08-0.17,1.61
		C79.68,45.36,79.58,45.6,79.25,45.47z"/>
	<path class="st2" d="M13.19,60.64c-0.03,0.23-0.21,0.35-0.36,0.48c-1.27,1.05-2.54,2.08-3.81,3.13c-0.29,0.24-0.56,0.26-0.8-0.08
		c-0.37-0.51-0.74-1.02-1.12-1.52C6.92,62.4,6.94,62.26,7.2,62.1c1.4-0.91,2.79-1.83,4.17-2.76c0.53-0.36,0.89-0.31,1.17,0.29
		C12.7,59.99,13.07,60.23,13.19,60.64z"/>
	<path class="st0" d="M42.52,74.34c-0.13-0.46,0.15-0.6,0.56-0.69c0.44-0.1,0.9-0.01,1.34-0.14c0.3-0.09,0.27,0.24,0.3,0.42
		c0.22,1.26,0.44,2.52,0.64,3.79c0.09,0.59,0.38,1.39,0.12,1.74c-0.27,0.36-1.12,0.29-1.73,0.28c-0.15,0-0.31,0.08-0.46,0.1
		c-0.33,0.06-0.51-0.03-0.51-0.41C42.79,77.74,42.64,76.05,42.52,74.34z"/>
	<path class="st0" d="M36.13,6.3c-0.45,0.17-0.76,0.04-0.82-0.56c-0.16-1.68-0.58-3.32-0.73-5c-0.03-0.35,0.02-0.42,0.35-0.44
		c0.63-0.05,1.25-0.15,1.87-0.24c0.36-0.06,0.54,0.03,0.55,0.45c0.03,1.29,0.09,2.57,0.13,3.85c0.01,0.16-0.01,0.32,0.01,0.47
		C37.67,6.25,37.67,6.25,36.13,6.3z"/>
	<path class="st0" d="M13.18,19.18c0,0.22-1.01,1.65-1.13,1.64c-0.45-0.03-0.77-0.36-1.12-0.58c-1.22-0.77-2.4-1.6-3.61-2.37
		c-0.38-0.24-0.39-0.41-0.14-0.73c0.35-0.44,0.67-0.9,1-1.36c0.24-0.34,0.51-0.4,0.85-0.12c1.27,1.04,2.54,2.08,3.81,3.13
		C12.98,18.9,13.09,19.07,13.18,19.18z"/>
	<path class="st0" d="M73.15,62.46c-0.2,0.27-0.42,0.55-0.64,0.84c-0.94,1.21-0.95,1.23-2.14,0.31c-1.03-0.8-2.03-1.65-3.05-2.45
		c-0.43-0.34-0.43-0.63-0.08-1.06c0.95-1.18,0.92-1.16,2.19-0.27c1.1,0.78,2.26,1.48,3.39,2.22C72.97,62.14,73.17,62.18,73.15,62.46
		z"/>
	<path class="st0" d="M7,30.38c-0.87-0.24-1.89-0.52-2.91-0.79c-0.68-0.18-1.35-0.37-2.03-0.54c-0.29-0.07-0.48-0.17-0.37-0.5
		c0.21-0.62,0.43-1.24,0.64-1.86c0.1-0.28,0.25-0.38,0.56-0.25c1.64,0.64,3.29,1.26,4.94,1.88c0.08,0.03,0.23,0.06,0.24,0.1
		c0.09,0.61-0.28,1.1-0.41,1.66C7.6,30.38,7.42,30.44,7,30.38z"/>
	<path class="st0" d="M72.95,49.45c0.82,0.24,1.64,0.48,2.47,0.71c0.87,0.24,1.74,0.47,2.62,0.68c0.28,0.07,0.5,0.15,0.39,0.49
		c-0.19,0.6-0.41,1.2-0.61,1.79c-0.11,0.32-0.26,0.48-0.65,0.32c-1.62-0.64-3.24-1.25-4.87-1.86c-0.3-0.11-0.4-0.23-0.27-0.54
		c0.17-0.4,0.29-0.81,0.41-1.22C72.52,49.56,72.67,49.43,72.95,49.45z"/>
	<path class="st2" d="M8.15,51.25c0.02,0.25-0.16,0.26-0.31,0.31c-1.65,0.63-3.3,1.25-4.94,1.88c-0.3,0.12-0.47,0.05-0.57-0.24
		c-0.22-0.64-0.46-1.28-0.66-1.92c-0.08-0.24,0.08-0.37,0.31-0.43c1.68-0.45,3.35-0.91,5.03-1.35c0.35-0.09,0.6,0.02,0.7,0.42
		C7.84,50.38,8.01,50.82,8.15,51.25z"/>
	<path class="st0" d="M47.77,72.91c0.31-0.05,0.45,0.11,0.53,0.4c0.46,1.7,0.91,3.4,1.39,5.1c0.1,0.36-0.15,0.39-0.35,0.44
		c-0.66,0.16-1.32,0.3-1.98,0.44c-0.4,0.09-0.39-0.27-0.43-0.47c-0.22-1.17-0.4-2.35-0.59-3.53c-0.08-0.49-0.14-0.98-0.23-1.47
		c-0.07-0.36-0.07-0.6,0.41-0.64C46.93,73.14,47.35,73,47.77,72.91z"/>
	<path class="st0" d="M22.28,11.05c-0.18-0.01-0.26-0.14-0.35-0.28C21,9.35,20.07,7.94,19.14,6.53c-0.19-0.29-0.29-0.54,0.14-0.76
		c0.56-0.29,1.1-0.63,1.63-0.97c0.3-0.2,0.44-0.1,0.58,0.18c0.79,1.6,1.59,3.19,2.39,4.79c0.06,0.12,0.13,0.24,0.06,0.38
		C23.86,10.29,22.46,11.06,22.28,11.05z"/>
	<path class="st0" d="M20.94,11.8c0.04,0.17-0.08,0.24-0.19,0.33c-1.27,1.11-1.3,1.14-2.4-0.11c-0.9-1.01-1.72-2.08-2.58-3.13
		c-0.28-0.34-0.21-0.6,0.12-0.85c0.5-0.35,0.99-0.71,1.48-1.07c0.19-0.14,0.34-0.2,0.5,0.05c0.98,1.51,1.97,3.02,2.95,4.53
		C20.87,11.64,20.9,11.73,20.94,11.8z"/>
	<path class="st0" d="M7.1,32.25C7,32.71,6.9,33.17,6.8,33.63c-0.06,0.28-0.27,0.33-0.52,0.29c-1.67-0.27-3.33-0.53-5-0.81
		c-0.38-0.06-0.7-0.16-0.49-0.7c0.17-0.44,0.24-0.92,0.28-1.39c0.06-0.65,0.34-0.75,0.92-0.58c1.56,0.46,3.13,0.88,4.7,1.3
		C6.99,31.82,7.15,31.93,7.1,32.25z"/>
	<path class="st2" d="M7.08,47.58c0.01,0.33-0.02,0.48-0.29,0.55c-1.73,0.45-3.45,0.9-5.16,1.39c-0.33,0.09-0.4-0.05-0.46-0.29
		c-0.15-0.66-0.29-1.32-0.44-1.98c-0.1-0.45,0.3-0.42,0.52-0.46c1.17-0.22,2.36-0.39,3.53-0.58c0.47-0.07,0.94-0.13,1.4-0.23
		c0.34-0.07,0.57-0.03,0.64,0.37C6.9,46.8,7.01,47.24,7.08,47.58z"/>
	<path class="st0" d="M73.66,45.95c1.28,0.2,2.48,0.39,3.68,0.59c0.38,0.06,0.75,0.16,1.13,0.21c1.02,0.16,1.02,0.15,0.8,1.16
		c-0.12,0.53-0.11,1.21-0.44,1.53c-0.39,0.37-1-0.13-1.5-0.24c-1.34-0.31-2.66-0.71-3.99-1.06c-0.22-0.06-0.33-0.16-0.3-0.37
		c0.09-0.53,0.2-1.06,0.32-1.59C73.4,46,73.57,45.95,73.66,45.95z"/>
	<path class="st0" d="M57.72,68.85c0.29,0,0.38,0.12,0.47,0.26c0.94,1.43,1.88,2.87,2.83,4.3c0.18,0.28,0.23,0.51-0.15,0.71
		c-0.56,0.29-1.1,0.62-1.63,0.97c-0.29,0.19-0.44,0.14-0.58-0.15c-0.79-1.6-1.59-3.19-2.4-4.78c-0.15-0.29-0.09-0.45,0.19-0.59
		C56.9,69.32,57.35,69.06,57.72,68.85z"/>
	<path class="st0" d="M32.33,6.99c-0.28,0.03-0.42-0.1-0.49-0.37c-0.44-1.7-0.88-3.4-1.35-5.1c-0.09-0.32,0.02-0.41,0.28-0.47
		c0.66-0.15,1.32-0.29,1.98-0.44c0.45-0.11,0.42,0.29,0.47,0.5c0.17,0.86,0.3,1.73,0.44,2.6c0.13,0.8,0.25,1.6,0.38,2.4
		c0.05,0.33,0.06,0.56-0.39,0.6C33.2,6.76,32.77,6.89,32.33,6.99z"/>
	<path class="st0" d="M32.3,72.91c0.51,0.1,1.02,0.19,1.53,0.29c0.29,0.06,0.25,0.29,0.22,0.49c-0.27,1.69-0.54,3.38-0.82,5.06
		c-0.07,0.41-0.21,0.64-0.72,0.46c-0.5-0.18-1.06-0.22-1.59-0.32c-0.34-0.07-0.54-0.19-0.41-0.63c0.46-1.63,0.87-3.27,1.3-4.9
		C31.88,73.11,31.95,72.85,32.3,72.91z"/>
	<path class="st0" d="M11.16,22.17c0.01,0.13-0.79,1.6-0.9,1.65c-0.17,0.09-0.31-0.02-0.44-0.09c-1.52-0.76-3.03-1.52-4.55-2.27
		c-0.41-0.2-0.44-0.48-0.23-0.83c0.28-0.49,0.6-0.96,0.85-1.47c0.19-0.37,0.4-0.37,0.7-0.18c1.41,0.93,2.83,1.86,4.24,2.79
		C10.97,21.88,11.15,21.95,11.16,22.17z"/>
	<path class="st0" d="M70.08,56.05c0.08,0.04,0.23,0.1,0.37,0.18c1.42,0.71,2.82,1.43,4.25,2.12c0.55,0.26,0.64,0.57,0.32,1.06
		c-0.28,0.44-0.56,0.88-0.79,1.34c-0.19,0.39-0.43,0.33-0.71,0.15c-1.41-0.93-2.82-1.87-4.24-2.78c-0.32-0.2-0.39-0.4-0.2-0.72
		c0.22-0.37,0.42-0.75,0.63-1.12C69.78,56.15,69.84,56.03,70.08,56.05z"/>
	<path class="st0" d="M30.5,73c-0.04,0.15-0.15,0.49-0.24,0.84c-0.37,1.39-0.74,2.79-1.11,4.19c-0.07,0.27-0.23,0.37-0.5,0.28
		c-0.62-0.22-1.23-0.44-1.85-0.65c-0.31-0.11-0.34-0.28-0.23-0.57c0.63-1.64,1.26-3.29,1.88-4.94c0.03-0.08,0.07-0.23,0.11-0.23
		c0.61-0.06,1.11,0.29,1.67,0.43C30.48,72.41,30.55,72.57,30.5,73z"/>
	<path class="st0" d="M30.53,7.13c0.02,0.16-0.03,0.34-0.32,0.42c-0.43,0.12-0.86,0.27-1.29,0.43c-0.23,0.09-0.37,0.08-0.47-0.19
		c-0.63-1.69-1.27-3.39-1.92-5.07c-0.1-0.26-0.01-0.38,0.21-0.46c0.64-0.23,1.28-0.45,1.91-0.68c0.24-0.09,0.41,0,0.47,0.23
		c0.46,1.7,0.92,3.4,1.37,5.1C30.52,6.95,30.52,7,30.53,7.13z"/>
	<path class="st0" d="M49.59,72.8c-0.02-0.23,0.07-0.35,0.3-0.46c1.53-0.71,1.59-0.69,2.19,0.89c0.47,1.25,0.95,2.49,1.45,3.73
		c0.18,0.44,0.06,0.64-0.4,0.76c-0.54,0.14-1.07,0.36-1.59,0.56c-0.29,0.11-0.48,0.07-0.57-0.25c-0.45-1.65-0.9-3.31-1.35-4.96
		C49.6,72.98,49.6,72.89,49.59,72.8z"/>
	<path class="st0" d="M40.04,0.02c1.39,0,1.43,0,1.38,1.39c-0.05,1.46-0.08,2.94-0.3,4.38c-0.12,0.78-0.94,0.23-1.43,0.35
		c-0.25,0.06-0.67,0.18-0.7-0.35c-0.04-0.67-0.15-1.35-0.12-2.02c0.04-1-0.12-1.98-0.17-2.97c-0.03-0.66,0.21-0.85,0.81-0.77
		C39.67,0.04,39.85,0.02,40.04,0.02z"/>
	<path class="st2" d="M20.95,68.07c-0.07,0.15-0.14,0.35-0.25,0.51c-0.89,1.34-1.8,2.66-2.66,4.01c-0.27,0.42-0.48,0.46-0.85,0.16
		c-0.44-0.36-0.91-0.67-1.37-1c-0.34-0.24-0.26-0.49-0.05-0.75c1.04-1.28,2.09-2.55,3.12-3.83c0.3-0.38,0.59-0.43,0.96-0.1
		c0.27,0.24,0.57,0.45,0.86,0.66C20.82,67.81,20.94,67.87,20.95,68.07z"/>
	<path class="st0" d="M18.11,14.05c-0.21,0.38-0.56,0.61-0.83,0.9c-0.47,0.49-0.83,0.44-1.3-0.07c-1.03-1.11-2.11-2.18-3.21-3.22
		c-0.47-0.44-0.4-0.75,0.06-1.08c0.43-0.3,0.81-0.65,1.16-1.04c0.25-0.27,0.45-0.26,0.65,0.03c0.99,1.43,2.17,2.71,3.25,4.06
		C17.98,13.75,18.04,13.91,18.11,14.05z"/>
	<path class="st0" d="M60.72,66.82c0.26,0.02,0.38,0.21,0.5,0.36c1.05,1.27,2.09,2.55,3.13,3.83c0.2,0.25,0.31,0.51-0.04,0.75
		c-0.48,0.34-0.96,0.68-1.42,1.04c-0.32,0.25-0.52,0.24-0.76-0.12c-0.92-1.43-1.85-2.84-2.79-4.25c-0.22-0.34-0.19-0.53,0.18-0.75
		C59.94,67.4,60.28,67.03,60.72,66.82z"/>
	<path class="st0" d="M27.22,71.42c-0.09,0.24-0.17,0.45-0.25,0.66c-0.58,1.49-1.18,2.98-1.72,4.48c-0.16,0.44-0.34,0.44-0.69,0.26
		c-0.48-0.24-0.97-0.5-1.48-0.66c-0.52-0.17-0.46-0.41-0.26-0.79c0.75-1.47,1.5-2.94,2.21-4.43c0.19-0.39,0.39-0.5,0.77-0.31
		c0.39,0.19,0.78,0.36,1.17,0.53C27.11,71.22,27.2,71.3,27.22,71.42z"/>
	<path class="st0" d="M27.25,8.5c-0.39,0.36-0.94,0.49-1.42,0.73c-0.17,0.09-0.44,0.34-0.64-0.01c-0.06-0.1-0.11-0.2-0.16-0.3
		c-0.74-1.48-1.46-2.96-2.23-4.42c-0.23-0.44-0.15-0.62,0.3-0.78c0.53-0.19,1.04-0.45,1.54-0.69c0.27-0.13,0.44-0.14,0.57,0.2
		c0.63,1.69,1.29,3.37,1.94,5.05C27.17,8.32,27.19,8.36,27.25,8.5z"/>
	<path class="st0" d="M54.7,70.52c0.18-0.03,0.23,0.12,0.29,0.24c0.81,1.62,1.62,3.24,2.44,4.86c0.12,0.23,0.07,0.35-0.19,0.46
		c-0.61,0.25-1.2,0.52-1.79,0.81c-0.32,0.15-0.43,0.03-0.54-0.26c-0.62-1.65-1.26-3.29-1.89-4.94c-0.05-0.12-0.17-0.28-0.02-0.36
		C53.53,71,54.09,70.7,54.7,70.52z"/>
	<path class="st0" d="M65.82,70.45c-0.3-0.11-0.5-0.39-0.71-0.65c-0.94-1.15-1.86-2.31-2.81-3.46c-0.27-0.33-0.33-0.57,0.02-0.91
		c1.11-1.09,1.09-1.11,2.17-0.04c0.96,0.96,1.91,1.93,2.89,2.87c0.38,0.37,0.43,0.64,0,0.99c-0.4,0.33-0.78,0.68-1.17,1.02
		C66.11,70.36,66.01,70.46,65.82,70.45z"/>
	<path class="st2" d="M9.49,54.57c0.04,0.27-0.22,0.29-0.38,0.37c-1.53,0.79-3.07,1.57-4.6,2.35c-0.26,0.14-0.44,0.13-0.58-0.2
		c-0.24-0.61-0.53-1.2-0.81-1.8c-0.13-0.28-0.05-0.4,0.22-0.51c1.65-0.63,3.29-1.27,4.94-1.91c0.13-0.05,0.31-0.2,0.43,0
		C9,53.42,9.3,53.96,9.49,54.57z"/>
	<path class="st0" d="M9.49,25.32c-0.19,0.62-0.48,1.16-0.79,1.69c-0.13,0.21-0.35,0.03-0.49-0.03C6.6,26.37,5,25.73,3.4,25.12
		c-0.35-0.13-0.41-0.27-0.25-0.6c0.27-0.55,0.53-1.1,0.76-1.67c0.13-0.34,0.29-0.42,0.61-0.25c1.53,0.79,3.07,1.57,4.6,2.36
		C9.27,25.04,9.53,25.06,9.49,25.32z"/>
	<path class="st0" d="M11.24,12.3c0.2,0.01,0.3,0.14,0.41,0.25c1.2,1.2,2.4,2.41,3.62,3.61c0.23,0.23,0.28,0.38,0.04,0.67
		c-1.06,1.24-1.06,1.27-2.33,0.29c-1.13-0.87-2.22-1.78-3.33-2.67c-0.21-0.16-0.25-0.3-0.06-0.5c0.5-0.52,1-1.05,1.5-1.57
		C11.12,12.34,11.19,12.32,11.24,12.3z"/>
	<path class="st0" d="M71.64,52.81c0.66,0.25,1.34,0.5,2.01,0.76c1.01,0.39,2.01,0.82,3.03,1.19c0.37,0.13,0.47,0.27,0.28,0.63
		c-0.27,0.55-0.54,1.1-0.76,1.67c-0.14,0.36-0.32,0.37-0.62,0.22c-1.51-0.78-3.02-1.57-4.55-2.31c-0.41-0.2-0.46-0.42-0.29-0.78
		c0.19-0.39,0.38-0.78,0.57-1.16C71.39,52.92,71.44,52.77,71.64,52.81z"/>
	<path class="st0" d="M70.58,65.83c-0.08,0.11-0.17,0.23-0.28,0.35c-0.29,0.31-0.66,0.58-0.88,0.94c-0.35,0.57-0.63,0.58-1.08,0.1
		c-1.1-1.14-2.22-2.26-3.36-3.36c-0.33-0.32-0.42-0.51-0.05-0.92c0.98-1.06,0.96-1.11,2.12-0.23c1.07,0.82,2.11,1.69,3.15,2.54
		C70.37,65.39,70.56,65.54,70.58,65.83z"/>
	<path class="st2" d="M14.28,70.44c-0.12-0.07-0.25-0.16-0.38-0.24c-1.71-1.16-1.73-1.35-0.33-2.75c0.9-0.9,1.8-1.79,2.68-2.69
		c0.26-0.27,0.45-0.3,0.72-0.01c0.24,0.26,0.54,0.48,0.82,0.7c0.36,0.27,0.32,0.54,0.06,0.86c-1.02,1.23-2.02,2.48-3.04,3.71
		C14.69,70.18,14.55,70.37,14.28,70.44z"/>
	<path class="st2" d="M11.27,67.63c-0.09-0.06-0.17-0.1-0.22-0.17c-0.36-0.5-0.83-0.89-1.22-1.36c-0.35-0.42-0.2-0.62,0.11-0.87
		c1.27-1.04,2.54-2.08,3.82-3.12c0.26-0.21,0.5-0.28,0.75,0.03c0.28,0.35,0.58,0.69,0.88,1.02c0.16,0.18,0.11,0.32-0.04,0.47
		c-1.27,1.26-2.53,2.53-3.8,3.79C11.48,67.5,11.38,67.55,11.27,67.63z"/>
</g>
<g>
	<path class="st11" d="M33.63,27.25l-5.04,12.06h-3.51l5.1-11.68h-6.24V24.7h9.7V27.25z"/>
	<polygon class="st11" points="42.15,24.7 41.4,24.7 40.03,24.7 36.58,39.31 37.95,39.31 38.7,39.31 40.08,39.31 43.53,24.7 	"/>
	<path class="st11" d="M51.33,36.62c0.69,0,1.18-0.3,1.46-0.92c0.29-0.61,0.43-1.6,0.43-2.98c-0.29,0.4-0.68,0.71-1.17,0.94
		c-0.5,0.22-1.05,0.33-1.66,0.33c-0.83,0-1.57-0.17-2.23-0.52c-0.65-0.34-1.16-0.86-1.53-1.54c-0.37-0.68-0.56-1.51-0.56-2.48
		c0-0.96,0.2-1.8,0.59-2.51c0.4-0.71,0.96-1.27,1.7-1.65c0.74-0.39,1.6-0.58,2.61-0.58c1.93,0,3.27,0.6,4.04,1.79
		c0.77,1.2,1.15,2.95,1.15,5.28c0,1.69-0.15,3.08-0.46,4.18c-0.31,1.1-0.82,1.93-1.54,2.5c-0.72,0.57-1.71,0.86-2.96,0.86
		c-0.99,0-1.83-0.19-2.53-0.58c-0.7-0.39-1.23-0.9-1.6-1.54c-0.37-0.64-0.58-1.34-0.63-2.1h3.08
		C49.73,36.11,50.33,36.62,51.33,36.62z M52.46,30.87c0.33-0.33,0.49-0.78,0.49-1.35c0-0.62-0.17-1.1-0.51-1.44
		c-0.34-0.34-0.79-0.51-1.37-0.51c-0.57,0-1.03,0.17-1.36,0.52c-0.33,0.34-0.5,0.81-0.5,1.41c0,0.56,0.17,1.01,0.5,1.35
		c0.33,0.34,0.81,0.52,1.43,0.52C51.7,31.36,52.14,31.2,52.46,30.87z"/>
	<g>
		<path class="st11" d="M24.57,46.75c0.42-0.84,1-1.49,1.73-1.95c0.73-0.45,1.54-0.68,2.44-0.68c0.77,0,1.44,0.16,2.02,0.47
			c0.58,0.31,1.02,0.72,1.34,1.23v-1.54h3.34v10.87h-3.34V53.6c-0.33,0.51-0.78,0.92-1.36,1.23c-0.58,0.31-1.25,0.47-2.02,0.47
			c-0.88,0-1.69-0.23-2.42-0.69c-0.73-0.46-1.3-1.12-1.73-1.97c-0.42-0.85-0.63-1.83-0.63-2.95C23.93,48.57,24.14,47.59,24.57,46.75
			z M31.4,47.74c-0.46-0.48-1.02-0.72-1.69-0.72c-0.66,0-1.23,0.24-1.69,0.71c-0.46,0.47-0.69,1.13-0.69,1.96
			c0,0.83,0.23,1.49,0.69,1.98c0.46,0.49,1.02,0.73,1.69,0.73c0.66,0,1.23-0.24,1.69-0.72c0.46-0.48,0.69-1.14,0.69-1.97
			S31.86,48.22,31.4,47.74z"/>
		<path class="st11" d="M54.97,45.39c0.8,0.82,1.2,1.95,1.2,3.41v6.35h-3.32v-5.9c0-0.7-0.19-1.24-0.56-1.63
			c-0.37-0.38-0.88-0.58-1.53-0.58c-0.65,0-1.16,0.19-1.53,0.58c-0.37,0.38-0.56,0.92-0.56,1.63v5.9h-3.32v-5.9
			c0-0.7-0.19-1.24-0.56-1.63c-0.37-0.38-0.88-0.58-1.53-0.58c-0.65,0-1.16,0.19-1.53,0.58c-0.37,0.38-0.56,0.92-0.56,1.63v5.9
			h-3.34V44.28h3.34v1.36c0.34-0.46,0.78-0.82,1.33-1.08c0.55-0.27,1.16-0.4,1.85-0.4c0.82,0,1.55,0.18,2.2,0.53
			c0.64,0.35,1.15,0.85,1.51,1.5c0.38-0.6,0.89-1.08,1.54-1.46c0.65-0.38,1.36-0.57,2.13-0.57C53.09,44.16,54.17,44.57,54.97,45.39z
			"/>
	</g>
</g>
</svg>
