<svg id="Capa_1" data-name="Capa 1" xmlns="http://www.w3.org/2000/svg" viewBox="0 0 293.49 200"><defs><style>.cls-1{fill:#f173ac;}.cls-2{fill:#007cc3;}.cls-3{fill:#fff;}.cls-4{fill:#f45b6a;}.cls-5{fill:#d9d9d9;}.cls-6{fill:#bfbfbf;}.cls-7{fill:none;stroke:#f4c6de;stroke-linecap:round;stroke-linejoin:round;stroke-width:6.75px;}</style></defs><title>gen-slider-4</title><path class="cls-1" d="M400.61,1486.67a58.63,58.63,0,0,1,27.95-41.17c.73-.44,1.47-.88,2.21-1.29a60.35,60.35,0,0,1,64.17,3.41,63.17,63.17,0,0,1,17.7,19.53,63,63,0,0,1,17.69-19.53c35.93-25.63,87.36-4.39,94.33,39.05,2.66,16.53-.95,32-8.65,46.68-8.85,16.84-21.35,30.85-34.46,44.41-18.52,19.16-39.21,35.91-59.39,53.23l-4.21,3.6a8.22,8.22,0,0,1-10.63,0l-4.21-3.6c-20.18-17.32-40.86-34.07-59.39-53.23-4.43-4.59-8.77-9.23-13-14-.75-.86-1.47-1.76-2.21-2.63a169.65,169.65,0,0,1-14.82-20c-1.58-2.53-3.08-5.1-4.48-7.76C401.57,1518.7,398,1503.2,400.61,1486.67Z" transform="translate(-399.75 -1436.54)"/><circle class="cls-2" cx="225.78" cy="132.3" r="67.7"/><circle class="cls-3" cx="225.78" cy="132.3" r="58.51"/><path class="cls-4" d="M654.75,1518.14l-7.19,12.42c-.32.54-.63,1.08-.94,1.62h0c11.88,7.62,19.07,18.22,20.81,32.39.37,3,1.83,4.12,4.89,4.19,3.9.08,7.81,0,11.71,0A58.49,58.49,0,0,0,654.75,1518.14Z" transform="translate(-399.75 -1436.54)"/><path class="cls-5" d="M578.74,1568.76c3.06-.07,4.52-1.2,4.89-4.19,1.74-14.17,8.93-24.77,20.81-32.39h0l-2.82-4.87-5.31-9.17A58.52,58.52,0,0,0,567,1568.78C570.93,1568.79,574.84,1568.84,578.74,1568.76Z" transform="translate(-399.75 -1436.54)"/><path class="cls-6" d="M604.44,1532.18a49.25,49.25,0,0,1,16-5.2,43.16,43.16,0,0,1,10.16,0,49.25,49.25,0,0,1,16,5.2c.31-.54.62-1.08.94-1.62l7.19-12.42a58.57,58.57,0,0,0-58.44,0l5.31,9.17Z" transform="translate(-399.75 -1436.54)"/><line class="cls-7" x1="225.78" y1="132.26" x2="248.83" y2="117.37"/><circle class="cls-1" cx="225.78" cy="132.26" r="7.16"/><line class="cls-7" x1="204.7" y1="158.05" x2="246.87" y2="158.05"/><line class="cls-7" x1="215.65" y1="172.18" x2="235.91" y2="172.18"/></svg>