<svg id="Capa_1" data-name="Capa 1" xmlns="http://www.w3.org/2000/svg" viewBox="0 0 126.19 200"><defs><style>.cls-1{fill:#f5a4c7;}.cls-2{fill:#007cc3;}.cls-3{fill:none;stroke:#f7931e;stroke-linecap:round;stroke-linejoin:round;stroke-width:1.17px;}.cls-4{fill:#f173ac;}.cls-5{fill:#f8c5b0;}</style></defs><title>cont</title><path class="cls-1" d="M630.17,1251.15" transform="translate(-483.19 -1246.06)"/><path class="cls-1" d="M622,1248.44" transform="translate(-483.19 -1246.06)"/><path class="cls-1" d="M617.89,1251.59" transform="translate(-483.19 -1246.06)"/><path class="cls-1" d="M609.43,1250.67" transform="translate(-483.19 -1246.06)"/><path class="cls-2" d="M634.22,1251.59" transform="translate(-483.19 -1246.06)"/><path class="cls-2" d="M654.88,1248.47" transform="translate(-483.19 -1246.06)"/><path class="cls-2" d="M646.61,1249.71" transform="translate(-483.19 -1246.06)"/><path class="cls-1" d="M605.58,1249.53" transform="translate(-483.19 -1246.06)"/><path class="cls-1" d="M597.44,1248" transform="translate(-483.19 -1246.06)"/><path class="cls-3" d="M536.7,1423.69" transform="translate(-483.19 -1246.06)"/><path class="cls-4" d="M509.6,1338.44l66.61-23.3,11.33,7.53s21.84,8.45,21.84,43.82c0,26.34-12.49,40.67-27.11,48.42h0a67.64,67.64,0,0,1,7.32,28.28,2.74,2.74,0,0,1-2.73,2.87H490a2.73,2.73,0,0,1-2.73-2.8c.17-6.73,1.29-24.56,8.16-41.68,8.69-21.67,16-32.33,16-52.95Z" transform="translate(-483.19 -1246.06)"/><path class="cls-5" d="M499.12,1329.17s6.64-8.56,29.16-10.21,33.56-12.83,43.79-11.39,15.61,8.36,15.47,15.1a25.07,25.07,0,0,0-19,5.89c-9.19,7.66-40.49,16.7-55.52,19.76s-23.35,5.7-25.73,4.17-4.18-19.06-4-50.78-1.53-55.65,17.11-55.65H540.9a2.73,2.73,0,0,1,2.5,1.62,40.45,40.45,0,0,0,13.9,16.48c11.13,7.65,28.22,9.7,28.22,25.31s-13.45,18.1-13.45,18.1" transform="translate(-483.19 -1246.06)"/><path class="cls-3" d="M572.07,1307.57" transform="translate(-483.19 -1246.06)"/><path class="cls-4" d="M511,1322.24h0a68.15,68.15,0,0,1,17.26-3.29A72.82,72.82,0,0,0,544,1316c-1.48.44-3,.86-4.65,1.23l9-2.66c-1.34.48-2.74,1-4.2,1.39,12.55-3.79,20.5-9.48,28-8.43h0s13.45-2.5,13.45-18.1-17.09-17.66-28.22-25.31a40.45,40.45,0,0,1-13.9-16.48,2.73,2.73,0,0,0-2.5-1.62H506.72s7.19,20.81,7.19,41.2A198.94,198.94,0,0,1,511,1322.24Z" transform="translate(-483.19 -1246.06)"/><path class="cls-5" d="M544.88,1275c14.23,0,20-6.58,20-6.58h0a59.42,59.42,0,0,1-7.56-4.24,40.45,40.45,0,0,1-13.9-16.48,2.73,2.73,0,0,0-2.5-1.62H521.66C520,1261.31,530.64,1275,544.88,1275Z" transform="translate(-483.19 -1246.06)"/><path class="cls-5" d="M566.65,1384.74a15.1,15.1,0,1,0-7.3,23.55c8-2.61,4.71-4.32,11-6.37s15.91,1.16,23.95-12.76,6.09-24.22.49-28-10.14-5.1-10.73-6.9c-1.19-3.67,1.76-6.16.23-10.84a4.42,4.42,0,0,0-8.63.58c-.88,4.7-3.35,11.74-2.22,15.2,1.65,5,8.32,6.92,8.83,8.46s-2,2.15-4.82,4.52c-2.69,2.23-8.55,10.2-9.22,11.77S566.65,1384.74,566.65,1384.74Z" transform="translate(-483.19 -1246.06)"/></svg>