<svg id="Capa_1" data-name="Capa 1" xmlns="http://www.w3.org/2000/svg" viewBox="0 0 150.89 121.95"><defs><style>.cls-1,.cls-2,.cls-3{fill:none;stroke-linecap:round;stroke-miterlimit:10;}.cls-1{stroke:#f173ac;}.cls-1,.cls-2{stroke-width:5.67px;}.cls-2{stroke:#f5a4c7;}.cls-3{stroke:#f4c6de;stroke-width:2.52px;}.cls-4{fill:#007cc3;}</style></defs><title>prueba</title><path class="cls-1" d="M566.77,1233.92c.21-3.17.3-6.83.3-11.11,0-5.18.13-9.45.46-13" transform="translate(-519.94 -1139.17)"/><path class="cls-2" d="M522.78,1232.7c10.05-8,17-9.89,44.29-9.89s34.24-1.83,44.29-9.88,12.35-13.58,12.35-35.47,2.29-27.41,12.34-35.46" transform="translate(-519.94 -1139.17)"/><line class="cls-3" x1="111.17" y1="9.75" x2="139.42" y2="32.37"/><line class="cls-3" x1="68.11" y1="44.22" x2="96.36" y2="66.85"/><path class="cls-1" d="M579.42,1187.35c10.05-8,17-9.89,44.29-9.89s34.24-1.83,44.29-9.88" transform="translate(-519.94 -1139.17)"/><line class="cls-3" x1="54.53" y1="55.1" x2="82.78" y2="77.72"/><path class="cls-1" d="M567.53,1209.76c1.06-11.59,4.21-16.27,11.89-22.41" transform="translate(-519.94 -1139.17)"/><line class="cls-3" x1="11.47" y1="89.57" x2="39.72" y2="112.2"/><path class="cls-1" d="M554.72,1258.28c8.09-6.48,11.16-11.32,12-24.36" transform="translate(-519.94 -1139.17)"/><ellipse class="cls-4" cx="63.15" cy="83.27" rx="6.93" ry="5.55"/><ellipse class="cls-4" cx="87.74" cy="38.68" rx="6.93" ry="5.55"/></svg>