<svg id="Capa_1" data-name="Capa 1" xmlns="http://www.w3.org/2000/svg" viewBox="0 0 236.46 200"><defs><style>.cls-1{fill:#f8c5b0;}.cls-2{fill:#f7a6a9;}.cls-3{fill:#d36f62;}.cls-4{fill:#fff;}.cls-5{fill:#f45b6a;}</style></defs><title>gen-slider-3</title><path class="cls-1" d="M564.36,1633.76a100,100,0,1,0-100-100,100,100,0,0,0,100,100" transform="translate(-427.9 -1433.76)"/><path class="cls-2" d="M615.28,1483.33c-12.58,3.58-13.31,9.52-14.64,20.31-.94,7.64-2,16.29-8.06,24.8-5.27,7.43-13.06,11.23-22.81,11.23a44.83,44.83,0,0,1-9.21-1,67.08,67.08,0,0,1-17.88-6.71l5.85-10.15c.24.14,24.57,13.84,34.5-.14,4.34-6.09,5.14-12.58,6-19.44,1.41-11.46,3-24.45,23.07-30.15l1-.27a6.18,6.18,0,0,0,2.08-11,88.93,88.93,0,1,0-50.72,162c49.05,0,89.42-40.88,88.88-89.93a89.07,89.07,0,0,0-2.54-20.14C644.81,1491.12,628.32,1479.59,615.28,1483.33Z" transform="translate(-427.9 -1433.76)"/><path class="cls-1" d="M551.87,1529a20.64,20.64,0,1,0-27.5-19.47c0,11.47,3.61,8,3.61,17s-8.25,20.17,6.42,36.53,28.89,18.19,36.23,12.53,10.92-11,13.52-11c5.28,0,7.26,4.89,14,4.89A6,6,0,0,0,601,1558c-5.73-3.14-13.83-9.33-18.8-9.33-7.26,0-12.53,7.87-14.75,7.87s-2-3.47-3.82-8.17c-1.76-4.44-9.63-15.44-11.39-17S551.87,1529,551.87,1529Z" transform="translate(-427.9 -1433.76)"/><circle class="cls-3" cx="141.35" cy="35.5" r="11.01"/><circle class="cls-3" cx="73.81" cy="94.34" r="11.01"/><circle class="cls-3" cx="160.58" cy="158.93" r="8.15"/><circle class="cls-3" cx="196.34" cy="122.66" r="5.91"/><circle class="cls-3" cx="104.34" cy="156.69" r="5.91"/><circle class="cls-3" cx="196.34" cy="87.59" r="12.41"/><path class="cls-4" d="M427.9,1474.4a40.65,40.65,0,1,0,40.65-40.64,40.65,40.65,0,0,0-40.65,40.64" transform="translate(-427.9 -1433.76)"/><circle class="cls-5" cx="40.64" cy="40.64" r="36.07"/><path class="cls-4" d="M471.13,1480H466l-1.4-23.87h8Zm-6.31,5.17h7.45v7.45h-7.45Z" transform="translate(-427.9 -1433.76)"/></svg>