<svg id="Capa_1" data-name="Capa 1" xmlns="http://www.w3.org/2000/svg" viewBox="0 0 240 240"><defs><style>.cls-1{fill:none;stroke:#d9d9d9;stroke-linecap:round;stroke-miterlimit:10;stroke-width:3px;}.cls-2{fill:#007cc3;}.cls-3{fill:#f5a4c7;}.cls-4{fill:#f173ac;}</style></defs><title>prueba-2</title><path class="cls-1" d="M717.68,1132.45c0,50.7-41.38,92.42-91.65,92.42s-91.65-41.72-91.65-92.42c0-49.73,39.8-91,89.09-92.39" transform="translate(-506.03 -1011.59)"/><path class="cls-2" d="M740.91,1128.2c5.09-.09,5.09-.09,5.09,5,0,.55,0,1.1,0,1.65.1,1.12-.3,1.59-1.49,1.55-5.22-.14-10.43-.33-15.63-.83-.27,0-.63.07-.8-.07-1.59-1.34-.44-3.15-.71-4.73-.13-.72-.35-1.74,1-1.85.95-.08,1.89-.25,2.83-.3C734.41,1128.48,737.66,1128.35,740.91,1128.2Z" transform="translate(-506.03 -1011.59)"/><path class="cls-3" d="M729.44,1124.84c-2.36.05-2.36.05-2.54-3.08-.19-3.36-.2-3.41,3.13-4,4.53-.79,9.07-1.48,13.61-2.23.73-.12,1.13,0,1.22.87.21,2.1.5,4.19.76,6.28.13,1-.32,1.29-1.27,1.34C739.62,1124.25,734.89,1124.54,729.44,1124.84Z" transform="translate(-506.03 -1011.59)"/><path class="cls-3" d="M647.82,1013.37c2,.45,4.24.94,6.48,1.47.69.16.7.65.53,1.28q-2.12,7.91-4.17,15.82c-.22.82-.54,1.21-1.41.84a6.57,6.57,0,0,0-1-.21c-4.54-1.06-4.5-1-3.67-5.75.71-4,1.3-8.07,1.94-12.1C646.62,1014.05,646.52,1013.26,647.82,1013.37Z" transform="translate(-506.03 -1011.59)"/><path class="cls-2" d="M712.46,1048.66a6.62,6.62,0,0,1,.89.73c1.29,1.41,2.52,2.86,3.84,4.24.72.75.58,1.13-.2,1.75q-6.27,5.05-12.42,10.24c-.77.66-1.1.55-1.76-.15-3.76-4-3.78-4,.1-7.89l7.63-7.68A3.77,3.77,0,0,1,712.46,1048.66Z" transform="translate(-506.03 -1011.59)"/><path class="cls-2" d="M679.35,1045.24a22.87,22.87,0,0,1-5.09-3.21c-.18-.6.18-1.06.42-1.54q3.48-6.87,7-13.72c.34-.67.6-1.41,1.64-.74,1.72,1.11,3.49,2.13,5.27,3.13.77.44.88.9.4,1.65-3,4.59-5.88,9.2-8.83,13.81C680,1044.89,679.84,1045.25,679.35,1045.24Z" transform="translate(-506.03 -1011.59)"/><path class="cls-3" d="M659.6,1035.84c-1.46-.49-3.14-1-4.8-1.63-.64-.22-.43-.71-.3-1.19,1.42-5.27,2.84-10.54,4.21-15.82.24-.89.62-1.11,1.45-.83q2.88,1,5.79,1.92c.82.27,1,.73.72,1.55-1.94,5.1-3.86,10.21-5.8,15.32A1,1,0,0,1,659.6,1035.84Z" transform="translate(-506.03 -1011.59)"/><path class="cls-2" d="M703,1039.81c.23.06.39.06.48.14,1.79,1.66,3.61,3.29,5.33,5,.47.47-.13,1.06-.47,1.42-3.71,3.81-7.21,7.87-11.27,11.23-2,1.63-3-1.67-4.5-2.57-.94-.55-1-1.26-.21-2.17,3.38-4.09,6.68-8.24,10-12.37C702.61,1040.26,702.83,1040,703,1039.81Z" transform="translate(-506.03 -1011.59)"/><path class="cls-3" d="M633.5,1027.47c.25-4.83.52-9.67.74-14.51,0-1,.41-1.37,1.36-1.25,2.08.27,4.16.55,6.24.77.88.09.93.57.82,1.28q-1.21,7.77-2.42,15.55c-.2,1.32-.77,2-2.19,1.51a7.24,7.24,0,0,0-1.81-.23C633.39,1030.43,633.39,1030.44,633.5,1027.47Z" transform="translate(-506.03 -1011.59)"/><path class="cls-3" d="M731.73,1075.19c-.09.69-.63.8-1,1-4.58,2.39-9.17,4.73-13.73,7.14a1.49,1.49,0,0,1-2.32-.63c-2.74-4.23-2.76-4.2,1.34-6.87,3.36-2.18,6.72-4.36,10-6.63,1.32-.91,2.09-.83,2.79.71s1.64,3,2.48,4.47Z" transform="translate(-506.03 -1011.59)"/><path class="cls-3" d="M669.79,1040c-1.67-.78-3.35-1.5-5-2.34-.64-.34-.24-1,0-1.46,1.89-4.91,3.8-9.81,5.64-14.74.36-1,.69-1.33,1.74-.8,1.69.85,3.45,1.58,5.21,2.3,1,.41,1.16,1,.68,1.91-2.34,4.63-4.64,9.29-7,13.92C670.78,1039.31,670.59,1040,669.79,1040Z" transform="translate(-506.03 -1011.59)"/><path class="cls-3" d="M726.46,1114.21c-1.53-1.27-1-3.59-1.73-5.35-.49-1.16.37-1.26,1.08-1.45,5.1-1.37,10.22-2.69,15.31-4.11,1-.29,1.39.12,1.57,1,.43,1.93.81,3.87,1.25,5.8.19.86-.12,1.34-.93,1.47C737.67,1112.4,732.33,1113.26,726.46,1114.21Z" transform="translate(-506.03 -1011.59)"/><path class="cls-3" d="M720.59,1093.51a.79.79,0,0,1-.88-.49c-.71-1.56-1.42-3.11-2.08-4.68-.31-.73.33-.94.8-1.18,4.71-2.44,9.44-4.85,14.14-7.3,1-.5,1.49-.25,1.88.72.73,1.77,1.49,3.52,2.27,5.27.31.68.56,1.21-.44,1.59-5.07,1.94-10.12,3.93-15.19,5.9Z" transform="translate(-506.03 -1011.59)"/><path class="cls-3" d="M741.1,1098.25c.08.86-.57,1-1.16,1.13q-7.77,2.11-15.52,4.26c-.66.18-1,.11-1.21-.6a3,3,0,0,0-.13-.39c-1.93-5-1.93-5,3-6.91,3.49-1.35,7-2.6,10.45-4.08,1.81-.79,2.55-.34,3,1.5S740.56,1096.55,741.1,1098.25Z" transform="translate(-506.03 -1011.59)"/><path class="cls-2" d="M699.54,1037.39c-.18.26-.41.68-.7,1-3.15,3.93-6.35,7.83-9.44,11.81-.78,1-1.35,1-2.34.4-4.29-2.75-4.3-2.73-1.47-7.08,2.22-3.43,4.48-6.85,6.65-10.31.63-1,1.14-1.12,2.06-.39,1.48,1.19,3.05,2.28,4.58,3.41A1.15,1.15,0,0,1,699.54,1037.39Z" transform="translate(-506.03 -1011.59)"/><path class="cls-2" d="M516.55,1136c-2.52-.39-5.51.59-8.57.45-1.37-.07-2-.47-2-1.92.07-1.64.06-3.29,0-4.93,0-1.07.38-1.49,1.43-1.43,5.33.35,10.68.24,16,.79,1.1.11,1.42.55,1.35,1.54,0,.48,0,1,0,1.44,0,4,0,4-4,4C519.54,1136,518.32,1136,516.55,1136Z" transform="translate(-506.03 -1011.59)"/><path class="cls-2" d="M725.2,1064.33c0,.75-.49.9-.86,1.14-4.31,2.85-8.64,5.65-12.93,8.54-1.11.74-1.7.52-2.45-.53-2.83-4-2.86-3.92.94-7,3-2.45,6-4.88,9-7.37,1.13-.95,2-1.24,2.85.33a48.12,48.12,0,0,0,2.84,4C724.82,1063.74,725,1064.08,725.2,1064.33Z" transform="translate(-506.03 -1011.59)"/><path class="cls-3" d="M622,1248.44c.84-3.62,0-8.23.82-12.74,0-.21-.06-.5.05-.6,1.53-1.5,3.42-.42,5.13-.7.91-.15,1.23.31,1.4,1.26a21.16,21.16,0,0,1,.34,5.08c-.22,3.49.51,6.93.46,10.41" transform="translate(-506.03 -1011.59)"/><path class="cls-3" d="M515.9,1140.1c2.46.39,4.85-.44,7.29-.43,1.42,0,2,.6,2,1.93a12.64,12.64,0,0,0,.27,3.67c.3.9-.44,1-1.06,1.08-3,.52-6,1.22-9,1.52-2.3.22-4.48,1-6.82,1-1.17,0-1.18-.27-1.47-1.18-.64-2,.06-4.11-.64-6.1-.27-.77.32-1.12,1.05-1.07C510.37,1140.73,513.1,1139.75,515.9,1140.1Z" transform="translate(-506.03 -1011.59)"/><path class="cls-3" d="M609.43,1250.67c.81-5.11,1.58-10.22,2.4-15.33.19-1.16.52-2.12,2.12-1.47a10.13,10.13,0,0,0,2.43.14c1.53.18,2.86.61,2.33,2.41-.39,5.22-.82,10.19-.82,15.17" transform="translate(-506.03 -1011.59)"/><path class="cls-3" d="M524.93,1196c-.82.09-.95-.44-1.19-.83-1-1.69-2-3.41-3-5.07-.5-.79-.33-1.23.44-1.62q7.27-3.66,14.54-7.34c.8-.41,1.25-.18,1.62.58a15.55,15.55,0,0,0,1,1.79c1.72,2.74,1.81,2.87-.86,4.5-3.77,2.29-7.41,4.73-11,7.26A9.53,9.53,0,0,1,524.93,1196Z" transform="translate(-506.03 -1011.59)"/><path class="cls-2" d="M569.41,1238.85l-4.77-2.81c-2.26-1.35-2.31-1-.61-3.6,2.53-3.84,5-7.76,7.37-11.68.66-1.08,1.29-1.35,2.48-.79,4.4,2.07,4.53,2.31,2.36,6.6-1.88,3.7-3.79,7.38-5.7,11.07C570.28,1238.15,570.15,1238.84,569.41,1238.85Z" transform="translate(-506.03 -1011.59)"/><path class="cls-2" d="M508.78,1115.63l15.27,2.47c1.18.19,1.94.57,1.35,2a4.57,4.57,0,0,0-.17,1.62c-.08,3.16-.33,3.44-3.44,3.13a132.29,132.29,0,0,0-13.78-.79c-1.24,0-1.82-.33-1.36-1.69s.22-3.11.48-4.67S507.43,1114.92,508.78,1115.63Z" transform="translate(-506.03 -1011.59)"/><path class="cls-2" d="M743.47,1149c-5.66-.93-10.58-1.75-15.51-2.54-1.14-.18-1.77-.56-1.27-1.88a5.48,5.48,0,0,0,.19-1.82c.06-3,.24-3.26,3.16-3,4.72.4,9.44.82,14.18.79,1.18,0,1.67.38,1.27,1.6-.51,1.58-.29,3.25-.51,4.87S744.46,1149.37,743.47,1149Z" transform="translate(-506.03 -1011.59)"/><path class="cls-2" d="M545.54,1194.79a2.31,2.31,0,0,1-1.08,1.44c-3.8,3.17-7.62,6.3-11.43,9.45-.88.72-1.67.79-2.4-.23-1.1-1.55-2.21-3.09-3.35-4.61-.53-.71-.46-1.13.31-1.63,4.19-2.75,8.36-5.52,12.49-8.35,1.58-1.08,2.67-.94,3.5.87C544.08,1192.84,545.2,1193.57,545.54,1194.79Z" transform="translate(-506.03 -1011.59)"/><path class="cls-2" d="M634.22,1251.59c0-5.12-.42-10.21-.79-15.39-.38-1.38.45-1.81,1.68-2.08s2.69,0,4-.43c.91-.27.81.73.9,1.26.67,3.81,1.33,7.63,1.92,11.45" transform="translate(-506.03 -1011.59)"/><path class="cls-2" d="M614.28,1030.61c-1.35.51-2.29.13-2.46-1.7-.48-5.07-1.75-10-2.2-15.11-.09-1.06.07-1.26,1-1.34,1.88-.15,3.74-.44,5.61-.73,1.09-.16,1.61.11,1.64,1.36.08,3.88.25,7.76.39,11.64,0,.48,0,1,0,1.44C618.88,1030.47,618.89,1030.47,614.28,1030.61Z" transform="translate(-506.03 -1011.59)"/><path class="cls-3" d="M545.52,1069.53c0,.66-3,5-3.4,5-1.35-.09-2.31-1.08-3.37-1.75-3.65-2.32-7.17-4.85-10.82-7.17-1.13-.72-1.19-1.23-.41-2.2,1.05-1.33,2-2.73,3-4.11a1.52,1.52,0,0,1,2.54-.37c3.8,3.16,7.62,6.29,11.42,9.45A8.92,8.92,0,0,1,545.52,1069.53Z" transform="translate(-506.03 -1011.59)"/><path class="cls-3" d="M725.19,1200.29c-.6.81-1.24,1.68-1.9,2.53-2.81,3.66-2.85,3.71-6.4,1-3.1-2.4-6.08-5-9.15-7.41-1.29-1-1.28-1.91-.25-3.2,2.86-3.56,2.75-3.51,6.56-.81,3.31,2.35,6.77,4.48,10.16,6.71C724.65,1199.34,725.26,1199.47,725.19,1200.29Z" transform="translate(-506.03 -1011.59)"/><path class="cls-2" d="M527,1103.39l-8.73-2.39c-2-.55-4-1.13-6.08-1.63-.85-.21-1.43-.52-1.1-1.51.62-1.88,1.27-3.74,1.92-5.61.29-.85.75-1.14,1.69-.77,4.92,1.93,9.86,3.8,14.79,5.69.26.09.7.17.72.31.28,1.84-.84,3.34-1.22,5C528.81,1103.38,528.25,1103.55,527,1103.39Z" transform="translate(-506.03 -1011.59)"/><path class="cls-2" d="M724.6,1161c2.47.71,4.93,1.44,7.4,2.13s5.23,1.41,7.85,2.06c.84.2,1.5.46,1.18,1.47-.58,1.82-1.22,3.61-1.83,5.42-.33,1-.78,1.44-1.94,1-4.85-1.93-9.72-3.79-14.61-5.62-.88-.33-1.19-.68-.79-1.63a37.11,37.11,0,0,0,1.23-3.69A1.31,1.31,0,0,1,724.6,1161Z" transform="translate(-506.03 -1011.59)"/><path class="cls-3" d="M530.45,1166.44c.07.75-.49.78-.91,1-4.94,1.89-9.88,3.76-14.8,5.68-.9.36-1.4.16-1.71-.72-.66-1.93-1.36-3.85-2-5.8-.23-.73.22-1.12.92-1.31,5-1.36,10-2.75,15.08-4.09a1.52,1.52,0,0,1,2.11,1.26C529.52,1163.79,530,1165.14,530.45,1166.44Z" transform="translate(-506.03 -1011.59)"/><path class="cls-2" d="M646.61,1249.71c-.65-3.55-1.2-7.11-1.77-10.67-.23-1.48-.41-3-.7-4.44-.21-1.09-.21-1.82,1.24-1.93a26.25,26.25,0,0,0,3.76-.8c.94-.14,1.36.35,1.59,1.2,1.37,5.14,2.74,10.27,4.15,15.4" transform="translate(-506.03 -1011.59)"/><path class="cls-2" d="M572.79,1045c-.55,0-.79-.43-1.06-.84q-4.17-6.42-8.36-12.82c-.58-.89-.87-1.63.42-2.29a51.33,51.33,0,0,0,4.88-2.94c.9-.6,1.32-.3,1.73.53,2.37,4.82,4.77,9.64,7.16,14.46.18.37.39.73.18,1.16A18.7,18.7,0,0,1,572.79,1045Z" transform="translate(-506.03 -1011.59)"/><path class="cls-3" d="M568.76,1047.24c.11.53-.25.74-.56,1-3.81,3.37-3.88,3.44-7.19-.33-2.68-3.05-5.15-6.29-7.74-9.44a1.54,1.54,0,0,1,.38-2.56c1.48-1.07,3-2.14,4.42-3.24.57-.42,1-.6,1.51.15,2.94,4.57,5.9,9.13,8.84,13.7A5.07,5.07,0,0,1,568.76,1047.24Z" transform="translate(-506.03 -1011.59)"/><path class="cls-2" d="M527.29,1109c-.3,1.4-.58,2.8-.89,4.19-.19.86-.81,1-1.57.89-5-.82-10-1.62-15-2.46-1.12-.19-2.08-.48-1.46-2.12a15.7,15.7,0,0,0,.86-4.19c.16-2,1-2.27,2.76-1.75,4.67,1.39,9.37,2.67,14.08,3.92C527,1107.73,527.44,1108.05,527.29,1109Z" transform="translate(-506.03 -1011.59)"/><path class="cls-3" d="M527.24,1155.33c0,1,0,1.47-.86,1.68-5.17,1.35-10.33,2.73-15.47,4.19-1,.28-1.21-.14-1.38-.87-.44-2-.88-4-1.31-6-.29-1.35.91-1.26,1.54-1.37,3.52-.65,7.06-1.18,10.59-1.75,1.4-.22,2.81-.4,4.19-.68,1-.22,1.72-.09,1.93,1.12S527,1154.33,527.24,1155.33Z" transform="translate(-506.03 -1011.59)"/><path class="cls-2" d="M726.71,1150.42c3.84.62,7.44,1.18,11,1.78,1.13.18,2.25.47,3.38.64,3,.47,3.07.46,2.38,3.49-.36,1.59-.31,3.67-1.3,4.63-1.17,1.12-3-.38-4.5-.74-4-.94-8-2.15-12-3.21-.66-.17-1-.49-.89-1.12.28-1.61.59-3.21.95-4.8A.9.9,0,0,1,726.71,1150.42Z" transform="translate(-506.03 -1011.59)"/><path class="cls-2" d="M679,1219.6a1.41,1.41,0,0,1,1.4.8q4.21,6.49,8.46,13c.56.85.7,1.53-.45,2.13a56.54,56.54,0,0,0-4.89,2.94c-.85.57-1.31.42-1.74-.45-2.38-4.83-4.76-9.65-7.18-14.46-.44-.87-.27-1.35.58-1.79C676.51,1221,677.85,1220.23,679,1219.6Z" transform="translate(-506.03 -1011.59)"/><path class="cls-2" d="M602.88,1032.71c-.84.08-1.25-.32-1.46-1.11-1.32-5.14-2.63-10.29-4-15.41-.26-1,.06-1.23.83-1.4,2-.44,4-.86,5.93-1.33,1.36-.32,1.26.88,1.39,1.51.52,2.6.89,5.23,1.31,7.85.39,2.41.75,4.83,1.15,7.24.16,1,.18,1.71-1.16,1.83A32.38,32.38,0,0,0,602.88,1032.71Z" transform="translate(-506.03 -1011.59)"/><path class="cls-3" d="M597.44,1248c1.38-4.91,2.6-9.87,3.9-14.8.19-.74.41-1.52,1.47-1.35,1.52.29,3.05.58,4.57.89.86.17.75.87.66,1.46-.81,5.11-1.62,10.21-2.46,15.3" transform="translate(-506.03 -1011.59)"/><path class="cls-3" d="M539.47,1078.56a24.13,24.13,0,0,1-2.71,5c-.51.26-.92-.06-1.33-.26-4.54-2.29-9.07-4.6-13.62-6.87-1.23-.61-1.31-1.44-.7-2.51.85-1.47,1.79-2.9,2.55-4.42.55-1.12,1.2-1.13,2.09-.54q6.36,4.21,12.71,8.43C538.91,1077.69,539.44,1077.9,539.47,1078.56Z" transform="translate(-506.03 -1011.59)"/><path class="cls-3" d="M716,1180.94l1.1.53c4.24,2.14,8.45,4.34,12.73,6.4,1.64.79,1.91,1.71,1,3.2a43.3,43.3,0,0,0-2.36,4.06c-.58,1.18-1.28,1-2.11.45-4.24-2.81-8.45-5.65-12.72-8.41-1-.62-1.17-1.21-.61-2.17.66-1.12,1.27-2.26,1.9-3.39A1,1,0,0,1,716,1180.94Z" transform="translate(-506.03 -1011.59)"/><path class="cls-3" d="M586.31,1246.23c-.94-.32-1-.85-.69-1.72,1.9-5,3.76-10,5.64-14.93.1-.25.2-.69.34-.7,1.81-.19,3.31.89,5,1.3.76.19,1,.67.82,2-.13.46-.46,1.5-.73,2.55q-1.66,6.32-3.31,12.64" transform="translate(-506.03 -1011.59)"/><path class="cls-2" d="M597.5,1033.14a1.12,1.12,0,0,1-1,1.28c-1.3.36-2.58.82-3.85,1.3-.69.25-1.1.23-1.4-.58q-2.82-7.68-5.74-15.33c-.3-.78,0-1.16.63-1.4l5.73-2a1,1,0,0,1,1.42.71q2.07,7.7,4.11,15.39A4.08,4.08,0,0,1,597.5,1033.14Z" transform="translate(-506.03 -1011.59)"/><path class="cls-2" d="M658.75,1247.35c-1.34-5-2.7-10-4-15a5.41,5.41,0,0,1-.09-.82,1.25,1.25,0,0,1,.9-1.38c4.58-2.14,4.75-2.08,6.55,2.68,1.42,3.77,2.85,7.53,4.33,11.27.53,1.34.2,1.93-1.18,2.3" transform="translate(-506.03 -1011.59)"/><path class="cls-3" d="M626,1011.66c4.17,0,4.28,0,4.13,4.2a109.8,109.8,0,0,1-.91,13.22c-.37,2.36-2.83.71-4.3,1.05-.75.17-2,.54-2.11-1.07-.11-2-.44-4.08-.37-6.11.12-3-.36-6-.49-9-.1-2,.63-2.57,2.42-2.32A12.65,12.65,0,0,0,626,1011.66Z" transform="translate(-506.03 -1011.59)"/><path class="cls-2" d="M568.79,1217.27a13.72,13.72,0,0,1-.76,1.55c-2.66,4-5.39,8-8,12.1-.8,1.26-1.42,1.39-2.54.47-1.31-1.07-2.71-2-4.1-3-1-.71-.78-1.49-.16-2.26,3.12-3.86,6.27-7.7,9.37-11.58.91-1.14,1.76-1.29,2.87-.3.81.72,1.7,1.35,2.58,2C568.4,1216.48,568.78,1216.65,568.79,1217.27Z" transform="translate(-506.03 -1011.59)"/><path class="cls-3" d="M560.3,1054a14.46,14.46,0,0,1-2.5,2.72c-1.4,1.48-2.47,1.32-3.89-.22-3.08-3.37-6.32-6.59-9.62-9.73-1.4-1.34-1.19-2.28.17-3.26a22,22,0,0,0,3.48-3.13c.74-.83,1.34-.79,1.95.09,3,4.31,6.5,8.18,9.73,12.28A7.85,7.85,0,0,1,560.3,1054Z" transform="translate(-506.03 -1011.59)"/><path class="cls-3" d="M688,1213.47c.76.07,1.12.63,1.5,1.08q4.71,5.76,9.38,11.56c.61.75.92,1.53-.11,2.25-1.44,1-2.88,2-4.27,3.13-1,.75-1.57.74-2.28-.36-2.74-4.31-5.54-8.58-8.35-12.84-.67-1-.57-1.61.53-2.28A43.46,43.46,0,0,1,688,1213.47Z" transform="translate(-506.03 -1011.59)"/><path class="cls-3" d="M587.59,1227.38c-.28.73-.51,1.36-.76,2-1.73,4.51-3.52,9-5.15,13.55-.48,1.34-1,1.32-2.07.78a30.46,30.46,0,0,0-4.44-2c-1.55-.5-1.38-1.22-.78-2.4,2.26-4.43,4.49-8.88,6.63-13.38.56-1.18,1.17-1.5,2.31-.94s2.33,1.09,3.51,1.61A1.12,1.12,0,0,1,587.59,1227.38Z" transform="translate(-506.03 -1011.59)"/><path class="cls-2" d="M587.67,1037.27c-1.17,1.09-2.82,1.48-4.25,2.2-.52.26-1.32,1-1.93,0-.18-.3-.33-.61-.48-.91-2.21-4.46-4.38-8.94-6.67-13.36-.68-1.32-.44-1.88.91-2.36a47.92,47.92,0,0,0,4.63-2.09c.81-.4,1.32-.43,1.7.59,1.9,5.11,3.86,10.18,5.8,15.27C587.43,1036.73,587.49,1036.85,587.67,1037.27Z" transform="translate(-506.03 -1011.59)"/><path class="cls-2" d="M669.91,1224.65c.55-.08.68.36.86.71,2.44,4.9,4.86,9.8,7.3,14.7.34.7.19,1.07-.58,1.39-1.82.74-3.61,1.57-5.38,2.44-1,.46-1.28.1-1.61-.79-1.86-5-3.77-9.95-5.67-14.92-.14-.37-.52-.84-.07-1.1A24.23,24.23,0,0,1,669.91,1224.65Z" transform="translate(-506.03 -1011.59)"/><path class="cls-3" d="M703.22,1224.45a5.73,5.73,0,0,1-2.14-2c-2.83-3.46-5.58-7-8.4-10.45-.81-1-1-1.72.07-2.76,3.32-3.31,3.28-3.35,6.49-.11,2.87,2.9,5.71,5.84,8.64,8.68,1.15,1.1,1.29,1.93,0,3s-2.34,2-3.5,3.09A1.52,1.52,0,0,1,703.22,1224.45Z" transform="translate(-506.03 -1011.59)"/><path class="cls-3" d="M534.45,1176.47c.12.81-.66.87-1.15,1.12-4.58,2.39-9.19,4.74-13.78,7.11-.8.41-1.34.4-1.73-.6-.73-1.84-1.58-3.64-2.43-5.43-.4-.84-.14-1.21.67-1.53,4.94-1.9,9.86-3.85,14.8-5.75.39-.15.93-.6,1.27,0A25.41,25.41,0,0,1,534.45,1176.47Z" transform="translate(-506.03 -1011.59)"/><path class="cls-2" d="M534.45,1088.1a23.58,23.58,0,0,1-2.37,5.1c-.38.65-1,.08-1.47-.08-4.81-1.86-9.59-3.8-14.41-5.63-1-.4-1.23-.83-.75-1.81.81-1.65,1.6-3.33,2.26-5,.4-1,.87-1.27,1.83-.77,4.59,2.39,9.2,4.74,13.79,7.12C533.81,1087.24,534.59,1087.3,534.45,1088.1Z" transform="translate(-506.03 -1011.59)"/><path class="cls-3" d="M539.7,1048.75a1.92,1.92,0,0,1,1.23.77c3.61,3.63,7.2,7.28,10.83,10.9.69.69.85,1.16.12,2-3.17,3.75-3.17,3.83-7,.87-3.38-2.63-6.64-5.39-10-8.06-.62-.5-.76-.9-.19-1.5,1.51-1.58,3-3.17,4.5-4.75A1.62,1.62,0,0,1,539.7,1048.75Z" transform="translate(-506.03 -1011.59)"/><path class="cls-2" d="M720.67,1171.16c2,.75,4,1.5,6,2.3,3,1.19,6,2.47,9.09,3.58,1.12.41,1.39.82.85,1.91-.82,1.65-1.61,3.33-2.27,5-.42,1.09-1,1.13-1.86.65-4.53-2.35-9-4.73-13.63-7-1.23-.6-1.38-1.27-.86-2.36s1.13-2.34,1.72-3.5C719.92,1171.47,720.06,1171,720.67,1171.16Z" transform="translate(-506.03 -1011.59)"/><path class="cls-3" d="M717.49,1210.49c-.25.32-.51.71-.83,1a20,20,0,0,0-2.63,2.83c-1.06,1.71-1.89,1.75-3.25.32-3.29-3.46-6.66-6.82-10.06-10.16-1-1-1.27-1.55-.16-2.77,2.92-3.21,2.89-3.36,6.36-.69,3.21,2.47,6.32,5.1,9.45,7.68A2.39,2.39,0,0,1,717.49,1210.49Z" transform="translate(-506.03 -1011.59)"/><path class="cls-2" d="M548.82,1224.42c-.34-.23-.74-.47-1.12-.74-5.12-3.5-5.18-4.07-1-8.3,2.69-2.71,5.4-5.4,8-8.14.79-.82,1.35-.91,2.16,0a19.13,19.13,0,0,0,2.46,2.11c1.07.82,1,1.63.18,2.59-3,3.73-6,7.49-9.1,11.21A3.17,3.17,0,0,1,548.82,1224.42Z" transform="translate(-506.03 -1011.59)"/><path class="cls-2" d="M539.79,1215.92a3.07,3.07,0,0,1-.66-.5c-1.06-1.51-2.49-2.68-3.66-4.1-1-1.26-.61-1.86.33-2.64l11.44-9.43c.77-.62,1.51-.85,2.26.1s1.75,2.08,2.65,3.1c.48.54.32,1-.12,1.4q-5.68,5.73-11.38,11.45A6.4,6.4,0,0,1,539.79,1215.92Z" transform="translate(-506.03 -1011.59)"/><path class="cls-4" d="M582.78,1113a22.81,22.81,0,0,1,10.79-16c.28-.17.56-.34.85-.5a23.14,23.14,0,0,1,22.49-.11,23.52,23.52,0,0,1,2.29,1.44,24.55,24.55,0,0,1,6.83,7.6,24.43,24.43,0,0,1,6.83-7.6c13.87-10,33.73-1.71,36.42,15.2a28.8,28.8,0,0,1-3.34,18.17c-3.42,6.56-8.25,12-13.31,17.29-7.15,7.46-15.14,14-22.93,20.73l-1.62,1.4a3.17,3.17,0,0,1-4.11,0c-.54-.48-1.08-.94-1.62-1.4-7.79-6.75-15.78-13.27-22.93-20.73-1.71-1.78-3.39-3.59-5-5.45-.29-.34-.56-.69-.85-1a64.44,64.44,0,0,1-5.72-7.79c-.61-1-1.19-2-1.73-3A28.73,28.73,0,0,1,582.78,1113Z" transform="translate(-506.03 -1011.59)"/></svg>