<svg id="Capa_1" data-name="Capa 1" xmlns="http://www.w3.org/2000/svg" viewBox="0 0 245.67 245.67"><defs><style>.cls-1,.cls-2,.cls-3{fill:none;stroke-linecap:round;stroke-miterlimit:10;}.cls-1{stroke:#f173ac;}.cls-1,.cls-2{stroke-width:5.67px;}.cls-2{stroke:#f5a4c7;}.cls-3{stroke:#f4c6de;stroke-width:2.52px;}.cls-4{fill:#007cc3;}</style></defs><title>prueba-8</title><path class="cls-1" d="M498.81,1415.78c.35-6.55.5-14.09.5-22.92,0-10.7.21-19.51.76-26.94" transform="translate(-423.28 -1223.22)"/><path class="cls-2" d="M426.11,1413.26c16.62-16.62,28-20.4,73.2-20.4s56.58-3.79,73.2-20.41,20.4-28,20.4-73.2,3.79-56.58,20.41-73.19" transform="translate(-423.28 -1223.22)"/><line class="cls-3" x1="181.87" y1="17.11" x2="228.56" y2="63.8"/><line class="cls-3" x1="110.71" y1="88.26" x2="157.4" y2="134.96"/><path class="cls-1" d="M519.71,1319.66c16.62-16.62,28-20.41,73.2-20.41s56.58-3.78,73.2-20.4" transform="translate(-423.28 -1223.22)"/><line class="cls-3" x1="88.26" y1="110.71" x2="134.96" y2="157.4"/><path class="cls-1" d="M500.07,1365.92c1.75-23.94,7-33.58,19.64-46.26" transform="translate(-423.28 -1223.22)"/><line class="cls-3" x1="17.11" y1="181.87" x2="63.8" y2="228.56"/><path class="cls-1" d="M478.91,1466.06c13.36-13.37,18.43-23.37,19.9-50.28" transform="translate(-423.28 -1223.22)"/><circle class="cls-4" cx="102.51" cy="168.85" r="11.45"/><circle class="cls-4" cx="143.16" cy="76.82" r="11.45"/></svg>