<svg id="Capa_1" data-name="Capa 1" xmlns="http://www.w3.org/2000/svg" viewBox="0 0 214.81 214.81"><defs><style>.cls-1{fill:none;stroke:#f45b6a;stroke-miterlimit:10;stroke-width:14.81px;}.cls-2{fill:#d9d9d9;}.cls-3{fill:#007cc3;}.cls-4{fill:#fff;}.cls-5{fill:#f173ac;}.cls-6{fill:#f4c6de;}</style></defs><title>crec_dop-slider-2</title><path class="cls-1" d="M546.13,1492.89a100,100,0,1,1,100-100,100,100,0,0,1-100,100" transform="translate(-438.72 -1285.48)"/><line class="cls-1" x1="176.51" y1="38.31" x2="38.31" y2="176.51"/><path class="cls-2" d="M578.38,1344.32H597a9.69,9.69,0,0,1,9.68,9.68v86.83a9.69,9.69,0,0,1-9.68,9.68H495.22a9.69,9.69,0,0,1-9.68-9.68V1354a9.69,9.69,0,0,1,9.68-9.68h18.66" transform="translate(-438.72 -1285.48)"/><rect class="cls-3" x="60.59" y="99.9" width="10.7" height="10.7" rx="5.35"/><rect class="cls-4" x="81.32" y="99.9" width="10.7" height="10.7" rx="5.35"/><rect class="cls-4" x="102.06" y="99.9" width="10.7" height="10.7" rx="5.35"/><rect class="cls-4" x="122.79" y="99.9" width="10.7" height="10.7" rx="5.35"/><rect class="cls-4" x="143.53" y="99.9" width="10.7" height="10.7" rx="5.35"/><rect class="cls-3" x="60.59" y="120.63" width="10.7" height="10.7" rx="5.35"/><rect class="cls-4" x="81.32" y="120.63" width="10.7" height="10.7" rx="5.35"/><rect class="cls-4" x="102.06" y="120.63" width="10.7" height="10.7" rx="5.35"/><rect class="cls-5" x="122.79" y="120.63" width="10.7" height="10.7" rx="5.35"/><rect class="cls-4" x="143.53" y="120.63" width="10.7" height="10.7" rx="5.35"/><rect class="cls-3" x="60.59" y="141.37" width="10.7" height="10.7" rx="5.35"/><rect class="cls-4" x="81.32" y="141.37" width="10.7" height="10.7" rx="5.35"/><rect class="cls-4" x="102.06" y="141.37" width="10.7" height="10.7" rx="5.35"/><rect class="cls-4" x="122.79" y="141.37" width="10.7" height="10.7" rx="5.35"/><path class="cls-5" d="M597,1344.32H495.22a9.69,9.69,0,0,0-9.68,9.68v18.43H606.72V1354A9.69,9.69,0,0,0,597,1344.32Z" transform="translate(-438.72 -1285.48)"/><rect class="cls-6" x="75.16" y="49.79" width="11.4" height="23.1" rx="5.7"/><rect class="cls-6" x="128.25" y="49.79" width="11.4" height="23.1" rx="5.7"/></svg>