<svg id="Capa_1" data-name="Capa 1" xmlns="http://www.w3.org/2000/svg" viewBox="0 0 200 200"><defs><style>.cls-1{fill:#f8c5b0;}.cls-2{fill:#f7a6a9;}.cls-3{fill:#d36f62;}</style></defs><title>crec_dop-m-c-2</title><circle class="cls-1" cx="100" cy="100" r="100"/><circle class="cls-2" cx="100" cy="100" r="88.92"/><circle class="cls-3" cx="104.89" cy="35.5" r="11.01"/><circle class="cls-3" cx="155.81" cy="96.22" r="4.08"/><circle class="cls-3" cx="71.55" cy="43.14" r="5.91"/><circle class="cls-3" cx="41.68" cy="136.25" r="5.91"/><circle class="cls-3" cx="100" cy="70.6" r="5.91"/><circle class="cls-3" cx="161.51" cy="73.78" r="8.27"/><path class="cls-1" d="M567.62,1423.23l-8.27-9.38,4.14,4.69-4.15-4.68c.11-.1,11.21-10.1,16-24.95,1.58-4.94.18-9.93-1.45-15.7-2.93-10.42-6.57-23.38,8-38.19l8.91,8.76c-9.66,8.09-9.85,16.16-4.87,26,3.15,6.25,4.05,14.38,1.31,22.91C581.37,1411,568.18,1422.74,567.62,1423.23Z" transform="translate(-446.13 -1292.89)"/><path class="cls-3" d="M609,1330a87,87,0,0,0-11.68-9.73c-.15-.12-.25-.27-.41-.38-.81-.57-1.67-1.07-2.5-1.61l-.77-.49a88.47,88.47,0,0,0-28.41-11.52c13.82,10.74,18.53,20,13.66,33.15l0,.07c-4.86,13.23,3.9,20.7,3.9,20.7h0c1.21-9.16,2.79-14.43,14.31-17.71,12.84-3.68,29,7.48,35.17,28.35l.06,0A88.44,88.44,0,0,0,609,1330Z" transform="translate(-446.13 -1292.89)"/><path class="cls-1" d="M533.3,1400.79c.31-.86,6.24-17.69-7.32-22.55,0,0,0,0,0,0,.11-.79,3.55-26.21-22.35-29-26.3-2.88-32.89,18.2-33.74,26-2.29,21,4.16,26.25,14.62,30.29s17.23,7.68,21,22.44,13,38.54,43.58,41.88,44.17-18.19,43.89-38.21c0,0,0,0,0,0,.61,0,13.14-.64,18.27-.76s7.36-9.26,9.62-16,4.76-14.51-2.86-16.73c-7.42-2.15-10.37,8.61-10.52,9.18,0,0,0,0,0,0-.84-.22-25-6.41-33.2,13.87,0,0,0,0,0,0-.41-.76-6-10.72-13.26-12.89a0,0,0,0,1,0,0,20.46,20.46,0,0,0,7.57-10.31c1.27-3.73,2.73-13.81,3.4-18a6.73,6.73,0,0,0-5-7.66,6.59,6.59,0,0,0-7.81,4.65l-1.66,9a18,18,0,0,1-10.6,11.91l-.1,0a45.45,45.45,0,0,1-13.41,3.08A0,0,0,0,1,533.3,1400.79Z" transform="translate(-446.13 -1292.89)"/><path class="cls-1" d="M500.67,1394.37c5.1,5.32,2.16,8.67-2.75,18.66-3.54-3.51-8-5.5-13.42-7.61-10.46-4-16.91-9.3-14.62-30.29.85-7.77,7.44-28.85,33.74-26a28.67,28.67,0,0,1,11.13,3.35c-3.46,18.71-8.54,20.32-15.29,25.75C492.12,1384.15,495.22,1388.7,500.67,1394.37Z" transform="translate(-446.13 -1292.89)"/></svg>