<svg id="Capa_1" data-name="Capa 1" xmlns="http://www.w3.org/2000/svg" viewBox="0 0 267.15 203.15"><defs><style>.cls-1{fill:none;stroke:#d9d9d9;stroke-linecap:round;stroke-linejoin:round;stroke-width:6.3px;}.cls-2{fill:#f173ac;}.cls-3{fill:#f8c5b0;}</style></defs><title>crec_dop-slider-1</title><line class="cls-1" x1="264" y1="3.15" x2="3.78" y2="3.15"/><line class="cls-1" x1="206.04" y1="21.38" x2="206.04" y2="3.15"/><line class="cls-1" x1="264" y1="21.38" x2="264" y2="3.15"/><line class="cls-1" x1="177.05" y1="29.72" x2="177.05" y2="3.15"/><line class="cls-1" x1="235.02" y1="29.72" x2="235.02" y2="3.15"/><line class="cls-1" x1="148.07" y1="21.38" x2="148.07" y2="3.15"/><line class="cls-1" x1="119.08" y1="29.72" x2="119.08" y2="3.15"/><line class="cls-1" x1="90.1" y1="21.38" x2="90.1" y2="3.15"/><line class="cls-1" x1="61.12" y1="29.72" x2="61.12" y2="3.15"/><line class="cls-1" x1="3.15" y1="29.72" x2="3.15" y2="3.15"/><line class="cls-1" x1="32.13" y1="21.38" x2="32.13" y2="3.15"/><path class="cls-2" d="M626.3,1347.7a5.56,5.56,0,0,0-7.17-2.83c-11.43,4.67-41.27,15.46-73,15.46s-61.57-10.79-73-15.46a5.56,5.56,0,0,0-7.18,2.83l-49.2,107.42a11.54,11.54,0,0,0,5.79,15.36c18.18,8.06,59.9,22.66,123.58,22.66s105.4-14.6,123.58-22.66a11.54,11.54,0,0,0,5.79-15.36Z" transform="translate(-412.55 -1289.99)"/><path class="cls-3" d="M535,1420.28c.25-.7,5.06-14.35-5.93-18.29l0,0c.09-.64,2.88-21.25-18.11-23.55-21.33-2.33-26.67,14.75-27.36,21-1.86,17,3.38,21.29,11.85,24.56s14,6.23,17,18.19,10.57,31.25,35.33,34,35.81-14.75,35.58-31c0,0,0,0,0,0,.49,0,10.66-.52,14.81-.61s6-7.51,7.8-13,3.86-11.77-2.31-13.57c-6-1.74-8.41,7-8.53,7.44,0,0,0,0,0,0-.68-.18-20.26-5.2-26.92,11.25a0,0,0,0,1,0,0c-.33-.62-4.83-8.7-10.75-10.45a0,0,0,0,1,0,0,16.46,16.46,0,0,0,6.14-8.36c1-3,2.22-11.19,2.75-14.62a5.45,5.45,0,0,0-4.06-6.2,5.34,5.34,0,0,0-6.33,3.77l-1.35,7.33a14.63,14.63,0,0,1-8.59,9.66l-.09,0a37,37,0,0,1-10.86,2.5S535,1420.29,535,1420.28Z" transform="translate(-412.55 -1289.99)"/></svg>