<svg id="Capa_1" data-name="Capa 1" xmlns="http://www.w3.org/2000/svg" viewBox="0 0 274.23 205.92"><defs><style>.cls-1{fill:none;stroke:#d9d9d9;stroke-linecap:round;stroke-linejoin:round;stroke-width:5.92px;}.cls-2{fill:#f173ac;}.cls-3{fill:#f8c5b0;}</style></defs><title>crec_dop-m-c-1</title><line class="cls-1" x1="2.96" y1="202.96" x2="2.96" y2="2.96"/><line class="cls-1" x1="19.24" y1="202.96" x2="2.96" y2="202.96"/><line class="cls-1" x1="26.68" y1="174.3" x2="2.96" y2="174.3"/><line class="cls-1" x1="19.24" y1="145.64" x2="2.96" y2="145.64"/><line class="cls-1" x1="26.68" y1="116.98" x2="2.96" y2="116.98"/><line class="cls-1" x1="19.24" y1="88.32" x2="2.96" y2="88.32"/><line class="cls-1" x1="26.68" y1="59.66" x2="2.96" y2="59.66"/><line class="cls-1" x1="19.24" y1="30.99" x2="2.96" y2="30.99"/><line class="cls-1" x1="260.28" y1="2.96" x2="2.96" y2="2.96"/><line class="cls-1" x1="202.96" y1="19.24" x2="202.96" y2="2.96"/><line class="cls-1" x1="260.28" y1="19.24" x2="260.28" y2="2.96"/><line class="cls-1" x1="174.3" y1="26.68" x2="174.3" y2="2.96"/><line class="cls-1" x1="231.62" y1="26.68" x2="231.62" y2="2.96"/><line class="cls-1" x1="145.64" y1="19.24" x2="145.64" y2="2.96"/><line class="cls-1" x1="116.98" y1="26.68" x2="116.98" y2="2.96"/><line class="cls-1" x1="88.32" y1="19.24" x2="88.32" y2="2.96"/><line class="cls-1" x1="59.66" y1="26.68" x2="59.66" y2="2.96"/><line class="cls-1" x1="30.99" y1="19.24" x2="30.99" y2="2.96"/><line class="cls-1" x1="221.21" y1="202.96" x2="271.27" y2="202.96"/><line class="cls-1" x1="240.61" y1="188.34" x2="271.27" y2="188.34"/><path class="cls-2" d="M635.41,1341.61a5,5,0,0,0-6.4-2.53c-10.21,4.17-36.85,13.81-65.18,13.81s-55-9.64-65.18-13.81a5,5,0,0,0-6.41,2.53l-43.93,95.92a10.3,10.3,0,0,0,5.17,13.71c16.23,7.2,53.49,20.24,110.35,20.24s94.11-13,110.35-20.24a10.31,10.31,0,0,0,5.17-13.71Z" transform="translate(-409.01 -1289.93)"/><path class="cls-3" d="M553.85,1406.42c.22-.63,4.52-12.82-5.3-16.33v0c.08-.58,2.57-19-16.17-21-19-2.09-23.81,13.17-24.43,18.8-1.66,15.19,3,19,10.58,21.93s12.48,5.56,15.2,16.24,9.45,27.9,31.55,30.32,32-13.17,31.78-27.67c0,0,0,0,0,0,.44,0,9.52-.46,13.23-.54s5.33-6.71,7-11.62,3.45-10.51-2.07-12.11c-5.37-1.56-7.51,6.23-7.61,6.64h0c-.61-.16-18.1-4.65-24,10,0,0,0,0,0,0-.3-.55-4.31-7.76-9.6-9.32,0,0,0,0,0,0a14.75,14.75,0,0,0,5.49-7.46c.91-2.7,2-10,2.45-13a4.87,4.87,0,0,0-3.63-5.55,4.77,4.77,0,0,0-5.65,3.37l-1.2,6.55a13.06,13.06,0,0,1-7.67,8.62l-.08,0a33.1,33.1,0,0,1-9.7,2.23S553.84,1406.43,553.85,1406.42Z" transform="translate(-409.01 -1289.93)"/></svg>