<svg id="Capa_1" data-name="Capa 1" xmlns="http://www.w3.org/2000/svg" viewBox="0 0 200 200"><defs><style>.cls-1{fill:#f45b6a;}.cls-2{fill:none;stroke:#f45b6a;stroke-miterlimit:10;stroke-width:14.81px;}.cls-3{fill:#007cc3;}.cls-4{isolation:isolate;}.cls-5{fill:#f4c6de;}.cls-6{fill:#f173ac;}.cls-7{fill:#f5a4c7;}</style></defs><title>crec_dop-slider-3</title><path class="cls-1" d="M546.13,1307.71A85.19,85.19,0,1,1,461,1392.89a85.28,85.28,0,0,1,85.18-85.18m0-14.82a100,100,0,1,0,100,100,100,100,0,0,0-100-100Z" transform="translate(-446.13 -1292.89)"/><line class="cls-2" x1="169.1" y1="30.9" x2="30.9" y2="169.1"/><path class="cls-3" d="M592.41,1349.6a3.21,3.21,0,0,0-4.14-1.63c-6.6,2.69-23.83,8.92-42.14,8.92s-35.54-6.23-42.14-8.92a3.21,3.21,0,0,0-4.14,1.63l-28.4,62a6.67,6.67,0,0,0,3.34,8.87c10.5,4.65,34.58,13.08,71.34,13.08s60.84-8.43,71.34-13.08a6.67,6.67,0,0,0,3.34-8.87Z" transform="translate(-446.13 -1292.89)"/><g class="cls-4"><polygon class="cls-5" points="74.82 69.35 99.8 83.86 124.94 69.35 99.96 54.83 74.82 69.35"/><polygon class="cls-6" points="74.82 69.35 75.06 100.69 100.04 115.21 99.8 83.86 74.82 69.35"/><polygon class="cls-7" points="99.8 83.86 100.04 115.21 125.18 100.69 124.94 69.35 99.8 83.86"/></g></svg>