<?xml version="1.0" encoding="utf-8"?>
<!-- Generator: Adobe Illustrator 24.1.1, SVG Export Plug-In . SVG Version: 6.00 Build 0)  -->
<svg version="1.1" id="Capa_1" xmlns="http://www.w3.org/2000/svg" xmlns:xlink="http://www.w3.org/1999/xlink" x="0px" y="0px"
	 viewBox="0 0 30.49 30" style="enable-background:new 0 0 30.49 30;" xml:space="preserve">
<style type="text/css">
	.st0{fill:#009F46;}
	.st1{fill:#D9D9D9;}
	.st2{fill:#62BB46;}
</style>
<g>
	<path class="st0" d="M30.49,10.85l-6.55-6.61c-4.79-4.83-12.59-4.83-17.38,0L0,10.85"/>
	<path class="st0" d="M29.52,30H0.97C0.43,30,0,29.57,0,29.03V10.85h30.49v18.18C30.49,29.57,30.06,30,29.52,30z"/>
	<path class="st1" d="M25.22,28.19H5.27c-0.54,0-0.97-0.43-0.97-0.97V0.97C4.3,0.43,4.73,0,5.27,0l19.95,0
		c0.54,0,0.97,0.43,0.97,0.97v26.25C26.19,27.76,25.76,28.19,25.22,28.19z"/>
	<path class="st2" d="M15.25,20.42l14.94,9.39c0.18-0.15,0.3-0.38,0.3-0.63V10.85L15.25,20.42z"/>
	<path class="st2" d="M15.25,20.42L0.3,29.81C0.12,29.66,0,29.43,0,29.18l0-18.33L15.25,20.42z"/>
	<path class="st0" d="M29.67,30c0.22,0,0.42-0.09,0.57-0.23l-12.99-11.6c-1.1-0.99-2.9-0.99-4.01,0L0.26,29.77
		C0.4,29.91,0.6,30,0.82,30H29.67z"/>
</g>
</svg>
