<?xml version="1.0" encoding="utf-8"?>
<!-- Generator: Adobe Illustrator 24.1.1, SVG Export Plug-In . SVG Version: 6.00 Build 0)  -->
<svg version="1.1" id="Capa_1" xmlns="http://www.w3.org/2000/svg" xmlns:xlink="http://www.w3.org/1999/xlink" x="0px" y="0px"
	 viewBox="0 0 153.11 195.82" style="enable-background:new 0 0 153.11 195.82;" xml:space="preserve">
<style type="text/css">
	.st0{fill:#FFFFFF;}
	.st1{fill:#F45B6A;}
	.st2{fill:#808080;}
	.st3{fill:#D9D9D9;}
	.st4{fill:#999999;}
	.st5{fill:#A6CE39;}
	.st6{fill:#BFBFBF;}
	.st7{fill:#009F46;}
	.st8{fill:#62BB46;}
</style>
<g>
	<g>
		<g>
			<g>
				<circle class="st8" cx="1.82" cy="1.82" r="1.82"/>
				<circle class="st8" cx="23.17" cy="1.82" r="1.82"/>
				<circle class="st8" cx="44.53" cy="1.82" r="1.82"/>
				<circle class="st8" cx="65.88" cy="1.82" r="1.82"/>
				<circle class="st8" cx="87.23" cy="1.82" r="1.82"/>
				<circle class="st8" cx="108.59" cy="1.82" r="1.82"/>
				<circle class="st8" cx="129.94" cy="1.82" r="1.82"/>
				<circle class="st8" cx="151.3" cy="1.82" r="1.82"/>
			</g>
			<g>
				<circle class="st8" cx="1.82" cy="23.17" r="1.82"/>
				<circle class="st8" cx="23.17" cy="23.17" r="1.82"/>
				<circle class="st8" cx="44.53" cy="23.17" r="1.82"/>
				<circle class="st8" cx="65.88" cy="23.17" r="1.82"/>
				<circle class="st8" cx="87.23" cy="23.17" r="1.82"/>
				<circle class="st8" cx="108.59" cy="23.17" r="1.82"/>
				<circle class="st8" cx="129.94" cy="23.17" r="1.82"/>
				<circle class="st8" cx="151.3" cy="23.17" r="1.82"/>
			</g>
			<g>
				<circle class="st8" cx="1.82" cy="44.53" r="1.82"/>
				<circle class="st8" cx="23.17" cy="44.53" r="1.82"/>
				<circle class="st8" cx="44.53" cy="44.53" r="1.82"/>
				<circle class="st8" cx="65.88" cy="44.53" r="1.82"/>
				<circle class="st8" cx="87.23" cy="44.53" r="1.82"/>
				<circle class="st8" cx="108.59" cy="44.53" r="1.82"/>
				<circle class="st8" cx="129.94" cy="44.53" r="1.82"/>
				<circle class="st8" cx="151.3" cy="44.53" r="1.82"/>
			</g>
			<g>
				<circle class="st8" cx="1.82" cy="65.88" r="1.82"/>
				<circle class="st8" cx="23.17" cy="65.88" r="1.82"/>
				<circle class="st8" cx="44.53" cy="65.88" r="1.82"/>
				<circle class="st8" cx="65.88" cy="65.88" r="1.82"/>
				<circle class="st8" cx="87.23" cy="65.88" r="1.82"/>
				<circle class="st8" cx="108.59" cy="65.88" r="1.82"/>
				<circle class="st8" cx="129.94" cy="65.88" r="1.82"/>
				<circle class="st8" cx="151.3" cy="65.88" r="1.82"/>
			</g>
		</g>
	</g>
	<g>
		<g>
			<g>
				<circle class="st8" cx="1.82" cy="65.88" r="1.82"/>
				<circle class="st8" cx="23.17" cy="65.88" r="1.82"/>
				<circle class="st8" cx="44.53" cy="65.88" r="1.82"/>
				<circle class="st8" cx="65.88" cy="65.88" r="1.82"/>
				<circle class="st8" cx="87.23" cy="65.88" r="1.82"/>
				<circle class="st8" cx="108.59" cy="65.88" r="1.82"/>
				<circle class="st8" cx="129.94" cy="65.88" r="1.82"/>
				<circle class="st8" cx="151.3" cy="65.88" r="1.82"/>
			</g>
			<g>
				<circle class="st8" cx="1.82" cy="87.23" r="1.82"/>
				<circle class="st8" cx="23.17" cy="87.23" r="1.82"/>
				<circle class="st8" cx="44.53" cy="87.23" r="1.82"/>
				<circle class="st8" cx="65.88" cy="87.23" r="1.82"/>
				<circle class="st8" cx="87.23" cy="87.23" r="1.82"/>
				<circle class="st8" cx="108.59" cy="87.23" r="1.82"/>
				<circle class="st8" cx="129.94" cy="87.23" r="1.82"/>
				<circle class="st8" cx="151.3" cy="87.23" r="1.82"/>
			</g>
			<g>
				<circle class="st8" cx="1.82" cy="108.59" r="1.82"/>
				<circle class="st8" cx="23.17" cy="108.59" r="1.82"/>
				<circle class="st8" cx="44.53" cy="108.59" r="1.82"/>
				<circle class="st8" cx="65.88" cy="108.59" r="1.82"/>
				<circle class="st8" cx="87.23" cy="108.59" r="1.82"/>
				<circle class="st8" cx="108.59" cy="108.59" r="1.82"/>
				<circle class="st8" cx="129.94" cy="108.59" r="1.82"/>
				<circle class="st8" cx="151.3" cy="108.59" r="1.82"/>
			</g>
			<g>
				<circle class="st8" cx="1.82" cy="129.94" r="1.82"/>
				<circle class="st8" cx="23.17" cy="129.94" r="1.82"/>
				<circle class="st8" cx="44.53" cy="129.94" r="1.82"/>
				<circle class="st8" cx="65.88" cy="129.94" r="1.82"/>
				<circle class="st8" cx="87.23" cy="129.94" r="1.82"/>
				<circle class="st8" cx="108.59" cy="129.94" r="1.82"/>
				<circle class="st8" cx="129.94" cy="129.94" r="1.82"/>
				<circle class="st8" cx="151.3" cy="129.94" r="1.82"/>
			</g>
		</g>
	</g>
	<g>
		<g>
			<g>
				<circle class="st8" cx="1.82" cy="129.94" r="1.82"/>
				<circle class="st8" cx="23.17" cy="129.94" r="1.82"/>
				<circle class="st8" cx="44.53" cy="129.94" r="1.82"/>
				<circle class="st8" cx="65.88" cy="129.94" r="1.82"/>
				<circle class="st8" cx="87.23" cy="129.94" r="1.82"/>
				<circle class="st8" cx="108.59" cy="129.94" r="1.82"/>
				<circle class="st8" cx="129.94" cy="129.94" r="1.82"/>
				<circle class="st8" cx="151.3" cy="129.94" r="1.82"/>
			</g>
			<g>
				<circle class="st8" cx="1.82" cy="151.3" r="1.82"/>
				<circle class="st8" cx="23.17" cy="151.3" r="1.82"/>
				<circle class="st8" cx="44.53" cy="151.3" r="1.82"/>
				<circle class="st8" cx="65.88" cy="151.3" r="1.82"/>
				<circle class="st8" cx="87.23" cy="151.3" r="1.82"/>
				<circle class="st8" cx="108.59" cy="151.3" r="1.82"/>
				<circle class="st8" cx="129.94" cy="151.3" r="1.82"/>
				<circle class="st8" cx="151.3" cy="151.3" r="1.82"/>
			</g>
			<g>
				<circle class="st8" cx="1.82" cy="172.65" r="1.82"/>
				<circle class="st8" cx="23.17" cy="172.65" r="1.82"/>
				<circle class="st8" cx="44.53" cy="172.65" r="1.82"/>
				<circle class="st8" cx="65.88" cy="172.65" r="1.82"/>
				<circle class="st8" cx="87.23" cy="172.65" r="1.82"/>
				<circle class="st8" cx="108.59" cy="172.65" r="1.82"/>
				<circle class="st8" cx="129.94" cy="172.65" r="1.82"/>
				<circle class="st8" cx="151.3" cy="172.65" r="1.82"/>
			</g>
			<g>
				<circle class="st8" cx="1.82" cy="194.01" r="1.82"/>
				<circle class="st8" cx="23.17" cy="194.01" r="1.82"/>
				<circle class="st8" cx="44.53" cy="194.01" r="1.82"/>
				<circle class="st8" cx="65.88" cy="194.01" r="1.82"/>
				<circle class="st8" cx="87.23" cy="194.01" r="1.82"/>
				<circle class="st8" cx="108.59" cy="194.01" r="1.82"/>
				<circle class="st8" cx="129.94" cy="194.01" r="1.82"/>
				<circle class="st8" cx="151.3" cy="194.01" r="1.82"/>
			</g>
		</g>
	</g>
</g>
</svg>
