<svg width="57" height="29" viewBox="0 0 57 29" fill="none" xmlns="http://www.w3.org/2000/svg">
<path d="M32.4045 14.8265L32.3983 14.8017C32.262 14.0085 31.9955 13.2586 31.6051 12.5707C31.1961 11.8581 30.6818 11.2322 30.0683 10.7116C29.4548 10.1911 28.7545 9.7759 27.9799 9.48464C27.199 9.19338 26.3624 9.03845 25.5073 9.03845C24.3794 9.03845 23.3197 9.29253 22.353 9.80068C22.0927 9.93702 21.8386 10.0857 21.6031 10.2469L21.4296 10.3646L21.2561 10.2469C21.0144 10.0857 20.7666 9.93702 20.5063 9.80068C19.5395 9.29873 18.4737 9.03845 17.352 9.03845C16.4906 9.03845 15.6602 9.18718 14.8732 9.48464C14.7183 9.54041 14.5695 9.60858 14.4208 9.67674V9.21197H10.3804V15.3284V23.9423V28.0695H14.6811V16.0349C14.6811 15.2602 14.9228 14.6529 15.4433 14.1324C15.9639 13.6118 16.5712 13.3702 17.3458 13.3702C17.7176 13.3702 18.0523 13.4321 18.3683 13.5623C18.6658 13.68 18.926 13.8597 19.1801 14.1014L19.2731 14.1944V28.0757H23.6048V14.1572L23.7039 14.0642C23.9456 13.8411 24.1997 13.6738 24.4786 13.5561C24.8008 13.4259 25.1354 13.364 25.5073 13.364C26.2819 13.364 26.8892 13.6056 27.4097 14.1262C27.9055 14.622 28.1472 15.1859 28.172 15.9109V15.9233V28.0323H32.4727V15.3284C32.4665 15.1611 32.4479 14.9938 32.4045 14.8265Z" fill="#007CC3"/>
<path d="M56.9198 14.8265L56.9136 14.8017C56.7773 14.0085 56.5108 13.2586 56.1204 12.5707C55.7114 11.8581 55.1971 11.2322 54.5835 10.7116C53.97 10.1911 53.2698 9.7759 52.4952 9.48464C51.7143 9.19338 50.8777 9.03845 50.0225 9.03845C48.8947 9.03845 47.835 9.29253 46.8683 9.80068C46.608 9.93702 46.3539 10.0857 46.1184 10.2469L45.9449 10.3646L45.7714 10.2469C45.5359 10.0857 45.2818 9.93702 45.0216 9.80068C44.0486 9.29873 42.9889 9.03845 41.8673 9.03845C41.0059 9.03845 40.1755 9.18718 39.3885 9.48464C39.2336 9.54041 39.0848 9.60858 38.9361 9.67674V9.21197H34.9019V15.3284V23.9423V28.0695H39.2026V16.0349C39.2026 15.2602 39.4443 14.6529 39.9648 14.1324C40.4854 13.6118 41.0927 13.3702 41.8673 13.3702C42.2391 13.3702 42.5737 13.4321 42.896 13.5623C43.1934 13.68 43.4537 13.8597 43.7078 14.1014L43.8008 14.1944V28.0757H48.1325V14.1572L48.2316 14.0642C48.4733 13.8411 48.7274 13.6738 49.0062 13.5561C49.3285 13.4259 49.6631 13.364 50.0349 13.364C50.8096 13.364 51.4107 13.6056 51.9374 14.1262C52.4332 14.622 52.6749 15.1859 52.6997 15.9109V15.9233V28.0323H57.0004V15.3284C56.988 15.1611 56.9632 14.9938 56.9198 14.8265Z" fill="#007CC3"/>
<path d="M5.28629 11.7961C4.51786 11.7961 3.78661 11.6411 3.12354 11.3561V28.0694H7.42426V11.3685C6.76737 11.6473 6.04232 11.7961 5.28629 11.7961Z" fill="#007CC3"/>
<path d="M6.81714 7.74942C5.36084 7.5945 3.94792 6.95621 2.83866 5.84075C2.64036 5.64864 2.46064 5.44414 2.29332 5.23344C1.58067 4.32248 1.14068 3.26279 0.973362 2.17212C-0.352798 4.03742 -0.321813 6.5658 1.05392 8.40631C1.20265 8.61081 1.36997 8.80292 1.55588 8.98263C2.40487 9.83162 3.47075 10.3336 4.57382 10.4823C4.87748 10.2654 5.16873 10.0237 5.4414 9.75106C6.03631 9.15614 6.49489 8.48067 6.81714 7.74942Z" fill="#F4C6DE"/>
<path d="M10.1821 7.25987C10.7336 5.89653 10.6964 4.35967 10.0705 3.02112C9.04804 2.61212 7.94497 2.46959 6.86669 2.59353C7.54217 4.26052 7.51118 6.13821 6.77994 7.78662C6.45769 8.51167 5.99911 9.19334 5.4042 9.78825C5.13153 10.0609 4.84027 10.3088 4.53662 10.5195C6.12925 10.7426 7.79625 10.2406 9.01706 9.01982C9.5376 8.49927 9.92802 7.89816 10.1821 7.25987Z" fill="#F5A4C7"/>
<path d="M9.06039 1.55245C7.94493 0.436985 6.45145 -0.0773667 4.98896 0.00939134C3.73716 0.0837554 2.51015 0.598107 1.56201 1.55245C1.34512 1.76934 1.15301 1.99863 0.979492 2.24031C1.14681 3.33099 1.593 4.38448 2.30565 5.29544C2.50396 5.02897 2.72085 4.76869 2.96873 4.52701C4.07799 3.41774 5.47232 2.78565 6.91622 2.62453C7.9945 2.50059 9.09757 2.64312 10.1201 3.05212C9.866 2.50678 9.51277 1.99863 9.06039 1.55245Z" fill="#F173AC"/>
</svg>
